<svg width="48" height="48" viewBox="0 0 48 48" fill="none" xmlns="http://www.w3.org/2000/svg">
<circle cx="24" cy="24" r="23.5" stroke="#DDBC7A"/>
<path d="M33.2009 15.8801C32.063 14.6835 30.4684 14.0026 28.7978 14.0001C27.1259 14.002 25.5297 14.6825 24.39 15.8793L24.0016 16.2809L23.6132 15.8793C21.3518 13.4982 17.5454 13.3614 15.1115 15.5738C15.0036 15.6719 14.8995 15.7738 14.7992 15.8793C12.4003 18.4108 12.4003 22.3231 14.7992 24.8545L23.4308 33.7598C23.7294 34.0682 24.2271 34.0814 24.5423 33.7892C24.5527 33.7797 24.5627 33.7699 24.5725 33.7598L33.2009 24.8545C35.5997 22.3233 35.5997 18.4113 33.2009 15.8801Z" fill="#DDBC7A"/>
</svg>
