<svg width="48" height="48" viewBox="0 0 48 48" fill="none" xmlns="http://www.w3.org/2000/svg">
<circle cx="24" cy="24" r="24" fill="#DDBC7A"/>
<path d="M24.9291 16.4008L24.9291 16.4008L24.5407 16.8023L24.0016 17.3596L23.4625 16.8023L23.0741 16.4008L23.0694 16.3958L23.0694 16.3958C21.0896 14.3112 17.749 14.19 15.6161 16.1287L24.9291 16.4008ZM24.9291 16.4008L24.9332 16.3965M24.9291 16.4008L24.9332 16.3965M24.9332 16.3965C25.9294 15.3503 27.3284 14.7521 28.7977 14.7501C30.2653 14.7526 31.6624 15.3509 32.6569 16.3964C34.7802 18.6374 34.781 22.0939 32.6593 24.3357L24.0338 33.2379L24.0334 33.2383L24.0328 33.2389L24.0326 33.2391C24.026 33.2452 24.0158 33.2504 24.0002 33.25C23.9847 33.2496 23.9753 33.2439 23.9696 33.2381L23.9693 33.2378M24.9332 16.3965L23.9693 33.2378M23.9693 33.2378L15.3408 24.3357C13.2189 22.0935 13.2197 18.6366 15.3434 16.3954M23.9693 33.2378L15.3434 16.3954M15.3434 16.3954C15.4308 16.3035 15.5217 16.2146 15.616 16.1288L15.3434 16.3954Z" stroke="#0B1928" stroke-width="1.5"/>
</svg>
