<svg width="266" height="159" viewBox="0 0 266 159" fill="none" xmlns="http://www.w3.org/2000/svg">
<g opacity="0.07" clip-path="url(#clip0_36_176)">
<path d="M209.34 128.455C210.068 127.764 209.9 126.886 209.882 125.99C209.907 124.819 210.026 123.651 210.236 122.499C211.645 122.75 213.066 122.925 214.493 123.021C216.062 123.021 217.182 122.256 217.182 121.154C217.21 120.034 216.98 118.923 216.51 117.906C214.842 114.95 212.27 112.607 209.172 111.222C204.544 108.828 199.666 106.95 194.628 105.62C195.07 105.453 195.526 105.321 195.991 105.228C197.596 105.228 199.221 105.228 200.808 105.06C202.168 104.891 203.499 104.539 204.766 104.015C207.137 103.025 207.604 101.718 206.633 99.403C206.241 98.5255 205.718 97.6853 204.99 96.3037C207.884 97.2932 210.236 98.0587 212.552 98.9176C214.288 99.5524 215.931 100.411 217.686 100.971C220.362 101.801 222.885 103.062 225.154 104.705C226.943 106.063 228.814 107.311 230.756 108.44C231.256 108.823 231.843 109.078 232.465 109.181C233.087 109.285 233.724 109.234 234.322 109.033C234.92 108.832 235.459 108.487 235.891 108.029C236.324 107.57 236.638 107.013 236.805 106.405C237.048 105.9 237.216 105.378 237.458 104.743C238.411 105.06 239.325 105.434 240.222 105.639C243.34 106.349 244.908 104.612 243.956 101.587C243.597 100.387 242.942 99.2963 242.052 98.4154C241.161 97.5344 240.063 96.8917 238.859 96.5464L235.685 95.2208L235.853 94.7353C238.933 95.4635 242.014 96.1356 245.188 96.9011C249.538 98.0214 253.87 99.2723 258.258 100.299C259.285 100.559 260.37 100.455 261.33 100.006C262.289 99.5568 263.064 98.7897 263.523 97.8347C264.456 96.2663 264.12 94.754 262.514 92.8122C261.973 92.1588 261.506 91.4493 260.909 90.6278C262.178 89.993 263.205 89.5449 264.157 88.9661C264.609 88.7769 264.994 88.4574 265.264 88.0483C265.533 87.6393 265.674 87.1593 265.67 86.6696C265.576 85.624 264.755 85.2693 263.803 84.9519C258.736 83.2491 253.301 82.9587 248.082 84.1117C244.394 85.0464 240.583 85.3992 236.786 85.1572C238.896 83.8316 241.024 82.5247 243.134 81.1804C243.73 80.9244 244.214 80.4633 244.498 79.8809C244.782 79.2984 244.848 78.6333 244.684 78.0063C244.348 76.3073 243.788 75.6352 241.977 75.4671C240.628 75.4305 239.28 75.5054 237.944 75.6912C237.427 75.7786 236.915 75.8971 236.413 76.0459C236.21 75.49 235.891 74.9833 235.479 74.5591C235.066 74.1348 234.569 73.8024 234.019 73.5838C233.469 73.3653 232.879 73.2654 232.287 73.2907C231.696 73.316 231.117 73.466 230.587 73.7307C225.938 75.2431 222.372 78.4171 218.657 81.3297C215.39 84.2487 211.779 86.7568 207.903 88.798C206.67 87.9765 205.382 86.931 203.982 86.2588C202.837 85.5526 201.57 85.0651 200.248 84.8212C197.783 84.5784 195.281 84.8212 192.779 84.6345C192.179 84.7264 191.566 84.6872 190.983 84.5196C190.4 84.352 189.86 84.0599 189.4 83.6636C190.814 83.153 192.35 83.0814 193.806 83.4582C197.428 83.9623 199.295 82.1326 198.399 79.0706C198.367 78.8915 198.367 78.7082 198.399 78.5291C198.773 78.3051 199.183 78.081 199.575 77.801C201.442 76.5874 200.602 74.8697 199.165 74.2348C198.658 73.9933 198.101 73.878 197.54 73.8988C195.393 74.0295 193.246 74.2349 191.099 74.4589C190.109 74.5523 189.101 75.019 188.205 74.1228C188.951 73.3668 189.868 72.8023 190.879 72.4772C191.89 72.1521 192.965 72.0761 194.012 72.2558C197.934 72.5718 201.817 73.2658 205.606 74.3282C207.943 74.9424 210.311 75.4285 212.701 75.7845C216.286 76.1953 218.302 73.6001 217.275 70.1833L216.92 68.9884C217.491 68.8183 218.051 68.6189 218.601 68.3909C220.319 67.5321 220.356 66.8973 219.273 65.2169C218.735 64.3564 217.934 63.6921 216.989 63.3222C216.045 62.9523 215.006 62.8965 214.027 63.1631C213.537 63.2797 213.027 63.2725 212.541 63.1421C212.055 63.0117 211.61 62.7622 211.245 62.4163C212.304 61.8377 213.425 61.3804 214.587 61.0533C217.478 60.363 220.446 60.0431 223.418 60.1011C225.42 60.0289 227.413 59.7853 229.374 59.3729C230.541 59.1519 231.594 58.5317 232.354 57.6187C233.114 56.7057 233.532 55.5569 233.537 54.3692C233.558 53.3136 233.238 52.2795 232.627 51.419C232.015 50.5585 231.143 49.9172 230.139 49.5895C229.485 49.3085 228.86 48.9646 228.272 48.5626C227.843 44.6044 227.264 44.0629 223.511 43.9696C223.287 43.9696 223.044 43.9696 222.802 43.9696C219.907 44.0335 217.095 44.9491 214.717 46.6022C212.852 47.9734 210.742 48.9748 208.5 49.5521C209.471 47.6851 209.62 46.2474 208.407 45.0151C206.54 43.1481 204.785 44.2683 203.104 45.3886L202.525 44.7164C201.218 43.1667 200.378 43.0734 198.997 44.511C198.108 45.3233 197.386 46.2996 196.868 47.3863C194.665 52.9876 191.79 58.5888 190.632 64.6007C190.583 65.1319 190.38 65.6373 190.049 66.0551C189.717 66.4729 189.271 66.785 188.765 66.9533L183.556 68.8203C182.492 66.7666 180.83 66.3185 178.328 66.7479C179 65.833 179.262 65.0675 179.691 64.8808C181.203 64.4887 181.353 63.2378 181.558 62.0989C181.708 61.2799 181.776 60.4481 181.763 59.6157L179.112 57.4312C179.911 55.9302 181.14 54.7016 182.641 53.9024C185.653 52.2462 188.216 49.8816 190.109 47.0129C190.71 45.7284 191.658 44.6372 192.845 43.862C194.033 43.0868 195.413 42.6585 196.831 42.6253C197.708 42.6253 198.586 42.3826 199.463 42.3266L213.634 41.4677C216.056 41.31 218.423 40.6755 220.599 39.6006C221.251 39.2959 221.81 38.822 222.217 38.2283C222.625 37.6345 222.866 36.9426 222.915 36.2242C222.965 35.5059 222.821 34.7874 222.499 34.1433C222.177 33.4993 221.688 32.9532 221.084 32.5618C220.767 32.3564 220.505 32.0763 220.02 31.6842C222.186 30.3399 222.018 28.5102 221.663 26.4938C221.439 25.1495 220.748 24.6267 219.609 24.6267C218.26 24.7807 216.924 25.0366 215.614 25.3922C214.792 25.5602 213.989 25.803 212.645 26.1577C212.959 25.5016 213.334 24.8765 213.765 24.2906C216.435 21.6207 219.142 18.9881 221.85 16.3556C222.891 15.5393 223.737 14.5003 224.325 13.3146C224.913 12.129 225.228 10.8267 225.248 9.50341C225.237 8.87177 225.082 8.25099 224.793 7.68891C224.505 7.12683 224.091 6.63847 223.585 6.26145C223.078 5.88444 222.491 5.62885 221.87 5.51438C221.248 5.39992 220.609 5.42962 220.001 5.60122C219.273 5.82527 218.526 5.99331 217.649 6.23603C217.649 5.43318 217.649 4.96642 217.499 4.49965C217.411 3.32592 216.902 2.22367 216.064 1.39656C215.227 0.56945 214.118 0.0733767 212.944 0C210.33 0.112024 208.332 1.04556 207.921 3.86484C207.697 5.70057 207.31 7.51262 206.764 9.27936C205.811 12.08 204.654 14.8806 203.515 17.5505C203.2 18.13 202.824 18.6745 202.395 19.1748L201.872 19.0255C201.683 18.2979 201.564 17.5539 201.517 16.8037C201.517 14.5632 201.685 12.304 201.704 10.0635C201.815 8.52417 201.752 6.97718 201.517 5.45186C201.415 4.91413 201.181 4.41039 200.835 3.98634C200.489 3.5623 200.042 3.23139 199.536 3.02367C199.029 2.81594 198.479 2.73796 197.935 2.79683C197.391 2.85569 196.87 3.04952 196.42 3.36073C195.371 3.79222 194.434 4.45697 193.68 5.30455C192.927 6.15213 192.376 7.16027 192.07 8.25247C192.046 8.53788 191.951 8.81282 191.794 9.05229C191.637 9.29176 191.423 9.48816 191.17 9.6236C190.918 9.75905 190.636 9.82925 190.349 9.82783C190.063 9.8264 189.781 9.75339 189.531 9.61543C189.061 9.47795 188.56 9.49645 188.102 9.66815C187.644 9.83986 187.254 10.1555 186.991 10.5676C186.403 11.295 186.11 12.2165 186.168 13.15C186.227 14.0835 186.634 14.9609 187.309 15.6087C187.719 16.0568 188.336 16.5423 188.392 17.0837C189.003 20.5655 189.142 24.1139 188.802 27.6327C188.485 29.6118 188.205 31.6096 188.056 33.6073C187.899 35.7671 186.9 37.7788 185.274 39.2085C184.43 38.5656 183.62 37.8801 182.846 37.1548C182.51 36.7814 182.193 36.0159 182.361 35.6798C183.537 33.3086 183.014 30.2466 185.348 28.3608C185.555 28.1125 185.679 27.8057 185.703 27.4833C185.871 25.0748 186.151 22.6663 186.132 20.2764C186.114 17.8866 185.554 17.4571 183.052 17.4571C182.793 17.4017 182.547 17.3005 182.324 17.1584C182.308 16.688 182.352 16.2175 182.454 15.7581C182.632 15.2231 182.699 14.6573 182.651 14.0955C182.603 13.5337 182.441 12.9877 182.174 12.4907C182.04 11.9972 181.761 11.5555 181.372 11.2236C180.983 10.8917 180.503 10.685 179.994 10.6305C179.486 10.576 178.973 10.6763 178.522 10.9183C178.072 11.1603 177.705 11.5326 177.469 11.9866C176.922 13.1738 176.538 14.43 176.33 15.7208C175.599 14.1446 175.048 12.4912 174.687 10.7917C174.327 8.39633 173.37 6.12996 171.905 4.20092C171.561 3.55877 171.054 3.01873 170.434 2.63521C169.815 2.2517 169.105 2.03827 168.377 2.01644C167.608 1.96444 166.844 2.17677 166.213 2.61823C165.581 3.05968 165.119 3.70374 164.904 4.44364C164.721 4.75983 164.495 5.04891 164.232 5.30249C164.026 5.30249 163.933 5.30249 163.858 5.30249C162.943 4.83572 161.991 4.33161 161.114 3.86484C160.731 3.59049 160.285 3.41642 159.818 3.35854C159.35 3.30065 158.876 3.3608 158.438 3.53348C158 3.70616 157.612 3.98587 157.309 4.34707C157.007 4.70827 156.8 5.13945 156.707 5.60122C156.418 6.36054 156.328 7.18123 156.446 7.98519C156.563 8.78915 156.885 9.54962 157.38 10.1942C158.892 12.1733 160.516 14.0591 162.066 16.0195C162.415 16.5415 162.721 17.091 162.981 17.6625L162.57 17.9613C161.767 17.4945 160.572 17.1957 160.236 16.4863C159.247 14.3765 157.23 13.8724 155.475 13.0135C154.983 12.7675 154.442 12.6334 153.892 12.6207C153.342 12.608 152.796 12.717 152.293 12.94C151.79 13.163 151.342 13.4945 150.982 13.9106C150.622 14.3268 150.358 14.8174 150.21 15.3473C149.796 16.0476 149.63 16.8666 149.738 17.6727C149.847 18.4788 150.223 19.2249 150.807 19.791C151.013 19.959 151.031 20.3511 151.181 20.7619C150.807 21.0046 150.471 21.21 150.173 21.434C147.391 23.5811 147.092 25.6536 149.612 28.0995C151.019 29.3949 152.652 30.4202 154.43 31.1241C157.249 32.263 160.255 32.9912 163.111 33.9807C165.77 34.838 168.158 36.3764 170.038 38.4431C169.977 38.6436 169.895 38.8375 169.796 39.0218C168.265 41.449 166.061 43.4655 165.128 46.2848C164.411 47.9385 163.163 49.3054 161.58 50.1683C161.786 48.9547 161.954 48.1705 162.047 47.405C162.284 46.3068 162.403 45.1864 162.402 44.0629C162.408 43.379 162.239 42.7048 161.913 42.1038C161.586 41.5029 161.112 40.9948 160.535 40.6275C159.676 40.1981 157.977 41.337 157.043 42.756C156.483 43.6148 155.867 44.4177 155.288 45.2579C154.555 44.7997 153.709 44.555 152.844 44.5514C151.98 44.5477 151.131 44.7851 150.394 45.237C149.657 45.6889 149.061 46.3374 148.672 47.1095C148.283 47.8817 148.118 48.747 148.194 49.6082C148.298 51.5378 147.919 53.463 147.092 55.2094C146.225 54.9629 145.321 54.8681 144.422 54.9293C143.551 55.1145 142.736 55.4993 142.039 56.0533C141.343 56.6073 140.784 57.3155 140.408 58.122C139.885 59.3667 139.381 60.6114 138.895 61.8562C138.793 62.3552 138.589 62.828 138.297 63.2455C138.005 63.6629 137.63 64.0161 137.196 64.2833C137.276 63.5993 137.42 62.9242 137.626 62.2669C139.064 58.9622 140.651 55.6948 141.995 52.3341C142.804 50.3288 143.429 48.254 143.862 46.1354C143.967 45.486 143.854 44.8202 143.539 44.2423C143.225 43.6644 142.728 43.2073 142.126 42.9427C141.586 42.5788 140.938 42.4101 140.29 42.4645C139.641 42.5188 139.031 42.7929 138.559 43.2414C138.335 43.4468 138.037 43.5962 137.794 43.8202C136.879 44.6417 136.17 44.2496 135.572 43.4281C135.335 43.012 135.123 42.5818 134.937 42.1399C133.873 40.2728 131.913 40.1421 130.102 40.0301C128.29 39.918 127.562 41.169 126.89 42.5319C126.372 43.4339 126.038 44.4295 125.906 45.4614C125.775 46.4932 125.849 47.5409 126.125 48.5439C126.897 50.953 127.139 53.5008 126.834 56.0122C126.559 55.153 126.088 54.3691 125.46 53.7214C124.832 53.0737 124.062 52.5798 123.212 52.2781C121.55 51.5872 120.411 51.6806 120.169 53.2676C119.665 56.4977 117.742 57.3192 114.96 57.3378C114.829 57.3378 114.68 57.2071 114.624 57.1885C113.317 52.7448 112.066 48.3572 110.721 43.9883C109.377 39.6193 108.313 39.2085 104.429 40.8889C103.29 40.0487 102.039 39.3019 100.564 40.3848C99.4558 41.1669 98.6687 42.3248 98.3493 43.6434C98.03 44.962 98.2001 46.3517 98.8281 47.5544C97.4091 46.3408 96.5129 45.5566 95.598 44.8098C94.6923 44.0171 93.7382 43.2813 92.7414 42.6066C92.0018 42.0471 91.1127 41.7196 90.1869 41.6657C89.261 41.6117 88.3399 41.8336 87.5403 42.3034C86.7406 42.7732 86.0984 43.4697 85.6948 44.3048C85.2912 45.1398 85.1445 46.0758 85.2731 46.9942C85.3271 47.5923 85.427 48.1852 85.5719 48.768C84.8997 49.3281 84.2089 49.8695 83.5554 50.4483C80.7548 52.8195 80.9228 56.0122 83.8915 57.8793C85.3836 59.005 87.2135 59.5909 89.082 59.541C89.8091 59.5171 90.5318 59.6641 91.1918 59.9704C94.6645 61.3894 98.1186 62.8644 101.573 64.358C101.703 64.358 101.703 64.7501 101.741 64.8808C99.3135 64.6194 96.9237 64.2833 94.5338 64.1153C93.7661 64.0081 92.985 64.1711 92.3242 64.5765C91.6634 64.9818 91.1641 65.6042 90.9117 66.3371C90.5766 67.1239 90.5217 68.0019 90.7562 68.8243C90.9906 69.6467 91.5003 70.3637 92.2 70.8555C92.8908 71.4156 93.6563 71.8637 94.3471 72.4238C94.6458 72.6665 95.1126 73.0586 95.0753 73.32C94.7952 74.963 95.318 76.7927 94.0484 78.2117C95.1198 80.1728 96.884 81.664 98.9961 82.394C99.959 82.784 100.835 83.3616 101.573 84.093C102.731 85.0565 103.478 86.4253 103.662 87.9205C103.846 89.4157 103.452 90.9247 102.562 92.1401C101.722 93.5217 100.452 93.8951 98.4547 94.2125C99.0148 93.2603 99.3135 92.7749 99.5936 92.3455C99.8367 92.0212 99.9918 91.6395 100.044 91.2376C100.096 90.8357 100.044 90.4271 99.8916 90.0514C99.7395 89.6758 99.4929 89.3458 99.1757 89.0935C98.8585 88.8412 98.4815 88.6751 98.0813 88.6113C97.3163 88.3502 96.4953 88.2991 95.7039 88.4633C94.9124 88.6275 94.1796 89.001 93.5816 89.5449C92.4151 90.4846 91.1652 91.3158 89.8475 92.0281C92.393 87.8935 93.8688 83.1901 94.1417 78.3424C93.7123 74.6083 90.613 74.6083 87.8497 74.3469C87.8497 73.9548 87.8497 73.6374 87.7563 73.3387C87.6357 72.3904 87.2035 71.5092 86.5276 70.8333C85.8517 70.1574 84.9704 69.7251 84.0222 69.6045C83.192 69.3977 82.3183 69.4516 81.5199 69.7589C80.7214 70.0663 80.0371 70.6121 79.5599 71.3222C79.1145 71.9538 78.8408 72.6902 78.7655 73.4593C78.6902 74.2284 78.816 75.0039 79.1305 75.7098C79.6719 77.5769 80.3254 79.444 80.9975 81.2177C81.4235 82.4054 81.6083 83.6661 81.5409 84.926C81.4736 86.186 81.1556 87.4198 80.6054 88.5553C80.232 86.6882 80.0266 85.0452 79.5412 83.4582C79.3933 83.0206 79.1501 82.6213 78.829 82.2892C78.5079 81.957 78.1171 81.7004 77.6847 81.5378C77.2523 81.3753 76.7893 81.3108 76.3289 81.349C75.8686 81.3873 75.4225 81.5274 75.0229 81.7592C74.4914 82.096 73.9802 82.4639 73.4919 82.8607C72.4553 82.2831 71.2621 82.0496 70.0843 82.1939C68.9065 82.3382 67.8049 82.8528 66.9385 83.6636C66.3326 84.1406 65.8428 84.7488 65.5061 85.4426C65.1693 86.1363 64.9944 86.8973 64.9944 87.6684C64.9944 88.4396 65.1693 89.2006 65.5061 89.8943C65.8428 90.5881 66.3326 91.1963 66.9385 91.6733C67.7198 92.3103 68.2948 93.1648 68.5906 94.1285C68.8864 95.0923 68.8897 96.1222 68.6002 97.0878C68.2778 98.2501 68.1021 99.4481 68.0774 100.654C68.0945 101.544 67.8798 102.424 67.4543 103.206C67.0287 103.989 66.407 104.647 65.6502 105.116C64.5412 105.924 63.3128 106.554 62.0094 106.983C58.9847 107.842 55.9041 108.477 52.8607 109.261C47.1413 110.962 41.5299 113.007 36.0571 115.385C31.3334 117.252 26.7217 119.325 22.0167 121.248C17.2123 122.885 12.5481 124.908 8.06963 127.297C5.04497 129.164 1.92696 130.826 -0.948334 132.898C-5.59735 136.166 -9.87295 139.956 -15.1754 142.626C-15.0228 143.148 -14.783 143.64 -14.4659 144.082C-13.3192 145.143 -11.856 145.797 -10.301 145.946C-8.74608 146.094 -7.18542 145.728 -5.85874 144.904C-3.80496 143.634 -1.8632 142.178 0.19058 140.945C3.71935 138.854 7.28546 136.8 10.8889 134.84C14.4924 132.88 17.8718 131.106 21.3632 129.37C22.3218 128.87 23.2507 128.315 24.1451 127.708C29.6094 124.133 35.4513 121.171 41.5649 118.877C46.625 116.991 51.8091 115.456 57.0803 114.284C61.3606 113.287 65.7665 112.941 70.1498 113.257C72.2321 113.321 74.3114 113.056 76.3112 112.473C80.2694 111.446 84.1342 110.027 88.1111 109.093C90.9039 108.608 93.7723 108.8 96.4756 109.653C96.6436 109.653 96.737 109.989 97.0544 110.4C96.0088 110.568 95.1873 110.717 94.3098 110.811C92.088 111.091 89.8288 111.203 87.6256 111.595C82.3978 112.529 77.1514 113.462 71.9982 114.62C64.1005 116.487 56.0908 117.906 48.3798 120.538C42.3796 122.556 36.5223 124.976 30.8479 127.783C26.9084 129.762 23.0809 131.946 19.2907 134.205C17.5485 135.356 15.8718 136.602 14.2683 137.939C13.7755 138.344 13.2365 138.689 12.6626 138.966C10.0114 140.124 7.34147 141.281 4.63422 142.308C2.22569 143.223 -0.220175 144.026 -2.68471 144.81C-5.14925 145.594 -7.31506 146.099 -9.61156 146.808C-14.6713 148.376 -19.6564 150.206 -25.0523 150.355C-25.4962 150.352 -25.9323 150.473 -26.3115 150.704C-26.6908 150.935 -26.9982 151.267 -27.1994 151.662C-27.9649 153.324 -28.9171 154.967 -30 156.834C-29.2722 157.346 -28.5181 157.82 -27.7408 158.253C-25.7952 159.061 -23.6405 159.218 -21.5982 158.701C-14.9386 157.332 -8.46018 155.196 -2.29263 152.335C-2.15519 152.599 -1.99262 152.849 -1.80719 153.081C0.93741 155.733 3.1779 157.226 6.44528 155.602C6.80745 155.458 7.13748 155.243 7.41629 154.971C7.6951 154.699 7.91715 154.374 8.06963 154.015C8.54511 153.194 9.17992 152.477 9.9367 151.905C10.4595 151.401 11.0943 151.046 11.6357 150.561C14.3243 148.283 16.9569 145.893 19.7015 143.69C21.0934 142.606 22.5807 141.649 24.1451 140.833C25.2167 140.306 26.3357 139.881 27.4872 139.564C28.5514 139.19 29.6717 138.966 30.7172 138.556C36.1118 136.414 41.6524 134.661 47.2969 133.309C53.5429 132.05 60.009 132.436 66.0609 134.429C68.9128 135.269 71.6815 136.369 74.3321 137.715C76.9235 138.992 79.1372 140.923 80.7548 143.317C82.1033 145.407 83.6008 147.398 85.2358 149.273C87.4016 151.644 89.8848 151.326 91.8452 148.675L93.2082 146.808L95.3553 147.779C97.9879 148.899 99.3509 148.134 99.5749 145.296C99.5984 144.496 99.4117 143.704 99.0335 142.999C97.9198 141.022 96.216 139.442 94.1604 138.481C93.1522 137.939 92.1813 137.286 91.1918 136.614C92.1438 136.364 93.1506 136.423 94.067 136.782C97.9879 138.649 101.927 140.516 105.755 142.383C108.742 143.989 111.674 143.41 112.775 140.516C113.104 139.37 113.18 138.166 112.999 136.987C112.844 136.18 112.587 135.396 112.234 134.653C112.486 134.563 112.75 134.512 113.018 134.504C115.09 134.933 115.818 133.384 115.538 131.535C115.452 130.684 115.135 129.873 114.622 129.189C114.108 128.505 113.418 127.973 112.626 127.652C109.876 126.261 106.785 125.691 103.72 126.009C103.099 126.071 102.474 126.071 101.853 126.009C99.855 126.009 97.8385 126.009 95.8408 125.841C94.6368 125.775 93.439 125.626 92.256 125.393C91.8826 125.393 91.5652 124.795 91.005 124.272C92.0135 123.855 93.0489 123.505 94.1044 123.227C94.7221 123.174 95.319 122.978 95.8474 122.654C96.3758 122.33 96.8211 121.887 97.1477 121.36C97.6649 120.644 98.419 120.135 99.2762 119.922C101.479 119.231 103.738 118.578 105.792 120.501C106.371 120.848 107.001 121.1 107.659 121.248C110.515 122.405 113.198 123.95 115.632 125.841C116.109 126.12 116.478 126.552 116.678 127.067C116.878 127.583 116.897 128.151 116.733 128.679C116.565 129.37 116.733 130.546 117.107 130.863C117.68 131.274 118.098 131.866 118.291 132.544C118.484 133.223 118.442 133.946 118.171 134.597C118.056 135.15 118.006 135.714 118.022 136.278C118.007 136.583 118.061 136.888 118.178 137.17C118.296 137.453 118.474 137.705 118.701 137.911C118.927 138.116 119.197 138.268 119.489 138.357C119.782 138.446 120.09 138.469 120.393 138.425C121.245 138.25 122.056 137.914 122.783 137.435C123.66 136.931 124.463 136.278 125.583 135.475C125.535 135.852 125.441 136.222 125.303 136.576C123.996 138.593 122.521 140.535 121.42 142.644C120.897 143.816 120.685 145.102 120.804 146.379C120.747 146.913 120.822 147.453 121.022 147.952C121.222 148.451 121.542 148.893 121.953 149.24C122.364 149.586 122.854 149.826 123.379 149.94C123.905 150.053 124.45 150.035 124.967 149.889C125.754 149.747 126.524 149.522 127.264 149.217C127.721 149.06 128.17 148.88 128.608 148.675C128.739 149.179 128.795 149.478 128.888 149.777C129.031 150.315 129.284 150.818 129.632 151.253C129.979 151.688 130.414 152.046 130.907 152.304C131.401 152.562 131.942 152.715 132.498 152.752C133.054 152.789 133.611 152.711 134.134 152.521C135.297 151.961 136.275 151.08 136.954 149.982C138.354 147.499 139.997 144.904 139.904 141.898C139.904 141.636 140.146 141.393 140.445 140.815C140.875 142.047 141.229 142.943 141.509 143.858C141.725 144.465 142.078 145.013 142.541 145.46C143.005 145.907 143.565 146.241 144.179 146.435C145.356 146.939 145.916 146.117 146.719 145.594C147.37 145.335 148.037 145.117 148.716 144.941C149.482 144.586 150.583 144.287 150.882 143.653C151.353 143 151.655 142.24 151.759 141.441C151.863 140.642 151.767 139.831 151.48 139.078C151.201 138.236 150.982 137.375 150.826 136.502C150.33 133.639 149.243 130.911 147.633 128.492C145.99 126.457 144.478 124.328 142.611 121.864C144.478 121.864 145.748 121.864 147.073 122.069C149.09 122.236 151.116 121.902 152.973 121.098C153.515 120.874 154.374 120.258 154.318 119.941C154.037 118.242 154.859 116.412 153.795 114.806C153.44 114.302 153.16 113.761 152.656 112.939C154.285 113.092 155.926 112.813 157.414 112.132C158.901 111.45 160.184 110.389 161.132 109.056C160.49 113.054 159.296 116.943 157.585 120.613C157.062 121.522 156.72 122.524 156.577 123.563C156.334 126.55 157.566 128.343 160.311 128.137C160.734 128.111 161.158 128.111 161.58 128.137C161.823 128.679 162.085 129.164 162.309 129.687C162.502 130.381 162.924 130.99 163.507 131.414C164.091 131.837 164.8 132.051 165.52 132.021C166.163 131.982 166.781 131.761 167.304 131.385C167.826 131.008 168.23 130.49 168.47 129.892C169.366 127.502 170.468 125.187 171.495 122.816C173.754 123.358 173.754 123.358 175.565 121.584C175.808 122.013 176.013 122.424 176.274 122.816C178.814 126.55 180.961 127.334 185.292 125.915C187.159 125.281 187.159 125.318 188.578 126.886C189.092 127.497 189.728 127.993 190.445 128.343C191.79 128.959 192.742 128.604 193.059 127.185C193.582 124.833 194.068 122.368 192.406 120.24C191.23 118.727 189.904 117.327 188.672 115.871C188 115.105 186.973 114.582 187.029 113.182C187.362 113.24 187.665 113.412 187.887 113.667C190.203 116.001 192.574 118.279 194.833 120.65C195.935 121.827 196.7 123.208 197.82 124.384C199.09 125.934 200.322 127.521 201.723 128.94C202.277 129.695 203.055 130.257 203.946 130.545C204.838 130.833 205.797 130.833 206.689 130.546C207.69 130.012 208.588 129.304 209.34 128.455ZM128.589 90.1983C128.589 87.267 128.589 87.267 126.722 84.7278C128.35 83.7375 130.264 83.3232 132.155 83.5516C133.71 83.6544 135.269 83.6544 136.823 83.5516H137.794C136.636 86.1655 132.435 89.2088 128.589 90.1983ZM70.0565 121.36C65.1461 122.592 60.2543 123.955 55.2879 124.963C48.3537 126.393 41.5475 128.385 34.9368 130.919C33.9473 131.293 32.939 131.554 31.9308 131.853C31.7139 131.881 31.4942 131.881 31.2774 131.853C46.3446 123.152 62.7562 118.783 79.5786 115.852L79.8026 116.3C79.4223 116.655 79.0098 116.974 78.5703 117.252C76.4232 118.466 74.4068 119.493 72.3156 120.576C71.5914 120.914 70.8344 121.176 70.0565 121.36ZM100.116 113.892C97.6705 114.918 95.1499 115.759 92.7601 116.505L89.4927 114.041L107.659 111.334C107.659 111.539 107.659 111.726 107.79 111.931C105.4 113.163 102.562 112.865 100.116 113.892Z" fill="white"/>
<path d="M137.458 128.044L139.325 126.177C140.539 126.83 139.586 127.839 139.773 128.324C141.379 130.004 142.872 131.423 144.179 133.01C145.15 134.224 144.982 134.616 143.881 135.606L139.344 130.695C138.074 133.402 137.122 135.83 135.852 138.163C134.583 140.497 133.052 142.346 131.595 144.474C130.4 143.858 130.382 143.317 130.923 142.458C132.081 140.591 133.108 138.724 134.396 136.539C133.678 136.733 132.948 136.883 132.211 136.987C131.857 136.987 131.222 136.838 131.184 136.632C131.127 136.419 131.12 136.196 131.162 135.979C131.204 135.762 131.295 135.558 131.427 135.382C132.306 134.82 133.216 134.309 134.153 133.851C135.199 133.29 136.879 133.626 137.066 131.815C137.178 130.695 137.308 129.463 137.458 128.044ZM135.292 145.24C134.246 145.52 133.836 146.36 133.425 147.256C134.302 146.789 135.199 146.379 135.292 145.24ZM122.428 103.399C121.121 105.266 121.438 106.554 123.417 107.786C123.565 107.026 123.553 106.244 123.382 105.489C123.212 104.733 122.887 104.022 122.428 103.399ZM206.801 130.695C205.909 130.983 204.95 130.982 204.058 130.694C203.167 130.406 202.389 129.845 201.835 129.089C200.434 127.671 199.202 126.083 197.932 124.534C196.905 123.302 196.065 121.92 194.945 120.8C192.686 118.428 190.315 116.151 188 113.817C187.777 113.561 187.474 113.39 187.141 113.331C187.141 114.732 188.112 115.198 188.784 116.02C190.053 117.476 191.379 118.877 192.518 120.389C194.18 122.517 193.694 124.982 193.171 127.334C192.854 128.753 191.902 129.202 190.557 128.492C189.84 128.143 189.204 127.647 188.69 127.036C187.271 125.467 187.29 125.43 185.404 126.065C181.073 127.484 178.926 126.774 176.386 122.965C176.125 122.573 175.92 122.163 175.677 121.733C173.81 123.6 173.81 123.6 171.607 122.965C170.58 125.337 169.478 127.652 168.582 130.042C168.342 130.64 167.938 131.157 167.416 131.534C166.893 131.911 166.275 132.131 165.632 132.17C164.912 132.201 164.203 131.987 163.619 131.563C163.036 131.139 162.614 130.531 162.421 129.836C162.197 129.314 161.935 128.828 161.692 128.287C161.27 128.26 160.846 128.26 160.423 128.287C157.622 128.492 156.39 126.7 156.689 123.712C156.832 122.673 157.174 121.672 157.697 120.762C159.408 117.093 160.602 113.203 161.244 109.205C160.296 110.539 159.013 111.599 157.526 112.281C156.038 112.963 154.397 113.241 152.768 113.089C153.272 113.948 153.552 114.489 153.907 114.956C154.971 116.561 154.149 118.391 154.43 120.09C154.43 120.408 153.627 121.024 153.085 121.248C151.216 122.029 149.183 122.337 147.167 122.144C145.841 122.013 144.497 122.013 142.704 121.939C144.571 124.403 146.084 126.532 147.727 128.567C149.336 130.986 150.424 133.714 150.919 136.576C151.076 137.45 151.294 138.311 151.573 139.153C151.861 139.905 151.957 140.717 151.852 141.516C151.748 142.314 151.447 143.074 150.975 143.727C150.639 144.362 149.575 144.661 148.81 145.016C148.131 145.191 147.463 145.409 146.812 145.669C146.009 146.192 145.449 147.013 144.273 146.509C143.634 146.304 143.054 145.947 142.582 145.469C142.111 144.991 141.762 144.407 141.565 143.765C141.285 142.85 140.931 141.898 140.501 140.721C140.202 141.3 139.96 141.543 139.96 141.804C139.96 144.885 138.354 147.405 136.991 149.963C136.312 151.061 135.334 151.942 134.172 152.503C133.648 152.692 133.091 152.771 132.535 152.733C131.98 152.696 131.438 152.543 130.944 152.285C130.451 152.027 130.017 151.669 129.669 151.234C129.321 150.799 129.068 150.296 128.925 149.758C128.832 149.459 128.776 149.161 128.645 148.656C128.207 148.861 127.758 149.042 127.301 149.198C126.562 149.503 125.792 149.729 125.004 149.87C124.495 150.007 123.959 150.019 123.444 149.905C122.928 149.791 122.448 149.555 122.043 149.216C121.638 148.877 121.321 148.446 121.118 147.958C120.915 147.471 120.833 146.942 120.878 146.416C120.76 145.139 120.972 143.853 121.494 142.682C122.596 140.572 124.071 138.63 125.378 136.614C125.516 136.259 125.61 135.889 125.658 135.512C124.538 136.315 123.791 136.969 122.857 137.473C122.131 137.952 121.32 138.288 120.467 138.462C120.163 138.507 119.853 138.484 119.559 138.394C119.265 138.304 118.995 138.149 118.768 137.942C118.541 137.735 118.363 137.48 118.247 137.195C118.131 136.91 118.079 136.603 118.096 136.296C118.08 135.732 118.13 135.168 118.246 134.616C118.517 133.965 118.559 133.241 118.366 132.563C118.172 131.885 117.755 131.292 117.181 130.882C116.752 130.583 116.64 129.388 116.808 128.697C116.971 128.159 116.942 127.58 116.728 127.06C116.514 126.539 116.127 126.109 115.632 125.841C113.163 123.982 110.448 122.474 107.566 121.36C106.908 121.212 106.278 120.96 105.699 120.613C103.645 118.746 101.386 119.343 99.1828 120.034C98.3757 120.237 97.6594 120.703 97.1477 121.36C96.8286 121.915 96.3801 122.385 95.8405 122.729C95.3009 123.074 94.6861 123.283 94.0484 123.339C92.9929 123.617 91.9575 123.967 90.949 124.384C91.5091 124.907 91.8266 125.43 92.2 125.505C93.3829 125.738 94.5808 125.887 95.7848 125.953C97.7825 126.046 99.799 126.083 101.797 126.121C102.418 126.183 103.043 126.183 103.664 126.121C106.729 125.803 109.82 126.373 112.57 127.764C113.393 128.065 114.116 128.589 114.657 129.279C115.198 129.968 115.535 130.795 115.632 131.666C115.912 133.533 115.184 135.064 113.111 134.635C112.844 134.643 112.579 134.693 112.327 134.784C112.68 135.526 112.937 136.311 113.093 137.118C113.274 138.297 113.197 139.5 112.868 140.647C111.767 143.541 108.836 144.119 105.848 142.514C102.114 140.46 98.0813 138.649 94.1604 136.913C93.2439 136.554 92.2372 136.495 91.2851 136.744C92.2747 137.361 93.1522 138.014 94.2538 138.612C96.3094 139.573 98.0132 141.153 99.1268 143.13C99.505 143.835 99.6917 144.627 99.6683 145.426C99.4442 148.264 98.0813 149.03 95.4487 147.91L93.2269 146.789L91.8639 148.656C89.9035 151.308 87.4203 151.625 85.2545 149.254C83.6195 147.379 82.122 145.388 80.7735 143.298C79.1559 140.904 76.9422 138.974 74.3507 137.697C71.6935 136.356 68.9185 135.262 66.0609 134.429C60.009 132.436 53.5429 132.05 47.2969 133.309C41.6588 134.662 36.1244 136.415 30.7359 138.556C29.6903 138.966 28.5701 139.19 27.5059 139.564C26.3544 139.881 25.2354 140.306 24.1638 140.833C22.59 141.672 21.0964 142.653 19.7015 143.765C16.9569 145.968 14.3243 148.358 11.6357 150.636C11.0943 151.121 10.4595 151.476 9.9367 151.98C9.17992 152.552 8.54511 153.269 8.06963 154.09C7.91715 154.448 7.6951 154.773 7.41629 155.046C7.13748 155.318 6.80745 155.533 6.44528 155.677C3.1779 157.301 0.93741 155.807 -1.80719 153.156C-1.99262 152.923 -2.15519 152.673 -2.29263 152.409C-8.46339 155.245 -14.9417 157.356 -21.5982 158.701C-23.6345 159.236 -25.7891 159.099 -27.7408 158.309C-28.5193 157.858 -29.2734 157.365 -30 156.834C-28.9171 154.967 -27.9649 153.268 -27.0314 151.588C-26.8302 151.192 -26.5227 150.86 -26.1435 150.629C-25.7642 150.398 -25.3282 150.278 -24.8842 150.281C-19.4884 150.131 -14.5033 148.302 -9.44352 146.733C-7.14702 146.024 -4.81318 145.445 -2.51668 144.736C-0.220175 144.026 2.39373 143.149 4.80225 142.234C7.50951 141.207 10.1794 140.049 12.8307 138.892C13.4045 138.614 13.9435 138.269 14.4364 137.865C16.0398 136.528 17.7166 135.281 19.4588 134.131C23.1929 131.871 27.0764 129.687 31.016 127.708C36.6904 124.902 42.5476 122.481 48.5478 120.464C56.2588 117.831 64.2686 116.412 72.1663 114.545C77.3194 113.313 82.5659 112.454 87.7937 111.52C89.9968 111.128 92.256 111.016 94.4778 110.736C95.3367 110.643 96.1768 110.493 97.2224 110.325C96.905 109.915 96.8116 109.616 96.6436 109.579C93.9404 108.725 91.0719 108.533 88.2791 109.018C84.3022 109.952 80.4374 111.371 76.4792 112.398C74.4794 112.982 72.4001 113.246 70.3179 113.182C65.9345 112.866 61.5286 113.213 57.2484 114.209C51.9771 115.381 46.793 116.916 41.733 118.802C35.558 121.109 29.6591 124.096 24.1451 127.708C23.2454 128.239 22.3166 128.719 21.3632 129.145C17.8718 131.013 14.343 132.73 10.8889 134.616C7.43483 136.502 3.71935 138.63 0.19058 140.721C-1.8632 141.954 -3.80496 143.41 -5.85874 144.68C-7.18542 145.504 -8.74608 145.87 -10.301 145.722C-11.856 145.573 -13.3192 144.919 -14.4659 143.858C-14.7436 143.409 -14.9455 142.917 -15.0634 142.402C-9.76092 139.732 -5.48532 135.942 -0.836309 132.674C2.03898 130.639 5.157 128.94 8.18166 127.073C12.6602 124.684 17.3243 122.661 22.1287 121.024C26.8151 119.157 31.4641 117.01 36.1691 115.161C41.6419 112.783 47.2533 110.738 52.9727 109.037C56.0161 108.253 59.0968 107.618 62.1214 106.759C63.4248 106.33 64.6532 105.7 65.7622 104.892C66.519 104.423 67.1408 103.765 67.5663 102.982C67.9918 102.2 68.2066 101.32 68.1894 100.43C68.1956 99.3037 68.3335 98.182 68.6002 97.0878C68.9329 96.0983 68.9537 95.0305 68.6599 94.0287C68.366 93.027 67.7716 92.1396 66.9571 91.4866C66.3513 91.0096 65.8615 90.4013 65.5247 89.7076C65.188 89.0139 65.013 88.2529 65.013 87.4817C65.013 86.7106 65.188 85.9496 65.5247 85.2558C65.8615 84.5621 66.3513 83.9539 66.9571 83.4769C67.8236 82.6661 68.9252 82.1515 70.103 82.0072C71.2808 81.8629 72.474 82.0964 73.5106 82.674C73.9989 82.2772 74.5101 81.9093 75.0416 81.5724C75.4411 81.3407 75.8872 81.2006 76.3476 81.1623C76.8079 81.1241 77.271 81.1885 77.7034 81.3511C78.1358 81.5137 78.5266 81.7703 78.8477 82.1024C79.1687 82.4346 79.412 82.8339 79.5599 83.2715C80.0453 84.8585 80.2507 86.5575 80.6241 88.3686C81.1742 87.2331 81.4923 85.9993 81.5596 84.7393C81.6269 83.4794 81.4422 82.2187 81.0162 81.031C80.4001 79.1639 79.7466 77.2969 79.1491 75.5231C78.8346 74.8172 78.7089 74.0417 78.7842 73.2726C78.8594 72.5035 79.1332 71.7671 79.5786 71.1355C80.0558 70.4254 80.7401 69.8796 81.5386 69.5722C82.337 69.2649 83.2107 69.211 84.0409 69.4178C84.9891 69.5384 85.8704 69.9706 86.5463 70.6465C87.2222 71.3224 87.6544 72.2037 87.775 73.152C87.775 73.4507 87.775 73.7681 87.8684 74.1602C90.6316 74.5149 93.731 74.3469 94.1604 78.1557C93.8875 83.0034 92.4117 87.7068 89.8661 91.8414C91.1839 91.1291 92.4338 90.2979 93.6003 89.3582C94.1982 88.8143 94.9311 88.4408 95.7225 88.2766C96.514 88.1124 97.335 88.1635 98.0999 88.4246C98.5002 88.4884 98.8772 88.6545 99.1943 88.9068C99.5115 89.1591 99.7581 89.4891 99.9103 89.8647C100.062 90.2404 100.115 90.649 100.063 91.0509C100.011 91.4528 99.8553 91.8344 99.6122 92.1588C99.3322 92.6629 99.0335 93.1483 98.4733 94.0258C100.471 93.7084 101.741 93.335 102.581 91.9534C103.459 90.7467 103.848 89.2529 103.672 87.7711C103.495 86.2893 102.766 84.9289 101.629 83.9623C100.891 83.2309 100.015 82.6533 99.0521 82.2633C96.94 81.5333 95.1758 80.0421 94.1044 78.081C95.374 76.662 94.8512 74.8323 95.1313 73.1893C95.1313 72.9279 94.7018 72.5358 94.4031 72.2931C93.7123 71.733 92.9468 71.2849 92.256 70.7248C91.5563 70.233 91.0467 69.516 90.8122 68.6936C90.5777 67.8712 90.6326 66.9932 90.9677 66.2064C91.2201 65.4735 91.7194 64.8511 92.3802 64.4458C93.041 64.0404 93.8221 63.8774 94.5898 63.9846C96.9797 64.1527 99.3695 64.4887 101.797 64.7501C101.797 64.6194 101.797 64.2834 101.629 64.2273C98.1746 62.7337 94.7205 61.2587 91.2478 59.8397C90.5878 59.5335 89.8652 59.3864 89.138 59.4103C87.266 59.5107 85.4157 58.9707 83.8915 57.8793C80.8668 56.0122 80.6988 52.8942 83.4247 50.523C84.0782 49.9442 84.769 49.4028 85.4412 48.8427C85.2963 48.2599 85.1964 47.6669 85.1424 47.0689C85.0138 46.1505 85.1605 45.2145 85.5641 44.3794C85.9677 43.5444 86.6099 42.8479 87.4096 42.3781C88.2092 41.9083 89.1303 41.6864 90.0562 41.7403C90.982 41.7943 91.8711 42.1218 92.6107 42.6813C93.6566 43.3267 94.6606 44.0376 95.6167 44.8098C96.5316 45.5566 97.4838 46.3408 98.8468 47.5544C98.2188 46.3517 98.0487 44.962 98.368 43.6434C98.6874 42.3248 99.4745 41.1669 100.583 40.3848C102.058 39.3019 103.309 40.0487 104.448 40.8889C108.313 39.1525 109.321 39.526 110.703 43.9696C112.084 48.4132 113.298 52.7262 114.605 57.1698C114.605 57.1698 114.81 57.3192 114.941 57.3192C117.723 57.3192 119.646 56.479 120.15 53.2489C120.393 51.6619 121.532 51.5686 123.193 52.2594C124.049 52.5605 124.824 53.0562 125.455 53.7074C126.087 54.3587 126.559 55.1476 126.834 56.0122C127.139 53.5008 126.897 50.953 126.125 48.5439C125.541 46.5932 125.735 44.4921 126.666 42.6813C127.338 41.3183 128.234 40.1047 129.878 40.1794C131.521 40.2541 133.612 40.3661 134.713 42.2892C134.899 42.7311 135.111 43.1613 135.348 43.5775C135.945 44.399 136.655 44.7911 137.57 43.9696C137.813 43.7455 138.111 43.5962 138.335 43.3908C138.807 42.9423 139.417 42.6681 140.066 42.6138C140.714 42.5595 141.362 42.7282 141.901 43.0921C142.507 43.3574 143.007 43.8175 143.322 44.3993C143.636 44.9811 143.747 45.6512 143.638 46.3034C143.205 48.422 142.58 50.4968 141.771 52.5021C140.426 55.8629 138.839 59.1302 137.402 62.4349C137.196 63.0922 137.052 63.7673 136.972 64.4514C137.406 64.1841 137.781 63.8309 138.073 63.4135C138.365 62.9961 138.569 62.5233 138.671 62.0242C139.157 60.7795 139.661 59.5348 140.184 58.29C140.56 57.4835 141.119 56.7754 141.815 56.2214C142.512 55.6674 143.327 55.2826 144.198 55.0973C145.097 55.0362 146.001 55.1309 146.868 55.3774C147.695 53.6311 148.074 51.7058 147.969 49.7762C147.894 48.915 148.059 48.0497 148.448 47.2776C148.837 46.5054 149.433 45.857 150.17 45.4051C150.907 44.9532 151.756 44.7157 152.62 44.7194C153.485 44.7231 154.331 44.9677 155.064 45.4259C155.643 44.5857 156.259 43.7829 156.819 42.924C157.753 41.5051 159.452 40.3661 160.311 40.7956C160.888 41.1629 161.362 41.6709 161.689 42.2719C162.015 42.8728 162.184 43.547 162.178 44.231C162.179 45.3545 162.06 46.4748 161.823 47.573C161.823 48.3385 161.562 49.1227 161.356 50.3363C162.939 49.4734 164.187 48.1065 164.904 46.4528C165.931 43.6335 168.04 41.6171 169.572 39.1899C169.671 39.0055 169.753 38.8116 169.814 38.6111C167.934 36.5445 165.546 35.006 162.887 34.1488C160.031 33.1032 157.025 32.4311 154.205 31.2922C152.428 30.5882 150.795 29.5629 149.388 28.2675C146.868 25.8216 147.167 23.7492 149.949 21.602C150.247 21.378 150.583 21.1726 150.957 20.9299C150.807 20.5191 150.789 20.1271 150.583 19.959C149.999 19.393 149.623 18.6468 149.514 17.8408C149.406 17.0347 149.572 16.2156 149.986 15.5154C150.114 14.9524 150.371 14.4269 150.737 13.9801C151.103 13.5332 151.567 13.1773 152.094 12.9403C152.62 12.7033 153.195 12.5916 153.772 12.614C154.349 12.6364 154.913 12.7923 155.419 13.0695C157.174 13.9284 159.153 14.4325 160.18 16.5423C160.516 17.2518 161.711 17.5505 162.514 18.0173L162.925 17.7185C162.665 17.147 162.359 16.5975 162.01 16.0755C160.46 14.2084 158.836 12.2293 157.324 10.2502C156.828 9.59439 156.511 8.82153 156.403 8.00685C156.295 7.19217 156.4 6.36342 156.707 5.60122C156.802 5.14248 157.008 4.71442 157.309 4.35571C157.611 3.99699 157.996 3.71891 158.432 3.54658C158.867 3.37426 159.339 3.31312 159.804 3.36868C160.269 3.42425 160.712 3.59477 161.095 3.86484C162.029 4.33161 162.962 4.83572 163.84 5.30249C163.84 5.30249 164.008 5.30249 164.213 5.30249C164.476 5.04891 164.702 4.75983 164.885 4.44364C165.101 3.70374 165.562 3.05968 166.194 2.61823C166.826 2.17677 167.589 1.96444 168.358 2.01644C169.086 2.03827 169.796 2.2517 170.415 2.63521C171.035 3.01873 171.542 3.55877 171.887 4.20092C173.352 6.12996 174.308 8.39633 174.669 10.7917C175.029 12.4912 175.581 14.1446 176.312 15.7208C176.52 14.43 176.903 13.1738 177.451 11.9866C177.686 11.5326 178.053 11.1603 178.503 10.9183C178.954 10.6763 179.467 10.576 179.975 10.6305C180.484 10.685 180.964 10.8917 181.353 11.2236C181.742 11.5555 182.022 11.9972 182.156 12.4907C182.422 12.9877 182.584 13.5337 182.632 14.0955C182.681 14.6573 182.614 15.2231 182.436 15.7581C182.333 16.2175 182.29 16.688 182.305 17.1584C182.528 17.3005 182.775 17.4017 183.033 17.4571C185.535 17.4571 186.076 17.8119 186.114 20.2764C186.151 22.741 185.852 25.0748 185.684 27.4833C185.661 27.8057 185.536 28.1125 185.33 28.3608C182.996 30.2279 183.463 33.3086 182.342 35.6798C182.174 36.0159 182.492 36.7814 182.828 37.1548C183.6 37.8992 184.41 38.6034 185.255 39.2646C186.881 37.8348 187.88 35.8231 188.037 33.6633C188.186 31.6656 188.466 29.6678 188.784 27.6887C189.123 24.1699 188.985 20.6215 188.373 17.1397C188.373 16.5983 187.701 16.1128 187.29 15.6647C186.615 15.0169 186.208 14.1395 186.15 13.206C186.091 12.2725 186.385 11.351 186.973 10.6236C187.236 10.2115 187.626 9.89587 188.083 9.72417C188.541 9.55247 189.043 9.53396 189.512 9.67144C189.763 9.8094 190.044 9.88241 190.331 9.88384C190.617 9.88527 190.899 9.81506 191.152 9.67962C191.404 9.54417 191.618 9.34777 191.776 9.1083C191.933 8.86883 192.027 8.59389 192.051 8.30848C192.357 7.21628 192.908 6.20815 193.662 5.36057C194.415 4.51299 195.352 3.84823 196.401 3.41675C196.848 3.10152 197.366 2.90274 197.909 2.8384C198.452 2.77407 199.003 2.84621 199.511 3.0483C200.019 3.25039 200.468 3.57604 200.819 3.99574C201.169 4.41544 201.409 4.91593 201.517 5.45186C201.773 6.95599 201.861 8.48397 201.779 10.0075C201.779 12.248 201.61 14.5072 201.592 16.7477C201.635 17.5167 201.754 18.2796 201.947 19.0255L202.469 19.1748C202.899 18.6745 203.275 18.13 203.59 17.5505C204.729 14.8059 205.886 12.08 206.838 9.27936C207.385 7.51262 207.772 5.70057 207.996 3.86484C208.407 1.04556 210.404 0.130695 213.018 0C214.196 0.0738952 215.307 0.572615 216.145 1.40357C216.983 2.23453 217.49 3.34127 217.574 4.51832C217.574 4.98509 217.574 5.45186 217.723 6.2547C218.601 6.01198 219.348 5.84394 220.076 5.61989C220.692 5.43973 221.342 5.40592 221.974 5.52115C222.606 5.63638 223.202 5.89746 223.715 6.28362C224.228 6.66979 224.644 7.17037 224.929 7.74555C225.215 8.32072 225.362 8.95461 225.36 9.59676C225.34 10.9201 225.025 12.2223 224.437 13.408C223.849 14.5937 223.003 15.6327 221.962 16.4489C219.254 19.0815 216.547 21.7141 213.877 24.384C213.446 24.9699 213.071 25.595 212.757 26.2511C214.101 25.8963 214.904 25.6536 215.726 25.4856C217.036 25.13 218.372 24.8741 219.721 24.7201C220.86 24.6267 221.588 25.2055 221.775 26.5871C222.13 28.6036 222.298 30.4333 220.132 31.7776C220.617 32.1697 220.879 32.4497 221.196 32.6551C221.8 33.0465 222.289 33.5926 222.611 34.2367C222.933 34.8807 223.077 35.5992 223.027 36.3176C222.978 37.0359 222.737 37.7279 222.329 38.3216C221.922 38.9154 221.363 39.3892 220.711 39.694C218.535 40.7688 216.168 41.4033 213.746 41.5611L199.575 42.4199C198.698 42.4199 197.82 42.7186 196.943 42.7186C195.525 42.7519 194.145 43.1802 192.957 43.9553C191.77 44.7305 190.822 45.8218 190.221 47.1063C188.328 49.9749 185.765 52.3395 182.753 53.9958C181.224 54.7521 179.956 55.9485 179.112 57.4312L182.062 59.597C182.075 60.4295 182.006 61.2612 181.857 62.0802C181.558 63.2191 181.409 64.4701 179.99 64.8621C179.56 64.9742 179.299 65.7397 178.627 66.7292C181.129 66.2998 182.79 66.7292 183.855 68.8017L189.064 66.9346C189.57 66.7663 190.016 66.4542 190.348 66.0364C190.679 65.6186 190.882 65.1132 190.931 64.5821C192.088 58.5141 194.964 53.0436 197.167 47.3677C197.684 46.281 198.407 45.3046 199.295 44.4924C200.677 43.0547 201.517 43.1481 202.824 44.6977L203.403 45.3699C205.083 44.2496 206.894 43.1667 208.705 44.9965C209.919 46.2287 209.77 47.7597 208.799 49.5335C211.041 48.9561 213.151 47.9547 215.016 46.5835C217.394 44.9305 220.206 44.0148 223.1 43.9509C223.343 43.9509 223.586 43.9509 223.81 43.9509C227.544 44.0443 228.142 44.5857 228.571 48.5439C229.159 48.9459 229.784 49.2899 230.438 49.5708C231.442 49.8985 232.314 50.5399 232.925 51.4003C233.537 52.2608 233.856 53.2949 233.836 54.3505C233.831 55.5382 233.413 56.6871 232.653 57.6C231.893 58.513 230.84 59.1332 229.673 59.3543C227.712 59.7666 225.719 60.0103 223.717 60.0824C220.744 60.0244 217.777 60.3444 214.885 61.0346C213.728 61.3809 212.613 61.8569 211.562 62.4536C211.927 62.7996 212.373 63.0491 212.858 63.1795C213.344 63.3099 213.855 63.3171 214.344 63.2004C215.323 62.9338 216.362 62.9896 217.307 63.3595C218.252 63.7294 219.052 64.3938 219.59 65.2542C220.673 66.9346 220.636 67.5694 218.918 68.4283C218.369 68.6562 217.808 68.8557 217.238 69.0257L217.593 70.2206C218.601 73.6934 216.603 76.2886 213.018 75.8219C210.629 75.4659 208.26 74.9797 205.923 74.3656C202.041 73.3104 198.063 72.6413 194.049 72.3678C193.002 72.1881 191.928 72.2641 190.917 72.5892C189.906 72.9143 188.988 73.4789 188.242 74.2348C189.138 75.131 190.109 74.6643 191.136 74.5709C193.283 74.3469 195.43 74.1415 197.578 74.0108C198.138 73.99 198.696 74.1053 199.202 74.3469C200.64 74.9817 201.442 76.6994 199.613 77.913C199.221 78.193 198.81 78.4171 198.436 78.6411C198.405 78.8202 198.405 79.0035 198.436 79.1826C199.333 82.2446 197.466 84.0743 193.843 83.5702C192.388 83.1935 190.852 83.2651 189.437 83.7756C189.897 84.172 190.437 84.464 191.02 84.6316C191.604 84.7992 192.217 84.8384 192.817 84.7465C195.3 84.8772 197.802 84.7465 200.285 84.9332C201.608 85.1771 202.874 85.6646 204.019 86.3708C205.419 87.1177 206.708 88.0885 207.94 88.91C211.816 86.8688 215.428 84.3607 218.694 81.4418C222.428 78.5291 225.976 75.3551 230.625 73.8428C231.154 73.578 231.733 73.428 232.325 73.4027C232.916 73.3774 233.506 73.4773 234.056 73.6959C234.606 73.9145 235.103 74.2468 235.516 74.6711C235.929 75.0954 236.247 75.6021 236.45 76.1579C236.953 76.0091 237.464 75.8906 237.981 75.8032C239.317 75.6174 240.666 75.5425 242.014 75.5791C243.881 75.7472 244.385 76.4193 244.721 78.1184C244.886 78.7453 244.82 79.4105 244.535 79.9929C244.251 80.5754 243.767 81.0365 243.172 81.2924C241.062 82.6367 238.933 83.9436 236.824 85.2693C240.62 85.5112 244.431 85.1585 248.119 84.2237C253.339 83.0707 258.773 83.3612 263.84 85.0639C264.699 85.3813 265.52 85.736 265.707 86.7816C265.712 87.2713 265.57 87.7513 265.301 88.1604C265.032 88.5694 264.647 88.8889 264.195 89.0781C263.243 89.6569 262.216 90.105 260.946 90.7398C261.544 91.5613 262.01 92.2708 262.552 92.9243C264.157 94.7913 264.419 96.3783 263.56 97.9467C263.101 98.9017 262.327 99.6688 261.367 100.118C260.407 100.567 259.322 100.671 258.295 100.411C253.926 99.3843 249.594 98.1334 245.225 97.0132C242.145 96.2477 239.064 95.5755 235.89 94.8473L235.722 95.3328L238.933 96.5651C240.138 96.9104 241.236 97.5531 242.126 98.434C243.017 99.315 243.672 100.406 244.03 101.606C244.964 104.631 243.396 106.367 240.296 105.658C239.381 105.452 238.429 105.079 237.533 104.762C237.29 105.396 237.122 105.919 236.88 106.423C236.696 107.027 236.367 107.576 235.922 108.022C235.476 108.469 234.927 108.799 234.324 108.983C233.721 109.168 233.082 109.201 232.463 109.08C231.844 108.959 231.264 108.688 230.774 108.29C228.833 107.161 226.962 105.914 225.173 104.556C222.903 102.913 220.381 101.652 217.705 100.822C215.95 100.262 214.307 99.403 212.57 98.7682C210.255 97.9094 207.903 97.1439 205.009 96.1543C205.737 97.5359 206.26 98.3761 206.652 99.2536C207.697 101.569 207.23 102.876 204.785 103.865C203.518 104.39 202.187 104.741 200.826 104.911C199.239 105.098 197.615 105.023 196.009 105.079C195.545 105.172 195.089 105.303 194.646 105.471C199.685 106.8 204.562 108.678 209.191 111.072C212.281 112.505 214.828 114.894 216.454 117.887C216.924 118.904 217.154 120.016 217.126 121.136C217.126 122.256 216.006 123.003 214.437 123.003C213.01 122.906 211.589 122.732 210.18 122.48C209.97 123.633 209.851 124.8 209.826 125.971C209.826 126.868 210.012 127.839 209.284 128.436C208.596 129.33 207.755 130.094 206.801 130.695ZM3.47663 152.316C4.17815 152.443 4.8993 152.407 5.58522 152.213C6.27113 152.019 6.90371 151.671 7.43483 151.196L16.0607 144.101C12.6253 144.437 5.69845 149.123 3.47663 152.316ZM209.247 90.5904C208.164 91.3186 207.604 91.9907 207.903 93.3537C209.135 93.8018 210.348 94.2499 211.637 94.6606C217.252 96.3988 222.618 98.8591 227.6 101.98C229.056 102.988 230.494 104.015 232.025 104.874C233.892 105.938 234.396 105.695 235.218 103.679C235.871 102.11 236.394 101.812 238 102.26C238.616 102.428 239.176 102.801 239.867 102.913C240.558 103.025 241.491 103.1 242.481 103.212C242.459 102.302 242.176 101.417 241.666 100.662C241.157 99.9078 240.442 99.3153 239.605 98.9549C238.261 98.3948 236.954 97.7787 235.629 97.2372C235.124 97.1326 234.652 96.9095 234.25 96.5864C233.849 96.2633 233.531 95.8493 233.321 95.3788C233.111 94.9082 233.016 94.3945 233.044 93.8801C233.072 93.3657 233.222 92.8652 233.481 92.4202C234.62 92.5508 235.89 92.6255 237.104 92.8683C238.317 93.111 239.923 93.5591 241.323 93.9325C245.263 94.978 249.202 96.0796 253.179 97.0692C255.046 97.5359 257.119 97.7787 259.079 98.1334C260.181 98.3388 260.666 97.5359 261.226 96.8451C261.786 96.1543 261.544 95.3701 260.965 94.698C260.386 94.0258 259.77 93.1857 259.228 92.3828C258.917 92.0634 258.694 91.6687 258.581 91.2373C258.469 90.8059 258.469 90.3526 258.584 89.9217C258.699 89.4909 258.924 89.0971 259.236 88.7791C259.549 88.461 259.939 88.2295 260.367 88.1072L262.496 86.987C261.814 86.618 261.094 86.3238 260.349 86.1094C256.534 85.5249 252.656 85.4809 248.829 85.9787C246.532 86.2588 244.236 86.7256 241.939 86.9683C239.643 87.211 237.776 87.211 235.685 87.3044C235.177 87.3953 234.654 87.3023 234.209 87.0423C233.765 86.7822 233.427 86.372 233.257 85.8854C232.847 84.6158 233.967 84.2424 234.77 83.7569C236.823 82.506 238.915 81.2737 240.95 80.0228C241.475 79.7923 241.899 79.3807 242.146 78.8631C242.393 78.3456 242.445 77.7565 242.294 77.2035C241.211 77.2969 240.184 77.3155 239.213 77.4836C238.242 77.6516 237.514 78.0624 236.655 78.2304C236.191 78.3846 235.686 78.3611 235.237 78.1645C234.789 77.968 234.43 77.6123 234.228 77.1662C233.201 75.2057 233.183 75.2991 231.185 75.8219C226.76 77.0728 223.717 80.3028 219.982 82.8981C216.248 85.4933 212.888 88.1072 209.247 90.5904ZM192.182 67.1026C191.528 67.9241 190.203 68.2229 189.176 68.727C187.969 69.3689 186.722 69.9302 185.442 70.4073C183.821 70.9112 182.369 71.8472 181.241 73.1146C180.644 73.9448 179.927 74.6812 179.112 75.2991C175.247 77.5956 171.327 79.7987 167.443 82.0392C167.178 82.2108 166.928 82.4044 166.696 82.618C168.028 82.3023 169.314 81.8192 170.524 81.1804C171.506 80.5375 172.619 80.1233 173.783 79.9682C174.946 79.8131 176.129 79.9211 177.245 80.2842C177.748 80.4896 178.311 80.4896 178.814 80.2842C182.23 78.4171 186.002 78.6411 189.643 78.2117C190.371 78.2117 191.118 78.081 191.51 79.444C187.477 80.6576 182.865 79.7427 179.635 82.1512C179.392 83.8876 179.206 85.1759 179.019 86.4455L184.62 87.4164C186.656 87.4891 188.603 88.2681 190.128 89.6195C188.056 90.2543 186.394 89.3582 184.751 89.2275C183.108 89.0968 181.129 88.8167 179.523 88.6113C178.982 89.6569 178.627 90.4784 178.16 91.1692C176.834 93.167 174.669 93.3537 172.559 93.5404C170.977 93.6333 169.426 94.0195 167.984 94.6793C168.582 95.9863 168.582 96.0796 169.347 96.0609C172.727 96.0609 176.144 96.285 179.336 94.8287C179.938 94.4501 180.561 94.1072 181.203 93.8018C183.724 92.9803 186.226 92.0841 188.802 91.5053C191.3 90.9258 193.842 90.5573 196.401 90.4037C197.675 90.3675 198.927 90.7343 199.98 91.4518C201.033 92.1693 201.832 93.2008 202.264 94.3993C202.854 94.3067 203.431 94.1437 203.982 93.9138C205.606 93.0176 206.222 90.4037 204.953 89.4702C203.419 88.0394 201.443 87.1764 199.351 87.0243C196.961 87.0243 194.572 87.0243 192.182 86.8936C191.176 87.0171 190.155 86.8466 189.244 86.4026C188.333 85.9586 187.57 85.2602 187.047 84.3917C186.226 82.8607 186.506 82.0766 188.13 81.4044C189.905 80.8522 191.798 80.8005 193.601 81.2551C194.091 81.396 194.611 81.4046 195.106 81.28C195.601 81.1554 196.054 80.902 196.42 80.5456C196.065 79.5 195.729 78.5478 195.374 77.5582L197.055 76.1206C196.755 75.9966 196.442 75.9088 196.121 75.8592C191.752 76.4193 187.402 76.9981 183.052 77.5396C181.876 77.6889 180.606 77.8943 180.027 76.2326C180.593 75.9581 181.125 75.6198 181.614 75.2244C184.104 72.5024 187.358 70.5957 190.949 69.7539C194.535 69.2023 198.199 69.4704 201.667 70.538C205.251 71.4156 208.873 72.1251 212.458 73.0026C213.915 73.3573 214.736 72.8719 215.072 72.013C214.798 70.7137 214.611 69.3976 214.512 68.0735C214.512 66.5612 216.379 66.9533 217.406 65.721C216.155 65.4969 215.259 65.2916 214.344 65.1982C213.429 65.1049 212.085 65.1982 211.002 64.9368C209.919 64.6754 208.444 63.5925 208.444 62.6777C208.444 61.3707 209.284 60.6986 210.311 60.1571C212.482 59.1049 214.832 58.4715 217.238 58.29C220.337 57.954 223.474 57.7859 226.573 57.6179C227.381 57.5932 228.175 57.407 228.909 57.0703C229.644 56.7336 230.303 56.2532 230.849 55.6575C231.801 54.6679 231.932 53.9771 231.092 52.9129C230.519 52.2501 229.845 51.6828 229.094 51.2325C228.448 50.8953 227.781 50.6021 227.096 50.355C226.844 50.2767 226.611 50.1488 226.409 49.979C226.207 49.8091 226.041 49.6007 225.921 49.3658C225.801 49.131 225.73 48.8746 225.71 48.6116C225.69 48.3486 225.724 48.0844 225.808 47.8344C225.873 47.4513 225.917 47.0648 225.938 46.6768C224.295 46.1016 222.525 45.9918 220.823 46.3594C217.562 47.1042 214.48 48.4807 211.749 50.411C210.643 51.0595 209.473 51.5914 208.257 51.998C207.937 52.1719 207.562 52.2126 207.212 52.1112C206.863 52.0098 206.567 51.7746 206.39 51.4566C206.095 50.7491 205.992 49.9762 206.091 49.2161C206.091 48.7306 206.801 48.3385 206.988 47.8344C207.119 47.3352 207.176 46.8193 207.156 46.3034C206.574 46.2112 205.982 46.2112 205.401 46.3034C204.897 46.4528 204.542 47.0129 204.075 47.3116C202.619 48.2639 202.301 48.1892 201.162 46.7515C201.032 46.5835 200.789 46.5275 200.453 46.3594C199.928 46.972 199.465 47.6349 199.071 48.3385C197.932 50.8217 196.812 53.305 195.841 55.8068C194.87 58.3087 193.974 61.2587 193.041 64.0033C192.667 64.9555 192.798 66.3185 192.182 67.1026ZM178.571 60.0638C178.459 60.0638 178.328 60.2131 178.067 60.3812C178.44 60.8293 178.814 61.2774 179.355 61.8935C179.99 60.6052 179.448 60.2318 178.552 60.0638H178.571ZM167.592 65.9264C165.128 69.1938 162.831 72.5732 160.367 75.8405C159.738 76.6714 158.952 77.3695 158.052 77.8943C157.453 78.1392 156.783 78.1392 156.185 77.8943C155.792 77.7076 155.568 76.8488 155.568 76.2886C155.587 75.5698 155.759 74.8633 156.073 74.2162C156.857 72.5732 157.734 70.9675 158.63 69.2871C158.294 68.5776 157.94 67.8308 157.622 67.1213C156.897 67.6779 156.129 68.1773 155.326 68.615C154.336 69.0817 153.757 68.1482 153.011 67.7374C152.566 67.4846 152.074 67.3258 151.565 67.271C151.056 67.2161 150.542 67.2665 150.053 67.4188C149.565 67.5711 149.113 67.8222 148.726 68.1564C148.338 68.4906 148.024 68.9009 147.801 69.3618C147.403 70.1518 146.893 70.881 146.289 71.5276C145.913 71.8849 145.641 72.3378 145.503 72.8378C145.365 73.3377 145.366 73.8659 145.505 74.3656C145.968 77.2439 145.476 80.1948 144.105 82.7674C142.09 86.7696 138.694 89.9067 134.545 91.5986C132.694 92.3894 130.775 93.0142 128.813 93.4657C127.189 93.8391 125.49 93.7644 123.847 94.0445C122.939 94.361 122.074 94.7874 121.27 95.3141C121.884 95.4604 122.508 95.5541 123.137 95.5942C125.359 95.3141 127.6 95.0527 129.803 94.6233C131.502 94.2872 133.145 93.5217 134.844 93.279C136.916 92.9616 139.045 93.055 140.146 90.7958C140.24 90.6278 140.576 90.5904 140.781 90.4597C143.059 89.0221 145.374 87.6031 147.615 86.1094C148.048 85.7786 148.357 85.3117 148.492 84.7838C149.613 81.0193 150.32 77.1441 150.602 73.2266C150.602 73.0586 150.901 72.9092 151.087 72.7225C151.33 72.8532 151.666 72.9092 151.704 73.0586C152.73 76.6994 151.312 80.1348 150.733 83.8689C154.062 82.8123 157.16 81.1334 159.863 78.9212C163.41 75.6352 167.499 72.9466 170.3 68.8764C170.576 68.5499 170.882 68.2498 171.215 67.9802C171.513 68.1669 171.737 68.2229 171.775 68.3162C171.924 68.839 172.036 69.3805 172.148 69.8846C174.314 70.426 174.314 70.426 174.351 71.901L172.951 71.7703C172.394 71.6958 171.833 71.6584 171.271 71.6583C170.967 71.6506 170.665 71.7047 170.383 71.8174C170.101 71.9301 169.844 72.099 169.63 72.3138C169.415 72.5286 169.246 72.7848 169.133 73.0669C169.02 73.349 168.966 73.6511 168.974 73.9548C169.11 74.5432 169.344 75.1048 169.665 75.6165L168.003 76.1019C167.23 76.2011 166.48 76.4283 165.781 76.7741C163.784 78.2491 161.935 79.9108 159.956 81.4231C158.921 82.1868 157.836 82.8792 156.707 83.4955C155.568 84.1677 154.392 84.7838 153.216 85.3626C154.547 85.8336 155.934 86.1287 157.342 86.2401C158.612 86.4082 159.863 86.7069 161.076 86.9496C161.922 87.1592 162.784 87.2966 163.653 87.3604C165.819 87.3604 167.984 87.2297 170.15 87.3604C170.399 87.4068 170.632 87.5173 170.825 87.681C171.018 87.8447 171.165 88.056 171.252 88.2939C171.252 89.0407 170.804 89.3955 170.001 89.3208C168.395 89.1714 166.808 89.0407 165.203 88.9287L160.628 88.686C157.977 88.5553 155.344 88.3686 152.693 88.3499C151.48 88.3499 150.229 89.1901 149.108 87.9952C148.959 87.8458 148.268 87.9952 148.007 88.2006C146.494 89.4142 145.057 90.7024 143.302 92.2148C148.268 92.2148 152.805 92.2148 157.342 92.2148C160.161 92.2148 162.943 92.2148 165.781 91.916C168.619 91.6173 171.383 91.1505 174.258 90.7398C174.732 90.7282 175.193 90.5767 175.581 90.3043C175.97 90.0319 176.27 89.6508 176.442 89.2088L175.042 86.5762C175.565 86.1468 175.938 85.8667 176.274 85.5493C176.623 85.3388 176.879 85.0052 176.993 84.6145C177.107 84.2237 177.071 83.8044 176.89 83.4395C176.72 83.0678 176.432 82.7624 176.071 82.5701C175.71 82.3779 175.296 82.3094 174.893 82.3753C173.942 82.517 173.013 82.7806 172.129 83.1595C170.038 83.9996 167.947 84.8772 165.912 85.8481C165.449 86.0965 164.911 86.171 164.398 86.058C163.884 85.945 163.428 85.652 163.111 85.2319C162.913 85.0487 162.757 84.8246 162.654 84.5752C162.55 84.3257 162.502 84.0569 162.513 83.7871C162.524 83.5173 162.593 83.2531 162.715 83.0126C162.838 82.7721 163.011 82.561 163.223 82.394C164.205 81.4517 165.281 80.6133 166.435 79.8921C167.648 79.1266 169.011 78.5851 170.169 77.857C172.596 76.438 175.023 75.0377 177.357 73.488C178.938 72.543 180.15 71.0876 180.793 69.3618C177.058 69.3618 176.125 68.1669 176.89 64.8995V64.6754C177.563 61.9308 176.442 60.7546 173.754 61.4827C171.258 62.2368 169.083 63.8001 167.574 65.9264H167.592ZM147.465 104.668C148.348 104.902 149.162 105.342 149.84 105.952C150.519 106.562 151.042 107.326 151.368 108.178L152.637 104.295C149.911 102.857 148.492 101.513 151.629 98.6935C152.413 98.0027 153.496 97.4986 153.645 96.2103C148.754 94.5673 134.975 95.7996 127.712 98.4881C127.712 99.4403 127.861 100.225 129.205 100.019C129.926 99.9536 130.651 99.9536 131.371 100.019C132.097 99.9393 132.83 100.089 133.466 100.447C134.103 100.806 134.611 101.355 134.919 102.017C135.105 102.79 135.047 103.602 134.753 104.341C134.459 105.08 133.942 105.71 133.276 106.143L127.189 110.344L127.301 110.886C127.82 111.014 128.356 111.052 128.888 110.998C132.335 110.301 135.634 109.006 138.634 107.17C139.89 106.471 141.187 105.847 142.518 105.303C144.045 104.531 145.792 104.306 147.465 104.668ZM120.841 96.4904L120.598 96.117L114.063 98.4135L115.464 100.598L120.841 96.4904ZM133.07 81.2737C135.365 81.9102 137.781 81.9807 140.109 81.4791C139.012 80.9661 137.822 80.6832 136.611 80.6478C135.4 80.6125 134.195 80.8255 133.07 81.2737ZM141.248 79.4066C141.248 78.1744 141.379 77.2408 141.472 75.8219L137.29 78.4171L137.402 78.8465L141.248 79.4066ZM126.647 84.7278C128.664 87.267 128.664 87.267 128.515 90.1983C132.361 89.2088 136.562 86.1655 137.645 83.6449H136.674C135.119 83.7477 133.56 83.7477 132.006 83.6449C130.149 83.4056 128.266 83.7863 126.647 84.7278ZM161.039 67.6628C160.917 67.7584 160.819 67.8803 160.751 68.0193C160.683 68.1583 160.648 68.3109 160.647 68.4656C160.834 70.5194 159.415 71.845 158.518 73.4133C158.371 73.7594 158.271 74.1236 158.22 74.4962L158.574 74.683L164.979 65.945L164.605 65.5716C163.41 66.2251 162.197 66.9159 161.039 67.6628ZM174.967 57.0204C174.108 57.6366 173.1 57.898 173.38 59.0555C175.378 58.7568 175.378 58.7568 174.967 57.0204ZM166.958 59.3916C164.4 61.4267 162.234 63.1258 160.087 64.8995C159.956 65.0115 159.956 65.3289 159.844 65.777C162.008 64.8537 164.012 63.5933 165.781 62.0429C166.341 61.6134 166.453 60.5679 166.958 59.3916ZM189.362 38.5737C187.813 40.7209 186.039 42.7 184.433 44.8098C183.463 46.1167 182.566 47.4984 181.689 48.8427H181.577C180.531 48.3385 179.803 48.9733 179.075 49.6082C178.347 50.243 177.507 50.7471 176.666 49.7015C176.816 48.992 176.984 48.3199 177.133 47.6477L176.666 47.4423C174.856 50.7269 172.435 53.6356 169.534 56.0122C168.887 56.7699 168.306 57.582 167.798 58.4394C167.928 58.5701 168.04 58.7008 168.171 58.8128C170.124 57.9995 171.968 56.9458 173.66 55.6761C175.527 54.3318 177.395 52.9689 179.262 51.6619C180.307 50.9524 181.334 50.2616 181.483 48.8613V48.768C182.146 48.4732 182.772 48.1036 183.35 47.6664C185.834 45.5193 188.186 43.2228 190.688 41.113C191.523 40.3759 192.543 39.879 193.638 39.6753C196.117 39.2565 198.632 39.1 201.144 39.2085C206.361 39.3414 211.577 38.9474 216.715 38.0323C217.658 37.9168 218.547 37.5335 219.278 36.928C220.01 36.3224 220.552 35.5199 220.841 34.6156C220.169 34.2421 219.572 34.0181 219.068 33.6633C218.702 33.5073 218.387 33.2527 218.157 32.928C217.927 32.6033 217.793 32.2212 217.767 31.8243C217.742 31.4275 217.828 31.0314 218.015 30.6803C218.201 30.3292 218.482 30.0369 218.825 29.8358C219.045 29.6959 219.233 29.5115 219.377 29.2946C219.521 29.0777 219.618 28.833 219.662 28.5763C219.706 28.3195 219.696 28.0564 219.632 27.8039C219.568 27.5514 219.452 27.315 219.292 27.1099C218.022 27.4086 216.734 27.7447 215.408 28.0434C214.713 28.2303 214.009 28.3799 213.298 28.4915C212.841 28.5977 212.363 28.5681 211.923 28.4063C211.482 28.2445 211.099 27.9576 210.819 27.5808C210.54 27.204 210.376 26.7538 210.349 26.2854C210.322 25.8169 210.432 25.3508 210.666 24.9441C211.199 23.7778 211.918 22.7058 212.794 21.7701C214.288 20.2204 216.043 18.9135 217.593 17.4011C219.208 15.8574 220.735 14.2242 222.167 12.5094C222.747 11.7477 223.091 10.8323 223.157 9.87682C223.222 9.51663 223.198 9.14593 223.087 8.79713C222.976 8.44834 222.781 8.13207 222.519 7.87601C222.258 7.61994 221.937 7.43187 221.586 7.32825C221.235 7.22462 220.864 7.2086 220.505 7.28159C219.786 7.37073 219.074 7.51428 218.377 7.71101C216.416 8.08443 215.912 7.71101 215.464 5.69457C215.27 4.84117 214.976 4.01385 214.587 3.23004C214.383 2.89747 214.064 2.65155 213.69 2.53922C212.942 2.4676 212.191 2.64218 211.55 3.03643C210.91 3.43069 210.416 4.02309 210.143 4.7237C209.62 6.59077 209.284 8.32715 208.668 10.0449C207.66 12.8455 206.502 15.6461 205.382 18.3533C205.121 19.0133 204.782 19.6401 204.374 20.2204C204.175 20.6255 203.859 20.9616 203.467 21.1855C203.075 21.4094 202.625 21.5108 202.175 21.4767C201.725 21.4425 201.296 21.2744 200.942 20.9939C200.589 20.7134 200.327 20.3334 200.192 19.903C199.881 19.3272 199.702 18.6894 199.669 18.0359C199.669 15.7208 199.669 13.4056 199.669 11.0904C199.772 9.56737 199.772 8.03913 199.669 6.51609C199.482 5.15312 198.567 4.77971 197.372 5.4892C196.59 5.87665 195.893 6.41646 195.322 7.07694C194.752 7.73742 194.319 8.50525 194.049 9.33537C193.982 9.81705 193.817 10.2799 193.565 10.6952C193.312 11.1105 192.976 11.4694 192.579 11.7495C192.181 12.0297 191.73 12.2251 191.254 12.3237C190.778 12.4223 190.287 12.422 189.811 12.3227C190.083 14.1843 190.592 16.0037 191.323 17.7372C191.749 19.1144 192.012 20.5369 192.107 21.9755C192.107 24.8508 191.958 27.7447 191.846 30.6387C191.829 33.4695 190.971 36.2314 189.381 38.5737H189.362ZM181.39 38.8911C179.803 40.4035 180.214 42.3826 180.158 44.3057C181.315 43.0547 183.313 42.6626 183.649 40.6835L181.39 38.8911ZM176.778 45.0151C176.78 45.305 176.818 45.5934 176.89 45.874H177.376C177.6 44.9218 177.843 44.0069 178.067 43.0174C178.403 41.6171 178.664 40.1981 179.038 38.8165C179.411 37.4348 179.859 36.2026 180.307 34.9143C180.81 32.8979 181.536 30.944 182.473 29.089C184.34 26.0083 183.929 22.8343 183.817 19.5483L182.38 19.3429C180.513 19.0815 179.915 18.3533 180.176 16.4676C180.251 15.9865 180.363 15.512 180.513 15.0486C180.639 14.5897 180.627 14.1036 180.477 13.6517C180.328 13.1997 180.048 12.8022 179.672 12.5094C178.347 13.611 178.328 13.5923 178.253 14.6192C178.179 15.6461 178.253 16.2435 178.253 17.0464C178.302 17.6024 178.232 18.1625 178.048 18.6894C177.734 19.3002 177.229 19.7918 176.61 20.0897C176.214 20.186 175.796 20.1224 175.447 19.9127C175.097 19.7031 174.845 19.3642 174.743 18.9695C174.581 18.5974 174.437 18.2173 174.314 17.8306C174.03 16.4115 173.668 15.0091 173.231 13.6296C172.167 10.773 170.99 8.02842 169.74 5.17179C169.198 3.93953 168.489 3.84617 167.499 4.74237C166.937 5.30132 166.448 5.92858 166.043 6.60944C165.88 7.00407 165.625 7.35451 165.301 7.63213C164.976 7.90974 164.591 8.10666 164.176 8.2068C163.761 8.30694 163.328 8.30746 162.912 8.20831C162.497 8.10917 162.111 7.91317 161.786 7.63633C161.076 7.22558 160.329 6.90817 159.564 6.51609C158.705 8.62588 160.161 9.52208 161.002 10.605C162.085 11.9866 163.429 13.1815 164.512 14.5632C165.987 16.4303 166.715 19.2682 163.914 21.0979C163.13 20.6685 162.327 20.3138 161.58 19.847C159.713 18.6707 157.846 17.4385 155.979 16.2809C155.008 15.7021 153.832 15.0486 152.955 16.2809C152.077 17.5132 153.104 18.148 153.739 19.0255C154.784 20.4631 154.635 21.3407 153.347 22.5916C152.946 22.9897 152.522 23.3638 152.077 23.7118C150.658 24.8134 150.583 25.8776 152.077 26.8485C153.295 27.6076 154.59 28.2336 155.942 28.7156C158.929 29.8732 162.122 30.396 165.147 31.4975C167.681 32.4093 170.037 33.755 172.111 35.4744C175.135 37.9576 177.245 40.8889 176.797 45.0151H176.778ZM151.106 55.004C151.106 56.535 150.602 57.8419 148.903 58.1033C148.903 59.2423 148.903 60.1758 148.791 61.24C150.658 61.5387 150.957 62.883 150.751 64.6754C153.32 62.3402 154.963 59.1595 155.382 55.7135C155.382 53.7531 155.624 51.8113 155.774 49.8509H156.465C158.089 54.0705 156.931 58.1594 155.4 62.3229C156.177 62.0417 156.907 61.6452 157.566 61.1467C162.202 57.7513 166.571 54.0062 170.636 49.9442C171.714 48.885 172.377 47.4738 172.503 45.9674C172.679 45.1806 172.694 44.3661 172.547 43.5734C172.399 42.7807 172.092 42.0262 171.644 41.3557C170.199 42.1028 169.053 43.3216 168.395 44.8098C167.574 46.3781 166.958 48.0398 166.08 49.5708C165.187 51.1948 164.136 52.7269 162.943 54.1451C162.103 55.116 161.226 54.9293 160.199 54.1451C159.764 53.7777 159.44 53.297 159.262 52.7565C159.084 52.2161 159.059 51.6369 159.191 51.0831C159.433 49.3468 159.713 47.5917 159.919 45.8367C159.919 44.9965 160.143 44.0629 158.985 43.6148L156.595 47.6104C155.419 49.4775 154.598 49.4775 153.328 47.6104C153.117 47.3617 152.893 47.1248 152.656 46.9009C151.728 48.3074 151.241 49.9584 151.256 51.6433C151.106 52.7448 151.106 53.8651 151.106 55.004ZM122.092 56.1616C121.14 59.7277 120.916 59.8957 117.331 59.6903C117.2 59.6903 117.069 59.821 116.752 59.9891C117.069 61.2214 115.762 62.3043 116.547 63.7232C118.857 68.4757 119.336 73.9129 117.891 78.9959C117.891 79.444 117.891 79.9108 117.76 80.1908L123.361 81.8525C124.444 81.3857 126.069 80.7136 127.656 79.9854C130.27 78.7718 132.865 77.5022 135.46 76.2513C137.655 75.4056 139.587 73.995 141.061 72.1624C141.814 71.2477 142.68 70.4322 143.638 69.7352C144.161 69.3244 145.113 69.2871 145.505 68.783C146.476 67.252 147.241 65.5716 148.1 63.9286C147.899 63.6204 147.654 63.3436 147.372 63.1071C146.814 62.7715 146.386 62.2562 146.158 61.6456C145.931 61.0351 145.918 60.3654 146.121 59.7464C146.308 59.0929 145.654 58.2154 145.412 57.5059C143.078 57.7113 142.462 59.2609 141.789 60.8666C141.118 62.5795 140.319 64.2396 139.4 65.833C139.229 66.2063 138.959 66.5252 138.619 66.7544C138.279 66.9836 137.882 67.1141 137.472 67.1315C137.062 67.1489 136.656 67.0525 136.297 66.853C135.939 66.6534 135.643 66.3586 135.441 66.0011C135.059 65.5778 134.806 65.0547 134.71 64.4927C134.614 63.9307 134.68 63.353 134.9 62.827C135.74 60.6612 136.767 58.5328 137.57 56.367C138.877 53.0809 140.146 49.8135 141.304 46.5088C141.342 46.3234 141.335 46.1315 141.283 45.9494C141.231 45.7674 141.136 45.6006 141.005 45.4632C140.838 45.3727 140.654 45.3177 140.464 45.3016C140.275 45.2855 140.084 45.3088 139.904 45.3699C139.544 45.5406 139.205 45.7537 138.895 46.0047C136.319 47.6291 135.161 47.3677 133.294 44.7911C133.07 44.4737 132.921 44.0816 132.697 43.7455C132.553 43.4695 132.342 43.2337 132.084 43.0598C131.826 42.8858 131.529 42.7791 131.219 42.7494C130.909 42.7197 130.597 42.768 130.31 42.8898C130.024 43.0116 129.772 43.2031 129.579 43.4468C129.103 44.0271 128.774 44.714 128.622 45.4488C128.469 46.1836 128.496 46.9445 128.701 47.6664C129.429 51.6059 129.878 55.6015 130.344 59.597C130.37 60.4805 130.256 61.3625 130.008 62.2109C129.856 62.7397 129.592 63.2296 129.234 63.6475C128.876 64.0655 128.432 64.4017 127.933 64.6336C127.434 64.8654 126.891 64.9875 126.341 64.9915C125.79 64.9955 125.245 64.8813 124.743 64.6568C123.361 63.9846 123.623 62.6403 123.193 61.4827C125.06 61.4827 124.631 60.0264 124.743 58.9809C124.948 57.3192 125.229 55.5828 123.193 54.4439C122.876 54.7239 122.633 54.8546 122.54 55.0413C122.333 55.3935 122.17 55.7697 122.054 56.1616H122.092ZM107.062 91.4866C110.381 88.8072 113.033 85.3944 114.81 81.5164C115.569 79.8315 116.048 78.0342 116.229 76.1953C116.723 71.93 115.916 67.6152 113.914 63.8166C113.676 63.3043 113.5 62.7652 113.391 62.2109C112.962 60.4932 112.57 58.7942 112.14 57.0764C111.972 56.3856 111.767 55.6948 111.562 54.9853C110.553 51.4379 109.564 47.8718 108.518 44.3243C108.215 43.598 107.839 42.9037 107.398 42.2519C105.531 42.8493 103.813 44.399 102.133 42.2519C99.9483 43.9883 99.7616 45.2019 101.293 46.8262C102.17 47.7411 103.16 48.5066 104.131 49.4214C104.473 49.741 104.69 50.1715 104.745 50.6363C104.8 51.1012 104.688 51.5704 104.429 51.9607C104.201 52.4468 103.795 52.8266 103.294 53.0213C102.794 53.2159 102.237 53.2105 101.741 53.0062C101.039 52.6793 100.406 52.2233 99.8736 51.6619C97.4217 49.0109 94.7415 46.5806 91.8639 44.399C91.3795 44.051 90.8111 43.8381 90.2172 43.7823C89.6233 43.7265 89.0253 43.8298 88.4845 44.0816C88.0551 44.5061 87.7565 45.0448 87.6241 45.6339C87.4917 46.223 87.5311 46.8377 87.7377 47.405C88.5965 50.1869 88.5592 50.355 86.2253 52.2594C85.2545 53.0622 84.7317 53.9211 85.2545 54.9293L87.9991 56.0122C88.4071 56.2398 88.8392 56.4214 89.2873 56.5537C93.1041 57.1481 96.8068 58.3257 100.266 60.0451C101.659 60.6773 102.964 61.4869 104.149 62.4536C105.531 63.5739 105.587 64.6008 104.784 66.3371C104.588 67.0154 104.135 67.5902 103.521 67.939C102.907 68.2878 102.181 68.3829 101.498 68.2042C99.6309 67.9241 97.7638 67.4947 95.8034 67.1773C95.0948 67.1273 94.3836 67.1273 93.675 67.1773C97.6518 69.4925 98.8841 72.4238 97.9506 76.2886C97.6892 77.3902 98.2866 77.913 99.3509 78.1557C100.278 78.2309 101.177 78.5152 101.979 78.9873C102.781 79.4594 103.465 80.1071 103.981 80.8816C105.678 83.133 106.614 85.8668 106.651 88.686C106.686 89.6317 106.824 90.5707 107.062 91.4866ZM76.6659 107.394C79.2213 106.477 81.7157 105.398 84.1342 104.164C88.1858 102.073 92.144 99.7951 96.905 99.5897C97.5958 99.5897 98.4547 98.5255 98.7721 97.7226C99.0895 96.9198 98.3613 96.3597 97.7078 95.8556C95.5607 94.1939 95.5047 93.4657 97.1851 91.3372C97.282 91.1668 97.3573 90.9849 97.4091 90.7958C95.9528 90.049 95.0939 90.9452 94.1044 91.636C92.7995 92.5558 91.4334 93.3855 90.0155 94.1192C89.6183 94.3007 89.1742 94.3532 88.7456 94.2695C88.317 94.1858 87.9254 93.97 87.6256 93.6524C87.3121 93.2747 87.1166 92.8131 87.0634 92.3251C87.0103 91.837 87.1019 91.3441 87.3269 90.9078C87.5948 90.42 87.8877 89.9464 88.2044 89.4888C89.0086 88.2032 89.7199 86.8617 90.3329 85.4746C90.8422 83.9479 91.2477 82.3884 91.5465 80.807C92.424 77.0728 91.9946 76.6247 88.1858 76.5874C86.3187 76.5874 85.7212 76.0272 85.5158 74.2348C85.5158 74.0668 85.5158 73.9174 85.5158 73.7494C85.3291 72.2931 84.545 71.4716 83.4621 71.5836C83.1176 71.6016 82.7814 71.6951 82.4771 71.8575C82.1729 72.0199 81.908 72.2472 81.7014 72.5233C81.4947 72.7995 81.3513 73.1177 81.2813 73.4554C81.2113 73.7931 81.2164 74.1421 81.2963 74.4776C81.6934 76.1985 82.2112 77.8892 82.8459 79.5373C83.9615 82.4126 84.0993 85.5752 83.238 88.5366C83.0413 89.245 82.6614 89.889 82.1364 90.4037C80.5681 91.9721 78.9251 91.5613 78.4023 89.4142C78.1222 88.2566 78.1036 87.043 77.8982 85.8481C77.7488 85.0452 77.4874 84.261 77.0953 82.8421C76.1618 83.9436 75.5643 84.5411 75.1162 85.1946C73.6413 87.3604 73.5666 87.3791 71.3821 85.8667C70.1498 85.0079 69.3657 85.1386 68.5628 86.3335C68.2293 86.7456 68.0474 87.2597 68.0474 87.7898C68.0474 88.3199 68.2293 88.834 68.5628 89.2461C68.9624 89.7513 69.3926 90.2314 69.8511 90.6838C70.5563 91.3513 71.0933 92.1766 71.4178 93.0918C71.7424 94.0071 71.8453 94.9862 71.7182 95.9489C71.4568 97.816 71.1207 99.6831 70.8406 101.55C70.5102 103.641 69.4414 105.544 67.8279 106.914C66.2145 108.284 64.1634 109.031 62.0467 109.018C58.9235 109.033 55.8271 109.596 52.8981 110.68C47.8756 112.379 42.8719 114.19 37.9615 116.076C33.3125 117.943 28.6261 119.81 24.0891 121.677C19.2841 123.52 14.6008 125.665 10.0674 128.1C7.99495 129.314 5.77313 130.284 3.75669 131.61C-0.201504 134.187 -4.08502 136.894 -7.94986 139.601C-9.05143 140.367 -10.0036 141.3 -11.0305 142.159L-10.6011 142.794C-10.2691 142.76 -9.94617 142.665 -9.6489 142.514C-9.20236 142.091 -8.72833 141.698 -8.22992 141.337C-6.54955 140.479 -4.77584 139.769 -3.0768 138.892C-0.0894794 137.323 2.8605 135.662 5.82914 134.056L16.9009 128.193C19.2534 126.961 21.6619 125.822 23.9771 124.459C29.6761 121.13 35.6398 118.276 41.8076 115.927C44.1366 115.004 46.5108 114.2 48.9212 113.518C52.6553 112.603 56.2775 111.875 60.0116 111.24C62.4388 110.811 64.978 110.904 67.3492 110.325C70.509 109.53 73.6198 108.551 76.6659 107.394ZM100.284 100.542C99.7903 100.755 99.3259 101.031 98.9028 101.363C101.237 102.577 103.384 100.449 105.419 101.643C105.531 101.643 105.886 101.27 106.184 101.158C108.742 100.15 110.46 101.158 110.105 103.679C110.835 103.888 111.615 103.841 112.315 103.546C113.015 103.25 113.592 102.724 113.951 102.054C113.186 100.505 111.468 99.5337 111.674 97.2932C112.719 96.7144 113.858 96.0049 115.09 95.4261C117.368 94.3993 120.113 94.2312 121.55 91.692C121.7 91.4306 122.279 91.4493 122.596 91.2626C123.718 90.701 124.787 90.0385 125.789 89.2835C126.011 89.032 126.174 88.7333 126.264 88.41C126.355 88.0866 126.371 87.7469 126.311 87.4164C126.087 86.5762 125.229 86.6882 124.444 86.8563C123.832 86.9999 123.206 87.0812 122.577 87.099C120.393 87.099 119.907 86.4082 120.71 84.2797C120.776 84.0028 120.826 83.7223 120.86 83.4395C117.798 82.4686 116.64 82.9354 114.96 85.624C113.796 87.8767 112.19 89.8709 110.236 91.4866C107.865 93.1483 105.4 94.6793 102.954 96.1916C102.133 96.6958 101.255 97.0505 101.629 98.3948C103.702 97.6878 105.608 96.563 107.23 95.0901C109.436 93.2414 111.969 91.8228 114.698 90.9078C116.192 90.4597 117.63 89.7876 119.142 89.1901C120.355 90.2543 120.337 91.2066 119.03 91.7667C118.646 91.885 118.253 91.9663 117.854 92.0094C114.798 92.7 111.902 93.9674 109.321 95.7435C106.613 97.8597 103.554 99.4839 100.284 100.542ZM104.709 106.143C104.709 105.284 104.709 104.425 104.616 103.38C104.457 103.334 104.295 103.303 104.131 103.287C100.135 103.287 96.1395 103.137 92.1626 103.156C91.2074 103.217 90.2711 103.451 89.3994 103.847C87.6256 104.556 85.7586 105.49 83.8915 106.423C83.4258 106.683 82.9879 106.989 82.5845 107.338C84.6933 107.206 86.7796 106.83 88.8019 106.218C91.434 105.524 94.218 105.681 96.7556 106.666C98.9144 107.248 101.12 107.641 103.346 107.842C104.597 107.936 104.84 107.487 104.709 106.162V106.143ZM107.771 108.757C112.271 109.112 113.802 108.29 113.634 105.527L108.033 105.77C107.921 106.759 107.846 107.767 107.771 108.776V108.757ZM107.771 111.912C107.771 111.707 107.678 111.52 107.641 111.315L89.4927 114.041L92.7788 116.505C95.0939 115.759 97.6705 114.918 100.116 113.892C102.562 112.865 105.4 113.163 107.771 112.024V111.912ZM55.2879 125.094C60.2543 124.086 65.1461 122.723 70.0565 121.49C70.8365 121.289 71.5936 121.007 72.3156 120.65C74.4068 119.623 76.4979 118.541 78.5703 117.458C79.0098 117.179 79.4223 116.86 79.8026 116.505L79.5786 116.057C62.7749 119.063 46.3446 123.358 31.2774 132.058C31.4942 132.087 31.7139 132.087 31.9308 132.058C32.939 131.759 33.9473 131.498 34.9368 131.125C41.5453 128.565 48.3516 126.548 55.2879 125.094ZM92.1066 121.603C92.536 121.603 92.9841 121.397 93.4136 121.304C92.8128 120.883 92.0928 120.667 91.3598 120.688C89.4927 120.688 89.1566 120.184 89.4927 118.316C89.4927 117.924 89.6608 117.551 89.7915 117.01C88.9553 116.594 88.041 116.359 87.1081 116.321C86.1751 116.282 85.2446 116.44 84.3769 116.785C82.5099 117.476 80.7735 118.541 78.9437 119.381C76.2291 120.771 73.4433 122.017 70.5979 123.115C68.4321 123.88 65.9863 123.862 63.7831 124.534C59.7876 125.747 55.568 126.214 51.8338 128.268C51.4022 128.416 50.9417 128.461 50.4895 128.399C49.5674 128.322 48.6392 128.359 47.7263 128.511C44.851 129.37 42.1251 130.378 39.2311 131.311C33.4992 133.178 27.7486 135.045 22.0914 137.025C18.5439 138.294 15.1085 139.9 11.6357 141.375C4.47491 144.273 -2.84311 146.766 -10.2837 148.843C-14.2792 150.019 -18.3681 150.972 -22.401 152.036C-24.2681 152.521 -24.9776 153.417 -25.3697 155.77C-22.9425 155.266 -20.6086 154.706 -18.2374 154.295C-9.23814 152.689 -1.17238 148.694 7.0054 144.81C11.8785 142.532 16.9382 140.628 21.942 138.612C22.9689 138.201 24.1078 138.051 25.1534 137.659C27.8793 136.502 30.6986 135.4 33.4805 134.429C33.9242 134.234 34.3793 134.065 34.8435 133.925C37.196 133.234 39.5485 132.488 41.9197 131.871C46.1019 130.695 50.2842 129.556 54.5411 128.828C56.6743 128.483 58.8493 128.483 60.9825 128.828C62.3012 129.198 63.5591 129.758 64.7166 130.49L76.1431 135.662C78.2816 136.616 80.1913 138.016 81.7444 139.769C83.0886 141.263 84.4703 142.719 85.8333 144.175L89.5674 148.022C89.9782 147.312 90.2582 146.939 90.4636 146.528C91.6959 144.026 92.6107 143.765 94.9632 145.221C95.598 145.613 96.3075 145.893 97.0357 146.248C97.7452 144.941 97.7825 143.989 96.8303 143.167C95.8781 142.346 94.8139 141.3 93.7123 140.609C91.9573 139.34 90.1088 138.219 88.3351 136.875C87.9419 136.593 87.6588 136.183 87.534 135.715C87.4093 135.247 87.4507 134.751 87.6512 134.31C87.8517 133.87 88.1988 133.512 88.6333 133.299C89.0679 133.086 89.563 133.03 90.0342 133.141C91.7769 133.422 93.4986 133.822 95.1873 134.336C98.1186 135.438 100.919 136.857 103.832 138.07C105.886 138.91 107.995 139.601 109.881 140.273C111.169 139.47 111.393 138.649 110.908 137.603L110.012 135.736C108.985 133.514 109.676 132.394 112.159 132.17L113.597 132.021C113.527 131.514 113.315 131.038 112.984 130.647C112.653 130.257 112.218 129.969 111.73 129.818C110.471 129.31 109.172 128.91 107.846 128.623C103.955 128.097 100.021 127.953 96.1022 128.193C94.3339 128.362 92.5511 128.093 90.9117 127.409C90.4677 127.222 90.0917 126.904 89.8346 126.496C89.5775 126.089 89.4516 125.612 89.474 125.131C89.3984 124.322 89.6257 123.513 90.112 122.861C90.5983 122.209 91.309 121.761 92.1066 121.603ZM126.311 132.805L122.895 130.938C122.204 132.581 121.625 134 121.028 135.662C123.417 135.568 124.127 133.421 126.311 132.786V132.805ZM134.209 121.603L135.217 122.629C137.402 124.851 137.364 125.337 134.993 127.372C134.777 127.548 134.602 127.77 134.483 128.022C134.363 128.274 134.302 128.549 134.302 128.828C134.583 130.807 133.294 131.573 131.857 132.226C130.923 132.637 129.99 132.917 128.963 133.253C129.113 135.841 128.361 138.402 126.834 140.497C125.826 142.364 124.351 144.007 124.295 146.099C125.522 146.377 126.772 146.539 128.029 146.584C129.784 146.584 131.016 146.976 131.465 148.843L133.332 147.368C133.836 148.712 131.745 148.862 131.987 150.094C133.369 150.449 133.537 150.467 134.246 149.646C135.921 147.795 136.967 145.462 137.234 142.981C137.46 141.15 137.829 139.34 138.335 137.566C138.597 136.558 138.989 135.512 140.37 135.55C140.933 135.606 141.461 135.844 141.876 136.228C142.29 136.613 142.568 137.122 142.667 137.678C142.76 138.153 142.76 138.641 142.667 139.116C142.577 139.853 142.635 140.601 142.837 141.316C143.039 142.03 143.381 142.698 143.843 143.279L149.239 141.898C149.239 141.898 149.239 142.103 149.239 141.898C148.772 136.744 148.1 131.666 144.347 127.614C143.538 126.832 142.835 125.947 142.256 124.982C140.501 121.36 137.57 121.472 134.302 121.659L134.209 121.603ZM149.239 112.659C148.692 112.3 148.309 111.74 148.173 111.101C148.036 110.461 148.158 109.793 148.511 109.242C148.654 108.935 148.773 108.617 148.866 108.29C148.47 107.615 147.846 107.105 147.106 106.851C146.366 106.598 145.559 106.618 144.833 106.909C143.645 107.154 142.508 107.602 141.472 108.234C137.973 110.344 134.205 111.971 130.27 113.07C129.668 113.297 129.026 113.397 128.383 113.365C127.741 113.333 127.112 113.169 126.535 112.883C126.08 112.764 125.671 112.512 125.359 112.159C125.048 111.806 124.848 111.369 124.786 110.902C124.724 110.436 124.802 109.961 125.011 109.54C125.219 109.118 125.548 108.767 125.957 108.533C126.458 108.122 126.988 107.748 127.544 107.413C128.795 106.554 130.12 105.77 131.278 104.836C132.025 104.257 133.145 103.735 132.678 102.297C132.296 102.183 131.9 102.12 131.502 102.11C130.624 102.11 129.765 102.372 128.888 102.484C128.01 102.596 126.834 102.67 126.181 101.513C125.004 99.3657 123.716 99.0856 121.532 100.187C119.851 101.046 119.366 102.67 118.638 104.183C117.04 107.861 114.535 111.073 111.356 113.518C110.672 114.03 109.89 114.399 109.06 114.601C105.848 115.404 102.618 116.076 99.4069 116.823C98.9706 117.008 98.5621 117.253 98.1933 117.551C98.807 117.698 99.4467 117.698 100.06 117.551C102.301 117.364 104.541 116.505 106.763 117.364C108.644 118.061 110.461 118.916 112.196 119.922C116.621 122.536 120.897 125.393 125.266 127.969C126.822 128.782 128.489 129.361 130.214 129.687C131.072 129.911 132.081 129.556 132.081 128.361C131.956 127.635 132.084 126.889 132.445 126.246C132.805 125.604 133.375 125.105 134.06 124.833C134.06 124.627 134.06 124.422 134.06 124.235L131.633 122.928C130.978 122.679 130.352 122.36 129.765 121.976C128.29 120.781 128.533 119.269 130.307 118.671C131.152 118.408 132.037 118.294 132.921 118.335C137.252 118.447 141.584 118.671 145.99 118.727C147.595 118.773 149.198 118.591 150.751 118.186C152.768 117.626 153.048 116.655 151.853 114.993C151.08 114.111 150.203 113.327 149.239 112.659ZM151.797 111.8L150.975 109.467C150.229 110.717 150.807 111.222 151.816 111.8H151.797ZM169.086 122.909C169.267 121.799 169.6 120.718 170.076 119.698C170.494 119.031 170.976 118.406 171.513 117.831L173.38 119.922C174.239 116.039 172.951 110.083 170.804 108.272C170.873 109.229 170.804 110.191 170.598 111.128C169.572 113.873 168.414 116.561 167.182 119.231C166.958 119.754 166.248 120.09 165.52 120.725C165.41 120.21 165.227 119.714 164.979 119.25C163.541 117.383 163.541 117.14 165.613 116.412C166.808 116.001 167.014 115.385 166.453 114.452C165.893 113.518 166.117 112.585 167.163 112.417C168.563 112.062 168.713 111.054 169.03 109.915C169.327 107.618 169.11 105.284 168.395 103.081C167.988 100.878 166.866 98.8696 165.203 97.3679C164.923 98.5255 165.987 99.8884 164.176 100.486L163.279 98.4508C160.927 98.4508 162.383 101.569 160.385 101.756C160.136 101.422 159.962 101.038 159.877 100.631C159.791 100.224 159.796 99.8024 159.89 99.3968C159.984 98.9913 160.166 98.6113 160.423 98.2834C160.679 97.9555 161.004 97.6877 161.375 97.4986C162.383 96.8264 163.447 96.229 164.493 95.6315L164.325 95.1274C162.178 95.2208 160.031 95.2581 157.902 95.4261C157.672 95.4788 157.454 95.5791 157.265 95.7206C157.075 95.862 156.917 96.0416 156.801 96.2477C155.849 97.7786 154.934 99.3657 153.925 101.27C154.264 101.33 154.595 101.424 154.915 101.55C156.39 102.241 156.651 102.894 156.035 104.351C155.885 104.635 155.717 104.91 155.531 105.172C154.374 107.189 154.448 107.973 155.793 108.626C157.137 109.28 157.66 108.738 158.63 106.89C159.098 105.876 159.667 104.913 160.329 104.015C161.058 103.1 162.607 103.044 163.018 103.884C163.687 105.148 164.129 106.519 164.325 107.936C164.331 109.209 164.11 110.474 163.672 111.67C162.813 114.657 161.804 117.644 160.908 120.632C160.408 121.814 160.329 123.132 160.684 124.366C160.902 124.437 161.128 124.48 161.356 124.496C163.578 124.198 164.474 124.87 164.698 126.961C164.703 127.435 164.798 127.904 164.979 128.343C165.165 128.735 165.613 129.351 165.837 129.314C166.087 129.254 166.323 129.144 166.528 128.99C166.734 128.836 166.906 128.641 167.032 128.417C168.051 126.722 168.753 124.856 169.105 122.909H169.086ZM184.713 113.257C184.383 112.789 184.233 112.217 184.292 111.648C184.35 111.078 184.613 110.549 185.031 110.157C185.964 109.242 186.898 109.691 187.925 110.157C188.952 110.624 189.792 111.259 190.781 111.856C190.912 111.585 190.985 111.289 190.995 110.988C191.004 110.687 190.952 110.388 190.839 110.108C190.727 109.829 190.557 109.576 190.342 109.366C190.126 109.156 189.869 108.993 189.587 108.888C188.765 108.373 187.91 107.911 187.029 107.506C184.811 106.323 182.461 105.408 180.027 104.78C180.027 105.714 179.84 106.479 179.747 107.245C180.699 107.655 181.876 107.767 181.446 109.317L180.55 109.186H179.672C179.672 111.408 179.672 111.688 180.606 112.342C182.697 113.686 182.193 115.889 182.697 117.738C182.697 117.98 182.361 118.354 182.174 118.69C181.782 118.447 181.129 118.26 181.091 117.98C181.07 117.265 181.139 116.55 181.297 115.852C180.681 115.142 180.046 114.414 179.43 113.667C178.524 112.723 177.893 111.549 177.607 110.272C177.32 108.995 177.389 107.664 177.805 106.423C178.421 104.724 178.16 104.22 176.629 103.268L174.762 102.166C173.772 101.569 173.735 100.859 174.594 99.9445L177.451 101.55L180.905 100.355L182.268 97.8347L183.985 99.4777C185.852 99.0296 187.719 98.9922 188.28 96.8078C188.28 96.5837 189.344 96.3783 189.699 96.5464C190.053 96.7144 190.539 97.4426 190.931 97.8907C192.518 97.8907 194.049 97.8907 194.777 96.0236L196.756 97.3866C196.065 98.0774 195.617 98.8616 195.001 99.0483C193.395 99.515 191.678 99.6271 190.072 100.056C187.188 100.559 184.402 101.517 181.82 102.894C183.671 104.421 185.931 105.369 188.317 105.62C188.521 104.841 188.996 104.16 189.656 103.699C190.316 103.237 191.118 103.025 191.92 103.1C193.582 103.1 195.262 103.1 196.924 103.1C199.078 102.96 201.223 102.699 203.347 102.316C203.683 102.228 203.993 102.059 204.25 101.825C204.507 101.591 204.703 101.298 204.822 100.971C204.822 100.505 204.206 99.8138 203.702 99.3843C203.104 98.9987 202.48 98.6556 201.835 98.3574C200.976 97.816 199.967 97.3866 199.407 96.4904C198.847 95.5942 199.183 94.6233 199.09 93.4284C198.436 93.1296 197.596 92.4202 196.849 92.4948C194.204 92.7133 191.581 93.1504 189.008 93.8018C186.394 94.5299 183.929 95.7809 181.371 96.7144C177.834 97.9011 174.098 98.3832 170.374 98.1334C171.236 101.223 172.328 104.244 173.642 107.17C175.874 111.185 177.462 115.526 178.347 120.034C178.583 121.309 179.289 122.448 180.326 123.227C180.592 123.472 180.906 123.66 181.248 123.779C181.59 123.897 181.953 123.944 182.314 123.916C182.675 123.888 183.026 123.786 183.346 123.616C183.666 123.446 183.947 123.212 184.172 122.928C185.927 121.061 186.487 121.173 188.224 123.04L191.323 126.364C191.696 124.96 191.666 123.481 191.236 122.094C190.807 120.707 189.996 119.469 188.896 118.522C188.037 117.663 187.234 116.767 186.469 115.852C185.808 115.041 185.22 114.172 184.713 113.257ZM207.847 126.326C207.975 125.461 208.019 124.586 207.977 123.712C208.089 120.296 208.985 119.623 212.327 120.389C212.701 120.537 213.102 120.607 213.504 120.594C214.088 120.441 214.656 120.234 215.203 119.978C213.435 116.496 210.492 113.751 206.894 112.23C201.632 109.868 196.218 107.86 190.688 106.218C190.52 106.218 190.277 106.349 190.072 106.423C189.867 106.498 190.072 106.647 190.072 106.685C190.52 107.133 190.968 107.581 191.435 108.01C194.497 110.792 197.764 113.163 202.133 113.331C202.563 113.331 203.384 113.742 203.366 113.873C203.123 115.348 204.542 115.74 205.065 116.785C205.245 117.393 205.351 118.02 205.382 118.653L201.648 116.449C201.648 117.383 201.797 118.036 201.891 118.895C199.445 118.597 199.687 116.561 199.127 115.273L194.348 112.603C194.198 113.126 194.03 113.63 193.825 114.321L191.958 113.014L191.659 113.406C192.217 114.09 192.842 114.715 193.526 115.273C195.522 116.642 197.213 118.41 198.492 120.464C199.501 121.92 200.36 123.414 201.554 124.795C202.372 125.89 203.34 126.864 204.43 127.689C204.717 127.906 205.055 128.045 205.411 128.093C205.768 128.141 206.131 128.096 206.465 127.963C206.799 127.83 207.093 127.612 207.319 127.332C207.545 127.052 207.694 126.718 207.753 126.364L207.847 126.326ZM126.834 116.356C128.496 116.169 130.251 115.329 131.483 116.561C133.873 116.057 135.983 115.74 138.037 115.161C140.09 114.582 142.051 113.798 143.787 113.182C143.582 112.211 143.376 111.315 143.078 109.971C142.2 110.568 141.36 110.886 140.968 111.502C140.584 112.054 140.088 112.519 139.512 112.867C138.936 113.214 138.293 113.436 137.626 113.518C136.375 113.817 135.199 114.358 133.892 113.518C133.668 113.387 133.276 113.518 132.977 113.518C129.672 114.097 126.386 114.788 123.081 115.273C121.686 115.308 120.291 115.201 118.918 114.956C120.187 113.63 121.14 112.771 121.905 111.782C122.671 110.792 123.978 110.045 123.455 108.048L120.411 111.016C120.038 110.325 119.702 109.747 119.086 108.664C118.787 109.672 118.432 110.195 118.544 110.531C118.795 111.346 118.769 112.222 118.472 113.022C118.175 113.821 117.623 114.501 116.901 114.956C115.352 114.844 113.783 114.676 112.196 114.657C111.941 114.678 111.694 114.765 111.482 114.909C111.269 115.053 111.097 115.249 110.983 115.479C110.871 115.833 111.281 116.487 111.655 116.785C112.963 117.714 114.555 118.156 116.155 118.036C118.23 118.055 120.24 118.764 121.868 120.053C123.38 121.266 125.042 122.293 126.629 123.414L127.021 123.021C126.255 120.296 123.492 119.287 121.924 117.252C123.548 117.028 125.172 116.561 126.834 116.356ZM201.162 65.3476C201.629 65.3476 202.376 65.3476 202.544 65.5903C203.814 67.6254 206.278 66.6172 207.921 67.8121C208.108 67.9428 208.705 67.5134 209.116 67.3267C208.965 66.9213 208.771 66.5333 208.537 66.1691C208.307 65.9433 208.025 65.7767 207.716 65.6837L200.826 63.1258C201.321 62.5601 201.878 62.0527 202.488 61.6134C204.56 60.4185 206.652 59.1862 208.836 58.1967C213.074 56.3296 217.387 54.4625 221.682 52.7262C222.522 52.3901 223.306 52.1287 223.549 50.8591C221.495 50.0562 220.001 51.83 217.947 52.0167C218.302 51.5126 218.451 51.2512 218.638 51.0271C219.124 50.4857 219.796 49.8322 219.049 49.1601C218.302 48.4879 217.499 49.2907 217.182 49.9069C216.623 50.9748 216.137 52.0788 215.726 53.2116L208.985 55.5081C208.668 54.7986 208.556 53.9584 208.145 53.7531C207.286 53.3423 206.614 53.8651 206.278 54.7613C206.091 55.2841 205.923 55.8255 205.699 56.3296C205.475 56.8337 205.27 57.4499 204.859 57.7299C203.459 58.7008 201.984 59.597 200.061 60.7172C200.64 58.7568 201.032 57.3005 201.498 55.8815C201.965 54.4625 202.488 53.3236 202.861 52.0167C203.141 51.0645 203.067 50.1496 201.816 49.8135C201.032 51.9047 200.285 53.8277 199.575 55.7882C199.334 56.296 199.17 56.8373 199.09 57.3938C198.897 58.9202 198.246 60.3522 197.223 61.5014C196.737 62.1549 196.215 62.771 195.785 63.3685C195.057 64.5634 195.561 65.4036 196.98 65.3662C198.399 65.3289 199.818 65.3476 201.162 65.3476ZM220.991 86.5949C220.9 87.1369 220.646 87.6383 220.263 88.0325C219.198 88.7932 218.044 89.4202 216.827 89.8996C216.434 90.0229 216.092 90.2728 215.856 90.6106C215.619 90.9483 215.501 91.3548 215.52 91.7667C215.52 92.7002 216.286 92.8869 217.051 92.9056C219.212 93.1532 221.248 94.0444 222.895 95.4635C224.277 96.4157 225.677 97.3306 227.115 98.2641C227.538 98.6223 228.069 98.8295 228.623 98.8532C229.178 98.8768 229.724 98.7156 230.177 98.3948L227.656 96.229C228.123 95.7249 228.496 95.2954 228.87 94.866C228.396 94.5242 227.889 94.2303 227.357 93.9885C226.811 93.8354 226.242 93.7847 225.677 93.8391C224.693 93.8331 223.72 93.6206 222.823 93.2154C221.926 92.8102 221.123 92.2212 220.468 91.4866L231.428 91.0385C231.867 90.7132 232.369 90.4842 232.903 90.3664C235.131 90.1612 237.37 90.105 239.605 90.1983C244.478 90.5531 249.333 91.0945 254.206 91.5426C254.716 91.4831 255.217 91.3641 255.7 91.1879C254.654 90.0116 253.272 89.3208 253.833 87.3417C252.558 87.3439 251.294 87.5714 250.098 88.0139C248.238 88.962 246.101 89.22 244.068 88.742C239.437 88.1538 234.751 88.1538 230.121 88.742C227.899 89.1154 225.64 89.2835 223.399 89.4888C222.762 89.4295 222.135 89.2915 221.532 89.0781C222.223 88.6113 222.54 88.4246 222.839 88.1819C225.668 85.5524 228.902 83.3962 232.417 81.7965C232.977 81.5911 233.313 80.8816 233.836 80.3215C233.302 79.9299 232.644 79.7462 231.984 79.8046C231.324 79.863 230.708 80.1596 230.251 80.6389C229.79 81.0614 229.187 81.2957 228.562 81.2957C227.936 81.2957 227.333 81.0614 226.872 80.6389C226.872 80.6389 226.592 80.7509 226.293 80.8816C226.293 81.5725 226.424 82.3193 226.499 83.0101L223.437 85.2506L221.439 83.5516C221.233 85.1572 221.177 85.8854 220.991 86.5202V86.5949ZM136.039 143.765L135.46 145.053L136.468 144.082L136.039 143.765ZM176.834 32.8232C176.306 31.8927 176.081 30.8203 176.191 29.7558C176.302 28.6912 176.742 27.6879 177.451 26.8859C178.025 25.7719 178.422 24.575 178.627 23.3384C178.732 22.8778 178.801 22.4096 178.832 21.9381C176.2 22.1435 176.778 25.3735 174.501 26.0083C173.604 23.4318 172.746 20.9112 171.831 18.428C171.65 17.7545 171.273 17.15 170.748 16.6916C169.525 15.885 168.667 14.6317 168.358 13.2002C167.891 11.7066 167.331 10.2316 166.808 8.7379H166.043C166.043 9.44739 165.595 10.2502 165.8 10.8664C166.331 13.545 167.405 16.0866 168.955 18.3347C169.784 19.3226 170.469 20.4226 170.99 21.602C171.725 22.892 172.099 24.356 172.073 25.8403L167.163 23.9732C166.827 23.133 167.723 21.6767 165.949 21.6394C165.557 22.3489 165.165 23.0023 164.81 23.6372C162.993 22.8834 161.046 22.4903 159.079 22.4796C159.265 24.0106 160.255 24.4587 161.356 24.7574C163.616 25.3549 165.893 25.8216 168.115 26.6245C170.822 27.5207 173.362 28.7156 174.146 31.9083C174.303 32.5317 174.618 33.1041 175.061 33.57C175.251 33.6954 175.467 33.7772 175.693 33.8095C175.919 33.8418 176.149 33.8237 176.368 33.7567C176.52 33.646 176.642 33.4993 176.723 33.3299C176.805 33.1605 176.843 32.9736 176.834 32.7858V32.8232ZM86.6548 123.32C87.3082 122.779 87.6256 122.237 87.0842 121.453C86.9633 121.389 86.8288 121.356 86.6921 121.356C86.5555 121.356 86.4209 121.389 86.3 121.453C85.7586 122.163 85.8706 122.779 86.6548 123.32ZM132.715 54.3692C132.417 55.6575 131.782 57.0951 133.686 58.1967C134.116 55.9375 134.527 53.9024 134.956 51.7366C132.734 51.6619 132.958 53.2489 132.715 54.3692ZM120.71 66.0384C121.7 67.196 122.839 68.2229 123.81 69.3991C125.938 71.9757 125.677 74.1228 123.249 76.27C122.872 76.5693 122.534 76.9142 122.241 77.2969C122.1 77.455 121.999 77.6448 121.946 77.8502C121.893 78.0556 121.89 78.2707 121.938 78.4774C121.985 78.6841 122.082 78.8764 122.219 79.0381C122.356 79.1998 122.53 79.3262 122.727 79.4066C124.403 78.4069 125.909 77.1463 127.189 75.6725C127.682 75.0703 128.276 74.5586 128.944 74.1602C130.68 73.3573 132.491 72.7039 134.284 71.9944C135.012 71.7143 136.039 71.6023 135.647 70.4634C135.255 69.3245 134.396 69.6792 133.593 69.9406C133.136 70.0839 132.687 70.2522 132.249 70.4447C131.39 70.8181 130.55 71.2289 129.597 71.6583C129.485 70.7248 129.411 70.0713 129.28 69.1191C128.664 69.6045 128.328 69.9219 127.936 70.1646C127.607 70.3644 127.264 70.5392 126.909 70.6874L120.579 62.715C120.363 62.9382 120.194 63.203 120.083 63.4935C119.971 63.7839 119.92 64.0939 119.933 64.4047C119.945 64.7155 120.02 65.0205 120.154 65.3014C120.287 65.5822 120.477 65.8329 120.71 66.0384ZM131.465 67.7188C132.286 65.553 132.921 63.8726 133.5 62.1175C133.5 61.9122 133.257 61.5761 133.033 61.1093C131.166 62.491 131.315 64.4327 130.68 66.0197C130.568 66.3558 131.016 66.8226 131.465 67.7188ZM86.9908 100.523C87.8497 99.3843 87.1215 98.5255 86.6361 97.4613L81.0349 97.6666C82.0431 96.4344 82.9019 95.3888 83.8168 94.2499C84.865 92.8612 85.8253 91.4082 86.6921 89.8996C87.0757 89.3108 87.2673 88.6176 87.2405 87.9154C87.2138 87.2133 86.97 86.5366 86.5427 85.9787C85.0288 90.5241 82.0805 94.4552 78.1409 97.1812C77.4443 95.5777 76.8701 93.9237 76.4232 92.2334C76.1431 90.7024 76.7966 89.0034 75.695 87.3044C75.3963 87.6457 75.1218 88.0076 74.8735 88.3873C74.7179 88.668 74.5868 88.9616 74.4814 89.2648C73.6786 89.4888 72.8011 88.4993 72.465 89.7129C72.1289 90.9265 73.0251 90.9638 73.6226 91.2812C74.0549 91.4949 74.513 91.6517 74.9855 91.748C75.2656 93.1857 75.5083 94.2872 75.6764 95.4822C76.0124 97.8907 76.1992 100.299 73.996 102.11C73.805 102.349 73.6594 102.621 73.5666 102.913C74.7242 103.697 75.4337 102.913 75.9004 102.241C77.119 101.014 78.7334 100.26 80.4561 100.112C81.0349 100.803 81.483 101.382 82.1925 102.222L82.7712 99.9631C84.489 98.6935 85.5719 100.598 86.9908 100.523ZM87.6256 79.2759C86.7671 80.8412 86.4768 82.6554 86.8041 84.4104C88.5965 82.1512 88.7646 81.199 87.6256 79.2759ZM110.777 78.2491C111.599 76.327 111.764 74.1873 111.244 72.1624L113.559 70.9488L110.908 69.2871C110.908 68.5776 110.908 67.8121 110.908 67.0653L112.775 66.6919C113.429 64.8248 111.356 65.2169 110.908 64.4887V60.0078C108.78 61.2774 109.806 63.2938 108.836 65.0862C108.148 62.2118 106.486 59.6648 104.131 57.8793C103.888 56.9831 105.12 55.8628 103.682 55.0227L102.394 55.5454C101.143 54.892 100.042 54.2385 98.8841 53.6784C97.7265 53.1182 97.2784 52.6328 97.4651 51.4566C97.5771 50.7657 97.4651 50.1309 96.4569 50.0749L95.3366 52.0353L92.2933 50.9711C92.2933 49.4775 92.8161 47.8718 91.1544 46.8449C89.9595 48.1892 91.5838 49.4028 91.1544 50.411L89.6794 51.3072C90.0105 51.7885 90.3992 52.2274 90.837 52.6141C91.3529 52.8475 91.8908 53.0288 92.4427 53.1556C95.4113 54.2945 98.6787 54.8733 101.031 57.3005C101.983 58.2714 102.898 59.3169 103.832 60.2505C106.117 62.6423 107.778 65.5599 108.668 68.7457C108.925 69.773 109.124 70.814 109.265 71.8637C107.137 71.1729 105.942 69.1191 103.664 69.6792C103.701 70.1859 103.594 70.6928 103.356 71.1418C103.119 71.5909 102.759 71.964 102.32 72.2184C102.058 72.3678 102.095 73.0959 101.927 73.8614L106.408 72.5732L110.143 74.7763C109.862 75.5978 109.601 76.3447 109.321 77.1848C108.257 77.1848 107.323 77.1848 106.371 77.1848C105.419 77.1848 104.84 77.8383 105.344 78.9212L108.929 79.0146C108.447 79.9472 108.256 81.0035 108.383 82.0459C108.509 83.0882 108.947 84.0683 109.638 84.8585C109.909 84.0709 110.127 83.2663 110.292 82.45C110.3 81.0382 110.45 79.6308 110.74 78.2491H110.777ZM85.3478 123.768C83.8915 123.432 83.8728 123.432 83.1633 122.219C82.7899 121.584 82.4165 121.154 81.5203 121.827L82.1738 124.777C80.1976 125.608 78.1633 126.295 76.0871 126.83C74.8175 127.092 73.1932 127.278 72.353 126.083C70.4859 126.083 68.8055 126.364 67.1625 126.326C66.0609 126.326 65.7622 126.756 65.7435 127.839L67.704 128.063C69.0642 128.068 70.423 128.149 71.7742 128.305C72.9478 128.473 74.0843 128.839 75.1349 129.388C76.265 130.062 77.3224 130.85 78.2903 131.741C79.1943 132.398 79.9776 133.206 80.6054 134.131C81.5763 135.998 83.4807 136.688 85.0117 138.388C85.2569 137.888 85.3106 137.316 85.1627 136.779C85.0148 136.242 84.6755 135.778 84.2089 135.475C83.4313 134.805 82.7014 134.081 82.0244 133.309C81.3896 132.618 80.8482 131.834 80.1573 131.125C79.4665 130.415 79.2425 130.21 78.813 129.78L99.6122 132.264L100.695 135.288C102.562 135.008 101.199 133.608 101.983 132.712C102.453 132.725 102.922 132.775 103.384 132.861C103.902 133.057 104.432 133.219 104.971 133.346C105.363 133.346 105.755 133.048 106.147 132.88C105.949 132.533 105.724 132.202 105.475 131.89C105.176 131.591 104.616 131.423 104.504 131.087C103.851 129.314 103.477 129.015 101.871 129.836C100.867 130.315 99.7385 130.472 98.6414 130.284C93.9364 129.762 89.306 129.332 84.5076 128.791C83.2492 128.56 82.003 128.267 80.7735 127.913C82.0244 125.859 84.9931 126.326 85.3478 123.768ZM135.292 145.184C135.292 145.184 135.292 145.053 135.292 144.978V145.184ZM208.985 35.045C210.873 35.0273 212.752 34.7956 214.587 34.3542C214.923 34.3542 215.147 33.7007 215.408 33.3646C215.102 33.0662 214.749 32.8202 214.363 32.6364C213.886 32.561 213.401 32.561 212.925 32.6364L207.734 33.0099C207.734 32.0016 209.209 31.5909 208.164 30.2653C207.212 30.8441 206.297 31.4602 205.251 32.039C204.785 32.3004 204.28 32.7485 203.814 32.7298C201.947 32.7298 200.079 32.4871 197.764 32.319C199.258 31.0494 200.434 30.2093 201.498 29.201C202.071 28.3757 202.836 27.7026 203.727 27.2405C204.619 26.7785 205.61 26.5413 206.614 26.5498C207.044 26.5498 207.51 26.0644 207.959 25.803L207.249 24.664C207.118 24.4773 206.969 24.328 206.801 24.0853C207.977 22.6476 209.191 21.266 210.292 19.8283C211.991 17.6065 213.69 15.3847 215.259 13.0695C215.569 12.548 215.757 11.9629 215.809 11.3581C215.861 10.7534 215.775 10.1448 215.558 9.57809L213.69 11.8559L212.589 10.773C212.362 10.8357 212.154 10.9516 211.981 11.1113C211.808 11.2709 211.676 11.4696 211.595 11.6907C211.515 11.9118 211.489 12.1489 211.519 12.3823C211.548 12.6157 211.634 12.8385 211.767 13.0322C211.988 13.5095 212.053 14.0442 211.952 14.5604C211.852 15.0765 211.591 15.5479 211.207 15.9075C210.626 16.6753 210.002 17.4108 209.34 18.1106C207.753 19.791 206.147 21.4713 204.523 23.1144C202.656 25.1121 200.584 27.1099 198.567 29.0517C197.836 29.5935 197.062 30.0743 196.252 30.4893C196.383 28.3795 196.495 26.7552 196.607 25.2055L198.138 23.6932L195.916 22.1435C195.524 20.6685 194.665 19.0628 196.849 18.0733C197.003 17.92 197.112 17.7278 197.165 17.5173C197.217 17.3067 197.212 17.0859 197.148 16.8783C197.006 16.7112 196.823 16.5838 196.617 16.5085C196.411 16.4333 196.188 16.4127 195.972 16.4489C195.209 16.7506 194.478 17.1258 193.787 17.5692C193.787 18.6147 193.787 19.4362 193.787 20.2391C193.955 23.5811 194.161 26.9045 194.292 30.2466C194.41 30.8827 194.334 31.5396 194.074 32.1321C193.814 32.7247 193.383 33.2256 192.835 33.57C192.593 33.7007 192.48 34.0554 192.312 34.2795C193.47 35.5304 193.507 35.5304 194.646 34.8583C195.225 34.5222 195.879 33.9994 196.513 34.0368C200.752 34.3168 204.878 34.8396 208.985 35.045ZM216.099 13.7977C216.641 13.6825 217.164 13.4874 217.649 13.2189C218.003 12.9388 218.115 12.3787 218.339 11.9493C217.835 11.8372 217.257 11.5012 216.864 11.6505C216.645 11.7044 216.443 11.8126 216.276 11.9654C216.11 12.1181 215.984 12.3104 215.912 12.5244C215.839 12.7384 215.822 12.9673 215.861 13.1898C215.9 13.4124 215.995 13.6214 216.136 13.7977H216.099Z" fill="#101A24"/>
</g>
<defs>
<clipPath id="clip0_36_176">
<rect width="295.558" height="159" fill="white" transform="translate(-30)"/>
</clipPath>
</defs>
</svg>
