<svg width="350" height="225" viewBox="0 0 350 225" fill="none" xmlns="http://www.w3.org/2000/svg">
<g opacity="0.2">
<path d="M93.6444 16.8314C92.7372 17.1665 92.857 18.054 93.0695 18.7378C93.4638 20.4047 94.0842 22.0525 94.9187 23.649C97.4793 28.0842 99.6898 32.6216 101.535 37.2295C102.098 38.5931 102.897 39.9152 103.481 41.275C105.203 45.2507 106.867 49.256 108.546 53.2392C109.444 54.6896 109.766 56.2865 109.463 57.7793C108.707 56.5088 108.095 55.4005 107.411 54.3149C106.386 52.6861 105.376 51.0354 104.214 49.47C102.71 47.4207 101.035 45.4608 99.4737 43.4119C96.6788 39.7608 93.9557 36.0872 91.1679 32.4544C89.7304 30.5716 88.1129 28.7596 86.6467 26.8916C85.1804 25.0237 83.6042 22.8193 82.0147 20.8148C81.8369 20.5129 81.5716 20.2449 81.2453 20.0378C80.9188 19.8306 80.5427 19.6914 80.1543 19.634C79.7658 19.5766 79.3787 19.6031 79.0313 19.7107C78.6839 19.8183 78.3885 20.0034 78.1744 20.2475C77.2369 20.851 76.5461 21.6734 76.174 22.6288C75.8018 23.5843 75.762 24.6377 76.0588 25.6791C76.5926 27.155 77.278 28.6051 78.1071 30.0128C80.5596 34.4047 84.3294 38.242 87.4513 42.34C90.2452 46.0336 93.4841 49.5133 97.1104 52.717C97.7426 53.3493 98.3312 54.0088 98.8729 54.6915L98.4991 54.9439C95.85 53.0938 93.1006 51.3992 90.5732 49.3601C87.2562 46.6682 84.205 43.7427 81.0102 40.9506C78.8272 39.0327 76.5962 37.1494 74.3174 35.3007C73.6316 34.7352 72.8226 34.2853 71.9467 33.9822C71.0708 33.679 70.1489 33.5301 69.245 33.5454C67.7229 33.5234 67.1921 34.1091 67.5012 35.3882C67.5655 35.7557 67.7091 36.1187 67.9249 36.4599C68.8063 37.7152 69.7141 38.9595 70.6483 40.1926C72.9037 42.9737 75.6155 45.5083 78.692 47.7107C81.9576 50.214 85.3956 52.5986 88.8979 54.8535C93.2686 57.7276 97.7471 60.4646 102.183 63.2683C106.922 66.2563 111.763 69.2661 115.303 73.2224C116.807 74.8217 118.538 76.2739 120.452 77.5408C121.513 78.3914 122.499 79.3029 123.401 80.2669C122.613 80.0288 121.877 79.6541 121.247 79.17C116.975 76.1402 112.082 73.9889 107.367 71.5594C103.723 69.6806 100.215 67.6041 96.8697 65.3458C93.7793 63.2563 90.567 61.2965 87.3399 59.2702L78.4331 53.7184C77.593 53.158 76.6364 52.7423 75.6307 52.5007C74.6249 52.2591 73.5946 52.1974 72.6124 52.3201C70.7957 52.5466 70.0708 53.2845 70.7273 54.7699C71.0908 55.7412 71.7828 56.6377 72.7164 57.3467C75.1849 59.1196 77.5672 60.9668 80.1286 62.5953C82.3016 63.955 84.5472 65.226 86.8557 66.403C88.7069 67.3453 90.5585 68.2876 92.4595 69.1224C94.599 70.0934 96.7817 70.9682 98.8857 71.9654C103.017 73.9402 107.114 75.937 111.178 77.9563C112.995 78.734 114.702 79.7072 116.248 80.8473C115.176 80.7172 114.116 80.437 113.114 80.0191C108.242 77.8934 103.241 75.9973 98.4614 73.6681C93.6819 71.3384 88.3556 69.2326 83.2525 67.1075C81.207 66.2582 79.0686 65.583 76.9878 64.9076C76.2024 64.6562 75.3773 64.5654 74.5886 64.6437C73.7999 64.722 73.0728 64.967 72.4745 65.3556C72.1598 65.4957 71.9017 65.7022 71.723 65.9573C71.5443 66.2125 71.4505 66.5082 71.4499 66.8186C71.4493 67.1291 71.5418 67.4445 71.7195 67.7368C71.897 68.0296 72.1544 68.2898 72.4684 68.4957C73.4297 69.2527 74.467 69.9391 75.5659 70.5445C78.6029 72.0907 81.6831 73.5695 84.8346 74.9084C88.9841 76.6658 93.1896 78.3051 97.4392 79.8477C100.105 80.836 102.858 81.6318 105.56 82.5053C107.756 83.1806 109.973 83.7331 112.177 84.3973C116.417 85.7444 120.708 87.0131 124.849 88.5744C127.293 89.3909 129.57 90.5951 131.539 92.1125C131.852 92.3127 132.1 92.5772 132.25 92.8736C132.4 93.1705 132.446 93.4864 132.384 93.7822C132.333 94.2915 132.426 94.8186 132.658 95.3229C132.889 95.8271 133.252 96.2944 133.718 96.69C134.182 97.1623 134.624 97.6384 135.124 98.0846C136.62 99.5553 138.207 100.964 139.877 102.304C144.452 105.666 149.071 108.902 153.761 112.234C153.761 112.234 153.747 112.405 153.726 112.556C151.5 111.289 149.34 109.933 147.258 108.496C143.43 105.577 139.194 103.062 134.67 101.027C132.555 100.176 130.396 99.4265 128.203 98.7826C127.787 98.6358 127.34 98.6044 126.935 98.6925C126.529 98.7809 126.189 98.984 125.969 99.2693C125.719 99.461 125.446 99.6338 125.156 99.7855L117.466 92.3143C115.79 90.5678 113.841 89.0035 111.68 87.672C110.06 86.7293 108.696 86.5812 107.756 87.475C106.557 88.621 105.486 89.4485 106.792 91.2355C108.703 93.8911 110.962 96.3884 113.523 98.6757C116.247 101.065 118.921 103.504 121.623 105.927C122.573 106.779 123.493 107.646 124.493 108.45C126.675 110.23 128.886 111.985 131.125 113.715C132.407 114.707 133.767 115.576 135.056 116.557C136.411 117.357 137.639 118.305 138.699 119.37C135.242 117.764 131.933 115.916 128.811 113.851C127.168 112.645 125.474 111.488 123.831 110.283C123.237 109.862 122.715 109.361 122.143 108.907C120.716 107.753 119.232 106.658 117.863 105.445C115.777 103.615 113.841 101.641 111.697 99.8413C109.828 98.2705 107.831 96.8997 105.818 95.373L94.6822 86.9899C93.4337 86.1759 92.2871 85.2548 91.2642 84.2467C90.594 83.4309 89.7526 82.712 88.7868 82.1295C87.384 81.3266 85.9816 80.7016 84.6356 79.8985C82.0893 78.4256 79.284 78.5472 76.5695 78.0806C76.3841 78.0648 76.2018 78.0831 76.036 78.1337C75.592 78.2281 75.2013 78.4222 74.9036 78.696C74.6059 78.9697 74.412 79.3129 74.3414 79.6914C74.2502 80.0387 74.3128 80.4163 74.5184 80.7604C74.724 81.1045 75.0597 81.394 75.4686 81.5791C76.4233 82.0645 77.3777 82.5505 78.3183 83.1175C80.8493 84.4058 83.4519 85.613 85.9257 86.9897C90.8223 90.1243 95.513 93.4883 99.9687 97.0601C103.372 99.5298 106.645 102.11 109.968 104.673C110.728 105.252 111.46 105.875 112.199 106.487C111.395 106.3 110.619 106 109.908 105.602C109.371 105.282 108.781 105.037 108.166 104.877C105.993 104.422 103.902 103.604 102.029 102.477C99.3297 101.078 96.752 99.5043 94.3242 97.7731C91.6679 95.9342 89.2489 93.9059 86.6858 91.9813C84.6662 90.4661 82.6675 88.918 80.5544 87.5178C77.9883 85.7626 75.2758 84.1699 72.4449 82.7553C68.3091 80.7385 64.4163 78.3146 60.1372 76.4905C55.8578 74.6669 52.2833 72.4049 47.9562 71.1027C46.7427 70.7506 45.6216 70.1355 44.4292 69.6911C42.8967 69.0618 41.3306 68.5064 39.7397 68.0271C38.8972 67.8267 38.0342 67.9021 37.3395 68.2376C36.645 68.5726 36.1754 69.1403 36.0337 69.8157C35.7996 70.7039 35.8859 71.6608 36.2822 72.5761C36.6786 73.4909 37.3691 74.3262 38.2736 74.9848C42.1315 77.698 46.3681 79.9934 50.8582 81.8035C54.9786 83.6057 59.1706 85.2967 63.334 87.0319L74.5807 91.694C75.1882 92.0029 75.8101 92.3198 76.4604 92.5624C76.4047 92.6617 76.3427 92.7578 76.2744 92.8509C74.8916 92.5576 73.5215 92.1953 72.1719 91.7666C67.8075 90.1942 63.2515 89.3369 58.9292 87.5202C55.091 85.906 51.0463 84.8511 47.0429 83.3742C43.0395 81.8972 39.535 80.6595 35.8271 79.1415C31.6175 77.5151 27.3341 76.0641 22.9951 74.7939C22.3233 74.6111 21.6371 74.4951 20.9519 74.4481C20.0278 74.4496 19.1489 74.6465 18.3976 75.0204C17.6463 75.3942 17.0471 75.9327 16.6562 76.5856C16.16 78.0645 16.411 79.7185 17.3556 81.1966C18.3004 82.6747 19.8643 83.8611 21.7155 84.5035C25.3059 85.5779 28.946 86.5158 32.5927 87.3239C38.9906 88.7503 45.4093 89.9955 51.8141 91.3517C54.9263 92.0061 58.0242 92.712 61.1222 93.418C61.6117 93.5411 62.0962 93.6849 62.5741 93.8475L62.511 94.2136L56.709 93.6808C52.7541 93.2616 48.8059 92.7427 44.866 92.4493C41.5323 92.2285 38.2356 92.159 34.9463 92.1677C30.8176 92.0327 26.811 92.6238 23.1901 93.9022C22.588 94.0961 22.0743 94.4198 21.6968 94.8426C21.3192 95.2655 21.0898 95.7746 21.03 96.3223C20.9701 96.8701 21.0818 97.4387 21.3543 97.976C21.6268 98.5139 22.0518 99.0021 22.5895 99.397C24.5835 100.886 26.9893 101.915 29.5145 102.361C31.8352 102.756 34.1713 102.821 36.4185 102.554C39.8864 102.209 43.4496 102.192 46.9183 101.995C53.2999 101.568 59.7103 101.126 66.0336 100.582C70.9562 100.237 75.9938 100.434 81.0184 101.169C81.6269 101.266 82.2321 101.391 82.8304 101.545L73.3542 103.349C72.0643 103.592 70.7597 103.799 69.448 104.017L56.0858 106.277L44.2944 108.216C43.7214 108.285 43.205 108.492 42.8054 108.811C42.4058 109.131 42.1398 109.549 42.0383 110.019C41.7984 111.077 42.6676 111.815 43.6589 112.423C46.0845 113.886 48.8809 114.797 51.7217 115.051C54.9868 115.417 58.2323 115.305 61.3065 114.72C63.9794 114.254 66.597 113.655 69.1456 112.925C71.5511 112.171 73.8902 111.104 76.3535 110.38C79.7458 109.376 83.2768 108.576 86.6769 107.68C87.0767 107.63 87.4883 107.622 87.9032 107.654C87.7408 107.973 87.4338 108.216 87.0404 108.337C82.4791 109.712 78.2939 111.694 74.634 114.213C70.8685 116.755 66.8358 119.029 62.571 121.016C61.402 121.66 60.1201 122.167 58.7553 122.528C58.2035 122.76 57.7549 123.117 57.4549 123.563C57.3658 123.645 57.3 123.742 57.261 123.851C57.2221 123.959 57.2111 124.075 57.2284 124.193C57.2458 124.31 57.2913 124.426 57.3624 124.534C57.4332 124.643 57.5282 124.741 57.6413 124.824C58.3985 125.629 59.3579 126.295 60.4388 126.765C61.5196 127.236 62.69 127.497 63.8508 127.527C65.6645 127.533 67.4202 127.255 69.026 126.707C71.6549 125.905 74.5009 125.273 75.9183 123.043C75.9755 122.954 76.1195 122.938 76.2055 122.864C77.9167 121.61 79.5399 120.252 81.3524 119.108C85.7456 116.251 90.6764 113.963 96.0044 112.31C98.3676 111.623 100.999 111.501 103.457 110.996C106.212 110.478 109.223 110.804 111.966 111.918C115.47 113.215 118.869 114.767 122.294 116.246C124.868 117.348 127.377 118.552 129.957 119.615C132.913 120.838 135.927 121.945 138.912 123.095C138.352 123.112 137.782 123.051 137.223 122.914C132.442 121.868 127.669 120.782 122.896 119.784C121.155 119.428 119.402 119.162 117.648 118.987C115.859 118.784 114.142 118.796 112.381 118.638C110.126 118.465 107.91 118.681 105.876 119.272C103.843 119.863 102.034 120.816 100.568 122.07C100.079 122.491 99.6798 122.98 99.3849 123.519C99.0148 124.087 98.9042 124.766 99.0729 125.446C99.2409 126.127 99.6783 126.769 100.313 127.268C101.55 128.179 102.747 127.902 104.007 127.495C104.934 127.17 105.94 126.979 106.983 126.929C110.128 126.848 113.294 126.851 116.461 126.854C119.938 126.852 123.444 126.896 126.92 126.894C129.034 126.893 131.132 126.765 133.253 126.841C134.634 126.773 136.057 126.991 137.397 127.475L134.801 127.629C132.803 127.748 130.813 127.857 128.801 127.999C125.801 128.213 122.854 128.706 119.838 128.676C116.823 128.647 114.068 128.691 111.097 128.92C107.651 129.239 104.551 130.465 102.235 132.423C101.603 132.939 101.253 133.653 101.249 134.431C101.251 135.075 101.421 135.728 101.748 136.348C102.074 136.967 102.549 137.538 103.143 138.021C104.491 139.386 104.903 139.522 106.74 139.085C108.238 138.726 109.672 138.26 111.177 137.86C114.246 137.031 117.438 136.368 120.449 135.392C123.553 134.276 126.765 133.333 130.064 132.567C133.524 131.76 137.143 131.317 140.841 131.249C144.693 131.232 148.597 131.523 152.487 131.805C154.407 131.999 156.328 132.272 158.239 132.622C158.802 132.718 159.359 132.849 159.908 133.014C162.38 133.857 164.76 134.925 167 136.196C170.211 137.83 173.522 139.308 176.761 140.898C180 142.488 182.82 143.983 185.843 145.521C187.015 146.117 188.143 146.81 189.272 147.473C190.702 148.456 192.223 149.338 193.815 150.11C197.58 151.658 200.443 154.31 204.001 156.092C204.001 156.092 204.001 156.092 204.016 156.276C203.848 156.271 203.679 156.255 203.511 156.226C201.113 155.566 198.729 154.884 196.331 154.254C195.277 153.983 194.194 153.904 193.169 153.588C190.972 152.914 188.847 152.039 186.644 151.434C182.002 150.05 177.274 148.982 172.512 148.24C169.697 147.87 166.868 147.463 164.066 146.893C162.319 146.556 160.552 146.488 158.857 146.692C157.279 146.847 155.707 147.021 154.142 147.244C153.352 147.328 152.594 147.503 151.887 147.763C151.389 147.943 150.974 148.237 150.687 148.613C150.399 148.99 150.248 149.437 150.251 149.907C150.253 150.377 150.408 150.854 150.7 151.288C150.991 151.723 151.409 152.1 151.91 152.379C153.327 153.177 154.837 153.837 156.407 154.343C158.925 155.029 161.516 155.348 164.057 155.286C167.621 155.447 171.177 155.501 174.697 155.374C177.739 155.245 180.839 155.443 183.918 155.964C188.093 156.641 192.236 157.599 196.303 158.829C197.459 159.182 198.622 159.493 199.785 159.834C198.424 159.95 197.033 159.94 195.637 159.804C192.361 159.613 189.121 159.306 185.868 159.17C182.938 159.067 180.002 159.003 177.096 159.133C174.189 159.262 171.508 159.698 168.674 159.865C166.154 160.052 163.715 160.511 161.417 161.233C161.017 161.336 160.64 161.48 160.294 161.665C159.804 161.943 159.451 162.353 159.284 162.836C159.117 163.32 159.144 163.853 159.363 164.364C159.714 165.487 160.704 165.681 161.692 165.786C163.958 166.024 166.218 166.274 168.49 166.294C171.722 166.374 174.938 166.24 178.126 166.24C180.362 166.256 182.628 166.406 184.872 166.471C187.115 166.535 189.481 166.5 191.804 166.59C195.859 166.736 199.936 167.054 203.983 167.092C209.823 167.047 215.75 167.75 221.557 169.174C223.89 169.819 226.093 170.846 228.028 172.188C231.285 174.376 234.613 176.484 237.92 178.625C238.253 178.794 238.499 179.067 238.781 179.285C237.636 179.038 236.504 178.723 235.394 178.342C229.718 176.929 224.218 174.824 218.379 174.198C216.005 173.949 213.643 173.263 211.247 173.107C204.676 172.659 198.131 172.587 191.662 172.894C190.816 172.992 190.054 173.296 189.466 173.768C189.217 173.93 189.022 174.139 188.896 174.383C188.769 174.627 188.715 174.898 188.737 175.177C188.758 175.455 188.855 175.734 189.02 175.993C189.185 176.251 189.414 176.483 189.69 176.671C190.76 177.592 192.134 178.224 193.587 178.463C197.275 178.938 200.971 179.58 204.652 180.037C210.188 180.714 215.723 181.244 221.223 181.919C221.612 181.993 221.996 182.095 222.371 182.222C219.273 182.918 216.181 183.396 213.074 183.836C211.359 184.084 209.556 184.141 207.877 184.482C206.685 184.783 205.555 185.198 204.507 185.719C202.415 186.549 200.663 187.814 199.404 189.408C198.516 190.638 198.809 191.585 200.521 192.176C202.233 192.767 204.248 193.247 206.127 193.76C206.285 193.841 206.509 193.733 206.689 193.751C209.269 193.879 211.792 193.589 214.114 192.896C218.942 191.811 223.638 190.453 228.407 189.25C230.06 188.791 231.765 188.436 233.509 188.187C236.653 187.838 239.84 187.66 243.113 187.408C243.164 187.33 243.17 187.082 243.247 186.782C247.136 186.947 250.975 187.336 254.456 189.536C253.676 189.535 252.89 189.5 252.104 189.431C248.512 189.491 244.942 189.608 241.379 189.742C240.444 189.77 239.532 189.902 238.669 190.134C238.295 190.2 237.96 190.346 237.693 190.558C237.427 190.771 237.238 191.042 237.145 191.347C237.051 191.652 237.056 191.982 237.159 192.306C237.261 192.629 237.458 192.937 237.732 193.199C238.105 193.649 238.558 194.054 239.073 194.398C239.835 194.928 240.643 195.408 241.489 195.834C242.248 196.258 243.074 196.578 243.932 196.782C246.63 197.284 249.355 197.424 251.998 197.198C256.328 196.78 260.758 196.748 265.212 197.106C265.708 197.197 266.206 197.156 266.633 196.988C267.524 196.438 268.212 196.862 269.001 197.337C271.192 198.674 273.406 199.978 275.613 201.293C277.079 202.142 278.35 203.217 279.343 204.446C275.305 203.321 271.492 202.472 267.666 201.705C263.839 200.938 259.716 200.005 255.781 199.286C253.203 198.894 250.62 198.936 248.193 199.409C247.563 199.441 246.99 199.651 246.571 200.006C246.15 200.36 245.907 200.838 245.88 201.36C245.837 201.926 245.972 202.509 246.273 203.054C246.573 203.6 247.029 204.09 247.597 204.478C249.312 205.697 251.37 206.503 253.502 206.79C257.313 207.254 261.152 207.555 264.984 207.956C267.741 208.237 270.44 208.43 273.248 208.87C278.615 209.882 283.943 211.159 289.201 212.696C290.3 212.91 291.379 213.24 292.409 213.679C294.997 214.997 297.586 216.314 300.032 217.854C302.136 219.189 304.163 220.61 306.105 222.111C307.415 223.059 308.404 223.282 309.796 221.747C311.533 219.886 310.808 217.701 310.394 215.631L308.255 214.985C307.397 214.595 306.473 214.346 305.539 214.252C304.628 214.316 303.677 214.09 302.875 213.619C300.292 212.172 297.738 210.68 295.142 209.256C291.388 207.212 287.52 205.287 283.83 203.144C281.241 201.649 278.837 199.894 276.362 198.25C276.015 198.074 275.79 197.768 275.247 197.328L279.54 197.64C281.481 197.786 283.437 197.852 285.364 198.11C288.547 198.534 291.808 198.689 294.723 200.394C295.038 200.593 295.407 200.716 295.783 200.746C296.157 200.777 296.52 200.712 296.823 200.562C298.25 199.96 299.292 198.915 299.752 197.626C300.401 196.2 300.037 195.483 298.194 194.737C296.669 194.123 295.181 193.75 293.714 193.165C290.27 192.014 286.929 190.6 283.739 188.944C283.477 188.777 283.176 188.659 282.864 188.602C281.721 188.417 280.621 187.988 279.676 187.359C278.731 186.73 277.975 185.924 277.487 185.024C274.897 180.85 273.074 176.446 272.085 171.973C271.359 169.463 270.538 166.95 269.61 164.456C268.682 161.961 267.552 159.6 266.624 157.165C265.711 154.645 264.199 152.243 262.182 150.108C261.664 149.541 261.01 149.065 260.269 148.716C259.528 148.367 258.72 148.155 257.909 148.095C256.631 147.961 256.222 148.24 256.148 149.28C256.068 150.985 256.513 152.734 257.442 154.366C258.643 156.586 259.563 158.884 260.786 161.101C262.468 164.215 264.719 167.161 265.766 170.454C266.059 171.4 266.497 172.302 266.768 173.251L266.372 173.389C265.967 173.062 265.598 172.706 265.271 172.327C264.524 171.361 263.836 170.371 263.207 169.358C261.941 167.238 260.792 165.058 259.562 162.912C258.332 160.767 257.118 158.717 255.924 156.634C253.779 152.988 251.668 149.317 249.515 145.712C249.076 144.987 248.451 144.335 247.689 143.808C247.409 143.588 247.07 143.43 246.709 143.353C246.349 143.275 245.981 143.281 245.65 143.37C245.319 143.458 245.036 143.626 244.835 143.853C244.633 144.081 244.521 144.359 244.511 144.656C244.372 145.505 244.376 146.381 244.524 147.26C245.287 151.096 246.727 154.888 248.799 158.512C250.995 162.844 253.881 166.975 257.372 170.786C259.467 172.989 261.484 175.255 263.514 177.499C263.877 177.89 264.167 178.333 264.56 178.857C262.356 178.045 260.434 177.362 258.555 176.612C257.961 176.422 257.429 176.095 257.027 175.673C254.704 172.631 252.468 169.544 250.151 166.491C248.591 164.413 247.044 162.371 245.317 160.311C244.72 159.649 243.996 159.065 243.181 158.589C242.893 158.403 242.567 158.267 242.225 158.19C241.883 158.114 241.535 158.098 241.204 158.145C240.873 158.192 240.568 158.301 240.311 158.463C240.053 158.625 239.849 158.836 239.714 159.083C239.357 159.577 239.172 160.156 239.177 160.764C239.183 161.371 239.378 161.987 239.745 162.552C241.023 164.324 242.229 166.119 243.45 167.921C243.85 168.584 244.21 169.26 244.528 169.945C243.09 169.442 241.783 168.665 240.723 167.684C238.286 165.27 235.033 163.505 231.487 162.673C230.738 161.391 229.973 160.014 229.173 158.662C227.604 156.274 226.343 153.78 225.414 151.229C224.952 149.68 224.281 148.158 223.697 146.621C222.87 144.385 221.85 142.153 221.254 139.887C220.736 137.927 219.646 136.043 218.082 134.406C217.814 134.057 217.434 133.769 216.993 133.579C216.552 133.388 216.068 133.303 215.603 133.336C214.559 133.495 213.644 133.931 212.991 134.581C212.337 135.232 211.977 136.064 211.963 136.959C212.238 138.405 212.66 139.844 213.225 141.261C213.956 143.109 214.78 144.812 215.683 146.63C215.152 146.238 214.724 145.762 214.428 145.239C212.389 141.248 210.328 137.322 208.267 133.366C206.701 130.34 205.121 127.337 203.462 124.308C203.034 123.585 202.424 122.931 201.678 122.396C201.438 122.2 201.147 122.053 200.834 121.97C200.522 121.887 200.198 121.871 199.896 121.923C199.595 121.976 199.325 122.095 199.114 122.269C198.903 122.443 198.758 122.665 198.694 122.914C198.528 123.289 198.461 123.696 198.498 124.113C198.563 125.457 198.726 126.807 198.987 128.155C200.122 132.824 202.096 137.411 204.839 141.759C207.711 146.424 211.303 150.835 214.622 155.343C215.639 156.746 216.822 158.16 217.917 159.559C216.515 158.721 215.182 157.801 213.93 156.806C213.032 156.143 212.005 155.59 211.172 154.886C208.014 152.216 204.92 149.475 201.762 146.806C199.811 145.427 198.28 143.685 197.33 141.76C197.056 141.223 196.722 140.702 196.334 140.205C195.62 139.233 194.983 138.228 194.429 137.199C194.103 136.346 193.857 135.481 193.695 134.611C193.32 133.597 193.012 132.573 192.771 131.544C192.169 127.917 191.676 124.301 191.102 120.659C191.043 120.407 190.967 120.156 190.875 119.908C190.374 117.705 189.663 115.469 189.399 113.254C189.19 110.405 188.373 107.545 186.984 104.808C186.25 103.563 185.825 102.196 185.162 100.929C184.718 100.038 184.136 99.1821 183.62 98.3138C183.158 97.6126 182.472 97.014 181.646 96.5936C180.82 96.1732 179.891 95.9496 178.977 95.9507C178.191 95.8603 177.672 96.0393 177.726 96.7899C177.722 97.1452 177.582 97.4762 177.327 97.7376C176.684 98.4593 176.446 99.3977 176.662 100.351C176.766 101.024 176.87 101.697 177.047 102.377C177.669 105.585 178.73 108.77 180.21 111.868C182.838 116.469 184.788 121.255 186.015 126.113C185.885 126.135 185.741 126.15 185.604 126.184C184.555 124.056 183.441 121.939 182.442 119.793C181.232 117.199 180.165 114.561 178.962 111.956C178 109.842 176.98 107.759 175.931 105.661C174.112 101.536 171.909 97.4976 169.343 93.5853C168.5 92.4187 167.687 91.2669 166.758 90.115C166.331 89.6219 165.744 89.232 165.079 88.9992C164.414 88.7664 163.703 88.7019 163.044 88.8151C162.428 89.0189 161.915 89.3678 161.561 89.8231C161.206 90.2782 161.026 90.8223 161.037 91.3947C161.127 92.7884 161.417 94.1893 161.902 95.5683C163.442 99.046 165.459 102.411 167.909 105.592C170.597 109.321 173.371 113.035 176.043 116.816C178.055 119.656 179.945 122.507 181.727 125.406C184.26 129.263 187.074 133.012 190.149 136.629C190.504 137.119 190.82 137.625 191.094 138.143C190.807 137.988 190.533 137.815 190.277 137.624C186.904 133.915 182.677 131.026 178.745 127.829C176.377 125.9 174.008 123.942 171.805 121.905C168.946 119.016 166.629 115.812 164.949 112.424C163.559 109.872 162.089 107.323 160.757 104.741C159.34 102.238 158.246 99.6467 157.494 97.0146C156.876 94.427 156.026 91.84 155.393 89.2742C155.266 88.7323 154.986 88.2068 154.577 87.7421C154.168 87.2773 153.642 86.8866 153.043 86.6023C152.724 86.4055 152.347 86.2988 151.974 86.3004C151.601 86.3019 151.257 86.4118 151.002 86.6112C150.108 87.102 149.424 87.8021 149.021 88.6367C148.619 89.4713 148.514 90.4094 148.717 91.3518C149.179 93.6359 149.783 95.9136 150.525 98.1752C151.093 99.517 151.755 100.84 152.507 102.135C153.016 103.222 153.498 104.323 153.994 105.431C154.086 105.68 154.162 105.93 154.221 106.182C153.672 105.943 153.185 105.604 152.803 105.194C150.338 102.611 147.987 99.9385 145.4 97.456C143.211 95.3379 141.238 93.0056 138.208 91.567C137.712 91.3003 137.28 90.9546 136.941 90.5525C135.978 89.5685 135.306 88.4285 134.984 87.2401C134.221 84.7817 133.886 82.289 133.989 79.8408C134.076 78.631 134.431 77.4538 134.648 76.251C134.833 74.5787 135.444 73 136.444 71.6155C136.675 71.2737 136.865 70.9105 137.008 70.5304C137.922 68.6636 138.8 66.7639 139.779 64.9156C141.373 61.9044 143.516 59.1138 144.618 55.8818C144.79 55.3564 144.879 54.807 144.884 54.2463C144.908 53.3732 144.861 52.4929 144.792 51.6166C144.761 50.7956 144.65 49.9694 144.462 49.1465C144.409 48.9118 144.292 48.6835 144.12 48.4798C143.948 48.2763 143.726 48.1026 143.471 47.9728C143.216 47.8429 142.934 47.7602 142.65 47.7316C142.365 47.7027 142.085 47.7285 141.83 47.8066C140.269 47.9735 138.839 48.4839 137.685 49.2871C136.531 50.0905 135.692 51.1583 135.253 52.3842C134.783 53.6208 134.413 54.9088 133.871 56.1086C131.743 60.843 130.271 65.8183 129.48 70.9488C129.305 72.1143 129.224 73.313 129.115 74.497C128.706 74.0561 128.404 73.5602 128.228 73.0418C126.827 68.9073 125.96 64.7149 125.641 60.5386C125.486 58.1201 125.125 55.6922 124.56 53.2729C123.65 50.3012 122.64 47.3076 121.926 44.3615C121.422 42.9301 120.522 41.5765 119.303 40.4138C119.183 40.261 119.024 40.1294 118.839 40.0299C118.654 39.9302 118.449 39.8657 118.24 39.8413C118.03 39.8169 117.824 39.8335 117.636 39.8897C117.448 39.9456 117.285 40.0399 117.159 40.1641C115.198 41.8668 113.295 43.6286 113.815 46.4312C113.951 47.2086 114.172 47.9831 114.475 48.745C115.643 51.5236 116.948 54.2687 118.007 57.0659C118.628 58.9343 119.115 60.8182 119.463 62.707C120.855 67.7643 122.995 72.7361 125.833 77.5051C126.408 78.58 126.955 79.6403 127.58 80.7556C126.082 79.8312 124.74 78.7349 123.604 77.5069C121.232 74.8616 119.419 71.9375 118.253 68.8798C117.543 67.1047 117.008 65.3022 116.654 63.4908C116.401 62.0636 115.594 60.6342 115.168 59.2074C114.501 56.9936 114.007 54.779 113.354 52.5724C112.437 49.4935 111.564 46.4072 110.452 43.3325C109.208 39.7476 107.762 36.2077 106.338 32.664C105.564 30.6759 104.501 28.6886 103.719 26.6524C102.799 24.2026 101.382 21.8523 99.5302 19.7091C98.6955 18.785 97.7421 17.9331 96.6901 17.1714C96.2465 16.8666 95.7167 16.6705 95.1721 16.6097C94.6275 16.5489 94.0943 16.6263 93.6444 16.8314ZM266.443 189.173C264.83 186.994 263.175 184.824 261.57 182.634C261.414 182.309 261.32 181.972 261.291 181.636C262.13 181.945 262.765 182.15 263.387 182.407C264.079 182.723 264.755 183.067 265.412 183.438L280.507 191.785C280.206 191.808 279.899 191.805 279.591 191.777C275.823 191.246 272.077 190.682 268.323 190.189C267.949 190.161 267.579 190.052 267.248 189.873C266.918 189.695 266.64 189.453 266.443 189.173Z" fill="white"/>
<path d="M98.2285 76.2058C98.8283 76.3783 99.4492 76.4877 99.7486 77.1562C98.8989 77.5505 98.0963 77.0979 97.3807 76.8666C94.3761 76.0327 91.4539 74.9268 88.6729 73.5704C87.8656 73.1986 87.0018 72.9441 86.1227 72.8187C84.5736 72.4767 83.0816 71.898 81.7288 71.1131C81.02 70.7527 80.1523 70.3109 80.4289 69.3746C81.6727 70.0077 82.8009 70.5814 83.9435 71.163C84.6285 71.4815 85.3538 71.7212 86.0965 71.8754C88.8695 72.4898 91.2713 73.9192 93.8729 74.8596C95.318 75.3588 96.7843 75.7657 98.2285 76.2058ZM43.2878 85.4176C39.4448 84.3179 35.6303 83.1144 31.7873 81.9846C29.6491 81.3686 27.4969 80.8342 25.3732 80.1955C24.2969 79.8989 23.2276 79.5614 22.1585 79.2234C21.6646 79.9904 22.2072 80.3407 22.8865 80.5679C23.8475 80.8947 24.8012 81.2328 25.7835 81.4967C28.2972 82.1855 30.8105 82.8154 33.324 83.5048C36.8704 84.4688 40.4099 85.473 43.9636 86.4557C45.1193 86.7784 46.3109 87.0449 47.4594 87.3789C50.0022 88.1419 52.5452 88.9344 55.1023 89.6753C55.616 89.7665 56.1338 89.7963 56.6392 89.7637L56.6951 89.4084C55.385 88.8512 54.0486 88.3487 52.6916 87.902C49.5713 87.0516 46.4082 86.2975 43.2878 85.4176ZM96.6901 17.1712C97.7472 17.9212 98.7077 18.7619 99.5517 19.6755C101.4 21.8305 102.811 24.1923 103.719 26.6522C104.501 28.6884 105.564 30.6757 106.375 32.6971C107.799 36.2407 109.237 39.7918 110.481 43.3766C111.578 46.4439 112.466 49.5376 113.383 52.6166C114.036 54.8231 114.53 57.0375 115.197 59.2515C115.623 60.6783 116.431 62.1078 116.683 63.5349C117.038 65.3463 117.572 67.1488 118.282 68.9239C119.448 71.9816 121.262 74.9057 123.633 77.551C124.752 78.738 126.063 79.7987 127.522 80.6964C126.969 79.6178 126.422 78.5575 125.775 77.4458C122.963 72.6939 120.842 67.7422 119.463 62.7068C119.056 60.799 118.51 58.8992 117.827 57.0183C116.767 54.2208 115.462 51.4758 114.294 48.697C113.992 47.9354 113.77 47.1607 113.634 46.3833C113.115 43.5807 115.018 41.8191 116.979 40.1163C117.104 39.9919 117.268 39.8979 117.455 39.8418C117.643 39.7856 117.85 39.769 118.059 39.7934C118.268 39.8178 118.474 39.8825 118.659 39.982C118.843 40.0815 119.002 40.2132 119.122 40.366C120.344 41.5129 121.253 42.8506 121.774 44.2692C122.546 47.2448 123.499 50.2091 124.408 53.1806C124.973 55.5998 125.334 58.0277 125.489 60.4462C125.815 64.6442 126.695 68.8581 128.112 73.0124C128.288 73.5308 128.59 74.0264 129 74.4676C129.109 73.2836 129.189 72.0848 129.364 70.9193C130.159 65.7765 131.639 60.7899 133.777 56.0458C134.32 54.846 134.689 53.558 135.158 52.3211C135.598 51.0954 136.436 50.0275 137.591 49.2243C138.745 48.4211 140.174 47.9105 141.736 47.7439C141.99 47.6655 142.271 47.6399 142.556 47.6685C142.84 47.6974 143.121 47.7799 143.377 47.9099C143.632 48.0398 143.854 48.2133 144.026 48.417C144.198 48.6207 144.315 48.849 144.368 49.0837C144.556 49.9067 144.666 50.7326 144.698 51.5538C144.767 52.4302 144.815 53.3104 144.79 54.1833C144.785 54.7442 144.695 55.2934 144.524 55.8191C143.422 59.0509 141.279 61.8416 139.685 64.8528C138.706 66.7011 137.828 68.6008 136.914 70.4673C136.771 70.8477 136.581 71.2109 136.35 71.5527C135.331 72.9652 134.718 74.5792 134.548 76.2881C134.33 77.4907 133.975 78.6679 133.887 79.8777C133.785 82.3259 134.12 84.8183 134.883 87.2767C135.205 88.4657 135.878 89.6053 136.84 90.5899C137.179 90.9917 137.611 91.3376 138.107 91.6036C141.137 93.0422 143.11 95.3751 145.299 97.4927C147.887 99.9759 150.237 102.648 152.702 105.231C153.084 105.641 153.571 105.98 154.121 106.219C154.061 105.967 153.985 105.716 153.894 105.469C153.397 104.36 152.916 103.259 152.405 102.173C151.654 100.877 150.993 99.5544 150.424 98.2124C149.682 95.9502 149.079 93.6727 148.616 91.3884C148.413 90.4466 148.519 89.5081 148.921 88.6735C149.323 87.8388 150.007 87.1392 150.901 86.6483C151.157 86.449 151.501 86.339 151.873 86.3374C152.246 86.3358 152.624 86.4426 152.942 86.6395C153.541 86.9235 154.068 87.3144 154.476 87.7791C154.885 88.2439 155.165 88.7692 155.292 89.3114C155.911 91.8993 156.761 94.4863 157.394 97.052C158.145 99.6833 159.239 102.275 160.656 104.778C162.032 107.294 163.559 109.872 164.949 112.424C166.634 115.815 168.955 119.021 171.82 121.913C174.008 123.971 176.391 125.907 178.759 127.836C182.692 131.033 186.962 133.944 190.291 137.631C190.548 137.822 190.821 137.995 191.109 138.151C190.835 137.632 190.519 137.126 190.164 136.636C187.088 133.019 184.275 129.27 181.741 125.413C179.959 122.514 178.041 119.648 176.058 116.824C173.428 113.065 170.654 109.35 167.924 105.599C165.468 102.416 163.446 99.0487 161.902 95.5681C161.417 94.1892 161.127 92.7883 161.037 91.3945C161.026 90.8221 161.206 90.2781 161.561 89.8229C161.915 89.3675 162.428 89.0187 163.044 88.8148C163.703 88.7017 164.414 88.7662 165.079 88.999C165.744 89.2318 166.331 89.6218 166.758 90.1148C167.716 91.2222 168.472 92.463 169.343 93.5851C171.909 97.4974 174.112 101.536 175.931 105.661C176.98 107.759 178 109.842 178.962 111.955C180.165 114.56 181.232 117.199 182.442 119.793C183.441 121.939 184.555 124.056 185.604 126.184C185.741 126.15 185.885 126.135 186.015 126.112C184.788 121.255 182.838 116.469 180.21 111.867C178.67 108.783 177.546 105.606 176.86 102.399C176.683 101.719 176.579 101.046 176.475 100.373C176.258 99.4202 176.497 98.482 177.14 97.7603C177.394 97.4987 177.534 97.1677 177.539 96.8121C177.499 96.0392 178.017 95.8604 178.79 95.9731C179.704 95.9719 180.632 96.1956 181.458 96.616C182.284 97.0364 182.971 97.6351 183.432 98.3363C183.949 99.204 184.53 100.061 184.974 100.951C185.623 102.24 186.048 103.608 186.797 104.83C188.186 107.568 189.004 110.427 189.211 113.277C189.569 115.495 190.207 117.694 190.687 119.931C190.78 120.179 190.856 120.429 190.914 120.681C191.473 124.316 191.996 127.947 192.584 131.567C192.825 132.595 193.133 133.619 193.508 134.634C193.67 135.503 193.915 136.368 194.242 137.222C194.796 138.251 195.432 139.255 196.146 140.228C196.554 140.723 196.907 141.243 197.2 141.782C198.151 143.707 199.681 145.449 201.632 146.828C204.791 149.498 207.884 152.238 211.042 154.908C211.875 155.612 212.902 156.165 213.8 156.829C215.052 157.823 216.385 158.743 217.788 159.582C216.749 158.212 215.552 156.79 214.492 155.366C211.174 150.858 207.581 146.446 204.709 141.782C201.966 137.433 199.992 132.846 198.857 128.177C198.596 126.829 198.433 125.479 198.369 124.136C198.332 123.719 198.398 123.311 198.564 122.936C198.629 122.688 198.773 122.465 198.985 122.291C199.196 122.117 199.465 121.998 199.767 121.946C200.069 121.893 200.392 121.91 200.705 121.993C201.017 122.075 201.308 122.222 201.548 122.419C202.294 122.954 202.904 123.607 203.332 124.33C205.006 127.337 206.55 130.395 208.138 133.388C210.176 137.378 212.201 141.36 214.298 145.261C214.594 145.784 215.023 146.261 215.553 146.652C214.766 144.893 213.812 143.094 213.095 141.283C212.53 139.866 212.108 138.428 211.834 136.981C211.848 136.086 212.208 135.254 212.862 134.604C213.515 133.953 214.429 133.517 215.473 133.358C215.938 133.326 216.422 133.41 216.863 133.601C217.304 133.791 217.684 134.079 217.952 134.428C219.517 136.065 220.606 137.949 221.125 139.91C221.72 142.176 222.741 144.407 223.567 146.643C224.152 148.18 224.823 149.702 225.285 151.251C226.214 153.803 227.474 156.296 229.043 158.684C229.843 160.035 230.608 161.414 231.357 162.695C234.904 163.527 238.156 165.292 240.593 167.706C241.653 168.687 242.96 169.464 244.398 169.967C244.08 169.282 243.72 168.606 243.321 167.943C242.1 166.141 240.894 164.347 239.615 162.575C239.23 161.999 239.024 161.368 239.017 160.745C239.01 160.123 239.203 159.53 239.576 159.027C239.712 158.781 239.916 158.569 240.174 158.407C240.431 158.245 240.736 158.137 241.067 158.09C241.397 158.043 241.746 158.058 242.087 158.135C242.429 158.212 242.755 158.348 243.044 158.534C243.859 159.01 244.583 159.593 245.18 160.256C246.849 162.286 248.453 164.357 250.015 166.436C252.331 169.489 254.567 172.575 256.891 175.617C257.292 176.04 257.824 176.367 258.417 176.557C260.296 177.307 262.218 177.99 264.423 178.802C264.002 178.263 263.711 177.82 263.377 177.443C261.346 175.199 259.33 172.933 257.234 170.73C253.743 166.92 250.858 162.789 248.662 158.457C246.59 154.833 245.149 151.04 244.387 147.204C244.238 146.326 244.234 145.45 244.374 144.6C244.384 144.304 244.496 144.025 244.697 143.797C244.899 143.57 245.181 143.402 245.513 143.314C245.845 143.225 246.212 143.22 246.572 143.297C246.933 143.375 247.272 143.533 247.551 143.753C248.314 144.28 248.939 144.932 249.378 145.657C251.589 149.291 253.698 152.963 255.787 156.578C257.009 158.676 258.245 160.782 259.425 162.857C260.603 164.933 261.812 167.171 263.07 169.303C263.698 170.315 264.387 171.306 265.133 172.272C265.46 172.651 265.83 173.007 266.235 173.334L266.631 173.196C266.287 172.269 265.901 171.349 265.629 170.399C264.581 167.105 262.33 164.159 260.649 161.046C259.441 158.837 258.52 156.538 257.305 154.311C256.375 152.678 255.93 150.929 256.01 149.224C256.085 148.184 256.494 147.907 257.772 148.04C258.584 148.099 259.391 148.312 260.132 148.661C260.873 149.01 261.527 149.486 262.045 150.053C264.03 152.185 265.515 154.578 266.407 157.084C267.35 159.527 268.502 161.943 269.394 164.375C270.285 166.806 271.265 169.489 272.085 171.973C273.111 176.432 274.966 180.817 277.581 184.968C278.069 185.868 278.824 186.674 279.77 187.303C280.715 187.932 281.815 188.361 282.958 188.546C283.27 188.603 283.57 188.72 283.833 188.888C287.023 190.544 290.364 191.958 293.808 193.109C295.333 193.723 296.82 194.097 298.287 194.681C300.13 195.428 300.495 196.144 299.846 197.57C299.386 198.859 298.344 199.904 296.917 200.507C296.614 200.656 296.251 200.72 295.876 200.69C295.501 200.66 295.132 200.538 294.817 200.338C291.901 198.633 288.641 198.478 285.457 198.054C283.53 197.796 281.575 197.73 279.634 197.584L275.34 197.273C275.883 197.711 276.138 197.974 276.456 198.195C278.931 199.838 281.334 201.592 283.924 203.088C287.613 205.231 291.482 207.156 295.235 209.199C297.832 210.625 300.385 212.116 302.968 213.563C303.375 213.833 303.833 214.039 304.315 214.171C304.797 214.302 305.294 214.356 305.777 214.329C306.711 214.423 307.636 214.672 308.494 215.062L310.632 215.708C311.046 217.779 311.742 219.948 310.035 221.824C308.678 223.303 307.639 223.128 306.343 222.188C304.402 220.687 302.374 219.266 300.27 217.931C297.803 216.424 295.235 215.073 292.647 213.756C291.618 213.317 290.539 212.986 289.439 212.773C284.113 211.208 278.716 209.91 273.277 208.885C270.527 208.474 267.77 208.251 265.014 207.97C261.217 207.514 257.356 207.246 253.531 206.804C251.376 206.518 249.295 205.701 247.569 204.463C247 204.075 246.544 203.585 246.244 203.039C245.943 202.494 245.808 201.911 245.851 201.346C245.878 200.823 246.122 200.345 246.541 199.991C246.961 199.637 247.533 199.426 248.164 199.394C250.591 198.921 253.174 198.879 255.752 199.271C259.745 200.02 263.716 200.919 267.637 201.69C271.557 202.461 275.291 203.313 279.314 204.431C278.321 203.202 277.05 202.127 275.584 201.278C273.377 199.963 271.164 198.659 268.971 197.322C268.147 196.902 267.496 196.424 266.604 196.973C266.177 197.141 265.679 197.182 265.184 197.091C260.738 196.74 256.318 196.776 251.998 197.198C249.363 197.416 246.649 197.271 243.961 196.767C243.104 196.563 242.277 196.243 241.518 195.819C240.672 195.393 239.864 194.913 239.101 194.383C238.587 194.039 238.134 193.634 237.761 193.184C237.487 192.922 237.29 192.614 237.188 192.291C237.085 191.967 237.08 191.637 237.173 191.332C237.267 191.027 237.455 190.755 237.722 190.543C237.989 190.332 238.324 190.185 238.698 190.119C239.572 189.886 240.496 189.755 241.444 189.731C245.007 189.596 248.577 189.48 252.169 189.419C252.955 189.488 253.741 189.523 254.521 189.524C251.026 187.347 247.187 186.957 243.312 186.771C243.234 187.07 243.2 187.304 243.178 187.396C239.905 187.649 236.718 187.827 233.574 188.175C231.83 188.424 230.125 188.78 228.472 189.238C223.703 190.441 219.007 191.8 214.179 192.884C211.857 193.578 209.334 193.868 206.754 193.739C206.574 193.721 206.372 193.796 206.191 193.748C204.313 193.235 202.407 192.796 200.586 192.164C198.765 191.532 198.588 190.675 199.404 189.408C200.664 187.805 202.42 186.53 204.522 185.696C205.57 185.176 206.7 184.761 207.891 184.46C209.571 184.119 211.373 184.062 213.089 183.814C216.196 183.373 219.288 182.896 222.386 182.2C222.01 182.073 221.626 181.971 221.238 181.896C215.709 181.266 210.196 180.703 204.666 180.014C200.957 179.602 197.289 178.915 193.601 178.441C192.148 178.201 190.775 177.57 189.704 176.649C189.432 176.462 189.207 176.233 189.043 175.976C188.88 175.72 188.784 175.445 188.761 175.17C188.739 174.894 188.79 174.625 188.912 174.383C189.034 174.14 189.223 173.931 189.466 173.768C190.054 173.296 190.816 172.992 191.662 172.893C198.131 172.587 204.676 172.659 211.247 173.107C213.614 173.308 216.005 173.949 218.379 174.198C224.218 174.823 229.746 176.885 235.394 178.342C236.504 178.723 237.636 179.038 238.782 179.285C238.499 179.067 238.232 178.827 237.92 178.625C234.613 176.484 231.285 174.376 228.028 172.188C226.094 170.845 223.89 169.819 221.557 169.174C215.75 167.75 209.823 167.047 203.983 167.092C199.936 167.054 195.859 166.735 191.804 166.59C189.481 166.5 187.181 166.524 184.872 166.47C182.563 166.417 180.362 166.256 178.126 166.24C174.88 166.211 171.663 166.345 168.49 166.294C166.239 166.24 163.979 165.991 161.692 165.785C160.704 165.681 159.714 165.487 159.363 164.363C159.144 163.853 159.117 163.319 159.284 162.836C159.451 162.352 159.804 161.943 160.295 161.665C160.64 161.48 161.017 161.336 161.417 161.233C163.715 160.511 166.154 160.052 168.675 159.865C171.508 159.698 174.261 159.24 177.096 159.133C179.93 159.026 182.909 159.052 185.867 159.17C189.099 159.339 192.404 159.545 195.637 159.804C197.033 159.94 198.424 159.95 199.785 159.834C198.622 159.493 197.459 159.181 196.303 158.829C192.236 157.599 188.094 156.64 183.918 155.964C180.839 155.443 177.739 155.244 174.697 155.374C171.177 155.501 167.621 155.447 164.057 155.286C161.516 155.348 158.925 155.029 156.407 154.343C154.837 153.836 153.327 153.177 151.91 152.379C151.409 152.099 150.992 151.722 150.7 151.288C150.408 150.853 150.253 150.377 150.251 149.907C150.248 149.437 150.399 148.99 150.687 148.613C150.974 148.237 151.389 147.943 151.887 147.763C152.594 147.503 153.352 147.328 154.142 147.244C155.707 147.021 157.278 146.847 158.857 146.692C160.552 146.488 162.32 146.556 164.066 146.893C166.854 147.485 169.683 147.892 172.513 148.24C177.249 148.997 181.95 150.076 186.565 151.467C188.768 152.072 190.893 152.947 193.089 153.622C194.115 153.937 195.197 154.016 196.252 154.287C198.65 154.917 201.033 155.6 203.432 156.259C203.6 156.287 203.769 156.304 203.937 156.31C203.987 156.232 203.95 156.14 203.922 156.125C200.378 154.321 197.501 151.691 193.735 150.143C192.144 149.372 190.623 148.489 189.193 147.506C188.064 146.843 186.928 146.162 185.764 145.554C182.741 144.016 179.704 142.47 176.682 140.931C173.659 139.393 170.146 137.841 166.921 136.229C164.681 134.958 162.301 133.89 159.828 133.047C159.28 132.883 158.723 132.752 158.16 132.656C156.237 132.293 154.305 132.009 152.371 131.804C148.554 131.5 144.693 131.232 140.842 131.249C137.11 131.262 133.451 131.655 129.949 132.42C126.649 133.185 123.437 134.128 120.332 135.244C117.366 136.243 114.173 136.905 111.062 137.713C109.556 138.112 108.123 138.578 106.624 138.937C104.786 139.374 104.36 139.261 103.027 137.873C102.434 137.39 101.958 136.819 101.631 136.199C101.305 135.581 101.135 134.927 101.133 134.283C101.136 133.505 101.488 132.791 102.119 132.275C104.435 130.317 107.535 129.091 110.981 128.772C113.872 128.576 116.765 128.499 119.723 128.528C122.68 128.558 125.758 128.103 128.685 127.851C130.697 127.709 132.687 127.601 134.685 127.481L137.28 127.326C135.941 126.843 134.518 126.625 133.137 126.693C131.016 126.617 128.918 126.745 126.805 126.746C123.327 126.748 119.822 126.704 116.345 126.706C113.178 126.703 110.012 126.7 106.867 126.781C105.824 126.831 104.819 127.022 103.891 127.348C102.66 127.769 101.507 128.068 100.196 127.12C99.5618 126.621 99.1252 125.979 98.9566 125.298C98.7886 124.618 98.8983 123.939 99.2692 123.372C99.5635 122.832 99.9627 122.343 100.452 121.922C101.918 120.668 103.726 119.715 105.76 119.124C107.794 118.533 110.01 118.317 112.265 118.49C114.069 118.67 115.786 118.658 117.533 118.839C119.287 119.014 121.039 119.28 122.78 119.636C127.575 120.6 132.327 121.72 137.106 122.766C137.665 122.903 138.237 122.964 138.796 122.947C135.811 121.797 132.798 120.691 129.841 119.467C127.261 118.404 124.752 117.201 122.179 116.098C118.752 114.619 115.355 113.067 111.849 111.77C109.107 110.656 106.096 110.33 103.341 110.849C100.883 111.354 98.2365 111.467 95.8887 112.162C90.5459 113.805 85.6003 116.086 81.1924 118.938C79.3808 120.082 77.6846 121.403 76.0464 122.694C75.9892 122.783 75.8157 122.784 75.7584 122.873C74.327 125.096 71.4954 125.735 68.8665 126.537C67.2606 127.086 65.5049 127.364 63.6914 127.357C62.5306 127.327 61.3601 127.066 60.2792 126.596C59.1984 126.125 58.2389 125.459 57.4819 124.654C57.3685 124.572 57.2737 124.473 57.2027 124.365C57.1318 124.256 57.0863 124.14 57.0689 124.023C57.0516 123.905 57.0627 123.788 57.1015 123.681C57.1405 123.572 57.2063 123.475 57.2954 123.392C57.5956 122.977 58.028 122.644 58.553 122.424C59.9176 122.064 61.1997 121.556 62.3684 120.913C66.6335 118.925 70.6661 116.651 74.4315 114.11C78.0911 111.591 82.2763 109.609 86.8383 108.234C87.2317 108.113 87.5387 107.87 87.7004 107.551C87.2855 107.519 86.8739 107.527 86.4741 107.576C83.0305 108.451 79.6013 109.303 76.151 110.277C73.7455 111.03 71.4065 112.098 68.9432 112.821C66.3945 113.552 63.7769 114.151 61.1041 114.616C58.0298 115.202 54.7845 115.314 51.5193 114.948C48.6783 114.694 45.882 113.783 43.4563 112.32C42.4794 111.69 41.596 110.974 41.836 109.916C41.9374 109.446 42.2034 109.028 42.6029 108.708C43.0024 108.389 43.5189 108.182 44.092 108.113L55.8543 106.159L69.2166 103.899C70.5283 103.681 71.8329 103.474 73.1228 103.231L82.5995 101.368C82.0004 101.214 81.3952 101.088 80.7865 100.992C75.762 100.257 70.7246 100.06 65.802 100.404C59.4571 100.983 53.0681 101.391 46.6867 101.818C43.1893 102.06 39.6261 102.076 36.187 102.377C33.9447 102.645 31.6136 102.582 29.2973 102.191C26.772 101.746 24.3663 100.716 22.3724 99.2269C21.8346 98.8321 21.4097 98.3439 21.137 97.8066C20.8644 97.2692 20.753 96.7001 20.8128 96.1523C20.8727 95.6046 21.1019 95.096 21.4797 94.6726C21.8571 94.2497 22.3707 93.9266 22.973 93.7322C26.5937 92.4543 30.6003 91.8632 34.7291 91.9976C38.243 92.2069 41.5756 92.2209 44.8515 92.4417C48.7914 92.7351 52.7396 93.254 56.6945 93.6732L62.5328 94.2394L62.596 93.8728C62.1181 93.7102 61.6335 93.567 61.144 93.4438C58.046 92.7379 54.9479 92.0319 51.8359 91.3776C45.4311 90.0213 39.0124 88.7762 32.6144 87.3497C28.9677 86.5416 25.3276 85.6037 21.7374 84.5288C19.8757 83.8894 18.3016 82.7 17.3519 81.2155C16.4022 79.731 16.1525 78.0688 16.6562 76.5854C17.0405 75.933 17.6317 75.3933 18.375 75.0159C19.1186 74.6379 19.99 74.4351 20.9085 74.4258C21.5937 74.4728 22.2799 74.5888 22.9517 74.7716C27.2966 76.0534 31.5848 77.5168 35.7983 79.156C39.4775 80.7188 43.2423 82.0594 47.0142 83.3887C50.7859 84.7185 55.0044 85.8911 58.9004 87.5348C63.2228 89.3515 67.7786 90.2093 72.1432 91.7812C73.5217 92.208 74.9207 92.5655 76.3321 92.8507C76.4004 92.7576 76.4624 92.6614 76.5183 92.5616C75.9108 92.2526 75.289 91.9358 74.6384 91.6938L63.3917 87.0317C59.2283 85.2964 55.0363 83.6054 50.9159 81.8033C46.4258 79.9932 42.1892 77.6977 38.3313 74.9846C37.4268 74.3259 36.7363 73.4906 36.34 72.5753C35.9436 71.6605 35.8573 70.7037 36.0914 69.8155C36.2351 69.1511 36.6969 68.5921 37.3786 68.2576C38.06 67.9237 38.9071 67.8411 39.7397 68.0268C41.3306 68.5062 42.8968 69.0616 44.4293 69.6909C45.6217 70.1353 46.7427 70.7504 47.9562 71.1025C52.2834 72.4047 56.0173 74.8066 60.1372 76.4903C64.2571 78.174 68.3519 80.6719 72.4449 82.7551C75.2759 84.1697 77.9883 85.7624 80.5543 87.5175C82.6675 88.9177 84.6662 90.4659 86.6859 91.9811C89.2777 93.9204 91.6542 95.9856 94.3242 97.7729C96.7521 99.5041 99.3297 101.078 102.029 102.477C103.902 103.604 105.993 104.421 108.166 104.877C108.781 105.037 109.371 105.282 109.908 105.601C110.619 106 111.395 106.299 112.199 106.487C111.46 105.875 110.728 105.252 109.968 104.673C106.645 102.11 103.372 99.5296 99.9688 97.0599C95.4838 93.5168 90.7673 90.185 85.8465 87.0824C83.4017 85.661 80.7703 84.4986 78.2394 83.2103C77.2848 82.7243 76.3662 82.1827 75.3898 81.6713C74.981 81.4862 74.6451 81.1973 74.4394 80.8532C74.2339 80.5091 74.1714 80.1309 74.2624 79.7842C74.333 79.4057 74.5271 79.062 74.8248 78.7882C75.1223 78.515 75.513 78.3209 75.9572 78.2259C76.1231 78.1753 76.3053 78.157 76.4906 78.1728C79.2051 78.6394 82.0249 78.5251 84.5568 79.9907C85.9604 80.7938 87.3626 81.4194 88.7084 82.2224C89.6735 82.8047 90.5149 83.5236 91.1852 84.3389C92.208 85.3476 93.3548 86.268 94.604 87.0822L105.833 95.5287C107.795 97.014 109.85 98.4147 111.712 99.9965C113.856 101.796 115.792 103.77 117.878 105.599C119.248 106.813 120.732 107.908 122.158 109.062C122.73 109.516 123.252 110.018 123.846 110.438C125.489 111.643 127.183 112.8 128.826 114.006C131.948 116.071 135.258 117.919 138.714 119.526C137.654 118.46 136.426 117.512 135.071 116.712C133.783 115.731 132.422 114.862 131.141 113.87C128.901 112.14 126.69 110.385 124.507 108.605C123.508 107.801 122.588 106.934 121.639 106.082C118.936 103.659 116.262 101.221 113.538 98.8306C110.978 96.5436 108.718 94.046 106.808 91.3906C105.501 89.6034 106.572 88.7759 107.771 87.6299C108.711 86.7364 110.075 86.8843 111.696 87.8272C113.833 89.14 115.764 90.6798 117.431 92.3992L125.121 99.8704C125.411 99.7187 125.683 99.5462 125.933 99.354C126.153 99.0689 126.493 98.8658 126.898 98.7777C127.304 98.6891 127.75 98.7211 128.167 98.8674C130.359 99.5117 132.519 100.261 134.634 101.111C139.158 103.147 143.395 105.662 147.222 108.581C149.305 110.018 151.464 111.373 153.691 112.641C153.769 112.519 153.761 112.352 153.725 112.319C149.092 109.017 144.489 105.788 139.841 102.389C138.172 101.049 136.585 99.6402 135.088 98.1693C134.589 97.7234 134.146 97.2471 133.682 96.7749C133.193 96.3614 132.819 95.8686 132.588 95.3383C132.358 94.8075 132.281 94.2552 132.362 93.7265C132.424 93.4306 132.378 93.1148 132.228 92.8179C132.078 92.5215 131.83 92.2569 131.517 92.0567C129.548 90.5394 127.271 89.3351 124.827 88.5194C120.672 86.9502 116.373 85.692 112.155 84.3416C109.965 83.6553 107.748 83.1022 105.538 82.4495C102.814 81.6095 100.062 80.8139 97.4172 79.792C93.1898 78.2161 88.9834 76.5772 84.8128 74.8526C81.6613 73.5138 78.6025 72.0016 75.5439 70.4888C74.4452 69.8834 73.4079 69.197 72.4466 68.44C72.1468 68.2328 71.9032 67.9749 71.7362 67.6876C71.5689 67.4009 71.4831 67.0936 71.4859 66.7911C71.4887 66.4887 71.5799 66.2008 71.7519 65.951C71.9239 65.7012 72.1718 65.4966 72.4746 65.3554C73.0667 64.9944 73.7751 64.7698 74.5387 64.7009C75.3024 64.6319 76.0984 64.7207 76.8583 64.9595C78.9824 65.6569 81.1209 66.3322 83.123 67.1594C88.226 69.2844 93.3865 71.321 98.3321 73.7196C103.277 76.1188 108.112 77.9454 112.985 80.0711C113.986 80.489 115.047 80.7687 116.119 80.8988C114.573 79.7593 112.866 78.786 111.048 78.0083C106.999 75.9467 102.902 73.9499 98.7563 72.0173C96.6523 71.0202 94.4696 70.1453 92.3301 69.1743C90.4498 68.306 88.5559 67.4305 86.7262 66.4549C84.4176 65.2779 82.1721 64.0068 79.9991 62.6472C77.459 60.9853 75.0768 59.1382 72.5869 57.3985C71.6532 56.6896 70.9612 55.7931 70.5978 54.8217C69.9412 53.3364 70.6662 52.5985 72.4828 52.372C73.481 52.245 74.5293 52.3085 75.5512 52.5581C76.5732 52.8076 77.5431 53.2369 78.3903 53.8145L87.2972 59.3663C90.4664 61.3631 93.6787 63.3228 96.8266 65.4417C100.192 67.6753 103.716 69.7257 107.374 71.5775C112.103 73.9847 116.983 76.1585 121.254 79.1884C121.884 79.6721 122.62 80.0466 123.409 80.285C122.506 79.3211 121.52 78.4095 120.46 77.5591C118.545 76.2921 116.813 74.8398 115.31 73.2406C111.698 69.2474 106.929 66.2745 102.19 63.2866C97.7547 60.4829 93.2763 57.7459 88.9052 54.8717C85.4244 52.5835 81.9648 50.2323 78.6994 47.7289C75.6228 45.5265 72.911 42.992 70.6556 40.2108C69.7167 38.9851 68.8089 37.7409 67.9323 36.4781C67.7164 36.137 67.5729 35.7739 67.5086 35.4065C67.1994 34.1274 67.7302 33.5417 69.2524 33.5637C70.1535 33.5465 71.0731 33.6929 71.9476 33.9928C72.822 34.2926 73.6306 34.7388 74.3174 35.3005C76.5723 37.1665 78.8009 39.0634 81.0033 40.9911C84.198 43.7832 87.2492 46.7087 90.5662 49.4006C93.0213 51.4029 95.8433 53.1344 98.4924 54.9845L98.8662 54.732C98.3246 54.0493 97.7359 53.3899 97.1038 52.7576C93.4771 49.5537 90.2382 46.0741 87.4443 42.3805C84.3224 38.2825 80.5816 34.4599 78.1001 30.0533C77.271 28.6456 76.5856 27.1955 76.0518 25.7196C75.7551 24.6782 75.7949 23.6248 76.1669 22.6693C76.5391 21.7139 77.2299 20.8915 78.1674 20.288C78.3815 20.0439 78.6769 19.8588 79.0244 19.7512C79.3717 19.6436 79.7589 19.6171 80.1473 19.6745C80.5357 19.7319 80.9118 19.8711 81.2383 20.0783C81.5646 20.2854 81.8299 20.5533 82.0077 20.8553C83.5972 22.8598 85.0572 24.9165 86.6396 26.9321C88.2221 28.9477 89.7234 30.6121 91.1609 32.495C93.9632 36.135 96.6862 39.8086 99.4671 43.4525C101.013 45.494 102.66 47.4392 104.207 49.5103C105.369 51.0758 106.38 52.7267 107.405 54.3554C108.088 55.4411 108.728 56.5048 109.456 57.8197C109.759 56.3269 109.437 54.7301 108.539 53.2798C106.86 49.2966 105.196 45.2911 103.474 41.3154C102.891 39.9558 102.09 38.6335 101.528 37.2699C99.6872 32.6485 97.4791 28.0976 94.9187 23.6488C94.0993 22.0619 93.4911 20.4254 93.1058 18.7707C92.8788 18.0796 92.7735 17.1995 93.6807 16.8643C94.1232 16.6607 94.6475 16.581 95.1846 16.6358C95.7217 16.6906 96.2465 16.8771 96.6901 17.1712ZM233.004 179.399C232.968 179.454 232.925 179.521 232.962 179.614L234.067 179.866C234.067 179.866 234.132 179.766 234.168 179.71L233.004 179.399ZM222.456 180.214C225.826 180.556 229.21 180.847 232.58 181.161C233.122 181.215 233.663 181.239 234.196 181.275C234.123 181.14 234.017 181.017 233.884 180.913C233.751 180.81 233.596 180.729 233.429 180.677C231.327 180.124 229.226 179.571 227.117 179.088C225.204 178.621 223.277 178.231 221.341 177.919C218.092 177.447 214.838 177.104 211.597 176.708C207.439 176.215 203.31 175.442 199.186 175.882C198.606 175.852 198.025 175.75 197.46 175.579C198.125 175.079 198.988 174.781 199.931 174.725C203.462 174.698 207.031 174.958 210.588 175.501C213.353 175.802 216.117 176.309 218.832 176.745C220.766 177.022 222.715 177.246 224.642 177.504C224.758 177.563 224.923 177.426 225.06 177.362L227.062 178.219L229.935 178.648L230.109 178.737L230.239 178.803L231.757 179.428C231.775 179.316 231.801 179.206 231.834 179.098L230.297 178.833L230.138 178.751L229.993 178.678C229.198 178.392 228.432 178.12 227.616 177.866C227.515 177.815 227.285 178.111 227.12 178.249C226.726 177.399 225.947 177.327 225.118 177.392C224.769 177.162 224.389 176.969 223.99 176.817C222.134 176.419 220.271 176.032 218.409 175.704C215.6 175.233 212.784 174.775 209.976 174.364C204.463 173.724 198.957 173.568 193.55 173.898C192.803 173.952 192.078 174.078 191.387 174.274C190.811 174.393 190.055 174.554 190.296 175.194C190.396 175.407 190.55 175.606 190.746 175.775C190.943 175.944 191.178 176.079 191.433 176.171C194.732 177.32 198.174 178.024 201.614 178.254C202.978 178.313 204.349 178.361 205.727 178.488C209.614 178.852 213.499 179.241 217.382 179.653C219.084 179.723 220.795 180.048 222.456 180.214ZM241.739 183.668C238.476 183.396 235.242 183.509 232.133 184.003C230.778 184.271 229.397 184.474 227.995 184.612C223.819 185.069 219.764 185.889 215.896 187.058C214.722 187.361 213.642 187.904 212.469 188.265C210.726 188.854 209.011 189.251 207.268 189.721L206.919 189.189C209.142 187.945 211.982 187.649 214.322 186.64C216.83 185.725 219.463 185.01 222.188 184.505C224.811 183.951 227.565 183.64 230.253 183.223C230.191 183.146 230.108 183.08 230.012 183.032C229.916 182.983 229.81 182.953 229.704 182.943C225.609 183.338 221.557 183.667 217.447 184.084C213.778 184.563 210.167 185.19 206.636 185.961C204.397 186.572 202.457 187.666 200.997 189.141C200.729 189.498 200.517 189.886 200.368 190.297C200.873 190.656 201.441 190.945 202.046 191.151C204.594 191.695 207.259 192.329 209.636 191.65C212.013 190.97 214.763 189.832 217.312 188.856C219.126 188.156 220.897 187.375 222.733 186.7C225.855 185.69 229.209 185.108 232.678 184.974C233.14 184.943 233.774 184.853 233.918 184.601C234.375 183.89 235.147 183.884 235.941 183.875C237.174 183.868 238.422 183.928 239.735 183.947C240.447 184.028 241.147 183.931 241.739 183.668ZM242.46 182.19L236.898 180.51L236.799 180.873C238.648 181.43 240.32 182.532 242.46 182.19ZM254.927 191.487C254.342 191.433 253.755 191.346 253.173 191.229C248.873 190.609 244.57 190.618 240.464 191.253C239.72 191.42 239.003 191.643 238.324 191.921C240.7 193.839 242.828 195.306 245.663 195.258C249.543 195.196 253.488 195.034 257.295 194.847L262.921 194.67C261.851 193.745 260.594 192.983 259.223 192.429C257.851 191.875 256.393 191.541 254.934 191.447L254.927 191.487ZM284.949 209.041L281.843 208.197C279.07 207.465 276.317 206.669 273.545 206.025C271.306 205.505 269.039 205.208 266.808 204.707C266.247 204.669 265.689 204.523 265.178 204.28C264.667 204.038 264.217 203.707 263.865 203.312L271.568 204.621C271.345 204.326 271.008 204.095 270.62 203.976C267.104 203.098 263.556 202.376 259.991 201.813C256.941 201.17 253.841 201.033 250.879 201.41C249.726 201.496 248.553 201.492 247.373 201.397C246.978 201.742 247.161 202.323 247.699 202.891C248.11 203.356 248.645 203.741 249.255 204.009C249.864 204.278 250.528 204.422 251.182 204.428C253.318 204.511 255.446 204.665 257.589 204.738C262.905 205.005 268.241 205.709 273.519 206.839C276.913 207.533 280.423 208.494 283.883 209.295C284.048 209.365 284.314 209.19 284.956 209L284.949 209.041ZM281.548 206.896L280.472 206.57C280.422 206.648 280.372 206.725 280.329 206.792L281.405 207.119C281.446 207.027 281.496 206.939 281.555 206.856L281.548 206.896ZM189.48 125.323L189.221 125.338L189.377 126.23L189.78 126.199L189.48 125.323ZM183.344 125.905C182.984 124.934 182.541 123.979 182.018 123.045C180.691 120.185 179.465 117.318 178.16 114.455C177.613 113.276 176.936 112.12 176.303 110.956C175.982 110.114 175.689 109.257 175.324 108.422C173.784 104.849 171.459 101.392 170.244 97.7037C170.174 97.5579 170.084 97.4178 169.975 97.2862C169.008 95.8053 167.918 94.2473 166.865 92.7517C166.155 91.7567 165.037 90.9812 163.745 90.5885C163.606 90.7629 163.486 90.9488 163.388 91.1444C162.753 92.7081 162.903 94.491 163.809 96.1259C164.93 98.1722 165.784 100.215 166.998 102.177C167.943 103.691 169.147 105.012 170.171 106.463C172.016 109.025 173.823 111.608 175.591 114.21C177.407 116.905 179.166 119.63 180.975 122.337C181.71 123.523 182.524 124.675 183.322 125.849L183.344 125.905ZM190.332 131.247C190.17 130.02 189.739 128.799 189.059 127.647C188.501 126.879 188.187 126.027 188.152 125.178C188.131 124.718 188.056 124.255 187.929 123.796C187.203 121.434 186.549 119.05 185.658 116.737C184.021 112.361 182.254 108.008 180.631 103.669C180.484 103.178 180.374 102.683 180.299 102.188C180.631 102.209 180.84 102.182 180.855 102.219C183.913 108.931 186.478 115.743 188.536 122.614L189.034 122.558L186.83 114.381C186.764 114.126 186.582 113.812 186.667 113.62C187.431 112.016 186.644 110.405 186.059 108.779C185.693 107.707 185.291 106.632 184.946 105.556C184.461 103.755 183.655 101.991 182.555 100.325C182.099 99.6728 181.509 99.0823 180.815 98.583C179.693 97.7611 179.08 97.8183 178.429 98.7707C178.167 99.152 178.04 99.5959 178.06 100.059C178.118 100.919 178.255 101.783 178.469 102.643C179.074 105.59 180.033 108.516 181.333 111.376C183.153 114.842 184.659 118.387 185.835 121.978C186.465 123.98 187.002 125.98 187.632 127.984C188.062 129.257 189.021 130.417 190.332 131.247ZM193.748 139.42C193.805 139.331 193.985 139.32 194.094 139.271L192.592 137.607L192.326 137.752L193.748 139.42ZM122.936 85.3721L123.101 85.1166L120.238 83.8664C118.947 83.2045 117.602 82.629 116.219 82.1453C111.012 80.7491 106.268 78.3643 101.331 76.3679C96.395 74.3721 91.8967 72.1123 87.1265 70.0972C83.9748 68.7589 80.7447 67.572 77.5221 66.4633C76.6713 66.0884 75.7261 65.9513 74.8439 66.0737C73.9614 66.1966 73.1949 66.5715 72.6709 67.1378C74.035 68.089 75.453 68.9834 76.9184 69.8158C79.8832 71.3253 82.877 72.8489 85.9778 74.1469C89.5055 75.677 93.1188 77.1026 96.7468 78.4474C99.6587 79.5313 102.643 80.4448 105.562 81.4585C106.29 81.6169 107.022 81.7434 107.756 81.8376C105.96 80.2735 103.34 79.9587 101.852 78.124C105.378 79.2988 108.718 80.851 112.215 82.0111C115.712 83.1712 119.346 84.2977 122.922 85.4243L122.936 85.3721ZM82.9969 94.1915C84.0371 94.6325 84.9921 95.2074 85.9902 95.715C87.3209 96.3922 88.6368 97.062 90.3724 97.857C89.6374 96.6421 89.1645 95.7665 87.8787 95.4365C87.1657 95.2378 86.4739 94.9701 85.8194 94.6393C84.6909 94.0649 83.6631 93.3353 82.5421 92.7797C77.813 90.3724 73.4704 87.3948 68.3332 85.6506L68.1162 85.5403L61.6306 82.4311C60.517 81.8642 59.3745 81.2826 58.2609 80.7157C55.1814 79.3847 52.0663 78.1088 48.9869 76.7773C47.8902 76.2859 46.8228 75.7425 45.7906 75.1507C45.212 74.8565 44.6616 74.3991 44.8748 73.74C48.5833 75.3764 52.2336 76.9545 55.87 78.5836C57.8797 79.4887 59.8538 80.4788 61.8492 81.4059C63.5844 82.2002 65.2979 83.0284 67.0615 83.7489C70.7109 85.3702 74.2569 87.1753 77.6772 89.1521C80.1214 90.3962 82.4223 91.8331 84.8018 93.1769C83.7555 91.741 82.3748 90.4692 80.7515 89.4478C78.1192 88.108 75.4938 86.698 72.9979 85.1763C69.7321 83.1033 66.2997 81.2327 62.7347 79.5837C61.0328 78.8771 59.3758 78.0828 57.7748 77.2065C52.7471 74.2787 47.2049 72.3286 41.8701 69.997C40.9149 69.6567 39.9055 69.4913 38.9174 69.5125C38.6938 69.4958 38.4743 69.5177 38.2728 69.5767C38.0712 69.6358 37.8922 69.7303 37.7469 69.8551C37.6018 69.9793 37.4935 70.131 37.4292 70.3C37.3648 70.469 37.3457 70.652 37.3732 70.8367C37.355 71.2724 37.4452 71.7176 37.6383 72.1456C37.8312 72.5735 38.1231 72.9757 38.4962 73.3272C39.7254 74.6305 41.2421 75.7397 42.9485 76.5818C47.2847 78.8155 51.7485 80.8464 56.3156 82.6628C59.8062 83.9815 63.1758 85.6374 66.602 87.116C72.0165 89.503 77.5317 91.8231 82.9969 94.1915ZM92.018 99.5657L93.0678 100.351C93.4216 100.589 93.7554 100.848 94.0669 101.125C94.5703 101.599 95.2092 101.962 95.9095 102.172C96.6099 102.383 97.3434 102.432 98.0257 102.313L92.018 99.5657ZM89.0933 100.379C89.9673 100.573 90.8124 100.9 91.6793 101.164L91.8945 100.831C90.4911 99.6825 88.9709 98.6365 87.3562 97.709C84.9493 96.58 82.4507 95.6194 79.8909 94.8391C76.0763 93.6356 72.2194 92.6169 68.3693 91.4984C65.8771 90.7762 63.3775 90.0058 60.8924 89.2427C58.4072 88.4796 56.2761 87.8228 53.9857 87.0556C50.3733 85.8362 46.7464 84.6694 43.2053 83.3094C38.7535 81.6044 34.4589 79.5956 29.8716 78.2205C27.3722 77.4795 24.88 76.7272 22.3664 76.0384C20.4235 75.5067 17.9544 76.5374 17.8816 77.873C17.7759 79.8561 19.6001 82.6294 21.8534 83.1858C26.0999 84.2258 30.3113 85.4692 34.5794 86.5051C37.9015 87.3107 41.1934 87.8346 44.4719 88.5886C50.3501 89.9276 56.1707 91.2962 62.0854 92.7275C63.9341 93.167 65.7479 93.8393 67.5964 94.2192C69.1127 94.5184 70.6241 95.3026 72.4045 95.0429C69.2169 93.7308 65.7389 93.4653 63.1184 91.5709C63.7518 91.4672 64.4284 91.5062 65.0809 91.6844C66.4895 92.0914 67.8555 92.6241 69.2567 93.0129C71.2792 93.57 73.3299 94.0235 75.3239 94.6249C75.9149 94.8443 76.4751 95.1294 76.9869 95.4718C77.6675 95.982 78.4231 96.4163 79.2295 96.7603C81.8005 97.3902 84.3855 97.909 87.1575 98.4048C87.3441 99.6066 87.2291 99.6956 86.1244 99.4432C83.965 98.9496 81.791 98.4479 79.6253 98.0541C78.1343 97.8047 76.6382 97.6194 75.1433 97.4994C72.1339 97.2223 69.1168 96.8381 66.0649 96.6868C62.1908 96.5593 58.4186 96.6318 54.5238 96.7157C50.6291 96.7997 47.3835 96.8593 43.8496 96.9792C40.705 97.0614 37.5165 97.0026 34.3868 97.1806C31.7475 97.3128 28.8526 96.8283 26.6235 98.2617C25.7693 97.6498 26.0484 97.1867 26.6678 97.0004C27.7586 96.6177 28.9273 96.3682 30.141 96.259C33.3502 96.1365 36.6037 96.2134 39.8276 96.1277C45.8356 95.9828 51.8215 95.7829 57.822 95.5903C58.2331 95.5781 58.6223 95.5104 59.3648 95.4311C59.0572 95.2749 58.7319 95.1489 58.3965 95.0561C50.8544 93.9893 43.2971 93.3578 35.7808 93.1674C32.2905 93.1882 28.8713 93.5694 25.6013 94.3031C24.6415 94.5581 23.7513 94.9355 22.9596 95.4229C22.7527 95.5258 22.5812 95.6679 22.4569 95.8393C22.3327 96.0102 22.2584 96.2068 22.2396 96.4145C22.2208 96.6221 22.2575 96.837 22.3476 97.0433C22.4377 97.2495 22.5787 97.4427 22.7611 97.6096C24.3902 98.8073 26.0343 100.19 28.2281 100.392C30.8535 100.69 33.4771 100.806 36.0705 100.739C40.2103 100.602 44.3203 100.274 48.423 99.9567C51.9129 99.6963 55.3735 99.3322 58.8706 99.0611C61.5601 98.8506 64.2714 98.6661 66.9903 98.5893C69.7094 98.5119 72.2568 98.761 74.8386 98.6282C79.5773 98.5778 84.3914 99.1692 89.0933 100.379ZM87.8386 112.167C89.1761 111.372 90.4985 110.392 91.9594 109.675C93.4204 108.957 95.0049 108.465 96.5671 107.858C96.466 107.806 96.3502 107.748 96.2919 107.718C92.936 108.037 89.7119 108.756 86.7165 109.855C83.3551 111.008 80.2074 112.484 77.3322 114.258C74.5158 116.153 71.5423 117.892 68.4278 119.466C65.5703 121.057 62.576 122.49 59.4612 123.757C59.2199 123.899 59.0028 124.066 58.8144 124.254C59.0805 124.377 59.3594 124.474 59.6454 124.544C63.8032 124.896 67.8173 124.126 71.082 122.352C73.5999 121.117 75.982 119.72 78.2099 118.173C79.2881 117.452 80.3234 116.71 81.3728 115.975C80.0635 116.041 78.8765 116.477 78.0029 117.211C74.9424 119.168 71.5859 120.81 67.9935 122.108C67.7703 122.186 67.4671 122.12 67.2145 122.125L67.04 121.829L70.1059 120.438C70.7321 120.152 71.3946 119.928 71.9845 119.609C73.9986 118.508 75.955 117.349 77.9769 116.268C78.9465 115.719 79.9688 115.228 81.0351 114.799C83.116 113.984 85.2614 113.276 87.3787 112.494C87.547 112.399 87.7012 112.29 87.8386 112.167ZM101.325 108.7C97.4285 108.52 93.7137 109.347 90.6969 111.069L90.8428 111.379L101.325 108.7ZM151.52 130.353L148.033 129.804C145.245 129.246 142.439 128.833 139.631 128.567C136.321 128.478 133.031 128.548 129.779 128.777C127.788 128.885 125.734 129.094 123.708 129.258C122.489 129.361 121.257 129.486 120.038 129.53C117.412 129.67 114.859 129.699 112.241 129.709C108.703 129.841 105.497 131.024 103.197 133.046C102.851 133.355 102.607 133.735 102.482 134.157C102.155 135.142 102.888 135.972 103.54 136.777C104.513 138.01 105.005 138.231 106.568 137.861C108.131 137.491 109.24 137.021 110.594 136.619C114.383 135.507 118.157 134.417 121.939 133.287C123.415 132.843 124.855 132.307 126.303 131.819L126.251 131.482C125.758 131.332 125.255 131.225 124.748 131.16C124.402 131.132 124.064 131.329 123.689 131.344C118.911 131.48 114.398 132.606 110.556 134.622C109.937 134.926 109.29 135.453 107.989 134.909C108.585 134.644 109.159 134.35 109.709 134.028C112.48 132.289 115.781 131.152 119.358 130.704C122.261 130.369 125.216 130.205 128.199 130.216C129.67 130.168 131.157 130.246 132.635 130.157C134.402 130.067 136.131 129.767 137.921 129.763C139.709 129.758 141.283 129.998 142.943 130.134C144.256 130.242 145.576 130.339 146.89 130.417C148.203 130.495 149.977 130.512 151.493 130.605L151.52 130.353ZM163.908 132.32L166.034 133.401C162.994 131.323 159.846 129.382 156.728 127.425C153.413 125.51 150.307 123.336 147.463 120.939C146.514 120.087 145.558 119.246 144.558 118.441C140.857 115.421 137.15 112.413 133.413 109.448C132.429 108.554 131.279 107.794 130.019 107.204C129.098 106.821 128.299 106.235 127.724 105.52C125.991 103.648 124.373 101.777 122.532 99.925C120.378 97.7519 118.139 95.6526 115.878 93.5867C114.248 92.0632 112.604 90.5325 110.879 89.0945C109.909 88.2754 109.347 88.3138 108.404 88.9116C108.225 89.0086 108.076 89.1364 107.964 89.2872C107.853 89.4385 107.782 89.6104 107.755 89.7931C107.729 89.9758 107.747 90.1657 107.809 90.3513C107.872 90.5378 107.977 90.716 108.118 90.8769C108.62 91.5893 109.128 92.2909 109.687 92.9738C112.881 96.9604 117.094 100.168 120.783 103.772C123.531 106.455 126.702 108.836 129.736 111.281C131.25 112.509 132.792 113.722 134.42 114.861C136.969 116.63 139.581 118.329 142.178 120.049C142.917 120.543 143.698 121 144.827 121.692C142.623 119.42 139.926 118.15 137.904 116.221C134.955 113.554 131.726 111.113 128.604 108.506C126.786 106.975 124.904 105.486 123.186 103.888C120.309 101.229 117.504 98.5172 114.757 95.7757C113.407 94.6341 112.353 93.2844 111.672 91.8295C112.934 91.867 113.342 92.6057 113.842 93.1113C115.314 94.5833 116.656 96.1671 118.157 97.6245C120.331 99.7639 122.585 101.871 124.838 103.977C126.715 105.685 128.62 107.378 130.561 109.015C131.931 110.199 133.314 111.36 134.734 112.526C136.153 113.691 137.413 114.657 138.774 115.704C141.721 117.986 144.74 120.217 147.687 122.529C148.506 123.166 149.345 123.801 150.107 124.498C150.324 124.608 150.268 125.082 150.161 125.308C150.054 125.533 149.642 125.398 149.353 125.369C149.065 125.34 149.021 125.199 148.862 125.118C147.415 124.382 145.774 123.65 144.227 122.952C141.458 121.705 138.675 120.48 135.914 119.251C134.615 118.747 133.361 118.148 132.168 117.463C128.985 115.4 125.815 113.285 122.839 111.076C120.465 109.307 118.32 107.3 116.081 105.438C114.343 103.933 112.698 102.373 110.981 100.834C109.988 99.9603 108.967 99.0716 107.902 98.2489C106.302 97.0066 104.63 95.8458 103.001 94.6179C99.9671 92.3215 97.0267 89.9394 93.9 87.7281C90.7728 85.516 88.3088 83.1405 84.6525 81.84C82.7112 80.2029 80.1937 80.1759 77.8897 79.5787C77.0375 79.3515 76.1284 79.3318 75.8309 80.4199C76.5515 80.8659 77.2978 81.2803 78.0659 81.6608C83.3873 84.0833 88.3725 87.0574 92.8825 90.5007C96.9663 93.6718 101.215 96.6755 105.364 99.8057C108.447 102.084 111.474 104.392 114.58 106.637C115.875 107.606 117.208 108.52 118.597 109.493C118.218 109.02 117.783 108.576 117.299 108.168C115.923 107.055 114.504 105.978 113.136 104.853C109.83 101.906 106.286 99.1449 102.534 96.5945C100.461 95.3481 98.5067 93.9591 96.7004 92.444C94.7803 90.9179 92.7645 89.478 90.6632 88.1316L83.1275 82.7171C82.6788 82.4002 82.3885 82.0457 83.1581 81.5964L85.9162 83.5758C87.3135 84.5969 88.6457 85.6588 90.0785 86.6537C92.352 88.2534 94.84 89.6674 96.9261 91.4082C99.0121 93.1489 101.783 94.8098 104.15 96.561C105.461 97.5081 106.936 98.2 108.188 99.2364C110.485 101.128 112.608 103.168 114.839 105.13C115.796 105.971 116.888 106.719 117.766 107.594C119.689 109.628 121.926 111.458 124.407 113.026C125.202 113.431 125.183 113.937 124.55 114.235C123.769 113.837 123.189 113.365 122.568 113.019C120.665 111.918 118.741 110.85 116.831 109.76C116.383 109.532 115.998 109.085 115.551 109.005C112.793 108.487 110.245 106.717 107.311 107.217C107.311 107.217 107.052 107.085 106.87 106.859L107.692 106.716L108.636 106.622L102.066 104.03C101.486 104.931 100.598 104.759 99.37 104.37C97.1337 103.445 94.6787 103.125 92.3905 103.46C87.4321 104.192 82.5771 105.196 77.8564 106.467C73.4195 107.779 68.7058 108.568 64.1087 109.564C62.9918 109.807 61.9036 110.005 60.7213 110.142C57.8381 110.563 54.9548 110.985 52.0642 111.358C51.6892 111.404 51.2121 111.161 50.7715 111.04L50.7698 110.715C51.3053 110.533 51.8614 110.387 52.4339 110.278C53.818 110.096 55.2459 110.026 56.5863 109.794C58.3089 109.504 59.9365 108.945 61.7029 108.796C65.5747 108.45 69.0599 107.243 72.764 106.531C74.5836 106.2 76.3661 105.782 78.1027 105.278C79.5638 104.763 81.1008 104.373 82.6918 104.116C84.5098 103.815 86.2924 103.427 88.0317 102.952C85.0332 102.495 82.0364 102.63 79.2904 103.345C75.507 104.001 71.8328 104.936 68.071 105.648C65.7078 106.186 63.213 106.392 60.7482 106.82C55.494 107.673 50.2617 108.581 45.0146 109.423C44.6325 109.432 44.2781 109.54 44.0001 109.731C43.7221 109.922 43.534 110.188 43.4618 110.492C45.1673 111.661 47.1833 112.441 49.2723 112.741C55.3098 113.463 61.2834 112.955 66.6633 111.263C70.2361 110.247 73.7215 109.07 77.2576 107.992C81.3409 106.607 85.6841 105.674 90.1849 105.214C93.7201 104.956 97.3178 104.969 100.933 105.254C101.503 105.293 102.138 105.321 102.379 105.99C102.62 106.659 102.037 106.76 101.518 107.028C101.26 107.19 101.033 107.382 100.843 107.599L101.069 107.936C103.731 108.036 106.4 108.155 109.048 108.219C109.791 108.228 110.432 108.186 110.711 109.213L108.455 109.437C109.08 109.766 109.75 110.022 110.442 110.198C116.33 111.999 121.74 114.782 127.413 117.064C130.174 118.174 132.842 119.459 135.589 120.621C138.335 121.783 141.161 122.793 143.85 124.014C147.09 125.723 150.588 127.004 154.198 127.805C154.821 127.963 155.427 128.186 155.997 128.47C156.324 128.57 156.611 128.761 156.805 129.006C157 129.251 157.089 129.535 157.057 129.807C154.674 129.184 152.406 128.65 150.174 127.971C146.829 126.962 143.513 125.849 140.19 124.778C134.691 123.027 128.997 122.357 123.386 121.051C120.723 120.446 118.018 120.141 115.346 120.146C113.204 120.163 110.994 119.806 108.817 119.997C105.68 120.435 102.858 121.597 100.661 123.357C100.354 123.712 100.191 124.146 100.19 124.607C100.19 125.068 100.353 125.536 100.659 125.954C101.298 126.633 102.106 126.69 103.366 126.343C104.094 126.112 104.87 125.97 105.673 125.923C109.553 125.862 113.499 125.877 117.423 125.868C120.091 125.868 122.804 126.009 125.444 125.817C128.396 125.644 131.38 125.62 134.381 125.747C135.1 125.798 135.821 125.885 136.539 126.004C136.382 125.816 136.184 125.652 135.956 125.524C135.728 125.395 135.475 125.304 135.215 125.257C131.671 124.796 128.023 123.78 124.359 123.805C122.611 123.707 120.859 123.52 119.112 123.244C118.68 123.194 118.247 123.176 117.821 123.192C116.27 123.244 114.741 123.322 113.206 123.411L106.571 123.783C106.095 123.806 105.619 123.77 105.085 123.764C104.908 123.113 104.979 122.795 105.737 122.753C107.669 122.733 109.544 122.506 111.484 122.564C114.832 122.704 117.981 122.167 121.375 122.713C122.253 122.8 123.13 122.843 124.001 122.84C125.624 122.943 127.233 123.009 128.878 123.197C131.066 123.529 133.268 123.955 135.406 124.483C136.836 124.798 138.237 125.245 139.645 125.652C139.942 125.729 140.455 125.828 140.491 125.95C140.779 127.203 142.017 126.889 142.877 127.164C144.116 127.409 145.335 127.767 146.511 128.231C147.485 128.665 148.532 128.936 149.588 129.03C151.89 129.351 154.187 129.766 156.468 130.274C157.566 130.538 158.468 130.776 159.243 129.724L159.66 130.954C160.925 131.465 162.697 131.157 163.11 132.843C163.39 132.617 163.627 132.486 163.886 132.353L163.908 132.32ZM138.428 111.381L139.812 112.454C140.528 113.04 141.295 113.578 141.955 114.194C144.943 116.999 148.168 119.628 151.602 122.056C154.412 124.083 157.333 125.998 160.351 127.793C164.402 130.18 168.561 132.43 172.72 134.65C175.192 135.908 177.723 137.078 180.203 138.326C182.683 139.574 185.366 140.954 187.912 142.338C188.519 142.648 189.112 142.949 189.778 143.288C189.741 143.078 189.762 142.955 189.704 142.896L180.138 135.237C179.794 134.914 179.474 134.573 179.18 134.219C178.164 132.944 177.01 131.739 175.736 130.621C172.078 128.051 168.179 125.741 164.089 123.719C160.878 121.996 157.566 120.399 154.298 118.735C151.593 117.359 148.932 115.916 146.199 114.613C143.697 113.428 141.102 112.418 138.536 111.333L138.428 111.381ZM183.958 143.528C186.041 144.589 188.124 145.648 190.191 146.701C191.478 147.356 192.665 148.167 193.932 148.885C195.761 149.949 197.621 150.999 199.559 152.074C200.89 152.751 202.206 153.421 203.667 154.283C202.48 152.689 200.828 151.338 198.887 150.374C196.139 148.976 193.441 147.499 190.765 146.019C186.867 143.843 183.018 141.589 179.105 139.435C177.246 138.415 175.273 137.573 173.371 136.649L172.481 137.436C174.52 138.473 176.472 139.467 178.425 140.461C180.377 141.455 182.042 142.568 183.937 143.562L183.958 143.528ZM195.9 156.085C195.257 155.921 194.593 155.819 193.943 155.695L214.001 162.48C213.023 161.672 212.328 161.082 211.611 160.526C211.401 160.322 211.119 160.178 210.815 160.121C209.125 159.983 207.447 159.528 205.911 158.79C204.483 158.134 202.975 157.636 201.431 157.307C199.568 157.031 197.717 156.622 195.9 156.085ZM191.561 153.877C190.37 153.521 189.177 153.136 187.971 152.832C185.198 152.129 182.41 151.478 179.666 150.819C176.921 150.16 174.379 149.456 171.715 149.001C168.481 148.446 165.226 148.103 161.986 147.767C160.923 147.71 159.872 147.76 158.856 147.915C157.342 148.06 155.835 148.253 154.329 148.415C153.901 148.439 153.48 148.486 153.067 148.555C152.61 148.621 152.214 148.816 151.941 149.109C151.669 149.402 151.537 149.775 151.568 150.168C151.575 150.536 151.74 150.907 152.03 151.216C152.321 151.526 152.721 151.755 153.163 151.865C154.854 152.423 156.589 152.836 158.34 153.099C161.097 153.366 163.848 153.469 166.573 153.407C171.722 153.305 176.92 153.515 182.127 154.034C183.354 154.157 184.595 154.228 185.8 154.295L185.827 153.955C181.059 152.731 176.233 151.784 171.387 151.12C166.486 150.53 161.822 151.064 156.777 150.607C157.199 149.685 158.057 149.782 158.844 149.814C161.13 149.811 163.417 149.75 165.703 149.718C166.508 149.72 167.316 149.758 168.127 149.83C168.943 149.906 169.759 150.1 170.567 150.128C175.876 150.444 181.196 151.421 186.349 153.025C188.045 153.645 189.849 153.92 191.597 153.822L191.561 153.877ZM217.441 165.278C214.116 164.087 210.721 163.079 207.284 162.264C203.549 161.509 199.781 161.014 196.024 160.783C192.279 160.633 188.39 160.233 184.573 160.076C182.144 159.997 179.729 160.034 177.339 160.187C174.281 160.372 171.275 160.657 168.204 160.983C166.156 161.235 164.147 161.603 162.194 162.085C161.416 162.28 160.349 162.534 160.578 163.58C160.732 164.205 161.701 164.609 163.187 164.627C167.162 164.688 171.137 164.718 175.104 164.79C178.742 164.905 182.346 164.765 185.879 164.371C186.612 164.306 187.361 164.301 188.114 164.357L202.356 164.966C202.856 164.992 203.357 165.041 203.858 165.109C209.096 165.543 214.338 166.192 219.563 167.053C219.861 167.074 220.156 167.066 220.443 167.028C219.542 166.32 218.538 165.71 217.463 165.216L217.441 165.278ZM307.586 216.829C307.76 216.917 308.04 216.809 308.329 216.779C308.27 216.572 308.226 216.342 308.175 216.332C307.909 216.305 307.643 216.298 307.382 216.312C307.476 216.433 307.485 216.718 307.608 216.766L307.586 216.829ZM308.26 218.765C308.393 219.453 308.461 220.152 308.551 220.847C308.915 219.925 309.689 219.08 309.164 217.957C308.262 217.837 308.112 218.1 308.223 218.673L308.26 218.765ZM301.442 214.174C299.518 213.195 297.652 212.157 295.736 211.107C293.819 210.058 291.916 208.957 289.985 207.9C288.054 206.843 286.253 205.823 284.344 204.881C282.435 203.938 280.848 202.496 278.513 201.47C278.656 201.905 278.912 202.319 279.264 202.682C279.616 203.045 280.053 203.348 280.543 203.566C281.834 204.086 283.019 204.799 284.03 205.666C285.003 206.66 286.242 207.459 287.627 207.984C288.234 208.292 288.842 208.602 289.594 208.984C289.4 209.285 289.142 209.448 288.97 209.656L288.898 209.619L285.036 207.86L284.851 208.149C285.33 208.665 285.961 209.074 286.67 209.33C287.378 209.587 288.135 209.679 288.854 209.597L288.97 209.656C289.533 209.942 290.112 210.237 290.748 210.443C291.383 210.648 291.968 210.635 292.128 210.894C292.928 212.217 294.603 212.449 295.811 213.226C297.02 214.004 298.082 214.53 299.189 215.226C301.143 216.457 303.039 217.747 305 218.966C305.615 219.288 306.256 219.57 306.915 219.808L307.105 217.248C305.224 216.202 303.322 215.131 301.406 214.081L301.442 214.174ZM271.895 197.851L271.084 197.173L270.825 197.395L271.751 197.985L271.895 197.851ZM257.819 185.418C256.742 184.769 255.714 184.064 254.743 183.306C252.563 181.621 250.434 179.887 248.269 178.18C246.915 177.122 245.524 176.09 244.2 175.017C243.728 174.645 243.488 173.976 242.967 173.74C241.637 173.152 240.629 172.182 239.385 171.519C237.44 170.367 235.699 168.982 234.23 167.419C234.063 167.26 234.09 166.979 233.95 166.361C235.351 167.234 236.646 168.225 237.809 169.314C238.89 170.292 240.079 171.184 241.357 171.977C242.716 172.668 243.129 174.354 245.207 174.526C244.685 174.025 244.337 173.641 243.931 173.287C241.838 171.438 239.701 169.658 237.643 167.754C236.417 166.474 234.856 165.432 233.105 164.721L231.342 165.639C231.84 166.691 232.474 167.706 233.233 168.668C236.003 171.479 239.118 174.055 242.518 176.345C245.572 178.461 248.757 180.465 251.825 182.559C254.271 184.246 256.603 186.053 259.006 187.778C259.672 188.265 260.367 188.648 261.126 189.108C260.483 187.672 259.312 186.392 257.79 185.462L257.819 185.418ZM278.005 194.895C277.547 194.693 277.052 194.575 276.557 194.552C276.064 194.528 275.583 194.599 275.155 194.758L271.588 194.034L271.561 194.375C272.127 194.647 272.743 194.82 273.367 194.883C273.99 194.945 274.605 194.895 275.169 194.735C276.092 195.047 277.076 195.119 277.976 194.94L278.005 194.895ZM281.799 193.387C277.54 192.695 273.349 191.27 269.023 191.607C269.117 191.939 269.355 192.245 269.69 192.465C270.025 192.684 270.433 192.801 270.832 192.794L280.98 193.944C281.277 193.953 281.571 193.929 281.852 193.872L281.799 193.387ZM280.471 191.752L265.375 183.405C264.719 183.034 264.043 182.689 263.35 182.374C262.758 182.072 262.093 181.911 261.255 181.602C261.284 181.939 261.378 182.276 261.534 182.601C263.139 184.79 264.795 186.961 266.407 189.139C266.613 189.415 266.9 189.651 267.234 189.821C267.57 189.992 267.942 190.091 268.315 190.111C272.098 190.56 275.815 191.168 279.583 191.699C279.88 191.741 280.177 191.759 280.471 191.752ZM295.141 195.81C295 196.446 294.851 197.005 294.71 197.583L295.166 197.947C295.547 197.773 296.095 197.668 296.281 197.379C296.447 196.944 296.513 196.478 296.476 196.002L295.141 195.81ZM272.336 178.978L272.689 178.907C272.031 176.948 271.364 175 270.553 172.89C269.581 173.089 269.289 172.498 269.026 171.862C268.224 170.126 267.524 168.47 266.844 166.752C265.384 163.057 263.332 159.474 261.561 155.843C261.299 155.296 260.826 154.686 261.17 154.064C262.639 154.974 262.929 155.329 266.129 162.049C267.455 164.849 268.537 167.702 269.712 170.558C269.792 170.451 269.842 170.328 269.86 170.198C269.878 170.068 269.863 169.932 269.817 169.8C268.434 165.07 266.747 160.373 264.763 155.731C264.102 153.78 262.834 151.947 261.094 150.425C260.637 149.986 260.073 149.631 259.449 149.387C258.825 149.144 258.158 149.02 257.502 149.025C257.292 150.247 257.439 151.53 257.932 152.77C259.171 155.201 260.416 157.621 261.726 160.029C263.978 164.245 266.268 168.422 268.597 172.559C269.848 174.671 271.143 176.806 272.379 179L272.336 178.978ZM265.353 177.357C265.293 177.023 265.124 176.697 264.866 176.415C264.608 176.133 264.27 175.904 263.888 175.756C263.878 176.606 264.76 176.937 265.397 177.379L265.353 177.357ZM272.994 183.652C271.447 181.492 269.836 179.402 268.116 177.361C266.585 175.534 264.773 173.815 263.329 171.973C259.756 167.203 257.379 161.978 254.425 156.963C253.574 155.511 252.86 154.026 252.059 152.556C251.128 150.842 250.225 149.113 249.2 147.425C248.616 146.515 247.948 145.637 247.202 144.8C247.092 144.674 246.951 144.567 246.791 144.485C246.631 144.404 246.455 144.35 246.278 144.329C246.12 144.371 245.98 144.443 245.868 144.539C245.756 144.635 245.676 144.754 245.631 144.886C245.515 145.221 245.492 145.581 245.563 145.944C245.644 146.929 245.838 147.916 246.141 148.894C247.288 151.883 248.364 154.895 249.835 157.799C251.208 160.367 252.807 162.869 254.618 165.281C256.303 167.615 258.254 169.832 260.191 172.044C261.294 173.313 262.598 174.479 263.837 175.685C263.696 175.274 263.487 174.876 263.219 174.499C260.159 170.622 257.367 166.623 254.857 162.525C253.89 161.044 252.794 159.497 251.718 157.976C250.332 156.134 249.501 154.085 249.309 152.027C249.678 152.3 250 152.613 250.265 152.956C251.284 154.714 252.137 156.521 253.256 158.242C255.306 161.38 257.477 164.479 259.643 167.588C261.022 169.56 262.425 171.528 263.905 173.462C265.387 175.396 267.099 177.449 268.725 179.457C268.889 179.712 269.028 179.974 269.14 180.244L268.845 180.404L265.614 177.607C266.3 178.537 267.047 179.439 267.849 180.31C269.304 181.682 271.057 182.821 272.994 183.652ZM260.222 178.317C259.64 178.051 259.044 177.811 258.436 177.6C258.522 178.212 258.826 178.81 259.31 179.32C259.793 179.829 260.434 180.225 261.148 180.456C262.934 181.131 264.668 181.92 266.332 182.814C271.013 185.266 275.667 187.762 280.29 190.303C283.769 192.206 287.177 194.191 290.634 196.128C291.444 196.541 292.204 197.178 293.271 196.924C293.4 196.769 293.507 196.601 293.593 196.424C293.721 196.046 293.806 195.647 293.933 195.21C293.499 194.989 293.109 194.79 292.69 194.665C289.281 193.601 285.992 192.209 282.896 190.522C282.618 190.393 282.323 190.297 282.021 190.239C280.943 189.971 279.891 189.603 278.885 189.144C276.752 187.955 274.747 186.625 272.67 185.317C271.31 184.448 270.158 183.492 268.792 182.752C265.971 181.169 263.1 179.752 260.302 178.342L260.222 178.317ZM254.192 179.867C256.984 182.986 259.877 185.949 262.85 189.026C263.285 189.484 263.749 189.897 264.191 190.343C264.227 190.287 264.263 190.232 264.392 190.239L263.563 188.873L264.24 188.656L256.189 176.677C255.804 176.112 255.397 175.551 254.983 175.001C252.174 171.313 249.378 167.603 246.518 163.933C245.432 162.567 244.268 161.241 243.029 159.958C242.838 159.77 242.605 159.614 242.345 159.502C242.085 159.391 241.804 159.325 241.525 159.311C241.193 159.369 240.913 159.527 240.736 159.758C240.56 159.988 240.499 160.274 240.565 160.564C240.552 160.973 240.643 161.391 240.831 161.791C242.293 164.554 243.94 167.265 245.761 169.909C248.375 173.335 251.284 176.601 254.199 179.856L254.192 179.867ZM219.404 152.39C219.94 153.789 220.845 155.108 222.049 156.245C221.158 154.11 220.081 152.026 219.212 149.916C218.343 147.806 217.618 145.652 216.886 143.508C216.155 141.364 214.94 139.344 214.966 137.217L215.592 137.108C215.861 137.437 216.089 137.785 216.268 138.146C216.908 140.036 217.533 141.928 218.143 143.823C219.08 147.12 220.449 150.365 222.223 153.5C223.459 155.606 224.883 157.6 226.228 159.656L226.867 160.483C226.961 160.069 226.914 159.627 226.73 159.204C225.408 155.801 224.064 152.401 222.756 149.005C221.449 145.609 220.431 142.685 219.233 139.567C218.693 138.365 218.052 137.186 217.319 136.039C217.161 135.767 216.907 135.534 216.594 135.375C216.281 135.216 215.926 135.139 215.583 135.156C215.194 135.136 214.815 135.185 214.472 135.3C214.129 135.415 213.828 135.593 213.592 135.823C213.354 136.051 213.187 136.326 213.1 136.628C213.012 136.93 213.007 137.253 213.084 137.574C213.114 137.885 213.183 138.197 213.291 138.505C214.226 140.782 215.175 143.065 216.174 145.33C217.174 147.595 218.195 150.004 219.404 152.39ZM224.391 164.566C224.531 164.749 224.66 164.938 224.776 165.131L227.829 168.441L228.109 168.274L226.897 166.698C225.619 165.043 224.327 163.412 223.05 161.787C221.773 160.163 220.704 158.631 219.521 157.04C218.592 155.858 217.483 154.748 216.576 153.562C214.397 150.712 212.176 147.87 210.192 144.927C208.528 142.407 207.02 139.832 205.675 137.211C205.099 135.874 204.631 134.517 204.277 133.15C204.666 133.215 205.032 133.387 205.315 133.636C205.599 133.885 205.782 134.196 205.835 134.518C206.451 136.081 207.177 137.623 208.007 139.136C210.079 142.449 212.31 145.754 214.519 148.974C214.729 149.175 214.97 149.353 215.235 149.501C213.897 147.344 212.704 145.261 211.597 143.222C210.033 140.374 208.547 137.493 207.047 134.633C205.314 131.361 203.603 128.054 201.855 124.804C201.544 124.355 201.171 123.932 200.746 123.545L200.263 123.668C200.335 125.456 200.531 127.251 200.852 129.045C201.405 130.883 202.084 132.707 202.885 134.507C204.115 137.605 205.746 140.624 207.747 143.506C210.189 147.11 212.932 150.572 215.568 154.113C217.996 157.818 220.934 161.317 224.319 164.529L224.391 164.566ZM181.137 131.688C181.021 131.629 180.877 131.555 180.523 131.508L180.818 132.928L179.89 133.385C180.135 133.694 180.407 133.991 180.703 134.271C182.542 135.768 184.396 137.272 186.265 138.755C187.901 140.06 189.523 141.358 191.181 142.63C193.165 144.171 195.25 145.645 197.22 147.179C198.651 148.486 200.303 149.616 202.112 150.525C202.649 150.823 203.109 151.213 203.452 151.665C203.776 152.174 204.138 152.668 204.534 153.145C205.737 154.259 207.171 155.314 208.388 156.465C210.439 158.409 213.445 159.496 215.086 161.778C215.211 161.907 215.361 162.018 215.528 162.106C218.337 164.096 221.124 166.12 223.947 168.089C227.57 170.592 231.213 173.076 234.876 175.54C237.615 177.451 240.531 179.172 243.585 180.682C243.887 180.792 244.154 180.968 244.353 181.19C245.073 182.517 246.648 182.905 247.935 183.619C249.699 184.517 251.938 184.859 253.035 186.643C253.108 186.68 253.252 186.753 253.353 186.805C254.512 187.427 255.622 188.115 256.675 188.864C259.575 191.042 262.737 192.959 266.094 194.573C266.502 194.737 266.927 194.859 267.358 194.937C267.415 194.848 267.48 194.747 267.537 194.658C267.306 194.429 267.052 194.215 266.777 194.02C264.374 192.444 261.929 190.933 259.562 189.33C257.565 187.959 255.674 186.422 253.706 185.095C249.009 181.952 244.298 178.83 239.514 175.761C238.834 175.342 238.182 174.892 237.56 174.412C236.022 173.197 234.556 171.918 233.17 170.584C231.597 169.107 230.352 167.425 229.503 165.633C229.161 164.85 228.75 164.084 228.273 163.339C228.011 162.911 227.598 162.627 227.088 163.001C227.031 163.09 227.039 163.228 227.082 163.309C228.819 166.684 231.122 169.89 233.917 172.824C234.257 173.254 234.544 173.707 234.775 174.175C233.463 174.304 233.015 174.283 232.529 173.696C231.588 172.715 230.526 171.813 229.363 171.008C227.35 169.334 225.48 167.555 223.302 165.989C218.994 162.896 214.838 159.63 210.617 156.433C210.465 156.326 210.321 156.208 210.19 156.083C207.745 153.66 205.058 151.402 202.164 149.342C201.382 148.737 200.665 148.091 199.912 147.472L193.35 142.155C192.8 141.697 192.206 141.247 191.648 140.772L181.137 131.688ZM172.127 127.102L177.162 130.226L177.327 129.97C175.663 128.916 175.104 126.654 172.09 127.01L172.127 127.102ZM132.797 101.697C130.977 100.977 129.134 100.348 127.262 99.676C126.246 101.255 128.185 102.507 128.113 103.872C129.16 104.929 130.37 105.873 131.704 106.675C132.946 107.24 134.157 107.857 135.334 108.522C136.62 109.193 137.938 109.815 139.282 110.384C140.952 111.13 142.636 111.855 144.328 112.568C145.065 112.944 145.932 113.06 146.661 113.446C150.553 115.516 154.401 117.651 158.306 119.698C160.114 120.618 161.993 121.427 163.829 122.273C163.821 121.959 163.697 121.822 163.546 121.73C161.093 120.32 158.598 118.947 156.189 117.499C152.477 115.3 148.845 113.009 145.077 110.899C141.64 108.935 138.09 107.129 134.446 105.487C133.567 105.014 132.721 104.495 131.914 103.933C132.589 103.243 133.125 103.723 133.675 103.973C135.699 105.004 137.81 105.901 139.835 106.932C142.916 108.5 146.011 110.075 149.019 111.754C153.265 114.107 156.93 117.035 161.497 118.858C160.426 118.106 159.318 117.409 158.211 116.713C153.863 113.983 149.5 111.275 145.188 108.52C141.364 105.843 137.209 103.53 132.819 101.634L132.797 101.697ZM165.959 119.771C167.348 121.927 169.503 123.734 172.094 124.916C170.279 123.014 168.227 121.267 165.981 119.708L165.959 119.771ZM158.156 105.469C158.54 107.087 159.219 108.677 160.17 110.184C160.782 111.351 161.199 112.581 161.897 113.704C162.169 114.252 162.57 114.761 163.076 115.199C163.581 115.636 164.179 115.993 164.831 116.245L158.156 105.469ZM158.781 110.76C159.144 111.299 159.609 111.801 160.022 112.321L160.245 112.214C159.371 110.589 158.469 109.007 157.632 107.327C156.686 104.718 155.558 102.137 154.254 99.6011C153.936 99.0637 153.716 98.4987 153.603 97.9267C153.538 97.7013 153.768 97.4644 153.875 97.2382L154.228 97.2559L157.357 104.324C157.446 104.253 157.509 104.162 157.542 104.06C157.574 103.958 157.574 103.848 157.542 103.739C156.369 100.526 155.478 97.2757 154.875 94.0139C154.458 92.3634 153.917 90.7226 153.257 89.1022C153.183 88.9149 153.063 88.7375 152.904 88.5825C152.744 88.4281 152.552 88.2994 152.337 88.2056C151.651 88.0188 151.458 88.4962 151.28 88.9519C150.362 91.0581 150.42 93.4598 151.443 95.735C151.998 96.9914 152.394 98.2852 152.84 99.5301C153.457 101.316 154.183 103.084 155.015 104.829C156.143 106.865 157.509 108.799 158.781 110.76ZM136.285 93.5983C136.763 94.3827 137.296 95.1476 137.883 95.8879C138.509 96.5337 139.187 97.1452 139.912 97.7171C137.484 96.9539 136.322 95.2408 135.03 93.6683C133.547 94.1234 133.375 94.597 134.334 95.7041C136.846 98.4683 139.727 101.006 142.911 103.258C146.64 105.997 150.396 108.692 154.125 111.43C155.427 112.389 156.681 113.425 158.049 114.461C157.713 113.826 157.251 113.231 156.685 112.704C155.278 111.398 153.851 110.096 152.403 108.827C150.084 106.791 147.751 104.748 145.397 102.738C143.97 101.524 142.45 100.367 141.001 99.1571C140.776 98.9691 140.731 98.6507 140.542 98.2888C142.515 98.8648 148.64 103.606 152.011 107.078L154.692 109.417C154.088 108.386 153.498 107.333 152.011 107.078C151.966 106.76 152.03 106.394 151.819 106.183C150.138 104.412 148.477 102.637 146.65 100.97C144.231 98.7644 141.739 96.6698 139.247 94.5746C138.892 94.1971 138.419 93.9019 137.892 93.7276C137.364 93.5538 136.804 93.5084 136.285 93.5983ZM115.669 78.8843C115.624 78.9395 115.586 78.9992 115.554 79.0623L124.317 84.5106C124.353 84.455 124.396 84.3886 124.431 84.3331L115.669 78.8843ZM112.188 75.1349C107.184 72.499 101.971 70.1264 97.3895 66.8941C93.7991 64.3582 89.965 62.082 86.2025 59.7241C83.2073 57.9045 80.126 56.1885 77.0662 54.4392C76.4853 54.0722 75.8321 53.8014 75.1491 53.6444C74.466 53.4874 73.7684 53.4478 73.1016 53.5282C71.732 53.7166 71.3665 54.1947 72.2946 55.1689C73.4452 56.5156 74.7821 57.7565 76.2728 58.8614C79.8263 61.2457 83.5521 63.4816 87.2274 65.7064C88.4346 66.3872 89.6917 66.9973 90.987 67.5315C95.1297 69.4187 99.3294 71.2464 103.444 73.1781C106.191 74.4583 108.824 75.9165 111.571 77.2267C110.653 76.4383 109.64 75.7299 108.553 75.1146C106.774 74.0908 104.958 73.0929 103.171 72.0802C102.55 71.7637 102.006 71.3249 101.391 71.0267C98.1525 69.4666 94.8487 67.9769 91.6598 66.3389C88.7669 64.8666 85.9817 63.2276 83.1169 61.5333C80.2409 60.0621 77.7034 58.1366 75.6739 55.8853C76.8685 55.3127 77.4495 56.1102 78.036 56.5711C79.4306 57.7562 80.9007 58.879 82.4382 59.9334C85.9546 62.1069 89.5282 64.1914 93.181 66.213C95.3002 67.395 97.5625 68.3547 99.804 69.4365C100.975 70.0327 102.247 70.503 103.397 71.1326C107.723 73.5408 111.891 76.1937 116.46 78.2832C117.934 79.0691 119.338 79.9513 120.656 80.921L125.223 83.8504C125.396 83.9386 125.67 83.9305 126.262 84.0251C125.002 83 124.089 82.1513 123.054 81.4326C119.595 79.1299 115.963 77.0248 112.188 75.1349ZM132.276 80.7399L132.15 77.0598C132.129 75.78 132.043 74.4819 132.153 73.2093C132.225 69.6482 133.312 66.2548 135.328 63.2992C135.775 62.608 136.05 61.837 136.139 61.0259C136.441 59.394 137.807 58.4363 138.947 57.0241C139.102 57.3674 139.151 57.7269 139.089 58.0681C139.028 58.409 138.857 58.7199 138.596 58.9707C137.696 60.0519 137.089 61.2982 136.811 62.6371C136.629 63.3211 136.344 63.9741 135.962 64.5813C134.897 66.222 134.192 68.0323 133.875 69.9388C133.785 70.7935 133.457 71.6006 133.281 72.4408C133.182 72.9218 133.178 73.436 133.115 74.0094C133.346 73.8905 133.483 73.8569 133.526 73.7902C135.177 70.69 136.863 67.5934 138.428 64.4787C139.078 63.017 139.937 61.6422 140.99 60.3812C141.483 59.7163 141.903 59.0125 142.249 58.2771C143.384 55.9227 143.755 53.2978 143.33 50.6361C143.224 50.0936 143.05 49.5546 142.81 49.0284C141.82 48.9781 140.861 49.1328 140.022 49.4787C139.182 49.8244 138.488 50.3503 138.001 51.0084C137.392 51.8421 136.889 52.7327 136.5 53.668C134.426 58.2513 132.677 62.9579 131.26 67.7666C129.929 71.8987 130.285 76.4411 132.276 80.7399ZM127.603 78.0959L128.158 78.0094C127.954 77.5513 127.743 77.1042 127.56 76.6423C126.888 74.9721 126.217 73.302 125.573 71.6168C125.237 70.7668 125.031 69.8648 124.681 69.0373C124.191 67.8288 123.507 66.6543 123.155 65.4419C122.627 63.6088 121.449 61.7991 121.786 59.9044C120.755 58.5237 121.116 57.0394 120.719 55.5978C120.447 54.5297 120.074 53.469 119.701 52.4083C119.327 51.3476 118.854 50.2651 118.545 49.1931C118.344 48.7374 118.263 48.2626 118.309 47.8035C118.356 47.3446 118.528 46.9129 118.814 46.5404C119.061 47.0797 119.236 47.4048 119.339 47.7227C119.563 48.5984 119.842 49.4693 120.174 50.3321C121.668 53.5869 121.995 56.9263 122.935 60.2087C123.605 62.5668 124.29 64.9225 124.989 67.2757C125.102 67.506 125.251 67.7259 125.432 67.9293C124.978 63.5066 124.393 59.1358 123.514 54.7772C122.841 51.409 121.85 48.027 120.889 44.7188C120.479 43.2856 119.519 41.9459 118.158 40.9085C116.096 42.5893 114.525 44.3428 115.469 47.0519C116.201 49.1362 116.925 51.2612 117.895 53.3043C119.109 55.8529 120 58.4688 120.552 61.106C120.781 62.5413 121.142 63.9738 121.633 65.3904C122.984 68.7197 124.479 72.0338 125.981 75.3369C126.469 76.3086 127.072 77.1909 127.603 78.0959ZM108.611 62.0239C108.855 62.2204 109.124 62.3924 109.414 62.5359C108.93 61.6466 108.344 60.7893 107.663 59.977C105.515 57.2314 103.048 54.6451 100.304 52.2611C98.0344 50.182 96.0027 47.9412 94.2405 45.574C93.6013 44.6878 92.8759 43.8464 92.1506 43.0344C90.6054 41.2591 88.9523 39.5322 87.4935 37.7123C85.8241 35.6229 84.2554 33.4667 82.7661 31.3066C82.3302 30.6714 81.5408 30.0483 81.7523 29.0639C82.1181 29.2884 82.4559 29.5446 82.7588 29.827C83.9632 31.2666 85.1174 32.7248 86.293 34.1791C87.6502 35.8587 88.9857 37.5421 90.3861 39.2142C91.5977 40.6426 92.9389 41.9893 94.1362 43.44C95.3335 44.8906 96.2117 45.9722 97.2352 47.2458C98.786 49.1365 100.537 50.9221 102.462 52.5776C104.099 54.0012 105.679 55.4546 107.331 56.9448C106.948 55.8989 106.468 54.8697 105.895 53.8672C104.812 52.2092 103.549 50.6217 102.322 49.0084C99.766 45.6414 97.1819 42.2894 94.6189 38.9334C93.6751 37.6856 92.7528 36.434 91.773 35.2121C89.2689 32.0632 86.7288 28.9108 84.2175 25.773L80.3782 21C79.44 21.309 78.6597 21.8421 78.1262 22.5386C77.5928 23.2351 77.3276 24.067 77.3608 24.9396C77.9337 27.378 79.0676 29.7599 80.6991 31.9517C81.9856 33.9496 83.6899 35.8058 85.1493 37.7441C87.0365 40.2414 89.1752 42.6194 91.5392 44.8484C91.8675 45.1925 92.1682 45.5527 92.4389 45.9262C93.9917 47.7792 95.5087 49.6582 97.0969 51.485C97.8072 52.2044 98.5618 52.894 99.3577 53.5507L108.611 62.0239ZM117.327 72.8508C116.773 72.2508 116.298 71.6076 115.911 70.9346C115.575 70.0551 114.58 70.0208 113.956 69.4969C113.841 69.4382 113.848 69.2791 113.76 69.2052C112.989 68.5408 112.179 67.907 111.335 67.3066C109.989 66.4147 108.484 65.5603 107.059 64.7022C105.677 63.8659 104.353 63.1184 103.058 62.2673C100.062 60.27 97.0875 58.2394 94.1127 56.2383C93.2297 55.6413 92.311 55.0999 91.4277 54.4437C88.9658 52.5412 86.6188 50.5202 84.0491 48.6957C81.9435 47.2014 79.9183 45.6288 77.9812 43.9838C76.0938 42.4358 74.4249 40.7184 73.015 38.8733C74.0744 38.6894 74.4955 39.2283 75.0317 39.7374C77.1029 41.808 79.2968 43.7967 81.6034 45.6946C83.877 47.4422 86.2943 49.0858 88.5538 50.8852C91.8415 53.5031 95.3805 55.9096 98.8905 58.3013C101.785 60.247 104.81 62.0521 107.783 63.905C108.069 64.0326 108.371 64.1266 108.679 64.1838C108.736 64.0949 108.801 63.9948 108.859 63.9061C107.798 63.1817 106.778 62.4162 105.803 61.613C103.341 59.5204 100.653 57.6183 97.783 55.9369C94.9716 54.2652 92.3078 52.4157 89.8209 50.4085C87.4885 48.4244 85.3504 46.3473 83.0971 44.3297C80.1704 41.7774 77.1503 39.3104 74.2379 36.7359C73.5561 36.1066 72.717 35.6073 71.7945 35.2819C70.872 34.9565 69.8947 34.8151 68.9486 34.8702C68.9835 35.3909 69.1125 35.9143 69.3314 36.4228C70.099 37.5675 70.9378 38.6842 71.8436 39.7677C74.3434 42.7363 77.3283 45.4299 80.6976 47.7572C85.5985 51.3291 90.6142 54.7528 95.6799 58.1281C99.0817 60.3909 102.655 62.4754 106.178 64.6081C106.366 64.7038 106.705 64.6254 106.979 64.6468C107.489 65.2442 108.057 65.8097 108.675 66.3366C111.361 68.2791 114.341 69.9435 116.503 72.372C116.655 72.553 116.915 72.6263 117.284 72.8287L117.327 72.8508ZM119.257 73.6708L118.797 73.7904L119.466 75.0167L119.891 74.8935L119.257 73.6708ZM94.891 18.0264C94.261 19.0046 94.8644 19.9463 95.2292 20.7813C96.1621 22.732 97.2541 24.7636 98.2159 26.729C99.9581 30.4347 101.499 34.1852 103.335 37.8647C105.17 41.5442 106.478 44.9106 107.823 48.4581C108.142 49.4776 108.537 50.4873 109.007 51.481C110.219 53.5781 111.05 55.7785 111.469 58.0033C111.637 59.6012 112.128 61.1977 112.92 62.7268C114.834 65.9586 116.379 69.2838 118.098 72.5788C118.259 72.5311 118.425 72.4925 118.595 72.4629C117.939 71.0073 117.188 69.5775 116.655 68.1106C115.521 64.9507 115.246 61.7112 113.918 58.5558C113.144 56.7748 112.594 55.0044 111.821 53.2529C110.683 50.6371 109.408 48.0547 108.212 45.439C107.016 42.8231 105.943 40.3141 104.769 37.7833L99.7953 26.6622C99.3796 25.757 99.0219 24.8812 98.5917 23.9391C98.4092 23.5068 98.4071 23.0925 99.4381 22.9827C103.256 30.8294 106.858 38.7139 110.245 46.6359C109.948 44.375 109.259 42.1205 108.199 39.9422C106.375 35.6783 104.551 31.5031 102.705 27.2429C101.737 24.9155 100.369 22.6775 98.6474 20.6025C97.715 19.4647 96.3977 18.5613 94.891 18.0264ZM259.692 183.434C259.683 183.267 259.726 183.082 259.646 182.968C255.266 177.285 250.872 171.604 246.463 165.927C246.323 165.745 246.149 165.582 245.948 165.444C245.948 165.444 245.71 165.426 245.32 165.404C245.498 165.895 245.727 166.377 246.005 166.845C247.347 168.738 248.761 170.639 250.246 172.546C252.961 176.083 255.727 179.601 258.464 183.134C258.841 183.591 259.181 183.72 259.692 183.434ZM242.424 192.355C242.186 192.337 241.979 192.748 241.505 193.215C246.71 194.079 251.266 193.534 255.92 193.822C256.36 193.855 256.792 193.632 257.49 193.471C256.97 193.205 256.897 193.05 256.789 193.04C251.964 192.778 247.159 192.546 242.373 192.344L242.424 192.355ZM207.635 163.269C205.953 162.984 204.264 162.77 202.576 162.627C200.895 162.424 199.214 162.297 197.539 162.248C192.987 162.189 188.388 161.368 183.859 161.631C182.518 161.716 181.133 161.601 179.791 161.686C177.196 161.84 174.658 162.025 172.105 162.201C171.067 162.292 170.043 162.421 168.997 162.523L169.021 162.845C169.313 163.018 169.637 163.143 169.975 163.212C171.943 163.354 173.897 163.319 175.802 163.109C179.897 162.572 184.113 162.44 188.366 162.715C193.452 162.779 198.576 163.292 203.685 163.649C204.861 163.75 206.038 163.915 207.207 164.143C210.131 164.672 213.055 165.231 215.972 165.771L216.179 165.448C215.703 165.139 215.188 164.876 214.647 164.668C212.3 164.226 209.953 163.696 207.585 163.258L207.635 163.269ZM172.626 105.513C170.422 102.735 168.693 99.7514 167.497 96.6602C167.152 95.7833 166.716 94.9242 166.193 94.0928L165.689 94.0718C165.589 94.4049 165.23 94.7831 165.412 95.0674C166.818 97.8343 168.246 100.598 169.715 103.294C170.37 104.454 171.335 105.52 172.091 106.643C173.181 108.261 174.199 109.9 175.224 111.529C175.348 111.797 175.538 112.047 175.78 112.263C176.023 112.477 176.312 112.653 176.63 112.776L176.224 110.931C175.741 110.37 175.293 109.793 174.881 109.199C174.153 108.003 173.483 106.717 172.626 105.513ZM254.048 201.917C254.048 201.917 254.049 202.094 254.058 202.349C256.471 202.881 258.925 203.098 261.325 202.993C259.156 202.007 256.834 202.272 254.638 201.686C254.458 201.638 254.214 201.809 254.048 201.917Z" fill="#101A24"/>
</g>
</svg>
