<svg width="319" height="323" viewBox="0 0 319 323" fill="none" xmlns="http://www.w3.org/2000/svg">
<g opacity="0.1">
<path d="M87.9262 222.452C88.1775 220.565 88.5425 218.694 89.019 216.85C91.0406 209.592 93.1409 202.402 95.2731 195.118C95.8862 193.168 96.7403 191.301 97.814 189.562C99.4928 186.622 100.792 183.481 101.68 180.215C103.09 175.494 104.417 170.753 105.851 166.034C106.817 163.221 108.339 160.633 110.329 158.422C112.991 154.957 115.391 151.298 117.508 147.476C118.796 145.3 120.198 143.183 121.521 141.022C123.886 137.297 125.5 133.146 126.27 128.802C127.037 123.759 126.306 118.952 126.027 114.056C126.007 113.874 125.778 113.756 125.497 113.155C125.262 114.298 125.082 115.086 124.906 115.851C124.322 120.321 123.198 124.705 121.557 128.905C120.286 131.815 118.822 134.622 117.506 137.503C116.447 139.796 115.503 142.147 114.482 144.432C113.102 148.129 111.032 151.529 108.382 154.454C106.664 156.507 105.107 158.69 103.726 160.983C100.39 165.506 97.0756 170.055 93.5932 174.482C92.4724 175.761 91.1593 176.857 89.7001 177.73C89.1293 178.208 88.1334 178.07 87.1685 178.259C87.0579 177.493 86.8083 176.931 86.9246 176.436C87.7095 171.732 89.0465 167.135 90.9066 162.743C92.3049 159.749 93.2175 156.543 94.4206 153.448C95.1852 151.488 96.1011 149.579 96.8771 147.633C97.9089 145.098 98.8618 142.52 99.8593 139.969C100.583 138.712 101.092 137.342 101.365 135.917C101.462 134.527 101.821 133.167 102.422 131.908C102.967 130.488 103.221 128.972 103.166 127.451C103.112 125.931 102.75 124.437 102.103 123.06C101.747 122.223 101.484 121.35 101.318 120.457C100.649 116.924 100.365 113.33 100.472 109.736C100.546 107.186 100.208 104.672 100.171 102.149C100.127 100.389 100.201 98.6271 100.394 96.8769C100.928 92.689 101.615 88.5266 102.168 84.3888C102.512 81.4594 102.765 78.5184 102.927 75.5649C103.017 72.0443 103.465 68.542 104.265 65.1132C105.335 60.9616 106.219 56.7451 107.443 52.6189C108.116 50.3271 109.08 48.1317 110.312 46.0858C111.611 43.8821 112.018 41.2658 111.451 38.772C110.771 34.7386 110.224 30.6814 109.397 26.6826C108.528 23.0041 107.517 19.445 106.661 15.7557C106.393 14.3077 106.237 12.8417 106.193 11.3696C106.144 10.9424 106.238 10.5107 106.463 10.1438C106.687 9.77696 107.028 9.49596 107.431 9.34513C108.069 9.05447 108.709 8.74021 109.359 8.46299C112.166 7.26365 114.12 8.89171 114.797 11.6289C116.087 17.1573 116.944 22.6949 118.091 28.2101C118.538 30.0536 119.078 31.8725 119.712 33.6605C119.784 33.931 119.989 34.1773 120.003 34.4307C120.291 37.7564 121.936 40.5451 123.202 43.5392C124.186 45.4709 125.593 47.1566 127.318 48.4705C129.754 50.5978 132.19 52.7255 134.495 54.9852C137.532 57.787 140.401 60.7664 143.087 63.9074C148.374 70.3456 152.604 77.5852 155.615 85.3528C156.913 88.9138 157.704 92.6576 158.804 96.2962C159.636 99.0597 160.577 101.796 161.518 104.533C162.46 107.27 163.437 109.998 164.318 112.742C164.494 113.321 164.3 114.012 164.234 115.015C163.615 114.721 163.031 114.359 162.495 113.933C161.031 112.337 159.595 110.696 158.208 109.035C155.241 105.48 152.184 101.977 149.435 98.2601C145.754 93.2968 142.357 88.1181 138.78 83.0673C137.855 81.7486 136.711 80.5895 135.671 79.3437C134.894 78.3481 134.235 77.2657 133.706 76.1182C132.458 73.2001 130.942 70.4044 129.179 67.7666C127.675 65.3161 126.3 62.7887 125.061 60.1949C124.845 59.9355 124.705 59.6113 124.37 59.0765C124.007 60.1111 124.055 61.2449 124.504 62.2451C126.102 65.6397 126.893 69.358 126.813 73.109C126.905 74.7879 127.404 76.4188 128.269 77.8605C129.293 79.9567 130.174 82.1206 130.901 84.3379C132.131 88.001 133.211 91.7223 134.319 95.422C134.761 96.902 135.057 98.4163 135.487 99.9074C136.146 102.587 137.401 105.084 139.16 107.211C140.77 109.192 141.975 111.469 142.708 113.915C145.068 120.752 147.415 127.467 149.441 134.406C150.479 137.811 150.919 141.451 151.773 144.9C152.625 148.349 153.568 152.01 154.263 155.613C155.054 159.752 155.66 163.935 156.244 168.115C156.755 171.366 157.045 174.668 157.397 177.963C157.389 178.352 157.334 178.738 157.233 179.113C157 179.164 156.759 179.168 156.525 179.125C156.29 179.082 156.066 178.994 155.866 178.864C155.666 178.734 155.493 178.567 155.358 178.37C155.223 178.173 155.127 177.952 155.079 177.719C154.3 175.836 153.485 173.963 152.672 172.066C150.417 166.727 148.035 161.471 145.778 156.156C142.623 148.684 139.555 141.183 136.437 133.702C135.497 131.399 134.434 129.148 133.252 126.958C133.234 128.229 133.168 129.495 133.231 130.785C133.512 135.263 133.938 139.729 134.158 144.212C134.358 147.987 134.315 151.787 134.442 155.579C134.562 156.801 134.828 158.006 135.234 159.166C136.579 163.328 138.323 167.351 140.44 171.179C141.977 173.879 143.984 176.282 146.364 178.277C148.555 180.323 150.996 182.139 153.043 184.327C155.602 186.856 157.802 189.723 159.583 192.849C159.843 193.161 159.997 193.582 160.229 193.939C161.685 196.158 163.293 198.295 164.595 200.621C166.155 203.402 168.34 205.784 170.976 207.58C173.683 209.621 175.858 212.282 177.321 215.34C177.435 215.52 177.518 215.719 177.568 215.926C178.307 219.449 179.809 222.752 180.156 226.36C180.219 227.121 180.441 227.862 180.565 228.616C180.688 229.372 180.342 230.013 179.408 229.868C178.744 229.751 178.116 229.485 177.57 229.09C175.896 227.823 174.224 226.533 172.658 225.132C171.093 223.731 169.587 222.059 168.056 220.541C167.428 219.789 166.564 219.254 165.909 218.524C164.678 217.357 163.588 216.051 162.66 214.631C161.357 212.367 159.722 210.31 157.81 208.53C155.989 206.769 154.132 204.994 152.251 203.372C151.25 202.49 150.047 201.866 148.994 201.027C147.515 199.862 146.092 198.605 144.631 197.382C144.468 197.187 144.227 197.057 143.782 196.681C143.846 198.498 144.156 200.298 144.704 202.032C145.498 205.464 146.343 208.876 147.051 212.336C147.683 215.441 148.168 218.581 148.716 221.69C148.849 222.166 148.926 222.657 148.944 223.151C149.051 225.96 149.434 228.752 150.089 231.486C150.692 235.584 151.234 239.69 151.8 243.796C152.366 247.904 152.862 251.717 153.393 255.676C151.395 257.344 150.488 257.155 149.445 254.877C148.763 253.399 148.241 251.852 147.533 250.397C146.285 247.872 145.086 245.328 143.649 242.894C141.55 239.459 140.052 235.692 139.216 231.754C138.402 227.613 137.147 223.552 136.162 219.443C135.433 216.353 134.85 213.229 134.147 210.117C133.784 208.548 133.337 206.984 132.901 205.432C132.23 202.804 131.367 200.227 130.319 197.724C130.118 198.339 129.957 198.965 129.838 199.6C129.298 203.86 128.819 208.113 128.292 212.362C128.105 213.905 127.765 215.422 127.69 216.916C127.318 220.77 127.007 224.618 126.721 228.468C126.172 235.354 125.684 242.235 125.088 249.117C124.866 249.995 124.511 250.833 124.036 251.603C123.171 251.313 122.383 250.832 121.73 250.196C121.077 249.559 120.575 248.784 120.263 247.927C118.023 243.439 116.902 238.475 116.994 233.46C116.904 229.132 116.494 224.763 116.19 220.415C115.786 214.39 114.727 208.427 115.3 202.334C115.33 201.582 115.445 200.836 115.644 200.11C116.869 195.558 117.639 190.896 117.942 186.193C118.093 185.152 118.411 184.143 118.883 183.205C120.293 180.313 121.309 177.243 121.902 174.081C122.475 171.476 123.187 168.905 124.036 166.377C125.44 162.681 126.007 158.719 125.694 154.778C125.634 154.365 125.772 153.897 125.437 153.363C124.956 154.711 124.426 156.056 124.025 157.448C122.562 162.5 121.121 167.562 119.704 172.635C118.883 175.028 118.295 177.495 117.948 180.001C117.774 181.698 117.165 183.321 116.179 184.714C114.671 187.074 113.803 189.779 112.337 192.191C110.208 195.916 107.852 199.507 105.285 202.944C102.894 205.897 100.927 209.17 99.4403 212.666C98.3306 215.099 96.9113 217.38 95.2166 219.449C94.1684 220.83 93.1629 222.264 92.0167 223.529C91.4327 224.116 90.6866 224.517 89.8734 224.679C89.5784 224.744 89.2711 224.727 88.9839 224.632C88.6972 224.537 88.4415 224.367 88.2429 224.14C88.0438 223.913 87.9097 223.636 87.8538 223.339C87.7981 223.043 87.8232 222.736 87.9262 222.452ZM165.589 127.269C165.121 130.686 165.01 134.143 165.26 137.584C165.421 139.122 165.641 140.678 165.696 142.195C165.81 146.262 166.248 150.314 167.004 154.313C168.038 161.015 169.972 167.547 172.754 173.731C173.072 174.427 173.525 175.052 174.089 175.567C174.588 175.887 175.141 176.112 175.721 176.231C175.916 175.672 176.313 175.12 176.279 174.577C176.098 170.852 175.991 167.111 175.507 163.419C175.213 161.612 175.144 159.777 175.304 157.953C175.741 154.836 175.289 151.736 176.347 148.651C176.411 148.464 176.348 148.231 176.355 148.027C176.351 145.147 176.251 142.258 176.402 139.38C176.624 135.451 177.074 131.531 177.358 127.574C177.517 125.68 177.712 123.778 177.702 121.892C177.584 119.433 177.743 116.968 178.172 114.543C178.521 112.816 178.761 111.071 178.895 109.315C179.184 106.389 179.413 103.446 179.631 100.489C179.798 98.6731 179.871 96.849 179.847 95.0248C179.759 92.0168 179.511 89.03 179.362 86.0287C179.362 86.0287 179.557 85.8661 179.777 85.6822C180.026 86.0093 180.244 86.3582 180.427 86.7247C182.025 90.5647 183.597 94.4266 185.128 98.213C187.134 102.746 187.759 107.769 186.923 112.655C186.324 115.973 186.019 119.354 185.416 122.72C184.812 126.085 183.701 129.633 183.108 133.144C182.516 136.654 182.166 140.667 181.743 144.433C181.526 146.309 181.449 148.222 181.103 150.075C180.292 154.459 179.863 158.906 179.821 163.364C179.857 164.716 180.008 166.063 180.274 167.389C180.533 169.044 180.987 170.67 181.256 172.337C181.954 176.576 182.616 180.824 183.266 185.059C183.453 186.312 183.567 187.582 183.827 188.818C184.455 191.706 185.143 194.588 185.821 197.458C186.498 200.327 187.136 203.096 187.868 205.898C188.128 206.869 188.389 207.974 189.586 208.273C191.286 207.118 191.31 207.12 191.282 205.426C191.275 204.441 191.16 203.459 191.075 202.539C191.029 199.846 190.871 197.205 190.871 194.54C190.823 192.361 190.922 190.181 191.172 188.015C191.846 183.204 192.803 178.442 193.487 173.644C194.283 168.004 194.926 162.337 195.603 156.686C195.932 153.968 196.285 151.251 196.413 148.503C196.615 144.209 196.706 139.921 196.684 135.639C196.664 132.397 196.458 129.223 196.226 125.938C196.147 124.419 195.986 122.88 195.859 121.356L196.315 121.218C196.731 122.059 197.098 122.92 197.564 123.742C200.349 128.662 202.394 133.965 203.634 139.482C203.833 140.304 204.077 141.115 204.362 141.911C205.668 145.797 207.026 149.639 208.308 153.523C209.482 157.145 210.582 160.784 211.67 164.434C212.056 165.741 212.853 167.013 212.083 168.492C211.965 168.745 212.166 169.171 212.231 169.512C212.722 171.129 213.087 172.806 213.385 174.561C213.69 175.871 213.855 177.209 213.877 178.553C213.733 183.629 212.447 188.608 210.116 193.119C209.001 195.37 208.138 197.764 207.092 200.047C206.686 201.32 206.033 202.501 205.171 203.522C203.568 205.189 202.109 207.002 200.65 208.814C199.123 211.106 197.208 213.115 194.99 214.748C194.743 214.877 194.526 215.059 194.355 215.279C192.465 218 190.507 220.692 188.756 223.474C186.236 227.604 183.85 231.841 181.443 236.052C179.532 239.407 177.689 242.818 175.813 246.189C175.428 246.862 174.998 247.507 174.659 248.209C173.161 251.242 171.837 254.351 170.158 257.271C169.205 258.926 168.683 260.99 166.68 261.914C166.459 262.098 166.279 262.49 166.12 262.799C165.331 264.361 164.529 265.932 163.796 267.534C163.466 268.06 163.287 268.667 163.279 269.287C163.39 270.122 163.198 270.969 162.74 271.675C162.545 272.101 162.673 272.677 162.639 273.19C163.171 273.254 163.71 273.241 164.238 273.154C164.606 272.949 164.931 272.677 165.199 272.353C167.366 270.544 169.52 268.746 171.687 266.937C172.951 266.18 174.171 265.352 175.342 264.459C177.362 262.509 179.119 260.303 180.566 257.897C183.807 252.608 187.784 247.808 192.375 243.637C192.647 243.41 192.92 243.182 193.258 243.032C195.695 241.152 198.288 239.406 200.574 237.344C206.16 232.066 210.7 225.782 213.956 218.821L214.259 218.26C216.45 214.076 218.19 209.672 219.45 205.12C219.587 204.677 219.744 204.258 220.017 203.503C220.24 203.891 220.437 204.293 220.604 204.709C221.431 207.915 222.282 211.123 223.049 214.337C223.815 217.55 224.428 221.266 225.493 224.625C226.822 228.551 228.771 232.239 231.265 235.55C231.779 236.217 232.209 236.945 232.546 237.717C233.918 241.129 235.327 244.532 236.527 248C237.913 251.837 239.874 255.441 242.344 258.688C242.891 259.333 243.371 260.032 243.776 260.774C245.854 265.091 247.525 269.592 248.768 274.22C249.587 277.258 250.833 280.202 251.881 283.225C251.938 283.42 252.035 283.602 252.165 283.758C252.296 283.915 252.456 284.043 252.639 284.135C252.82 284.227 253.019 284.28 253.222 284.292C253.426 284.304 253.63 284.273 253.821 284.203C254.671 283.956 254.564 283.143 254.566 282.458C254.598 281.045 254.616 279.643 254.753 278.251C255.062 274.955 255.67 271.674 255.726 268.391C255.786 264.532 255.402 260.669 255.162 256.796C255.06 253.489 254.669 250.198 253.997 246.958C253.171 243.752 252.007 240.642 250.525 237.681C247.707 231.667 245.051 225.584 242.382 219.511C241.465 217.437 240.734 215.295 239.845 213.043C240.755 213.737 241.573 214.374 242.381 214.999C245.646 217.215 248.596 219.863 251.152 222.869C252.447 224.46 253.891 225.924 255.462 227.242C255.719 227.453 256.018 227.606 256.34 227.691C256.662 227.776 256.998 227.79 257.326 227.734C258.105 227.48 257.98 226.593 257.815 225.894C257.707 225.335 257.539 224.789 257.314 224.265C255.463 220.702 253.675 217.109 251.666 213.568C250.559 211.608 249.033 209.886 247.827 207.965C246.011 205.078 244.377 202.171 242.723 199.214C242.561 199.019 242.5 198.762 242.236 198.234L243.463 198.596C245.67 199.524 247.969 200.218 250.32 200.666C250.867 200.777 251.385 200.995 251.847 201.308C252.704 201.781 253.486 202.427 254.363 202.818C257.772 204.525 260.997 206.577 263.987 208.942C266.248 210.577 268.548 212.173 270.888 213.728C275.075 216.608 278.816 220.087 281.994 224.053C283.077 225.35 284.413 226.635 284.302 228.533C286.099 229.103 286.698 228.977 286.637 227.927C286.545 225.103 285.925 222.319 284.808 219.722C283.188 216.509 281.031 213.597 278.432 211.108C276.86 209.48 275.66 207.529 274.916 205.391C273.786 201.965 271.736 198.915 268.99 196.576C265.742 194.003 262.493 191.431 259.042 189.115C256.253 187.172 253.27 185.523 250.201 183.615C253.356 183.359 256.169 183.037 259.017 182.861C264.542 182.544 269.302 180.068 274.019 177.518C277.831 175.23 281.865 173.339 286.061 171.87C288.815 171.003 291.495 169.888 294.171 168.821C294.706 168.617 295.519 167.982 295.469 167.738C295.248 167.044 294.833 166.428 294.273 165.962C293.824 165.621 293.304 165.386 292.751 165.273C291.183 164.848 289.535 164.811 287.949 165.165C284.9 165.705 281.797 166.314 278.677 166.717C273.223 167.347 267.848 168.535 262.637 170.263C257.812 171.924 252.731 172.713 247.63 172.595C242.779 172.362 237.966 171.603 233.278 170.33C230.917 169.919 228.624 169.18 226.468 168.132C225.568 167.607 224.509 167.368 223.554 166.909C222.99 166.65 222.489 166.273 222.082 165.805C218.02 160.674 216.258 154.527 214.197 147.97C215.024 148.512 215.479 148.793 215.894 149.107C218.411 151.013 220.912 152.955 223.453 154.84C226.243 156.915 229.084 158.947 231.81 160.921C232.44 161.386 233.003 161.928 233.664 162.324C234.881 163.07 235.487 162.74 235.611 161.359C235.651 160.907 235.846 160.481 235.876 160.015C235.906 159.55 236.029 158.853 235.788 158.46C234.913 156.989 233.868 155.527 232.833 154.101C231.797 152.676 230.862 151.739 230.055 150.431C226.517 144.82 223.052 139.191 219.564 133.561C219.184 133.107 219.073 132.473 218.621 131.508L219.703 132.145C223.525 134.482 226.475 137.832 229.92 140.614C232.101 142.519 234.413 144.268 236.841 145.846C238.899 147.055 240.862 148.42 242.713 149.928C244.544 151.594 246.688 152.88 249.02 153.712C251.254 154.357 253.473 155.037 255.698 155.646C259.373 156.673 263.038 157.688 266.72 158.643C270.049 159.614 273.58 159.658 276.933 158.772C277.594 158.548 278.299 158.488 278.988 158.597C279.758 158.728 280.548 158.654 281.279 158.38C282.01 158.106 282.655 157.644 283.149 157.04C284.252 156.119 283.909 154.732 282.486 154.268C281.414 153.95 280.309 153.75 279.193 153.671C277.367 153.661 275.561 153.29 273.879 152.58C272.489 151.891 271.099 151.202 269.82 150.354C268.451 149.587 267.137 148.727 265.887 147.78C262.613 145.097 259.444 142.303 256.168 139.644C252.892 136.984 249.856 134.719 246.679 132.153C241.711 128.076 236.075 124.893 230.019 122.743C227.962 121.993 225.951 121.141 223.892 120.415C222.706 119.996 221.44 119.798 220.234 119.461C217.81 119.006 215.509 118.047 213.48 116.644C212.23 115.606 210.887 114.686 209.468 113.895C207.64 112.981 205.97 111.781 204.52 110.341C203.09 109.12 201.778 107.768 200.599 106.303C198.352 103.056 195.911 99.947 193.29 96.9923C192.646 96.0876 192.106 95.1133 191.68 94.0877C191.364 93.471 191.211 92.7612 190.934 92.1119C189.533 88.8775 188.107 85.665 186.694 82.4418C186.627 82.1851 186.578 81.9238 186.548 81.6605C187.042 81.8147 187.522 82.0107 187.983 82.2457C190.568 83.7867 193.206 85.2846 195.719 86.951C199.955 89.7569 204.095 92.6859 208.278 95.5349C209.149 96.132 210.07 96.6527 211.03 97.0911C214.866 98.8648 218.821 100.385 222.527 102.399C225.096 103.907 227.875 105.023 230.774 105.711C236.63 106.898 242.531 107.874 248.412 108.932C249.581 109.146 250.749 109.491 251.929 109.585C255.362 109.847 258.866 109.982 262.241 110.202C264.356 110.309 266.463 110.355 268.56 110.388C269.519 110.402 270.101 109.807 269.718 109.136C268.796 107.505 268.535 105.478 266.725 104.39C265.948 103.783 265.209 103.127 264.514 102.427C262.163 100.35 259.673 98.4333 257.063 96.6915C253.915 94.9914 250.658 93.503 247.312 92.2367C244.258 90.9774 241.088 90.0557 238.025 88.7594C232.882 86.4481 227.828 84.0605 222.782 81.4697C219.649 79.6749 216.417 78.0577 213.102 76.6254C210.862 75.7875 208.731 74.6593 206.517 73.7998C204.21 72.743 201.797 71.9381 199.317 71.3991C194.729 70.6072 190.227 69.3819 185.871 67.7392C180.822 66.0228 176.563 62.5407 173.878 57.934C173.456 57.2006 172.991 56.4935 172.485 55.8167C169.092 51.5145 165.65 47.2323 162.271 42.9198C159.955 39.9871 157.741 36.9915 155.451 34.0372C154.904 33.3436 154.13 32.8662 153.265 32.6893C152.4 32.5128 151.501 32.648 150.726 33.0714C147.897 35.4321 146.805 39.822 149.76 42.4645C151.037 43.5995 152.326 44.8795 153.569 46.1317C154.82 47.2751 155.972 48.5231 157.013 49.8623C158.79 52.3865 160.334 55.0815 161.997 57.6795C162.722 58.8128 163.476 59.9009 164.215 61.0234C166.746 64.8995 169.768 68.5201 170.198 73.4671C170.735 75.8614 171.054 78.3 171.15 80.7529C170.767 85.51 170.081 90.238 169.093 94.908C168.136 99.6699 167.356 104.468 166.752 109.301C165.978 113.814 165.594 118.384 165.605 122.962C165.714 124.396 165.709 125.836 165.589 127.269Z" fill="white"/>
<path d="M89.8734 224.679C90.6866 224.517 91.4327 224.116 92.0167 223.529C93.1629 222.264 94.1685 220.83 95.2166 219.449C96.9113 217.38 98.3306 215.099 99.4403 212.666C100.927 209.17 102.894 205.897 105.285 202.944C107.852 199.507 110.208 195.916 112.337 192.191C113.777 189.801 114.671 187.074 116.179 184.714C117.158 183.322 117.762 181.703 117.935 180.011C118.282 177.505 118.87 175.039 119.691 172.646C121.117 167.566 122.557 162.503 124.012 157.459C124.413 156.067 124.943 154.722 125.424 153.374C125.825 153.854 125.622 154.376 125.68 154.789C125.993 158.731 125.427 162.692 124.023 166.388C123.174 168.916 122.462 171.488 121.889 174.092C121.296 177.254 120.281 180.324 118.87 183.216C118.398 184.154 118.08 185.163 117.929 186.203C117.675 190.886 116.959 195.533 115.791 200.075C115.593 200.801 115.478 201.547 115.446 202.299C114.852 208.367 115.932 214.355 116.338 220.38C116.641 224.728 117.004 229.092 117.142 233.425C117.049 238.44 118.171 243.404 120.41 247.892C120.722 248.749 121.224 249.524 121.877 250.161C122.53 250.797 123.318 251.279 124.183 251.568C124.658 250.798 125.013 249.96 125.235 249.082C125.831 242.201 126.319 235.32 126.868 228.433C127.155 224.583 127.465 220.735 127.837 216.881C127.964 215.344 128.304 213.826 128.44 212.327C128.966 208.079 129.446 203.825 129.986 199.566C130.105 198.931 130.265 198.303 130.466 197.689C131.514 200.192 132.377 202.769 133.048 205.398C133.484 206.949 133.931 208.514 134.294 210.083C134.976 213.168 135.559 216.292 136.309 219.408C137.295 223.517 138.549 227.578 139.364 231.72C140.199 235.657 141.698 239.424 143.796 242.86C145.233 245.293 146.432 247.837 147.68 250.362C148.389 251.818 148.91 253.364 149.593 254.842C150.635 257.12 151.564 257.204 153.541 255.642C153.009 251.682 152.478 247.722 151.947 243.762C151.416 239.802 150.839 235.55 150.236 231.451C149.582 228.717 149.198 225.925 149.092 223.116C149.073 222.622 148.996 222.132 148.863 221.656C148.316 218.546 147.83 215.406 147.198 212.301C146.503 208.831 145.646 205.429 144.851 201.998C144.252 200.277 143.889 198.485 143.771 196.668C144.217 197.044 144.418 197.207 144.62 197.368C146.081 198.592 147.504 199.848 148.983 201.014C150.036 201.852 151.24 202.477 152.24 203.36C154.154 205.02 156.021 206.808 157.8 208.517C159.711 210.297 161.346 212.353 162.649 214.618C163.577 216.038 164.667 217.345 165.899 218.511C166.527 219.263 167.352 219.83 168.045 220.528C169.576 222.046 171.039 223.666 172.648 225.119C174.257 226.572 175.885 227.81 177.559 229.077C178.107 229.444 178.728 229.684 179.38 229.782C180.301 229.937 180.68 229.467 180.537 228.53C180.393 227.593 180.191 227.035 180.128 226.273C179.854 222.781 178.345 219.416 177.559 215.89C177.509 215.682 177.426 215.484 177.312 215.303C175.85 212.245 173.674 209.583 170.967 207.543C168.353 205.739 166.189 203.355 164.647 200.577C163.344 198.252 161.737 196.115 160.281 193.896C160.01 193.571 159.83 193.171 159.635 192.806C157.854 189.68 155.653 186.813 153.095 184.284C151.048 182.095 148.608 180.28 146.416 178.234C144.035 176.238 142.029 173.835 140.492 171.136C138.375 167.308 136.632 163.285 135.286 159.123C134.88 157.963 134.614 156.758 134.493 155.535C134.367 151.743 134.41 147.943 134.21 144.17C133.99 139.686 133.564 135.219 133.284 130.741C133.194 129.473 133.325 128.153 133.305 126.915C134.486 129.105 135.549 131.355 136.489 133.658C139.607 141.14 142.675 148.64 145.829 156.113C148.073 161.439 150.431 166.715 152.724 172.023C153.537 173.919 154.353 175.793 155.131 177.675C155.18 177.909 155.275 178.13 155.41 178.327C155.545 178.523 155.717 178.691 155.918 178.821C156.118 178.95 156.342 179.039 156.576 179.081C156.811 179.124 157.052 179.12 157.285 179.069C157.386 178.694 157.441 178.309 157.448 177.92C157.098 174.625 156.781 171.344 156.296 168.072C155.713 163.892 155.106 159.709 154.315 155.569C153.554 152.021 152.63 148.433 151.824 144.856C151.018 141.28 150.531 137.768 149.494 134.363C147.402 127.478 145.087 120.669 142.76 113.871C142.027 111.426 140.821 109.148 139.212 107.167C137.454 105.041 136.198 102.544 135.538 99.8637C135.109 98.3738 134.813 96.8587 134.37 95.3783C133.264 91.679 132.183 87.9573 130.953 84.2942C130.207 82.0908 129.31 79.9414 128.269 77.8605C127.447 76.3877 126.998 74.7366 126.962 73.0503C127.042 69.2993 126.252 65.5803 124.653 62.1864C124.204 61.1862 124.156 60.0525 124.519 59.0182C124.92 59.498 125.046 59.8336 125.21 60.1367C126.45 62.7304 127.824 65.2574 129.328 67.708C131.092 70.3462 132.608 73.1418 133.855 76.0595C134.384 77.207 135.044 78.2892 135.821 79.2855C136.826 80.6475 137.978 81.7117 138.93 83.0091C142.506 88.0594 145.903 93.2381 149.584 98.2019C152.334 101.917 155.403 105.41 158.358 108.977C159.744 110.637 161.141 112.312 162.645 113.875C163.181 114.301 163.764 114.663 164.383 114.956C164.416 113.915 164.611 113.224 164.468 112.684C163.587 109.94 162.596 107.222 161.667 104.475C160.739 101.727 159.785 99.001 158.954 96.238C157.853 92.5989 157.063 88.8556 155.764 85.2941C152.698 77.5586 148.421 70.3603 143.093 63.9677C140.408 60.8271 137.539 57.8476 134.501 55.0458C132.197 52.7862 129.76 50.6585 127.324 48.5307C125.599 47.2168 124.193 45.5316 123.209 43.5999C121.903 40.6381 120.259 37.8498 120.009 34.491C119.996 34.238 119.79 33.9912 119.719 33.7211C119.085 31.9331 118.544 30.1143 118.098 28.2708C116.95 22.7551 116.061 17.1788 114.804 11.6896C114.167 8.89597 112.152 7.29858 109.365 8.52321C108.716 8.80096 108.076 9.11516 107.438 9.4058C107.035 9.55663 106.694 9.83762 106.47 10.2045C106.245 10.5714 106.15 11.0027 106.199 11.4303C106.243 12.9019 106.4 14.3684 106.668 15.8164C107.537 19.4949 108.587 23.0217 109.403 26.7433C110.231 30.742 110.777 34.7993 111.458 38.8326C112.025 41.3265 111.618 43.9428 110.319 46.1465C109.086 48.1919 108.122 50.3878 107.45 52.6796C106.226 56.8058 105.353 61.0346 104.272 65.1734C103.466 68.606 103.014 72.112 102.921 75.6362C102.768 78.5821 102.514 81.5239 102.162 84.4601C101.652 88.6502 100.965 92.812 100.388 96.9482C100.186 98.6852 100.1 100.433 100.133 102.181C100.17 104.705 100.494 107.23 100.433 109.769C100.326 113.362 100.61 116.957 101.279 120.489C101.446 121.383 101.709 122.255 102.064 123.092C102.711 124.469 103.072 125.964 103.127 127.484C103.182 129.005 102.929 130.521 102.383 131.941C101.782 133.199 101.423 134.559 101.326 135.95C101.053 137.375 100.544 138.744 99.8207 140.002C98.8225 142.553 97.8703 145.131 96.8378 147.666C96.0624 149.612 95.1466 151.521 94.3812 153.48C93.1788 156.576 92.2656 159.782 90.8683 162.776C89.0072 167.168 87.6706 171.764 86.8859 176.469C86.7694 176.963 87.0185 177.525 87.1292 178.291C88.0947 178.103 89.0467 178.188 89.6614 177.763C91.1199 176.889 92.4335 175.793 93.5544 174.514C97.0374 170.088 100.352 165.538 103.687 161.015C105.068 158.722 106.625 156.539 108.343 154.487C110.993 151.562 113.063 148.161 114.443 144.464C115.478 142.169 116.421 139.818 117.467 137.536C118.782 134.655 120.248 131.846 121.518 128.937C123.159 124.738 124.283 120.353 124.867 115.882C125.011 115.08 125.19 114.291 125.457 113.188C125.791 113.746 126.021 113.862 125.988 114.088C126.263 118.901 126.985 123.801 126.27 128.802C125.522 133.156 123.928 137.322 121.577 141.063C120.254 143.223 118.851 145.341 117.563 147.517C115.447 151.34 113.047 154.998 110.385 158.462C108.395 160.673 106.873 163.262 105.907 166.075C104.474 170.794 103.146 175.535 101.737 180.256C100.848 183.523 99.549 186.664 97.8703 189.604C96.7966 191.343 95.9429 193.209 95.3298 195.159C93.1436 202.378 91.1299 209.673 89.0745 216.892C88.5808 218.72 88.1973 220.577 87.9262 222.452C87.8232 222.736 87.7981 223.043 87.8538 223.339C87.9097 223.636 88.0439 223.913 88.2429 224.14C88.4415 224.367 88.6972 224.537 88.9839 224.632C89.2711 224.727 89.5784 224.744 89.8734 224.679ZM114.37 183.758C114.459 184.63 113.557 185.581 113.114 186.501C112.395 183.522 112.222 180.436 112.603 177.395L113.053 177.328C113.615 179.444 114.054 181.591 114.37 183.758ZM115.851 176.643C116.246 178.252 116.663 179.885 115.304 181.502C114.794 178.912 114.262 176.428 113.853 173.907C113.856 173.56 113.929 173.217 114.069 172.899C114.209 172.582 114.413 172.297 114.668 172.061C115.047 173.571 115.462 175.097 115.851 176.643ZM117.178 175.359C116.519 173.411 115.997 171.419 115.616 169.398C115.47 168.353 116.188 167.182 116.515 166.071C117.353 167.457 117.85 169.021 117.965 170.635C118.08 172.25 117.811 173.869 117.178 175.359ZM126.567 211.798L126.113 211.913C125.778 210.695 125.358 209.505 125.153 208.31C124.949 207.116 123.847 206.033 125.031 204.208C125.427 207.003 126.468 209.305 126.567 211.798ZM123.368 203.217C122.632 207.03 122.175 210.891 122.003 214.771C121.803 216.721 121.686 218.69 121.544 220.657C121.508 221.326 121.519 221.999 121.438 223.168C122.061 222.649 122.437 222.334 122.541 222.115C122.841 220.596 123.028 219.056 123.1 217.51C123.095 215.26 123.414 213.021 124.047 210.863C124.57 212.518 125.106 214.162 125.592 215.826C125.661 216.24 125.639 216.664 125.528 217.069C124.945 220.541 124.676 224.059 124.725 227.58C124.546 231.428 124.222 235.287 123.989 239.202C123.848 241.302 123.672 243.385 123.483 245.481C123.44 245.957 123.315 246.413 123.162 247.312C122.043 245.343 121.384 243.146 121.233 240.886C120.598 237.013 120.093 233.031 119.733 229.171C119.506 227.158 119.657 225.227 119.631 223.245C119.672 222.897 119.696 222.547 119.702 222.195C119.417 218.03 119.132 213.864 118.796 209.742C118.528 206.801 118.637 203.839 119.122 200.927C119.896 196.209 120.301 191.445 120.979 186.718C121.19 185.707 121.524 184.725 121.974 183.796C122.565 182.605 123.088 181.383 123.541 180.132C124.283 177.487 124.85 174.791 125.511 172.126C125.756 171.128 126.06 170.148 126.373 169.204L126.99 169.283C127.148 170.869 127.426 172.442 127.472 174.055C127.798 178.476 127.304 182.919 126.015 187.159C124.78 191.431 124.017 195.825 123.742 200.263C123.697 201.256 123.572 202.244 123.368 203.217ZM126.886 205.059C126.408 202.375 124.257 199.878 126.058 196.943C126.672 199.579 128.202 202.177 126.886 205.059ZM128.102 196.624C127.575 195.28 127.136 194.173 126.719 193.067C126.591 192.756 126.348 192.386 126.422 192.104C126.805 189.728 127.458 187.404 128.366 185.176C129.163 189.243 129.582 192.857 128.102 196.624ZM153.712 201.668L153.362 201.961C151.066 200.134 148.769 198.33 146.551 196.439C145.471 195.591 144.447 194.673 143.487 193.69C142.639 192.926 141.959 191.994 141.489 190.954C140.593 188.358 139.915 185.691 139.46 182.983C140.023 183.538 140.531 184.147 140.976 184.8C141.797 186.293 142.87 187.631 144.147 188.758C145.915 190.453 147.535 192.316 149.235 194.088C149.543 194.462 149.896 194.796 150.285 195.083C152.622 196.721 152.884 199.277 153.658 201.603L153.712 201.668ZM156.437 203.929C155.042 202.892 155.403 201.556 155.174 200.359C155.953 201.391 156.394 202.638 156.437 203.929ZM159.659 207.052C158.315 206.258 158.056 205.132 158.648 203.493L159.659 207.052ZM144.982 182.293C147.934 185.091 150.871 187.924 153.613 190.919C157.036 194.835 160.134 199.023 162.877 203.442C164.315 205.338 165.872 207.142 167.538 208.843C169.39 211.061 171.242 213.28 172.993 215.562C173.191 215.851 173.416 216.12 173.664 216.367C175.702 217.99 176.21 220.34 176.753 222.705C177.049 223.955 177.441 225.191 177.797 226.435L177.46 226.716C175.517 224.969 173.561 223.233 171.647 221.441C169.626 219.694 167.707 217.834 165.897 215.87C163.871 213.827 162.323 211.359 161.363 208.646C161.278 208.451 161.224 208.243 161.203 208.031C161.36 204.289 159.251 201.735 156.756 199.326C155.343 197.951 154.154 196.368 152.807 194.939C151.459 193.509 150.132 192.261 148.8 190.929C147.468 189.597 146.184 188.401 144.962 187.043C143.976 185.862 143.095 184.595 142.073 183.423C140.729 181.814 139.218 180.345 137.812 178.766C137.386 178.323 137.057 177.795 136.848 177.216C136.049 174.228 135.336 171.212 134.612 168.206C134.576 168.042 134.577 167.873 134.617 167.71C134.657 167.547 134.733 167.395 134.84 167.267C135.131 167.768 135.388 168.288 135.612 168.824C137.622 173.994 140.834 178.611 144.982 182.293ZM149.153 144.928C150.037 148.044 150.97 151.14 151.803 154.275C152.29 156.071 152.585 157.849 152.941 159.622C153.518 162.95 154.083 166.265 154.648 169.58C154.88 170.559 154.979 171.565 154.943 172.57C154.637 172.084 154.361 171.578 154.119 171.056C150.474 162.496 146.903 153.918 143.328 145.387C141.886 141.945 140.198 138.577 138.819 135.105C137.078 130.723 135.535 126.264 133.933 121.812C133.08 119.419 132.301 117.009 131.485 114.607C131.31 114.215 131.206 113.796 131.177 113.367C131.244 110.361 129.768 107.696 129.236 104.816C128.703 101.936 128.05 99.2012 127.455 96.351C127.292 95.5142 127.324 94.6507 127.55 93.8282C128.258 95.3776 128.857 96.9752 129.339 98.6094C129.762 100.602 130.365 102.553 131.142 104.436C132.012 106.507 132.531 108.738 133.25 110.866C134.047 113.35 134.819 115.831 135.616 118.316C136.652 121.048 137.514 123.843 138.197 126.685C138.614 127.863 139.17 128.989 139.852 130.037C140.959 132.393 142.127 134.743 143.138 137.114C144.526 140.359 145.926 143.725 147.221 147.07C147.825 148.612 148.219 150.244 148.711 151.836L149.44 151.602L146.769 142.493C147.342 142.659 147.863 142.97 148.281 143.397C148.699 143.824 148.999 144.351 149.153 144.928ZM127.246 103.329L127.985 107.248C126.765 105.469 126.667 104.957 127.224 103.303L127.246 103.329ZM148.09 140.752C146.574 139.2 144.576 138.467 144.454 135.948C145.871 137.408 148.027 137.986 148.068 140.726L148.09 140.752ZM146.801 135.884C145.231 135.19 144.884 133.587 143.853 132.642C142.624 131.685 141.699 130.393 141.188 128.921C142.746 129.944 144.211 131.1 145.569 132.377C146.183 133.464 146.6 134.651 146.801 135.884ZM130.299 89.5516C131.569 94.2382 132.593 98.9985 134.048 103.618C134.897 105.929 136.003 108.138 137.342 110.203C139.436 114.198 141.188 118.362 142.581 122.651C143.279 124.49 143.828 126.388 144.414 128.276C144.515 128.748 144.577 129.227 144.597 129.709C142.846 128.375 141.293 127.227 139.779 126.046C139.569 125.767 139.425 125.442 139.361 125.097C137.692 120.17 135.951 115.262 134.346 110.305C133.319 107.176 132.479 103.98 131.516 100.822C130.924 98.8719 130.271 96.9294 129.628 94.9993C128.236 91.0108 127.499 86.8228 127.446 82.5985C127.831 83.016 128.16 83.4814 128.426 83.9825C129.132 85.8583 129.857 87.6762 130.343 89.6033L130.299 89.5516ZM142.241 81.0159C143.973 81.7719 144.407 83.6107 143.784 86.5311C141.744 85.0628 142.63 82.9587 142.285 81.0676L142.241 81.0159ZM146.408 90.4394C145.91 89.8426 145.411 89.2452 144.881 88.6095L145.89 85.9403L146.273 85.951L146.838 90.1901L146.408 90.4394ZM109.246 10.9127L111.994 11.5682C112.208 13.1959 111.425 14.025 109.948 14.8402L109.246 10.9127ZM114.584 135.032C115.064 138.162 114.392 141.358 112.693 144.03C112.275 144.841 111.907 145.678 111.592 146.535C110.695 148.611 109.452 150.52 107.915 152.18C106.155 154.266 104.484 156.431 102.86 158.6C99.5314 163.317 96.3146 168.115 92.9508 172.816C92.2814 173.473 91.5111 174.019 90.6692 174.434L90.2018 174.032C90.2941 173.575 90.4192 173.125 90.5746 172.685C93.1541 166.57 95.7807 160.459 98.2995 154.35C98.7467 153.25 98.9165 152.029 99.281 150.91C99.9724 148.836 100.696 146.801 101.41 144.729C101.991 143.077 102.715 141.439 103.189 139.766C105.011 133.326 107.523 127.103 110.683 121.205C111.649 119.337 112.508 117.415 113.253 115.448C114.696 111.558 115.848 107.558 117.419 103.715C118.989 99.8723 120.807 96.4841 122.715 92.4922C122.914 93.2065 123.218 93.7013 123.131 94.1254C122.28 98.3813 121.333 102.76 120.218 107.016C119.663 109.174 118.628 111.205 117.907 113.347L113.264 126.249C112.899 127.236 112.476 128.207 112.087 129.191C110.628 132.86 109.178 136.521 107.737 140.175C107.569 140.687 107.429 141.207 107.32 141.734L107.725 141.903L113.54 130.246C113.983 132.122 114.272 133.576 114.584 135.032ZM113.643 82.4944C113.929 78.932 114.726 75.4041 115.238 71.85C115.635 69.3174 115.942 66.7056 116.187 64.1234C116.374 62.1839 116.43 60.2211 116.535 58.2623C116.537 57.9748 116.48 57.6696 116.458 57.3797C116.729 57.4396 116.997 57.5243 117.255 57.5956C118.55 62.9958 119.452 68.4837 119.951 74.015C119.945 74.3647 119.958 74.7143 119.989 75.0622C120.681 78.5126 120.65 82.068 119.9 85.5066C118.937 91.187 117.526 96.7814 115.68 102.239C114.409 105.202 112.967 108.09 111.36 110.885C110.172 113.286 109.043 115.705 107.934 118.148C107.385 119.312 106.869 120.513 106.331 121.689L105.924 121.544L107.606 114.063L111.689 95.9265C112.664 91.5028 113.317 87.013 113.643 82.4944ZM110.248 77.9524C110.877 78.4409 111.405 78.8367 112.111 79.3921L111.475 85.6473C109.213 83.1754 110.205 80.5646 110.248 77.9524ZM112.038 77.1421C111.579 75.0364 110.467 72.9922 111.405 70.7126C111.588 72.805 113.265 74.8401 112.038 77.1421ZM119.184 125.007C119.206 125.429 119.053 125.931 119.216 126.257C120.236 128.114 119.235 129.632 118.514 131.246C117.792 132.862 117.044 134.102 116.303 135.535L115.875 135.497C115.837 131.917 115.053 128.367 115.715 124.754C116.684 126.917 116.363 129.409 117.274 131.554C117.423 131.559 117.572 131.552 117.72 131.535C117.835 131.257 117.909 130.965 117.942 130.667C117.828 128.077 117.702 125.473 117.551 122.891C117.527 122.329 117.419 121.773 117.232 121.243C116.908 120.301 117.28 119.639 117.948 118.752C118.7 120.755 119.117 122.868 119.184 125.007ZM120.422 116.73C120.567 117.929 120.817 119.112 121.171 120.266C122.026 122.239 121.242 123.884 120.234 125.606L119.23 114.379L119.743 114.281C120.007 115.073 120.233 115.897 120.422 116.73ZM121.861 119.272L121.292 113.869C121.211 113.165 121.094 112.471 121.091 111.834C120.995 111.359 120.998 110.869 121.101 110.395C123.048 104.593 124.175 98.5465 124.448 92.4325C124.493 91.6685 124.297 90.9064 124.268 90.1598C124.216 88.6192 124.175 87.0675 124.169 85.5312C124.164 83.9946 124.607 83.0746 123.442 82.0217C123.096 81.6059 123.227 80.682 123.176 80.0416L122.905 77.3171C122.634 75.0122 122.203 72.7295 122.124 70.4182C121.909 67.8912 121.439 65.3918 120.72 62.9595C119.61 58.6128 118.858 54.1822 118.469 49.7127C118.448 49.2142 118.355 48.7205 118.193 48.2477C118.098 47.9751 117.674 47.625 117.518 47.623C117.122 47.6901 116.763 47.896 116.505 48.2041C116.272 48.3987 116.361 48.8747 116.316 49.2426C116.069 51.2465 115.96 53.266 115.987 55.2853C115.918 58.3136 115.611 61.3309 115.066 64.31C114.698 66.9296 114.105 69.5157 113.525 72.6197C113.254 72.2252 113.026 71.8019 112.847 71.3587C112.675 69.9774 112.385 68.6149 111.978 67.2844C111.406 65.8352 111.301 64.2445 111.68 62.733C112.409 59.3066 113.196 55.8978 113.948 52.4732C113.971 52.2054 113.966 51.9358 113.937 51.6682C112.869 52.34 112.837 53.3568 112.602 54.2362C111.607 57.8183 110.681 61.431 109.734 65.0182C109.644 65.0938 109.589 65.2927 109.603 65.414C110.168 68.7288 109.073 71.8221 108.841 75.0537C108.627 77.4347 108.532 79.9575 108.217 82.3778C107.904 84.7975 107.388 86.659 107.022 88.8584C106.602 91.7841 106.301 94.7211 106.037 97.6494C106.009 98.5976 106.064 99.5459 106.202 100.484C107.381 99.9188 107.24 99.0899 107.317 98.3648L108.681 85.7553C108.707 85.4694 108.756 85.1859 108.836 84.7011C109.681 85.7137 110.288 86.4404 111.203 87.3266C109.405 98.879 107.015 110.331 104.043 121.638C103.347 119.765 103.177 117.737 103.552 115.774C103.942 112.834 103.847 109.849 103.268 106.94C103.015 104.421 102.983 101.884 103.171 99.3591C103.308 97.0435 103.785 94.8185 104.053 92.5021C104.5 88.8703 104.84 85.2417 105.313 81.588C106.083 76.2332 106.736 70.8439 107.85 65.5563C108.57 61.1077 109.933 56.7882 111.897 52.7325C112.342 51.845 112.684 50.9093 112.916 49.9447C113.912 46.7842 115.248 43.742 116.902 40.8711C116.873 40.1245 116.845 39.378 116.783 38.4606L115.3 37.8707C113.828 31.0422 112.351 24.2609 110.824 17.235L113.082 15.3505C113.271 15.8252 113.428 16.3124 113.55 16.8087C114.104 21.0587 114.499 25.3306 115.222 29.5476C115.78 31.8048 116.461 34.0292 117.262 36.2118C117.588 36.962 117.727 37.7801 117.669 38.5961C117.609 39.4118 117.354 40.2015 116.924 40.8974C117.065 40.7587 117.216 40.6315 117.378 40.518C117.608 40.4508 117.841 40.3959 118.077 40.353C118.51 41.2681 118.936 42.2788 119.425 43.2345C119.853 44.0958 120.335 44.9293 120.869 45.7288C122.058 47.444 123.284 49.1509 124.549 50.8248C125.35 51.785 126.163 52.7579 126.965 53.7181C127.172 54.0632 127.345 54.429 127.479 54.8087L127.565 54.9123C129.686 55.3437 130.765 57.2165 132.117 58.5989C134.016 60.558 135.717 62.7273 137.381 64.905C140.532 68.6817 143.684 72.4576 146.526 76.4698C148.348 78.8958 149.879 81.5268 151.089 84.309C154.332 92.1255 157.301 100.061 160.447 108.157C159.178 107.563 158.111 106.607 157.383 105.409C154.251 101.418 151.304 97.4928 148.265 93.5349C147.659 92.808 147.286 92.1502 147.78 91.055C148.027 90.5856 147.838 89.8842 147.844 89.2848L148.253 89.1416C148.812 90.1278 149.332 91.1466 149.951 92.1268C150.572 93.1068 151.215 93.9567 151.884 94.9173C152.901 94.4205 152.708 93.7674 152.299 93.1185C150.873 90.8298 149.521 88.5239 148.017 86.3004C145.003 81.7925 141.849 77.3806 138.884 72.8532C136.954 69.9065 135.263 66.8265 133.409 63.8389C131.719 60.7367 129.765 57.7865 127.568 55.0206L127.513 54.956L127.201 57.2196C129.42 59.5838 131.225 62.3062 132.535 65.273C134.759 69.5111 137.332 73.5567 140.23 77.3663C141.518 78.9105 141.02 80.3175 140.474 82.248C139.599 81.1609 138.78 80.0292 138.02 78.8589C136.99 77.0984 136.188 75.2142 135.145 73.4643C133.531 70.7389 131.763 68.1195 130.136 65.4047C129.26 63.9332 128.553 62.322 127.756 60.7861C127.173 59.6656 126.564 58.5663 125.967 57.4565C124.752 55.2349 123.611 52.9722 122.32 50.7915C121.612 49.6001 121.185 49.6697 120.353 50.5183C121.098 53.8379 121.871 56.9795 122.472 60.1533C123.198 63.951 123.82 67.835 124.481 71.687C124.874 73.0526 124.853 74.5046 124.418 75.8575C124.341 76.0868 124.315 76.3299 124.341 76.5703C124.368 76.8107 124.445 77.0429 124.568 77.2504C126.501 80.0409 126.923 83.3431 127.391 86.9376C125.984 86.1749 126.515 84.6746 125.355 83.838C126.289 95.7627 125.106 107.759 121.861 119.272ZM130.133 131.082C129.949 130.861 129.555 130.706 129.602 130.446C129.45 129.034 129.39 127.613 129.422 126.194C129.543 121.497 129.166 116.801 128.296 112.183C128.153 111.095 128.119 109.994 128.196 108.898C129.949 115.112 130.959 121.511 131.206 127.962C130.22 128.521 130.573 129.393 130.68 130.207L131.977 129.124L131.924 132.647C131.876 133.132 131.864 133.621 131.888 134.107C132.543 140.167 132.796 146.142 133.106 152.158C133.165 153.231 132.728 154.344 132.704 155.422C132.718 156.533 132.798 157.642 132.944 158.743C132.162 157.175 131.759 155.445 131.768 153.693C131.769 151.924 131.627 150.157 131.344 148.411C130.201 148.572 129.808 149.209 129.899 149.925C130.229 151.721 130.062 153.574 129.416 155.282C129.366 155.488 129.385 155.704 129.468 155.898C129.759 157.193 130.184 158.454 130.738 159.66C132.163 162.213 132.144 165.092 132.8 167.803C133.456 170.514 133.483 173.264 134.695 175.798C134.977 176.399 134.757 177.244 134.793 177.918C135.483 178.758 136.077 179.673 136.563 180.646C137.393 183.013 138.036 185.471 138.717 187.897C138.753 188.055 138.754 188.22 138.719 188.378C138.684 188.537 138.614 188.685 138.515 188.814C137.671 189.519 137.916 190.261 138.452 190.848C141.271 193.91 141.958 197.873 142.84 201.672C144.359 208.109 145.609 214.618 146.945 221.099C147.08 221.646 147.171 222.205 147.215 222.767C147.688 228.442 148.495 234.084 149.628 239.665C150.195 242.705 150.296 245.813 149.926 248.884C149.37 247.718 148.776 246.585 148.258 245.409C147.741 244.235 147.588 243.393 147.094 242.484C145.382 239.003 144.035 235.355 143.071 231.598C142.39 228.495 141.352 225.483 139.98 222.619C139.44 221.473 139.058 220.26 138.841 219.012C137.621 214.307 136.449 209.604 135.242 204.887C133.733 199.6 132.586 194.217 131.81 188.774C131.224 183.957 130.783 179.129 130.403 174.295C130.287 172.916 131.01 171.41 130.668 170.155C130.175 168.898 129.785 167.603 129.505 166.282C129.143 162.709 128.564 159.141 128.503 155.559C128.409 150.75 127.948 145.873 129.487 141.176C129.603 140.916 129.646 140.629 129.61 140.347C128.883 137.273 129.064 134.054 130.133 131.082ZM91.4942 219.474C92.5951 215.12 93.7428 210.772 94.8796 206.41C96.3048 201.616 98.1341 196.952 100.348 192.466C101.068 190.875 101.627 189.198 102.312 187.592C104.207 182.506 105.797 177.311 107.074 172.037C108.199 168.108 109.87 164.356 112.038 160.891C113.342 158.813 115.065 157 116.572 155.06C118.919 151.978 120.926 148.65 122.554 145.135C123.939 142.284 125.14 139.344 126.367 136.514C126.531 136.158 126.73 135.815 127.134 135.06C127.249 135.586 127.334 136.118 127.387 136.654C127.396 137.087 127.188 137.524 127.272 137.916C128.072 141.828 126.197 145.199 125.121 148.738C123.846 152.908 122.64 157.107 121.433 161.307C120.676 163.986 119.966 166.67 119.155 169.813C118.927 169.317 118.753 168.799 118.633 168.266C118.609 167.077 118.495 165.891 118.293 164.719C117.837 162.564 118.185 160.316 119.271 158.399C120.783 154.935 122.425 151.627 124.002 148.242C124.093 148.033 124.013 147.726 124.019 147.127C123.624 147.371 123.266 147.671 122.955 148.015C121.628 150.487 120.323 152.986 119.017 155.484C118.439 156.584 117.847 157.695 117.219 158.791C115.538 161.735 115.429 165.217 114.122 168.268C113.124 170.819 112.26 173.421 111.535 176.062C111.35 176.512 111.13 176.945 110.878 177.359C110.701 177.727 110.331 178.102 110.373 178.441C110.626 180.697 109.402 182.554 108.555 184.362C107.579 186.543 106.706 188.768 105.729 190.948C105.219 192.078 104.573 193.123 103.979 194.258C105.133 195.034 105.332 195.088 105.95 193.824C106.946 191.825 107.75 189.702 108.62 187.632L110.617 183.324C110.968 183.779 111.254 184.281 111.466 184.817C112.085 186.725 111.958 188.797 111.112 190.616C109.469 193.66 107.805 196.679 105.935 199.583C104.736 201.442 103.18 203.114 101.899 204.955C100.974 206.267 100.144 207.644 99.4159 209.075C98.484 210.887 97.67 212.734 96.8165 214.613C96.4315 215.288 95.9998 215.934 95.5261 216.549C94.5995 217.865 93.6655 219.173 92.7247 220.473C92.4362 220.815 92.1226 221.136 91.7862 221.432L91.4633 221.283C91.424 220.68 91.4347 220.075 91.4942 219.474ZM166.006 214.788C165.645 214.54 165.212 214.416 165.149 214.183C164.698 212.798 164.307 211.407 163.89 210.037C163.743 209.412 163.231 208.562 164.298 208.31C165.365 208.058 165.568 208.857 165.684 209.575C165.956 211.22 166.779 212.866 166.006 214.788ZM165.602 127.257C165.133 130.675 165.023 134.132 165.273 137.572C165.434 139.111 165.654 140.667 165.709 142.184C165.823 146.252 166.261 150.304 167.017 154.302C168.05 161.004 169.985 167.537 172.767 173.721C173.085 174.416 173.539 175.04 174.102 175.557C174.601 175.877 175.154 176.101 175.735 176.22C175.929 175.662 176.326 175.11 176.292 174.566C176.111 170.842 176.004 167.1 175.521 163.408C175.222 161.606 175.15 159.773 175.304 157.953C175.741 154.836 175.289 151.736 176.347 148.651C176.411 148.464 176.348 148.231 176.355 148.027C176.351 145.147 176.251 142.258 176.402 139.38C176.624 135.451 177.074 131.531 177.358 127.574C177.517 125.68 177.712 123.778 177.702 121.892C177.584 119.433 177.742 116.967 178.172 114.543C178.521 112.816 178.761 111.071 178.895 109.315C179.184 106.389 179.413 103.446 179.631 100.489C179.798 98.6731 179.871 96.849 179.847 95.0248C179.759 92.0168 179.511 89.03 179.362 86.0287C179.362 86.0287 179.557 85.8661 179.777 85.6822C180.026 86.0094 180.244 86.3582 180.427 86.7247C182.025 90.5647 183.597 94.4266 185.128 98.213C187.134 102.746 187.759 107.769 186.923 112.655C186.324 115.973 186.019 119.354 185.416 122.72C184.812 126.085 183.701 129.633 183.108 133.144C182.516 136.654 182.166 140.667 181.743 144.433C181.526 146.309 181.449 148.222 181.103 150.075C180.292 154.459 179.863 158.906 179.821 163.364C179.857 164.716 180.008 166.063 180.274 167.389C180.533 169.044 180.987 170.67 181.256 172.337C181.954 176.577 182.616 180.824 183.266 185.059C183.453 186.312 183.567 187.582 183.827 188.818C184.455 191.706 185.143 194.588 185.821 197.458C186.498 200.327 187.136 203.096 187.868 205.898C188.128 206.869 188.389 207.974 189.586 208.273C191.286 207.118 191.31 207.12 191.282 205.426C191.275 204.441 191.16 203.459 191.075 202.539C191.029 199.846 190.871 197.205 190.871 194.54C190.823 192.361 190.922 190.181 191.172 188.015C191.846 183.204 192.803 178.442 193.487 173.644C194.283 168.004 194.926 162.337 195.603 156.686C195.932 153.968 196.285 151.251 196.413 148.503C196.615 144.209 196.706 139.921 196.684 135.639C196.664 132.397 196.458 129.223 196.226 125.938C196.147 124.419 195.986 122.88 195.859 121.356L196.315 121.218C196.731 122.059 197.098 122.92 197.564 123.742C200.349 128.662 202.394 133.965 203.633 139.481C203.833 140.304 204.077 141.115 204.362 141.911C205.668 145.797 207.026 149.639 208.308 153.523C209.482 157.145 210.582 160.784 211.67 164.434C212.056 165.741 212.853 167.013 212.083 168.492C211.965 168.745 212.166 169.171 212.231 169.512C212.722 171.129 213.087 172.806 213.385 174.561C213.69 175.871 213.855 177.209 213.877 178.553C213.733 183.629 212.447 188.608 210.116 193.119C209.001 195.37 208.138 197.764 207.092 200.047C206.686 201.32 206.033 202.501 205.171 203.522C203.568 205.189 202.109 207.002 200.65 208.814C199.123 211.106 197.208 213.115 194.99 214.748C194.743 214.877 194.526 215.059 194.355 215.279C192.465 218 190.507 220.692 188.756 223.474C186.236 227.604 183.85 231.841 181.443 236.052C179.532 239.407 177.689 242.818 175.813 246.189C175.428 246.862 174.998 247.507 174.659 248.209C173.161 251.242 171.837 254.351 170.158 257.271C169.205 258.926 168.683 260.99 166.68 261.914C166.459 262.098 166.279 262.49 166.12 262.799C165.331 264.361 164.529 265.932 163.796 267.534C163.466 268.06 163.287 268.667 163.279 269.287C163.39 270.122 163.198 270.969 162.74 271.675C162.545 272.101 162.673 272.677 162.639 273.19C163.171 273.254 163.71 273.241 164.238 273.154C164.606 272.949 164.931 272.677 165.199 272.353C167.366 270.544 169.52 268.746 171.687 266.937C172.951 266.18 174.171 265.352 175.342 264.459C177.362 262.509 179.119 260.303 180.566 257.897C183.807 252.608 187.784 247.808 192.375 243.637C192.647 243.41 192.92 243.182 193.258 243.032C195.695 241.152 198.288 239.406 200.574 237.344C206.16 232.066 210.7 225.782 213.956 218.821L214.259 218.26C216.45 214.076 218.19 209.672 219.45 205.12C219.587 204.677 219.744 204.258 220.017 203.503C220.24 203.891 220.437 204.293 220.604 204.709C221.431 207.915 222.282 211.123 223.049 214.337C223.815 217.55 224.428 221.266 225.493 224.625C226.822 228.551 228.771 232.239 231.265 235.55C231.779 236.217 232.209 236.945 232.546 237.717C233.918 241.129 235.327 244.532 236.527 248C237.913 251.837 239.874 255.441 242.344 258.688C242.891 259.333 243.371 260.032 243.776 260.774C245.854 265.091 247.525 269.592 248.768 274.22C249.587 277.258 250.833 280.202 251.881 283.225C251.938 283.42 252.035 283.602 252.165 283.758C252.296 283.915 252.456 284.043 252.639 284.135C252.82 284.227 253.019 284.28 253.222 284.292C253.426 284.304 253.63 284.273 253.821 284.203C254.671 283.956 254.564 283.143 254.566 282.458C254.598 281.045 254.616 279.643 254.753 278.251C255.062 274.955 255.67 271.674 255.726 268.391C255.786 264.532 255.402 260.669 255.162 256.796C255.06 253.489 254.669 250.198 253.997 246.958C253.171 243.752 252.007 240.642 250.525 237.681C247.707 231.667 245.051 225.584 242.382 219.511C241.465 217.437 240.734 215.295 239.845 213.043C240.755 213.737 241.573 214.374 242.381 214.999C245.646 217.215 248.596 219.863 251.152 222.869C252.447 224.46 253.891 225.924 255.462 227.242C255.719 227.453 256.018 227.606 256.34 227.691C256.662 227.776 256.998 227.79 257.326 227.734C258.105 227.48 257.98 226.593 257.815 225.894C257.707 225.335 257.539 224.789 257.314 224.265C255.463 220.702 253.675 217.109 251.666 213.568C250.559 211.608 249.033 209.886 247.827 207.965C246.011 205.078 244.377 202.171 242.723 199.214C242.561 199.019 242.5 198.762 242.236 198.234L243.463 198.596C245.67 199.524 247.969 200.218 250.32 200.666C250.867 200.777 251.385 200.995 251.847 201.308C252.704 201.781 253.486 202.427 254.363 202.818C257.772 204.525 260.997 206.577 263.987 208.942C266.248 210.577 268.548 212.173 270.888 213.728C275.075 216.608 278.816 220.087 281.994 224.053C283.077 225.35 284.413 226.635 284.302 228.533C286.099 229.103 286.698 228.977 286.637 227.927C286.545 225.103 285.925 222.319 284.808 219.722C283.188 216.509 281.031 213.597 278.432 211.108C276.86 209.48 275.66 207.529 274.916 205.391C273.786 201.965 271.736 198.915 268.99 196.576C265.742 194.003 262.493 191.431 259.042 189.115C256.253 187.172 253.27 185.523 250.201 183.615C253.356 183.359 256.169 183.037 259.017 182.861C264.542 182.544 269.302 180.068 274.019 177.518C277.831 175.23 281.865 173.339 286.061 171.87C288.815 171.003 291.495 169.888 294.171 168.821C294.706 168.617 295.519 167.982 295.469 167.738C295.248 167.044 294.833 166.428 294.273 165.962C293.824 165.621 293.304 165.386 292.751 165.273C291.183 164.848 289.535 164.811 287.949 165.164C284.9 165.705 281.797 166.314 278.677 166.717C273.223 167.347 267.848 168.535 262.637 170.263C257.812 171.924 252.731 172.713 247.63 172.595C242.779 172.362 237.966 171.603 233.278 170.33C230.917 169.919 228.624 169.18 226.468 168.132C225.568 167.607 224.509 167.368 223.554 166.909C222.99 166.65 222.489 166.273 222.082 165.805C218.02 160.674 216.258 154.527 214.197 147.969C215.024 148.512 215.479 148.793 215.894 149.107C218.411 151.013 220.912 152.955 223.453 154.84C226.243 156.915 229.084 158.947 231.81 160.921C232.44 161.386 233.003 161.928 233.664 162.324C234.881 163.07 235.486 162.74 235.611 161.359C235.651 160.907 235.846 160.481 235.876 160.015C235.906 159.55 236.028 158.853 235.788 158.46C234.913 156.989 233.868 155.527 232.833 154.101C231.797 152.676 230.862 151.739 230.055 150.431C226.517 144.82 223.052 139.191 219.564 133.561C219.184 133.107 219.073 132.473 218.621 131.508L219.703 132.145C223.525 134.482 226.475 137.832 229.92 140.614C232.101 142.519 234.413 144.268 236.841 145.846C238.9 147.055 240.862 148.42 242.713 149.928C244.544 151.594 246.688 152.88 249.02 153.712C251.254 154.357 253.473 155.037 255.698 155.646C259.373 156.673 263.038 157.688 266.72 158.643C270.049 159.614 273.58 159.658 276.933 158.772C277.594 158.548 278.299 158.488 278.988 158.597C279.758 158.728 280.548 158.654 281.279 158.38C282.01 158.106 282.655 157.644 283.149 157.04C284.252 156.119 283.909 154.732 282.486 154.268C281.414 153.95 280.309 153.75 279.193 153.671C277.367 153.661 275.561 153.29 273.879 152.58C272.489 151.891 271.099 151.202 269.82 150.354C268.451 149.587 267.137 148.727 265.887 147.78C262.613 145.097 259.444 142.303 256.168 139.644C252.892 136.984 249.856 134.719 246.679 132.153C241.711 128.076 236.075 124.893 230.019 122.743C227.962 121.993 225.95 121.14 223.892 120.415C222.706 119.996 221.44 119.798 220.234 119.461C217.81 119.006 215.509 118.047 213.48 116.644C212.23 115.606 210.887 114.686 209.468 113.895C207.64 112.981 205.969 111.781 204.52 110.341C203.09 109.12 201.778 107.768 200.599 106.303C198.352 103.056 195.911 99.947 193.29 96.9924C192.646 96.0876 192.106 95.1133 191.68 94.0877C191.364 93.471 191.211 92.7613 190.934 92.1119C189.533 88.8775 188.107 85.665 186.694 82.4418C186.627 82.1851 186.578 81.9238 186.548 81.6605C187.042 81.8147 187.522 82.0107 187.983 82.2457C190.568 83.7868 193.206 85.2846 195.719 86.951C199.955 89.7569 204.095 92.686 208.278 95.5349C209.149 96.132 210.07 96.6527 211.03 97.0911C214.866 98.8648 218.821 100.385 222.528 102.399C225.096 103.907 227.875 105.023 230.774 105.711C236.63 106.898 242.531 107.874 248.412 108.932C249.581 109.146 250.749 109.491 251.929 109.585C255.362 109.847 258.866 109.982 262.241 110.202C264.356 110.309 266.463 110.355 268.561 110.388C269.519 110.402 270.101 109.807 269.718 109.136C268.796 107.505 268.535 105.478 266.725 104.39C265.948 103.783 265.209 103.127 264.514 102.427C262.163 100.35 259.673 98.4333 257.063 96.6915C253.915 94.9914 250.658 93.503 247.312 92.2367C244.258 90.9774 241.088 90.0557 238.025 88.7594C232.882 86.4481 227.828 84.0605 222.782 81.4697C219.649 79.6749 216.417 78.0577 213.102 76.6254C210.862 75.7875 208.731 74.6593 206.517 73.7999C204.21 72.743 201.797 71.9381 199.317 71.3991C194.729 70.6072 190.227 69.3819 185.871 67.7392C180.822 66.0228 176.563 62.5407 173.878 57.934C173.456 57.2006 172.991 56.4935 172.485 55.8167C169.092 51.5145 165.65 47.2323 162.271 42.9198C159.955 39.9872 157.741 36.9914 155.451 34.0372C154.904 33.3436 154.13 32.8662 153.265 32.6893C152.4 32.5129 151.501 32.648 150.726 33.0714C147.897 35.4322 146.805 39.822 149.76 42.4645C151.037 43.5996 152.326 44.8796 153.569 46.1317C154.82 47.2751 155.972 48.5231 157.013 49.8623C158.79 52.3866 160.334 55.0815 161.997 57.6795C162.722 58.8129 163.476 59.9009 164.215 61.0234C166.746 64.8995 169.768 68.5201 170.198 73.4671C170.735 75.8614 171.054 78.3 171.15 80.7529C170.767 85.51 170.081 90.238 169.093 94.908C168.136 99.6699 167.356 104.468 166.752 109.301C165.978 113.814 165.594 118.384 165.605 122.962C165.714 124.396 165.709 125.836 165.589 127.269L165.602 127.257ZM176.137 123.684L176.221 123.943C176.005 126.744 175.73 129.527 175.587 132.31C175.336 137.627 174.524 142.907 174.619 148.243C174.674 151.236 174.152 154.225 173.908 157.203L173.343 157.212C173.158 154.747 172.934 152.291 172.759 149.839C172.584 147.387 172.293 145.429 172.248 143.265C172.246 140.624 172.319 138.075 172.339 135.461C172.359 132.847 172.264 130.57 172.245 128.12C172.231 127.075 172.187 125.967 173.769 125.858C173.378 124.73 174.152 123.337 172.66 122.842C172.773 121.868 172.345 120.749 173.474 119.807C173.7 120.763 173.96 121.603 174.082 122.382C174.107 122.614 174.18 122.84 174.297 123.042C174.414 123.244 174.571 123.421 174.759 123.56C174.948 123.699 175.163 123.797 175.391 123.848C175.618 123.9 175.855 123.903 176.085 123.859L176.091 123.655C175.586 122.073 175.091 120.505 174.609 118.925C174.533 118.835 174.806 118.608 174.905 118.436L174.862 118.252C174.498 117.499 174.091 116.695 173.746 115.991L174.265 115.822C174.456 116.632 174.671 117.443 174.862 118.252C174.862 118.252 174.971 118.382 175.014 118.434C176.617 119.959 176.23 121.843 176.124 123.694L176.137 123.684ZM176.502 114.836C176.684 115.476 176.41 116.256 176.335 116.957L175.802 117.005L174.226 110.791L174.85 110.535C175.426 111.991 176.068 113.393 176.489 114.847L176.502 114.836ZM177.236 112.022C175.853 109.927 175.064 107.496 174.953 104.989C175.207 105.635 175.484 106.284 175.712 106.953C175.94 107.621 176.19 108.448 177.35 108.36L177.236 112.022ZM193.11 164.513C191.855 170.713 191.271 177.056 190.101 183.251C189.431 186.982 189.05 190.759 188.963 194.548C188.923 196.057 189.073 197.583 188.96 199.108C187.952 196.745 187.549 194.169 187.787 191.611C188.002 189.23 188.359 186.73 188.626 184.306C188.776 182.904 188.89 181.51 188.979 180.113C189.347 174.171 189.68 168.213 190.035 162.281C190.093 161.926 190.177 161.577 190.284 161.235C190.794 161.845 191.119 162.234 191.693 162.922C192.316 159.87 190.226 157.366 190.864 154.147C192.475 157.712 193.884 160.72 193.11 164.513ZM194.978 148.71C194.862 149.609 194.678 150.5 194.426 151.372C194.426 151.372 194.501 151.463 194.545 151.515C194.67 153.272 194.454 155.038 193.909 156.713C192.064 153.715 191.287 150.181 191.704 146.686C192.222 147.993 192.678 149.198 193.157 150.406C193.424 151.042 193.647 151.757 194.513 151.475L194.536 151.346C193.627 148.516 192.716 145.71 191.846 142.847C191.5 141.837 191.49 140.742 191.816 139.724C192.564 140.649 193.06 141.753 193.255 142.927C193.422 143.602 193.455 144.564 193.921 144.858C195.354 145.995 195.076 147.351 194.978 148.71ZM189.561 139.581C189.293 142.821 189.399 146.035 189.36 149.26C189.328 150.805 189.958 152.481 188.21 153.631C188.015 153.794 188.053 154.578 188.22 154.988C188.729 156.242 188.912 157.605 188.751 158.948C188.462 162.955 188.172 166.961 187.992 170.965C187.811 174.969 187.819 179.013 187.519 183.138C187.41 185.145 186.979 187.134 186.663 189.445C186.394 188.965 186.153 188.835 186.22 188.625C186.258 183.552 184.7 178.732 183.896 173.811C182.864 168.771 182.449 163.624 182.661 158.484C182.845 156.437 183.32 154.367 183.56 152.36C184.158 147.459 184.704 142.599 185.341 137.665C185.811 134.719 186.483 131.779 187.009 128.743C187.705 124.881 188.353 121.016 189.279 117.14C189.554 120.608 189.635 124.107 190.074 127.483C190.757 131.625 189.934 135.571 189.612 139.538L189.561 139.581ZM193.141 113.035C193.625 115.647 193.707 118.331 193.971 120.994C194.51 125.67 194.804 130.371 194.85 135.078C194.819 137.679 194.768 140.255 194.726 142.843L194.415 142.839C193.621 140.595 192.853 138.33 191.99 136.056C191.906 135.722 191.9 135.372 191.974 135.034C192.748 131.636 192.029 128.295 191.769 124.924C191.138 120.903 190.774 116.846 190.68 112.778C190.713 110.548 190.577 108.46 190.417 106.238C190.245 102.984 189.111 99.8532 187.16 97.2437C186.851 96.754 186.588 96.2362 186.375 95.697C184.366 91.4963 182.369 87.2838 180.305 83.1499C178.998 80.5227 178.047 77.7335 177.477 74.8551C177.814 75.0748 178.125 75.3324 178.404 75.6222C180.189 78.3152 181.974 81.0082 183.708 83.7446C184.349 84.7502 184.8 85.871 185.364 86.9417C186.675 89.4358 188.025 91.898 189.363 94.3707C189.913 95.4518 190.842 96.46 190.112 97.906C189.924 98.2608 190.145 98.8689 190.259 99.3471C191.238 103.923 192.343 108.439 193.192 112.992L193.141 113.035ZM208.243 216.698C208.626 218.581 208.969 220.496 209.325 222.4C209.532 223.438 208.913 224.043 208.15 224.79C207.758 221.683 207.496 218.732 207.169 215.702L207.636 215.576C207.885 215.923 208.089 216.3 208.243 216.698ZM216.928 203.681C216.536 205.374 215.875 206.982 215.348 208.566L215.42 209.365L213.854 212.632L213.874 212.814L213.795 212.878C213.011 215.885 211.777 218.755 210.136 221.393C209.936 220.415 209.752 219.798 209.688 219.169C209.713 216.633 209.507 214.1 209.074 211.601C208.998 211.378 209.329 211.036 209.578 210.543C210.839 212.528 209.919 214.882 211.312 216.603C212.032 213.404 211.009 210.252 211.1 207.092L211.566 206.99C211.779 207.957 211.974 208.85 212.23 209.869C212.487 210.889 212.55 211.651 212.782 212.535C213.014 213.42 213.378 213.117 213.848 212.968L213.952 212.881C213.734 211.433 213.529 209.975 213.335 208.529C213.142 207.084 212.868 205.595 212.709 204.165C212.676 203.862 212.836 203.552 213.312 203.199C213.562 204.553 213.875 205.877 214.053 207.225C214.042 207.681 214.164 208.129 214.404 208.515C214.644 208.901 214.992 209.209 215.405 209.4C215.286 209.257 215.214 208.987 215.264 208.835L215.348 208.566C215.219 206.935 215.101 205.316 214.924 203.68C214.826 202.639 214.583 201.61 214.511 200.547C214.572 200.139 214.692 199.74 214.869 199.367L215.298 199.406C215.53 200.291 215.771 201.212 215.971 202.059C216.096 202.082 216.224 202.093 216.352 202.093C216.534 201.712 216.664 201.307 216.735 200.892C216.739 199.788 216.69 198.728 216.582 197.541C216.584 196.812 216.744 196.092 217.049 195.43C217.356 194.768 217.801 194.179 218.355 193.705C218.494 194.162 218.687 194.419 218.631 194.642C218.136 197.609 217.571 200.679 216.906 203.655L216.928 203.681ZM251.517 243.987C253.059 249.407 253.766 255.031 253.614 260.664C253.681 263.383 253.835 266.204 253.848 268.858C253.762 272.077 253.402 275.262 253.109 278.523L252.524 278.614C251.877 277.198 251.323 275.741 250.865 274.253C249.204 267.613 246.792 261.183 243.676 255.088C243.167 254.082 242.394 253.209 241.912 252.158C240.811 249.73 239.779 247.333 238.846 244.765C237.251 240.313 235.212 236.033 232.762 231.989C231.775 230.132 230.91 228.215 230.171 226.247C229.956 225.728 229.775 225.194 229.631 224.65C228.92 222.294 228.27 219.907 227.531 217.597C226.791 215.286 226.077 212.822 225.142 210.541C223.955 207.742 223.19 204.781 222.874 201.756C222.702 199.809 222.2 197.916 221.882 195.979C221.828 195.464 221.814 194.944 221.842 194.428C222.304 194.677 222.707 195.021 223.027 195.436C223.347 195.852 223.577 196.33 223.701 196.839C225.956 201.914 228.059 207.072 230.476 212.078C232.227 215.68 234.507 219.017 236.345 222.591C237.396 224.642 238.045 226.896 238.895 229.049C239.521 230.833 240.245 232.58 241.063 234.285C243.108 238.327 244.708 242.58 245.836 246.967C246.466 249.436 247.097 251.881 247.573 254.324C248.049 256.767 248.444 258.77 248.933 260.938C249.116 261.843 249.38 262.767 249.567 263.624C249.988 265.474 250.522 267.406 250.972 269.342C251.155 269.907 251.374 270.46 251.627 270.997C251.995 270.652 252.255 270.208 252.374 269.717C252.493 269.227 252.465 268.713 252.296 268.237C251.427 264.559 250.558 260.881 249.69 257.202C248.607 252.977 247.316 248.792 246.245 244.556C244.422 237.096 240.921 230.264 238.336 223.13C237.427 221.067 236.341 219.086 235.09 217.21C233.726 214.759 232.301 212.338 231.002 209.833C229.478 206.9 228.083 203.882 226.648 200.896C226.529 200.595 226.432 200.286 226.359 199.971L226.692 199.869C227.542 201.225 228.483 202.52 229.511 203.747C230.718 205.017 232.035 206.18 233.446 207.221C234.834 208.305 235.975 209.672 236.793 211.231C241.078 219.502 244.939 227.984 248.362 236.646C249.533 238.972 250.755 241.386 251.517 243.987ZM222.35 184.669C222.74 185.136 222.245 186.496 222.029 187.424C221.759 188.504 221.426 189.568 221.034 190.611C220.709 191.412 220.342 192.196 219.935 192.959C219.411 191.974 219.1 190.891 219.02 189.777C218.94 188.665 219.095 187.548 219.473 186.498L220.658 186.389C221.361 185.252 220.848 184.162 220.743 183.06C220.638 181.959 220.036 181.053 221.011 179.82C221.187 180.4 221.239 180.753 221.377 181.077C221.815 182.209 221.399 183.504 222.393 184.589L222.35 184.669ZM246.358 208.421C248.241 211.363 250.314 214.19 252.299 217.069C254.084 219.423 255.33 222.141 255.949 225.03C255.605 224.841 255.279 224.619 254.977 224.366C253.179 222.476 251.431 220.567 249.634 218.677C248.94 217.888 248.183 217.157 247.371 216.493C242.493 212.689 237.998 208.417 233.952 203.739C233.805 203.497 233.623 203.278 233.41 203.09C229.984 201.017 228.004 197.695 225.755 194.552C224.926 193.55 224.304 192.392 223.926 191.147C223.865 190.545 223.883 189.938 223.981 189.34L224.392 189.305C224.836 189.837 225.192 190.421 225.547 191.005C227.419 193.644 229.744 195.93 232.415 197.756C233.77 198.827 234.838 200.291 236.149 201.465C238.892 203.984 241.455 206.693 243.818 209.572C243.894 209.663 244.063 209.655 244.426 209.747C244.322 209.376 244.195 209.011 244.045 208.657C242.163 204.767 238.63 202.168 235.976 198.989C234.33 197.165 232.51 195.506 230.542 194.036C229.308 193.228 228.343 192.072 227.769 190.714C229.302 191.811 230.794 192.966 232.396 193.963C233.617 194.761 234.915 195.433 236.272 195.968C238.296 196.635 240.021 197.993 241.146 199.803C242.947 202.593 244.538 205.581 246.358 208.421ZM249.128 197.787C244.844 196.057 240.564 194.278 236.241 192.581C232.098 191.23 228.494 188.593 225.951 185.054L226.407 181.854C227.981 183.105 229.618 184.274 231.312 185.357C233.49 186.621 235.809 187.658 238.084 188.775C240.638 190.077 243.225 191.338 245.844 192.559C246.417 192.822 246.931 193.199 247.353 193.668C247.775 194.138 248.096 194.689 248.297 195.288C248.662 196.094 249.09 196.871 249.576 197.61C249.42 197.741 249.264 197.871 249.128 197.787ZM253.134 199.948C252.376 199.567 251.813 199.288 251.597 199.161L249.645 194.185C251.51 194.521 251.343 195.982 251.887 196.871C252.624 197.751 253.04 198.854 253.068 200.002L253.134 199.948ZM257.249 202.215C256.349 201.821 255.479 201.491 254.524 201.033C255.639 198.781 253.101 197.509 253.416 195.353C254.996 197.345 256.379 199.488 257.543 201.749L257.249 202.215ZM254.593 190.275C257.566 191.884 260.278 193.932 262.638 196.352C263.874 197.676 265.412 198.726 266.765 199.952C268.109 201.088 269.387 202.301 270.59 203.585C271.475 204.569 272.204 205.683 272.752 206.888C274.814 211.217 277.63 215.143 281.068 218.485C282.228 219.578 283.044 220.987 283.414 222.537L283.036 222.743C282.514 222.283 282.037 221.774 281.613 221.223C279.214 217.611 275.627 215.211 272.29 212.69C268.953 210.169 265.252 207.556 261.712 205.029C260.731 204.328 259.692 203.743 258.715 203.127C258.93 200.746 257.314 199.232 256.631 197.094C257.454 197.157 257.96 197.263 258.333 198.052C259.065 199.642 259.928 201.124 260.738 202.649C260.954 202.938 261.186 203.215 261.432 203.479C261.691 203.263 261.924 203.068 261.844 202.893C261.054 199.809 260.234 196.796 256.928 195.262C254.653 194.154 252.285 193.25 249.851 192.559C247.722 191.897 245.658 191.04 243.686 190C239.908 188.111 236.119 186.21 232.452 184.163C231.258 183.456 230.102 182.687 228.987 181.859L229.062 181.422C229.468 181.326 229.937 181.045 230.275 181.159C231.61 181.619 232.92 182.15 234.199 182.749C236.728 183.8 239.371 184.549 242.074 184.983C243.927 185.418 245.732 186.035 247.464 186.824C249.892 187.814 252.259 188.949 254.55 190.223L254.593 190.275ZM261.453 177.945C262.989 177.807 263.369 179.186 264.605 179.981C262.79 180.418 262.521 180.201 261.43 177.919L261.453 177.945ZM224.105 170.655C225.486 171.604 226.816 172.625 228.089 173.714C228.167 173.517 228.37 173.127 228.679 172.495C230.891 172.851 233.287 173.295 235.62 173.769C238.294 174.333 240.951 175.065 243.672 175.503C247.461 175.946 251.298 175.677 254.988 174.71C261.196 173.47 267.371 172.058 273.607 170.64C274.648 170.41 275.622 169.993 276.634 169.676C281.515 168.306 286.54 167.518 291.606 167.33C291.828 167.314 292.051 167.349 292.257 167.433C292.464 167.515 292.649 167.645 292.799 167.809C291.304 168.287 289.815 168.825 288.342 169.328C282.707 171.196 277.287 173.661 272.175 176.679L271.063 177.299C269.086 178.333 269.14 178.265 267.576 176.708C266.926 176.062 266.311 174.902 264.649 175.629C265.559 176.718 266.361 177.679 267.129 178.601C266.743 179.43 266.113 179.625 265.773 179.006C264.377 176.517 262.148 176.748 259.809 177.137C256.135 177.708 252.414 177.931 248.697 177.803C248.417 177.835 248.135 177.849 247.853 177.847C241.653 177.012 235.365 176.734 229.322 174.953C228.234 174.623 227.167 174.226 226.129 173.765C225.447 173.476 225.053 173.585 224.969 174.513C228.565 176.507 232.556 177.687 236.658 177.967C239.394 178.237 242.106 178.637 244.841 178.776C247.986 178.903 251.163 178.805 254.32 178.79C255.239 178.789 256.157 178.715 257.064 178.569C257.859 178.382 258.694 178.488 259.416 178.869C260.139 179.249 260.699 179.878 260.994 180.639C259.287 181.054 257.559 181.379 255.818 181.613C253.303 181.819 250.769 181.842 248.237 181.841C247.261 181.842 246.288 181.722 245.341 181.485C244.248 181.23 243.328 181.712 242.325 181.801C240.57 181.899 238.809 181.745 237.098 181.342C234.016 180.656 230.994 179.832 227.933 178.908C227.233 178.585 226.58 178.166 225.993 177.666C226.044 176.698 226.284 175.639 224.961 175.268C223.639 174.897 223.327 175.289 223.12 176.387C223.077 176.943 223.087 177.502 223.15 178.057C223.239 179.447 223.138 180.843 222.848 182.206C222.802 181.265 222.588 180.339 222.218 179.473C221.271 177.957 220.861 176.165 221.056 174.389C221.077 173.622 220.886 172.945 219.714 173.307C219.568 175.058 219.455 176.848 219.246 178.629C219.055 180.633 218.764 182.624 218.372 184.598C217.776 187.558 217.02 190.482 216.107 193.359C215.248 195.73 214.237 198.044 213.082 200.287C211.22 204.043 209.318 207.831 207.523 211.641C206.317 214.233 205.33 216.928 204.179 219.584C203.647 220.821 202.991 221.985 202.472 223.21C201.209 226.181 198.433 227.418 195.941 228.97C194.872 229.642 193.633 230.082 193.619 231.701L191.346 231.616C191.219 231.965 191.026 232.236 191.052 232.478C191.182 233.07 191.126 233.688 190.89 234.247C190.655 234.805 190.253 235.278 189.739 235.6C189.619 235.665 189.514 235.753 189.428 235.859C186.618 240.406 182.858 244.315 180.488 249.178C179.264 251.696 177.775 254.106 176.472 256.581C176.078 257.431 175.742 258.306 175.468 259.202C175.555 259.305 175.652 259.422 175.853 259.453C176.126 259.225 176.635 259.175 176.803 258.902C179.031 255.083 181.677 251.553 183.317 247.345C183.769 246.388 184.354 245.499 185.055 244.706C186.754 242.539 188.456 240.384 190.162 238.241C190.405 237.928 190.771 237.732 191.191 237.206L191.707 240.805C191.873 240.82 192.037 240.859 192.215 240.886C192.453 240.542 192.633 240.161 192.749 239.759C192.886 238.499 192.844 237.235 192.994 235.965C193.138 235.24 193.339 234.528 193.595 233.835C194.851 235.34 193.37 237.127 194.925 238.383C195.2 238.035 195.407 237.639 195.534 237.214C195.671 235.822 195.703 234.409 195.806 233.002C195.87 232.024 195.88 230.981 197.431 230.676L197.582 234.206C198.553 234.342 198.71 233.792 198.775 233.21C198.921 232.169 198.972 231.117 198.927 230.067C198.862 229.305 198.97 228.775 199.633 228.487C202.291 227.347 203.288 224.952 204.233 222.445C204.68 221.346 205.08 220.241 205.524 219.166L205.973 219.254L207.405 226.667C206.463 228.174 205.426 229.62 204.302 230.996C201.398 234.476 198.02 237.532 194.268 240.076C191.854 241.647 189.588 243.435 187.498 245.417C187.384 245.492 187.28 245.579 187.187 245.678C184.5 249.395 181.724 253.033 179.154 256.786C177.187 259.705 175.477 262.563 172.343 264.452C170.491 265.557 168.817 266.954 166.751 268.04C166.937 267.501 167.173 266.98 167.456 266.484C169.664 262.97 171.622 259.305 173.316 255.516C174.959 252.208 176.86 248.947 178.667 245.678C178.857 245.299 179.127 244.963 179.283 244.57C180.631 241.208 182.5 238.08 184.822 235.301C186.208 233.099 187.467 230.82 188.593 228.476C191.024 224.531 193.47 220.575 196.171 216.823C197.58 215.252 199.096 213.78 200.708 212.42C201.887 211.194 202.903 209.773 203.904 208.519L207.48 204.126C210.382 200.306 212.708 196.08 214.383 191.583C215.602 188.588 216.463 185.459 216.951 182.263C217.336 180.42 217.394 178.524 217.119 176.661C216.984 175.776 216.62 174.942 216.066 174.238C215.547 173.676 215.205 172.974 215.083 172.218C214.219 166.563 212.786 161.01 210.805 155.644C210.052 153.236 209.471 150.778 209.068 148.288C208.829 147.332 208.524 146.395 208.157 145.481C206.654 141.898 205.538 138.165 204.829 134.345C207 136.054 208.485 138.488 209.011 141.202C209.024 141.878 209.1 142.552 209.237 143.215C209.452 143.894 209.831 144.48 209.079 145.108C208.534 145.563 208.601 146.145 209.058 146.798C209.623 147.686 210.109 148.621 210.51 149.594C211.77 152.263 213.016 154.943 214.289 157.602C214.538 157.901 214.909 158.186 215.09 158.563C215.889 159.455 216.393 160.574 216.53 161.764C216.673 162.517 217.026 163.215 217.549 163.776C218.252 164.515 218.914 165.293 219.535 166.103C220.643 167.972 222.208 169.53 224.083 170.629L224.105 170.655ZM235.951 142.934C232.437 140.121 228.989 137.231 225.539 134.363C225.269 134.039 224.998 133.715 224.608 133.511L214.233 125.592C214.061 125.475 213.917 125.319 213.815 125.137C213.713 124.955 213.655 124.752 213.644 124.543C216.11 125.941 218.561 127.374 221.051 128.775C222.4 129.52 223.764 130.231 225.155 130.897C227.124 131.83 229.12 132.718 231.103 133.617C231.487 133.785 231.827 134.04 232.096 134.362C232.365 134.684 232.555 135.064 232.651 135.472C233.02 136.574 233.539 137.616 234.061 138.876C235.359 137.792 233.94 136.488 234.816 135.295C235.426 135.71 236.292 135.957 236.578 136.51C238.024 139.377 239.32 142.301 240.848 145.583C239.053 145.043 237.387 144.141 235.951 142.934ZM245.37 148.943L244.864 149.233C241.906 146.507 241.439 142.492 239.633 138.826C240.141 138.736 240.665 138.835 241.105 139.105C241.545 139.374 241.871 139.795 242.022 140.289C243.113 143.179 244.233 146.068 245.38 148.956L245.37 148.943ZM198.54 107.317C199.067 107.883 199.562 108.476 200.023 109.096C201.684 111.101 203.586 112.893 205.687 114.43C207.732 116.123 209.942 117.604 212.285 118.852C214.711 120.019 217.228 121.134 219.635 122.119C224.356 123.925 229.17 125.498 233.887 127.351C239.144 129.399 243.982 132.39 248.164 136.175C250.294 138.118 252.705 139.716 254.878 141.579C257.66 143.858 260.352 146.213 263.122 148.503C267.357 152.158 272.296 154.906 277.634 156.579C277.976 156.738 278.3 156.933 278.602 157.158C275.974 158 273.184 158.217 270.457 157.792C266.879 157.013 263.349 155.975 259.842 154.94C256.335 153.903 252.99 152.797 249.586 151.699C248.843 151.477 248.122 151.187 247.432 150.833C247.071 150.63 246.798 150.302 246.663 149.911C245.857 146.995 245.162 144.052 244.338 141.085C244.706 141.093 245.061 141.219 245.351 141.447C245.64 141.674 245.847 141.99 245.94 142.346C246.483 143.787 247.109 145.223 247.751 146.625C248.108 147.162 248.522 147.658 248.985 148.105C249.536 146.126 248.002 144.896 248.564 143.195L253.37 145.787C253.653 144.518 252.728 144.122 252.215 143.824C250.491 142.708 248.71 141.708 246.941 140.697C244.75 139.443 242.448 138.347 240.368 136.936C237.13 134.809 233.691 133.004 230.102 131.547C224.944 129.246 220.244 126.41 215.377 123.691C213.493 122.622 211.837 121.164 210.029 119.921C208.889 119.11 207.709 118.356 206.573 117.521C206.005 117.117 205.483 116.652 205.018 116.134C204.075 114.846 203.051 113.619 201.953 112.462C199.859 110.578 198.163 108.296 196.965 105.748C197.481 106.287 198.035 106.792 198.551 107.33L198.54 107.317ZM203.001 121.736C204.034 123.317 204.94 124.983 205.984 126.577C207.599 129.038 209.265 131.457 210.892 133.907C211.238 134.429 211.545 134.974 211.813 135.538C213.536 138.786 215.942 141.623 218.864 143.854C218.83 143.507 218.735 143.169 218.582 142.856C217.314 141.074 216.006 139.349 214.699 137.598C214.201 137.002 213.704 136.405 213.306 135.745C210.68 131.332 208.019 126.772 205.31 122.34C204.6 121.172 203.787 120.067 203.014 118.929C202.385 118.177 201.757 117.424 201.231 116.608L201.672 116.24C202.057 116.572 202.371 116.977 202.596 117.432C202.82 117.887 202.952 118.383 202.981 118.89L203.057 118.981C203.269 119.024 203.572 118.992 203.657 119.119C206.787 123.53 209.829 127.992 213.024 132.348C214.882 134.915 216.998 137.266 218.92 139.779C220.657 142.071 222.277 144.462 223.96 146.821C224.953 148.195 225.8 149.447 226.764 150.734C228.359 152.882 230.029 154.989 231.613 157.123C231.914 157.576 232.055 158.117 232.014 158.66C230.446 157.547 228.863 156.467 227.31 155.319C223.599 152.561 219.888 149.803 216.219 146.964C213.612 145.118 211.599 142.551 210.429 139.578C209.427 136.715 207.363 134.585 205.762 132.113C205.318 131.581 204.99 130.952 204.65 130.333C203.159 127.702 201.655 125.083 200.24 122.411C199.347 120.735 198.606 118.976 197.728 117.133C196.024 117.387 195.601 116.089 195.328 114.733C194.826 112.047 194.387 109.331 193.856 106.295C195.453 107.792 196.628 109.681 197.262 111.774C197.843 113.586 198.651 115.316 199.666 116.923C200.643 118.596 201.935 120.116 203.012 121.749L203.001 121.736ZM232.449 104.026C231.977 103.839 231.542 103.568 231.165 103.226C229.811 101.254 228.896 99.0151 228.481 96.6598C230.647 98.5948 231.047 101.475 232.784 103.636L232.449 104.026ZM234.038 103.581C233.192 101.644 232.383 99.6994 231.575 97.7547C231.434 97.5858 231.609 97.2417 231.634 96.8237C232.015 96.9901 232.372 97.0223 232.466 97.187C233.842 99.6271 235.183 102.052 236.648 104.704C235.397 104.867 234.514 104.68 234.07 103.619L234.038 103.581ZM200.598 76.0986C205.187 77.64 209.575 79.8114 214.073 81.6929C215 82.1921 215.959 82.6271 216.944 82.9959C221.572 84.2408 225.397 87.0817 229.555 89.2684C233.188 91.094 236.984 92.5773 240.892 93.698C244.248 94.8165 247.605 95.7793 250.971 96.9103C252.129 97.3487 253.245 97.8912 254.305 98.531C256.621 99.8555 258.852 101.341 261.212 102.586C263.596 104.161 265.669 106.162 267.328 108.489C257.06 109.375 247.652 106.835 238.207 105.252L234.864 97.6068C236.043 98.5463 236.965 99.7685 237.543 101.16C238.291 102.32 239.026 103.49 239.812 104.749C240.641 104.344 240.6 103.872 240.239 103.203C239.482 101.899 238.847 100.529 238.34 99.1082C239.586 99.8853 240.526 101.067 241.003 102.456C241.251 103.175 241.534 103.752 242.678 103.435C242.212 102.217 241.772 101.11 241.148 99.5175C243.819 100.238 245.912 100.846 248.187 101.436C248.515 100.589 247.905 100.042 247.102 99.7658C245.844 99.3404 244.535 99.0906 243.247 98.7345C241.433 98.223 239.61 97.6745 237.796 97.163C235.982 96.6515 234.313 96.1294 232.545 95.778C230.776 95.4265 228.404 95.2489 226.365 94.8371C225.335 94.6261 224.348 94.2452 223.443 93.7097C220.061 91.8209 216.723 89.852 213.395 87.896C210.974 86.6048 208.764 84.9533 206.84 82.997C205.302 81.575 203.517 80.4461 201.572 79.6664C198.225 78.0569 194.67 76.4885 191.182 74.9738C189.759 74.527 188.427 73.8255 187.253 72.9038C191.969 73.9648 196.393 74.6754 200.63 76.1374L200.598 76.0986ZM150.542 38.8386C150.313 38.2597 150.294 37.6192 150.488 37.0275C150.681 36.4358 151.076 35.9303 151.602 35.5983C151.828 35.499 152.072 35.4505 152.319 35.4563C152.566 35.4616 152.808 35.5213 153.029 35.6304C153.251 35.7395 153.445 35.8955 153.599 36.0878C153.754 36.2802 153.864 36.5038 153.923 36.7433C154.094 37.2847 154.057 37.8699 153.82 38.3855C153.583 38.9011 153.162 39.3101 152.639 39.5317C151.655 39.9352 150.863 39.6717 150.575 38.8777L150.542 38.8386ZM164.088 56.4401C162.234 53.4529 160.42 50.4092 158.385 47.5497C156.882 45.4583 155.082 43.5921 153.271 41.5809L155.639 39.142C156.016 39.4746 156.365 39.8393 156.681 40.2322C157.879 41.984 158.988 43.7881 160.186 45.5399C162.921 49.5547 165.655 53.5691 168.454 57.5295C169.08 58.4379 170.089 59.0926 170.763 60.0057C172.037 61.7165 173.181 63.5355 174.427 65.2919C174.803 65.8675 175.278 66.3733 175.828 66.7862C176.969 67.5728 178.229 68.2384 179.398 68.9798C180.898 69.759 182.232 70.8206 183.329 72.1063C184.072 72.9507 184.959 73.6564 185.949 74.1903C187.312 75.0734 188.721 75.8814 190.171 76.611C192.044 77.5356 193.977 78.3219 195.906 79.1555L201.593 81.5641L203.768 87.1243C205.13 86.1191 203.827 85.0057 204.083 84.0207C205.859 84.565 206.023 84.6034 206.977 87.3294C207.44 88.7273 208.557 90.0399 207.985 91.8607L209.455 92.461C210.531 90.506 208.359 89.1701 208.7 87.2567C209.065 87.3215 209.407 87.478 209.695 87.7121C209.983 87.9458 210.206 88.249 210.344 88.593C210.933 90.1702 211.426 91.7626 212.068 93.2966C212.213 93.7351 212.477 94.1246 212.83 94.4212C213.408 94.8138 214.014 95.1611 214.645 95.4608C213.938 93.5851 213.231 91.7095 212.511 89.8442L213.063 89.5821C215.874 90.6033 215.585 93.5533 216.61 95.7577C217.199 96.015 217.562 95.7115 217.52 95.1078C217.423 93.9353 217.192 92.7621 216.925 91.2021C219.252 92.5399 221.32 93.8304 223.574 95.0535C223.665 97.1686 224.51 99.1812 225.955 100.728C227.62 100.086 225.94 99.0228 226.389 98.1632C227.606 99.3706 228.502 100.862 228.999 102.503C227.523 102.897 226.477 101.987 225.483 101.429C222.398 99.6158 219.172 98.0529 215.836 96.7559C215.418 96.5232 215.029 96.2425 214.675 95.9194C212.857 95.8411 211.103 95.2189 209.64 94.1338C208.281 93.2743 206.971 92.3389 205.717 91.3322L201.02 87.9207C196.679 85.3578 192.349 82.8072 188.172 80.0189C186.686 78.8326 185.335 77.4876 184.141 76.0073C181.723 73.2715 179.011 70.8097 176.054 68.6663C175.489 68.2795 174.706 68.1851 174.206 67.744C172.798 66.4529 170.707 65.6888 169.797 64.2024C168.122 61.4835 165.82 59.2002 164.12 56.4787L164.088 56.4401ZM174.804 85.8702C174.749 82.3495 174.526 78.8372 174.307 75.2773C174.261 74.4572 174.095 73.626 173.932 72.3752C174.278 72.6928 174.581 73.0552 174.831 73.4523C176.2 76.3124 176.962 79.4253 177.067 82.5939C177.129 84.4502 177.319 86.3003 177.637 88.1295C178.051 94.2398 178.063 100.37 177.674 106.481C177.66 106.76 177.627 107.038 177.576 107.312L177.165 107.479C176.929 107.102 176.723 106.707 176.552 106.296C176.003 104.266 175.401 102.28 174.978 100.19C174.832 99.5187 174.769 98.8321 174.79 98.1452C174.8 94.0419 174.889 89.9821 174.837 85.9096L174.804 85.8702ZM171.865 96.6459C172.237 95.113 172.717 93.6082 173.303 92.1431L173.786 92.2465C173.691 92.8981 173.657 93.5429 173.527 94.1793C173.398 94.8156 173.08 95.1472 173.137 95.5843C174.116 102.033 172.865 108.448 172.362 114.835C172.109 117.909 171.451 120.945 171.179 123.968C170.907 126.992 170.745 129.989 170.545 132.995C170.462 134.32 170.353 135.666 170.353 136.986C170.423 137.622 170.555 138.249 170.749 138.858C170.973 139.468 171.093 140.112 171.105 140.762C170.951 142.908 171.145 145.066 171.682 147.15C171.796 148.896 171.786 150.647 171.653 152.391C171.642 153.8 171.748 155.206 171.971 156.596C172.22 157.348 172.698 158.004 173.338 158.472C173.771 162.983 174.194 167.481 174.606 171.966L174.192 172.025C173.686 169.783 173.18 167.542 172.698 165.302L169.444 150.405C168.762 146.954 168.464 143.437 168.553 139.921C168.602 133.516 168.625 127.135 168.807 120.73C169.272 112.653 170.305 104.617 171.898 96.6846L171.865 96.6459ZM131.886 170.085C132.02 170.412 132.126 170.752 132.203 171.097C132.391 173.142 132.604 175.297 132.907 177.401C133.107 178.774 133.513 180.131 133.821 181.503L134.36 184.18C134.414 184.687 134.497 185.191 134.608 185.69C136.845 193.487 138.295 201.503 141.259 209.09C141.784 210.768 142.203 212.477 142.514 214.207C143.382 217.886 144.333 221.319 145.165 224.875C145.475 226.225 145.589 227.613 145.501 228.996L144.757 229.133C144.573 228.649 144.35 228.197 144.213 227.716C143.444 224.703 142.668 221.681 141.886 218.651C141.452 216.812 141.008 214.803 140.46 212.906C139.785 210.541 138.913 208.231 138.294 205.907C137.423 202.78 136.651 199.639 135.902 196.499C134.89 192.28 134.101 187.985 132.929 183.81C131.829 179.813 131.293 175.681 131.336 171.535C131.33 171.269 131.381 171.006 131.483 170.761C131.586 170.516 131.738 170.295 131.932 170.113L131.886 170.085ZM202.145 88.0821L201.027 87.9813C200.942 87.7216 200.871 87.4514 200.649 86.7111C201.429 87.2496 201.848 87.5154 202.267 87.8052L202.145 88.0821Z" fill="#101A24"/>
</g>
</svg>
