<svg width="300" height="238" viewBox="0 0 300 238" fill="none" xmlns="http://www.w3.org/2000/svg">
<g opacity="0.1">
<path d="M102.762 210.566C102.149 208.764 101.645 206.926 101.253 205.062C99.8403 197.662 98.5283 190.287 97.2033 182.813C96.8864 180.794 96.8226 178.742 97.0121 176.707C97.2103 173.328 96.9796 169.936 96.3245 166.615C95.4901 161.759 94.5737 156.922 93.7623 152.058C93.3781 149.109 93.5928 146.113 94.3933 143.249C95.2395 138.962 95.7642 134.618 95.9633 130.253C96.1508 127.732 96.467 125.211 96.692 122.688C97.1568 118.3 96.7588 113.865 95.5194 109.63C93.9662 104.771 91.1771 100.79 88.7521 96.5263C88.6533 96.3722 88.396 96.3689 87.8767 95.9555C88.1739 97.0837 88.3633 97.8693 88.5443 98.6327C90.0075 102.898 90.9475 107.324 91.342 111.816C91.4965 114.987 91.4312 118.153 91.5321 121.319C91.6021 123.843 91.8008 126.369 91.8999 128.87C92.3055 132.795 91.9614 136.761 90.8865 140.558C90.2594 143.161 89.834 145.808 89.6149 148.476C88.6349 154.01 87.6863 159.558 86.5324 165.071C86.0964 166.715 85.4066 168.28 84.4872 169.711C84.1878 170.392 83.2343 170.711 82.4537 171.308C82.0144 170.671 81.5411 170.279 81.4258 169.784C80.0394 165.221 79.1957 160.508 78.9114 155.747C78.8344 152.444 78.2279 149.166 77.9309 145.858C77.7457 143.763 77.7183 141.646 77.5491 139.557C77.3475 136.828 77.0562 134.095 76.8171 131.366C76.9069 129.918 76.7541 128.465 76.3662 127.067C75.8357 125.778 75.5529 124.401 75.5326 123.006C75.3904 121.491 74.9441 120.02 74.2199 118.682C73.4956 117.344 72.5077 116.167 71.3165 115.22C70.6264 114.628 70.0027 113.963 69.4568 113.237C67.2887 110.369 65.4376 107.274 63.937 104.007C62.8707 101.69 61.4516 99.5877 60.2979 97.343C59.4762 95.7861 58.7607 94.1743 58.1561 92.5205C56.7739 88.5315 55.5412 84.4967 54.1987 80.5439C53.2056 77.7667 52.1257 75.0194 50.9594 72.3011C49.4758 69.1071 48.3217 65.7702 47.5161 62.3426C46.6305 58.1479 45.5496 53.9775 44.8136 49.7369C44.3981 47.385 44.2867 44.9898 44.4822 42.6094C44.6671 40.0581 43.8699 37.5331 42.2542 35.5506C39.853 32.2393 37.5614 28.8468 35.0437 25.6318C32.6314 22.722 30.1447 19.9823 27.7393 17.0571C26.8561 15.8787 26.0651 14.6346 25.3714 13.3354C25.1379 12.9744 25.031 12.5455 25.0691 12.1171C25.1073 11.6887 25.288 11.2855 25.5818 10.9715C26.0243 10.4277 26.4585 9.86169 26.9172 9.32487C28.9 7.00328 31.3732 7.59434 33.196 9.74579C36.8071 14.126 40.0348 18.7066 43.5118 23.1386C44.7307 24.592 46.0229 25.9814 47.3851 27.3018C47.5697 27.5123 47.863 27.6417 47.9878 27.8627C49.7226 30.7146 52.4355 32.4822 54.8997 34.6024C56.6392 35.8962 58.6485 36.7815 60.7774 37.1926C63.9047 38.0165 67.0329 38.8406 70.1012 39.8416C74.0667 41.0028 77.9608 42.3978 81.7625 44.019C89.3593 47.4387 96.3641 52.0464 102.512 57.6683C105.257 60.2821 107.629 63.2849 110.23 66.0564C112.203 68.1631 114.262 70.197 116.32 72.2309C118.379 74.2647 120.467 76.2749 122.475 78.3417C122.89 78.7827 123.023 79.4878 123.409 80.4154C122.724 80.4276 122.04 80.3621 121.371 80.219C119.35 79.4396 117.334 78.6065 115.354 77.7344C111.117 75.8673 106.822 74.086 102.708 71.9776C97.2059 69.1655 91.8621 66.0346 86.4137 63.0982C84.9989 62.3278 83.4599 61.797 81.9745 61.1429C80.8357 60.5963 79.7644 59.9192 78.7816 59.1257C76.3669 57.0658 73.7671 55.2342 71.0156 53.6542C68.5799 52.1265 66.2257 50.4727 63.9627 48.6996C63.6541 48.563 63.3852 48.3344 62.8469 48.0044C62.9815 49.0925 63.5283 50.0868 64.3749 50.7836C67.3146 53.115 69.6746 56.0952 71.2692 59.4913C72.0967 60.9549 73.2686 62.1943 74.6839 63.1018C76.5327 64.5249 78.2824 66.0727 79.9193 67.7361C82.6482 70.4717 85.2689 73.3259 87.9043 76.1489C88.9577 77.2785 89.8955 78.5038 90.9429 79.6488C92.7236 81.7568 94.9577 83.4361 97.4785 84.5607C99.8004 85.6201 101.892 87.1256 103.634 88.9911C108.786 94.0682 113.871 99.0425 118.769 104.359C121.211 106.949 123.222 110.015 125.518 112.726C127.814 115.437 130.285 118.299 132.508 121.218C135.055 124.575 137.456 128.053 139.836 131.539C141.738 134.225 143.465 137.054 145.243 139.851C145.409 140.203 145.531 140.572 145.607 140.954C145.421 141.102 145.207 141.213 144.978 141.279C144.748 141.345 144.508 141.365 144.272 141.338C144.035 141.31 143.805 141.237 143.597 141.121C143.389 141.004 143.205 140.848 143.058 140.661C141.524 139.32 139.962 138.004 138.39 136.666C133.999 132.883 129.53 129.233 125.147 125.474C119.002 120.18 112.921 114.822 106.805 109.505C104.939 107.859 102.987 106.314 100.956 104.877C101.504 106.023 102.007 107.188 102.637 108.315C104.878 112.202 107.242 116.015 109.431 119.934C111.287 123.226 112.937 126.65 114.734 129.991C115.385 131.033 116.158 131.994 117.037 132.854C120.092 135.985 123.44 138.815 127.037 141.304C129.614 143.04 132.479 144.302 135.498 145.032C138.37 145.892 141.363 146.435 144.169 147.486C147.585 148.616 150.829 150.207 153.813 152.216C154.185 152.38 154.51 152.689 154.876 152.906C157.167 154.248 159.557 155.448 161.756 156.953C164.389 158.752 167.404 159.916 170.564 160.354C173.896 160.98 177.027 162.398 179.695 164.488C179.878 164.599 180.041 164.74 180.177 164.904C182.404 167.732 185.217 170.024 187.13 173.102C187.525 173.756 188.052 174.322 188.499 174.943C188.945 175.564 188.92 176.292 188.018 176.578C187.371 176.768 186.691 176.808 186.026 176.698C183.963 176.306 181.892 175.892 179.867 175.332C177.843 174.772 175.751 173.944 173.705 173.264C172.808 172.868 171.796 172.773 170.886 172.409C169.264 171.912 167.707 171.225 166.246 170.365C164.072 168.915 161.694 167.799 159.19 167.053C156.776 166.284 154.324 165.518 151.919 164.901C150.63 164.555 149.275 164.53 147.959 164.247C146.116 163.86 144.283 163.366 142.431 162.919C142.198 162.817 141.925 162.807 141.359 162.668C142.223 164.267 143.301 165.743 144.561 167.053C146.798 169.774 149.07 172.457 151.241 175.242C153.187 177.743 155.016 180.341 156.887 182.883C157.218 183.251 157.505 183.656 157.741 184.09C159.085 186.56 160.668 188.891 162.469 191.05C164.829 194.454 167.138 197.891 169.47 201.319C171.801 204.748 173.939 207.944 176.174 211.255C175.124 213.638 174.227 213.871 172.282 212.293C171.013 211.272 169.859 210.117 168.578 209.128C166.338 207.42 164.134 205.674 161.766 204.132C158.36 201.986 155.345 199.277 152.847 196.119C150.278 192.771 147.35 189.69 144.642 186.446C142.616 184.001 140.707 181.461 138.694 178.986C137.672 177.741 136.577 176.538 135.497 175.342C133.728 173.285 131.81 171.359 129.76 169.582C129.853 170.222 129.987 170.855 130.163 171.477C131.571 175.533 133.031 179.557 134.446 183.597C134.963 185.063 135.332 186.573 135.929 187.945C137.308 191.563 138.738 195.149 140.191 198.725C142.759 205.139 145.377 211.521 147.9 217.951C148.091 218.836 148.146 219.745 148.062 220.646C147.158 220.77 146.238 220.689 145.371 220.409C144.503 220.129 143.709 219.657 143.049 219.028C139.049 216.001 135.839 212.052 133.694 207.518C131.691 203.68 129.383 199.948 127.18 196.188C124.141 190.97 120.544 186.097 118.351 180.384C118.044 179.696 117.816 178.977 117.672 178.238C116.747 173.615 115.366 169.097 113.549 164.748C113.222 163.749 113.059 162.704 113.065 161.653C113.044 158.436 112.59 155.235 111.717 152.138C111.074 149.55 110.57 146.93 110.207 144.287C109.824 140.353 108.572 136.552 106.54 133.159C106.304 132.816 106.22 132.335 105.682 132.005C105.85 133.428 105.973 134.868 106.231 136.292C107.164 141.469 108.123 146.644 109.105 151.818C109.434 154.327 110.002 156.799 110.804 159.198C111.402 160.796 111.577 162.521 111.313 164.206C111.01 166.991 111.433 169.8 111.192 172.612C110.939 176.895 110.423 181.159 109.649 185.378C108.82 189.086 108.511 192.892 108.731 196.684C108.818 199.358 108.559 202.031 107.96 204.638C107.634 206.341 107.37 208.072 106.905 209.715C106.643 210.5 106.152 211.191 105.496 211.697C105.26 211.886 104.977 212.007 104.678 212.05C104.379 212.093 104.074 212.054 103.795 211.938C103.516 211.823 103.273 211.635 103.091 211.393C102.909 211.153 102.796 210.867 102.762 210.566ZM130.067 90.7927C131.164 94.0621 132.6 97.2085 134.353 100.18C135.181 101.487 136.068 102.783 136.792 104.118C138.701 107.711 140.892 111.148 143.346 114.394C147.249 119.94 151.883 124.933 157.123 129.238C157.716 129.72 158.4 130.078 159.134 130.29C159.723 130.355 160.319 130.311 160.891 130.16C160.817 129.573 160.928 128.901 160.656 128.43C158.84 125.173 157.083 121.869 155.009 118.776C153.942 117.288 153.066 115.673 152.399 113.968C151.406 110.982 149.624 108.405 149.202 105.171C149.177 104.976 149.017 104.795 148.932 104.609C147.649 102.03 146.276 99.4865 145.133 96.8403C143.588 93.2221 142.249 89.5105 140.746 85.838C140.047 84.0712 139.377 82.2798 138.53 80.5954C137.332 78.4438 136.379 76.1649 135.687 73.8014C135.233 72.1002 134.673 70.4296 134.013 68.7968C132.972 66.0473 131.87 63.3084 130.753 60.5626C130.095 58.8612 129.35 57.1945 128.519 55.5706C127.103 52.915 125.555 50.3489 124.088 47.7262C124.088 47.7262 124.191 47.4941 124.306 47.2313C124.675 47.4139 125.025 47.6298 125.352 47.8766C128.489 50.6072 131.613 53.3692 134.667 56.0814C138.477 59.2514 141.268 63.475 142.689 68.2239C143.626 71.4622 144.855 74.6265 145.809 77.9102C146.763 81.1937 147.343 84.8663 148.372 88.2749C149.401 91.6827 150.869 95.4334 152.162 98.9954C152.802 100.773 153.583 102.521 154.095 104.335C155.316 108.623 156.907 112.798 158.849 116.811C159.482 118.006 160.216 119.145 161.043 120.216C162.01 121.583 163.139 122.838 164.121 124.213C166.629 127.701 169.108 131.212 171.572 134.718C172.296 135.758 172.962 136.845 173.744 137.836C175.59 140.145 177.486 142.422 179.368 144.692C181.249 146.961 183.051 149.159 184.951 151.344C185.616 152.099 186.34 152.973 187.546 152.709C188.556 150.919 188.578 150.911 187.8 149.405C187.357 148.526 186.817 147.697 186.333 146.91C185.096 144.518 183.781 142.221 182.597 139.834C181.586 137.903 180.707 135.906 179.969 133.855C178.435 129.245 177.178 124.554 175.659 119.951C173.867 114.544 171.926 109.181 170.023 103.818C169.11 101.236 168.22 98.6453 167.114 96.1264C165.388 92.1892 163.564 88.3071 161.643 84.4802C160.185 81.5847 158.59 78.8324 156.924 75.9919C156.178 74.6664 155.35 73.3592 154.56 72.0504L154.907 71.7235C155.654 72.2927 156.365 72.9009 157.147 73.4303C161.828 76.6013 166.016 80.4441 169.577 84.8361C170.12 85.4846 170.699 86.1029 171.308 86.6896C174.204 89.5909 177.128 92.4302 180.001 95.3406C182.661 98.0638 185.264 100.836 187.859 103.623C188.786 104.622 190.065 105.408 190.032 107.075C190.039 107.354 190.408 107.647 190.618 107.923C191.776 109.154 192.848 110.495 193.894 111.935C194.749 112.972 195.491 114.098 196.108 115.293C198.234 119.904 199.293 124.936 199.208 130.013C199.209 132.526 199.499 135.054 199.576 137.563C199.778 138.884 199.718 140.232 199.398 141.53C198.703 143.735 198.2 146.008 197.698 148.28C197.348 151.012 196.524 153.662 195.263 156.11C195.099 156.335 194.985 156.594 194.929 156.868C194.446 160.145 193.887 163.427 193.554 166.697C193.13 171.516 192.874 176.372 192.588 181.214C192.366 185.069 192.23 188.944 192.047 192.797C192.001 193.571 191.902 194.34 191.91 195.12C191.915 198.502 192.11 201.876 191.902 205.238C191.784 207.144 192.232 209.225 190.848 210.942C190.732 211.206 190.745 211.636 190.74 211.984C190.727 213.734 190.706 215.498 190.761 217.259C190.699 217.876 190.808 218.5 191.077 219.059C191.547 219.758 191.751 220.601 191.654 221.438C191.669 221.906 192.039 222.365 192.237 222.84C192.741 222.661 193.219 222.41 193.653 222.097C193.892 221.751 194.062 221.363 194.158 220.953C195.296 218.37 196.427 215.802 197.566 213.219C198.362 211.979 199.087 210.696 199.74 209.375C200.684 206.731 201.278 203.975 201.505 201.176C202.061 194.998 203.491 188.931 205.752 183.154C205.895 182.83 206.038 182.505 206.274 182.221C207.623 179.453 209.17 176.737 210.303 173.874C212.963 166.665 214.239 159.018 214.065 151.335L214.087 150.698C214.191 145.977 213.794 141.257 212.902 136.62C212.827 136.161 212.782 135.717 212.691 134.919C213.064 135.167 213.418 135.44 213.752 135.738C215.918 138.244 218.105 140.74 220.219 143.279C222.333 145.818 224.533 148.874 226.979 151.411C229.914 154.338 233.298 156.776 237.003 158.635C237.759 159.005 238.468 159.466 239.113 160.008C241.858 162.455 244.632 164.878 247.247 167.453C250.193 170.275 253.551 172.633 257.206 174.445C257.983 174.78 258.723 175.193 259.416 175.678C263.195 178.622 266.692 181.913 269.861 185.507C271.943 187.865 274.368 189.949 276.649 192.192C276.787 192.342 276.955 192.461 277.141 192.544C277.327 192.626 277.528 192.67 277.732 192.671C277.936 192.673 278.138 192.632 278.325 192.552C278.513 192.473 278.682 192.355 278.822 192.207C279.474 191.608 279.017 190.927 278.715 190.313C278.115 189.033 277.509 187.768 277.014 186.461C275.826 183.37 274.913 180.16 273.505 177.194C271.845 173.71 269.785 170.42 267.851 167.056C266.289 164.139 264.478 161.363 262.437 158.759C260.273 156.254 257.849 153.985 255.206 151.99C250.01 147.853 244.928 143.583 239.84 139.327C238.096 137.876 236.49 136.282 234.693 134.659C235.816 134.877 236.833 135.084 237.834 135.285C241.744 135.821 245.563 136.883 249.188 138.441C251.055 139.291 252.999 139.961 254.992 140.444C255.316 140.519 255.652 140.523 255.978 140.456C256.304 140.39 256.612 140.253 256.88 140.057C257.465 139.484 256.96 138.744 256.502 138.192C256.157 137.738 255.763 137.323 255.329 136.954C252.088 134.584 248.89 132.159 245.517 129.879C243.655 128.615 241.524 127.75 239.59 126.564C236.68 124.784 233.924 122.905 231.13 120.99C230.897 120.888 230.729 120.684 230.257 120.329L231.518 120.109C233.908 119.96 236.275 119.56 238.581 118.917C239.12 118.774 239.682 118.739 240.234 118.814C241.212 118.858 242.2 119.089 243.159 119.05C246.971 119.066 250.772 119.471 254.502 120.261C257.254 120.723 260.023 121.13 262.81 121.484C267.841 122.205 272.738 123.66 277.347 125.802C278.893 126.484 280.661 127.041 281.405 128.791C283.268 128.503 283.749 128.125 283.227 127.211C281.891 124.721 280.099 122.503 277.945 120.672C275.066 118.513 271.84 116.861 268.406 115.786C266.273 115.026 264.332 113.811 262.716 112.226C260.182 109.658 256.991 107.836 253.491 106.961C249.438 106.098 245.386 105.236 241.265 104.695C237.903 104.192 234.498 104.04 230.901 103.693C233.614 102.063 235.991 100.525 238.465 99.1023C243.274 96.3637 246.439 92.0321 249.532 87.6513C251.931 83.909 254.706 80.4223 257.812 77.2432C259.894 75.2426 261.801 73.0532 263.725 70.9092C264.113 70.4888 264.56 69.5588 264.406 69.3618C263.9 68.839 263.255 68.4713 262.546 68.302C261.992 68.1962 261.422 68.2162 260.876 68.3612C259.283 68.677 257.79 69.3758 256.526 70.3968C254.034 72.2354 251.525 74.1591 248.908 75.9057C244.301 78.8925 240.014 82.3448 236.112 86.2074C232.527 89.838 228.325 92.8022 223.703 94.9623C219.253 96.9085 214.604 98.3654 209.838 99.3075C207.54 99.9888 205.158 100.344 202.76 100.363C201.72 100.292 200.666 100.548 199.607 100.562C198.986 100.58 198.369 100.465 197.797 100.226C191.879 97.4338 187.57 92.7091 182.811 87.7496C183.793 87.8677 184.325 87.9179 184.836 88.0141C187.938 88.6044 191.041 89.233 194.156 89.7933C197.577 90.4138 201.025 90.9721 204.344 91.5296C205.114 91.6667 205.86 91.9025 206.628 91.9637C208.049 92.0913 208.446 91.5269 207.943 90.2344C207.779 89.8113 207.764 89.3431 207.584 88.9123C207.404 88.4823 207.205 87.8032 206.814 87.5576C205.377 86.6285 203.791 85.7827 202.231 84.9653C200.67 84.1479 199.416 83.7247 198.112 82.9106C192.45 79.4553 186.846 75.9511 181.219 72.456C180.678 72.218 180.296 71.6989 179.462 71.0354L180.715 71.126C185.177 71.5221 189.308 73.2127 193.63 74.1756C196.43 74.9132 199.279 75.453 202.155 75.7888C204.536 75.9577 206.901 76.3084 209.229 76.8375C211.61 77.517 214.102 77.7169 216.561 77.4266C218.849 77.0123 221.139 76.6364 223.403 76.193C227.152 75.4811 230.886 74.7623 234.609 73.9829C238.023 73.3741 241.206 71.8453 243.816 69.5619C244.309 69.0678 244.915 68.7005 245.58 68.492C246.328 68.2685 247.003 67.8504 247.537 67.2806C248.069 66.7107 248.442 66.0102 248.617 65.2493C249.196 63.934 248.272 62.8443 246.792 63.0599C245.689 63.2519 244.61 63.563 243.575 63.9884C241.935 64.7902 240.152 65.2601 238.33 65.3711C236.779 65.3707 235.227 65.3709 233.705 65.1797C232.137 65.1009 230.579 64.9137 229.037 64.6203C224.912 63.6706 220.833 62.5745 216.716 61.6478C212.6 60.7203 208.874 60.0391 204.887 59.1508C198.626 57.7047 192.162 57.3562 185.781 58.1199C183.605 58.3617 181.425 58.4911 179.258 58.7552C178.009 58.9067 176.787 59.2919 175.557 59.5254C173.183 60.195 170.695 60.3574 168.254 60.0022C166.673 59.6273 165.061 59.399 163.439 59.321C161.395 59.3136 159.366 58.9806 157.427 58.3344C155.604 57.8755 153.828 57.2469 152.121 56.458C148.665 54.547 145.097 52.8458 141.437 51.3626C140.458 50.838 139.541 50.2049 138.704 49.4753C138.147 49.0634 137.695 48.4951 137.158 48.0365C134.466 45.7608 131.762 43.5162 129.064 41.256C128.89 41.0556 128.73 40.8433 128.586 40.6208C129.097 40.5396 129.615 40.5018 130.132 40.5077C133.133 40.7401 136.161 40.9107 139.153 41.2872C144.194 41.9199 149.204 42.7053 154.218 43.3997C155.263 43.5478 156.319 43.6054 157.375 43.5716C161.599 43.4569 165.818 43.0624 170.033 43.2206C173.005 43.4308 175.99 43.1962 178.892 42.5247C184.667 40.9873 190.387 39.241 196.126 37.5768C197.268 37.2487 198.468 37.0389 199.567 36.5995C202.759 35.3091 205.958 33.8744 209.081 32.5721C211.022 31.7284 212.931 30.8333 214.825 29.9314C215.69 29.5185 215.947 28.7265 215.306 28.2961C213.755 27.2438 212.621 25.5434 210.516 25.3733C209.55 25.1747 208.597 24.9151 207.663 24.5964C204.634 23.7796 201.552 23.1685 198.44 22.7672C194.865 22.6421 191.285 22.7555 187.725 23.1069C184.429 23.3354 181.18 23.9173 177.86 24.1166C172.225 24.3304 166.637 24.4357 160.965 24.356C157.361 24.1395 153.747 24.1259 150.141 24.3151C147.761 24.5595 145.351 24.4951 142.986 24.7086C140.45 24.7861 137.93 25.1371 135.469 25.7555C131.006 27.084 126.428 27.9859 121.796 28.449C116.51 29.1535 111.148 27.9256 106.696 24.991C105.993 24.5209 105.262 24.094 104.507 23.7126C99.5567 21.3651 94.5707 19.0574 89.6277 16.6946C86.2504 15.0956 82.936 13.3952 79.5725 11.7652C78.7746 11.3867 77.8687 11.3029 77.0151 11.5287C76.1622 11.7545 75.4162 12.2752 74.9101 12.9986C73.4238 16.3705 74.3957 20.7883 78.2164 21.8436C79.8651 22.2931 81.588 22.8676 83.2581 23.4373C84.8872 23.9058 86.4738 24.5122 88.0008 25.2499C90.7139 26.7223 93.2949 28.4508 95.9381 30.0401C97.0916 30.7332 98.2505 31.3731 99.4109 32.0507C103.4 34.3994 107.716 36.3009 110.299 40.542C111.843 42.4486 113.212 44.492 114.387 46.6471C116.157 51.0791 117.642 55.62 118.832 60.2426C120.09 64.9341 121.522 69.5791 123.127 74.1774C124.438 78.5646 126.124 82.8298 128.168 86.9267C128.902 88.1631 129.537 89.4553 130.067 90.7927Z" fill="white"/>
<path d="M105.496 211.697C106.152 211.191 106.643 210.5 106.905 209.715C107.37 208.072 107.634 206.341 107.96 204.638C108.559 202.031 108.818 199.358 108.731 196.684C108.511 192.892 108.82 189.086 109.649 185.378C110.423 181.159 110.939 176.895 111.192 172.612C111.42 169.831 111.01 166.991 111.313 164.206C111.572 162.525 111.394 160.806 110.798 159.213C109.995 156.814 109.427 154.343 109.099 151.834C108.12 146.65 107.162 141.474 106.224 136.309C105.966 134.883 105.843 133.443 105.675 132.021C106.248 132.273 106.298 132.831 106.533 133.175C108.565 136.568 109.817 140.368 110.2 144.303C110.563 146.945 111.067 149.566 111.711 152.153C112.584 155.25 113.037 158.451 113.058 161.669C113.052 162.719 113.215 163.764 113.543 164.763C115.394 169.072 116.816 173.553 117.788 178.141C117.933 178.88 118.161 179.6 118.467 180.287C120.63 185.987 124.257 190.873 127.297 196.091C129.5 199.852 131.764 203.601 133.811 207.421C135.956 211.956 139.165 215.905 143.165 218.931C143.825 219.56 144.619 220.032 145.487 220.313C146.355 220.592 147.275 220.674 148.178 220.549C148.261 219.648 148.208 218.739 148.017 217.855C145.494 211.424 142.875 205.043 140.308 198.629C138.855 195.052 137.424 191.466 136.045 187.848C135.476 186.415 135.107 184.904 134.562 183.501C133.147 179.46 131.688 175.437 130.279 171.38C130.104 170.759 129.969 170.125 129.876 169.486C131.927 171.263 133.845 173.188 135.614 175.245C136.693 176.441 137.789 177.645 138.811 178.889C140.792 181.351 142.702 183.891 144.759 186.349C147.466 189.593 150.394 192.675 152.963 196.023C155.46 199.18 158.476 201.889 161.883 204.035C164.251 205.577 166.455 207.324 168.694 209.031C169.976 210.021 171.13 211.175 172.398 212.196C174.344 213.774 175.213 213.436 176.29 211.159C174.055 207.847 171.82 204.535 169.586 201.223C167.351 197.911 164.946 194.358 162.585 190.953C160.784 188.795 159.2 186.464 157.858 183.994C157.622 183.56 157.335 183.154 157.004 182.787C155.132 180.244 153.303 177.647 151.357 175.145C149.193 172.345 146.914 169.678 144.678 166.957C143.377 165.682 142.256 164.237 141.343 162.661C141.91 162.8 142.162 162.856 142.414 162.912C144.268 163.359 146.1 163.853 147.943 164.24C149.259 164.523 150.615 164.548 151.903 164.895C154.356 165.532 156.823 166.305 159.175 167.046C161.678 167.792 164.056 168.908 166.23 170.358C167.692 171.218 169.249 171.905 170.87 172.402C171.767 172.798 172.758 172.939 173.69 173.257C175.735 173.937 177.765 174.738 179.852 175.326C181.939 175.913 183.948 176.299 186.01 176.691C186.664 176.776 187.327 176.715 187.955 176.513C188.849 176.242 188.98 175.653 188.435 174.877C187.89 174.102 187.461 173.692 187.066 173.037C185.27 170.029 182.424 167.685 180.153 164.875C180.016 164.711 179.854 164.57 179.672 164.459C177.003 162.369 173.871 160.951 170.54 160.325C167.396 159.87 164.399 158.695 161.783 156.891C159.583 155.387 157.194 154.186 154.904 152.844C154.517 152.674 154.178 152.395 153.841 152.154C150.857 150.145 147.612 148.554 144.196 147.425C141.39 146.373 138.398 145.83 135.525 144.971C132.506 144.24 129.641 142.978 127.065 141.243C123.468 138.753 120.119 135.923 117.064 132.792C116.186 131.932 115.412 130.971 114.761 129.929C112.964 126.588 111.314 123.164 109.459 119.872C107.27 115.953 104.905 112.14 102.665 108.253C102.021 107.156 101.552 105.915 100.984 104.815C103.015 106.252 104.967 107.797 106.832 109.442C112.949 114.76 119.029 120.118 125.174 125.412C129.55 129.187 134.006 132.867 138.418 136.604C139.989 137.942 141.552 139.258 143.085 140.599C143.233 140.786 143.416 140.943 143.625 141.059C143.832 141.175 144.061 141.249 144.299 141.276C144.536 141.303 144.775 141.283 145.005 141.217C145.234 141.151 145.448 141.04 145.634 140.892C145.558 140.51 145.436 140.14 145.27 139.789C143.492 136.992 141.751 134.193 139.864 131.477C137.484 127.991 135.082 124.513 132.535 121.155C130.278 118.315 127.856 115.511 125.545 112.664C123.235 109.817 121.238 106.888 118.796 104.297C113.864 99.0578 108.766 93.9853 103.662 88.9291C101.919 87.0635 99.8272 85.5588 97.5054 84.4986C94.9854 83.3741 92.7514 81.6948 90.9698 79.5866C89.9231 78.4426 88.9854 77.2164 87.9312 76.0868C85.2966 73.2639 82.6751 70.4096 79.9462 67.6739C78.2992 66.0311 76.5404 64.504 74.6839 63.1018C73.2935 62.1473 72.1578 60.8674 71.3765 59.3725C69.7819 55.9765 67.4221 52.9955 64.4822 50.6648C63.6357 49.9681 63.0889 48.9737 62.955 47.8858C63.5273 48.1376 63.7892 48.3823 64.0709 48.581C66.3339 50.3541 68.6872 52.0078 71.123 53.5355C73.8753 55.1156 76.475 56.9471 78.8889 59.007C79.8718 59.8005 80.944 60.4769 82.0827 61.0243C83.5887 61.7979 85.0933 62.2397 86.5219 62.9796C91.9694 65.9159 97.3133 69.0467 102.816 71.859C106.93 73.9665 111.231 75.7325 115.462 77.6157C117.442 78.4878 119.437 79.3677 121.479 80.1004C122.148 80.2434 122.832 80.3089 123.516 80.2967C123.084 79.3492 122.951 78.644 122.583 78.2231C120.576 76.1563 118.481 74.1614 116.428 72.1121C114.376 70.0629 112.31 68.0443 110.338 65.9377C107.736 63.1662 105.365 60.1634 102.619 57.5496C96.4368 51.9807 89.4073 47.4313 81.7946 44.0703C77.9937 42.4492 74.0997 41.0542 70.1341 39.893C67.0658 38.892 63.9377 38.0679 60.8095 37.2439C58.6806 36.8328 56.6721 35.9476 54.9326 34.6538C52.4477 32.58 49.7356 30.8124 48.0199 27.9141C47.896 27.6931 47.6018 27.5636 47.4181 27.3531C46.0559 26.0328 44.7636 24.6434 43.5447 23.19C40.067 18.7578 36.7932 14.1569 33.2289 9.79718C31.4176 7.57705 28.9023 7.04112 26.9494 9.37615C26.4915 9.91316 26.0573 10.4791 25.6147 11.0229C25.3209 11.3369 25.1402 11.7401 25.1021 12.1685C25.0639 12.5969 25.1701 13.0257 25.4043 13.3868C26.0973 14.6859 26.889 15.9301 27.7722 17.1085C30.1845 20.0183 32.692 22.7116 35.0766 25.6832C37.5943 28.8982 39.8859 32.2907 42.2871 35.602C43.9029 37.5845 44.7 40.1095 44.5151 42.6607C44.3188 45.0411 44.431 47.4364 44.8465 49.7883C45.5825 54.0289 46.6788 58.2053 47.5482 62.3939C48.3515 65.8269 49.5032 69.1691 50.9854 72.3678C52.1564 75.0753 53.2362 77.8234 54.2248 80.6105C55.6293 84.5911 56.862 88.6251 58.1822 92.5871C58.7723 94.2334 59.4718 95.8374 60.278 97.389C61.4317 99.6337 62.8438 101.752 63.9171 104.053C65.4169 107.321 67.268 110.415 69.4362 113.283C69.9828 114.009 70.6065 114.674 71.2959 115.266C72.4871 116.213 73.4749 117.391 74.1991 118.729C74.9241 120.067 75.3705 121.538 75.5119 123.053C75.5322 124.447 75.815 125.824 76.3454 127.114C76.7341 128.512 76.8861 129.965 76.7971 131.413C77.0355 134.141 77.3275 136.874 77.5284 139.604C77.6983 141.692 77.7257 143.81 77.9102 145.905C78.2079 149.213 78.8137 152.49 78.8916 155.793C79.1749 160.555 80.0188 165.267 81.4058 169.831C81.5204 170.324 81.9936 170.718 82.4329 171.355C83.2143 170.757 84.105 170.411 84.4673 169.758C85.3858 168.327 86.0757 166.761 86.5117 165.117C87.6665 159.604 88.615 154.056 89.5942 148.522C89.8132 145.855 90.2387 143.207 90.8666 140.605C91.9414 136.808 92.2848 132.841 91.8792 128.916C91.787 126.4 91.5882 123.875 91.5121 121.366C91.4104 118.2 91.4759 115.033 91.3222 111.862C90.9267 107.371 89.9868 102.943 88.5236 98.6786C88.2966 97.8954 88.1064 97.1096 87.8559 96.0022C88.4028 96.3536 88.6604 96.3561 88.7314 96.5722C91.115 100.763 93.9387 104.833 95.5194 109.63C96.7833 113.864 97.2049 118.304 96.761 122.7C96.5352 125.223 96.2189 127.744 96.0314 130.266C95.8331 134.63 95.3077 138.974 94.4615 143.26C93.661 146.125 93.4471 149.12 93.8305 152.07C94.6427 156.934 95.5591 161.771 96.3935 166.627C97.0477 169.949 97.2793 173.34 97.081 176.72C96.8915 178.755 96.9554 180.806 97.2723 182.825C98.52 190.264 99.956 197.694 101.321 205.075C101.691 206.933 102.172 208.766 102.762 210.566C102.796 210.867 102.909 211.153 103.091 211.393C103.273 211.635 103.516 211.823 103.795 211.938C104.074 212.054 104.379 212.093 104.678 212.05C104.977 212.007 105.26 211.886 105.496 211.697ZM109.267 164.154C109.735 164.895 109.349 166.148 109.36 167.169C107.393 164.819 105.867 162.132 104.858 159.237L105.231 158.977C106.674 160.624 108.021 162.353 109.267 164.154ZM107.434 157.121C108.502 158.387 109.601 159.665 109.103 161.718C107.495 159.623 105.915 157.634 104.429 155.557C104.277 155.245 104.19 154.905 104.174 154.559C104.159 154.212 104.215 153.866 104.338 153.541C105.35 154.726 106.399 155.908 107.434 157.121ZM108.053 155.381C106.597 153.929 105.244 152.376 104.005 150.735C103.41 149.863 103.533 148.495 103.333 147.354C104.699 148.223 105.839 149.404 106.66 150.799C107.48 152.195 107.958 153.765 108.053 155.381ZM132.649 183.858L132.294 184.163C131.453 183.221 130.548 182.341 129.834 181.362C129.12 180.383 127.652 179.901 127.902 177.74C129.498 180.069 131.453 181.669 132.649 183.858ZM125.972 177.591C127.006 181.335 128.312 184.997 129.881 188.549C130.568 190.385 131.338 192.202 132.085 194.027C132.349 194.642 132.658 195.24 133.104 196.323C133.432 195.581 133.629 195.132 133.625 194.89C133.219 193.395 132.703 191.933 132.081 190.516C131.077 188.502 130.369 186.355 129.977 184.14C131.181 185.391 132.39 186.625 133.565 187.9C133.811 188.24 133.98 188.63 134.06 189.042C135.08 192.412 136.401 195.684 138.009 198.816C139.558 202.343 140.982 205.945 142.512 209.556C143.318 211.5 144.086 213.445 144.848 215.406C145.021 215.851 145.111 216.316 145.374 217.189C143.496 215.922 141.929 214.247 140.791 212.289C138.502 209.1 136.281 205.758 134.243 202.459C133.146 200.756 132.423 198.96 131.52 197.195C131.402 196.865 131.268 196.54 131.117 196.223C129.011 192.617 126.906 189.012 124.774 185.467C123.227 182.952 122.01 180.25 121.151 177.425C119.748 172.855 117.996 168.406 116.503 163.87C116.244 162.87 116.107 161.842 116.097 160.81C116.098 159.48 116.023 158.153 115.873 156.832C115.363 154.132 114.674 151.464 114.082 148.783C113.859 147.78 113.696 146.767 113.557 145.782L114.145 145.58C114.991 146.93 115.938 148.216 116.697 149.641C118.951 153.457 120.483 157.657 121.212 162.029C122.002 166.404 123.271 170.68 124.995 174.778C125.396 175.688 125.723 176.629 125.972 177.591ZM129.942 177.678C128.322 175.487 125.285 174.205 125.595 170.776C127.316 172.864 129.841 174.513 129.942 177.678ZM127.285 169.582C126.216 168.611 125.33 167.814 124.466 167.009C124.213 166.787 123.832 166.563 123.772 166.278C123.06 163.979 122.613 161.607 122.437 159.207C124.958 162.497 126.938 165.549 127.285 169.582ZM152.471 162.725L152.287 163.143C149.419 162.526 146.559 161.93 143.732 161.221C142.388 160.941 141.062 160.573 139.766 160.119C138.667 159.812 137.644 159.279 136.761 158.555C134.805 156.627 133.013 154.54 131.402 152.316C132.153 152.563 132.879 152.883 133.568 153.269C134.966 154.242 136.522 154.965 138.167 155.407C140.503 156.141 142.782 157.09 145.093 157.923C145.534 158.121 146 158.264 146.476 158.348C149.297 158.778 150.667 160.951 152.393 162.691L152.471 162.725ZM155.916 163.541C154.206 163.231 153.936 161.874 153.2 160.904C154.355 161.482 155.304 162.403 155.916 163.541ZM160.19 164.908C158.633 164.794 157.901 163.899 157.704 162.168L160.19 164.908ZM136.044 149.244C139.931 150.44 143.821 151.674 147.607 153.139C152.413 155.127 157.05 157.504 161.47 160.244C163.6 161.304 165.797 162.229 168.045 163.012C170.689 164.178 173.334 165.343 175.917 166.61C176.222 166.781 176.543 166.922 176.876 167.033C179.422 167.582 180.921 169.461 182.458 171.339C183.278 172.328 184.179 173.261 185.05 174.217L184.873 174.619C182.357 173.917 179.833 173.23 177.322 172.474C174.735 171.807 172.19 170.993 169.696 170.038C166.973 169.107 164.49 167.583 162.425 165.579C162.262 165.442 162.122 165.28 162.009 165.099C160.487 161.677 157.463 160.325 154.157 159.275C152.281 158.671 150.512 157.78 148.671 157.098C146.828 156.415 145.085 155.888 143.3 155.285C141.515 154.684 139.833 154.183 138.135 153.509C136.727 152.888 135.375 152.145 133.938 151.548C132.02 150.704 130.014 150.059 128.053 149.269C127.474 149.061 126.945 148.734 126.5 148.308C124.458 145.986 122.479 143.6 120.495 141.229C120.39 141.098 120.316 140.946 120.28 140.782C120.243 140.618 120.243 140.449 120.282 140.286C120.766 140.607 121.228 140.958 121.666 141.339C125.763 145.078 130.691 147.787 136.044 149.244ZM123.184 113.914C125.36 116.314 127.571 118.673 129.71 121.112C130.944 122.505 131.998 123.967 133.104 125.397C135.099 128.123 137.078 130.841 139.057 133.56C139.699 134.335 140.235 135.192 140.649 136.109C140.159 135.809 139.687 135.478 139.239 135.118C132.17 129.067 125.161 122.968 118.169 116.913C115.348 114.469 112.339 112.202 109.562 109.704C106.056 106.551 102.693 103.241 99.2799 99.9641C97.4528 98.1993 95.685 96.3856 93.8871 94.5963C93.5561 94.323 93.2763 93.9932 93.0603 93.6224C91.7851 90.8995 89.2792 89.1672 87.5232 86.8232C85.7665 84.4791 83.9667 82.319 82.1669 80.03C81.6495 79.3526 81.295 78.5646 81.1319 77.7273C82.4547 78.801 83.7004 79.9666 84.8588 81.2163C86.1226 82.814 87.5293 84.2936 89.0621 85.6359C90.7606 87.1047 92.2167 88.873 93.807 90.4605C95.624 92.3318 97.4178 94.2122 99.2347 96.0842C101.377 98.0716 103.391 100.194 105.265 102.436C106.162 103.306 107.16 104.068 108.236 104.705C110.275 106.323 112.365 107.91 114.324 109.585C117.009 111.876 119.758 114.27 122.404 116.692C123.631 117.805 124.708 119.092 125.856 120.3L126.405 119.767L119.967 112.792C120.554 112.686 121.159 112.733 121.723 112.93C122.287 113.127 122.79 113.466 123.184 113.914ZM85.0791 86.3744L87.4819 89.5573C85.5992 88.5059 85.2838 88.0903 85.0485 86.3606L85.0791 86.3744ZM120.377 110.645C118.329 109.928 116.213 110.159 114.986 107.956C116.903 108.634 119.092 108.195 120.345 110.632L120.377 110.645ZM117.059 106.856C115.345 106.932 114.322 105.65 112.978 105.261C111.452 104.949 110.049 104.202 108.938 103.111C110.788 103.335 112.615 103.72 114.398 104.262C115.431 104.963 116.332 105.841 117.059 106.856ZM81.6955 72.6747C84.9148 76.3096 87.9463 80.1199 91.3021 83.6124C93.0892 85.3054 95.0608 86.7934 97.1783 88.0486C100.828 90.6979 104.248 93.6507 107.401 96.8748C108.843 98.2123 110.178 99.6687 111.542 101.1C111.842 101.478 112.11 101.88 112.342 102.303C110.181 101.886 108.28 101.547 106.399 101.161C106.086 101.004 105.813 100.777 105.602 100.496C101.919 96.8236 98.1788 93.199 94.5389 89.4711C92.2296 87.1235 90.0576 84.6336 87.7913 82.2317C86.3948 80.7477 84.9469 79.2975 83.5143 77.8534C80.4951 74.8985 77.9743 71.4737 76.0511 67.7122C76.5812 67.9155 77.0828 68.1863 77.5433 68.5173C79.0096 69.884 80.466 71.191 81.7576 72.7016L81.6955 72.6747ZM88.6035 59.723C90.491 59.631 91.6967 61.0856 92.4353 63.9791C89.956 63.5694 89.8145 61.291 88.6656 59.7499L88.6035 59.723ZM96.5225 66.315C95.8108 66.0018 95.0992 65.6878 94.3416 65.3538L94.0596 62.5145L94.4077 62.3538L96.7971 65.9006L96.5225 66.315ZM27.904 11.5699L30.6578 10.9364C31.5724 12.2996 31.239 13.3904 30.2777 14.7768L27.904 11.5699ZM87.817 120.403C89.6367 122.993 90.4548 126.156 90.1194 129.304C90.1046 130.217 90.1466 131.13 90.2452 132.038C90.3642 134.296 90.0983 136.559 89.458 138.729C88.8076 141.379 88.2721 144.061 87.7811 146.726C86.8936 152.43 86.1426 158.158 85.2169 163.864C84.9089 164.75 84.4614 165.581 83.8915 166.327L83.2939 166.174C83.1737 165.724 83.0861 165.265 83.0299 164.802C82.6245 158.177 82.2636 151.535 81.8069 144.943C81.719 143.759 81.329 142.59 81.1583 141.425C80.8567 139.26 80.601 137.116 80.3207 134.943C80.1076 133.204 80.0286 131.415 79.7104 129.705C78.4816 123.127 77.9683 116.436 78.1794 109.747C78.2158 107.644 78.1313 105.541 77.9255 103.448C77.4906 99.3218 76.746 95.2261 76.4467 91.0855C76.1466 86.9449 76.2701 83.102 76.2062 78.6781C76.7023 79.2295 77.1941 79.5379 77.3048 79.9564C78.4325 84.1475 79.5294 88.491 80.4202 92.7992C80.882 94.9789 80.8563 97.2586 81.1618 99.4987L82.7332 113.12C82.8442 114.166 82.8962 115.224 82.9849 116.279C83.3075 120.214 83.6346 124.138 83.9663 128.052C84.0432 128.585 84.1491 129.113 84.2852 129.634L84.7228 129.605L84.7557 116.579C85.9852 118.062 86.8899 119.237 87.817 120.403ZM63.6383 73.7498C62.3114 70.4314 61.459 66.9164 60.3392 63.5047C59.5695 61.0595 58.6849 58.583 57.7574 56.1607C57.0631 54.3401 56.2423 52.5563 55.4659 50.7548C55.3397 50.4965 55.1537 50.2481 55.0052 49.9981C55.2743 49.9316 55.5524 49.8882 55.8145 49.8378C59.3738 54.1007 62.619 58.6171 65.5233 63.351C65.6736 63.6669 65.8404 63.9744 66.0222 64.2725C68.1747 67.0566 69.7265 70.2556 70.5817 73.6696C72.2423 79.1865 73.4626 84.8257 74.2325 90.535C74.4106 93.7547 74.4012 96.9819 74.2032 100.2C74.2049 102.879 74.2671 105.548 74.3592 108.23C74.3841 109.516 74.4551 110.822 74.4954 112.114L74.0663 112.165L72.2508 104.715L67.8532 86.6524C66.7617 82.256 65.3526 77.9433 63.6383 73.7498ZM58.5789 71.1885C59.3589 71.347 60.0078 71.4671 60.8874 71.6509L63.0956 77.5379C59.9716 76.3277 59.7004 73.5481 58.5789 71.1885ZM59.8223 69.6677C58.4765 67.9846 56.5717 66.6473 56.3999 64.1881C57.4935 65.9814 59.8996 67.06 59.8223 69.6677ZM87.4849 109.378C87.6923 109.746 87.7777 110.264 88.0688 110.484C89.808 111.694 89.5851 113.498 89.6557 115.265C89.727 117.033 89.6079 118.477 89.5805 120.09L89.1796 120.246C87.5561 117.055 85.2763 114.223 84.2646 110.692C86.0942 112.2 86.9129 114.574 88.6819 116.092C88.8174 116.03 88.9477 115.958 89.0729 115.876C89.0525 115.577 88.9894 115.282 88.8866 115C87.6332 112.73 86.3645 110.453 85.082 108.208C84.8109 107.715 84.4676 107.265 84.064 106.872C83.3556 106.173 83.3946 105.414 83.5993 104.322C85.1626 105.783 86.4751 107.491 87.4849 109.378ZM84.9182 101.412C85.5798 102.422 86.3296 103.371 87.1596 104.247C88.8014 105.635 88.8299 107.458 88.6918 109.448L82.8052 99.8349L83.2216 99.5196C83.8104 100.112 84.3785 100.75 84.9182 101.412ZM87.3361 103.05L84.4263 98.4623C84.0414 97.8673 83.628 97.2976 83.3426 96.7288C83.0456 96.3456 82.8307 95.9053 82.7123 95.4347C81.8798 89.3717 80.2035 83.4539 77.7325 77.8548C77.4335 77.1504 76.9198 76.5545 76.5625 75.8982C75.831 74.5413 75.1057 73.169 74.4178 71.7952C73.7309 70.4207 73.7186 69.4 72.207 68.9742C71.7123 68.7554 71.4195 67.8694 71.0896 67.3181L69.637 64.9973C68.3697 63.0529 66.9704 61.1989 65.8724 59.1635C64.5578 56.9948 63.0262 54.9643 61.3017 53.1045C58.3765 49.7031 55.7345 46.0677 53.4015 42.2357C53.1611 41.7985 52.8583 41.3975 52.5036 41.0457C52.2969 40.844 51.7613 40.7187 51.6211 40.786C51.2963 41.0219 51.0659 41.3659 50.9719 41.7564C50.8491 42.0344 51.14 42.4216 51.2631 42.7711C51.9324 44.676 52.7313 46.5339 53.6525 48.3311C54.9363 51.0746 56.0006 53.9147 56.8358 56.8258C57.6697 59.3362 58.2868 61.9168 59.1464 64.9551C58.7282 64.7221 58.3361 64.444 57.9785 64.1266C57.2114 62.9652 56.3459 61.8736 55.3902 60.8623C54.2338 59.818 53.434 58.4391 53.1014 56.917C52.233 53.5232 51.4242 50.1194 50.5771 46.717C50.4781 46.4672 50.3541 46.2278 50.2091 46.001C49.5508 47.0772 49.9738 48.0024 50.1539 48.8946C50.8537 52.5458 51.6284 56.194 52.3734 59.8285C52.3258 59.9365 52.3655 60.1387 52.4313 60.2415C54.41 62.9604 54.8028 66.2182 56.031 69.2163C56.8966 71.4447 57.9316 73.7474 58.7251 76.0554C59.5187 78.3627 59.8834 80.2596 60.5323 82.3927C61.4557 85.2004 62.4911 87.9653 63.5547 90.7064C63.9513 91.5681 64.4216 92.3934 64.9612 93.1727C65.7666 92.1428 65.2722 91.4627 65.0191 90.7789L60.6409 78.8754C60.5369 78.6079 60.4551 78.3319 60.3115 77.8621C61.5179 78.3941 62.3843 78.7757 63.5986 79.1629C67.1184 90.3121 70.064 101.634 72.4234 113.084C70.9678 111.716 69.9144 109.974 69.3783 108.049C68.4224 105.241 67.0111 102.609 65.2006 100.261C63.8553 98.1153 62.6993 95.8573 61.7463 93.5111C60.8407 91.3756 60.2793 89.1704 59.491 86.9758C58.2785 83.5234 56.9708 80.1216 55.7721 76.6378C54.0835 71.4983 52.2753 66.3794 50.924 61.1476C49.5934 56.842 48.8959 52.3666 48.8543 47.8605C48.8586 46.8679 48.7499 45.8773 48.5294 44.91C48.0172 41.6364 47.8637 38.317 48.0701 35.0103C47.7127 34.3542 47.3554 33.6981 46.8932 32.9032L45.3023 33.0335C40.9503 27.5695 36.6151 22.1498 32.1261 16.5333L33.3122 13.842C33.6927 14.1832 34.0494 14.5502 34.3795 14.9404C36.7629 18.5025 39.0144 22.1542 41.5358 25.6111C43.0381 27.3856 44.6357 29.0764 46.3234 30.6758C46.9483 31.2033 47.4366 31.8744 47.7465 32.6315C48.0556 33.3887 48.1778 34.2096 48.1015 35.0241C48.166 34.8373 48.2451 34.6561 48.3395 34.4826C48.5159 34.3202 48.7007 34.1673 48.8923 34.0244C49.6873 34.6516 50.5174 35.3682 51.3805 36.0071C52.1466 36.5886 52.9484 37.1213 53.7815 37.6007C55.6091 38.6091 57.4658 39.5938 59.3425 40.5317C60.4869 41.036 61.6475 41.5466 62.792 42.051C63.1313 42.2678 63.4483 42.519 63.737 42.7997L63.8603 42.8542C65.9519 42.2988 67.7511 43.4972 69.5758 44.1355C72.1475 45.0471 74.6348 46.2354 77.0929 47.4474C81.594 49.4312 86.0952 51.4142 90.4237 53.7465C93.1332 55.111 95.674 56.788 97.993 58.7436C104.371 64.306 110.556 70.0974 116.97 75.9533C115.569 75.9848 114.189 75.6016 113.004 74.8519C108.426 72.6681 104.042 70.4599 99.5607 68.2639C98.6952 67.8816 98.0687 67.458 98.0252 66.2572C98.0379 65.727 97.5571 65.1825 97.2962 64.6428L97.5992 64.3327C98.5382 64.968 99.4564 65.6499 100.447 66.253C101.438 66.8555 102.391 67.3313 103.418 67.8946C104.108 66.9978 103.645 66.4986 102.99 66.0988C100.696 64.6816 98.4607 63.2162 96.1252 61.8923C91.4232 59.1919 86.6374 56.6401 81.9705 53.9006C78.9321 52.1179 76.0493 50.1094 73.0607 48.2564C70.1693 46.2273 67.108 44.4521 63.9108 42.95L63.8334 42.9163L64.5589 45.0831C67.5975 46.2156 70.4232 47.8533 72.9152 49.9292C76.7896 52.7388 80.8924 55.2203 85.1809 57.3462C87.0208 58.1576 87.1989 59.6398 87.5675 61.6118C86.3008 61.0264 85.0647 60.3761 83.8632 59.6655C82.1591 58.5453 80.603 57.2137 78.892 56.1089C76.2351 54.3841 73.4876 52.8225 70.8238 51.113C69.3855 50.1837 68.0369 49.0539 66.64 48.0321C65.6199 47.2872 64.586 46.5729 63.559 45.8433C61.4835 44.3926 59.4563 42.872 57.331 41.4917C56.1668 40.7391 55.8156 40.9909 55.4469 42.1209C57.5888 44.7641 59.6765 47.2356 61.6255 49.8119C63.9625 52.892 66.245 56.0955 68.5482 59.253C69.507 60.302 70.1327 61.6124 70.3437 63.0178C70.3768 63.2574 70.4615 63.4867 70.5918 63.6904C70.7221 63.8942 70.8945 64.0678 71.0968 64.1992C74.0679 65.8408 75.9132 68.6117 77.9292 71.6242C76.3292 71.5662 76.1389 69.9859 74.7276 69.7518C80.8612 80.0208 85.1299 91.2943 87.3361 103.05ZM99.9928 109.957C99.7301 109.841 99.3078 109.877 99.2352 109.623C98.4713 108.426 97.7868 107.18 97.1846 105.894C95.2069 101.632 92.7831 97.5917 89.9528 93.8413C89.3416 92.9293 88.8225 91.9581 88.4041 90.9427C92.7346 95.731 96.4821 101.015 99.5687 106.685C98.9334 107.624 99.6371 108.249 100.094 108.93L100.776 107.384L102.293 110.564C102.465 111.02 102.671 111.464 102.909 111.888C106.187 117.027 109.068 122.268 112.018 127.52C112.547 128.455 112.651 129.646 113.107 130.623C113.614 131.612 114.178 132.569 114.798 133.492C113.401 132.434 112.271 131.063 111.501 129.49C110.716 127.904 109.804 126.384 108.775 124.946C107.822 125.598 107.753 126.342 108.152 126.944C109.246 128.406 109.919 130.14 110.099 131.958C110.147 132.164 110.259 132.349 110.42 132.486C111.256 133.518 112.197 134.459 113.229 135.293C115.639 136.948 116.901 139.535 118.692 141.673C120.485 143.811 121.731 146.262 123.942 147.994C124.462 148.407 124.64 149.262 124.971 149.851C125.963 150.296 126.901 150.852 127.768 151.508C129.564 153.26 131.231 155.177 132.919 157.047C133.022 157.173 133.096 157.32 133.135 157.478C133.174 157.635 133.177 157.8 133.145 157.959C132.702 158.965 133.251 159.521 133.992 159.81C137.878 161.301 140.254 164.546 142.732 167.558C146.952 172.65 150.963 177.927 155.038 183.14C155.403 183.57 155.732 184.031 156.021 184.515C158.966 189.389 162.194 194.086 165.689 198.582C167.547 201.054 169.018 203.795 170.05 206.71C169.035 205.912 167.999 205.16 167.013 204.337C166.027 203.515 165.517 202.829 164.67 202.234C161.591 199.875 158.763 197.205 156.231 194.267C154.243 191.79 151.975 189.552 149.474 187.595C148.481 186.809 147.599 185.892 146.851 184.87C143.668 181.196 140.529 177.504 137.353 173.814C133.652 169.747 130.233 165.433 127.121 160.902C124.456 156.846 121.916 152.716 119.429 148.554C118.712 147.37 118.691 145.699 117.827 144.727C116.827 143.82 115.903 142.832 115.065 141.773C113.154 138.733 111.05 135.794 109.405 132.611C107.184 128.345 104.605 124.18 103.898 119.288C103.886 119.003 103.797 118.727 103.64 118.491C101.623 116.059 100.355 113.095 99.9928 109.957ZM104.636 206.314C103.688 201.924 102.785 197.519 101.866 193.106C101.014 188.177 100.581 183.186 100.573 178.184C100.51 176.439 100.267 174.688 100.167 172.944C99.6056 167.546 98.7229 162.185 97.524 156.893C96.7872 152.873 96.6176 148.769 97.0213 144.702C97.2662 142.261 98.0053 139.871 98.493 137.464C99.2275 133.66 99.5471 129.787 99.445 125.914C99.4192 122.745 99.1896 119.577 99.032 116.497C99.0207 116.104 99.0464 115.709 99.0731 114.853C99.4098 115.273 99.7221 115.713 100.008 116.17C100.208 116.554 100.216 117.037 100.466 117.351C102.92 120.501 102.737 124.354 103.345 128.002C104.054 132.304 104.839 136.602 105.623 140.901C106.135 143.638 106.691 146.358 107.36 149.534C106.936 149.191 106.55 148.804 106.206 148.38C105.656 147.325 105.027 146.314 104.326 145.353C102.96 143.625 102.273 141.457 102.394 139.256C102.211 135.481 102.213 131.789 102.122 128.054C102.111 127.828 101.903 127.588 101.642 127.049C101.397 127.443 101.209 127.87 101.083 128.317C100.993 131.121 100.933 133.939 100.873 136.758C100.843 138 100.806 139.258 100.73 140.519C100.532 143.903 101.98 147.072 102.165 150.385C102.404 153.114 102.786 155.829 103.309 158.518C103.343 159.003 103.339 159.488 103.296 159.972C103.301 160.38 103.136 160.88 103.325 161.166C104.553 163.074 104.281 165.281 104.326 167.278C104.42 169.665 104.626 172.046 104.719 174.433C104.764 175.672 104.65 176.896 104.621 178.176C106 178.359 106.203 178.319 106.195 176.912C106.199 174.679 105.976 172.419 105.837 170.179L105.712 165.432C106.229 165.683 106.708 166.006 107.136 166.392C108.538 167.827 109.345 169.74 109.394 171.746C109.275 175.202 109.124 178.646 108.739 182.078C108.491 184.277 107.84 186.466 107.509 188.684C107.263 190.271 107.131 191.873 107.114 193.478C107.084 195.516 107.175 197.532 107.245 199.594C107.2 200.37 107.1 201.141 106.949 201.902C106.703 203.493 106.448 205.08 106.182 206.662C106.076 207.097 105.937 207.524 105.767 207.938L105.411 207.948C105.109 207.425 104.849 206.879 104.636 206.314ZM169.313 169.019C168.879 168.958 168.436 169.039 168.276 168.859C167.257 167.818 166.289 166.745 165.307 165.703C164.897 165.208 164.062 164.674 164.905 163.974C165.749 163.275 166.286 163.9 166.709 164.492C167.683 165.845 169.152 166.954 169.313 169.019ZM130.073 90.7765C131.171 94.0467 132.607 97.1932 134.36 100.164C135.187 101.471 136.075 102.768 136.799 104.102C138.707 107.696 140.899 111.132 143.353 114.379C147.255 119.924 151.89 124.918 157.13 129.222C157.723 129.705 158.407 130.062 159.141 130.275C159.73 130.34 160.325 130.295 160.898 130.144C160.824 129.557 160.935 128.886 160.663 128.415C158.847 125.158 157.089 121.853 155.016 118.76C153.948 117.278 153.069 115.668 152.399 113.968C151.406 110.982 149.624 108.405 149.202 105.171C149.177 104.976 149.017 104.795 148.932 104.609C147.649 102.03 146.276 99.4865 145.133 96.8403C143.588 93.2221 142.249 89.5105 140.746 85.838C140.047 84.0712 139.377 82.2798 138.53 80.5954C137.332 78.4438 136.379 76.1648 135.687 73.8014C135.233 72.1002 134.673 70.4296 134.013 68.7968C132.972 66.0473 131.87 63.3084 130.753 60.5626C130.095 58.8612 129.35 57.1945 128.519 55.5706C127.103 52.915 125.555 50.3489 124.088 47.7262C124.088 47.7262 124.191 47.4941 124.306 47.2313C124.675 47.4139 125.025 47.6298 125.352 47.8766C128.489 50.6072 131.613 53.3692 134.667 56.0814C138.477 59.2514 141.268 63.475 142.689 68.2239C143.626 71.4622 144.855 74.6265 145.809 77.9102C146.763 81.1937 147.343 84.8663 148.372 88.2749C149.401 91.6827 150.869 95.4334 152.162 98.9954C152.802 100.773 153.583 102.521 154.095 104.335C155.316 108.623 156.907 112.798 158.849 116.811C159.482 118.006 160.216 119.145 161.043 120.216C162.01 121.583 163.139 122.838 164.121 124.213C166.629 127.701 169.108 131.212 171.572 134.718C172.296 135.758 172.962 136.845 173.744 137.836C175.59 140.145 177.486 142.422 179.368 144.692C181.249 146.961 183.051 149.159 184.951 151.344C185.616 152.099 186.34 152.973 187.546 152.709C188.556 150.919 188.578 150.911 187.8 149.405C187.357 148.526 186.817 147.697 186.333 146.91C185.096 144.518 183.781 142.221 182.597 139.834C181.586 137.903 180.707 135.906 179.969 133.855C178.435 129.245 177.178 124.554 175.659 119.951C173.868 114.544 171.926 109.181 170.023 103.818C169.11 101.236 168.22 98.6453 167.114 96.1264C165.388 92.1892 163.564 88.3071 161.643 84.4802C160.185 81.5847 158.59 78.8324 156.924 75.9919C156.178 74.6664 155.35 73.3592 154.56 72.0504L154.907 71.7235C155.654 72.2927 156.365 72.9009 157.147 73.4303C161.828 76.6013 166.016 80.4441 169.576 84.836C170.12 85.4846 170.699 86.1029 171.308 86.6896C174.204 89.5909 177.128 92.4302 180.001 95.3406C182.661 98.0639 185.264 100.836 187.859 103.623C188.786 104.622 190.065 105.408 190.032 107.075C190.039 107.354 190.408 107.647 190.618 107.923C191.776 109.154 192.848 110.495 193.894 111.935C194.749 112.972 195.491 114.098 196.108 115.293C198.234 119.904 199.293 124.936 199.208 130.013C199.209 132.526 199.499 135.054 199.576 137.563C199.778 138.884 199.718 140.232 199.398 141.53C198.703 143.735 198.2 146.008 197.698 148.28C197.348 151.012 196.524 153.662 195.263 156.11C195.099 156.335 194.985 156.594 194.929 156.868C194.446 160.145 193.887 163.427 193.554 166.697C193.13 171.516 192.874 176.372 192.588 181.214C192.366 185.069 192.23 188.944 192.047 192.797C192.001 193.571 191.902 194.34 191.91 195.12C191.915 198.502 192.11 201.876 191.902 205.238C191.784 207.144 192.232 209.225 190.848 210.942C190.732 211.206 190.745 211.636 190.74 211.984C190.727 213.734 190.706 215.498 190.761 217.259C190.699 217.876 190.808 218.5 191.077 219.059C191.547 219.758 191.751 220.601 191.654 221.438C191.669 221.906 192.039 222.365 192.237 222.84C192.741 222.661 193.219 222.41 193.653 222.097C193.892 221.751 194.062 221.363 194.158 220.953C195.296 218.37 196.427 215.802 197.566 213.219C198.362 211.979 199.087 210.696 199.74 209.375C200.684 206.731 201.278 203.975 201.505 201.176C202.061 194.998 203.491 188.931 205.752 183.154C205.895 182.83 206.038 182.505 206.274 182.221C207.623 179.453 209.17 176.737 210.303 173.874C212.963 166.665 214.239 159.018 214.065 151.335L214.087 150.698C214.191 145.977 213.794 141.257 212.902 136.62C212.827 136.161 212.782 135.717 212.691 134.919C213.064 135.167 213.418 135.44 213.752 135.738C215.918 138.244 218.105 140.74 220.219 143.279C222.333 145.818 224.533 148.874 226.979 151.411C229.914 154.338 233.298 156.776 237.003 158.635C237.759 159.005 238.468 159.466 239.113 160.008C241.858 162.455 244.632 164.878 247.247 167.453C250.193 170.275 253.551 172.633 257.206 174.445C257.983 174.78 258.723 175.193 259.416 175.678C263.195 178.622 266.692 181.913 269.861 185.507C271.943 187.865 274.368 189.949 276.649 192.192C276.787 192.342 276.955 192.461 277.141 192.544C277.327 192.626 277.528 192.67 277.732 192.671C277.936 192.673 278.138 192.632 278.325 192.552C278.513 192.473 278.682 192.355 278.822 192.207C279.474 191.608 279.017 190.927 278.715 190.313C278.115 189.033 277.509 187.768 277.014 186.461C275.826 183.37 274.913 180.16 273.505 177.194C271.845 173.71 269.785 170.42 267.851 167.056C266.289 164.139 264.478 161.363 262.437 158.759C260.273 156.254 257.849 153.985 255.206 151.99C250.01 147.853 244.928 143.583 239.84 139.327C238.096 137.876 236.49 136.282 234.693 134.659C235.816 134.877 236.833 135.084 237.834 135.285C241.744 135.821 245.563 136.883 249.188 138.441C251.055 139.291 252.999 139.961 254.992 140.444C255.316 140.519 255.652 140.523 255.978 140.456C256.304 140.39 256.612 140.253 256.88 140.057C257.465 139.484 256.96 138.744 256.502 138.192C256.157 137.738 255.763 137.323 255.329 136.954C252.088 134.584 248.89 132.159 245.517 129.879C243.655 128.615 241.524 127.75 239.59 126.564C236.68 124.784 233.924 122.905 231.13 120.99C230.897 120.888 230.729 120.684 230.257 120.329L231.518 120.109C233.908 119.96 236.275 119.56 238.581 118.917C239.12 118.774 239.682 118.739 240.234 118.814C241.212 118.858 242.2 119.089 243.159 119.05C246.972 119.066 250.772 119.471 254.502 120.261C257.254 120.723 260.023 121.13 262.81 121.484C267.841 122.205 272.738 123.66 277.347 125.802C278.893 126.484 280.661 127.041 281.405 128.791C283.268 128.503 283.749 128.125 283.227 127.211C281.891 124.721 280.099 122.503 277.945 120.672C275.066 118.513 271.84 116.861 268.406 115.786C266.273 115.026 264.332 113.811 262.716 112.226C260.182 109.658 256.991 107.836 253.491 106.961C249.438 106.098 245.386 105.236 241.265 104.695C237.903 104.192 234.498 104.04 230.901 103.693C233.614 102.063 235.992 100.525 238.465 99.1023C243.274 96.3637 246.439 92.0321 249.532 87.6513C251.931 83.909 254.706 80.4223 257.812 77.2432C259.894 75.2426 261.801 73.0532 263.725 70.9092C264.113 70.4888 264.56 69.5588 264.406 69.3618C263.9 68.839 263.255 68.4713 262.546 68.302C261.992 68.1962 261.421 68.2162 260.876 68.3612C259.283 68.677 257.79 69.3758 256.526 70.396C254.034 72.2354 251.524 74.1591 248.908 75.9057C244.301 78.8925 240.014 82.3448 236.112 86.2074C232.527 89.838 228.325 92.8022 223.703 94.9623C219.253 96.9085 214.604 98.3654 209.838 99.3075C207.54 99.9888 205.158 100.344 202.76 100.363C201.72 100.292 200.666 100.548 199.607 100.562C198.986 100.58 198.369 100.465 197.797 100.226C191.879 97.4338 187.57 92.7091 182.811 87.7488C183.793 87.8677 184.325 87.9179 184.836 88.0141C187.938 88.6044 191.041 89.233 194.156 89.7933C197.577 90.4138 201.025 90.9721 204.344 91.5296C205.114 91.6667 205.86 91.9025 206.628 91.9637C208.049 92.0913 208.445 91.5268 207.943 90.2344C207.779 89.8113 207.764 89.3431 207.584 88.9123C207.405 88.4823 207.204 87.8031 206.814 87.5576C205.377 86.6285 203.791 85.7827 202.231 84.9653C200.67 84.1479 199.416 83.7247 198.112 82.9106C192.45 79.4553 186.846 75.9511 181.219 72.456C180.678 72.218 180.296 71.6989 179.462 71.0354L180.715 71.1261C185.177 71.5221 189.308 73.2127 193.63 74.1756C196.43 74.9132 199.279 75.453 202.155 75.7888C204.536 75.9577 206.901 76.3084 209.229 76.8375C211.61 77.517 214.102 77.7169 216.561 77.4266C218.849 77.0123 221.139 76.6364 223.403 76.193C227.152 75.4811 230.886 74.7623 234.609 73.9829C238.023 73.3741 241.206 71.8453 243.816 69.5619C244.309 69.0678 244.915 68.7005 245.58 68.492C246.328 68.2685 247.003 67.8504 247.537 67.2806C248.069 66.7107 248.442 66.0102 248.617 65.2493C249.196 63.934 248.272 62.8443 246.792 63.0599C245.689 63.2519 244.61 63.563 243.575 63.9884C241.935 64.7902 240.152 65.2601 238.33 65.3711C236.779 65.3707 235.227 65.3709 233.705 65.1797C232.137 65.1009 230.579 64.9137 229.037 64.6203C224.912 63.6706 220.833 62.5745 216.716 61.6478C212.6 60.7203 208.874 60.0391 204.887 59.1508C198.626 57.7047 192.162 57.3562 185.781 58.1199C183.605 58.3617 181.424 58.491 179.258 58.7552C178.009 58.9067 176.787 59.2919 175.557 59.5254C173.183 60.195 170.695 60.3574 168.254 60.0022C166.673 59.6273 165.061 59.399 163.439 59.321C161.395 59.3136 159.365 58.9805 157.427 58.3344C155.604 57.8755 153.828 57.2469 152.121 56.458C148.665 54.547 145.097 52.8458 141.437 51.3626C140.458 50.838 139.541 50.2049 138.704 49.4753C138.147 49.0634 137.695 48.4951 137.158 48.0365C134.466 45.7608 131.762 43.5162 129.064 41.256C128.89 41.0556 128.73 40.8433 128.586 40.6208C129.097 40.5396 129.615 40.5018 130.132 40.5077C133.133 40.7401 136.161 40.9107 139.153 41.2872C144.194 41.9199 149.204 42.7053 154.218 43.3997C155.263 43.5478 156.319 43.6054 157.375 43.5716C161.599 43.4569 165.818 43.0624 170.033 43.2206C173.005 43.4308 175.99 43.1962 178.892 42.5247C184.667 40.9873 190.387 39.241 196.126 37.5768C197.268 37.2487 198.468 37.0389 199.567 36.5995C202.759 35.3091 205.958 33.8744 209.081 32.5721C211.022 31.7284 212.931 30.8333 214.825 29.9314C215.69 29.5185 215.947 28.7265 215.306 28.2961C213.756 27.2438 212.621 25.5434 210.516 25.3733C209.55 25.1747 208.597 24.9151 207.663 24.5964C204.634 23.7796 201.552 23.1685 198.44 22.7672C194.865 22.6421 191.285 22.7556 187.725 23.1069C184.429 23.3354 181.18 23.9173 177.86 24.1166C172.225 24.3304 166.637 24.4357 160.965 24.356C157.361 24.1395 153.747 24.1259 150.141 24.3151C147.761 24.5595 145.351 24.4951 142.986 24.7086C140.45 24.7861 137.93 25.1371 135.469 25.7555C131.006 27.084 126.428 27.9859 121.796 28.449C116.51 29.1535 111.148 27.9256 106.696 24.991C105.993 24.5209 105.262 24.094 104.507 23.7126C99.5567 21.3651 94.5707 19.0574 89.6277 16.6946C86.2504 15.0956 82.936 13.3951 79.5725 11.7652C78.7746 11.3867 77.8687 11.3028 77.0151 11.5287C76.1622 11.7545 75.4162 12.2752 74.9101 12.9986C73.4238 16.3705 74.3957 20.7883 78.2164 21.8436C79.8651 22.2931 81.588 22.8676 83.2581 23.4372C84.8873 23.9058 86.4738 24.5122 88.0008 25.2499C90.7139 26.7223 93.2949 28.4508 95.9381 30.0401C97.0916 30.7332 98.2505 31.3731 99.4109 32.0507C103.4 34.3994 107.716 36.3009 110.299 40.542C111.843 42.4486 113.212 44.492 114.387 46.6471C116.157 51.0791 117.642 55.62 118.832 60.2426C120.09 64.9341 121.522 69.5791 123.127 74.1774C124.438 78.5647 126.124 82.8298 128.168 86.9267C128.902 88.1631 129.537 89.4553 130.067 90.7927L130.073 90.7765ZM137.924 82.8955L138.114 83.0902C139.164 85.6957 140.155 88.3111 141.263 90.8684C143.4 95.7439 145.017 100.834 147.473 105.573C148.851 108.231 149.711 111.14 150.815 113.917L150.313 114.176C149.052 112.05 147.761 109.948 146.515 107.829C145.269 105.71 144.139 104.086 143.137 102.167C141.962 99.8017 140.896 97.4851 139.752 95.1339C138.609 92.7836 137.513 90.7857 136.407 88.5993C135.931 87.6694 135.399 86.6957 136.768 85.8953C135.917 85.0586 135.991 83.4663 134.435 83.6857C134.103 82.7628 133.223 81.9506 133.816 80.6054C134.443 81.3614 135.049 81.998 135.505 82.6421C135.63 82.8388 135.796 83.0083 135.99 83.1378C136.185 83.2674 136.404 83.3556 136.635 83.3967C136.865 83.437 137.101 83.4294 137.328 83.3744C137.555 83.3193 137.769 83.2171 137.955 83.0755L137.87 82.89C136.715 81.6974 135.575 80.5118 134.442 79.3108C134.334 79.2633 134.477 78.9385 134.49 78.7407L134.369 78.5951C133.708 78.0826 132.986 77.5426 132.365 77.0655L132.755 76.6833C133.286 77.3237 133.839 77.9556 134.369 78.5951C134.369 78.5951 134.524 78.6634 134.586 78.6911C136.699 79.3449 137.19 81.2051 137.917 82.9108L137.924 82.8955ZM134.321 74.8065C134.769 75.2988 134.869 76.1188 135.113 76.7803L134.658 77.0604L130.486 72.1925L130.93 71.6864C132.094 72.7348 133.291 73.706 134.314 74.8218L134.321 74.8065ZM133.729 71.9592C131.559 70.6962 129.772 68.8687 128.56 66.6713C129.074 67.1376 129.611 67.5963 130.112 68.094C130.613 68.5918 131.204 69.2214 132.204 68.6276L133.729 71.9592ZM171.266 111.938C172.895 118.05 175.189 123.992 176.893 130.062C177.95 133.702 179.286 137.256 180.891 140.69C181.525 142.059 182.338 143.359 182.914 144.776C180.961 143.106 179.456 140.977 178.533 138.58C177.667 136.351 176.878 133.953 176.04 131.662C175.551 130.339 175.034 129.04 174.494 127.749C172.185 122.261 169.836 116.776 167.519 111.303C167.414 110.96 167.334 110.61 167.278 110.256C168.005 110.576 168.47 110.78 169.289 111.141C168.493 108.13 165.507 106.815 164.649 103.648C167.676 106.126 170.274 108.195 171.266 111.938ZM165.92 96.9491C166.216 97.8064 166.446 98.6858 166.608 99.5789C166.608 99.5789 166.716 99.6273 166.778 99.6541C167.671 101.173 168.261 102.851 168.517 104.594C165.533 102.728 163.267 99.907 162.088 96.5904C163.133 97.5308 164.077 98.4082 165.042 99.2773C165.564 99.7283 166.081 100.27 166.732 99.6333L166.696 99.507C164.624 97.3749 162.561 95.2659 160.51 93.0871C159.752 92.3356 159.256 91.3594 159.096 90.3028C160.178 90.7989 161.112 91.5673 161.808 92.5327C162.257 93.0633 162.715 93.9112 163.263 93.9676C165.052 94.3499 165.404 95.6874 165.92 96.9491ZM157.012 91.1762C158.211 94.198 159.734 97.0299 161.131 99.9369C161.789 101.335 163.098 102.558 162.043 104.365C161.94 104.597 162.322 105.282 162.654 105.576C163.668 106.473 164.436 107.613 164.889 108.888C166.409 112.606 167.929 116.324 169.546 119.991C171.163 123.658 172.966 127.279 174.529 131.108C175.323 132.954 175.82 134.927 176.563 137.139C176.109 136.828 175.836 136.819 175.803 136.601C173.584 132.039 170.047 128.412 167.141 124.361C163.977 120.304 161.319 115.876 159.226 111.177C158.482 109.261 157.988 107.196 157.312 105.291C155.671 100.634 154.002 96.0375 152.38 91.3334C151.493 88.4859 150.789 85.5534 149.912 82.5994C148.82 78.8306 147.684 75.0794 146.792 71.1951C148.579 74.1804 150.205 77.2799 152.099 80.1091C154.55 83.5166 155.565 87.4179 157.039 91.1149L157.012 91.1762ZM148.428 65.8023C150.023 67.9271 151.288 70.2952 152.708 72.5646C155.268 76.5143 157.619 80.5959 159.751 84.7921C160.879 87.1363 161.976 89.4668 163.089 91.8042L162.808 91.9389C161.1 90.2814 159.406 88.5927 157.623 86.9391C157.399 86.6767 157.238 86.366 157.155 86.0306C156.339 82.6421 154.211 79.9683 152.481 77.0634C150.129 73.7414 148.001 70.2681 146.11 66.6649C145.149 64.6525 144.1 62.8425 142.969 60.922C141.37 58.0831 138.964 55.7818 136.056 54.3108C135.561 54.0093 135.096 53.6622 134.666 53.2736C131 50.4024 127.34 47.5151 123.655 44.7279C121.316 42.955 119.226 40.8782 117.437 38.5524C117.836 38.5998 118.229 38.6924 118.607 38.8283C121.403 40.4481 124.199 42.0678 126.968 43.7495C127.989 44.3657 128.891 45.1694 129.871 45.8785C132.154 47.5305 134.457 49.137 136.754 50.7581C137.727 51.4822 139.007 51.9729 138.995 53.5929C138.984 53.9944 139.453 54.4408 139.767 54.8189C142.676 58.4841 145.673 62.0392 148.456 65.7411L148.428 65.8023ZM208.004 151.971C209.182 153.488 210.341 155.051 211.506 156.598C212.152 157.437 211.866 158.254 211.514 159.262C209.783 156.652 208.237 154.124 206.598 151.555L206.961 151.234C207.338 151.435 207.688 151.683 208.004 151.971ZM210.003 136.45C210.403 138.141 210.525 139.876 210.757 141.529L211.176 142.213L211.224 145.835L211.323 145.99L211.281 146.082C211.914 149.125 212.084 152.244 211.785 155.336C211.171 154.549 210.732 154.078 210.395 153.542C209.291 151.259 207.982 149.082 206.484 147.035C206.317 146.869 206.462 146.415 206.465 145.863C208.477 147.081 208.698 149.599 210.71 150.522C209.934 147.336 207.618 144.967 206.296 142.095L206.668 141.796C207.289 142.568 207.86 143.282 208.542 144.081C209.225 144.881 209.62 145.535 210.221 146.225C210.822 146.915 211.013 146.481 211.368 146.139L211.422 146.015C210.584 144.815 209.753 143.599 208.937 142.39C208.122 141.181 207.215 139.968 206.437 138.758C206.273 138.501 206.279 138.152 206.548 137.624C207.374 138.727 208.243 139.775 209.001 140.903C209.194 141.316 209.502 141.663 209.889 141.902C210.275 142.141 210.724 142.263 211.179 142.251C211.009 142.175 210.824 141.965 210.801 141.807L210.757 141.529C209.917 140.125 209.092 138.727 208.207 137.34C207.657 136.451 206.981 135.636 206.445 134.716C206.318 134.323 206.249 133.913 206.242 133.5L206.643 133.344C207.244 134.034 207.87 134.753 208.425 135.422C208.547 135.387 208.666 135.341 208.781 135.284C208.775 134.861 208.712 134.441 208.591 134.037C208.104 133.046 207.59 132.118 206.965 131.104C206.643 130.449 206.467 129.733 206.447 129.004C206.427 128.275 206.565 127.55 206.851 126.879C207.178 127.226 207.465 127.371 207.514 127.596C208.388 130.474 209.245 133.475 209.972 136.436L210.003 136.45ZM258.895 157.199C262.684 161.37 265.815 166.095 268.181 171.209C269.449 173.615 270.84 176.075 272.03 178.447C273.383 181.369 274.476 184.382 275.661 187.434L275.178 187.776C273.969 186.794 272.825 185.735 271.754 184.605C267.317 179.394 262.3 174.704 256.801 170.628C255.898 169.953 254.817 169.514 253.919 168.786C251.854 167.1 249.865 165.411 247.889 163.524C244.482 160.244 240.754 157.315 236.762 154.78C235.054 153.554 233.427 152.221 231.891 150.786C231.467 150.417 231.068 150.018 230.698 149.595C229.014 147.8 227.372 145.95 225.683 144.209C223.994 142.467 222.26 140.576 220.409 138.948C218.102 136.968 216.102 134.654 214.475 132.085C213.456 130.417 212.166 128.944 211.02 127.35C210.743 126.912 210.5 126.453 210.296 125.978C210.82 125.996 211.334 126.125 211.805 126.354C212.276 126.585 212.694 126.911 213.032 127.312C217.307 130.858 221.482 134.545 225.87 137.956C229.039 140.405 232.564 142.383 235.799 144.769C237.651 146.139 239.234 147.87 240.951 149.422C242.305 150.741 243.73 151.986 245.219 153.15C248.847 155.863 252.169 158.962 255.129 162.392C256.79 164.324 258.442 166.234 259.953 168.212C261.464 170.189 262.709 171.809 264.109 173.534C264.675 174.263 265.322 174.974 265.87 175.658C267.069 177.129 268.406 178.623 269.669 180.158C270.084 180.583 270.525 180.981 270.991 181.35C271.168 180.877 271.203 180.364 271.091 179.871C270.98 179.379 270.727 178.931 270.364 178.58C267.952 175.671 265.54 172.761 263.128 169.851C260.281 166.546 257.265 163.371 254.425 160.05C249.477 154.176 243.306 149.61 237.822 144.367C236.091 142.922 234.238 141.629 232.284 140.505C229.973 138.914 227.621 137.379 225.345 135.711C222.677 133.76 220.086 131.676 217.474 129.639C217.234 129.421 217.01 129.187 216.804 128.938L217.058 128.698C218.421 129.535 219.84 130.278 221.305 130.921C222.952 131.522 224.648 131.979 226.374 132.286C228.099 132.64 229.729 133.358 231.154 134.392C238.666 139.898 245.894 145.783 252.808 152.023C254.89 153.587 257.057 155.207 258.895 157.199ZM206.416 117.009C206.973 117.254 207.133 118.692 207.352 119.619C207.59 120.707 207.764 121.808 207.876 122.916C207.94 123.779 207.96 124.645 207.935 125.509C207.028 124.859 206.267 124.026 205.701 123.064C205.136 122.103 204.778 121.033 204.651 119.925L205.664 119.301C205.789 117.97 204.845 117.221 204.261 116.281C203.678 115.34 202.736 114.796 203.062 113.259C203.477 113.7 203.681 113.993 203.949 114.223C204.844 115.042 205.046 116.387 206.419 116.917L206.416 117.009ZM238.475 127.626C241.469 129.425 244.582 131.037 247.639 132.734C250.284 134.051 252.608 135.932 254.446 138.246C254.053 138.229 253.663 138.175 253.28 138.083C250.83 137.188 248.416 136.254 245.966 135.359C244.994 134.96 243.992 134.642 242.968 134.407C236.908 133.165 230.984 131.335 225.281 128.941C225.042 128.789 224.781 128.674 224.507 128.601C220.517 128.265 217.268 126.168 213.857 124.35C212.669 123.821 211.597 123.059 210.705 122.113C210.383 121.6 210.13 121.048 209.952 120.469L210.304 120.255C210.939 120.535 211.517 120.9 212.094 121.265C214.944 122.798 218.043 123.813 221.246 124.264C222.936 124.621 224.543 125.458 226.239 125.928C229.816 126.966 233.316 128.255 236.711 129.785C236.82 129.833 236.967 129.75 237.334 129.672C237.076 129.385 236.8 129.115 236.508 128.864C233.094 126.215 228.774 125.456 224.985 123.786C222.7 122.883 220.332 122.206 217.916 121.762C216.452 121.587 215.073 120.979 213.956 120.017C215.817 120.32 217.667 120.691 219.545 120.873C220.993 121.046 222.455 121.071 223.908 120.948C226.018 120.647 228.167 121.097 229.978 122.219C232.832 123.919 235.583 125.889 238.475 127.626ZM236.234 116.867C231.628 117.22 227.003 117.528 222.376 117.927C218.064 118.557 213.664 117.795 209.813 115.754L208.801 112.685C210.766 113.107 212.752 113.427 214.751 113.644C217.264 113.81 219.802 113.708 222.337 113.699C225.203 113.731 228.081 113.712 230.969 113.642C231.6 113.623 232.229 113.733 232.815 113.966C233.402 114.199 233.934 114.55 234.38 114.998C235.065 115.558 235.793 116.064 236.557 116.51C236.476 116.697 236.394 116.882 236.234 116.867ZM240.783 117.024C239.935 117.02 239.307 117.02 239.056 117.002L235.098 113.411C236.918 112.883 237.417 114.267 238.299 114.821C239.35 115.283 240.213 116.086 240.748 117.102L240.783 117.024ZM245.477 117.227C244.496 117.275 243.569 117.365 242.511 117.379C242.509 114.866 239.67 114.853 238.995 112.782C241.296 113.865 243.486 115.171 245.534 116.679L245.477 117.227ZM237.794 107.71C241.172 107.831 244.512 108.461 247.701 109.581C249.397 110.218 251.241 110.476 252.998 110.973C254.707 111.395 256.39 111.914 258.038 112.529C259.268 113.018 260.416 113.693 261.443 114.528C265.212 117.491 269.479 119.758 274.044 121.225C275.569 121.689 276.925 122.589 277.946 123.813L277.698 124.165C277.026 123.986 276.373 123.741 275.748 123.436C271.995 121.265 267.715 120.708 263.605 119.932C259.496 119.156 255.02 118.458 250.725 117.766C249.535 117.575 248.344 117.512 247.195 117.393C246.33 115.165 244.21 114.527 242.648 112.914C243.413 112.605 243.914 112.475 244.599 113.016C245.961 114.116 247.392 115.06 248.796 116.067C249.118 116.229 249.448 116.375 249.786 116.503C249.922 116.193 250.045 115.915 249.895 115.794C247.818 113.382 245.744 111.047 242.101 111.14C239.571 111.158 237.047 111.4 234.56 111.863C232.358 112.215 230.129 112.363 227.9 112.308C223.676 112.294 219.437 112.273 215.242 112.069C213.858 111.965 212.481 111.789 211.115 111.543L210.988 111.118C211.308 110.852 211.604 110.392 211.957 110.344C213.358 110.162 214.767 110.056 216.179 110.026C218.912 109.844 221.612 109.341 224.227 108.529C226.08 108.096 227.971 107.847 229.874 107.785C232.489 107.593 235.114 107.559 237.732 107.682L237.794 107.71ZM238.463 93.6156C239.779 92.8098 240.731 93.8765 242.192 94.0401C240.759 95.2375 240.423 95.1629 238.432 93.6025L238.463 93.6156ZM201.764 103.673C203.423 103.91 205.068 104.234 206.692 104.644C206.674 104.433 206.683 103.994 206.679 103.29C208.819 102.626 211.163 101.96 213.464 101.348C216.11 100.667 218.816 100.142 221.448 99.3253C225.039 98.0395 228.358 96.0941 231.235 93.5891C236.246 89.7203 241.151 85.7126 246.108 81.6721C246.939 81.0039 247.626 80.1982 248.392 79.4647C252.156 76.0695 256.309 73.1312 260.764 70.7121C260.956 70.5997 261.171 70.5318 261.393 70.515C261.615 70.4974 261.838 70.531 262.046 70.612C260.918 71.7038 259.823 72.847 258.727 73.9519C254.508 78.1292 250.747 82.7442 247.507 87.7194L246.787 88.7687C245.474 90.573 245.493 90.4887 243.4 89.7881C242.531 89.4978 241.464 88.7321 240.298 90.1212C241.597 90.6931 242.743 91.1976 243.84 91.682C243.863 92.5963 243.385 93.051 242.805 92.6474C240.449 91.0371 238.555 92.2341 236.632 93.6218C233.593 95.7657 230.358 97.6184 226.972 99.1543C226.735 99.307 226.489 99.4454 226.235 99.569C220.309 101.575 214.552 104.118 208.346 105.207C207.226 105.394 206.093 105.512 204.958 105.561C204.219 105.605 203.914 105.877 204.252 106.746C208.359 106.935 212.458 106.22 216.258 104.648C218.829 103.675 221.437 102.83 223.95 101.739C226.824 100.456 229.626 98.9573 232.448 97.5411C233.271 97.1321 234.06 96.6586 234.809 96.1246C235.437 95.6039 236.233 95.3275 237.049 95.3481C237.865 95.3679 238.647 95.6823 239.249 96.234C237.904 97.3635 236.5 98.4219 235.044 99.4053C232.882 100.706 230.622 101.853 228.353 102.977C227.479 103.411 226.554 103.736 225.601 103.944C224.508 104.201 223.898 105.041 223.039 105.567C221.51 106.434 219.864 107.078 218.152 107.477C215.085 108.231 212.012 108.835 208.86 109.368C208.088 109.388 207.317 109.303 206.569 109.116C206.185 108.226 205.929 107.171 204.58 107.426C203.23 107.681 203.125 108.17 203.427 109.246C203.636 109.763 203.893 110.26 204.196 110.729C204.894 111.935 205.422 113.231 205.768 114.58C205.309 113.758 204.706 113.023 203.99 112.412C202.468 111.474 201.305 110.051 200.691 108.372C200.369 107.676 199.897 107.155 199.008 108C199.655 109.634 200.348 111.287 200.952 112.976C201.671 114.855 202.295 116.77 202.82 118.712C203.601 121.628 204.222 124.584 204.682 127.567C204.965 130.073 205.088 132.596 205.049 135.117C205.049 139.31 205.028 143.549 205.112 147.76C205.183 150.618 205.496 153.47 205.644 156.361C205.717 157.706 205.646 159.04 205.725 160.368C205.913 163.591 203.975 165.933 202.432 168.43C201.773 169.506 200.858 170.451 201.564 171.908L199.491 172.841C199.532 173.21 199.479 173.538 199.61 173.744C199.989 174.217 200.213 174.795 200.251 175.401C200.288 176.006 200.138 176.608 199.82 177.124C199.742 177.236 199.687 177.362 199.657 177.495C199.159 182.817 197.527 187.989 197.563 193.399C197.585 196.198 197.321 199.019 197.253 201.815C197.277 202.751 197.365 203.685 197.518 204.609C197.641 204.663 197.78 204.725 197.974 204.663C198.117 204.338 198.551 204.067 198.58 203.748C198.88 199.336 199.683 194.998 199.283 190.5C199.263 189.441 199.392 188.385 199.668 187.363C200.228 184.667 200.796 181.98 201.372 179.303C201.451 178.914 201.692 178.576 201.834 177.919L203.895 180.914C204.05 180.853 204.215 180.815 204.387 180.761C204.447 180.347 204.439 179.926 204.364 179.513C203.928 178.324 203.328 177.211 202.899 176.006C202.705 175.292 202.569 174.565 202.491 173.831C204.285 174.621 203.752 176.88 205.702 177.314C205.795 176.881 205.804 176.434 205.729 175.996C205.234 174.689 204.634 173.408 204.102 172.102C203.725 171.198 203.27 170.259 204.525 169.296L206.228 172.392C207.158 172.083 207.055 171.52 206.854 170.97C206.523 169.972 206.101 169.008 205.594 168.087C205.199 167.433 205.059 166.91 205.525 166.357C207.4 164.155 207.229 161.567 206.963 158.9C206.875 157.717 206.743 156.55 206.663 155.389L207.104 155.269L211.68 161.274C211.505 163.043 211.219 164.799 210.823 166.531C209.767 170.939 208.098 175.177 205.866 179.123C204.401 181.603 203.165 184.211 202.173 186.916C202.104 187.033 202.05 187.157 202.01 187.287C201.254 191.812 200.383 196.304 199.747 200.807C199.281 204.296 199.019 207.616 197.05 210.701C195.881 212.514 195.002 214.509 193.634 216.4C193.56 215.834 193.54 215.262 193.574 214.692C193.991 210.563 194.118 206.41 193.952 202.263C193.955 198.569 194.21 194.803 194.377 191.072C194.379 190.647 194.472 190.227 194.436 189.805C194.151 186.194 194.436 182.562 195.282 179.04C195.546 176.452 195.662 173.851 195.63 171.251C196.056 166.637 196.489 162.006 197.243 157.444C197.808 155.411 198.512 153.419 199.352 151.484C199.864 149.862 200.143 148.138 200.483 146.57L201.736 141.045C202.639 136.334 202.846 131.514 202.349 126.742C202.111 123.517 201.493 120.331 200.51 117.251C200.037 115.429 199.246 113.704 198.173 112.157C197.659 111.424 196.962 110.838 196.153 110.454C195.438 110.181 194.82 109.704 194.375 109.081C191.089 104.398 187.338 100.06 183.181 96.1318C181.436 94.309 179.823 92.3642 178.356 90.3123C177.718 89.562 177.029 88.8578 176.294 88.2025C173.356 85.6597 170.698 82.8111 168.365 79.7032C171.07 80.2701 173.482 81.7913 175.158 83.9893C175.47 84.5893 175.838 85.1593 176.255 85.6921C176.749 86.2051 177.349 86.562 176.954 87.459C176.668 88.1086 176.987 88.6001 177.686 88.9822C178.587 89.5264 179.438 90.1484 180.229 90.8418C182.543 92.6736 184.85 94.5215 187.172 96.3388C187.527 96.4954 187.986 96.5862 188.316 96.8432C189.429 97.2882 190.376 98.0665 191.028 99.0722C191.491 99.6833 192.117 100.151 192.834 100.422C193.792 100.772 194.732 101.174 195.647 101.625C197.47 102.808 199.565 103.508 201.732 103.66L201.764 103.673ZM200.065 73.5748C195.666 72.6156 191.294 71.5577 186.929 70.5211C186.543 70.3507 186.156 70.1803 185.716 70.1714L172.904 67.6844C172.697 67.6553 172.5 67.5797 172.327 67.4619C172.155 67.3442 172.012 67.1883 171.91 67.0061C174.741 67.1632 177.573 67.3586 180.425 67.5073C181.965 67.576 183.503 67.6071 185.045 67.5854C187.223 67.5473 189.407 67.4564 191.582 67.3807C192.001 67.3608 192.419 67.4382 192.803 67.6074C193.187 67.7767 193.526 68.0324 193.794 68.3557C194.614 69.1787 195.541 69.8821 196.568 70.7787C197.25 69.2314 195.4 68.6934 195.654 67.2354C196.385 67.3363 197.271 67.1723 197.773 67.5413C200.342 69.4677 202.802 71.5118 205.629 73.7731C203.78 74.0867 201.887 74.019 200.065 73.5748ZM211.172 74.7754L210.847 75.2602C206.986 74.1314 204.785 70.7417 201.539 68.2586C201.954 67.9528 202.467 67.8093 202.981 67.8555C203.495 67.9008 203.974 68.1338 204.329 68.5092C206.59 70.6137 208.876 72.7045 211.187 74.7823L211.172 74.7754ZM150.726 58.2814C151.449 58.554 152.157 58.8659 152.845 59.2157C155.224 60.2753 157.724 61.0356 160.289 61.4793C162.873 62.0878 165.511 62.4333 168.165 62.5111C170.857 62.4787 173.607 62.3599 176.201 62.1735C181.232 61.6941 186.245 60.9655 191.294 60.5305C196.913 60.0308 202.576 60.5608 208.004 62.0943C210.776 62.8897 213.646 63.2499 216.42 63.9549C219.925 64.7608 223.383 65.6747 226.881 66.496C232.299 67.8903 237.945 68.1586 243.471 67.2857C243.847 67.2765 244.224 67.307 244.595 67.3747C242.614 69.2964 240.211 70.73 237.579 71.5608C234.027 72.4521 230.404 73.0898 226.802 73.7199C223.199 74.3491 219.712 74.8436 216.173 75.3718C215.409 75.5032 214.634 75.5635 213.859 75.5523C213.446 75.5308 213.055 75.359 212.76 75.0686C210.744 72.8133 208.814 70.4852 206.757 68.1938C207.09 68.0369 207.465 67.9925 207.826 68.0679C208.185 68.1431 208.511 68.3339 208.753 68.6116C209.879 69.6616 211.078 70.6702 212.276 71.6413C212.834 71.9634 213.425 72.2242 214.039 72.4183C213.653 70.401 211.733 69.9803 211.481 68.2062L216.938 68.3944C216.627 67.1314 215.624 67.1872 215.031 67.1484C212.991 66.9146 210.951 66.8095 208.917 66.6891C206.397 66.5391 203.848 66.5799 201.357 66.2392C197.511 65.7716 193.629 65.6819 189.766 65.9708C184.123 66.1999 178.652 65.7472 173.084 65.473C170.921 65.3517 168.79 64.7813 166.618 64.4707C165.237 64.2504 163.845 64.0991 162.456 63.8558C161.767 63.7459 161.094 63.561 160.446 63.3033C159.029 62.5682 157.567 61.9237 156.069 61.3748C153.357 60.6172 150.823 59.3255 148.618 57.5747C149.32 57.8282 150.041 58.0349 150.742 58.2883L150.726 58.2814ZM161.127 69.2181C162.755 70.1758 164.307 71.266 165.951 72.2305C168.491 73.7185 171.057 75.1451 173.603 76.6184C174.145 76.9318 174.662 77.2834 175.153 77.6704C178.14 79.815 181.555 81.2876 185.164 81.9889C184.979 81.6937 184.744 81.433 184.468 81.2205C182.541 80.1867 180.602 79.222 178.654 78.2341C177.943 77.9209 177.232 77.6069 176.583 77.1926C172.27 74.4051 167.86 71.5018 163.465 68.7342C162.31 68.003 161.09 67.3736 159.892 66.6975C158.995 66.303 158.098 65.9076 157.264 65.4103L157.496 64.8848C157.988 65.0108 158.449 65.2342 158.853 65.5422C159.256 65.8503 159.594 66.2364 159.846 66.6775L159.954 66.7252C160.164 66.6694 160.42 66.5056 160.553 66.5824C165.316 69.1434 170.024 71.7902 174.821 74.2738C177.626 75.749 180.566 76.9154 183.404 78.3131C185.978 79.5956 188.492 81.0177 191.048 82.3837C192.547 83.1735 193.862 83.9194 195.298 84.6439C197.681 85.8605 200.113 87.0058 202.48 88.2146C202.951 88.4863 203.318 88.9086 203.522 89.4132C201.623 89.1121 199.725 88.8484 197.824 88.5097C193.274 87.6868 188.723 86.864 184.176 85.9499C181.02 85.4545 178.077 84.0485 175.707 81.9046C173.538 79.7847 170.742 78.7932 168.21 77.2892C167.576 77.0098 167.003 76.5917 166.423 76.1881C163.919 74.4933 161.408 72.8146 158.954 71.0494C157.409 69.9439 155.963 68.6974 154.358 67.4363C152.945 68.4206 151.989 67.4459 151.142 66.3517C149.499 64.1687 147.9 61.9306 146.076 59.4462C148.171 60.0775 150.063 61.2485 151.561 62.8423C152.886 64.2073 154.379 65.3984 156.002 66.3878C157.62 67.452 159.453 68.2405 161.143 69.2251L161.127 69.2181ZM179.645 40.2706C179.139 40.3132 178.629 40.2637 178.14 40.1244C176.051 38.9591 174.237 37.3597 172.818 35.4339C175.618 36.2058 177.256 38.6084 179.772 39.7724L179.645 40.2706ZM180.871 39.1666C179.253 37.8074 177.664 36.4241 176.076 35.0408C175.875 34.9522 175.879 34.5661 175.716 34.1804C176.131 34.1602 176.466 34.0304 176.623 34.1363C178.939 35.7113 181.218 37.288 183.708 39.0133C182.66 39.7152 181.786 39.9394 180.917 39.187L180.871 39.1666ZM138.704 29.3972C143.5 28.74 148.396 28.7363 153.262 28.4239C154.314 28.4597 155.366 28.4235 156.413 28.3161C161.112 27.376 165.8 28.2226 170.498 28.3346C174.563 28.3566 178.623 27.9996 182.622 27.2678C186.125 26.7795 189.561 26.1508 193.079 25.6692C194.311 25.5476 195.552 25.5379 196.786 25.6402C199.45 25.7981 202.108 26.1381 204.775 26.2051C207.611 26.5576 210.357 27.4296 212.877 28.7775C204.071 34.1327 194.514 36.0356 185.348 38.8125L178.957 33.4475C180.431 33.7653 181.8 34.4511 182.937 35.441C184.121 36.1477 185.299 36.8699 186.563 37.6485C187.126 36.9173 186.879 36.5131 186.26 36.074C185.002 35.2419 183.824 34.296 182.739 33.2483C184.201 33.3911 185.568 34.0328 186.612 35.0655C187.153 35.5993 187.663 35.9905 188.548 35.1982C187.589 34.3141 186.703 33.5172 185.436 32.368C188.15 31.8272 190.295 31.4428 192.595 30.9601C192.513 30.0559 191.723 29.837 190.881 29.9462C189.565 30.1237 188.281 30.4814 186.969 30.7344C185.116 31.0819 183.24 31.4001 181.387 31.7476C179.535 32.095 177.808 32.3683 176.067 32.839C174.327 33.3096 172.123 34.2039 170.113 34.7406C169.096 35.0092 168.043 35.1065 166.994 35.0286C163.125 34.8385 159.259 34.5573 155.409 34.2831C152.666 34.2015 149.953 33.7033 147.36 32.8053C145.351 32.2143 143.25 31.9959 141.161 32.161C137.448 32.2055 133.566 32.3792 129.768 32.5715C128.294 32.8036 126.79 32.7665 125.328 32.4622C130.025 31.3179 134.305 29.9896 138.75 29.4177L138.704 29.3972ZM77.3066 18.2476C76.8446 17.8304 76.5434 17.265 76.454 16.6489C76.3646 16.0328 76.4932 15.4048 76.8174 14.8735C76.9754 14.6843 77.1732 14.5322 77.397 14.4277C77.6201 14.323 77.864 14.2687 78.1105 14.2682C78.3571 14.2677 78.6005 14.3213 78.8243 14.4249C79.0481 14.5287 79.2462 14.6801 79.4052 14.8686C79.7994 15.2775 80.0261 15.8182 80.0425 16.3856C80.0589 16.9529 79.864 17.5061 79.4939 17.9368C78.7913 18.7355 77.9644 18.8513 77.3534 18.2681L77.3066 18.2476ZM97.2616 28.0005C94.273 26.148 91.296 24.2268 88.203 22.5685C85.9273 21.3624 83.4858 20.4899 80.9701 19.4922L82.008 16.2555C82.4942 16.3857 82.9684 16.5576 83.426 16.7693C85.2773 17.8068 87.0726 18.9304 88.9239 19.9678C93.1574 22.3502 97.39 24.7325 101.657 27.0374C102.622 27.5732 103.816 27.7118 104.826 28.2304C106.727 29.1974 108.56 30.319 110.456 31.3392C111.049 31.6878 111.699 31.9302 112.375 32.0556C113.747 32.2537 115.171 32.2904 116.548 32.4352C118.238 32.4675 119.905 32.8258 121.459 33.4905C122.499 33.9173 123.607 34.1555 124.732 34.194C126.345 34.3799 127.966 34.4778 129.59 34.4874C131.678 34.4842 133.759 34.3299 135.858 34.2202L142.023 33.8521L146.441 37.8676C147.215 36.3617 145.553 35.9432 145.345 34.9467C147.178 34.6458 147.342 34.6073 149.408 36.6258C150.443 37.6729 152.027 38.3526 152.324 40.2378L153.907 40.1229C154.003 37.8933 151.464 37.661 150.919 35.7956C151.275 35.6915 151.651 35.6796 152.013 35.7614C152.374 35.8431 152.709 36.0157 152.985 36.2627C154.214 37.4137 155.362 38.6217 156.619 39.7109C156.944 40.0395 157.353 40.2712 157.802 40.3798C158.494 40.475 159.191 40.5169 159.889 40.5054C158.423 39.1388 156.956 37.7723 155.482 36.4211L155.86 35.9412C158.833 35.6072 159.884 38.3789 161.782 39.8986C162.424 39.8674 162.614 39.4343 162.309 38.9118C161.7 37.9047 160.972 36.9562 160.04 35.6772C162.72 35.842 165.146 36.0797 167.708 36.1745C168.729 38.0289 170.38 39.457 172.362 40.2012C173.569 38.8862 171.591 38.6797 171.612 37.71C173.238 38.2516 174.703 39.1894 175.877 40.4389C174.73 41.4481 173.389 41.0973 172.251 41.039C168.681 40.7842 165.097 40.8168 161.531 41.1367C161.054 41.1138 160.58 41.0353 160.12 40.9027C158.456 41.6403 156.608 41.862 154.816 41.5392C153.217 41.3729 151.627 41.1167 150.056 40.7719L144.333 39.8016C139.305 39.4334 134.293 39.0718 129.312 38.4287C127.454 38.0259 125.646 37.4211 123.919 36.6249C120.537 35.2477 117.014 34.2467 113.413 33.6397C112.735 33.544 111.991 33.8073 111.347 33.6344C109.512 33.103 107.3 33.347 105.824 32.4197C103.116 30.7277 100.039 29.7045 97.3076 28.0209L97.2616 28.0005ZM119.934 49.6087C118.321 46.4786 116.561 43.4309 114.784 40.3389C114.378 39.6245 113.861 38.9534 113.159 37.9053C113.61 38.036 114.042 38.2263 114.443 38.4709C116.94 40.4254 119.005 42.8761 120.507 45.6681C121.386 47.304 122.378 48.877 123.476 50.3748C126.561 55.6653 129.295 61.1518 131.661 66.8002C131.772 67.0566 131.865 67.3203 131.941 67.5882L131.648 67.9206C131.268 67.6879 130.908 67.4245 130.572 67.1327C129.179 65.5584 127.758 64.046 126.451 62.3615C126.021 61.8246 125.66 61.2375 125.374 60.6126C123.56 56.9321 121.837 53.2548 119.981 49.6295L119.934 49.6087ZM122.087 60.5686C121.74 59.0299 121.502 57.4684 121.375 55.8958L121.854 55.7737C122.058 56.3999 122.315 56.9925 122.481 57.6202C122.648 58.2479 122.51 58.6861 122.755 59.0526C126.496 64.3953 128.225 70.6979 130.611 76.6441C131.75 79.5103 132.509 82.5232 133.608 85.3525C134.707 88.1826 135.893 90.94 137.05 93.7217C137.564 94.946 138.064 96.2001 138.651 97.3829C138.995 97.9215 139.392 98.4241 139.837 98.8835C140.308 99.3312 140.702 99.8544 141.002 100.432C141.817 102.423 142.949 104.27 144.356 105.899C145.233 107.412 146.002 108.986 146.658 110.607C147.273 111.874 147.993 113.087 148.81 114.234C149.368 114.797 150.087 115.172 150.868 115.307C153.259 119.156 155.636 122.999 157.997 126.834L157.653 127.07C156.204 125.287 154.755 123.503 153.329 121.71L143.796 109.809C141.653 107.019 139.823 104.002 138.341 100.811C135.541 95.0516 132.727 89.3235 130.045 83.5051C126.874 76.0612 124.23 68.4033 122.134 60.5886L122.087 60.5686ZM118.887 144.123C119.153 144.357 119.399 144.614 119.621 144.889C120.698 146.638 121.846 148.474 123.052 150.224C123.841 151.366 124.807 152.401 125.693 153.493L127.365 155.653C127.639 156.083 127.937 156.498 128.257 156.895C133.725 162.888 138.585 169.425 144.61 174.906C145.826 176.176 146.96 177.522 148.008 178.934C150.419 181.844 152.796 184.498 155.121 187.313C155.998 188.386 156.717 189.579 157.253 190.857L156.647 191.31C156.266 190.958 155.866 190.652 155.53 190.282C153.502 187.924 151.465 185.561 149.418 183.194C148.212 181.739 146.923 180.136 145.589 178.68C143.933 176.861 142.126 175.178 140.54 173.371C138.371 170.957 136.283 168.485 134.218 166.005C131.437 162.674 128.822 159.176 125.919 155.957C123.158 152.865 120.841 149.4 119.039 145.667C118.916 145.431 118.844 145.173 118.827 144.908C118.81 144.643 118.849 144.377 118.941 144.127L118.887 144.123ZM145.413 39.4464L144.366 39.853C144.174 39.6579 143.991 39.4475 143.463 38.8828C144.401 39.0188 144.895 39.0705 145.399 39.1444L145.413 39.4464Z" fill="#101A24"/>
</g>
</svg>
