<svg width="110" height="17" viewBox="0 0 110 17" fill="none" xmlns="http://www.w3.org/2000/svg">
<path d="M11.9062 4.71875L16.375 5.375C16.75 5.4375 17.0625 5.6875 17.1875 6.0625C17.3125 6.40625 17.2188 6.8125 16.9375 7.0625L13.6875 10.2812L14.4688 14.8438C14.5312 15.2188 14.375 15.5938 14.0625 15.8125C13.75 16.0625 13.3438 16.0625 13 15.9062L9 13.75L4.96875 15.9062C4.65625 16.0625 4.21875 16.0625 3.9375 15.8125C3.625 15.5938 3.46875 15.2188 3.53125 14.8438L4.28125 10.2812L1.03125 7.0625C0.75 6.8125 0.65625 6.40625 0.78125 6.0625C0.90625 5.6875 1.21875 5.4375 1.59375 5.375L6.09375 4.71875L8.09375 0.5625C8.25 0.21875 8.59375 0 9 0C9.375 0 9.71875 0.21875 9.875 0.5625L11.9062 4.71875Z" fill="#DDBC7A"/>
<path d="M34.9062 4.71875L39.375 5.375C39.75 5.4375 40.0625 5.6875 40.1875 6.0625C40.3125 6.40625 40.2188 6.8125 39.9375 7.0625L36.6875 10.2812L37.4688 14.8438C37.5312 15.2188 37.375 15.5938 37.0625 15.8125C36.75 16.0625 36.3438 16.0625 36 15.9062L32 13.75L27.9688 15.9062C27.6562 16.0625 27.2188 16.0625 26.9375 15.8125C26.625 15.5938 26.4688 15.2188 26.5312 14.8438L27.2812 10.2812L24.0312 7.0625C23.75 6.8125 23.6562 6.40625 23.7812 6.0625C23.9062 5.6875 24.2188 5.4375 24.5938 5.375L29.0938 4.71875L31.0938 0.5625C31.25 0.21875 31.5938 0 32 0C32.375 0 32.7188 0.21875 32.875 0.5625L34.9062 4.71875Z" fill="#DDBC7A"/>
<path d="M57.9062 4.71875L62.375 5.375C62.75 5.4375 63.0625 5.6875 63.1875 6.0625C63.3125 6.40625 63.2188 6.8125 62.9375 7.0625L59.6875 10.2812L60.4688 14.8438C60.5312 15.2188 60.375 15.5938 60.0625 15.8125C59.75 16.0625 59.3438 16.0625 59 15.9062L55 13.75L50.9688 15.9062C50.6562 16.0625 50.2188 16.0625 49.9375 15.8125C49.625 15.5938 49.4688 15.2188 49.5312 14.8438L50.2812 10.2812L47.0312 7.0625C46.75 6.8125 46.6562 6.40625 46.7812 6.0625C46.9062 5.6875 47.2188 5.4375 47.5938 5.375L52.0938 4.71875L54.0938 0.5625C54.25 0.21875 54.5938 0 55 0C55.375 0 55.7188 0.21875 55.875 0.5625L57.9062 4.71875Z" fill="#DDBC7A"/>
<path d="M80.9062 4.71875L85.375 5.375C85.75 5.4375 86.0625 5.6875 86.1875 6.0625C86.3125 6.40625 86.2188 6.8125 85.9375 7.0625L82.6875 10.2812L83.4688 14.8438C83.5312 15.2188 83.375 15.5938 83.0625 15.8125C82.75 16.0625 82.3438 16.0625 82 15.9062L78 13.75L73.9688 15.9062C73.6562 16.0625 73.2188 16.0625 72.9375 15.8125C72.625 15.5938 72.4688 15.2188 72.5312 14.8438L73.2812 10.2812L70.0312 7.0625C69.75 6.8125 69.6562 6.40625 69.7812 6.0625C69.9062 5.6875 70.2188 5.4375 70.5938 5.375L75.0938 4.71875L77.0938 0.5625C77.25 0.21875 77.5938 0 78 0C78.375 0 78.7188 0.21875 78.875 0.5625L80.9062 4.71875Z" fill="#DDBC7A"/>
<path d="M103.906 4.71875L108.375 5.375C108.75 5.4375 109.062 5.6875 109.188 6.0625C109.312 6.40625 109.219 6.8125 108.938 7.0625L105.688 10.2812L106.469 14.8438C106.531 15.2188 106.375 15.5938 106.062 15.8125C105.75 16.0625 105.344 16.0625 105 15.9062L101 13.75L96.9688 15.9062C96.6562 16.0625 96.2188 16.0625 95.9375 15.8125C95.625 15.5938 95.4688 15.2188 95.5312 14.8438L96.2812 10.2812L93.0312 7.0625C92.75 6.8125 92.6562 6.40625 92.7812 6.0625C92.9062 5.6875 93.2188 5.4375 93.5938 5.375L98.0938 4.71875L100.094 0.5625C100.25 0.21875 100.594 0 101 0C101.375 0 101.719 0.21875 101.875 0.5625L103.906 4.71875Z" fill="#DDBC7A"/>
</svg>
