<svg width="34" height="24" viewBox="0 0 34 24" fill="none" xmlns="http://www.w3.org/2000/svg">
<path d="M0 0H34V19.1818H0V0ZM12.2216 16.8182C11.7315 16.2727 11.3027 15.5909 10.9351 14.7727C10.5676 13.9545 10.2766 13.1061 10.0622 12.2273C9.84775 11.3485 9.74054 10.5455 9.74054 9.81818C9.74054 9.75758 9.74054 9.68182 9.74054 9.59091C9.74054 9.5 9.74054 9.42424 9.74054 9.36364C9.74054 8.63636 9.84775 7.84848 10.0622 7C10.2766 6.15151 10.5676 5.31818 10.9351 4.5C11.3027 3.68182 11.7315 2.9697 12.2216 2.36364H7.25946C7.25946 3.69697 6.78468 4.83333 5.83513 5.77273C4.88559 6.71212 3.76757 7.18182 2.48108 7.18182H2.38919V13.1818C3.43063 13.1818 4.3036 13.5303 5.00811 14.2273C5.71261 14.9242 6.06487 15.7879 6.06487 16.8182H12.2216ZM31.5189 13.1818V7.18182C30.1712 7.18182 29.0225 6.71212 28.073 5.77273C27.1234 4.83333 26.6486 3.69697 26.6486 2.36364H21.7784C22.1459 2.78788 22.4829 3.30303 22.7892 3.90909C23.0955 4.51515 23.3559 5.12121 23.5703 5.72727C23.7847 6.33333 23.9532 6.95454 24.0757 7.59091C24.1982 8.22727 24.2595 8.81818 24.2595 9.36364C24.2595 9.42424 24.2595 9.5 24.2595 9.59091C24.2595 9.68182 24.2595 9.75758 24.2595 9.81818C24.2595 10.9091 24.0144 12.1364 23.5243 13.5C23.0342 14.8636 22.4523 15.9697 21.7784 16.8182H27.9351C27.9351 15.7879 28.2874 14.9242 28.9919 14.2273C29.6964 13.5303 30.5387 13.1818 31.5189 13.1818ZM0 21.6364H34V24H0V21.6364Z" fill="white"/>
</svg>
