<svg width="210" height="277" viewBox="0 0 210 277" fill="none" xmlns="http://www.w3.org/2000/svg">
<path d="M3.87339 216.679C4.68658 216.517 5.43274 216.116 6.01669 215.529C7.1629 214.264 8.16846 212.83 9.2166 211.449C10.9113 209.38 12.3306 207.099 13.4403 204.666C14.9274 201.17 16.8944 197.897 19.2846 194.944C21.8524 191.507 24.2081 187.916 26.3373 184.191C27.7774 181.801 28.6709 179.074 30.1795 176.714C31.1579 175.322 31.7622 173.703 31.9353 172.011C32.282 169.505 32.8704 167.039 33.6914 164.646C35.1169 159.566 36.5573 154.503 38.0116 149.459C38.4131 148.067 38.9426 146.722 39.4239 145.374C39.8248 145.854 39.6218 146.376 39.6801 146.789C39.9933 150.731 39.4273 154.692 38.0227 158.388C37.1742 160.916 36.4616 163.488 35.8892 166.092C35.2958 169.254 34.2805 172.324 32.8703 175.216C32.3979 176.154 32.08 177.163 31.9294 178.203C31.6747 182.886 30.9585 187.533 29.7909 192.075C29.5927 192.801 29.4776 193.547 29.4465 194.299C28.8521 200.367 29.9321 206.355 30.3377 212.38C30.6412 216.728 31.0042 221.092 31.1415 225.425C31.0493 230.44 32.1707 235.404 34.4099 239.892C34.7219 240.749 35.2235 241.524 35.877 242.161C36.5303 242.797 37.3183 243.279 38.183 243.568C38.6576 242.798 39.0129 241.96 39.2349 241.082C39.8308 234.201 40.3192 227.32 40.8679 220.433C41.1546 216.583 41.4655 212.735 41.8365 208.881C41.9635 207.344 42.304 205.826 42.4395 204.327C42.9662 200.079 43.4456 195.825 43.9857 191.566C44.1046 190.931 44.265 190.303 44.4661 189.689C45.514 192.192 46.377 194.769 47.0481 197.398C47.4839 198.949 47.9311 200.514 48.2939 202.083C48.9757 205.168 49.5585 208.292 50.3095 211.408C51.2948 215.517 52.5493 219.578 53.3637 223.72C54.1985 227.657 55.6977 231.424 57.7962 234.86C59.233 237.293 60.4318 239.837 61.6796 242.362C62.3887 243.818 62.9099 245.364 63.5925 246.842C64.6351 249.12 65.5641 249.204 67.5406 247.642C67.009 243.682 66.4779 239.722 65.9474 235.762C65.4158 231.802 64.8391 227.55 64.2363 223.451C63.5816 220.717 63.1976 217.925 63.0917 215.116C63.0731 214.622 62.9962 214.132 62.863 213.656C62.3155 210.546 61.8304 207.406 61.198 204.301C60.5028 200.831 59.6456 197.429 58.8508 193.998C58.2516 192.277 57.8886 190.485 57.7706 188.668C58.2167 189.044 58.4182 189.207 58.6195 189.368C60.0812 190.592 61.5039 191.848 62.983 193.014C64.0356 193.852 65.2397 194.477 66.2395 195.36C68.1544 197.02 70.0213 198.808 71.7996 200.517C73.7113 202.297 75.3457 204.353 76.6492 206.618C77.577 208.038 78.6674 209.345 79.8988 210.511C80.5269 211.263 81.3518 211.83 82.0452 212.528C83.5759 214.046 85.0386 215.666 86.6476 217.119C88.2566 218.572 89.8849 219.81 91.5589 221.077C92.1067 221.444 92.7276 221.684 93.3797 221.782C94.3013 221.937 94.6802 221.467 94.5366 220.53C94.3926 219.593 94.1906 219.035 94.1277 218.273C93.8544 214.781 92.3454 211.416 91.5593 207.89C91.5093 207.682 91.4265 207.484 91.3124 207.303C89.8501 204.245 87.6737 201.583 84.967 199.543C82.3528 197.739 80.1891 195.355 78.6468 192.577C77.3442 190.252 75.7373 188.115 74.2812 185.896C74.0104 185.571 73.8301 185.171 73.6351 184.806C71.8543 181.68 69.6534 178.813 67.0949 176.284C65.0481 174.095 62.6078 172.28 60.416 170.234C58.0353 168.238 56.0289 165.835 54.4915 163.136C52.3752 159.308 50.6318 155.285 49.2856 151.123C48.8802 149.963 48.6142 148.758 48.4933 147.535C48.367 143.743 48.4099 139.943 48.2095 136.17C47.9899 131.686 47.5641 127.219 47.2838 122.741C47.1941 121.473 47.3247 120.153 47.3047 118.915C48.4863 121.105 49.5491 123.355 50.4888 125.658C53.6072 133.14 56.675 140.64 59.8293 148.113C62.0734 153.439 64.4305 158.715 66.7242 164.023C67.5369 165.919 68.3526 167.793 69.1306 169.675C69.1798 169.909 69.2748 170.13 69.41 170.327C69.5445 170.523 69.717 170.691 69.9178 170.821C70.1181 170.95 70.3416 171.039 70.5764 171.081C70.8111 171.124 71.0519 171.12 71.2846 171.069C71.386 170.694 71.4408 170.309 71.4482 169.92C71.0976 166.625 70.7811 163.344 70.2963 160.072C69.7128 155.892 69.1056 151.709 68.3146 147.569C67.5545 144.021 66.6295 140.433 65.8242 136.856C65.0185 133.28 64.5306 129.768 63.4937 126.363C61.4018 119.478 59.0875 112.669 56.7603 105.871C56.0272 103.426 54.8214 101.148 53.2121 99.1674C51.4538 97.0406 50.1981 94.5438 49.5383 91.8637C49.1087 90.3738 48.8132 88.8587 48.3704 87.3783C47.2638 83.679 46.1829 79.9573 44.9531 76.2942C44.2071 74.0908 43.3096 71.9414 42.2691 69.8605C41.4474 68.3877 40.9984 66.7366 40.9623 65.0503C41.0421 61.2993 40.2518 57.5803 38.6531 54.1864C38.2042 53.1862 38.1559 52.0525 38.5192 51.0182C38.9201 51.498 39.046 51.8336 39.2102 52.1367C40.4501 54.7304 41.824 57.2574 43.3278 59.708C45.0919 62.3462 46.6076 65.1418 47.8554 68.0595C48.3835 69.207 49.0437 70.2892 49.8208 71.2855C50.8265 72.6475 51.9783 73.7117 52.9296 75.0091C56.5061 80.0594 59.9032 85.2381 63.5844 90.2019C66.3337 93.9172 69.403 97.4099 72.3577 100.977C73.7438 102.637 75.1408 104.312 76.6446 105.875C77.1808 106.301 77.7643 106.663 78.3828 106.956C78.4164 105.915 78.6107 105.224 78.4677 104.684C77.5871 101.94 76.5962 99.2224 75.6672 96.4746C74.7389 93.7272 73.7846 91.001 72.954 88.238C71.8533 84.5989 71.063 80.8556 69.7639 77.2941C66.6982 69.5586 62.4208 62.3603 57.0931 55.9677C54.4077 52.8271 51.5385 49.8476 48.5014 47.0458C46.197 44.7862 43.7604 42.6585 41.3237 40.5307C39.5989 39.2168 38.1926 37.5316 37.2088 35.5999C35.9035 32.6381 34.2588 29.8498 34.0089 26.491C33.996 26.238 33.79 25.9912 33.7189 25.7211C33.0849 23.9331 32.5443 22.1143 32.0977 20.2708C30.9505 14.7551 30.061 9.17883 28.804 3.68959C28.1673 0.895971 26.1518 -0.701416 23.3649 0.523214C22.7161 0.80096 22.0758 1.11516 21.4377 1.4058C21.035 1.55663 20.694 1.83762 20.4695 2.2045C20.2451 2.57137 20.1497 3.00266 20.1992 3.43025C20.243 4.90192 20.3998 6.36837 20.6677 7.81641C21.5365 11.4949 22.5868 15.0217 23.4034 18.7433C24.2311 22.742 24.7774 26.7993 25.458 30.8326C26.0251 33.3265 25.6177 35.9428 24.3189 38.1465C23.0857 40.1919 22.1223 42.3878 21.45 44.6796C20.2258 48.8058 19.353 53.0346 18.2715 57.1734C17.4664 60.606 17.0138 64.112 16.9209 67.6362C16.7675 70.5821 16.5143 73.5239 16.1621 76.4601C15.6524 80.6502 14.9651 84.812 14.3881 88.9482C14.1856 90.6852 14.0999 92.433 14.133 94.1813C14.1696 96.7048 14.4939 99.23 14.4333 101.769C14.3257 105.362 14.6097 108.957 15.2787 112.489C15.4457 113.383 15.7092 114.255 16.0641 115.092C16.7108 116.469 17.0724 117.964 17.1269 119.484C17.1821 121.005 16.9288 122.521 16.3828 123.941C15.7818 125.199 15.4233 126.559 15.3256 127.95C15.0528 129.375 14.5437 130.744 13.8207 132.002C12.8225 134.553 11.8703 137.131 10.8378 139.666C10.0624 141.612 9.14657 143.521 8.38123 145.48C7.17885 148.576 6.26559 151.782 4.86835 154.776C3.00715 159.168 1.67056 163.764 0.885929 168.469C0.769364 168.963 1.01855 169.525 1.12915 170.291C2.09471 170.103 3.04669 170.188 3.66142 169.763C5.11991 168.889 6.43351 167.793 7.55436 166.514C11.0374 162.088 14.3515 157.538 17.687 153.015C19.068 150.722 20.6252 148.539 22.3434 146.487C24.993 143.562 27.0626 140.161 28.4427 136.464C29.4775 134.169 30.421 131.818 31.4672 129.536C32.7822 126.655 34.2476 123.846 35.5183 120.937C37.1589 116.738 38.2833 112.353 38.8666 107.882C39.0112 107.08 39.1898 106.291 39.4572 105.188C39.7912 105.746 40.0208 105.862 39.9884 106.088C40.2627 110.901 40.9848 115.801 40.2701 120.802C39.5221 125.156 37.9276 129.322 35.5775 133.063C34.2544 135.223 32.8513 137.341 31.5633 139.517C29.4469 143.34 27.047 146.998 24.385 150.462C22.3955 152.673 20.8732 155.262 19.9067 158.075C18.4738 162.794 17.1464 167.535 15.7371 172.256C14.8479 175.523 13.549 178.664 11.8703 181.604C10.7966 183.343 9.9429 185.209 9.32983 187.159C7.14364 194.378 5.12988 201.673 3.07454 208.892C2.58078 210.72 2.19727 212.577 1.92625 214.452C1.82323 214.736 1.79813 215.043 1.85379 215.339C1.90965 215.636 2.04386 215.913 2.2429 216.14C2.4415 216.367 2.69719 216.537 2.98393 216.632C3.2711 216.727 3.57844 216.744 3.87339 216.679ZM28.3696 175.758C28.4593 176.63 27.5574 177.581 27.1139 178.501C26.3949 175.522 26.2216 172.436 26.6029 169.395L27.0531 169.328C27.6146 171.444 28.0536 173.591 28.3696 175.758ZM29.8505 168.643C30.246 170.252 30.6625 171.885 29.3045 173.502C28.7944 170.912 28.2622 168.428 27.853 165.907C27.8558 165.56 27.9287 165.217 28.0686 164.899C28.2086 164.582 28.4128 164.297 28.6677 164.061C29.0475 165.571 29.462 167.097 29.8505 168.643ZM31.1783 167.359C30.5189 165.411 29.9968 163.419 29.6155 161.398C29.4699 160.353 30.1875 159.182 30.5154 158.071C31.3532 159.457 31.85 161.021 31.9652 162.635C32.0804 164.25 31.8109 165.869 31.1783 167.359ZM40.5667 203.798L40.1126 203.913C39.778 202.695 39.3579 201.505 39.1529 200.31C38.9486 199.116 37.8468 198.033 39.0305 196.208C39.4268 199.003 40.4677 201.305 40.5667 203.798ZM37.368 195.217C36.6315 199.03 36.1755 202.891 36.0027 206.771C35.8032 208.721 35.6856 210.69 35.5444 212.657C35.508 213.326 35.5194 213.999 35.4378 215.168C36.0611 214.649 36.4374 214.334 36.541 214.115C36.8411 212.596 37.0279 211.056 37.1003 209.51C37.0953 207.26 37.4144 205.021 38.0475 202.863C38.5702 204.518 39.1058 206.162 39.5915 207.826C39.661 208.24 39.6392 208.664 39.5279 209.069C38.9448 212.541 38.6759 216.059 38.7248 219.58C38.5459 223.428 38.2221 227.287 37.9893 231.202C37.848 233.302 37.6722 235.385 37.4832 237.481C37.4403 237.957 37.3154 238.413 37.1624 239.312C36.043 237.343 35.3836 235.146 35.2335 232.886C34.5984 229.013 34.0932 225.031 33.7333 221.171C33.5064 219.158 33.6566 217.227 33.6309 215.245C33.6722 214.897 33.6957 214.547 33.7023 214.195C33.4169 210.03 33.1323 205.864 32.7964 201.742C32.5276 198.801 32.6367 195.839 33.1221 192.927C33.8957 188.209 34.3011 183.445 34.9791 178.718C35.1905 177.707 35.5241 176.725 35.9739 175.796C36.5654 174.605 37.0881 173.383 37.5406 172.132C38.2828 169.487 38.8498 166.791 39.5106 164.126C39.7565 163.128 40.0602 162.148 40.3734 161.204L40.9902 161.283C41.1478 162.869 41.4257 164.442 41.4723 166.055C41.7976 170.476 41.3038 174.919 40.0152 179.159C38.7796 183.431 38.0174 187.825 37.7421 192.263C37.6968 193.256 37.5718 194.244 37.368 195.217ZM40.8865 197.059C40.4079 194.375 38.2568 191.878 40.0577 188.943C40.6718 191.579 42.2021 194.177 40.8865 197.059ZM42.1021 188.624C41.5754 187.28 41.1355 186.173 40.7187 185.067C40.5911 184.756 40.3485 184.386 40.4218 184.104C40.805 181.728 41.4577 179.404 42.3661 177.176C43.1632 181.243 43.5818 184.857 42.1021 188.624ZM67.7122 193.668L67.3624 193.961C65.0664 192.134 62.7691 190.33 60.5513 188.439C59.4709 187.591 58.4467 186.673 57.487 185.69C56.6389 184.926 55.959 183.994 55.4895 182.954C54.5931 180.358 53.9145 177.691 53.4595 174.983C54.0228 175.538 54.5306 176.147 54.9763 176.8C55.7969 178.293 56.8698 179.631 58.1472 180.758C59.9149 182.453 61.5351 184.316 63.2351 186.088C63.5428 186.462 63.8961 186.796 64.2853 187.083C66.622 188.721 66.8839 191.277 67.6579 193.603L67.7122 193.668ZM70.4368 195.929C69.0424 194.892 69.4029 193.556 69.1743 192.359C69.9526 193.391 70.3936 194.638 70.4368 195.929ZM73.659 199.052C72.3147 198.258 72.0564 197.132 72.6481 195.493L73.659 199.052ZM58.9824 174.293C61.9342 177.091 64.8709 179.924 67.6128 182.919C71.0356 186.835 74.134 191.023 76.8769 195.442C78.3149 197.338 79.8721 199.142 81.5382 200.843C83.3898 203.061 85.242 205.28 86.993 207.562C87.1909 207.851 87.4156 208.12 87.6643 208.367C89.7022 209.99 90.2103 212.34 90.7535 214.705C91.0487 215.955 91.4412 217.191 91.7971 218.435L91.4596 218.716C89.5174 216.969 87.5612 215.233 85.647 213.441C83.6262 211.694 81.7069 209.834 79.8972 207.87C77.8708 205.827 76.3232 203.359 75.3633 200.646C75.2783 200.451 75.2242 200.243 75.203 200.031C75.3603 196.289 73.2508 193.735 70.7556 191.326C69.3431 189.951 68.154 188.368 66.8068 186.939C65.4595 185.509 64.1317 184.261 62.7999 182.929C61.4678 181.597 60.1837 180.401 58.9622 179.043C57.9763 177.862 57.0946 176.595 56.0728 175.423C54.7293 173.814 53.218 172.345 51.8119 170.766C51.3857 170.323 51.057 169.795 50.8476 169.216C50.0493 166.228 49.3365 163.212 48.6118 160.206C48.5757 160.042 48.5773 159.873 48.6172 159.71C48.657 159.547 48.7328 159.395 48.8396 159.267C49.1307 159.768 49.3884 160.288 49.612 160.824C51.6216 165.994 54.834 170.611 58.9824 174.293ZM63.1534 136.928C64.037 140.044 64.9699 143.14 65.8033 146.275C66.2899 148.071 66.5854 149.849 66.9412 151.622C67.5177 154.95 68.0828 158.265 68.648 161.58C68.8797 162.559 68.9788 163.565 68.9429 164.57C68.6368 164.084 68.3611 163.578 68.1193 163.056C64.474 154.496 60.9034 145.918 57.3282 137.387C55.8862 133.945 54.1975 130.577 52.8187 127.105C51.0775 122.723 49.5354 118.264 47.9327 113.812C47.0796 111.419 46.3013 109.009 45.4853 106.607C45.3101 106.215 45.2059 105.796 45.1771 105.367C45.244 102.361 43.7683 99.6963 43.2362 96.8163C42.7034 93.9359 42.0503 91.2012 41.4545 88.351C41.2918 87.5142 41.3243 86.6507 41.55 85.8282C42.2582 87.3776 42.8566 88.9752 43.3394 90.6094C43.762 92.6022 44.3652 94.5527 45.1423 96.4361C46.0116 98.5065 46.5307 100.738 47.2504 102.866C48.0472 105.35 48.8192 107.831 49.6155 110.316C50.652 113.048 51.514 115.843 52.1972 118.685C52.6144 119.863 53.1696 120.989 53.8516 122.037C54.9591 124.393 56.1269 126.743 57.1379 129.114C58.5257 132.359 59.9261 135.725 61.2205 139.07C61.8254 140.612 62.2185 142.244 62.711 143.836L63.44 143.602L60.769 134.493C61.3424 134.659 61.8632 134.97 62.2815 135.397C62.6993 135.824 62.9994 136.351 63.1534 136.928ZM41.2457 95.3286L41.9847 99.2476C40.7649 97.4694 40.6669 96.9569 41.2244 95.3027L41.2457 95.3286ZM62.0901 132.752C60.5741 131.2 58.5757 130.467 58.4542 127.948C59.871 129.408 62.0275 129.986 62.0677 132.726L62.0901 132.752ZM60.8009 127.884C59.2313 127.19 58.8837 125.587 57.8525 124.642C56.6238 123.685 55.699 122.393 55.188 120.921C56.7456 121.944 58.2114 123.1 59.5687 124.377C60.1829 125.464 60.6001 126.651 60.8009 127.884ZM44.2991 81.5516C45.5689 86.2382 46.5926 90.9985 48.048 95.6181C48.8971 97.9287 50.0026 100.138 51.3423 102.203C53.4357 106.198 55.1876 110.362 56.5812 114.651C57.2789 116.49 57.8284 118.388 58.4142 120.276C58.5153 120.748 58.5767 121.227 58.5968 121.709C56.8456 120.375 55.2929 119.227 53.7789 118.046C53.5689 117.767 53.4253 117.442 53.3607 117.097C51.6924 112.17 49.951 107.262 48.3457 102.305C47.3195 99.1758 46.4794 95.9803 45.5157 92.8217C44.9237 90.8719 44.2706 88.9294 43.6285 86.9993C42.2359 83.0108 41.4986 78.8228 41.4463 74.5985C41.8309 75.016 42.1601 75.4814 42.4256 75.9825C43.1323 77.8583 43.8566 79.6762 44.3428 81.6033L44.2991 81.5516ZM56.241 73.0159C57.973 73.7719 58.4071 75.6107 57.7837 78.5311C55.7443 77.0628 56.6296 74.9587 56.2847 73.0676L56.241 73.0159ZM60.408 82.4394C59.9095 81.8426 59.4115 81.2452 58.8811 80.6095L59.8896 77.9403L60.2727 77.951L60.8381 82.1901L60.408 82.4394ZM23.2458 2.91268L25.9944 3.56822C26.2084 5.19587 25.4251 6.02504 23.9481 6.84018L23.2458 2.91268ZM28.5844 127.032C29.0641 130.162 28.3923 133.358 26.6934 136.03C26.2748 136.841 25.907 137.678 25.5919 138.535C24.6954 140.611 23.4523 142.52 21.9149 144.18C20.155 146.266 18.4838 148.431 16.8603 150.6C13.5314 155.317 10.3146 160.115 6.95083 164.816C6.28145 165.473 5.51106 166.019 4.66921 166.434L4.20181 166.032C4.29414 165.575 4.41924 165.125 4.5746 164.685C7.15405 158.57 9.78074 152.459 12.2995 146.35C12.7467 145.25 12.9165 144.029 13.281 142.91C13.9724 140.836 14.6957 138.801 15.41 136.729C15.9911 135.077 16.7151 133.439 17.1895 131.766C19.0105 125.326 21.5226 119.103 24.6826 113.205C25.6493 111.337 26.5077 109.415 27.253 107.448C28.696 103.558 29.848 99.5579 31.419 95.7153C32.9893 91.8723 34.8068 88.4841 36.7145 84.4922C36.9141 85.2065 37.2177 85.7013 37.131 86.1254C36.2798 90.3813 35.3333 94.76 34.2179 99.0155C33.6635 101.174 32.6279 103.205 31.9066 105.347L27.2642 118.249C26.8991 119.236 26.4759 120.207 26.0867 121.191C24.6281 124.86 23.178 128.521 21.7369 132.175C21.569 132.687 21.4294 133.207 21.32 133.734L21.7248 133.903L27.5401 122.246C27.9827 124.122 28.2715 125.576 28.5844 127.032ZM27.6434 74.4944C27.9285 70.932 28.7261 67.4041 29.2381 63.85C29.6346 61.3174 29.942 58.7056 30.1869 56.1234C30.3735 54.1839 30.4304 52.2211 30.5351 50.2623C30.5367 49.9748 30.4804 49.6696 30.4583 49.3797C30.729 49.4396 30.9975 49.5243 31.2546 49.5956C32.5502 54.9958 33.4516 60.4837 33.951 66.015C33.9454 66.3647 33.9583 66.7143 33.9887 67.0622C34.6806 70.5126 34.6501 74.068 33.8999 77.5066C32.9373 83.187 31.5258 88.7814 29.6797 94.2386C28.4092 97.2023 26.9674 100.09 25.3605 102.885C24.172 105.286 23.0426 107.705 21.9338 110.148C21.385 111.312 20.8685 112.513 20.3308 113.689L19.9237 113.544L21.6058 106.063L25.6888 87.9265C26.6636 83.5028 27.3167 79.013 27.6434 74.4944ZM24.2481 69.9524C24.8765 70.4409 25.4046 70.8367 26.111 71.3921L25.4746 77.6473C23.2133 75.1754 24.2048 72.5646 24.2481 69.9524ZM26.0376 69.1421C25.5795 67.0364 24.4669 64.9922 25.4051 62.7126C25.5885 64.805 27.2651 66.8401 26.0376 69.1421ZM33.1839 117.007C33.2062 117.429 33.0526 117.931 33.2156 118.257C34.2365 120.114 33.2353 121.632 32.5137 123.246C31.7923 124.862 31.0443 126.102 30.3033 127.535L29.8748 127.497C29.8375 123.917 29.0531 120.367 29.7147 116.754C30.6844 118.917 30.3632 121.409 31.2739 123.554C31.423 123.559 31.5717 123.552 31.72 123.535C31.8348 123.257 31.9091 122.965 31.9422 122.667C31.8276 120.077 31.7023 117.473 31.5506 114.891C31.5267 114.329 31.4191 113.773 31.2317 113.243C30.9078 112.301 31.2797 111.639 31.948 110.752C32.6998 112.755 33.1171 114.868 33.1839 117.007ZM34.4222 108.73C34.5665 109.929 34.8168 111.112 35.1713 112.266C36.0256 114.239 35.2417 115.884 34.2341 117.606L33.2297 106.379L33.7428 106.281C34.0074 107.073 34.233 107.897 34.4222 108.73ZM35.861 111.272L35.2917 105.869C35.2112 105.165 35.0938 104.471 35.0908 103.834C34.9949 103.359 34.998 102.869 35.1009 102.395C37.048 96.5931 38.1746 90.5465 38.4477 84.4325C38.4927 83.6685 38.2971 82.9064 38.2685 82.1598C38.2158 80.6192 38.1755 79.0675 38.1694 77.5312C38.1644 75.9946 38.6068 75.0746 37.4416 74.0217C37.0955 73.6059 37.2268 72.682 37.1761 72.0416L36.9055 69.3171C36.6336 67.0122 36.2034 64.7295 36.1238 62.4182C35.9093 59.8912 35.4389 57.3918 34.72 54.9595C33.6099 50.6128 32.8576 46.1822 32.4694 41.7127C32.4482 41.2142 32.355 40.7205 32.1935 40.2477C32.0978 39.9751 31.6737 39.625 31.5181 39.623C31.1224 39.6901 30.7631 39.896 30.5055 40.2041C30.272 40.3987 30.3606 40.8747 30.3156 41.2426C30.0693 43.2465 29.9597 45.266 29.9868 47.2853C29.9185 50.3136 29.6105 53.3309 29.0658 56.31C28.6979 58.9296 28.1046 61.5157 27.5252 64.6197C27.254 64.2252 27.0263 63.8019 26.8468 63.3587C26.6754 61.9774 26.3848 60.6149 25.9778 59.2844C25.4056 57.8352 25.3014 56.2445 25.6795 54.733C26.4089 51.3066 27.1961 47.8978 27.9484 44.4732C27.9707 44.2054 27.9659 43.9358 27.9367 43.6682C26.8689 44.34 26.8369 45.3568 26.602 46.2362C25.6072 49.8183 24.681 53.431 23.7341 57.0182C23.6435 57.0938 23.5892 57.2927 23.6025 57.414C24.1677 60.7288 23.0725 63.8221 22.8413 67.0537C22.6271 69.4347 22.5316 71.9575 22.2173 74.3778C21.9036 76.7975 21.3878 78.659 21.0216 80.8584C20.6019 83.7841 20.3015 86.7211 20.0369 89.6494C20.0095 90.5976 20.0643 91.5459 20.2016 92.4838C21.3807 91.9188 21.2398 91.0899 21.3167 90.3648L22.6812 77.7553C22.7069 77.4694 22.7562 77.1859 22.8362 76.7011C23.6808 77.7137 24.2875 78.4404 25.2035 79.3266C23.4049 90.879 21.0151 102.331 18.0432 113.638C17.347 111.765 17.1768 109.737 17.5516 107.774C17.9424 104.834 17.8467 101.849 17.2679 98.9405C17.0155 96.4209 16.9826 93.8844 17.1709 91.3591C17.3081 89.0435 17.7845 86.8185 18.0531 84.5021C18.5002 80.8703 18.8396 77.2417 19.313 73.588C20.0829 68.2332 20.7365 62.8439 21.8496 57.5563C22.5699 53.1077 23.9328 48.7882 25.897 44.7325C26.3417 43.845 26.6843 42.9093 26.9164 41.9447C27.9115 38.7842 29.2483 35.742 30.902 32.8711C30.8733 32.1245 30.8445 31.378 30.7835 30.4606L29.3002 29.8707C27.828 23.0422 26.3512 16.2609 24.8239 9.23497L27.082 7.35055C27.2714 7.82519 27.428 8.31242 27.5505 8.80867C28.1036 13.0587 28.4989 17.3306 29.2225 21.5476C29.7802 23.8048 30.4607 26.0292 31.2623 28.2118C31.5879 28.962 31.7273 29.7801 31.6686 30.5961C31.6093 31.4118 31.3542 32.2015 30.924 32.8974C31.0648 32.7587 31.2161 32.6315 31.3777 32.518C31.6079 32.4508 31.8414 32.3959 32.0766 32.353C32.5102 33.2681 32.9357 34.2788 33.4252 35.2345C33.8533 36.0958 34.335 36.9293 34.8686 37.7288C36.0581 39.444 37.2842 41.1509 38.549 42.8248C39.3503 43.785 40.1634 44.7579 40.9647 45.7181C41.1724 46.0632 41.3448 46.429 41.4788 46.8087L41.5651 46.9123C43.6858 47.3437 44.7654 49.2165 46.1168 50.5989C48.016 52.558 49.7166 54.7273 51.3806 56.905C54.5322 60.6817 57.6843 64.4576 60.5264 68.4698C62.3479 70.8958 63.8795 73.5268 65.0886 76.309C68.3323 84.1255 71.3011 92.0613 74.4471 100.157C73.1777 99.5629 72.1113 98.6065 71.3828 97.4085C68.2507 93.4184 65.304 89.4928 62.2645 85.5349C61.6589 84.808 61.2857 84.1502 61.7801 83.055C62.027 82.5856 61.8381 81.8842 61.844 81.2848L62.2532 81.1416C62.8123 82.1278 63.3321 83.1466 63.9515 84.1268C64.5719 85.1068 65.2149 85.9567 65.8843 86.9173C66.9012 86.4205 66.7079 85.7674 66.2988 85.1185C64.8731 82.8298 63.521 80.5239 62.0165 78.3004C59.0032 73.7925 55.8488 69.3806 52.8844 64.8532C50.9539 61.9065 49.2632 58.8265 47.4087 55.8389C45.7194 52.7367 43.7652 49.7865 41.5678 47.0206L41.5135 46.956L41.201 49.2196C43.4204 51.5838 45.2247 54.3062 46.5354 57.273C48.7587 61.5111 51.3323 65.5567 54.2303 69.3663C55.5183 70.9105 55.0196 72.3175 54.4739 74.248C53.5991 73.1609 52.7804 72.0292 52.0196 70.8589C50.9903 69.0984 50.1876 67.2142 49.1453 65.4643C47.531 62.7389 45.7631 60.1195 44.1358 57.4047C43.2598 55.9332 42.5534 54.322 41.7558 52.7861C41.1727 51.6656 40.5636 50.5663 39.9675 49.4565C38.7524 47.2349 37.6114 44.9722 36.3204 42.7915C35.6116 41.6001 35.1851 41.6697 34.3529 42.5183C35.0979 45.8379 35.8706 48.9795 36.4725 52.1533C37.1982 55.951 37.8203 59.835 38.4814 63.687C38.8745 65.0526 38.853 66.5046 38.4178 67.8575C38.3411 68.0868 38.3152 68.3299 38.3414 68.5703C38.3676 68.8107 38.4449 69.0429 38.5678 69.2504C40.5007 72.0409 40.9232 75.3431 41.3914 78.9376C39.9836 78.1749 40.515 76.6746 39.3546 75.838C40.2888 87.7627 39.1059 99.7592 35.861 111.272ZM44.1328 123.082C43.9489 122.861 43.5547 122.706 43.6024 122.446C43.4498 121.034 43.39 119.613 43.4217 118.194C43.5427 113.497 43.1657 108.801 42.2957 104.183C42.1532 103.095 42.1195 101.994 42.1957 100.898C43.9487 107.112 44.9591 113.511 45.206 119.962C44.2198 120.521 44.573 121.393 44.6796 122.207L45.9773 121.124L45.9237 124.647C45.8756 125.132 45.8636 125.621 45.8882 126.107C46.5426 132.167 46.7959 138.142 47.1059 144.158C47.1649 145.231 46.7284 146.344 46.7038 147.422C46.718 148.533 46.7985 149.642 46.9441 150.743C46.1622 149.175 45.7591 147.445 45.7675 145.693C45.7691 143.924 45.6271 142.157 45.3436 140.411C44.2007 140.572 43.8076 141.209 43.8986 141.925C44.2289 143.721 44.0618 145.574 43.4158 147.282C43.3664 147.488 43.3849 147.704 43.4682 147.898C43.7595 149.193 44.1842 150.454 44.7378 151.66C46.1631 154.213 46.1441 157.092 46.7995 159.803C47.4556 162.514 47.4833 165.264 48.6952 167.798C48.9775 168.399 48.7572 169.244 48.7926 169.918C49.4834 170.758 50.0767 171.673 50.5625 172.646C51.3932 175.013 52.0355 177.471 52.7173 179.897C52.7534 180.055 52.7539 180.22 52.7189 180.378C52.684 180.537 52.614 180.685 52.5148 180.814C51.6711 181.519 51.916 182.261 52.4515 182.848C55.2709 185.91 55.9576 189.873 56.8401 193.672C58.3595 200.109 59.6091 206.618 60.9448 213.099C61.0804 213.646 61.1707 214.205 61.2148 214.767C61.6884 220.442 62.4945 226.084 63.6284 231.665C64.1953 234.705 64.2956 237.813 63.9257 240.884C63.3702 239.718 62.7764 238.585 62.2584 237.409C61.7406 236.235 61.5879 235.393 61.0938 234.484C59.3824 231.003 58.0351 227.355 57.0711 223.598C56.3901 220.495 55.3525 217.483 53.9803 214.619C53.4403 213.473 53.058 212.26 52.8414 211.012C51.6212 206.307 50.449 201.604 49.2421 196.887C47.733 191.6 46.5862 186.217 45.81 180.774C45.2239 175.957 44.783 171.129 44.4027 166.295C44.2868 164.916 45.0104 163.41 44.6679 162.155C44.1745 160.898 43.7854 159.603 43.5047 158.282C43.1428 154.709 42.5639 151.141 42.503 147.559C42.4086 142.75 41.9481 137.873 43.4872 133.176C43.6031 132.916 43.6459 132.629 43.6098 132.347C42.8828 129.273 43.0638 126.054 44.1328 123.082ZM5.4942 211.474C6.59509 207.12 7.74276 202.772 8.87957 198.41C10.3048 193.616 12.1341 188.952 14.3483 184.466C15.0676 182.875 15.6269 181.198 16.312 179.592C18.2069 174.506 19.7969 169.311 21.0736 164.037C22.1991 160.108 23.87 156.356 26.038 152.891C27.3417 150.813 29.0653 149 30.5715 147.06C32.9192 143.978 34.9257 140.65 36.5544 137.135C37.939 134.284 39.1401 131.344 40.3673 128.514C40.5315 128.158 40.7301 127.815 41.1342 127.06C41.2493 127.586 41.3339 128.118 41.3868 128.654C41.3958 129.087 41.1882 129.524 41.2725 129.916C42.0722 133.828 40.1968 137.199 39.1213 140.738C37.8459 144.908 36.6396 149.107 35.4328 153.307C34.6759 155.986 33.9656 158.67 33.1547 161.813C32.9273 161.317 32.7528 160.799 32.6335 160.266C32.6091 159.077 32.495 157.891 32.2933 156.719C31.8372 154.564 32.1846 152.316 33.2708 150.399C34.7834 146.935 36.4249 143.627 38.0025 140.242C38.0931 140.033 38.0128 139.726 38.0188 139.127C37.6241 139.371 37.2658 139.671 36.9546 140.015C35.6283 142.487 34.3229 144.986 33.0174 147.484C32.4388 148.584 31.8467 149.695 31.2192 150.791C29.5384 153.735 29.4286 157.217 28.1218 160.268C27.1238 162.819 26.2602 165.421 25.5347 168.062C25.3499 168.512 25.1302 168.945 24.8777 169.359C24.7008 169.727 24.331 170.102 24.3727 170.441C24.6255 172.697 23.4018 174.554 22.5548 176.362C21.5786 178.543 20.7061 180.768 19.7292 182.948C19.219 184.078 18.5731 185.123 17.9787 186.258C19.1332 187.034 19.3325 187.088 19.9501 185.824C20.9463 183.825 21.7496 181.702 22.6202 179.632L24.6166 175.324C24.9685 175.779 25.2545 176.281 25.4659 176.817C26.0846 178.725 25.9581 180.797 25.1115 182.616C23.4693 185.66 21.8047 188.679 19.9352 191.583C18.7358 193.442 17.1805 195.114 15.8991 196.955C14.9741 198.267 14.1439 199.644 13.4159 201.075C12.484 202.887 11.67 204.734 10.8165 206.613C10.4315 207.288 9.9998 207.934 9.52607 208.549C8.59947 209.865 7.66552 211.173 6.72472 212.473C6.43622 212.815 6.12262 213.136 5.78616 213.432L5.4633 213.283C5.42404 212.68 5.43472 212.075 5.4942 211.474ZM80.0061 206.788C79.6448 206.54 79.2117 206.416 79.1487 206.183C78.6979 204.798 78.3067 203.407 77.8903 202.037C77.743 201.412 77.2315 200.562 78.298 200.31C79.3646 200.058 79.5685 200.857 79.6837 201.575C79.956 203.22 80.7793 204.866 80.0061 206.788ZM79.6022 119.257C79.1335 122.675 79.0228 126.132 79.2732 129.572C79.4337 131.111 79.654 132.667 79.7094 134.184C79.8232 138.252 80.2606 142.304 81.0169 146.302C82.0502 153.004 83.9849 159.537 86.7671 165.721C87.0846 166.416 87.5386 167.04 88.1019 167.557C88.6006 167.877 89.1536 168.101 89.7345 168.22C89.9287 167.662 90.3262 167.11 90.2916 166.566C90.1113 162.842 90.0039 159.1 89.5208 155.408C89.2217 153.606 89.1495 151.773 89.3044 149.953C89.7411 146.836 89.2886 143.736 90.3471 140.651C90.4114 140.464 90.3484 140.231 90.3548 140.027C90.3507 137.147 90.2507 134.258 90.4022 131.38C90.6245 127.451 91.0736 123.531 91.3583 119.574C91.5168 117.68 91.7124 115.778 91.7017 113.892C91.5843 111.433 91.742 108.967 92.1724 106.543C92.5206 104.816 92.7615 103.071 92.8954 101.315C93.1836 98.3892 93.4127 95.4458 93.6313 92.4894C93.798 90.6731 93.8711 88.849 93.8474 87.0248C93.7587 84.0168 93.5115 81.03 93.3621 78.0287C93.3621 78.0287 93.5568 77.8661 93.7773 77.6822C94.0261 78.0094 94.2438 78.3582 94.4274 78.7247C96.0254 82.5647 97.5971 86.4266 99.1285 90.213C101.134 94.7456 101.759 99.7694 100.923 104.655C100.324 107.973 100.019 111.354 99.416 114.72C98.812 118.085 97.7005 121.633 97.1082 125.144C96.5163 128.654 96.1664 132.667 95.7427 136.433C95.5258 138.309 95.4492 140.222 95.1027 142.075C94.2922 146.459 93.8628 150.906 93.8208 155.364C93.8568 156.716 94.0081 158.063 94.2743 159.389C94.5329 161.044 94.9867 162.67 95.256 164.337C95.9541 168.577 96.6156 172.824 97.266 177.059C97.4529 178.312 97.5666 179.582 97.8271 180.818C98.4553 183.706 99.143 186.588 99.8207 189.458C100.498 192.327 101.136 195.096 101.868 197.898C102.128 198.869 102.389 199.974 103.586 200.273C105.286 199.118 105.31 199.12 105.282 197.426C105.275 196.441 105.16 195.459 105.075 194.539C105.029 191.846 104.871 189.205 104.871 186.54C104.823 184.361 104.922 182.181 105.172 180.015C105.846 175.204 106.803 170.442 107.487 165.644C108.283 160.004 108.926 154.337 109.603 148.686C109.932 145.968 110.285 143.251 110.413 140.503C110.615 136.209 110.706 131.921 110.684 127.639C110.664 124.397 110.458 121.223 110.226 117.938C110.147 116.419 109.986 114.88 109.859 113.356L110.315 113.218C110.731 114.059 111.098 114.92 111.564 115.742C114.349 120.662 116.394 125.965 117.633 131.481C117.833 132.304 118.077 133.115 118.362 133.911C119.668 137.797 121.026 141.639 122.308 145.523C123.482 149.145 124.582 152.784 125.67 156.434C126.056 157.741 126.853 159.013 126.083 160.492C125.965 160.745 126.166 161.171 126.231 161.512C126.722 163.129 127.087 164.806 127.385 166.561C127.69 167.871 127.855 169.209 127.877 170.553C127.733 175.629 126.447 180.608 124.116 185.119C123.001 187.37 122.138 189.764 121.092 192.047C120.686 193.32 120.033 194.501 119.171 195.522C117.568 197.189 116.109 199.002 114.65 200.814C113.123 203.106 111.208 205.115 108.99 206.748C108.743 206.877 108.526 207.059 108.355 207.279C106.465 210 104.507 212.692 102.756 215.474C100.236 219.604 97.8501 223.841 95.4426 228.052C93.5319 231.407 91.6887 234.818 89.8129 238.189C89.4281 238.862 88.9979 239.507 88.6587 240.209C87.1614 243.242 85.8371 246.351 84.1579 249.271C83.205 250.926 82.6826 252.99 80.6796 253.914C80.4586 254.098 80.2793 254.49 80.1198 254.799C79.3311 256.361 78.5292 257.932 77.7965 259.534C77.4662 260.06 77.2868 260.667 77.2792 261.287C77.39 262.122 77.1984 262.969 76.7397 263.675C76.5452 264.101 76.6735 264.677 76.6391 265.19C77.1709 265.254 77.71 265.241 78.2384 265.154C78.6055 264.949 78.931 264.677 79.1987 264.353C81.366 262.544 83.5197 260.746 85.687 258.937C86.9507 258.18 88.171 257.352 89.3424 256.459C91.3623 254.509 93.1188 252.303 94.5657 249.897C97.8074 244.608 101.784 239.808 106.375 235.637C106.647 235.41 106.92 235.182 107.258 235.032C109.695 233.152 112.288 231.406 114.574 229.344C120.16 224.066 124.7 217.782 127.956 210.821L128.259 210.26C130.45 206.076 132.19 201.672 133.45 197.12C133.587 196.677 133.744 196.258 134.017 195.503C134.24 195.891 134.437 196.293 134.604 196.709C135.431 199.915 136.282 203.123 137.049 206.337C137.815 209.55 138.428 213.266 139.493 216.625C140.822 220.551 142.771 224.239 145.265 227.55C145.779 228.217 146.209 228.945 146.546 229.717C147.918 233.129 149.327 236.532 150.527 240C151.913 243.837 153.874 247.441 156.344 250.688C156.891 251.333 157.371 252.032 157.776 252.774C159.854 257.091 161.525 261.592 162.768 266.22C163.587 269.258 164.833 272.202 165.881 275.225C165.938 275.42 166.035 275.602 166.165 275.758C166.296 275.915 166.456 276.043 166.639 276.135C166.82 276.227 167.019 276.28 167.222 276.292C167.426 276.304 167.63 276.273 167.821 276.203C168.671 275.956 168.564 275.143 168.566 274.458C168.598 273.045 168.616 271.643 168.753 270.251C169.062 266.955 169.67 263.674 169.726 260.391C169.786 256.532 169.402 252.669 169.162 248.796C169.06 245.489 168.669 242.198 167.997 238.958C167.171 235.752 166.007 232.642 164.525 229.681C161.707 223.667 159.051 217.584 156.382 211.511C155.465 209.437 154.734 207.295 153.845 205.043C154.755 205.737 155.573 206.374 156.381 206.999C159.646 209.215 162.596 211.863 165.152 214.869C166.447 216.46 167.891 217.924 169.462 219.242C169.719 219.453 170.018 219.606 170.34 219.691C170.662 219.776 170.998 219.79 171.326 219.734C172.105 219.48 171.98 218.593 171.815 217.894C171.707 217.335 171.539 216.789 171.314 216.265C169.463 212.702 167.675 209.109 165.666 205.568C164.559 203.608 163.033 201.886 161.827 199.965C160.011 197.078 158.377 194.171 156.723 191.214C156.561 191.019 156.5 190.762 156.236 190.234L157.463 190.596C159.67 191.524 161.969 192.218 164.32 192.666C164.867 192.777 165.385 192.995 165.847 193.308C166.704 193.781 167.486 194.427 168.363 194.818C171.772 196.525 174.997 198.577 177.987 200.942C180.248 202.577 182.548 204.173 184.888 205.728C189.075 208.608 192.816 212.087 195.994 216.053C197.077 217.35 198.413 218.635 198.302 220.533C200.099 221.103 200.698 220.977 200.637 219.927C200.545 217.103 199.925 214.319 198.808 211.722C197.188 208.509 195.031 205.597 192.432 203.108C190.86 201.48 189.66 199.529 188.916 197.391C187.786 193.965 185.736 190.915 182.99 188.576C179.742 186.003 176.493 183.431 173.042 181.115C170.253 179.172 167.27 177.523 164.201 175.615C167.356 175.359 170.169 175.037 173.017 174.861C178.542 174.544 183.302 172.068 188.019 169.518C191.831 167.23 195.865 165.339 200.061 163.87C202.815 163.003 205.495 161.888 208.171 160.821C208.706 160.617 209.519 159.982 209.469 159.738C209.248 159.044 208.833 158.428 208.273 157.962C207.824 157.621 207.304 157.386 206.751 157.273C205.183 156.848 203.535 156.811 201.949 157.164C198.9 157.705 195.797 158.314 192.677 158.717C187.223 159.347 181.848 160.535 176.637 162.263C171.812 163.924 166.731 164.713 161.63 164.595C156.779 164.362 151.966 163.603 147.278 162.33C144.917 161.919 142.624 161.18 140.468 160.132C139.568 159.607 138.509 159.368 137.554 158.909C136.99 158.65 136.489 158.273 136.082 157.805C132.02 152.674 130.258 146.527 128.197 139.969C129.024 140.512 129.479 140.793 129.894 141.107C132.411 143.013 134.912 144.955 137.453 146.84C140.243 148.915 143.084 150.947 145.81 152.921C146.44 153.386 147.003 153.928 147.664 154.324C148.881 155.07 149.486 154.74 149.611 153.359C149.651 152.907 149.846 152.481 149.876 152.015C149.906 151.55 150.028 150.853 149.788 150.46C148.913 148.989 147.868 147.527 146.833 146.101C145.797 144.676 144.862 143.739 144.055 142.431C140.517 136.82 137.052 131.191 133.564 125.561C133.184 125.107 133.073 124.473 132.621 123.508L133.703 124.145C137.525 126.482 140.475 129.832 143.92 132.614C146.101 134.519 148.413 136.268 150.841 137.846C152.9 139.055 154.862 140.42 156.713 141.928C158.544 143.594 160.688 144.88 163.02 145.712C165.254 146.357 167.473 147.037 169.698 147.646C173.373 148.673 177.038 149.688 180.72 150.643C184.049 151.614 187.58 151.658 190.933 150.772C191.594 150.548 192.299 150.488 192.988 150.597C193.758 150.728 194.548 150.654 195.279 150.38C196.01 150.106 196.655 149.644 197.149 149.04C198.252 148.119 197.909 146.732 196.486 146.268C195.414 145.95 194.309 145.75 193.193 145.671C191.367 145.661 189.561 145.29 187.879 144.58C186.489 143.891 185.099 143.202 183.82 142.354C182.451 141.587 181.137 140.727 179.887 139.78C176.613 137.097 173.444 134.303 170.168 131.644C166.892 128.984 163.856 126.719 160.679 124.153C155.711 120.076 150.075 116.893 144.019 114.743C141.962 113.993 139.95 113.14 137.892 112.415C136.706 111.996 135.44 111.798 134.234 111.461C131.81 111.006 129.509 110.047 127.48 108.644C126.23 107.606 124.887 106.686 123.468 105.895C121.64 104.981 119.969 103.781 118.52 102.341C117.09 101.12 115.778 99.768 114.599 98.3032C112.352 95.056 109.911 91.947 107.29 88.9924C106.646 88.0876 106.106 87.1133 105.68 86.0877C105.364 85.471 105.211 84.7613 104.934 84.1119C103.533 80.8775 102.107 77.665 100.694 74.4418C100.627 74.1851 100.578 73.9238 100.548 73.6605C101.042 73.8147 101.522 74.0107 101.983 74.2457C104.568 75.7868 107.206 77.2846 109.719 78.951C113.955 81.7569 118.095 84.686 122.278 87.5349C123.149 88.132 124.07 88.6527 125.03 89.0911C128.866 90.8648 132.821 92.3852 136.528 94.3992C139.096 95.9073 141.875 97.0232 144.774 97.7107C150.63 98.8981 156.531 99.8743 162.412 100.932C163.581 101.146 164.749 101.491 165.929 101.585C169.362 101.847 172.866 101.982 176.241 102.202C178.356 102.309 180.463 102.355 182.561 102.388C183.519 102.402 184.101 101.807 183.718 101.136C182.796 99.5049 182.535 97.4776 180.725 96.3903C179.948 95.7833 179.209 95.1274 178.514 94.427C176.163 92.3497 173.673 90.4333 171.063 88.6915C167.915 86.9914 164.658 85.503 161.312 84.2367C158.258 82.9774 155.088 82.0557 152.025 80.7594C146.882 78.4481 141.828 76.0605 136.782 73.4697C133.649 71.6749 130.417 70.0577 127.102 68.6254C124.862 67.7875 122.731 66.6593 120.517 65.7999C118.21 64.743 115.797 63.9381 113.317 63.3991C108.729 62.6072 104.227 61.3819 99.8706 59.7392C94.8221 58.0228 90.5629 54.5407 87.8775 49.934C87.4564 49.2006 86.9914 48.4935 86.4848 47.8167C83.0919 43.5145 79.6497 39.2323 76.2706 34.9198C73.9549 31.9872 71.7407 28.9914 69.4511 26.0372C68.9044 25.3436 68.13 24.8662 67.2649 24.6893C66.4004 24.5129 65.5008 24.648 64.726 25.0714C61.8967 27.4322 60.8052 31.822 63.7596 34.4645C65.0371 35.5996 66.3256 36.8796 67.5689 38.1317C68.8204 39.2751 69.9725 40.5231 71.0129 41.8623C72.7897 44.3866 74.3344 47.0815 75.9966 49.6795C76.7222 50.8129 77.4763 51.9009 78.215 53.0234C80.7457 56.8995 83.7678 60.5201 84.1982 65.4671C84.7353 67.8614 85.0538 70.3 85.1497 72.7529C84.7672 77.51 84.0808 82.238 83.0934 86.908C82.1362 91.6699 81.3563 96.4678 80.7524 101.301C79.9781 105.814 79.5944 110.384 79.6054 114.962C79.7143 116.396 79.7089 117.836 79.5895 119.269L79.6022 119.257ZM90.1367 115.684L90.2211 115.943C90.0045 118.744 89.7301 121.527 89.5871 124.31C89.3364 129.627 88.5245 134.907 88.6192 140.243C88.6736 143.236 88.1522 146.225 87.9084 149.203L87.3432 149.212C87.1576 146.747 86.9343 144.291 86.7594 141.839C86.5845 139.387 86.2932 137.429 86.2482 135.265C86.2458 132.624 86.3194 130.075 86.339 127.461C86.3589 124.847 86.264 122.57 86.2446 120.12C86.2305 119.075 86.1866 117.967 87.7689 117.858C87.3784 116.73 88.152 115.337 86.6599 114.842C86.7726 113.868 86.3451 112.749 87.4735 111.807C87.6995 112.763 87.9601 113.603 88.082 114.382C88.1072 114.614 88.1803 114.84 88.2969 115.042C88.4136 115.244 88.5709 115.421 88.7592 115.56C88.9479 115.699 89.1628 115.797 89.3906 115.848C89.6185 115.9 89.8554 115.903 90.0848 115.859L90.0912 115.655C89.5857 114.073 89.0909 112.505 88.6091 110.925C88.5334 110.835 88.8063 110.608 88.9053 110.436L88.8623 110.252C88.4977 109.499 88.0906 108.695 87.7461 107.991L88.2649 107.822C88.4564 108.632 88.671 109.443 88.8623 110.252C88.8623 110.252 88.9706 110.382 89.0138 110.434C90.6165 111.959 90.2304 113.843 90.1238 115.694L90.1367 115.684ZM90.5018 106.836C90.6845 107.476 90.4103 108.256 90.335 108.957L89.8025 109.005L88.2265 102.791L88.8499 102.535C89.4263 103.991 90.068 105.393 90.4888 106.847L90.5018 106.836ZM91.2358 104.022C89.8526 101.927 89.0638 99.4959 88.9533 96.9885C89.2073 97.6349 89.4845 98.2842 89.712 98.9526C89.9403 99.6214 90.1895 100.448 91.3497 100.36L91.2358 104.022ZM107.11 156.513C105.855 162.713 105.271 169.056 104.101 175.251C103.431 178.982 103.05 182.759 102.963 186.548C102.923 188.057 103.073 189.583 102.96 191.108C101.952 188.745 101.549 186.169 101.787 183.611C102.002 181.23 102.359 178.73 102.626 176.306C102.776 174.904 102.89 173.51 102.979 172.113C103.347 166.171 103.68 160.213 104.035 154.281C104.093 153.926 104.177 153.577 104.284 153.235C104.794 153.845 105.119 154.234 105.693 154.922C106.316 151.87 104.226 149.366 104.864 146.147C106.475 149.712 107.884 152.72 107.11 156.513ZM108.978 140.71C108.862 141.609 108.678 142.5 108.426 143.372C108.426 143.372 108.501 143.463 108.545 143.515C108.67 145.272 108.454 147.038 107.909 148.713C106.064 145.715 105.287 142.181 105.704 138.686C106.222 139.993 106.678 141.198 107.157 142.406C107.424 143.042 107.647 143.757 108.513 143.475L108.536 143.346C107.627 140.516 106.716 137.71 105.846 134.847C105.5 133.837 105.49 132.742 105.816 131.724C106.564 132.649 107.06 133.753 107.255 134.927C107.422 135.602 107.455 136.564 107.921 136.858C109.354 137.995 109.076 139.351 108.978 140.71ZM103.561 131.581C103.293 134.821 103.399 138.035 103.36 141.26C103.328 142.805 103.958 144.481 102.21 145.631C102.015 145.794 102.053 146.578 102.22 146.988C102.729 148.242 102.912 149.605 102.751 150.948C102.462 154.955 102.172 158.961 101.992 162.965C101.811 166.969 101.819 171.013 101.519 175.138C101.41 177.145 100.979 179.134 100.663 181.445C100.394 180.965 100.153 180.835 100.22 180.625C100.258 175.552 98.7002 170.732 97.8959 165.811C96.8638 160.771 96.4489 155.624 96.6608 150.484C96.8453 148.437 97.3198 146.367 97.5604 144.36C98.1583 139.459 98.7044 134.599 99.341 129.665C99.8107 126.719 100.483 123.779 101.009 120.743C101.705 116.881 102.353 113.016 103.279 109.14C103.554 112.608 103.635 116.107 104.074 119.483C104.757 123.625 103.934 127.571 103.612 131.538L103.561 131.581ZM107.141 105.035C107.625 107.647 107.707 110.331 107.971 112.994C108.51 117.67 108.804 122.371 108.85 127.078C108.819 129.679 108.768 132.255 108.726 134.843L108.415 134.839C107.621 132.595 106.853 130.33 105.99 128.056C105.906 127.722 105.9 127.372 105.974 127.034C106.748 123.636 106.029 120.295 105.769 116.924C105.138 112.903 104.774 108.846 104.68 104.778C104.713 102.548 104.577 100.46 104.417 98.2377C104.245 94.9837 103.111 91.8532 101.16 89.2437C100.851 88.754 100.588 88.2362 100.375 87.697C98.3657 83.4963 96.3692 79.2838 94.3054 75.1499C92.9978 72.5227 92.0473 69.7335 91.4773 66.8551C91.8138 67.0748 92.1249 67.3324 92.4036 67.6222C94.1889 70.3152 95.9743 73.0082 97.708 75.7446C98.3491 76.7502 98.8003 77.871 99.3636 78.9417C100.675 81.4358 102.025 83.898 103.363 86.3707C103.913 87.4518 104.842 88.46 104.112 89.906C103.924 90.2608 104.145 90.8689 104.259 91.3471C105.238 95.9233 106.343 100.439 107.192 104.992L107.141 105.035ZM122.243 208.698C122.626 210.581 122.969 212.496 123.325 214.4C123.532 215.438 122.913 216.043 122.15 216.79C121.758 213.683 121.496 210.732 121.169 207.702L121.636 207.576C121.885 207.923 122.089 208.3 122.243 208.698ZM130.928 195.681C130.536 197.374 129.875 198.982 129.348 200.566L129.42 201.365L127.854 204.632L127.874 204.814L127.795 204.878C127.011 207.885 125.777 210.755 124.136 213.393C123.936 212.415 123.752 211.798 123.688 211.169C123.713 208.633 123.507 206.1 123.074 203.601C122.998 203.378 123.329 203.036 123.578 202.543C124.839 204.528 123.919 206.882 125.312 208.603C126.032 205.404 125.009 202.252 125.1 199.092L125.566 198.99C125.779 199.957 125.974 200.85 126.23 201.869C126.487 202.889 126.55 203.651 126.782 204.535C127.014 205.42 127.378 205.117 127.848 204.968L127.952 204.881C127.734 203.433 127.529 201.975 127.335 200.529C127.142 199.084 126.868 197.595 126.709 196.165C126.676 195.862 126.836 195.552 127.312 195.199C127.562 196.553 127.875 197.877 128.053 199.225C128.042 199.681 128.164 200.129 128.404 200.515C128.644 200.901 128.992 201.209 129.405 201.4C129.286 201.257 129.214 200.987 129.264 200.835L129.348 200.566C129.219 198.935 129.101 197.316 128.924 195.68C128.826 194.639 128.583 193.61 128.511 192.547C128.572 192.139 128.692 191.74 128.869 191.367L129.298 191.406C129.53 192.291 129.771 193.212 129.971 194.059C130.096 194.082 130.224 194.093 130.352 194.093C130.534 193.712 130.664 193.307 130.735 192.892C130.739 191.788 130.69 190.728 130.582 189.541C130.584 188.812 130.744 188.092 131.049 187.43C131.356 186.768 131.801 186.179 132.355 185.705C132.494 186.162 132.687 186.419 132.631 186.642C132.136 189.609 131.571 192.679 130.906 195.655L130.928 195.681ZM165.517 235.987C167.059 241.407 167.766 247.031 167.614 252.664C167.681 255.383 167.835 258.204 167.848 260.858C167.762 264.077 167.402 267.262 167.109 270.523L166.524 270.614C165.877 269.198 165.323 267.741 164.865 266.253C163.204 259.613 160.792 253.183 157.676 247.088C157.167 246.082 156.394 245.209 155.912 244.158C154.811 241.73 153.779 239.333 152.846 236.765C151.251 232.313 149.212 228.033 146.762 223.989C145.775 222.132 144.91 220.215 144.171 218.247C143.956 217.728 143.775 217.194 143.631 216.65C142.92 214.294 142.27 211.907 141.531 209.597C140.791 207.286 140.077 204.822 139.142 202.541C137.955 199.742 137.19 196.781 136.874 193.756C136.702 191.809 136.2 189.916 135.882 187.979C135.828 187.464 135.814 186.944 135.842 186.428C136.304 186.677 136.707 187.021 137.027 187.436C137.347 187.852 137.577 188.33 137.701 188.839C139.956 193.914 142.059 199.072 144.476 204.078C146.227 207.68 148.507 211.017 150.345 214.591C151.396 216.642 152.045 218.896 152.895 221.049C153.521 222.833 154.245 224.58 155.063 226.285C157.108 230.327 158.708 234.58 159.836 238.967C160.466 241.436 161.097 243.881 161.573 246.324C162.049 248.767 162.444 250.77 162.933 252.938C163.116 253.843 163.38 254.767 163.567 255.624C163.988 257.474 164.522 259.406 164.972 261.342C165.155 261.907 165.374 262.46 165.627 262.997C165.995 262.652 166.255 262.208 166.374 261.717C166.493 261.227 166.465 260.713 166.296 260.237C165.427 256.559 164.558 252.881 163.69 249.202C162.607 244.977 161.316 240.792 160.245 236.556C158.422 229.096 154.921 222.264 152.336 215.13C151.427 213.067 150.341 211.086 149.09 209.21C147.726 206.759 146.301 204.338 145.002 201.833C143.478 198.9 142.083 195.882 140.648 192.896C140.529 192.595 140.432 192.286 140.359 191.971L140.692 191.869C141.542 193.225 142.483 194.52 143.511 195.747C144.718 197.017 146.035 198.18 147.446 199.221C148.834 200.305 149.975 201.672 150.793 203.231C155.078 211.502 158.939 219.984 162.362 228.646C163.533 230.972 164.755 233.386 165.517 235.987ZM136.35 176.669C136.74 177.136 136.245 178.496 136.029 179.424C135.759 180.504 135.426 181.568 135.034 182.611C134.709 183.412 134.342 184.196 133.935 184.959C133.411 183.974 133.1 182.891 133.02 181.777C132.94 180.665 133.095 179.548 133.473 178.498L134.658 178.389C135.361 177.252 134.848 176.162 134.743 175.06C134.638 173.959 134.036 173.053 135.011 171.82C135.187 172.4 135.239 172.753 135.377 173.077C135.815 174.209 135.399 175.504 136.393 176.589L136.35 176.669ZM160.358 200.421C162.241 203.363 164.314 206.19 166.299 209.069C168.084 211.423 169.33 214.141 169.949 217.03C169.605 216.841 169.279 216.619 168.977 216.366C167.179 214.476 165.431 212.567 163.634 210.677C162.94 209.888 162.183 209.157 161.371 208.493C156.493 204.689 151.998 200.417 147.952 195.739C147.805 195.497 147.623 195.278 147.41 195.09C143.984 193.017 142.004 189.695 139.755 186.552C138.926 185.55 138.304 184.392 137.926 183.147C137.865 182.545 137.883 181.938 137.981 181.34L138.392 181.305C138.836 181.837 139.192 182.421 139.547 183.005C141.419 185.644 143.744 187.93 146.415 189.756C147.77 190.827 148.838 192.291 150.149 193.465C152.892 195.984 155.455 198.693 157.818 201.572C157.894 201.663 158.063 201.655 158.426 201.747C158.322 201.376 158.195 201.011 158.045 200.657C156.163 196.767 152.63 194.168 149.976 190.989C148.33 189.165 146.51 187.506 144.542 186.036C143.308 185.228 142.343 184.072 141.769 182.714C143.302 183.811 144.794 184.966 146.396 185.963C147.617 186.761 148.915 187.433 150.272 187.968C152.296 188.635 154.021 189.993 155.146 191.803C156.947 194.593 158.538 197.581 160.358 200.421ZM163.128 189.787C158.844 188.057 154.564 186.278 150.241 184.581C146.098 183.23 142.494 180.593 139.951 177.054L140.407 173.854C141.981 175.105 143.618 176.274 145.312 177.357C147.49 178.621 149.809 179.658 152.084 180.775C154.638 182.077 157.225 183.338 159.844 184.559C160.417 184.822 160.931 185.199 161.353 185.668C161.775 186.138 162.096 186.689 162.297 187.288C162.662 188.094 163.09 188.871 163.576 189.61C163.42 189.741 163.264 189.871 163.128 189.787ZM167.134 191.948C166.376 191.567 165.813 191.288 165.597 191.161L163.645 186.185C165.51 186.521 165.343 187.982 165.887 188.871C166.624 189.751 167.04 190.854 167.068 192.002L167.134 191.948ZM171.249 194.215C170.349 193.821 169.479 193.491 168.524 193.033C169.639 190.781 167.101 189.509 167.416 187.353C168.996 189.345 170.379 191.488 171.543 193.749L171.249 194.215ZM168.593 182.275C171.566 183.884 174.278 185.932 176.638 188.352C177.874 189.676 179.412 190.726 180.765 191.952C182.109 193.088 183.387 194.301 184.59 195.585C185.475 196.569 186.204 197.683 186.752 198.888C188.814 203.217 191.63 207.143 195.068 210.485C196.228 211.578 197.044 212.987 197.414 214.537L197.036 214.743C196.514 214.283 196.037 213.774 195.613 213.223C193.214 209.611 189.627 207.211 186.29 204.69C182.953 202.169 179.252 199.556 175.712 197.029C174.731 196.328 173.692 195.743 172.715 195.127C172.93 192.746 171.314 191.232 170.631 189.094C171.454 189.157 171.96 189.263 172.333 190.052C173.065 191.642 173.928 193.124 174.738 194.649C174.954 194.938 175.186 195.215 175.432 195.479C175.691 195.263 175.924 195.068 175.844 194.893C175.054 191.809 174.234 188.796 170.928 187.262C168.653 186.154 166.285 185.25 163.851 184.559C161.722 183.897 159.658 183.04 157.686 182C153.908 180.111 150.119 178.21 146.452 176.163C145.258 175.456 144.102 174.687 142.987 173.859L143.062 173.422C143.468 173.326 143.937 173.045 144.275 173.159C145.61 173.619 146.92 174.15 148.199 174.749C150.728 175.8 153.371 176.549 156.074 176.983C157.927 177.418 159.732 178.035 161.464 178.824C163.892 179.814 166.259 180.949 168.55 182.223L168.593 182.275ZM175.453 169.945C176.989 169.807 177.369 171.186 178.605 171.981C176.79 172.418 176.521 172.201 175.43 169.919L175.453 169.945ZM138.105 162.655C139.486 163.604 140.816 164.625 142.089 165.714C142.167 165.517 142.37 165.127 142.679 164.495C144.891 164.851 147.287 165.295 149.62 165.769C152.294 166.333 154.951 167.065 157.672 167.503C161.461 167.946 165.298 167.677 168.988 166.71C175.196 165.47 181.371 164.058 187.607 162.64C188.648 162.41 189.622 161.993 190.634 161.676C195.515 160.306 200.54 159.518 205.606 159.33C205.828 159.314 206.051 159.349 206.257 159.433C206.464 159.515 206.649 159.645 206.799 159.809C205.304 160.287 203.815 160.825 202.342 161.328C196.707 163.196 191.287 165.661 186.175 168.679L185.063 169.299C183.086 170.333 183.14 170.265 181.576 168.708C180.926 168.062 180.311 166.902 178.649 167.629C179.559 168.718 180.361 169.679 181.129 170.601C180.743 171.43 180.113 171.625 179.773 171.006C178.377 168.517 176.148 168.748 173.809 169.137C170.135 169.708 166.414 169.931 162.697 169.803C162.417 169.835 162.135 169.849 161.853 169.847C155.653 169.012 149.365 168.734 143.322 166.953C142.234 166.623 141.167 166.226 140.129 165.765C139.447 165.476 139.053 165.585 138.969 166.513C142.565 168.507 146.556 169.687 150.658 169.967C153.394 170.237 156.106 170.637 158.841 170.776C161.986 170.903 165.163 170.805 168.32 170.79C169.239 170.789 170.157 170.715 171.064 170.569C171.859 170.382 172.694 170.488 173.416 170.869C174.139 171.249 174.699 171.878 174.994 172.639C173.287 173.054 171.559 173.379 169.818 173.613C167.303 173.819 164.769 173.842 162.237 173.841C161.261 173.842 160.288 173.722 159.341 173.485C158.248 173.23 157.328 173.712 156.325 173.801C154.57 173.899 152.809 173.745 151.098 173.342C148.016 172.656 144.994 171.832 141.933 170.908C141.233 170.585 140.58 170.166 139.993 169.666C140.044 168.698 140.284 167.639 138.961 167.268C137.639 166.897 137.327 167.289 137.12 168.387C137.077 168.943 137.087 169.502 137.15 170.057C137.239 171.447 137.138 172.843 136.848 174.206C136.802 173.265 136.588 172.339 136.218 171.473C135.271 169.957 134.861 168.165 135.056 166.389C135.077 165.622 134.886 164.945 133.714 165.307C133.568 167.058 133.455 168.848 133.246 170.629C133.055 172.633 132.764 174.624 132.372 176.598C131.776 179.558 131.02 182.482 130.107 185.359C129.248 187.73 128.237 190.044 127.082 192.287C125.22 196.043 123.318 199.831 121.523 203.641C120.317 206.233 119.33 208.928 118.179 211.584C117.647 212.821 116.991 213.985 116.472 215.21C115.209 218.181 112.433 219.418 109.941 220.97C108.872 221.642 107.633 222.082 107.619 223.701L105.346 223.616C105.219 223.965 105.026 224.236 105.052 224.478C105.182 225.07 105.126 225.688 104.89 226.247C104.655 226.805 104.253 227.278 103.739 227.6C103.619 227.665 103.514 227.753 103.428 227.859C100.618 232.406 96.8581 236.315 94.4879 241.178C93.2645 243.696 91.7755 246.106 90.4724 248.581C90.0782 249.431 89.7423 250.306 89.4683 251.202C89.5546 251.305 89.6522 251.422 89.8534 251.453C90.1256 251.225 90.6347 251.175 90.803 250.902C93.0313 247.083 95.6775 243.553 97.317 239.345C97.7689 238.388 98.3541 237.499 99.0548 236.706C100.754 234.539 102.456 232.384 104.162 230.241C104.405 229.928 104.771 229.732 105.191 229.206L105.707 232.805C105.873 232.82 106.037 232.859 106.215 232.886C106.453 232.542 106.633 232.161 106.749 231.759C106.886 230.499 106.844 229.235 106.994 227.965C107.138 227.24 107.339 226.528 107.595 225.835C108.851 227.34 107.37 229.127 108.925 230.383C109.2 230.035 109.407 229.639 109.534 229.214C109.671 227.822 109.703 226.409 109.806 225.002C109.87 224.024 109.88 222.981 111.431 222.676L111.582 226.206C112.553 226.342 112.71 225.792 112.775 225.21C112.921 224.169 112.972 223.117 112.927 222.067C112.862 221.305 112.97 220.775 113.633 220.487C116.291 219.347 117.288 216.952 118.233 214.445C118.68 213.346 119.08 212.241 119.524 211.166L119.973 211.254L121.405 218.667C120.463 220.174 119.426 221.62 118.302 222.996C115.398 226.476 112.02 229.532 108.268 232.076C105.854 233.647 103.588 235.435 101.498 237.417C101.384 237.492 101.28 237.579 101.187 237.678C98.4998 241.395 95.7241 245.033 93.1539 248.786C91.1872 251.705 89.4773 254.563 86.3431 256.452C84.4909 257.557 82.8174 258.954 80.7512 260.04C80.9369 259.501 81.173 258.98 81.4559 258.484C83.664 254.97 85.6223 251.305 87.3161 247.516C88.9587 244.208 90.8602 240.947 92.6669 237.678C92.8573 237.299 93.1275 236.963 93.2826 236.57C94.631 233.208 96.5 230.08 98.8224 227.301C100.208 225.099 101.467 222.82 102.593 220.476C105.024 216.531 107.47 212.575 110.171 208.823C111.58 207.252 113.096 205.78 114.708 204.42C115.887 203.194 116.903 201.773 117.904 200.519L121.48 196.126C124.382 192.306 126.708 188.08 128.383 183.583C129.602 180.588 130.463 177.459 130.951 174.263C131.336 172.42 131.394 170.524 131.119 168.661C130.984 167.776 130.62 166.942 130.066 166.238C129.547 165.676 129.205 164.974 129.083 164.218C128.219 158.563 126.786 153.01 124.805 147.644C124.052 145.236 123.471 142.778 123.068 140.288C122.829 139.332 122.524 138.395 122.157 137.481C120.654 133.898 119.538 130.165 118.829 126.345C121 128.054 122.485 130.488 123.011 133.202C123.024 133.878 123.1 134.552 123.237 135.215C123.452 135.894 123.831 136.48 123.079 137.108C122.534 137.563 122.601 138.145 123.058 138.798C123.623 139.686 124.109 140.621 124.51 141.594C125.77 144.263 127.016 146.943 128.289 149.602C128.538 149.901 128.909 150.186 129.09 150.563C129.889 151.455 130.393 152.574 130.53 153.764C130.673 154.517 131.026 155.215 131.549 155.776C132.252 156.515 132.914 157.293 133.535 158.103C134.643 159.972 136.208 161.53 138.083 162.629L138.105 162.655ZM149.951 134.934C146.437 132.121 142.989 129.231 139.539 126.363C139.269 126.039 138.998 125.715 138.608 125.511L128.233 117.592C128.061 117.475 127.917 117.319 127.815 117.137C127.713 116.955 127.655 116.752 127.644 116.543C130.11 117.941 132.561 119.374 135.051 120.775C136.4 121.52 137.764 122.231 139.155 122.897C141.124 123.83 143.12 124.718 145.103 125.617C145.487 125.785 145.827 126.04 146.096 126.362C146.365 126.684 146.555 127.064 146.651 127.472C147.02 128.574 147.539 129.616 148.061 130.876C149.359 129.792 147.94 128.488 148.816 127.295C149.426 127.71 150.292 127.957 150.578 128.51C152.024 131.377 153.32 134.301 154.848 137.583C153.053 137.043 151.387 136.141 149.951 134.934ZM159.37 140.943L158.864 141.233C155.906 138.507 155.439 134.492 153.633 130.826C154.141 130.736 154.665 130.835 155.105 131.105C155.545 131.374 155.871 131.795 156.022 132.289C157.113 135.179 158.233 138.068 159.38 140.956L159.37 140.943ZM112.54 99.3174C113.067 99.8826 113.562 100.476 114.023 101.096C115.684 103.101 117.586 104.893 119.687 106.43C121.732 108.123 123.942 109.604 126.285 110.852C128.711 112.019 131.228 113.134 133.635 114.119C138.356 115.925 143.17 117.498 147.887 119.351C153.144 121.399 157.982 124.39 162.164 128.175C164.294 130.118 166.705 131.716 168.878 133.579C171.66 135.858 174.352 138.213 177.122 140.503C181.357 144.158 186.296 146.906 191.634 148.579C191.976 148.738 192.3 148.933 192.602 149.158C189.974 150 187.184 150.217 184.457 149.792C180.879 149.013 177.349 147.975 173.842 146.94C170.335 145.903 166.99 144.797 163.586 143.699C162.843 143.477 162.122 143.187 161.432 142.833C161.071 142.63 160.798 142.302 160.663 141.911C159.857 138.995 159.162 136.052 158.338 133.085C158.706 133.093 159.061 133.219 159.351 133.447C159.64 133.674 159.847 133.99 159.94 134.346C160.483 135.787 161.109 137.223 161.751 138.625C162.108 139.162 162.522 139.658 162.985 140.105C163.536 138.126 162.002 136.896 162.564 135.195L167.37 137.787C167.653 136.518 166.728 136.122 166.215 135.824C164.491 134.708 162.71 133.708 160.941 132.697C158.75 131.443 156.448 130.347 154.368 128.936C151.13 126.809 147.691 125.004 144.102 123.547C138.944 121.246 134.244 118.41 129.377 115.691C127.493 114.622 125.837 113.164 124.029 111.921C122.889 111.11 121.709 110.356 120.573 109.521C120.005 109.117 119.483 108.652 119.018 108.134C118.075 106.846 117.051 105.619 115.953 104.462C113.859 102.578 112.163 100.296 110.965 97.7477C111.481 98.2866 112.035 98.792 112.551 99.3304L112.54 99.3174ZM117.001 113.736C118.034 115.317 118.94 116.983 119.984 118.577C121.599 121.038 123.265 123.457 124.892 125.907C125.238 126.429 125.545 126.974 125.813 127.538C127.536 130.786 129.942 133.623 132.864 135.854C132.83 135.507 132.735 135.169 132.582 134.856C131.314 133.074 130.006 131.349 128.699 129.598C128.201 129.002 127.704 128.405 127.306 127.745C124.68 123.332 122.019 118.772 119.31 114.34C118.6 113.172 117.787 112.067 117.014 110.929C116.385 110.177 115.757 109.424 115.231 108.608L115.672 108.24C116.057 108.572 116.371 108.977 116.596 109.432C116.82 109.887 116.952 110.383 116.981 110.89L117.057 110.981C117.269 111.024 117.572 110.992 117.657 111.119C120.787 115.53 123.829 119.992 127.024 124.348C128.882 126.915 130.998 129.266 132.92 131.779C134.657 134.071 136.277 136.462 137.96 138.821C138.953 140.195 139.8 141.447 140.764 142.734C142.359 144.882 144.029 146.989 145.613 149.123C145.914 149.576 146.055 150.117 146.014 150.66C144.446 149.547 142.863 148.467 141.31 147.319C137.599 144.561 133.888 141.803 130.219 138.964C127.612 137.118 125.599 134.551 124.429 131.578C123.427 128.715 121.363 126.585 119.762 124.113C119.318 123.581 118.99 122.952 118.65 122.333C117.159 119.702 115.655 117.083 114.24 114.411C113.347 112.735 112.606 110.976 111.728 109.133C110.024 109.387 109.601 108.089 109.328 106.733C108.826 104.047 108.387 101.331 107.856 98.2952C109.453 99.7916 110.628 101.681 111.262 103.774C111.843 105.586 112.651 107.316 113.666 108.923C114.643 110.596 115.935 112.116 117.012 113.749L117.001 113.736ZM146.449 96.0255C145.977 95.8386 145.542 95.5678 145.165 95.2258C143.811 93.2539 142.896 91.0151 142.481 88.6598C144.647 90.5948 145.047 93.4749 146.784 95.6355L146.449 96.0255ZM148.038 95.5807C147.192 93.6442 146.383 91.6994 145.575 89.7547C145.434 89.5858 145.609 89.2417 145.634 88.8237C146.015 88.9901 146.372 89.0223 146.466 89.187C147.842 91.6271 149.183 94.0517 150.648 96.7038C149.397 96.8671 148.514 96.6795 148.07 95.6194L148.038 95.5807ZM114.598 68.0986C119.187 69.64 123.575 71.8114 128.073 73.6929C129 74.1921 129.959 74.6271 130.944 74.9959C135.572 76.2408 139.397 79.0817 143.555 81.2684C147.188 83.094 150.984 84.5773 154.892 85.698C158.248 86.8165 161.605 87.7793 164.971 88.9103C166.129 89.3487 167.245 89.8912 168.305 90.531C170.621 91.8555 172.852 93.3408 175.212 94.5856C177.596 96.1609 179.669 98.162 181.328 100.489C171.06 101.375 161.652 98.8355 152.207 97.2523L148.864 89.6068C150.043 90.5463 150.965 91.7685 151.543 93.1603C152.291 94.3198 153.026 95.4901 153.812 96.749C154.641 96.3436 154.6 95.872 154.239 95.2034C153.482 93.8994 152.847 92.5286 152.34 91.1082C153.586 91.8853 154.526 93.0673 155.003 94.4565C155.251 95.1748 155.534 95.7523 156.678 95.4351C156.212 94.2171 155.772 93.1097 155.148 91.5175C157.819 92.2381 159.912 92.8465 162.187 93.4356C162.515 92.5891 161.905 92.0422 161.102 91.7658C159.844 91.3404 158.535 91.0906 157.247 90.7345C155.433 90.223 153.61 89.6745 151.796 89.163C149.982 88.6515 148.313 88.1294 146.545 87.778C144.776 87.4265 142.404 87.2489 140.365 86.8371C139.335 86.6261 138.348 86.2452 137.443 85.7097C134.061 83.8209 130.723 81.852 127.395 79.896C124.974 78.6048 122.764 76.9533 120.84 74.997C119.302 73.575 117.517 72.4461 115.572 71.6664C112.225 70.0569 108.67 68.4885 105.182 66.9738C103.759 66.527 102.427 65.8255 101.253 64.9038C105.969 65.9648 110.393 66.6754 114.63 68.1374L114.598 68.0986ZM64.5417 30.8386C64.3131 30.2597 64.2944 29.6192 64.4879 29.0275C64.6815 28.4358 65.0757 27.9303 65.6021 27.5983C65.8277 27.499 66.0724 27.4505 66.3194 27.4563C66.5657 27.4616 66.8084 27.5213 67.0295 27.6304C67.2506 27.7395 67.4449 27.8955 67.5994 28.0878C67.7538 28.2802 67.864 28.5038 67.9228 28.7433C68.0943 29.2847 68.0573 29.8699 67.82 30.3855C67.5827 30.9011 67.1623 31.3101 66.6395 31.5317C65.6553 31.9352 64.8629 31.6717 64.5745 30.8777L64.5417 30.8386ZM78.0884 48.4401C76.2336 45.4529 74.4197 42.4092 72.3851 39.5497C70.8819 37.4583 69.082 35.5921 67.2712 33.5809L69.6387 31.142C70.0165 31.4746 70.365 31.8393 70.6809 32.2322C71.8788 33.984 72.9882 35.7881 74.1861 37.5399C76.9209 41.5547 79.6549 45.5691 82.4543 49.5295C83.0803 50.4379 84.089 51.0926 84.7632 52.0057C86.037 53.7165 87.181 55.5355 88.427 57.2919C88.8032 57.8675 89.2776 58.3733 89.8281 58.7862C90.9689 59.5728 92.2289 60.2384 93.3982 60.9798C94.8975 61.759 96.2322 62.8206 97.329 64.1063C98.0715 64.9507 98.9588 65.6564 99.949 66.1903C101.312 67.0734 102.721 67.8814 104.171 68.611C106.044 69.5356 107.977 70.3219 109.906 71.1555L115.593 73.5641L117.768 79.1243C119.13 78.1191 117.827 77.0057 118.083 76.0207C119.859 76.565 120.023 76.6034 120.977 79.3294C121.44 80.7273 122.557 82.0399 121.985 83.8607L123.455 84.461C124.531 82.506 122.359 81.1701 122.7 79.2567C123.065 79.3215 123.407 79.478 123.695 79.7121C123.983 79.9458 124.206 80.249 124.344 80.593C124.933 82.1702 125.426 83.7626 126.068 85.2966C126.213 85.7351 126.477 86.1246 126.83 86.4212C127.408 86.8138 128.014 87.1611 128.645 87.4608C127.938 85.5851 127.231 83.7095 126.511 81.8442L127.063 81.5821C129.874 82.6033 129.585 85.5533 130.61 87.7577C131.199 88.015 131.562 87.7115 131.52 87.1078C131.423 85.9353 131.192 84.7621 130.925 83.2021C133.252 84.5399 135.32 85.8304 137.574 87.0535C137.665 89.1686 138.51 91.1812 139.955 92.7282C141.62 92.0862 139.94 91.0228 140.389 90.1632C141.606 91.3706 142.502 92.8618 142.999 94.5026C141.523 94.8973 140.477 93.9874 139.483 93.4295C136.398 91.6158 133.172 90.0529 129.836 88.7559C129.418 88.5232 129.029 88.2425 128.675 87.9194C126.857 87.8411 125.103 87.2189 123.64 86.1338C122.281 85.2743 120.971 84.3389 119.717 83.3322L115.02 79.9207C110.679 77.3578 106.349 74.8072 102.172 72.0189C100.686 70.8326 99.3345 69.4876 98.1411 68.0073C95.723 65.2715 93.0112 62.8097 90.0543 60.6663C89.4893 60.2795 88.7062 60.1851 88.2057 59.744C86.7978 58.4529 84.7072 57.6888 83.7967 56.2024C82.1218 53.4835 79.8198 51.2002 78.1205 48.4787L78.0884 48.4401ZM88.8041 77.8702C88.7494 74.3495 88.5262 70.8372 88.307 67.2773C88.2609 66.4572 88.0954 65.626 87.9321 64.3752C88.2783 64.6928 88.5809 65.0552 88.8311 65.4523C90.1999 68.3124 90.9618 71.4253 91.0674 74.5939C91.1286 76.4502 91.3189 78.3003 91.6366 80.1295C92.0507 86.2398 92.0633 92.3697 91.6745 98.4814C91.6602 98.7604 91.6266 99.0381 91.576 99.3121L91.1651 99.4794C90.9286 99.1024 90.7231 98.7065 90.5517 98.2959C90.0026 96.2665 89.4011 94.2803 88.978 92.1903C88.832 91.5187 88.7687 90.8321 88.79 90.1452C88.7996 86.0419 88.8895 81.9821 88.8367 77.9096L88.8041 77.8702ZM85.8649 88.6459C86.2371 87.113 86.7173 85.6082 87.3025 84.1431L87.786 84.2465C87.6907 84.8981 87.6571 85.5429 87.5275 86.1793C87.3979 86.8156 87.08 87.1472 87.1366 87.5843C88.1156 94.0328 86.8654 100.448 86.362 106.835C86.1091 109.909 85.4511 112.945 85.179 115.968C84.9065 118.992 84.7446 121.989 84.5451 124.995C84.4617 126.32 84.3529 127.666 84.3532 128.986C84.4226 129.622 84.5552 130.249 84.7491 130.858C84.9729 131.468 85.0932 132.112 85.1053 132.762C84.9511 134.908 85.1455 137.066 85.6821 139.15C85.7957 140.896 85.786 142.647 85.6533 144.391C85.6418 145.8 85.7481 147.206 85.9705 148.596C86.2203 149.348 86.6985 150.004 87.338 150.472C87.7708 154.983 88.1936 159.481 88.6056 163.966L88.1921 164.025C87.6859 161.783 87.1798 159.542 86.6984 157.302L83.4441 142.405C82.7625 138.954 82.4636 135.437 82.5533 131.921C82.6023 125.516 82.6255 119.135 82.807 112.73C83.2724 104.653 84.3049 96.6172 85.8979 88.6846L85.8649 88.6459ZM45.886 162.085C46.0202 162.412 46.1261 162.752 46.2029 163.097C46.3909 165.142 46.6045 167.297 46.907 169.401C47.107 170.774 47.5128 172.131 47.8214 173.503L48.3601 176.18C48.4143 176.687 48.4974 177.191 48.6077 177.69C50.8453 185.487 52.295 193.503 55.2592 201.09C55.7841 202.768 56.2028 204.477 56.5144 206.207C57.3823 209.886 58.3333 213.319 59.165 216.875C59.4752 218.225 59.5889 219.613 59.5013 220.996L58.7573 221.133C58.5727 220.649 58.3498 220.197 58.2129 219.716C57.4439 216.703 56.6685 213.681 55.8857 210.651C55.4515 208.812 55.0084 206.803 54.4596 204.906C53.7846 202.541 52.9129 200.231 52.2945 197.907C51.4234 194.78 50.6507 191.639 49.902 188.499C48.89 184.28 48.101 179.985 46.9291 175.81C45.8291 171.813 45.2926 167.681 45.3356 163.535C45.3304 163.269 45.3807 163.006 45.4834 162.761C45.586 162.516 45.7385 162.295 45.932 162.113L45.886 162.085ZM116.145 80.0821L115.027 79.9813C114.942 79.7216 114.871 79.4514 114.649 78.7111C115.429 79.2496 115.848 79.5154 116.267 79.8052L116.145 80.0821Z" fill="#101A24"/>
</svg>
