<svg width="12" height="13" viewBox="0 0 12 13" fill="none" xmlns="http://www.w3.org/2000/svg">
<path fill-rule="evenodd" clip-rule="evenodd" d="M3.28453 3.12761C2.60839 3.55448 2.21224 4.14533 2.21224 4.9282V12.1817C2.21224 12.6098 1.85025 12.9569 1.40373 12.9569C0.957197 12.9569 0.595215 12.6098 0.595215 12.1817V4.9282C0.595215 3.53506 1.348 2.49389 2.39526 1.83272C3.41877 1.18655 4.73242 0.888936 5.99946 0.888916C7.2665 0.888896 8.58014 1.18647 9.60367 1.83262C10.6509 2.49377 11.4037 3.53493 11.4037 4.92809V12.1817C11.4037 12.6098 11.0417 12.9569 10.5952 12.9569C10.1487 12.9569 9.7867 12.6098 9.7867 12.1817V4.92809C9.7867 4.14521 9.39055 3.55436 8.71442 3.12752C8.01454 2.68569 7.03032 2.43929 5.99948 2.4393C4.96865 2.43932 3.98442 2.68575 3.28453 3.12761Z" fill="#7A622F"/>
</svg>
