<svg width="22" height="30" viewBox="0 0 22 30" fill="none" xmlns="http://www.w3.org/2000/svg">
<path d="M11.0253 5.0181C8.25729 5.00873 6.0148 7.23625 6.0148 10.0052C6.0148 12.7568 8.2554 14.9902 11.003 15.0006C13.7428 15.011 16.0165 12.7701 16.0072 10.0201M11.0253 5.0181C11.026 5.0181 11.0266 5.0181 11.0272 5.0181L11.0235 6.0181V5.0181C11.0241 5.0181 11.0247 5.0181 11.0253 5.0181ZM11.0253 5.0181C13.782 5.0191 16.0062 7.26903 16.0072 10.0201M16.0072 10.0201C16.0072 10.0207 16.0072 10.0212 16.0072 10.0218H15.0072L16.0071 10.018C16.0071 10.0187 16.0072 10.0194 16.0072 10.0201ZM11.0657 28.9267L11.0652 28.9275C11.0493 28.9493 11.0351 28.9655 11.0235 28.9774C11.0118 28.9662 10.9978 28.9509 10.9819 28.9304L10.982 28.9304L10.9779 28.9252C8.29504 25.4931 5.79444 21.9744 3.67804 18.2056L3.6767 18.2032C2.63025 16.3515 1.72568 14.5311 1.23407 12.5749L1.23362 12.5731C0.758034 10.695 1.03247 8.85499 1.84279 7.05291C3.32929 3.75658 5.86023 1.81493 9.44162 1.1409L9.45101 1.13913L9.46037 1.13718C9.58832 1.11056 9.73306 1.09764 9.95303 1.08006L9.95303 1.08008L9.9599 1.07949C10.3193 1.04827 10.6804 1.02448 11.0529 1.0002C15.9396 1.03913 20.0782 4.5816 20.8965 9.42136C21.1887 11.1818 20.8401 12.8585 20.1248 14.5933C18.9764 17.3717 17.4495 19.9721 15.7251 22.4817C14.608 24.1029 13.4432 25.6878 12.2689 27.2856C11.8684 27.8305 11.4669 28.3769 11.0657 28.9267Z" stroke="#DDBC7A" stroke-width="2"/>
</svg>
