<svg width="122" height="111" viewBox="0 0 122 111" fill="none" xmlns="http://www.w3.org/2000/svg">
<path d="M84.8404 0.0668882C82.9124 0.790988 81.1261 1.84715 79.5625 3.18752C79.0434 3.73525 78.4758 4.23479 77.8665 4.67999C76.5773 5.48481 75.66 6.7681 75.3157 8.24837C75.197 9.07557 74.9971 9.88906 74.7187 10.677C74.495 11.1037 74.3966 11.585 74.435 12.0652C74.4734 12.5454 74.6471 13.005 74.9358 13.3906C75.4378 14.1233 75.872 14.8967 76.2926 15.6565C76.6047 16.1992 76.5911 16.7148 75.9398 17.0133C75.2886 17.3118 75.465 17.5695 75.6685 18.0309C75.8042 18.3612 75.8042 18.7317 75.6685 19.062C74.9494 20.663 74.1082 22.2098 73.4569 23.8244C72.4238 26.0195 71.1883 28.1135 69.7664 30.0792C69.0745 31.1646 68.0433 32.0194 67.2835 33.0506C65.9267 34.9094 64.3121 36.5647 62.996 38.4778C60.8251 41.612 58.3422 44.4884 55.9271 47.4733C53.9021 50.096 52.2239 52.969 50.9341 56.0211C50.405 57.2558 49.7808 58.4498 49.1974 59.6438C48.1527 61.8011 47.0808 63.9312 46.0903 66.0886C45.4119 67.5403 44.8828 69.0464 44.2315 70.4981C43.4582 72.2213 42.6441 73.9173 41.8164 75.6133C40.5817 78.1776 39.442 80.7826 38.0581 83.2656C35.8473 86.8829 33.1389 90.1714 30.0123 93.0345C29.7499 93.3024 29.4297 93.5066 29.0761 93.6315C26.6701 94.3642 24.255 95.0742 21.8308 95.7617C20.8201 95.9598 19.8822 96.4287 19.1172 97.1185C17.7605 98.4753 16.3223 99.8321 14.9519 101.27C14.2933 101.973 13.4286 102.448 12.4825 102.627C11.7837 102.775 11.077 102.884 10.3659 102.953C9.75536 102.953 9.1448 102.831 8.53424 102.871C7.6856 102.962 6.89687 103.351 6.3091 103.97C5.81305 104.525 5.21992 104.985 4.55883 105.327C3.22421 105.917 2.05481 106.825 1.15328 107.973C0.71257 108.575 0.326607 109.215 0 109.886C1.07187 110.279 1.81811 110.537 2.71359 110.117C3.60908 109.696 4.84376 109.167 5.91563 108.665C7.19617 107.942 8.60736 107.481 10.0674 107.308C11.7409 107.217 13.4187 107.249 15.0876 107.403C15.7791 107.484 16.48 107.405 17.1363 107.172C18.2171 106.707 19.2414 106.12 20.1891 105.422C21.1835 104.581 22.3731 104.002 23.6489 103.74C24.9301 103.521 26.233 103.457 27.5294 103.55C30.5415 103.821 33.54 104.215 36.5385 104.635C39.6242 105.206 42.7688 105.393 45.9004 105.191C47.8677 104.988 49.8351 104.934 51.7889 104.73C53.721 104.647 55.6352 104.323 57.4874 103.767C57.8963 103.672 58.3172 103.64 58.7357 103.672C60.4588 103.672 62.1819 103.672 63.8915 103.536C65.8453 103.373 67.7855 102.993 69.7393 102.749C72.2987 102.321 74.7898 101.554 77.1474 100.47C80.1323 99.2486 83.063 97.9054 86.0073 96.5893C87.1322 96.1454 88.221 95.6147 89.2636 95.0019C91.5159 93.5501 93.7681 92.0983 95.9119 90.5244C98.0556 88.9506 100.593 87.743 102.167 85.4636C102.228 85.3558 102.317 85.2666 102.424 85.2058C103.284 84.7137 103.993 83.9958 104.473 83.1299C104.617 82.9237 104.775 82.7286 104.948 82.5465C106.549 80.9239 108.019 79.1772 109.344 77.3228C111.357 74.7994 113.223 72.1629 114.934 69.4263C116.355 67.2409 117.482 64.8778 118.285 62.3981C118.652 60.9463 119.194 59.5217 119.642 58.0699C120.212 56.1025 120.836 54.1216 121.216 52.1136C121.828 49.2492 121.91 46.2971 121.46 43.4029C121.189 41.8019 121.135 40.1602 120.918 38.532C120.782 37.5416 120.443 36.5783 120.334 35.5742C119.983 33.2912 119.33 31.0647 118.394 28.9531C117.553 26.6736 116.576 24.4349 115.83 22.1691C115.44 20.756 114.708 19.4605 113.699 18.3972C113.318 18.005 112.969 17.583 112.655 17.1354C111.075 14.6592 109.11 12.4514 106.834 10.5956C105.477 9.60516 104.351 8.18052 102.574 7.75992C102.514 7.74366 102.459 7.71458 102.412 7.67473C102.366 7.63488 102.328 7.58522 102.302 7.52926C101.733 6.28101 100.444 5.73829 99.5888 4.81567C99.4177 4.63038 99.1874 4.51045 98.9375 4.47647C97.7291 4.1288 96.4773 3.95519 95.2199 3.96089C94.3776 4.03887 93.5386 3.78035 92.8862 3.24179C91.1045 1.96106 89.1179 0.992949 87.0113 0.378951C86.3355 0.0589914 85.579 -0.0497632 84.8404 0.0668882Z" fill="white"/>
</svg>
