<svg width="259" height="216" viewBox="0 0 259 216" fill="none" xmlns="http://www.w3.org/2000/svg">
<path d="M80.4958 204.697C81.1523 204.191 81.6428 203.5 81.905 202.715C82.37 201.072 82.6343 199.341 82.9598 197.638C83.5591 195.031 83.8178 192.358 83.731 189.684C83.5105 185.892 83.8195 182.086 84.6491 178.378C85.4232 174.159 85.9389 169.895 86.192 165.612C86.4204 162.831 86.0096 159.991 86.313 157.206C86.5715 155.525 86.394 153.806 85.7976 152.213C84.9951 149.814 84.4267 147.343 84.0993 144.834C83.1203 139.65 82.1621 134.474 81.2244 129.309C80.9658 127.883 80.8429 126.443 80.6754 125.021C81.2477 125.273 81.2978 125.831 81.5335 126.175C83.5648 129.568 84.8172 133.368 85.2004 137.303C85.5629 139.945 86.0669 142.566 86.7106 145.153C87.5836 148.25 88.0373 151.451 88.0584 154.669C88.0521 155.719 88.2152 156.764 88.5425 157.763C90.394 162.072 91.8164 166.553 92.7877 171.141C92.9329 171.88 93.1611 172.6 93.4672 173.287C95.6296 178.987 99.2572 183.873 102.297 189.091C104.5 192.852 106.764 196.601 108.811 200.421C110.956 204.956 114.165 208.905 118.165 211.931C118.825 212.56 119.619 213.032 120.487 213.313C121.355 213.592 122.275 213.674 123.178 213.549C123.261 212.648 123.208 211.739 123.017 210.855C120.494 204.424 117.875 198.043 115.308 191.629C113.855 188.052 112.424 184.466 111.045 180.848C110.476 179.415 110.107 177.904 109.562 176.501C108.147 172.46 106.688 168.437 105.279 164.38C105.104 163.759 104.969 163.125 104.876 162.486C106.927 164.263 108.845 166.188 110.614 168.245C111.693 169.441 112.789 170.645 113.811 171.889C115.792 174.351 117.702 176.891 119.759 179.349C122.466 182.593 125.394 185.675 127.963 189.023C130.46 192.18 133.476 194.889 136.883 197.035C139.251 198.577 141.455 200.324 143.694 202.031C144.976 203.021 146.13 204.175 147.398 205.196C149.344 206.774 150.213 206.436 151.29 204.159C149.055 200.847 146.82 197.535 144.586 194.223C142.351 190.911 139.946 187.358 137.585 183.953C135.784 181.795 134.2 179.464 132.858 176.994C132.622 176.56 132.335 176.154 132.004 175.787C130.132 173.244 128.303 170.647 126.357 168.145C124.193 165.345 121.914 162.678 119.678 159.957C118.377 158.682 117.256 157.237 116.343 155.661C116.91 155.8 117.162 155.856 117.414 155.912C119.268 156.359 121.1 156.853 122.943 157.24C124.259 157.523 125.615 157.548 126.903 157.895C129.356 158.532 131.823 159.305 134.175 160.046C136.678 160.792 139.056 161.908 141.23 163.358C142.692 164.218 144.249 164.905 145.87 165.402C146.767 165.798 147.758 165.939 148.69 166.257C150.735 166.937 152.765 167.738 154.852 168.326C156.939 168.913 158.948 169.299 161.01 169.691C161.664 169.776 162.327 169.715 162.955 169.513C163.849 169.242 163.98 168.653 163.435 167.877C162.89 167.102 162.461 166.692 162.066 166.037C160.27 163.029 157.424 160.685 155.153 157.875C155.016 157.711 154.854 157.57 154.672 157.459C152.003 155.369 148.871 153.951 145.54 153.325C142.396 152.87 139.399 151.695 136.783 149.891C134.583 148.387 132.194 147.186 129.904 145.844C129.517 145.674 129.178 145.395 128.841 145.154C125.857 143.145 122.612 141.554 119.196 140.425C116.39 139.373 113.398 138.83 110.525 137.971C107.506 137.24 104.641 135.978 102.065 134.243C98.4681 131.753 95.1193 128.923 92.0643 125.792C91.1858 124.932 90.4125 123.971 89.7609 122.929C87.9636 119.588 86.3142 116.164 84.4585 112.872C82.2701 108.953 79.9046 105.14 77.6648 101.253C77.0212 100.156 76.5517 98.9154 75.984 97.8154C78.0151 99.2521 79.967 100.797 81.8318 102.442C87.9487 107.76 94.0287 113.118 100.174 118.412C104.55 122.187 109.006 125.867 113.418 129.604C114.989 130.942 116.552 132.258 118.085 133.599C118.233 133.786 118.416 133.943 118.625 134.059C118.832 134.175 119.061 134.249 119.299 134.276C119.536 134.303 119.775 134.283 120.005 134.217C120.234 134.151 120.448 134.04 120.634 133.892C120.558 133.51 120.436 133.14 120.27 132.789C118.492 129.992 116.751 127.193 114.864 124.477C112.484 120.991 110.082 117.513 107.535 114.155C105.278 111.315 102.856 108.511 100.545 105.664C98.2349 102.817 96.238 99.8878 93.7963 97.2973C88.8641 92.0578 83.7662 86.9853 78.6621 81.9291C76.9189 80.0635 74.8272 78.5588 72.5054 77.4986C69.9854 76.3741 67.7514 74.6948 65.9698 72.5866C64.9231 71.4426 63.9854 70.2164 62.9312 69.0868C60.2966 66.2639 57.6751 63.4096 54.9462 60.6739C53.2992 59.0311 51.5404 57.504 49.6839 56.1018C48.2935 55.1473 47.1578 53.8674 46.3765 52.3725C44.7819 48.9765 42.4221 45.9955 39.4822 43.6648C38.6357 42.9681 38.0889 41.9737 37.955 40.8858C38.5273 41.1376 38.7892 41.3823 39.0709 41.581C41.3339 43.3541 43.6872 45.0078 46.123 46.5355C48.8753 48.1156 51.475 49.9471 53.8889 52.007C54.8718 52.8005 55.944 53.4769 57.0827 54.0243C58.5887 54.7979 60.0933 55.2397 61.5219 55.9796C66.9694 58.9159 72.3133 62.0467 77.8162 64.859C81.9296 66.9665 86.2309 68.7325 90.4624 70.6157C92.4418 71.4878 94.4373 72.3677 96.4789 73.1004C97.1483 73.2434 97.832 73.3089 98.5163 73.2967C98.0841 72.3492 97.9514 71.644 97.5831 71.2231C95.5756 69.1563 93.4807 67.1614 91.4278 65.1121C89.3758 63.0629 87.3099 61.0443 85.3385 58.9377C82.736 56.1662 80.3652 53.1634 77.6194 50.5496C71.4368 44.9807 64.4073 40.4313 56.7946 37.0703C52.9937 35.4492 49.0997 34.0542 45.1341 32.893C42.0658 31.892 38.9377 31.0679 35.8095 30.2439C33.6806 29.8328 31.6721 28.9476 29.9326 27.6538C27.4477 25.58 24.7356 23.8124 23.0199 20.9141C22.896 20.6931 22.6018 20.5636 22.4181 20.3531C21.0559 19.0328 19.7636 17.6434 18.5447 16.19C15.067 11.7578 11.7932 7.15691 8.22889 2.79718C6.41762 0.577049 3.9023 0.0411213 1.94937 2.37615C1.49148 2.91316 1.05731 3.47909 0.614706 4.02291C0.320933 4.3369 0.140193 4.74013 0.102068 5.16851C0.0639438 5.5969 0.170055 6.02567 0.40433 6.38678C1.09725 7.68586 1.88902 8.93009 2.77224 10.1085C5.1845 13.0183 7.69199 15.7116 10.0766 18.6832C12.5943 21.8982 14.8859 25.2907 17.2871 28.602C18.9029 30.5845 19.7 33.1095 19.5151 35.6607C19.3188 38.0411 19.431 40.4364 19.8465 42.7883C20.5825 47.0289 21.6788 51.2053 22.5482 55.3939C23.3515 58.8269 24.5032 62.1691 25.9854 65.3678C27.1564 68.0753 28.2362 70.8234 29.2248 73.6105C30.6293 77.5911 31.862 81.6251 33.1822 85.5871C33.7723 87.2334 34.4718 88.8374 35.278 90.389C36.4317 92.6337 37.8438 94.7521 38.9171 97.0534C40.4169 100.321 42.268 103.415 44.4362 106.283C44.9828 107.009 45.6065 107.674 46.2959 108.266C47.4871 109.213 48.4749 110.391 49.1991 111.729C49.9241 113.067 50.3705 114.538 50.5119 116.053C50.5322 117.447 50.815 118.824 51.3454 120.114C51.7341 121.512 51.8861 122.965 51.7971 124.413C52.0355 127.141 52.3275 129.874 52.5284 132.604C52.6983 134.692 52.7257 136.81 52.9102 138.905C53.2079 142.213 53.8137 145.49 53.8916 148.793C54.1749 153.555 55.0188 158.267 56.4058 162.831C56.5204 163.324 56.9936 163.718 57.4329 164.355C58.2143 163.757 59.105 163.411 59.4673 162.758C60.3858 161.327 61.0757 159.761 61.5117 158.117C62.6665 152.604 63.615 147.056 64.5942 141.522C64.8132 138.855 65.2387 136.207 65.8666 133.605C66.9414 129.808 67.2848 125.841 66.8792 121.916C66.787 119.4 66.5882 116.875 66.5121 114.366C66.4104 111.2 66.4759 108.033 66.3222 104.862C65.9267 100.371 64.9868 95.9434 63.5236 91.6786C63.2966 90.8954 63.1064 90.1096 62.8559 89.0022C63.4028 89.3536 63.6604 89.3561 63.7314 89.5722C66.115 93.7628 68.9387 97.8326 70.5194 102.63C71.7833 106.864 72.2049 111.304 71.761 115.7C71.5352 118.223 71.2189 120.744 71.0314 123.266C70.8331 127.63 70.3077 131.974 69.4615 136.26C68.661 139.125 68.4471 142.12 68.8305 145.07C69.6427 149.934 70.5591 154.771 71.3935 159.627C72.0477 162.949 72.2793 166.34 72.081 169.72C71.8915 171.755 71.9554 173.806 72.2723 175.825C73.52 183.264 74.956 190.694 76.3209 198.075C76.6908 199.933 77.1718 201.766 77.7618 203.566C77.7958 203.867 77.9095 204.153 78.0908 204.393C78.2729 204.635 78.5162 204.823 78.7953 204.938C79.0743 205.054 79.3789 205.093 79.678 205.05C79.9772 205.007 80.26 204.886 80.4958 204.697ZM84.2671 157.154C84.7347 157.895 84.349 159.148 84.3603 160.169C82.3928 157.819 80.8672 155.132 79.8579 152.237L80.2313 151.977C81.6743 153.624 83.0213 155.353 84.2671 157.154ZM82.4336 150.121C83.5023 151.387 84.601 152.665 84.1027 154.718C82.4952 152.623 80.9152 150.634 79.4287 148.557C79.2771 148.245 79.19 147.905 79.1743 147.559C79.1587 147.212 79.2151 146.866 79.3384 146.541C80.3497 147.726 81.3986 148.908 82.4336 150.121ZM83.0527 148.381C81.5969 146.929 80.2444 145.376 79.005 143.735C78.4103 142.863 78.5332 141.495 78.3335 140.354C79.6995 141.223 80.8394 142.404 81.6598 143.799C82.4802 145.195 82.9579 146.765 83.0527 148.381ZM107.649 176.858L107.294 177.163C106.453 176.221 105.548 175.341 104.834 174.362C104.12 173.383 102.652 172.901 102.902 170.74C104.498 173.069 106.453 174.669 107.649 176.858ZM100.972 170.591C102.006 174.335 103.312 177.997 104.881 181.549C105.568 183.385 106.338 185.202 107.085 187.027C107.349 187.642 107.658 188.24 108.104 189.323C108.432 188.581 108.629 188.132 108.625 187.89C108.219 186.395 107.703 184.933 107.081 183.516C106.077 181.502 105.369 179.355 104.977 177.14C106.181 178.391 107.39 179.625 108.565 180.9C108.811 181.24 108.98 181.63 109.06 182.042C110.08 185.412 111.401 188.684 113.009 191.816C114.558 195.343 115.982 198.945 117.512 202.556C118.318 204.5 119.086 206.445 119.848 208.406C120.021 208.851 120.111 209.316 120.374 210.189C118.496 208.922 116.929 207.247 115.791 205.289C113.502 202.1 111.281 198.758 109.243 195.459C108.146 193.756 107.423 191.96 106.52 190.195C106.402 189.865 106.268 189.54 106.117 189.223C104.011 185.617 101.906 182.012 99.7743 178.467C98.2275 175.952 97.0095 173.25 96.1508 170.425C94.7483 165.855 92.9956 161.406 91.5035 156.87C91.2436 155.87 91.1066 154.842 91.0967 153.81C91.0978 152.48 91.0232 151.153 90.8732 149.832C90.3635 147.132 89.6736 144.464 89.082 141.783C88.8591 140.78 88.6958 139.767 88.5572 138.782L89.1451 138.58C89.9908 139.93 90.9384 141.216 91.6966 142.641C93.9515 146.457 95.4825 150.657 96.2116 155.029C97.0018 159.404 98.2707 163.68 99.9952 167.778C100.396 168.688 100.723 169.629 100.972 170.591ZM104.942 170.678C103.322 168.487 100.285 167.205 100.595 163.776C102.316 165.864 104.841 167.513 104.942 170.678ZM102.285 162.582C101.216 161.611 100.33 160.814 99.4659 160.009C99.2132 159.787 98.8317 159.563 98.7722 159.278C98.0602 156.979 97.6126 154.607 97.4369 152.207C99.9576 155.497 101.938 158.549 102.285 162.582ZM127.471 155.725L127.287 156.143C124.419 155.526 121.559 154.93 118.732 154.221C117.388 153.941 116.062 153.573 114.766 153.119C113.667 152.812 112.644 152.279 111.761 151.555C109.805 149.627 108.013 147.54 106.402 145.316C107.153 145.563 107.879 145.883 108.568 146.269C109.966 147.242 111.522 147.965 113.167 148.407C115.503 149.141 117.782 150.09 120.093 150.923C120.534 151.121 121 151.264 121.476 151.348C124.297 151.778 125.667 153.951 127.393 155.691L127.471 155.725ZM130.916 156.541C129.206 156.231 128.936 154.874 128.2 153.904C129.355 154.482 130.304 155.403 130.916 156.541ZM135.19 157.908C133.633 157.794 132.901 156.899 132.704 155.168L135.19 157.908ZM111.044 142.244C114.931 143.44 118.821 144.674 122.607 146.139C127.413 148.127 132.05 150.504 136.47 153.244C138.6 154.304 140.797 155.229 143.045 156.012C145.689 157.178 148.334 158.343 150.917 159.61C151.222 159.781 151.543 159.922 151.876 160.033C154.422 160.582 155.921 162.461 157.458 164.339C158.278 165.328 159.179 166.261 160.05 167.217L159.873 167.619C157.357 166.917 154.833 166.23 152.322 165.474C149.735 164.807 147.19 163.993 144.696 163.038C141.973 162.107 139.49 160.583 137.425 158.579C137.262 158.442 137.122 158.28 137.009 158.099C135.487 154.677 132.463 153.325 129.157 152.275C127.281 151.671 125.512 150.78 123.671 150.098C121.828 149.415 120.085 148.888 118.3 148.285C116.515 147.684 114.833 147.183 113.135 146.509C111.727 145.888 110.375 145.145 108.938 144.548C107.02 143.704 105.014 143.059 103.053 142.269C102.474 142.061 101.945 141.734 101.5 141.308C99.4577 138.986 97.4794 136.6 95.4952 134.229C95.3901 134.098 95.3162 133.946 95.2796 133.782C95.2429 133.618 95.2435 133.449 95.282 133.286C95.7658 133.607 96.2275 133.958 96.666 134.339C100.763 138.078 105.691 140.787 111.044 142.244ZM98.1841 106.914C100.36 109.314 102.571 111.673 104.71 114.112C105.944 115.505 106.998 116.967 108.104 118.397C110.099 121.123 112.078 123.841 114.057 126.56C114.699 127.335 115.235 128.192 115.649 129.109C115.159 128.809 114.687 128.478 114.239 128.118C107.17 122.067 100.161 115.968 93.1692 109.913C90.3482 107.469 87.3392 105.202 84.5618 102.704C81.0556 99.5513 77.6934 96.2412 74.2799 92.9641C72.4528 91.1993 70.685 89.3856 68.8871 87.5963C68.5561 87.323 68.2763 86.9932 68.0603 86.6224C66.7851 83.8995 64.2792 82.1672 62.5232 79.8232C60.7665 77.4791 58.9667 75.319 57.1669 73.03C56.6495 72.3526 56.295 71.5646 56.1319 70.7273C57.4547 71.801 58.7004 72.9666 59.8588 74.2163C61.1226 75.814 62.5293 77.2936 64.0621 78.6359C65.7606 80.1047 67.2167 81.873 68.807 83.4605C70.624 85.3318 72.4178 87.2122 74.2347 89.0842C76.3768 91.0716 78.3909 93.1936 80.2649 95.4356C81.1622 96.3062 82.1597 97.0683 83.2364 97.7048C85.275 99.3233 87.3649 100.91 89.3238 102.585C92.0086 104.876 94.7584 107.27 97.404 109.692C98.6307 110.805 99.7078 112.092 100.856 113.3L101.405 112.767L94.9665 105.792C95.5538 105.686 96.1588 105.733 96.723 105.93C97.2871 106.127 97.7902 106.466 98.1841 106.914ZM60.0791 79.3744L62.4819 82.5573C60.5992 81.5059 60.2838 81.0903 60.0485 79.3606L60.0791 79.3744ZM95.3767 103.645C93.329 102.928 91.213 103.159 89.9856 100.956C91.9032 101.634 94.0921 101.195 95.3452 103.632L95.3767 103.645ZM92.0594 99.8561C90.3451 99.9321 89.3216 98.65 87.9778 98.2611C86.4519 97.9494 85.0494 97.2024 83.9381 96.1114C85.7878 96.3355 87.6145 96.7203 89.3978 97.2615C90.431 97.9628 91.3321 98.8411 92.0594 99.8561ZM56.6955 65.6747C59.9148 69.3096 62.9463 73.1199 66.3021 76.6124C68.0892 78.3054 70.0608 79.7934 72.1783 81.0486C75.8283 83.6979 79.2475 86.6507 82.4014 89.8748C83.8432 91.2123 85.1784 92.6687 86.5421 94.1005C86.8423 94.4783 87.1101 94.8803 87.3419 95.3026C85.1805 94.8856 83.2796 94.5469 81.3986 94.1614C81.0863 94.0041 80.8132 93.7765 80.6022 93.4964C76.9193 89.8236 73.1788 86.199 69.5389 82.4711C67.2296 80.1235 65.0576 77.6336 62.7913 75.2317C61.3948 73.7477 59.9469 72.2975 58.5143 70.8534C55.4951 67.8985 52.9743 64.4737 51.0511 60.7122C51.5812 60.9155 52.0828 61.1863 52.5433 61.5173C54.0096 62.884 55.466 64.191 56.7576 65.7016L56.6955 65.6747ZM63.6035 52.723C65.491 52.631 66.6967 54.0856 67.4353 56.9791C64.956 56.5694 64.8145 54.291 63.6656 52.7499L63.6035 52.723ZM71.5225 59.315C70.8108 59.0018 70.0992 58.6878 69.3416 58.3538L69.0596 55.5145L69.4077 55.3538L71.7971 58.9006L71.5225 59.315ZM2.90396 4.56989L5.65778 3.93635C6.57243 5.2996 6.23896 6.39039 5.27768 7.77676L2.90396 4.56989ZM62.817 113.403C64.6367 115.993 65.4548 119.156 65.1194 122.304C65.1046 123.217 65.1466 124.13 65.2452 125.038C65.3642 127.296 65.0983 129.559 64.458 131.729C63.8076 134.379 63.2721 137.061 62.7811 139.726C61.8936 145.43 61.1426 151.158 60.2169 156.864C59.9089 157.75 59.4614 158.581 58.8915 159.327L58.2939 159.174C58.1737 158.724 58.0861 158.265 58.0299 157.802C57.6245 151.177 57.2636 144.535 56.8069 137.943C56.719 136.759 56.329 135.59 56.1583 134.425C55.8567 132.26 55.601 130.116 55.3207 127.943C55.1076 126.204 55.0286 124.415 54.7104 122.705C53.4816 116.127 52.9683 109.436 53.1794 102.747C53.2158 100.644 53.1313 98.541 52.9255 96.4479C52.4906 92.3218 51.746 88.2261 51.4467 84.0855C51.1466 79.9449 51.2701 76.102 51.2062 71.6781C51.7023 72.2295 52.1941 72.5379 52.3048 72.9564C53.4325 77.1475 54.5294 81.491 55.4202 85.7992C55.882 87.9789 55.8563 90.2586 56.1618 92.4987L57.7332 106.12C57.8442 107.166 57.8962 108.224 57.9849 109.279C58.3075 113.214 58.6346 117.138 58.9663 121.052C59.0432 121.585 59.1491 122.113 59.2852 122.634L59.7228 122.605L59.7557 109.579C60.9852 111.062 61.8899 112.237 62.817 113.403ZM38.6383 66.7498C37.3114 63.4314 36.459 59.9164 35.3392 56.5047C34.5695 54.0595 33.6849 51.583 32.7574 49.1607C32.0631 47.3401 31.2423 45.5563 30.4659 43.7548C30.3397 43.4965 30.1537 43.2481 30.0052 42.9981C30.2743 42.9316 30.5524 42.8882 30.8145 42.8378C34.3738 47.1007 37.619 51.6171 40.5233 56.351C40.6736 56.6669 40.8404 56.9744 41.0222 57.2725C43.1747 60.0566 44.7265 63.2556 45.5817 66.6696C47.2423 72.1865 48.4626 77.8257 49.2325 83.535C49.4106 86.7547 49.4012 89.9819 49.2032 93.2004C49.2049 95.8793 49.2671 98.5477 49.3592 101.23C49.3841 102.516 49.4551 103.822 49.4954 105.114L49.0663 105.165L47.2508 97.7154L42.8532 79.6524C41.7617 75.256 40.3526 70.9433 38.6383 66.7498ZM33.5789 64.1885C34.3589 64.347 35.0078 64.4671 35.8874 64.6509L38.0956 70.5379C34.9716 69.3277 34.7004 66.5481 33.5789 64.1885ZM34.8223 62.6677C33.4765 60.9846 31.5717 59.6473 31.3999 57.1881C32.4935 58.9814 34.8996 60.06 34.8223 62.6677ZM62.4849 102.378C62.6923 102.746 62.7777 103.264 63.0688 103.484C64.808 104.694 64.5851 106.498 64.6557 108.265C64.727 110.033 64.6079 111.477 64.5805 113.09L64.1796 113.246C62.5561 110.055 60.2763 107.223 59.2646 103.692C61.0942 105.2 61.9129 107.574 63.6819 109.092C63.8174 109.03 63.9477 108.958 64.0729 108.876C64.0525 108.577 63.9894 108.282 63.8866 108C62.6332 105.73 61.3645 103.453 60.082 101.208C59.8109 100.715 59.4676 100.265 59.064 99.8722C58.3556 99.1727 58.3946 98.4141 58.5993 97.3223C60.1626 98.783 61.4751 100.491 62.4849 102.378ZM59.9182 94.4122C60.5798 95.4217 61.3296 96.3708 62.1596 97.247C63.8014 98.6354 63.8299 100.458 63.6918 102.448L57.8052 92.8349L58.2216 92.5196C58.8104 93.1116 59.3785 93.7496 59.9182 94.4122ZM62.3361 96.0502L59.4263 91.4623C59.0414 90.8673 58.628 90.2976 58.3426 89.7288C58.0456 89.3456 57.8307 88.9053 57.7123 88.4347C56.8798 82.3717 55.2035 76.4539 52.7325 70.8548C52.4335 70.1504 51.9198 69.5545 51.5625 68.8982C50.831 67.5413 50.1057 66.169 49.4178 64.7952C48.7309 63.4207 48.7186 62.4 47.207 61.9742C46.7123 61.7554 46.4195 60.8694 46.0896 60.3181L44.637 57.9973C43.3697 56.0529 41.9704 54.1989 40.8724 52.1635C39.5578 49.9948 38.0262 47.9643 36.3017 46.1045C33.3765 42.7031 30.7345 39.0677 28.4015 35.2357C28.1611 34.7985 27.8583 34.3975 27.5036 34.0457C27.2969 33.844 26.7613 33.7187 26.6211 33.786C26.2963 34.0219 26.0659 34.3659 25.9719 34.7564C25.8491 35.0344 26.14 35.4216 26.2631 35.7711C26.9324 37.676 27.7313 39.5339 28.6525 41.3311C29.9363 44.0746 31.0006 46.9147 31.8358 49.8258C32.6697 52.3362 33.2868 54.9168 34.1464 57.9551C33.7282 57.7221 33.3361 57.444 32.9785 57.1266C32.2114 55.9652 31.3459 54.8736 30.3902 53.8623C29.2338 52.818 28.434 51.4391 28.1014 49.917C27.233 46.5232 26.4242 43.1194 25.5771 39.717C25.4781 39.4672 25.3541 39.2278 25.2091 39.001C24.5508 40.0772 24.9738 41.0024 25.1539 41.8946C25.8537 45.5458 26.6284 49.194 27.3734 52.8285C27.3258 52.9365 27.3655 53.1387 27.4313 53.2415C29.41 55.9604 29.8028 59.2182 31.031 62.2163C31.8966 64.4447 32.9316 66.7474 33.7251 69.0554C34.5187 71.3627 34.8834 73.2596 35.5323 75.3927C36.4557 78.2004 37.4911 80.9653 38.5547 83.7064C38.9513 84.5681 39.4216 85.3934 39.9612 86.1727C40.7666 85.1428 40.2722 84.4627 40.0191 83.7789L35.6409 71.8754C35.5369 71.6079 35.4551 71.3319 35.3115 70.8621C36.5179 71.3941 37.3843 71.7757 38.5986 72.1629C42.1184 83.3121 45.064 94.634 47.4234 106.084C45.9678 104.716 44.9144 102.974 44.3783 101.049C43.4224 98.2408 42.0111 95.6093 40.2006 93.2605C38.8553 91.1153 37.6993 88.8573 36.7463 86.5111C35.8407 84.3756 35.2793 82.1704 34.491 79.9758C33.2785 76.5234 31.9708 73.1216 30.7721 69.6378C29.0835 64.4983 27.2753 59.3794 25.924 54.1476C24.5934 49.842 23.8959 45.3666 23.8543 40.8605C23.8586 39.8679 23.7499 38.8773 23.5294 37.91C23.0172 34.6364 22.8637 31.317 23.0701 28.0103C22.7127 27.3542 22.3554 26.6981 21.8932 25.9032L20.3023 26.0335C15.9503 20.5695 11.6151 15.1498 7.12607 9.53335L8.31222 6.84202C8.69265 7.18319 9.04938 7.55015 9.37955 7.94035C11.7629 11.5025 14.0144 15.1542 16.5358 18.6111C18.0381 20.3856 19.6357 22.0764 21.3234 23.6758C21.9483 24.2033 22.4366 24.8744 22.7465 25.6315C23.0556 26.3887 23.1778 27.2096 23.1015 28.0241C23.166 27.8373 23.2451 27.6561 23.3395 27.4826C23.5159 27.3202 23.7007 27.1673 23.8923 27.0244C24.6873 27.6516 25.5174 28.3682 26.3805 29.0071C27.1466 29.5886 27.9484 30.1213 28.7815 30.6007C30.6091 31.6091 32.4658 32.5938 34.3425 33.5317C35.4869 34.036 36.6475 34.5466 37.792 35.051C38.1313 35.2678 38.4483 35.519 38.737 35.7997L38.8603 35.8542C40.9519 35.2988 42.7511 36.4972 44.5758 37.1355C47.1475 38.0471 49.6348 39.2354 52.0929 40.4474C56.594 42.4312 61.0952 44.4142 65.4237 46.7465C68.1332 48.111 70.674 49.788 72.993 51.7436C79.371 57.306 85.5557 63.0974 91.9703 68.9533C90.5691 68.9848 89.1889 68.6016 88.004 67.8519C83.4256 65.6681 79.0418 63.4599 74.5607 61.2639C73.6952 60.8816 73.0687 60.458 73.0252 59.2572C73.0379 58.727 72.5571 58.1825 72.2962 57.6428L72.5992 57.3327C73.5382 57.968 74.4564 58.6499 75.4467 59.253C76.4379 59.8555 77.3915 60.3313 78.4178 60.8946C79.1083 59.9978 78.645 59.4986 77.9902 59.0988C75.6963 57.6816 73.4607 56.2162 71.1252 54.8923C66.4232 52.1919 61.6374 49.6401 56.9705 46.9006C53.9321 45.1179 51.0493 43.1094 48.0607 41.2564C45.1693 39.2273 42.108 37.4521 38.9108 35.95L38.8334 35.9163L39.5589 38.0831C42.5975 39.2156 45.4232 40.8533 47.9152 42.9292C51.7896 45.7388 55.8924 48.2203 60.1809 50.3462C62.0208 51.1576 62.1989 52.6398 62.5675 54.6118C61.3008 54.0264 60.0647 53.3761 58.8632 52.6655C57.1591 51.5453 55.603 50.2137 53.892 49.1089C51.2351 47.3841 48.4876 45.8225 45.8238 44.113C44.3855 43.1837 43.0369 42.0539 41.64 41.0321C40.6199 40.2872 39.586 39.5729 38.559 38.8433C36.4835 37.3926 34.4563 35.872 32.331 34.4917C31.1668 33.7391 30.8156 33.9909 30.4469 35.1209C32.5888 37.7641 34.6765 40.2356 36.6255 42.8119C38.9625 45.892 41.245 49.0955 43.5482 52.253C44.507 53.302 45.1327 54.6124 45.3437 56.0178C45.3768 56.2574 45.4615 56.4867 45.5918 56.6904C45.7221 56.8942 45.8945 57.0678 46.0968 57.1992C49.0679 58.8408 50.9132 61.6117 52.9292 64.6242C51.3292 64.5662 51.1389 62.9859 49.7276 62.7518C55.8612 73.0208 60.1299 84.2943 62.3361 96.0502ZM74.9928 102.957C74.7301 102.841 74.3078 102.877 74.2352 102.623C73.4713 101.426 72.7868 100.18 72.1846 98.8936C70.2069 94.6319 67.7831 90.5917 64.9528 86.8413C64.3416 85.9293 63.8225 84.9581 63.4041 83.9427C67.7346 88.731 71.4821 94.0153 74.5687 99.6855C73.9334 100.624 74.6371 101.249 75.094 101.93L75.7758 100.384L77.2927 103.564C77.465 104.02 77.6714 104.464 77.9094 104.888C81.1873 110.027 84.0681 115.268 87.018 120.52C87.5475 121.455 87.6507 122.646 88.1074 123.623C88.6136 124.612 89.1782 125.569 89.7979 126.492C88.4008 125.434 87.2715 124.063 86.5007 122.49C85.7161 120.904 84.8043 119.384 83.7748 117.946C82.8224 118.598 82.7529 119.342 83.1524 119.944C84.2461 121.406 84.9194 123.14 85.0993 124.958C85.1465 125.164 85.259 125.349 85.42 125.486C86.2562 126.518 87.1969 127.459 88.2286 128.293C90.6395 129.948 91.901 132.535 93.6924 134.673C95.4846 136.811 96.7309 139.262 98.9418 140.994C99.4619 141.407 99.6396 142.262 99.9711 142.851C100.963 143.296 101.901 143.852 102.768 144.508C104.564 146.26 106.231 148.177 107.919 150.047C108.022 150.173 108.096 150.32 108.135 150.478C108.174 150.635 108.177 150.8 108.145 150.959C107.702 151.965 108.251 152.521 108.992 152.81C112.878 154.301 115.254 157.546 117.732 160.558C121.952 165.65 125.963 170.927 130.038 176.14C130.403 176.57 130.732 177.031 131.021 177.515C133.966 182.389 137.194 187.086 140.689 191.582C142.547 194.054 144.018 196.795 145.05 199.71C144.035 198.912 142.999 198.16 142.013 197.337C141.027 196.515 140.517 195.829 139.67 195.234C136.591 192.875 133.763 190.205 131.231 187.267C129.243 184.79 126.975 182.552 124.474 180.595C123.481 179.809 122.599 178.892 121.851 177.87C118.668 174.196 115.529 170.504 112.353 166.814C108.652 162.747 105.233 158.433 102.121 153.902C99.4558 149.846 96.9165 145.716 94.4286 141.554C93.7123 140.37 93.6914 138.699 92.8271 137.727C91.8268 136.82 90.9029 135.832 90.0647 134.773C88.1537 131.733 86.0502 128.794 84.4046 125.611C82.1842 121.345 79.6052 117.18 78.898 112.288C78.8862 112.003 78.7971 111.727 78.6396 111.491C76.6228 109.059 75.3552 106.095 74.9928 102.957ZM79.6357 199.314C78.6884 194.924 77.7854 190.519 76.8663 186.106C76.0139 181.177 75.581 176.186 75.5727 171.184C75.5105 169.439 75.2667 167.688 75.167 165.944C74.6056 160.546 73.7229 155.185 72.524 149.893C71.7872 145.873 71.6176 141.769 72.0213 137.702C72.2662 135.261 73.0053 132.871 73.493 130.464C74.2275 126.66 74.5471 122.787 74.445 118.914C74.4192 115.745 74.1896 112.577 74.032 109.497C74.0207 109.104 74.0464 108.709 74.0731 107.853C74.4098 108.273 74.7221 108.713 75.0077 109.17C75.2081 109.554 75.2162 110.037 75.4657 110.351C77.9199 113.501 77.7368 117.354 78.3453 121.002C79.0545 125.304 79.8388 129.602 80.623 133.901C81.135 136.638 81.6907 139.358 82.3602 142.534C81.9362 142.191 81.5497 141.804 81.2062 141.38C80.656 140.325 80.0272 139.314 79.3259 138.353C77.9602 136.625 77.273 134.457 77.3944 132.256C77.2113 128.481 77.2127 124.789 77.1222 121.054C77.111 120.828 76.9027 120.588 76.6418 120.049C76.3966 120.443 76.2086 120.87 76.0829 121.317C75.9926 124.121 75.9328 126.939 75.873 129.758C75.8429 131 75.8059 132.258 75.7304 133.519C75.5323 136.903 76.9804 140.072 77.1647 143.385C77.4037 146.114 77.7857 148.829 78.309 151.518C78.3429 152.003 78.3385 152.488 78.2963 152.972C78.3014 153.38 78.1363 153.88 78.3245 154.166C79.5529 156.074 79.2814 158.281 79.3257 160.278C79.4195 162.665 79.626 165.046 79.7191 167.433C79.764 168.672 79.6497 169.896 79.621 171.176C81.0002 171.359 81.2026 171.319 81.1945 169.912C81.1994 167.679 80.9759 165.419 80.8367 163.179L80.7119 158.432C81.2291 158.683 81.7084 159.006 82.1357 159.392C83.5378 160.827 84.3447 162.74 84.3943 164.746C84.275 168.202 84.1242 171.646 83.739 175.078C83.4905 177.277 82.8396 179.466 82.5091 181.684C82.2632 183.271 82.1311 184.873 82.1145 186.478C82.0844 188.516 82.1755 190.532 82.2451 192.594C82.1999 193.37 82.1002 194.141 81.949 194.902C81.7033 196.493 81.4475 198.08 81.1819 199.662C81.0756 200.097 80.9371 200.524 80.767 200.938L80.4115 200.948C80.1086 200.425 79.8494 199.879 79.6357 199.314ZM144.313 162.019C143.879 161.958 143.436 162.039 143.276 161.859C142.257 160.818 141.289 159.745 140.307 158.703C139.897 158.208 139.062 157.674 139.905 156.974C140.749 156.275 141.286 156.9 141.709 157.492C142.683 158.845 144.152 159.954 144.313 162.019ZM105.073 83.7765C106.171 87.0467 107.607 90.1932 109.36 93.1642C110.187 94.4714 111.075 95.768 111.799 97.1019C113.707 100.696 115.899 104.132 118.353 107.379C122.255 112.924 126.89 117.918 132.13 122.222C132.723 122.705 133.407 123.062 134.141 123.275C134.73 123.34 135.325 123.295 135.898 123.144C135.824 122.557 135.935 121.886 135.663 121.415C133.847 118.158 132.089 114.853 130.016 111.76C128.948 110.278 128.069 108.668 127.399 106.968C126.406 103.982 124.624 101.405 124.202 98.171C124.177 97.9756 124.017 97.7946 123.932 97.6091C122.649 95.0302 121.276 92.4865 120.133 89.8403C118.588 86.2221 117.249 82.5105 115.746 78.838C115.047 77.0712 114.377 75.2798 113.53 73.5954C112.332 71.4438 111.379 69.1648 110.687 66.8014C110.233 65.1002 109.673 63.4296 109.013 61.7968C107.972 59.0473 106.87 56.3084 105.753 53.5626C105.095 51.8612 104.35 50.1945 103.519 48.5706C102.103 45.915 100.555 43.3489 99.0884 40.7262C99.0884 40.7262 99.1906 40.4941 99.3065 40.2313C99.6747 40.4139 100.025 40.6298 100.352 40.8766C103.489 43.6072 106.613 46.3692 109.667 49.0814C113.477 52.2514 116.268 56.475 117.689 61.2239C118.626 64.4622 119.855 67.6265 120.809 70.9102C121.763 74.1937 122.343 77.8663 123.372 81.2749C124.401 84.6827 125.869 88.4334 127.162 91.9954C127.802 93.773 128.583 95.5208 129.095 97.3351C130.316 101.623 131.907 105.798 133.849 109.811C134.482 111.006 135.216 112.145 136.043 113.216C137.01 114.583 138.139 115.838 139.121 117.213C141.629 120.701 144.108 124.212 146.572 127.718C147.296 128.758 147.962 129.845 148.744 130.836C150.59 133.145 152.486 135.422 154.368 137.692C156.249 139.961 158.051 142.159 159.951 144.344C160.616 145.099 161.34 145.973 162.546 145.709C163.556 143.919 163.578 143.911 162.8 142.405C162.357 141.526 161.817 140.697 161.333 139.91C160.096 137.518 158.781 135.221 157.597 132.834C156.586 130.903 155.707 128.906 154.969 126.855C153.435 122.245 152.178 117.554 150.659 112.951C148.868 107.544 146.926 102.181 145.023 96.8178C144.11 94.2361 143.22 91.6453 142.114 89.1264C140.388 85.1892 138.564 81.3071 136.643 77.4802C135.185 74.5847 133.59 71.8324 131.924 68.9919C131.178 67.6664 130.35 66.3592 129.56 65.0504L129.907 64.7235C130.654 65.2927 131.365 65.9009 132.147 66.4303C136.828 69.6013 141.016 73.4441 144.576 77.836C145.12 78.4846 145.699 79.1029 146.308 79.6896C149.204 82.5909 152.128 85.4302 155.001 88.3406C157.661 91.0639 160.264 93.8362 162.859 96.6231C163.786 97.6223 165.065 98.408 165.032 100.075C165.039 100.354 165.408 100.647 165.618 100.923C166.776 102.154 167.848 103.495 168.894 104.935C169.749 105.972 170.491 107.098 171.108 108.293C173.234 112.904 174.293 117.936 174.208 123.013C174.209 125.526 174.499 128.054 174.576 130.563C174.778 131.884 174.718 133.232 174.398 134.53C173.703 136.735 173.2 139.008 172.698 141.28C172.348 144.012 171.524 146.662 170.263 149.11C170.099 149.335 169.985 149.594 169.929 149.868C169.446 153.145 168.887 156.427 168.554 159.697C168.13 164.516 167.874 169.372 167.588 174.214C167.366 178.069 167.23 181.944 167.047 185.797C167.001 186.571 166.902 187.34 166.91 188.12C166.915 191.502 167.11 194.876 166.902 198.238C166.784 200.144 167.232 202.225 165.848 203.942C165.732 204.206 165.745 204.636 165.74 204.984C165.727 206.734 165.706 208.498 165.761 210.259C165.699 210.876 165.808 211.5 166.077 212.059C166.547 212.758 166.751 213.601 166.654 214.438C166.669 214.906 167.039 215.365 167.237 215.84C167.741 215.661 168.219 215.41 168.653 215.097C168.892 214.751 169.062 214.363 169.158 213.953C170.296 211.37 171.427 208.802 172.566 206.219C173.362 204.979 174.087 203.696 174.74 202.375C175.684 199.731 176.278 196.975 176.505 194.176C177.061 187.998 178.491 181.931 180.752 176.154C180.895 175.83 181.038 175.505 181.274 175.221C182.623 172.453 184.17 169.737 185.303 166.874C187.963 159.665 189.239 152.018 189.065 144.335L189.087 143.698C189.191 138.977 188.794 134.257 187.902 129.62C187.827 129.161 187.782 128.717 187.691 127.919C188.064 128.167 188.418 128.44 188.752 128.738C190.918 131.244 193.105 133.74 195.219 136.279C197.333 138.818 199.533 141.874 201.979 144.411C204.914 147.338 208.298 149.776 212.003 151.635C212.759 152.005 213.468 152.466 214.113 153.008C216.858 155.455 219.632 157.878 222.247 160.453C225.193 163.275 228.551 165.633 232.206 167.445C232.983 167.78 233.723 168.193 234.416 168.678C238.195 171.622 241.692 174.913 244.861 178.507C246.943 180.865 249.368 182.949 251.649 185.192C251.787 185.342 251.955 185.461 252.141 185.544C252.327 185.626 252.528 185.67 252.732 185.671C252.936 185.673 253.138 185.632 253.325 185.552C253.513 185.473 253.682 185.355 253.822 185.207C254.474 184.608 254.017 183.927 253.715 183.313C253.115 182.033 252.509 180.768 252.014 179.461C250.826 176.37 249.913 173.16 248.505 170.194C246.845 166.71 244.785 163.42 242.851 160.056C241.289 157.139 239.478 154.363 237.437 151.759C235.273 149.254 232.849 146.985 230.206 144.99C225.01 140.853 219.928 136.583 214.84 132.327C213.096 130.876 211.49 129.282 209.693 127.659C210.816 127.877 211.833 128.084 212.834 128.285C216.744 128.821 220.563 129.883 224.188 131.441C226.055 132.291 227.999 132.961 229.992 133.444C230.316 133.519 230.652 133.523 230.978 133.456C231.304 133.39 231.612 133.253 231.88 133.057C232.465 132.484 231.96 131.744 231.502 131.192C231.157 130.738 230.763 130.323 230.329 129.954C227.088 127.584 223.89 125.159 220.517 122.879C218.655 121.615 216.524 120.75 214.59 119.564C211.68 117.784 208.924 115.905 206.13 113.99C205.897 113.888 205.729 113.684 205.257 113.329L206.518 113.109C208.908 112.96 211.275 112.56 213.581 111.917C214.12 111.774 214.682 111.739 215.234 111.814C216.212 111.858 217.2 112.089 218.159 112.05C221.972 112.066 225.772 112.471 229.502 113.261C232.254 113.723 235.023 114.13 237.81 114.484C242.841 115.205 247.738 116.66 252.347 118.802C253.893 119.484 255.661 120.041 256.405 121.791C258.268 121.503 258.749 121.125 258.227 120.211C256.891 117.721 255.099 115.503 252.945 113.672C250.066 111.513 246.84 109.861 243.406 108.786C241.273 108.026 239.332 106.811 237.716 105.226C235.182 102.658 231.991 100.836 228.491 99.9607C224.438 99.0984 220.386 98.2361 216.265 97.6948C212.903 97.1924 209.498 97.0402 205.901 96.6932C208.614 95.0632 210.992 93.5249 213.465 92.1023C218.274 89.3637 221.439 85.0321 224.532 80.6513C226.931 76.909 229.706 73.4223 232.812 70.2432C234.894 68.2426 236.801 66.0532 238.725 63.9092C239.113 63.4888 239.56 62.5588 239.406 62.3618C238.9 61.839 238.255 61.4713 237.546 61.302C236.992 61.1962 236.421 61.2162 235.876 61.3612C234.283 61.677 232.79 62.3758 231.526 63.396C229.034 65.2354 226.524 67.1591 223.908 68.9057C219.301 71.8925 215.014 75.3448 211.112 79.2074C207.527 82.838 203.325 85.8022 198.703 87.9623C194.253 89.9085 189.604 91.3654 184.838 92.3075C182.54 92.9888 180.158 93.3443 177.76 93.363C176.72 93.2925 175.666 93.5484 174.607 93.562C173.986 93.5804 173.369 93.4653 172.797 93.2265C166.879 90.4338 162.57 85.7091 157.811 80.7488C158.793 80.8677 159.325 80.9179 159.836 81.0141C162.938 81.6044 166.041 82.233 169.156 82.7933C172.577 83.4138 176.025 83.9721 179.344 84.5296C180.114 84.6667 180.86 84.9025 181.628 84.9637C183.049 85.0913 183.445 84.5268 182.943 83.2344C182.779 82.8113 182.764 82.3431 182.584 81.9123C182.405 81.4823 182.204 80.8031 181.814 80.5576C180.377 79.6285 178.791 78.7827 177.231 77.9653C175.67 77.1479 174.416 76.7247 173.112 75.9106C167.45 72.4553 161.846 68.9511 156.219 65.456C155.678 65.218 155.296 64.6989 154.462 64.0354L155.715 64.1261C160.177 64.5221 164.308 66.2127 168.63 67.1756C171.43 67.9132 174.279 68.453 177.155 68.7888C179.536 68.9577 181.901 69.3084 184.229 69.8375C186.61 70.517 189.102 70.7169 191.561 70.4266C193.849 70.0123 196.139 69.6364 198.403 69.193C202.152 68.4811 205.886 67.7623 209.609 66.9829C213.023 66.3741 216.206 64.8453 218.816 62.5619C219.309 62.0678 219.915 61.7005 220.58 61.492C221.328 61.2685 222.003 60.8504 222.537 60.2806C223.069 59.7107 223.442 59.0102 223.617 58.2493C224.196 56.934 223.272 55.8443 221.792 56.0599C220.689 56.2519 219.61 56.563 218.575 56.9884C216.935 57.7902 215.152 58.2601 213.33 58.3711C211.779 58.3707 210.227 58.3709 208.705 58.1797C207.137 58.1009 205.579 57.9137 204.037 57.6203C199.912 56.6706 195.833 55.5745 191.716 54.6478C187.6 53.7203 183.874 53.0391 179.887 52.1508C173.626 50.7047 167.162 50.3562 160.781 51.1199C158.605 51.3617 156.424 51.491 154.258 51.7552C153.009 51.9067 151.787 52.2919 150.557 52.5254C148.183 53.195 145.695 53.3574 143.254 53.0022C141.673 52.6273 140.061 52.399 138.439 52.321C136.395 52.3136 134.365 51.9805 132.427 51.3344C130.604 50.8755 128.828 50.2469 127.121 49.458C123.665 47.547 120.097 45.8458 116.437 44.3626C115.458 43.838 114.541 43.2049 113.704 42.4753C113.147 42.0634 112.695 41.4951 112.158 41.0365C109.466 38.7608 106.762 36.5162 104.064 34.256C103.89 34.0556 103.73 33.8433 103.586 33.6208C104.097 33.5396 104.615 33.5018 105.132 33.5077C108.133 33.7401 111.161 33.9107 114.153 34.2872C119.194 34.9199 124.204 35.7053 129.218 36.3997C130.263 36.5478 131.319 36.6054 132.375 36.5716C136.599 36.4569 140.818 36.0624 145.033 36.2206C148.005 36.4308 150.99 36.1962 153.892 35.5247C159.667 33.9873 165.387 32.241 171.126 30.5768C172.268 30.2487 173.468 30.0389 174.567 29.5995C177.759 28.3091 180.958 26.8744 184.081 25.5721C186.022 24.7284 187.931 23.8333 189.825 22.9314C190.69 22.5185 190.947 21.7265 190.306 21.2961C188.756 20.2438 187.621 18.5434 185.516 18.3733C184.55 18.1747 183.597 17.9151 182.663 17.5964C179.634 16.7796 176.552 16.1685 173.44 15.7672C169.865 15.6421 166.285 15.7556 162.725 16.1069C159.429 16.3354 156.18 16.9173 152.86 17.1166C147.225 17.3304 141.637 17.4357 135.965 17.356C132.361 17.1395 128.747 17.1259 125.141 17.3151C122.761 17.5595 120.351 17.4951 117.986 17.7086C115.45 17.7861 112.93 18.1371 110.469 18.7555C106.006 20.084 101.428 20.9859 96.796 21.449C91.5105 22.1535 86.1478 20.9256 81.6957 17.991C80.9927 17.5209 80.262 17.094 79.5075 16.7126C74.5567 14.3651 69.5707 12.0574 64.6277 9.69456C61.2504 8.09562 57.936 6.39509 54.5725 4.76523C53.7746 4.38666 52.8687 4.30282 52.0151 4.52866C51.1622 4.75451 50.4162 5.27523 49.9101 5.99864C48.4238 9.37046 49.3957 13.7883 53.2164 14.8436C54.8651 15.2931 56.588 15.8676 58.2581 16.4372C59.8873 16.9058 61.4738 17.5122 63.0008 18.2499C65.7139 19.7223 68.2949 21.4508 70.9381 23.0401C72.0916 23.7332 73.2505 24.3731 74.4109 25.0507C78.3999 27.3994 82.7157 29.3009 85.2985 33.542C86.8433 35.4486 88.2118 37.492 89.3872 39.6471C91.1574 44.0791 92.6425 48.62 93.8321 53.2426C95.0896 57.9341 96.5219 62.5791 98.1275 67.1774C99.4383 71.5647 101.124 75.8298 103.168 79.9267C103.902 81.1631 104.537 82.4553 105.067 83.7927L105.073 83.7765ZM112.924 75.8955L113.114 76.0902C114.164 78.6957 115.155 81.3111 116.263 83.8684C118.4 88.7439 120.017 93.8342 122.473 98.5734C123.851 101.231 124.711 104.14 125.815 106.917L125.313 107.176C124.052 105.05 122.761 102.948 121.515 100.829C120.269 98.7103 119.139 97.0857 118.137 95.1668C116.962 92.8017 115.896 90.4851 114.752 88.1339C113.609 85.7836 112.513 83.7857 111.407 81.5993C110.931 80.6694 110.399 79.6957 111.768 78.8953C110.917 78.0586 110.991 76.4663 109.435 76.6857C109.103 75.7628 108.223 74.9506 108.816 73.6054C109.443 74.3614 110.049 74.998 110.505 75.6421C110.63 75.8388 110.796 76.0083 110.99 76.1378C111.185 76.2674 111.404 76.3556 111.635 76.3967C111.865 76.437 112.101 76.4294 112.328 76.3744C112.555 76.3193 112.769 76.2171 112.955 76.0755L112.87 75.89C111.715 74.6974 110.575 73.5118 109.442 72.3108C109.334 72.2633 109.477 71.9385 109.49 71.7407L109.369 71.5951C108.708 71.0826 107.986 70.5426 107.365 70.0655L107.755 69.6833C108.286 70.3237 108.839 70.9556 109.369 71.5951C109.369 71.5951 109.524 71.6634 109.586 71.6911C111.699 72.3449 112.19 74.2051 112.917 75.9108L112.924 75.8955ZM109.321 67.8065C109.769 68.2988 109.869 69.1188 110.113 69.7803L109.658 70.0604L105.486 65.1925L105.93 64.6864C107.094 65.7348 108.291 66.706 109.314 67.8218L109.321 67.8065ZM108.729 64.9592C106.559 63.6962 104.772 61.8687 103.56 59.6713C104.074 60.1376 104.611 60.5963 105.112 61.094C105.613 61.5918 106.204 62.2214 107.204 61.6276L108.729 64.9592ZM146.266 104.938C147.895 111.05 150.189 116.992 151.893 123.062C152.95 126.702 154.286 130.256 155.891 133.69C156.525 135.059 157.338 136.359 157.914 137.776C155.961 136.106 154.456 133.977 153.533 131.58C152.667 129.351 151.878 126.953 151.04 124.662C150.551 123.339 150.034 122.04 149.494 120.749C147.185 115.261 144.836 109.776 142.519 104.303C142.414 103.96 142.334 103.61 142.278 103.256C143.005 103.576 143.47 103.78 144.289 104.141C143.493 101.13 140.507 99.815 139.649 96.6479C142.676 99.1262 145.274 101.195 146.266 104.938ZM140.92 89.9491C141.216 90.8064 141.446 91.6858 141.608 92.5789C141.608 92.5789 141.716 92.6273 141.778 92.6541C142.671 94.1734 143.261 95.8514 143.517 97.5943C140.533 95.728 138.267 92.907 137.088 89.5904C138.133 90.5308 139.077 91.4082 140.042 92.2773C140.564 92.7283 141.081 93.2703 141.732 92.6333L141.696 92.507C139.624 90.3749 137.561 88.2659 135.51 86.0871C134.752 85.3356 134.256 84.3594 134.096 83.3028C135.178 83.7989 136.112 84.5673 136.808 85.5327C137.257 86.0633 137.715 86.9112 138.263 86.9676C140.052 87.3499 140.404 88.6874 140.92 89.9491ZM132.012 84.1762C133.211 87.198 134.734 90.0299 136.131 92.9369C136.789 94.3351 138.098 95.5577 137.043 97.3645C136.94 97.5966 137.322 98.2821 137.654 98.5757C138.668 99.473 139.436 100.613 139.889 101.888C141.409 105.606 142.929 109.324 144.546 112.991C146.163 116.658 147.966 120.279 149.529 124.108C150.323 125.954 150.82 127.927 151.563 130.139C151.109 129.828 150.836 129.819 150.803 129.601C148.584 125.039 145.047 121.412 142.141 117.361C138.977 113.304 136.319 108.876 134.226 104.177C133.482 102.261 132.988 100.196 132.312 98.291C130.671 93.6336 129.002 89.0375 127.38 84.3334C126.493 81.4859 125.789 78.5534 124.912 75.5994C123.82 71.8306 122.684 68.0794 121.792 64.1951C123.579 67.1804 125.205 70.2799 127.099 73.1091C129.55 76.5166 130.565 80.4179 132.039 84.1149L132.012 84.1762ZM123.428 58.8023C125.023 60.9271 126.288 63.2952 127.708 65.5646C130.268 69.5143 132.619 73.5959 134.751 77.7921C135.879 80.1363 136.976 82.4668 138.089 84.8042L137.808 84.9389C136.1 83.2814 134.406 81.5927 132.623 79.9391C132.399 79.6767 132.238 79.366 132.155 79.0306C131.339 75.6421 129.211 72.9683 127.481 70.0634C125.129 66.7414 123.001 63.2681 121.11 59.6649C120.149 57.6525 119.1 55.8425 117.969 53.922C116.37 51.0831 113.964 48.7818 111.056 47.3108C110.561 47.0093 110.096 46.6622 109.666 46.2736C106 43.4024 102.34 40.5151 98.6548 37.7279C96.3164 35.955 94.2259 33.8782 92.4367 31.5524C92.8358 31.5998 93.2289 31.6924 93.6074 31.8283C96.4031 33.4481 99.1988 35.0678 101.968 36.7495C102.989 37.3657 103.891 38.1694 104.871 38.8785C107.154 40.5305 109.457 42.137 111.754 43.7581C112.727 44.4822 114.007 44.9729 113.995 46.5929C113.984 46.9944 114.453 47.4408 114.767 47.8189C117.676 51.4841 120.673 55.0392 123.456 58.7411L123.428 58.8023ZM183.004 144.971C184.182 146.488 185.341 148.051 186.506 149.598C187.152 150.437 186.866 151.254 186.514 152.262C184.783 149.652 183.237 147.124 181.598 144.555L181.961 144.234C182.338 144.435 182.688 144.683 183.004 144.971ZM185.003 129.45C185.403 131.141 185.525 132.876 185.757 134.529L186.176 135.213L186.224 138.835L186.323 138.99L186.281 139.082C186.914 142.125 187.084 145.244 186.785 148.336C186.171 147.549 185.732 147.078 185.395 146.542C184.291 144.259 182.982 142.082 181.484 140.035C181.317 139.869 181.462 139.415 181.465 138.863C183.477 140.081 183.698 142.599 185.71 143.522C184.934 140.336 182.618 137.967 181.296 135.095L181.668 134.796C182.289 135.568 182.86 136.282 183.542 137.081C184.225 137.881 184.62 138.535 185.221 139.225C185.822 139.915 186.013 139.481 186.368 139.139L186.422 139.015C185.584 137.815 184.753 136.599 183.937 135.39C183.122 134.181 182.215 132.968 181.437 131.758C181.273 131.501 181.279 131.152 181.548 130.624C182.374 131.727 183.243 132.775 184.001 133.903C184.194 134.316 184.502 134.663 184.889 134.902C185.275 135.141 185.724 135.263 186.179 135.251C186.009 135.175 185.824 134.965 185.801 134.807L185.757 134.529C184.917 133.125 184.092 131.727 183.207 130.34C182.657 129.451 181.981 128.636 181.445 127.716C181.318 127.323 181.249 126.913 181.242 126.5L181.643 126.344C182.244 127.034 182.87 127.753 183.425 128.422C183.547 128.387 183.666 128.341 183.781 128.284C183.775 127.861 183.712 127.441 183.591 127.037C183.104 126.046 182.59 125.118 181.965 124.104C181.643 123.449 181.467 122.733 181.447 122.004C181.427 121.275 181.565 120.55 181.851 119.879C182.178 120.226 182.465 120.371 182.514 120.596C183.388 123.474 184.245 126.475 184.972 129.436L185.003 129.45ZM233.895 150.199C237.684 154.37 240.815 159.095 243.181 164.209C244.449 166.615 245.84 169.075 247.03 171.447C248.383 174.369 249.476 177.382 250.661 180.434L250.178 180.776C248.969 179.794 247.825 178.735 246.754 177.605C242.317 172.394 237.3 167.704 231.801 163.628C230.898 162.953 229.817 162.514 228.919 161.786C226.854 160.1 224.865 158.411 222.889 156.524C219.482 153.244 215.754 150.315 211.762 147.78C210.054 146.554 208.427 145.221 206.891 143.786C206.467 143.417 206.068 143.018 205.698 142.595C204.014 140.8 202.372 138.95 200.683 137.209C198.994 135.467 197.26 133.576 195.409 131.948C193.102 129.968 191.102 127.654 189.475 125.085C188.456 123.417 187.166 121.944 186.02 120.35C185.743 119.912 185.5 119.453 185.296 118.978C185.82 118.996 186.334 119.125 186.805 119.354C187.276 119.585 187.694 119.911 188.032 120.312C192.307 123.858 196.482 127.545 200.87 130.956C204.039 133.405 207.564 135.383 210.799 137.769C212.651 139.139 214.234 140.87 215.951 142.422C217.305 143.741 218.73 144.986 220.219 146.15C223.847 148.863 227.169 151.962 230.129 155.392C231.79 157.324 233.442 159.234 234.953 161.212C236.464 163.189 237.709 164.809 239.109 166.534C239.675 167.263 240.322 167.974 240.87 168.658C242.069 170.129 243.406 171.623 244.669 173.158C245.084 173.583 245.525 173.981 245.991 174.35C246.168 173.877 246.203 173.364 246.091 172.871C245.98 172.379 245.727 171.931 245.364 171.58C242.952 168.671 240.54 165.761 238.128 162.851C235.281 159.546 232.265 156.371 229.425 153.05C224.477 147.176 218.306 142.61 212.822 137.367C211.091 135.922 209.238 134.629 207.284 133.505C204.973 131.914 202.621 130.379 200.345 128.711C197.677 126.76 195.086 124.676 192.474 122.639C192.234 122.421 192.01 122.187 191.804 121.938L192.058 121.698C193.421 122.535 194.84 123.278 196.305 123.921C197.952 124.522 199.648 124.979 201.374 125.286C203.099 125.64 204.729 126.358 206.154 127.392C213.666 132.898 220.894 138.783 227.808 145.023C229.89 146.587 232.057 148.207 233.895 150.199ZM181.416 110.009C181.973 110.254 182.133 111.692 182.352 112.619C182.59 113.707 182.764 114.808 182.876 115.916C182.94 116.779 182.96 117.645 182.935 118.509C182.028 117.859 181.267 117.026 180.701 116.064C180.136 115.103 179.778 114.033 179.651 112.925L180.664 112.301C180.789 110.97 179.845 110.221 179.261 109.281C178.678 108.34 177.736 107.796 178.062 106.259C178.477 106.7 178.681 106.993 178.949 107.223C179.844 108.042 180.046 109.387 181.419 109.917L181.416 110.009ZM213.475 120.626C216.469 122.425 219.582 124.037 222.639 125.734C225.284 127.051 227.608 128.932 229.446 131.246C229.053 131.229 228.663 131.175 228.28 131.083C225.83 130.188 223.416 129.254 220.966 128.359C219.994 127.96 218.992 127.642 217.968 127.407C211.908 126.165 205.984 124.335 200.281 121.941C200.042 121.789 199.781 121.674 199.507 121.601C195.517 121.265 192.268 119.168 188.857 117.35C187.669 116.821 186.597 116.059 185.705 115.113C185.383 114.6 185.13 114.048 184.952 113.469L185.304 113.255C185.939 113.535 186.517 113.9 187.094 114.265C189.944 115.798 193.043 116.813 196.246 117.264C197.936 117.621 199.543 118.458 201.239 118.928C204.816 119.966 208.316 121.255 211.711 122.785C211.82 122.833 211.967 122.75 212.334 122.672C212.076 122.385 211.8 122.115 211.508 121.864C208.094 119.215 203.774 118.456 199.985 116.786C197.7 115.883 195.332 115.206 192.916 114.762C191.452 114.587 190.073 113.979 188.956 113.017C190.817 113.32 192.667 113.691 194.545 113.873C195.993 114.046 197.455 114.071 198.908 113.948C201.018 113.647 203.167 114.097 204.978 115.219C207.832 116.919 210.583 118.889 213.475 120.626ZM211.234 109.867C206.628 110.22 202.003 110.528 197.376 110.927C193.064 111.557 188.664 110.795 184.813 108.754L183.801 105.685C185.766 106.107 187.752 106.427 189.751 106.644C192.264 106.81 194.802 106.708 197.337 106.699C200.203 106.731 203.081 106.712 205.969 106.642C206.6 106.623 207.229 106.733 207.815 106.966C208.402 107.199 208.934 107.55 209.38 107.998C210.065 108.558 210.793 109.064 211.557 109.51C211.476 109.697 211.394 109.882 211.234 109.867ZM215.783 110.024C214.935 110.02 214.307 110.02 214.056 110.002L210.098 106.411C211.918 105.883 212.417 107.267 213.299 107.821C214.35 108.283 215.213 109.086 215.748 110.102L215.783 110.024ZM220.477 110.227C219.496 110.275 218.569 110.365 217.511 110.379C217.509 107.866 214.67 107.853 213.995 105.782C216.296 106.865 218.486 108.171 220.534 109.679L220.477 110.227ZM212.794 100.71C216.172 100.831 219.512 101.461 222.701 102.581C224.397 103.218 226.241 103.476 227.998 103.973C229.707 104.395 231.39 104.914 233.038 105.529C234.268 106.018 235.416 106.693 236.443 107.528C240.212 110.491 244.479 112.758 249.044 114.225C250.569 114.689 251.925 115.589 252.946 116.813L252.698 117.165C252.026 116.986 251.373 116.741 250.748 116.436C246.995 114.265 242.715 113.708 238.605 112.932C234.496 112.156 230.02 111.458 225.725 110.766C224.535 110.575 223.344 110.512 222.195 110.393C221.33 108.165 219.21 107.527 217.648 105.914C218.413 105.605 218.914 105.475 219.599 106.016C220.961 107.116 222.392 108.06 223.796 109.067C224.118 109.229 224.448 109.375 224.786 109.503C224.922 109.193 225.045 108.915 224.895 108.794C222.818 106.382 220.744 104.047 217.101 104.14C214.571 104.158 212.047 104.4 209.56 104.863C207.358 105.215 205.129 105.363 202.9 105.308C198.676 105.294 194.437 105.273 190.242 105.069C188.858 104.965 187.481 104.789 186.115 104.543L185.988 104.118C186.308 103.852 186.604 103.392 186.957 103.344C188.358 103.162 189.767 103.056 191.179 103.026C193.912 102.844 196.612 102.341 199.227 101.529C201.08 101.096 202.971 100.847 204.874 100.785C207.489 100.593 210.114 100.559 212.732 100.682L212.794 100.71ZM213.463 86.6156C214.779 85.8098 215.731 86.8765 217.192 87.0401C215.759 88.2375 215.423 88.1629 213.432 86.6025L213.463 86.6156ZM176.764 96.6735C178.423 96.9096 180.068 97.2338 181.692 97.6445C181.674 97.433 181.683 96.9939 181.679 96.2904C183.819 95.6263 186.163 94.96 188.464 94.348C191.11 93.6666 193.816 93.1415 196.448 92.3253C200.039 91.0395 203.358 89.0941 206.235 86.5891C211.246 82.7203 216.151 78.7126 221.108 74.6721C221.939 74.0039 222.626 73.1982 223.392 72.4647C227.156 69.0695 231.309 66.1312 235.764 63.7121C235.956 63.5997 236.171 63.5318 236.393 63.515C236.615 63.4974 236.838 63.531 237.046 63.612C235.918 64.7038 234.823 65.847 233.727 66.9519C229.508 71.1292 225.747 75.7442 222.507 80.7194L221.787 81.7687C220.474 83.573 220.493 83.4887 218.4 82.7881C217.531 82.4978 216.464 81.7321 215.298 83.1212C216.597 83.6931 217.743 84.1976 218.84 84.682C218.863 85.5963 218.385 86.051 217.805 85.6474C215.449 84.0371 213.555 85.2341 211.632 86.6218C208.593 88.7657 205.358 90.6184 201.972 92.1543C201.735 92.307 201.489 92.4454 201.235 92.569C195.309 94.5751 189.552 97.1183 183.346 98.2068C182.226 98.3938 181.093 98.5121 179.958 98.5611C179.219 98.605 178.914 98.8768 179.252 99.746C183.359 99.9353 187.458 99.2196 191.258 97.6485C193.829 96.675 196.437 95.8296 198.95 94.739C201.824 93.4562 204.626 91.9573 207.448 90.5411C208.271 90.1321 209.06 89.6586 209.809 89.1246C210.437 88.6039 211.233 88.3275 212.049 88.3481C212.865 88.3679 213.647 88.6823 214.249 89.234C212.904 90.3635 211.5 91.4219 210.044 92.4053C207.882 93.7063 205.622 94.8532 203.353 95.9769C202.479 96.4108 201.554 96.7357 200.601 96.9442C199.508 97.2014 198.898 98.0408 198.039 98.5666C196.51 99.4342 194.864 100.078 193.152 100.477C190.085 101.231 187.012 101.835 183.86 102.368C183.088 102.388 182.317 102.303 181.569 102.116C181.185 101.226 180.929 100.171 179.58 100.426C178.23 100.681 178.125 101.17 178.427 102.246C178.636 102.763 178.893 103.26 179.196 103.729C179.894 104.935 180.422 106.231 180.768 107.58C180.309 106.758 179.706 106.023 178.99 105.412C177.468 104.474 176.305 103.051 175.691 101.372C175.369 100.676 174.897 100.155 174.008 101C174.655 102.634 175.348 104.287 175.952 105.976C176.671 107.855 177.295 109.77 177.82 111.712C178.601 114.628 179.222 117.584 179.682 120.567C179.965 123.073 180.088 125.596 180.049 128.117C180.049 132.31 180.028 136.549 180.112 140.76C180.183 143.618 180.496 146.47 180.644 149.361C180.717 150.706 180.646 152.04 180.725 153.368C180.913 156.591 178.975 158.933 177.432 161.43C176.773 162.506 175.858 163.451 176.564 164.908L174.491 165.841C174.532 166.21 174.479 166.538 174.61 166.744C174.989 167.217 175.213 167.795 175.251 168.401C175.288 169.006 175.138 169.608 174.82 170.124C174.742 170.236 174.687 170.362 174.657 170.495C174.159 175.817 172.527 180.989 172.563 186.399C172.585 189.198 172.321 192.019 172.253 194.815C172.277 195.751 172.365 196.685 172.518 197.609C172.641 197.663 172.78 197.725 172.974 197.663C173.117 197.338 173.551 197.067 173.58 196.748C173.88 192.336 174.683 187.998 174.283 183.5C174.263 182.441 174.392 181.385 174.668 180.363C175.228 177.667 175.796 174.98 176.372 172.303C176.451 171.914 176.692 171.576 176.834 170.919L178.895 173.914C179.05 173.853 179.215 173.815 179.387 173.761C179.447 173.347 179.439 172.926 179.364 172.513C178.928 171.324 178.328 170.211 177.899 169.006C177.705 168.292 177.569 167.565 177.491 166.831C179.285 167.621 178.752 169.88 180.702 170.314C180.795 169.881 180.804 169.434 180.729 168.996C180.234 167.689 179.634 166.408 179.102 165.102C178.725 164.198 178.27 163.259 179.525 162.296L181.228 165.392C182.158 165.083 182.055 164.52 181.854 163.97C181.523 162.972 181.101 162.008 180.594 161.087C180.199 160.433 180.059 159.91 180.525 159.357C182.4 157.155 182.229 154.567 181.963 151.9C181.875 150.717 181.743 149.55 181.663 148.389L182.104 148.269L186.68 154.274C186.505 156.043 186.219 157.799 185.823 159.531C184.767 163.939 183.098 168.177 180.866 172.123C179.401 174.603 178.165 177.211 177.173 179.916C177.104 180.033 177.05 180.157 177.01 180.287C176.254 184.812 175.383 189.304 174.747 193.807C174.281 197.296 174.019 200.616 172.05 203.701C170.881 205.514 170.002 207.509 168.634 209.4C168.56 208.834 168.54 208.262 168.574 207.692C168.991 203.563 169.118 199.41 168.952 195.263C168.955 191.569 169.21 187.803 169.377 184.072C169.379 183.647 169.472 183.227 169.436 182.805C169.151 179.194 169.436 175.562 170.282 172.04C170.546 169.452 170.662 166.851 170.63 164.251C171.056 159.637 171.489 155.006 172.243 150.444C172.808 148.411 173.512 146.419 174.352 144.484C174.864 142.862 175.143 141.138 175.483 139.57L176.736 134.045C177.639 129.334 177.846 124.514 177.349 119.742C177.111 116.517 176.493 113.331 175.51 110.251C175.037 108.429 174.246 106.704 173.173 105.157C172.659 104.424 171.962 103.838 171.153 103.454C170.438 103.181 169.82 102.704 169.375 102.081C166.089 97.3983 162.338 93.0596 158.181 89.1318C156.436 87.309 154.823 85.3642 153.356 83.3123C152.718 82.562 152.029 81.8578 151.294 81.2025C148.356 78.6597 145.698 75.8111 143.365 72.7032C146.07 73.2701 148.482 74.7913 150.158 76.9893C150.47 77.5893 150.838 78.1593 151.255 78.6921C151.749 79.2051 152.349 79.562 151.954 80.459C151.668 81.1086 151.987 81.6001 152.686 81.9822C153.587 82.5264 154.438 83.1484 155.229 83.8418C157.543 85.6736 159.85 87.5215 162.172 89.3388C162.527 89.4954 162.986 89.5862 163.316 89.8432C164.429 90.2882 165.376 91.0665 166.028 92.0722C166.491 92.6833 167.117 93.1514 167.834 93.4224C168.792 93.7724 169.732 94.1742 170.647 94.6247C172.47 95.8076 174.565 96.5077 176.732 96.6596L176.764 96.6735ZM175.065 66.5748C170.666 65.6156 166.294 64.5577 161.929 63.5211C161.543 63.3507 161.156 63.1803 160.716 63.1714L147.904 60.6844C147.697 60.6553 147.5 60.5797 147.327 60.4619C147.155 60.3442 147.012 60.1883 146.91 60.0061C149.741 60.1632 152.573 60.3586 155.425 60.5073C156.965 60.576 158.503 60.6071 160.045 60.5854C162.223 60.5473 164.407 60.4564 166.582 60.3807C167.001 60.3608 167.419 60.4382 167.803 60.6074C168.187 60.7767 168.526 61.0324 168.794 61.3557C169.614 62.1787 170.541 62.8821 171.568 63.7787C172.25 62.2314 170.4 61.6934 170.654 60.2354C171.385 60.3363 172.271 60.1723 172.773 60.5413C175.342 62.4677 177.802 64.5118 180.629 66.7731C178.78 67.0867 176.887 67.019 175.065 66.5748ZM186.172 67.7754L185.847 68.2602C181.986 67.1314 179.785 63.7417 176.539 61.2586C176.954 60.9528 177.467 60.8093 177.981 60.8555C178.495 60.9008 178.974 61.1338 179.329 61.5092C181.59 63.6137 183.876 65.7045 186.187 67.7823L186.172 67.7754ZM125.726 51.2814C126.449 51.554 127.157 51.8659 127.845 52.2157C130.224 53.2753 132.724 54.0356 135.289 54.4793C137.873 55.0878 140.511 55.4333 143.165 55.5111C145.857 55.4787 148.607 55.3599 151.201 55.1735C156.232 54.6941 161.245 53.9655 166.294 53.5305C171.913 53.0308 177.576 53.5608 183.004 55.0943C185.776 55.8897 188.646 56.2499 191.42 56.9549C194.925 57.7608 198.383 58.6747 201.881 59.496C207.299 60.8903 212.945 61.1586 218.471 60.2857C218.847 60.2765 219.224 60.307 219.595 60.3747C217.614 62.2964 215.211 63.73 212.579 64.5608C209.027 65.4521 205.404 66.0898 201.802 66.7199C198.199 67.3491 194.712 67.8436 191.173 68.3718C190.409 68.5032 189.634 68.5635 188.859 68.5523C188.446 68.5308 188.055 68.359 187.76 68.0686C185.744 65.8133 183.814 63.4852 181.757 61.1938C182.09 61.0369 182.465 60.9925 182.826 61.0679C183.185 61.1431 183.511 61.3339 183.753 61.6116C184.879 62.6616 186.078 63.6702 187.276 64.6413C187.834 64.9634 188.425 65.2242 189.039 65.4183C188.653 63.401 186.733 62.9803 186.481 61.2062L191.938 61.3944C191.627 60.1314 190.624 60.1872 190.031 60.1484C187.991 59.9146 185.951 59.8095 183.917 59.6891C181.397 59.5391 178.848 59.5799 176.357 59.2392C172.511 58.7716 168.629 58.6819 164.766 58.9708C159.123 59.1999 153.652 58.7472 148.084 58.473C145.921 58.3517 143.79 57.7813 141.618 57.4707C140.237 57.2504 138.845 57.0991 137.456 56.8558C136.767 56.7459 136.094 56.561 135.446 56.3033C134.029 55.5682 132.567 54.9237 131.069 54.3748C128.357 53.6172 125.823 52.3255 123.618 50.5747C124.32 50.8282 125.041 51.0349 125.742 51.2883L125.726 51.2814ZM136.127 62.2181C137.755 63.1758 139.307 64.266 140.951 65.2305C143.491 66.7185 146.057 68.1451 148.603 69.6184C149.145 69.9318 149.662 70.2834 150.153 70.6704C153.14 72.815 156.555 74.2876 160.164 74.9889C159.979 74.6937 159.744 74.433 159.468 74.2205C157.541 73.1867 155.602 72.222 153.654 71.2341C152.943 70.9209 152.232 70.6069 151.583 70.1926C147.27 67.4051 142.86 64.5018 138.465 61.7342C137.31 61.003 136.09 60.3736 134.892 59.6975C133.995 59.303 133.098 58.9076 132.264 58.4103L132.496 57.8848C132.988 58.0108 133.449 58.2342 133.853 58.5422C134.256 58.8503 134.594 59.2364 134.846 59.6775L134.954 59.7252C135.164 59.6694 135.42 59.5056 135.553 59.5824C140.316 62.1434 145.024 64.7902 149.821 67.2738C152.626 68.749 155.566 69.9154 158.404 71.3131C160.978 72.5956 163.492 74.0177 166.048 75.3837C167.547 76.1735 168.862 76.9194 170.298 77.6439C172.681 78.8605 175.113 80.0058 177.48 81.2146C177.951 81.4863 178.318 81.9086 178.522 82.4132C176.623 82.1121 174.725 81.8484 172.824 81.5097C168.274 80.6868 163.723 79.864 159.176 78.9499C156.02 78.4545 153.077 77.0485 150.707 74.9046C148.538 72.7847 145.742 71.7932 143.21 70.2892C142.576 70.0098 142.003 69.5917 141.423 69.1881C138.919 67.4933 136.408 65.8146 133.954 64.0494C132.409 62.9439 130.963 61.6974 129.358 60.4363C127.945 61.4206 126.989 60.4459 126.142 59.3517C124.499 57.1687 122.9 54.9306 121.076 52.4462C123.171 53.0775 125.063 54.2485 126.561 55.8423C127.886 57.2073 129.379 58.3984 131.002 59.3878C132.62 60.452 134.453 61.2405 136.143 62.2251L136.127 62.2181ZM154.645 33.2706C154.139 33.3132 153.629 33.2637 153.14 33.1244C151.051 31.9591 149.237 30.3597 147.818 28.4339C150.618 29.2058 152.256 31.6084 154.772 32.7724L154.645 33.2706ZM155.871 32.1666C154.253 30.8074 152.664 29.4241 151.076 28.0408C150.875 27.9522 150.879 27.5661 150.716 27.1804C151.131 27.1602 151.466 27.0304 151.623 27.1363C153.939 28.7113 156.218 30.288 158.708 32.0133C157.66 32.7152 156.786 32.9394 155.917 32.187L155.871 32.1666ZM113.704 22.3972C118.5 21.74 123.396 21.7363 128.262 21.4239C129.314 21.4597 130.366 21.4235 131.413 21.3161C136.112 20.376 140.8 21.2226 145.498 21.3346C149.563 21.3566 153.623 20.9996 157.622 20.2678C161.125 19.7795 164.561 19.1508 168.079 18.6692C169.311 18.5476 170.552 18.5379 171.786 18.6402C174.45 18.7981 177.108 19.1381 179.775 19.2051C182.611 19.5576 185.357 20.4296 187.877 21.7775C179.071 27.1327 169.514 29.0356 160.348 31.8125L153.957 26.4475C155.431 26.7653 156.8 27.4511 157.937 28.441C159.121 29.1477 160.299 29.8699 161.563 30.6485C162.126 29.9173 161.879 29.5131 161.26 29.074C160.002 28.2419 158.824 27.296 157.739 26.2483C159.201 26.3911 160.568 27.0328 161.612 28.0655C162.153 28.5993 162.663 28.9905 163.548 28.1982C162.589 27.3141 161.703 26.5172 160.436 25.368C163.15 24.8272 165.295 24.4428 167.595 23.9601C167.513 23.0559 166.723 22.837 165.881 22.9462C164.565 23.1237 163.281 23.4814 161.969 23.7344C160.116 24.0819 158.24 24.4001 156.387 24.7476C154.535 25.095 152.808 25.3683 151.067 25.839C149.327 26.3096 147.123 27.2039 145.113 27.7406C144.096 28.0092 143.043 28.1065 141.994 28.0286C138.125 27.8385 134.259 27.5573 130.409 27.2831C127.666 27.2015 124.953 26.7033 122.36 25.8053C120.351 25.2143 118.25 24.9959 116.161 25.161C112.448 25.2055 108.566 25.3792 104.768 25.5715C103.294 25.8036 101.79 25.7665 100.328 25.4622C105.025 24.3179 109.305 22.9896 113.75 22.4177L113.704 22.3972ZM52.3066 11.2476C51.8446 10.8304 51.5434 10.265 51.454 9.64887C51.3646 9.03276 51.4932 8.40476 51.8174 7.87346C51.9754 7.68434 52.1732 7.53218 52.397 7.42767C52.6201 7.32305 52.864 7.26871 53.1105 7.26823C53.3571 7.26774 53.6005 7.32125 53.8243 7.42494C54.0481 7.52871 54.2462 7.68006 54.4052 7.86857C54.7994 8.27746 55.0261 8.81821 55.0425 9.38557C55.0589 9.95285 54.864 10.5061 54.4939 10.9368C53.7913 11.7355 52.9644 11.8513 52.3534 11.2681L52.3066 11.2476ZM72.2616 21.0005C69.273 19.148 66.296 17.2268 63.203 15.5685C60.9273 14.3624 58.4858 13.4899 55.9701 12.4922L57.008 9.25554C57.4942 9.38574 57.9684 9.55764 58.426 9.76934C60.2773 10.8068 62.0726 11.9304 63.9239 12.9678C68.1574 15.3502 72.39 17.7325 76.6572 20.0374C77.6215 20.5732 78.816 20.7118 79.8256 21.2304C81.7268 22.1974 83.5596 23.319 85.4562 24.3392C86.0489 24.6878 86.6986 24.9302 87.3752 25.0556C88.7467 25.2537 90.1712 25.2904 91.5482 25.4352C93.2376 25.4675 94.9049 25.8258 96.4585 26.4905C97.4989 26.9173 98.6073 27.1555 99.7316 27.194C101.345 27.3799 102.966 27.4778 104.59 27.4874C106.678 27.4842 108.759 27.3299 110.858 27.2202L117.023 26.8521L121.441 30.8676C122.215 29.3617 120.553 28.9432 120.345 27.9467C122.178 27.6458 122.342 27.6073 124.408 29.6258C125.443 30.6729 127.027 31.3526 127.324 33.2378L128.907 33.1229C129.003 30.8933 126.464 30.661 125.919 28.7956C126.275 28.6915 126.651 28.6796 127.013 28.7614C127.374 28.8431 127.709 29.0157 127.985 29.2627C129.214 30.4137 130.362 31.6217 131.619 32.7109C131.944 33.0395 132.353 33.2712 132.802 33.3798C133.494 33.475 134.191 33.5169 134.889 33.5054C133.423 32.1388 131.956 30.7723 130.482 29.4211L130.86 28.9412C133.833 28.6072 134.884 31.3789 136.782 32.8986C137.424 32.8674 137.614 32.4343 137.309 31.9118C136.7 30.9047 135.972 29.9562 135.04 28.6772C137.72 28.842 140.146 29.0797 142.708 29.1745C143.729 31.0289 145.38 32.457 147.362 33.2012C148.569 31.8862 146.591 31.6797 146.612 30.71C148.238 31.2516 149.703 32.1894 150.877 33.4389C149.73 34.4481 148.389 34.0973 147.251 34.039C143.681 33.7842 140.097 33.8168 136.531 34.1367C136.054 34.1138 135.58 34.0353 135.12 33.9027C133.456 34.6403 131.608 34.862 129.816 34.5392C128.217 34.3729 126.627 34.1167 125.056 33.7719L119.333 32.8016C114.305 32.4334 109.293 32.0718 104.312 31.4287C102.454 31.0259 100.646 30.4211 98.9189 29.6249C95.5373 28.2477 92.0142 27.2467 88.413 26.6397C87.7349 26.544 86.9914 26.8073 86.3471 26.6344C84.5122 26.103 82.2997 26.347 80.8238 25.4197C78.1155 23.7277 75.0389 22.7045 72.3076 21.0209L72.2616 21.0005ZM94.9343 42.6087C93.3214 39.4786 91.5615 36.4309 89.7838 33.3389C89.3783 32.6245 88.8608 31.9534 88.1589 30.9053C88.6102 31.036 89.0423 31.2263 89.4428 31.4709C91.9396 33.4254 94.0049 35.8761 95.5069 38.6681C96.3862 40.304 97.3784 41.877 98.4755 43.3748C101.561 48.6653 104.295 54.1518 106.661 59.8002C106.772 60.0566 106.865 60.3203 106.941 60.5882L106.648 60.9206C106.268 60.6879 105.908 60.4245 105.572 60.1327C104.179 58.5584 102.758 57.046 101.451 55.3615C101.021 54.8246 100.66 54.2375 100.374 53.6126C98.5598 49.9321 96.8371 46.2548 94.981 42.6295L94.9343 42.6087ZM97.0871 53.5686C96.7397 52.0299 96.5016 50.4684 96.3752 48.8958L96.8543 48.7737C97.0583 49.3999 97.3146 49.9925 97.4811 50.6202C97.6476 51.2479 97.5101 51.6861 97.755 52.0526C101.496 57.3953 103.225 63.6979 105.611 69.6441C106.75 72.5103 107.509 75.5232 108.608 78.3525C109.707 81.1826 110.893 83.94 112.05 86.7217C112.564 87.946 113.064 89.2001 113.651 90.3829C113.995 90.9215 114.392 91.4241 114.837 91.8835C115.308 92.3312 115.702 92.8544 116.002 93.4316C116.817 95.4231 117.949 97.2702 119.356 98.8989C120.233 100.412 121.002 101.986 121.658 103.607C122.273 104.874 122.993 106.087 123.81 107.234C124.368 107.797 125.087 108.172 125.868 108.307C128.259 112.156 130.636 115.999 132.997 119.834L132.653 120.07C131.204 118.287 129.755 116.503 128.329 114.71L118.796 102.809C116.653 100.019 114.823 97.0017 113.341 93.8112C110.541 88.0516 107.727 82.3235 105.045 76.5051C101.874 69.0612 99.2301 61.4033 97.1339 53.5886L97.0871 53.5686ZM93.8874 137.123C94.1531 137.357 94.3987 137.614 94.6209 137.889C95.6977 139.638 96.8464 141.474 98.0519 143.224C98.841 144.366 99.8073 145.401 100.693 146.493L102.365 148.653C102.639 149.083 102.937 149.498 103.257 149.895C108.725 155.888 113.585 162.425 119.61 167.906C120.826 169.176 121.96 170.522 123.008 171.934C125.419 174.844 127.796 177.498 130.121 180.313C130.998 181.386 131.717 182.579 132.253 183.857L131.647 184.31C131.266 183.958 130.866 183.652 130.53 183.282C128.502 180.924 126.465 178.561 124.418 176.194C123.212 174.739 121.923 173.136 120.589 171.68C118.933 169.861 117.126 168.178 115.54 166.371C113.371 163.957 111.283 161.485 109.218 159.005C106.437 155.674 103.822 152.176 100.919 148.957C98.1576 145.865 95.8415 142.4 94.0386 138.667C93.9158 138.431 93.8439 138.173 93.8271 137.908C93.8103 137.643 93.8488 137.377 93.9411 137.127L93.8874 137.123ZM120.413 32.4464L119.366 32.853C119.174 32.6579 118.991 32.4475 118.463 31.8828C119.401 32.0188 119.895 32.0705 120.399 32.1444L120.413 32.4464Z" fill="#101A24"/>
</svg>
