<svg width="111" height="115" viewBox="0 0 111 115" fill="none" xmlns="http://www.w3.org/2000/svg">
<path fill-rule="evenodd" clip-rule="evenodd" d="M8.3229 79.5397C8.8785 80.5928 9.50596 81.6064 10.2008 82.5732C10.8453 83.5067 11.6898 84.3178 12.2677 85.2957C13.3224 87.1258 14.653 88.7824 16.2124 90.2072C17.857 91.6851 19.2015 93.463 21.2128 94.5631C22.6558 95.3764 23.9733 96.3944 25.1242 97.5856C27.7683 100.008 30.6931 102.104 33.836 103.83C36.3768 105.38 39.0244 106.746 41.7589 107.92C45.637 109.587 49.604 111.031 53.5598 112.509C54.3823 112.736 55.2293 112.863 56.0822 112.887C57.4379 113.02 58.8047 113.098 60.1604 113.231C61.0049 113.32 61.8383 113.509 62.6939 113.565C65.9275 113.809 69.1722 113.954 72.4058 114.242C75.3781 114.469 78.3672 114.301 81.2954 113.742C82.1344 113.584 82.9861 113.502 83.84 113.498C87.486 113.52 91.0977 112.794 94.452 111.364C95.8743 110.787 97.3744 110.42 98.8968 109.964C99.6208 109.808 100.331 109.593 101.019 109.32C103.242 108.209 105.464 107.186 107.52 105.897C108.578 105.424 109.474 104.652 110.098 103.675C110.616 102.476 110.815 101.163 110.675 99.8635C110.692 99.3752 110.601 98.8891 110.409 98.4398C110.217 97.9904 109.929 97.5888 109.564 97.2633C108.896 96.5562 108.265 95.8144 107.675 95.0409C106.431 93.5519 105.286 91.974 103.93 90.5961C101.018 87.7812 98.3696 84.7051 96.0188 81.4065C94.8298 79.6397 93.5963 77.784 92.2296 76.0061C90.0072 73.0392 87.6736 70.15 85.429 67.1831C85.1062 66.5813 84.8669 65.9383 84.7178 65.2719C84.1067 65.2719 83.6067 64.8496 83.0288 64.1607C81.2183 62.1398 79.5335 60.0097 77.984 57.7824C75.3282 53.8599 72.428 50.1373 69.5944 46.3148C68.8944 45.3481 68.3166 44.3035 67.5943 43.3479C64.6865 39.5847 62.11 35.5769 59.8937 31.3692C59.1603 29.958 58.2491 28.6356 57.3824 27.2911C56.3823 25.7021 55.3377 24.1353 54.3154 22.5574C53.3832 20.984 52.3707 19.4597 51.2819 17.9903C49.0901 15.1946 47.1351 12.2211 45.437 9.10075C43.6813 6.03384 42.1034 2.78914 38.6253 1.18901C38.5198 1.1536 38.427 1.0879 38.3586 1.00011C37.7808 -0.299998 36.6696 2.61897e-05 35.6917 0.0889221C34.6055 0.190599 33.5372 0.433403 32.5137 0.811202C28.5965 2.12721 24.9353 4.10819 21.6906 6.66722C19.0793 8.78961 16.668 11.112 14.2011 13.4455C12.5479 14.7449 11.0557 16.2371 9.75635 17.8903C7.57627 21.177 5.64838 24.6242 3.98923 28.2023C2.07653 31.9739 0.835651 36.05 0.322269 40.2477C0.107437 42.5293 2.08262e-05 44.811 2.08262e-05 47.0927C-0.0614745 48.6865 0.0278185 50.2826 0.266709 51.8597C0.744524 54.7155 1.44458 57.549 2.03352 60.4048C2.26687 61.516 2.37799 62.7717 2.67801 63.9273C3.1336 65.6386 3.78921 67.2609 4.21147 69.0055C5.14004 72.6737 6.52111 76.2123 8.3229 79.5397Z" fill="white"/>
</svg>
