<svg width="28" height="21" viewBox="0 0 28 21" fill="none" xmlns="http://www.w3.org/2000/svg">
<path d="M25.1337 0.421875H2.42187C1.08376 0.421875 0 1.54754 0 2.92188V17.9219C0 19.3044 1.09173 20.4219 2.42187 20.4219H25.1337C26.4606 20.4219 27.5556 19.3091 27.5556 17.9219V2.92188C27.5556 1.54999 26.4761 0.421875 25.1337 0.421875ZM24.7945 2.08854L15.4903 11.6423C15.0328 12.1145 14.4247 12.3745 13.7778 12.3745C13.1309 12.3745 12.5227 12.1144 12.0637 11.6407L2.76104 2.08854H24.7945ZM1.61458 17.5827V3.26215L8.59163 10.4263L1.61458 17.5827ZM2.76207 18.7552L9.73637 11.6017L10.9236 12.8208C11.686 13.6078 12.6996 14.0412 13.7778 14.0412C14.8559 14.0412 15.8696 13.6078 16.6305 12.8223L17.8192 11.6017L24.7935 18.7552H2.76207ZM25.941 17.5827L18.9639 10.4263L25.941 3.26215V17.5827Z" fill="#DDBC7A"/>
</svg>
