<svg width="122" height="111" viewBox="0 0 122 111" fill="none" xmlns="http://www.w3.org/2000/svg">
<path d="M84.8404 0.0668882C82.9124 0.790988 81.1261 1.84715 79.5625 3.18752C79.0434 3.73525 78.4758 4.23479 77.8665 4.67999C76.5773 5.48481 75.66 6.7681 75.3157 8.24837C75.197 9.07557 74.9971 9.88906 74.7187 10.677C74.495 11.1037 74.3966 11.585 74.435 12.0652C74.4734 12.5454 74.6471 13.005 74.9358 13.3906C75.4378 14.1233 75.872 14.8967 76.2926 15.6565C76.6047 16.1992 76.5911 16.7148 75.9398 17.0133C75.2886 17.3118 75.465 17.5695 75.6685 18.0309C75.8042 18.3612 75.8042 18.7317 75.6685 19.062C74.9494 20.663 74.1082 22.2098 73.4569 23.8244C72.4238 26.0195 71.1883 28.1135 69.7664 30.0792C69.0745 31.1646 68.0433 32.0194 67.2835 33.0506C65.9267 34.9094 64.3121 36.5647 62.996 38.4778C60.8251 41.612 58.3422 44.4884 55.9271 47.4733C53.9021 50.096 52.2239 52.969 50.9341 56.0211C50.405 57.2558 49.7808 58.4498 49.1974 59.6438C48.1527 61.8011 47.0808 63.9312 46.0903 66.0886C45.4119 67.5403 44.8828 69.0464 44.2315 70.4981C43.4582 72.2213 42.6441 73.9173 41.8164 75.6133C40.5817 78.1776 39.442 80.7826 38.0581 83.2656C35.8473 86.8829 33.1389 90.1714 30.0123 93.0345C29.7499 93.3024 29.4297 93.5066 29.0761 93.6315C26.6701 94.3642 24.255 95.0742 21.8308 95.7617C20.8201 95.9598 19.8822 96.4287 19.1172 97.1185C17.7605 98.4753 16.3223 99.8321 14.9519 101.27C14.2933 101.973 13.4286 102.448 12.4825 102.627C11.7837 102.775 11.077 102.884 10.3659 102.953C9.75536 102.953 9.1448 102.831 8.53424 102.871C7.6856 102.962 6.89687 103.351 6.3091 103.97C5.81305 104.525 5.21992 104.985 4.55883 105.327C3.22421 105.917 2.05481 106.825 1.15328 107.973C0.71257 108.575 0.326607 109.215 0 109.886C1.07187 110.279 1.81811 110.537 2.71359 110.117C3.60908 109.696 4.84376 109.167 5.91563 108.665C7.19617 107.942 8.60736 107.481 10.0674 107.308C11.7409 107.217 13.4187 107.249 15.0876 107.403C15.7791 107.484 16.48 107.405 17.1363 107.172C18.2171 106.707 19.2414 106.12 20.1891 105.422C21.1835 104.581 22.3731 104.002 23.6489 103.74C24.9301 103.521 26.233 103.457 27.5294 103.55C30.5415 103.821 33.54 104.215 36.5385 104.635C39.6242 105.206 42.7688 105.393 45.9004 105.191C47.8677 104.988 49.8351 104.934 51.7889 104.73C53.721 104.647 55.6352 104.323 57.4874 103.767C57.8963 103.672 58.3172 103.64 58.7357 103.672C60.4588 103.672 62.1819 103.672 63.8915 103.536C65.8453 103.373 67.7855 102.993 69.7393 102.749C72.2987 102.321 74.7898 101.554 77.1474 100.47C80.1323 99.2486 83.063 97.9054 86.0073 96.5893C87.1322 96.1454 88.221 95.6147 89.2636 95.0019C91.5159 93.5501 93.7681 92.0983 95.9119 90.5244C98.0556 88.9506 100.593 87.743 102.167 85.4636C102.228 85.3558 102.317 85.2666 102.424 85.2058C103.284 84.7137 103.993 83.9958 104.473 83.1299C104.617 82.9237 104.775 82.7286 104.948 82.5465C106.549 80.9239 108.019 79.1772 109.344 77.3228C111.357 74.7994 113.223 72.1629 114.934 69.4263C116.355 67.2409 117.482 64.8778 118.285 62.3981C118.652 60.9463 119.194 59.5217 119.642 58.0699C120.212 56.1025 120.836 54.1216 121.216 52.1136C121.828 49.2492 121.91 46.2971 121.46 43.4029C121.189 41.8019 121.135 40.1602 120.918 38.532C120.782 37.5416 120.443 36.5783 120.334 35.5742C119.983 33.2912 119.33 31.0647 118.394 28.9531C117.553 26.6736 116.576 24.4349 115.83 22.1691C115.44 20.756 114.708 19.4605 113.699 18.3972C113.318 18.005 112.969 17.583 112.655 17.1354C111.075 14.6592 109.11 12.4514 106.834 10.5956C105.477 9.60516 104.351 8.18052 102.574 7.75992C102.514 7.74366 102.459 7.71458 102.412 7.67473C102.366 7.63488 102.328 7.58522 102.302 7.52926C101.733 6.28101 100.444 5.73829 99.5888 4.81567C99.4177 4.63038 99.1874 4.51045 98.9375 4.47647C97.7291 4.1288 96.4773 3.95519 95.2199 3.96089C94.3776 4.03887 93.5386 3.78035 92.8862 3.24179C91.1045 1.96106 89.1179 0.992949 87.0113 0.378951C86.3355 0.0589914 85.579 -0.0497632 84.8404 0.0668882ZM84.949 2.2649L86.3058 4.57145C85.1661 4.57145 84.949 3.48601 84.067 3.21465C83.4701 4.4222 85.1796 4.57145 84.9761 5.52121C84.3655 5.91468 84.0399 5.33125 83.6193 5.01919C83.2254 4.62895 82.854 4.21673 82.5067 3.78451L84.949 2.2649ZM81.7334 17.5424C81.552 17.0083 81.1865 16.5562 80.7022 16.267C80.0374 15.7921 79.2097 15.4394 79.0469 14.4761C79.0339 14.4172 79.0076 14.3622 78.9699 14.3151C78.9323 14.2681 78.8844 14.2303 78.8298 14.2047C77.8665 13.974 77.6223 13.065 77.1745 12.4002C76.7953 11.7832 76.6059 11.0683 76.6301 10.3446C76.6542 9.62077 76.8907 8.92009 77.3102 8.32977C77.4052 8.69611 77.473 9.06244 77.5951 9.41521C77.678 9.69218 77.8217 9.94714 78.0157 10.1614C78.1107 10.27 78.3821 10.1614 78.5856 10.1614C78.5856 9.98506 78.5856 9.82225 78.5178 9.64586L77.8665 7.52926C78.5251 6.79893 79.3484 6.23613 80.268 5.88754C79.956 5.88754 79.766 5.64332 80.0781 5.41266C80.7293 4.91065 81.4349 4.46291 82.0726 4.05587C82.5203 4.70713 82.9138 5.23628 83.2665 5.8197C83.3577 6.04806 83.3993 6.29316 83.3886 6.5388C83.1387 6.49151 82.8966 6.40929 82.6695 6.29458C82.2854 5.96557 81.9186 5.61686 81.5705 5.24985L80.2137 5.95538C81.4756 5.88754 82.2218 6.74232 81.9504 8.19409L80.5937 6.59307C79.671 6.51167 80.4851 7.48856 79.9695 7.73278C79.5451 7.98034 79.1413 8.26165 78.762 8.574C78.667 8.92676 78.572 9.30667 78.4771 9.68657C78.7262 9.71452 78.9577 9.82893 79.1312 10.0099C79.3047 10.1909 79.4093 10.4269 79.4268 10.677C79.5353 12.4816 80.9328 13.5399 81.7605 14.9238C81.9424 15.1882 82.0885 15.4757 82.1947 15.7786C82.262 16.0169 82.3776 16.2387 82.5343 16.4304C82.6911 16.6221 82.8856 16.7794 83.1057 16.8927C83.3259 17.006 83.567 17.0727 83.8141 17.0888C84.0612 17.1049 84.3089 17.0699 84.5419 16.9861C84.0289 16.9263 83.5458 16.713 83.156 16.3741C82.7663 16.0351 82.4879 15.5864 82.3575 15.0866C83.1987 15.6158 83.85 15.9957 84.4605 16.4434C84.5691 16.5248 84.4605 16.7962 84.5419 16.9997C85.2395 17.0894 85.9417 17.1393 86.645 17.1489C87.3779 17.0954 88.1072 17.0003 88.8294 16.864L90.1862 19.0213L89.0058 19.3062C88.8701 18.2751 88.5309 17.5153 87.459 17.4339C87.459 18.1394 87.459 18.1394 87.9068 19.1163C87.6083 19.3741 87.3641 19.6183 87.052 19.1163C86.5742 18.4683 85.9918 17.9043 85.3289 17.4474C85.3289 18.1123 85.3289 18.4515 85.3289 18.9128L84.5826 18.2479C84.4198 18.3972 84.2299 18.4922 84.1485 18.655C84.1049 18.752 84.0399 18.8378 83.9585 18.9062C83.877 18.9745 83.7812 19.0236 83.6781 19.0497C83.575 19.0758 83.4674 19.0782 83.3632 19.0569C83.2591 19.0355 83.1611 18.9909 83.0766 18.9263C82.5004 18.6099 82.0325 18.1278 81.7334 17.5424ZM93.8631 11.3147C92.5607 12.4593 91.1093 13.4223 89.5485 14.1776C89.0486 14.3994 88.508 14.5149 87.9611 14.5168C89.9227 13.2914 91.673 11.7564 93.144 9.9715C92.6827 9.90366 92.3978 9.76798 92.2485 9.86295C91.6387 10.1417 91.09 10.5383 90.6339 11.0298C89.4678 12.352 88.009 13.3834 86.3736 14.0419C85.8196 14.3414 85.238 14.5867 84.6369 14.7745C84.3384 14.8831 83.9585 14.9781 83.8228 14.3811L87.9746 11.966C88.0832 11.8981 88.2324 11.871 88.3002 11.776C88.9244 10.9213 89.5349 10.0529 90.2947 8.98103C90.0035 9.02663 89.7203 9.11343 89.4535 9.23883C88.8837 9.65943 88.341 10.1072 87.7982 10.5956C86.7394 11.4625 85.5603 12.1709 84.2977 12.6987C83.8635 12.9022 83.3344 12.8208 82.9409 13.4178C82.5474 14.0147 82.154 13.1328 81.8012 12.7801C84.3927 10.6635 87.5676 9.48305 89.6435 6.62021C90.6068 7.09509 91.7329 7.43429 92.2621 8.6554C92.436 8.94478 92.6782 9.18705 92.9676 9.36094L95.5455 11.3012L94.5958 12.1966C94.5958 11.7082 94.5958 11.4504 94.5958 11.0705C94.3386 11.1063 94.0903 11.1891 93.8631 11.3147ZM110.972 24.7741C110.972 25.1947 110.972 25.6289 110.877 26.0495H110.715L110.28 25.0862C110.525 24.9641 110.742 24.8284 110.972 24.7199L111.841 23.8786C112.546 24.9777 112.546 24.9777 111.841 25.5339L110.918 24.7199L110.972 24.7741ZM103.7 29.143L105.559 29.2516C105.722 30.0114 105.857 30.6084 106.006 31.4224L103.958 31.1104C103.89 30.5405 103.808 29.93 103.7 29.143ZM102.628 30.9204C101.99 30.5405 101.963 30.4048 102.235 28.9938C102.709 29.835 102.709 29.835 102.628 30.9204ZM93.8088 40.2959L92.1671 40.1331L93.5239 41.2863C93.5239 41.6798 93.4018 42.0868 93.3204 42.6431L90.7425 41.5848C91.2038 42.6838 92.3435 42.9416 93.0355 43.7014C93.0355 44.217 92.8998 44.7326 92.7912 45.3974L89.2771 43.5386L91.1767 37.4873C92.0586 37.935 92.8591 38.2878 93.6053 38.722C94.3516 39.1562 94.0395 39.6853 93.8088 40.2959ZM95.844 41.5034L94.6229 40.8657C94.6229 40.418 94.745 40.0245 94.7993 39.631C96.3325 39.7803 96.4953 40.0924 95.844 41.5034ZM94.4058 42.0461C95.8712 42.4532 95.8847 42.4532 95.5455 43.9185L94.1887 43.213C94.2566 42.711 94.338 42.3582 94.4058 42.0461ZM94.0531 44.2713L95.4099 44.8547C95.2742 45.3567 95.1249 45.8587 94.9621 46.4557C94.4737 46.2251 94.0666 46.0351 93.6053 45.7909C93.7274 45.2075 93.8767 44.7597 94.0531 44.2306V44.2713ZM95.3013 36.4426C96.3189 36.6054 96.4546 36.7139 96.4817 37.5958C96.4817 38.125 96.4817 38.6542 96.4817 39.3597C94.8264 38.2471 94.8264 38.2471 95.3013 36.4019V36.4426ZM94.0259 37.7994C92.9405 37.4602 92.8998 37.2431 93.4289 35.3436L94.5144 35.737L94.0259 37.7994ZM92.0993 36.9853C91.5973 37.0531 91.3123 36.9175 91.353 36.4833C91.5294 34.0275 91.7194 31.5717 91.9229 28.9395C92.737 29.3737 92.5606 29.8893 92.5877 30.2963C92.5334 31.1276 92.5334 31.9615 92.5877 32.7928C92.7098 33.5526 92.1535 34.1496 92.3164 34.9501C92.3491 35.6088 92.2758 36.2684 92.0993 36.9039V36.9853ZM95.437 34.9637C95.437 34.2446 96.0068 34.2717 96.5767 34.0275C96.5767 34.5838 96.5767 35.0858 96.5767 35.6828C95.9797 35.4928 95.4913 35.4792 95.437 34.8823V34.9637ZM94.338 34.7059C93.2661 34.4345 92.9812 33.9732 93.3611 32.6978C94.7586 33.2134 94.7722 33.2541 94.338 34.6245V34.7059ZM95.4777 31.0968C96.8345 31.6531 96.8345 31.6802 96.3596 33.3084C95.0435 32.8742 96.0204 31.6667 95.4777 31.0154V31.0968ZM94.5415 32.2229C93.4696 32.2229 93.334 32.033 93.4154 31.1646C93.4154 30.7169 93.5375 30.2692 93.6189 29.7264C94.8807 30.3913 94.9757 30.3641 94.5415 32.1415V32.2229ZM95.5727 28.9666C96.3189 28.9666 96.4274 29.4279 96.4139 30.1606C95.7083 29.835 95.2877 29.6315 95.5727 28.8852V28.9666ZM94.5144 29.333L93.4154 28.831C93.4832 28.4239 93.5375 28.0711 93.5918 27.7048C94.7043 27.9626 94.7043 27.9626 94.5144 29.2516V29.333ZM96.1018 26.6194L96.2375 28.1119C95.3556 27.3113 95.3556 27.3113 96.1018 26.5244V26.6194ZM94.8536 27.1485C94.587 27.1044 94.324 27.0409 94.0666 26.9586C93.9165 26.8924 93.7714 26.8153 93.6325 26.7279C93.6189 26.5201 93.6189 26.3116 93.6325 26.1038C93.6863 25.847 93.7542 25.5933 93.836 25.344C94.8129 25.4661 94.6636 26.2395 94.8536 27.1214V27.1485ZM92.5334 28.3018H92.2621C92.2621 27.0671 92.3978 25.846 92.4927 24.3535C92.8702 25.6083 92.8843 26.9444 92.5334 28.2068V28.3018ZM93.6189 20.5952H93.931C94.3161 21.9162 94.4856 23.2906 94.433 24.6656C94.1209 24.4621 93.8224 24.3671 93.8088 24.245C93.7139 23.051 93.6189 21.7892 93.6189 20.5952ZM92.7505 23.8922C92.4385 23.6751 92.1942 23.6073 92.1942 23.4987C92.0875 22.3218 92.2214 21.1354 92.5877 20.0118C93.0546 21.2553 93.1069 22.6165 92.737 23.8922H92.7505ZM95.1928 21.6942C95.697 22.7536 95.881 23.9373 95.7219 25.0998C95.1957 24.0472 95.0107 22.8568 95.1928 21.6942ZM97.9064 20.9344C98.7476 20.663 99.1275 20.9344 99.2632 21.762L98.4219 22.1827C98.5712 22.3455 98.639 22.4811 98.7204 22.4811C98.9524 22.4746 99.1789 22.5519 99.3584 22.699C99.5378 22.846 99.6582 23.0529 99.6973 23.2817C100.05 24.8555 100.444 26.4294 100.851 28.1661L99.3717 28.4375C98.9104 25.9274 98.4219 23.4852 97.9335 20.9751L97.9064 20.9344ZM90.5525 16.267C90.9189 17.0811 91.2445 17.8409 91.5837 18.6007L91.353 18.75L89.7384 16.5927L90.5525 16.267ZM84.9083 16.4841C85.3557 16.2168 85.8575 16.0536 86.3766 16.0067C86.8957 15.9597 87.4186 16.0301 87.9068 16.2128C87.4875 16.5422 86.9842 16.7473 86.4541 16.8049C85.9241 16.8624 85.3885 16.7701 84.9083 16.5384V16.4841ZM97.445 19.6319C97.2551 19.0756 96.9566 18.4786 97.6757 17.7866L98.7204 19.7811C97.7978 20.4053 97.6893 20.3374 97.445 19.6861V19.6319ZM102.316 20.2424C103.021 19.9846 103.211 20.5138 103.51 21.2329C102.872 21.2329 102.357 21.7078 102.153 20.9344C102.072 20.7987 102.18 20.3374 102.316 20.3374V20.2424ZM100.796 21.6942C100.213 21.5992 100.186 21.1515 100.132 20.7037C100.986 20.7716 100.986 20.7716 100.796 21.6942ZM106.224 23.2003C105.382 23.2003 105.396 22.5897 105.125 22.2912C105.125 22.5897 105.125 22.9018 105.247 23.3631L102.845 23.6209L102.506 22.2641C103.198 22.2641 103.741 21.7756 104.31 22.3997C104.419 22.5219 104.84 22.3997 105.125 22.3048L105.627 22.047L106.224 23.2003ZM106.902 22.2369C107.404 22.5626 107.417 22.549 107.811 23.2681C107.187 23.051 107.187 23.051 106.97 22.2912L106.902 22.2369ZM103.496 25.6289L103.062 24.5435C105.152 23.743 105.898 23.9736 106.291 25.4797C105.518 25.9003 105.599 25.0048 105.138 24.7199C105.046 25.0493 104.832 25.3316 104.54 25.5103C104.248 25.6889 103.9 25.7507 103.564 25.6832L103.496 25.6289ZM102.085 25.7646C101.895 25.7646 101.597 25.7646 101.556 25.7646C101.4 25.4511 101.273 25.1241 101.176 24.7877C101.529 24.4621 101.787 24.5028 101.909 24.8555C101.993 25.153 102.052 25.4571 102.085 25.7646ZM100.959 23.7294C100.82 23.3508 100.715 22.9602 100.647 22.5626C101.353 22.6847 101.855 23.458 101.543 23.7837C101.449 23.8251 101.348 23.843 101.246 23.8359C101.144 23.8288 101.046 23.7969 100.959 23.743V23.7294ZM107.879 24.2586C108.706 24.3671 108.72 24.3807 108.761 25.5204C107.811 25.5746 107.811 25.5746 107.879 24.2721V24.2586ZM101.76 26.5108C101.927 26.577 102.075 26.683 102.191 26.8198C102.308 26.9565 102.389 27.1197 102.428 27.2951C102.467 27.4705 102.462 27.6528 102.414 27.8259C102.366 27.999 102.277 28.1578 102.153 28.2882C101.972 28.0331 101.845 27.7444 101.777 27.4392C101.71 27.134 101.704 26.8184 101.76 26.5108ZM106.563 29.4686C107.689 28.8445 108.313 29.1159 108.639 31.4224C107.105 31.7752 106.861 31.5581 106.522 29.4686H106.563ZM109.833 31.029C109.738 30.5948 109.561 30.1742 109.371 29.5908L110.335 29.333C110.772 30.0089 111.012 30.7938 111.027 31.5988C110.362 31.8159 109.9 31.7752 109.792 31.029H109.833ZM103.659 28.4782C103.659 27.7455 103.564 27.2435 103.523 26.5922L105.016 26.4566C105.125 27.0943 105.219 27.6098 105.328 28.3154L103.659 28.4782ZM105.925 26.6058C106.136 26.5029 106.376 26.4792 106.603 26.539C106.83 26.5988 107.027 26.7381 107.16 26.9314C107.662 27.5556 107.702 27.6098 107.526 28.5053H106.454C106.278 27.8269 106.101 27.2028 105.925 26.538V26.6058ZM108.801 28.4782C108.611 27.8812 108.422 27.2571 108.232 26.6194C109.588 26.3887 110.118 26.9043 110.09 28.6681L108.801 28.4782ZM112.75 26.1852C113.645 27.3927 113.632 27.6098 112.56 27.8812C111.949 26.5787 111.949 26.5787 112.75 26.2123V26.1852ZM110.036 24.0822C109.236 23.146 109.602 22.5083 111.135 22.1555C111.596 23.241 111.596 23.241 110.077 24.1093L110.036 24.0822ZM108.937 22.3319C108.937 21.762 108.937 21.3279 109.046 21.1651C109.154 21.0022 109.914 20.446 110.552 21.2872L108.937 22.3319ZM105.898 20.8259C104.731 21.2736 104.541 21.2193 104.026 20.1203L105.152 19.6183C105.464 20.0932 105.708 20.4595 105.939 20.853L105.898 20.8259ZM108.286 19.7811C108.649 19.5638 109.025 19.369 109.412 19.1977C109.412 19.564 109.575 19.9846 109.493 20.0253C109.133 20.2763 108.711 20.422 108.272 20.446C108.001 20.446 108.014 19.9982 108.327 19.8083L108.286 19.7811ZM101.122 18.2208C101 17.4203 99.8873 16.9997 100.62 16.0364C101.597 16.9726 101.76 17.4746 101.163 18.2479L101.122 18.2208ZM102.479 16.2806L104.473 18.75C104.479 18.8267 104.479 18.9039 104.473 18.9806C104.188 18.9806 103.781 19.062 103.646 18.8992C103.086 18.1398 102.595 17.3315 102.18 16.4841L102.479 16.2806ZM99.2767 18.655C99.1275 18.2615 99.0054 17.8952 98.7883 17.2982C99.9008 17.868 99.9551 18.0851 99.2496 18.6821L99.2767 18.655ZM93.6189 17.9495C93.3204 18.3294 92.9948 18.5193 92.6691 18.0987C92.3435 17.6781 91.8008 16.8097 91.3123 16.1042C91.5159 15.9821 91.7194 15.8057 91.7736 15.8329C92.5455 16.3847 93.1774 17.1096 93.6189 17.9495ZM88.8701 15.765L90.6339 15.3444C90.559 15.5102 90.4468 15.6565 90.306 15.7717C90.1652 15.887 89.9997 15.9682 89.8224 16.0089C89.6451 16.0496 89.4607 16.0488 89.2837 16.0065C89.1068 15.9642 88.942 15.8815 88.8023 15.765H88.8701ZM81.272 11.6132C81.0414 10.3378 81.272 9.70014 82.2489 9.30667C83.2258 8.91319 84.1077 8.58756 84.9625 8.18052C85.4312 7.93246 85.8843 7.65607 86.3193 7.35288C86.9027 7.02725 87.4726 6.67448 88.0696 6.40312C88.3905 6.31829 88.7308 6.34705 89.0329 6.48453C86.6852 8.56381 84.0481 10.2914 81.2042 11.6132H81.272ZM25.3178 95.7345C26.2927 95.21 27.3857 94.9437 28.4927 94.9612L25.3721 96.0059L25.3178 95.7345ZM36.6335 103.197L36.1043 101.84L38.3702 100.972L41.4772 102.966C39.9226 103.528 38.2345 103.609 36.6335 103.197ZM29.1575 100.619L30.0802 101.487C30.0405 101.546 30.0085 101.61 29.9852 101.677L27.8279 101.352L29.1575 100.619ZM26.4439 101.107L25.6706 100.958V100.728L26.4575 100.85C26.4238 100.933 26.3966 101.02 26.3761 101.107H26.4439ZM54.1904 91.4742C54.4889 91.6777 54.7874 91.8677 55.113 92.0576C53.7562 93.2109 53.6477 93.4144 52.0602 91.5692L53.2135 90.8365C53.4984 91.0807 53.8105 91.2842 54.1226 91.4742H54.1904ZM54.1904 90.3616L55.5472 89.5204L57.2839 90.6601C55.9135 91.8812 55.4387 91.827 54.1904 90.3616ZM51.0834 92.1662C51.6668 92.4511 52.2095 92.831 52.7793 93.1838C52.0874 93.9029 52.0874 93.9029 50.3914 92.5325C50.7034 92.3697 50.9748 92.1119 51.0834 92.1662ZM39.8084 97.9054C42.0607 96.318 42.0607 96.8742 43.4175 97.9461L41.2059 99.0315C40.7039 98.6381 40.2561 98.2853 39.8084 97.9054ZM40.1476 99.2622C38.9536 100.212 38.533 100.198 37.1762 99.0994C38.5873 98.0411 38.5873 98.0411 40.1476 99.2893V99.2622ZM46.3346 96.4401L44.3536 97.4848L43.0918 96.4808L44.7743 95.4496L46.3346 96.4401ZM45.9411 95.0833C47.2979 94.1878 47.2979 94.1878 48.6547 95.4225L47.23 96.1009L45.9411 95.0833ZM45.2898 98.1225C46.3346 97.2813 46.7959 97.1185 47.6371 97.1863L49.4823 96.0466L50.5949 96.63C50.5949 96.2366 50.5949 95.9788 50.5949 95.6803L52.2502 94.9612L53.1728 95.6803C50.9226 97.1485 48.5319 98.3893 46.0361 99.3843L45.2898 98.1225ZM48.2883 93.9707C49.6451 92.8717 49.7808 92.8853 51.0019 94.1199C50.2014 95.3411 49.2245 95.2325 48.2883 93.9707ZM48.3698 92.5189C47.4064 93.3737 47.4064 93.3737 46.3753 92.7767L44.1366 91.5013C44.1366 91.3792 44.1366 91.2707 44.1366 91.1621L45.4934 90.4023L48.3698 92.5189ZM46.1989 93.8757L45.032 94.4999L42.0607 92.6546L43.5938 91.9355C44.0416 92.926 45.3305 92.9938 46.1989 93.835V93.8757ZM44.0687 94.8798L42.0607 95.8567L39.6456 94.4999L41.0024 93.2787L44.0687 94.8798ZM40.4054 96.2366C38.3566 97.3491 38.9536 97.5934 36.8099 95.9923C38.2888 95.0426 39.3471 95.0968 40.4054 96.318V96.2366ZM37.529 97.8104L36.1722 98.516L34.5304 97.4441C35.3445 96.223 36.0636 96.318 37.529 97.8376V97.8104ZM32.7259 97.3491L35.2767 99.0315C34.6526 99.4386 34.2184 99.7507 33.7706 100.008C33.6956 100.049 33.6117 100.07 33.5264 100.07C33.4412 100.07 33.3573 100.049 33.2822 100.008C32.1696 99.3029 31.0842 98.5702 29.9852 97.8376C29.9852 97.8376 29.9173 97.6883 29.8359 97.4984L31.8033 96.4401L32.7259 97.3491ZM37.2983 100.47C36.2943 100.47 35.3988 101.555 34.2455 100.605C36.0365 99.4522 36.4707 99.3436 37.2983 100.497V100.47ZM29.3882 98.8009C28.7912 99.4386 28.7369 99.425 27.7193 98.231C27.8677 98.1581 28.0291 98.1157 28.1942 98.1063C28.3592 98.0969 28.5244 98.1208 28.6801 98.1765C28.8357 98.2321 28.9786 98.3185 29.1002 98.4304C29.2219 98.5423 29.3198 98.6776 29.3882 98.828V98.8009ZM27.1359 99.2758C26.349 99.4386 26.349 99.4386 26.1183 98.6245L27.1359 99.2758ZM32.3596 100.714L31.2063 101.447C30.6771 100.931 30.2023 100.443 29.6731 99.9406C30.8128 99.425 31.3013 99.5878 32.4003 100.714H32.3596ZM35.4259 102.939L33.5807 102.763C34.7204 101.745 34.8696 101.745 35.4666 102.939H35.4259ZM51.2462 102.939C48.7338 103.542 46.1453 103.766 43.5667 103.604C45.1134 103.197 46.6873 102.858 48.1934 102.356C48.7003 102.113 49.2702 102.033 49.8244 102.128C50.3785 102.222 50.8896 102.487 51.2869 102.885L51.2462 102.939ZM55.3166 102.329L54.7603 102.41C54.767 102.329 54.767 102.247 54.7603 102.166H55.3166C55.3286 102.201 55.3377 102.237 55.3437 102.274L55.3166 102.329ZM51.0155 101.637C51.1968 101.428 51.4194 101.259 51.6691 101.14C51.9189 101.021 52.1905 100.955 52.4669 100.946C52.7433 100.937 53.0186 100.986 53.2755 101.088C53.5324 101.191 53.7653 101.345 53.9598 101.542C53.01 102.206 52.1009 102.641 51.0426 101.582L51.0155 101.637ZM57.2703 102.084C57.0125 102.166 56.6462 101.799 56.2256 101.569C57.2432 100.836 58.1251 100.334 59.3191 101.23C58.7444 101.699 58.038 101.979 57.2975 102.03L57.2703 102.084ZM72.6564 92.5868C71.883 93.7808 71.6931 93.8486 70.6212 93.3059L69.5629 92.6953L70.2006 92.0712C70.377 91.8948 70.5669 91.732 70.8247 91.5149L72.6564 92.5868ZM71.571 90.8908L72.575 89.9275L73.6604 90.4023L74.6237 90.8908C73.5112 92.2476 73.5112 92.2476 71.571 90.8908ZM75.3836 94.025C74.5966 94.9612 74.2167 94.9612 72.9006 94.025C73.8911 93.0752 74.1217 93.0752 75.3836 94.0114V94.025ZM68.2332 92.7496C66.9986 93.93 66.8764 93.93 65.6418 93.1431C66.6322 91.9219 66.9307 91.8677 68.2332 92.736V92.7496ZM68.7488 93.0888L70.6755 94.0521C69.7393 95.1104 69.4001 95.4089 67.6905 93.9707L68.7488 93.0888ZM71.6659 94.4456L72.5343 94.7576L73.3619 95.0833C72.0051 96.1009 72.0051 96.2501 70.6483 95.3411L71.6659 94.4456ZM68.7895 95.4767C67.2835 96.63 67.2835 96.63 65.9945 95.6124L66.985 94.5406L68.7895 95.4767ZM71.0011 96.4401C70.3498 96.7386 69.8614 96.9828 69.3594 97.1592C69.2101 97.1592 69.0066 97.0642 68.7895 96.9964C69.7529 95.9516 69.7529 95.9516 71.0011 96.4672V96.4401ZM66.3609 96.8471C65.4925 97.8511 65.4925 97.8511 64.285 97.0778C65.1262 96.1009 65.3433 96.0737 66.3609 96.8743V96.8471ZM61.9648 96.9964C60.7302 98.3531 60.5402 98.3532 58.5593 97.3491L60.5538 96.1823L61.9648 96.9964ZM63.3216 97.4712L64.5835 98.1361C63.6066 99.2758 63.3759 99.3029 61.7885 98.4753L63.3216 97.4712ZM59.2513 98.7195C58.2608 99.9135 57.1347 99.4657 55.8728 99.0587C57.311 97.7697 57.7995 97.7833 59.3327 98.7466L59.2513 98.7195ZM62.1548 99.5743C60.3638 101.135 60.4181 100.931 58.9392 100.049C60.0382 99.4115 60.9744 98.516 62.2362 99.6014L62.1548 99.5743ZM56.0085 100.131C55.5336 100.931 55.5336 100.931 53.4577 100.253C54.4618 99.5064 55.2623 99.8592 56.0899 100.158L56.0085 100.131ZM61.2186 101.582C62.3583 100.795 63.3624 100.022 64.4342 99.3979C65.1451 99.0837 65.8861 98.8427 66.6458 98.6788C66.6458 98.5702 66.6458 98.2717 66.5644 97.9597C66.985 97.6883 67.3242 97.1592 68.0704 97.5391L67.2021 98.3124C68.1423 98.3008 69.0686 98.0831 69.9157 97.6748C70.6722 97.3003 71.4517 96.974 72.2494 96.6979C70.6212 98.7602 63.7694 102.356 61.3 101.609L61.2186 101.582ZM78.1921 98.0411C76.7314 98.6779 75.208 99.16 73.6469 99.4793C74.7052 98.7873 75.7635 98.1225 76.8489 97.4305C77.4866 97.1049 77.7308 97.6748 78.2735 98.0682L78.1921 98.0411ZM79.2097 97.3898C78.1314 96.9626 77.1456 96.3315 76.3062 95.531C75.4514 95.8702 76.0891 96.3858 76.1298 96.7521C71.883 100.022 67.2292 102.179 65.1397 101.664C65.2836 101.554 65.4382 101.458 65.6011 101.379C68.5596 100.205 71.3087 98.5599 73.7418 96.5079C74.4745 95.9109 75.4785 95.6667 75.9805 94.7441C76.0326 94.6622 76.1067 94.5966 76.1943 94.5549C76.282 94.5133 76.3796 94.4972 76.476 94.5085C76.5723 94.5199 76.6635 94.5582 76.7391 94.619C76.8147 94.6799 76.8716 94.7609 76.9032 94.8526C77.1067 95.7481 77.8122 96.0873 78.4363 96.5486C78.7744 96.7804 79.0647 97.0753 79.2911 97.417L79.2097 97.3898ZM83.66 92.6003C84.0535 92.2204 84.2163 91.9491 84.3655 91.9491C85.1932 91.9491 85.7223 92.5325 86.4007 93.1159C85.2068 93.9843 84.8133 92.6275 83.7414 92.6275L83.66 92.6003ZM88.8294 92.4104C88.558 92.9802 88.2595 93.2923 87.4726 93.0074C88.0153 92.5596 88.2867 92.2476 88.9108 92.4375L88.8294 92.4104ZM90.3897 91.4606L89.3857 91.9491C89.7792 91.23 89.7792 91.23 90.4711 91.4878L90.3897 91.4606ZM92.4113 89.8867C91.5023 90.8636 91.5023 90.8636 90.8646 90.1988C91.4209 89.9546 91.7194 89.2626 92.4927 89.9139L92.4113 89.8867ZM94.6094 88.53C93.4289 89.5069 93.4289 89.5068 92.7234 88.747C93.6189 87.7701 93.6189 87.7701 94.6908 88.5978L94.6094 88.53ZM96.3732 87.1732C95.5998 88.0008 95.5998 88.0008 94.433 87.3088C95.3691 86.3184 95.3691 86.3184 96.4546 87.2003L96.3732 87.1732ZM98.5033 85.5314C97.8657 86.6033 97.6486 86.644 96.2918 85.9113C97.0244 84.7174 97.8385 85.5993 98.5848 85.5586L98.5033 85.5314ZM99.5888 84.6359L99.2089 85.1515L97.7028 84.4324C98.3676 84.3605 99.0401 84.4394 99.6702 84.6631L99.5888 84.6359ZM100.946 83.2792C100.24 84.0254 99.9144 84.0118 97.445 83.1299C97.6079 82.8043 97.7571 82.5058 97.9064 82.2344L100.946 83.2792ZM102.926 81.461C101.855 82.7364 101.705 82.8178 100.213 82.1123L99.2089 81.651C100.308 81.4882 101.163 82.3701 102.085 81.556C101.583 80.8505 100.728 81.1083 100.091 80.7555C99.4444 80.4675 98.7778 80.2272 98.0963 80.0364C97.8928 80.4435 97.7435 80.7284 97.6214 81.0133H95.9119L97.0109 82.1801C96.4953 83.0621 95.4099 83.0349 94.5822 83.6726L95.939 85.0294C95.5727 85.6128 95.1249 85.6942 94.5008 85.2872C94.0642 85.0658 93.6104 84.8797 93.144 84.7309C92.4656 86.0877 94.2701 85.5721 94.2701 86.5083C94.0395 86.9018 93.7274 87.2274 93.0897 86.7525C92.6557 86.4839 92.2022 86.2481 91.7329 86.047C91.3666 86.7525 91.3666 86.7525 92.642 87.7294C92.2485 88.7199 91.7601 88.5978 91.1088 88.1365C90.4576 87.6752 89.752 87.2817 89.1415 86.8611C89.0658 86.9712 89.0149 87.0965 88.9924 87.2283C88.9699 87.36 88.9763 87.4951 89.0111 87.6241C89.046 87.7532 89.1084 87.8731 89.1942 87.9756C89.2799 88.0781 89.3869 88.1608 89.5078 88.2179C89.9827 88.5435 90.4847 88.8284 90.9867 89.1269C90.3626 90.2395 90.1862 90.2938 89.2364 89.5611C89.0058 89.3847 88.8294 89.1134 88.5716 89.0048C88.3201 88.9628 88.0633 88.9628 87.8118 89.0048C87.8118 89.2762 87.8118 89.6154 87.9746 89.7782C88.4028 90.1608 88.8561 90.5144 89.3314 90.8365C89.1143 91.0129 88.9515 91.1757 88.7751 91.3385L86.3465 89.4797C86.2445 89.5845 86.1697 89.7126 86.1286 89.8529C86.0876 89.9933 86.0815 90.1415 86.111 90.2847C86.1404 90.4279 86.2045 90.5617 86.2976 90.6745C86.3906 90.7872 86.5099 90.8755 86.645 90.9315C87.0791 91.23 87.554 91.4878 88.1646 91.8405L87.147 92.736C86.2108 92.2747 85.4103 91.7998 85.4374 90.4837C85.0304 90.7144 84.5691 90.8094 84.352 91.0943C84.2435 91.3019 84.0911 91.4835 83.9055 91.6263C83.7198 91.7691 83.5053 91.8699 83.2768 91.9215C83.0483 91.9731 82.8113 91.9744 82.5823 91.9253C82.3533 91.8762 82.1377 91.7778 81.9504 91.637C82.0997 92.2611 82.2082 92.6682 82.2896 92.9938C83.4628 93.2514 84.5174 93.8908 85.2882 94.8119C84.9354 95.1783 84.6369 95.2461 84.2977 94.9069C83.6329 94.2556 82.9409 93.6315 82.2896 92.9938H82.0726C81.7605 92.9124 81.3942 92.6682 81.2178 93.1431C81.0414 93.6179 81.4484 93.6451 81.7198 93.8486C82.4118 94.3777 83.0766 94.9747 83.6871 95.5175C83.4294 96.1823 83.0901 96.1687 82.656 95.8702C81.8283 95.2868 81.0007 94.7305 80.1595 94.1878C79.8409 94.0142 79.5098 93.8646 79.169 93.74C78.7891 94.5948 79.3454 94.8526 79.7931 95.0968C80.5258 95.5446 81.2992 95.9516 82.3439 96.4536L80.6344 97.1456C79.3716 96.407 78.3202 95.3556 77.5816 94.0928C78.5449 93.3466 79.5625 92.6139 80.5394 91.827C81.0565 91.4067 81.5459 90.9535 82.0047 90.4702C82.3439 90.1038 82.3168 90.0767 82.0047 89.344C81.8197 89.4876 81.643 89.6416 81.4756 89.8053C80.1777 91.2462 78.6568 92.4694 76.971 93.428C76.8021 93.5465 76.6007 93.6101 76.3944 93.6101C76.188 93.6101 75.9867 93.5465 75.8177 93.428C75.3564 93.1566 74.868 92.9395 74.3524 92.6546C74.5013 92.333 74.7385 92.0603 75.0363 91.8681C75.3342 91.676 75.6804 91.5723 76.0348 91.5692C76.6117 91.6956 77.1656 91.9107 77.6765 92.2069L77.8122 91.9762L76.6589 90.8908C76.8625 90.4973 77.5273 90.1581 76.9439 89.4119L75.4243 90.4837L73.267 89.3712C74.2167 88.4892 75.0851 87.6616 75.9805 86.834C76.118 86.6696 76.309 86.559 76.52 86.5217C76.7311 86.4845 76.9484 86.523 77.1338 86.6304L79.1147 87.7701C78.3549 88.5707 77.6765 88.9506 76.6996 88.3943C76.52 88.2523 76.2977 88.1751 76.0687 88.1751C75.8398 88.1751 75.6175 88.2523 75.4378 88.3943C76.2129 88.8848 77.0414 89.2853 77.9072 89.5883C78.6941 89.7646 79.264 90.6873 80.3223 90.2531C80.0102 89.4797 79.1283 89.7375 78.7484 89.1676C79.3183 88.6656 79.8338 88.0958 80.6886 88.7199C81.0414 88.9777 81.3806 88.8827 81.6791 88.4078L80.77 87.7701C81.5716 86.5524 82.4797 85.4082 83.4836 84.351C83.8364 84.0932 84.3113 83.6998 83.9721 82.9942C83.7143 83.1163 83.3886 83.1706 83.2258 83.3741C82.2345 84.2048 81.3625 85.1681 80.6344 86.237C80.1595 87.1867 79.7389 87.2817 78.8298 86.7661C78.3278 86.4948 77.8529 86.1827 77.3373 85.8571C78.2871 84.8666 79.1419 84.0254 79.9424 83.1435C80.2002 82.845 80.6344 82.3972 79.861 81.9631C79.074 82.8043 78.3007 83.6862 77.4866 84.5003C76.0212 85.9385 74.5423 87.3631 73.0363 88.747C72.7425 88.9524 72.4171 89.1082 72.073 89.2084C71.9041 89.5587 71.6995 89.8906 71.4624 90.1988C70.9197 90.728 70.3363 91.2164 69.7529 91.6913C68.9252 92.3832 68.9252 92.3832 67.8262 91.5556C68.3179 91.2305 68.7728 90.8529 69.183 90.4295C69.4815 90.0496 70.2277 89.7104 69.6036 88.8963C69.0473 89.4254 68.5589 89.9275 68.0297 90.3752C67.5006 90.8229 67.3649 91.1757 66.7543 91.0536C66.699 91.057 66.645 91.0721 66.5959 91.0978C66.5468 91.1235 66.5037 91.1593 66.4694 91.2028C66.3744 92.2069 65.3297 92.1662 64.9227 92.7767L63.4709 92.1933C63.9051 93.74 65.4247 93.4551 66.1845 94.2556C65.9538 94.8798 65.289 94.9476 64.8277 95.2868C63.8189 94.8101 62.7642 94.4373 61.6799 94.1742C62.1412 95.1375 63.2131 95.2054 63.9593 95.8431C63.9074 95.9801 63.8257 96.1039 63.7202 96.2055C63.6147 96.3071 63.4879 96.3841 63.349 96.4308C63.2101 96.4775 63.0626 96.4928 62.9171 96.4757C62.7716 96.4585 62.6317 96.4093 62.5076 96.3315C62.0911 96.1449 61.6916 95.9224 61.3136 95.6667C61.0408 95.4716 60.7055 95.3845 60.3722 95.422C60.039 95.4596 59.7315 95.6193 59.509 95.8702C59.3191 96.0868 59.0944 96.2702 58.8442 96.4129C56.7412 97.5526 54.6653 98.7059 52.5351 99.7914C50.3058 100.955 47.9205 101.791 45.4526 102.274C45.3305 102.274 45.1949 102.274 45.0863 102.274C44.2722 102.491 43.4039 103.021 42.6848 102.871C41.838 102.518 41.0579 102.022 40.3782 101.406L39.2792 100.605C40.541 99.8049 41.0159 99.8049 41.9928 100.605C42.332 100.863 42.6034 101.189 42.9426 101.42C43.2818 101.65 43.5124 101.718 43.4989 101.189C43.4102 100.99 43.2962 100.803 43.1597 100.633C42.8205 100.28 42.4406 99.9813 41.9657 99.5743L44.1773 98.5702L45.4391 99.52C44.8421 100.212 43.7024 100.198 43.4989 101.189C46.0367 100.333 48.4969 99.2613 50.8527 97.9868C52.2909 97.2134 53.702 96.3994 55.0995 95.5717C55.4539 95.3112 55.7853 95.0207 56.0899 94.7034C55.3437 94.3506 54.9095 94.7983 54.4618 95.0154C54.014 95.2325 53.512 95.1647 53.105 94.5406L56.1713 92.7767C56.6869 92.7767 57.1889 93.8622 57.8673 92.8446L56.9854 92.0848L58.0166 91.2571L59.4683 91.9762L58.7085 92.8174C59.0138 92.8281 59.3191 92.8008 59.6176 92.736C61.7446 91.746 63.7333 90.4825 65.5332 88.9777C65.9945 88.5571 66.5372 88.245 67.0393 87.8651C67.1749 87.7566 67.2835 87.5938 67.5141 87.3495C67.2666 87.3333 67.0183 87.3683 66.7848 87.4523C66.5514 87.5364 66.3378 87.6677 66.1573 87.838C64.6784 88.8013 63.186 89.7239 61.7478 90.7415C61.3778 91.0309 60.9217 91.1881 60.452 91.1881C59.9824 91.1881 59.5262 91.0309 59.1563 90.7415C60.0789 90.0496 60.9608 89.3847 61.8699 88.7199C62.7789 88.0551 63.6473 87.3631 64.5835 86.6033C65.0176 86.2234 65.0176 86.1149 64.9634 85.3822C64.2985 85.3822 63.9322 85.8435 63.498 86.1963C62.0191 87.3495 60.5538 88.53 59.0613 89.6832C58.7581 89.8826 58.4406 90.0594 58.1115 90.2124L56.4698 89.0184C57.6223 87.6232 58.9921 86.4228 60.5266 85.4636C62.1819 84.5648 63.6952 83.4264 65.0176 82.0852C65.1397 81.9359 65.3297 81.7867 65.3704 81.5967C65.3916 81.5019 65.3903 81.4035 65.3668 81.3093C65.3432 81.2151 65.298 81.1277 65.2347 81.054C65.1518 81.0077 65.0584 80.9833 64.9634 80.9833C64.8684 80.9833 64.7749 81.0077 64.692 81.054C64.2222 81.587 63.724 82.0943 63.1995 82.5736C61.2865 84.0661 59.3327 85.5043 57.3653 86.9289C56.0085 87.933 54.5567 88.8692 53.1457 89.846L50.6763 87.9465C50.4592 89.4661 51.8703 89.4797 52.2638 90.2531C51.3411 90.9722 51.0698 90.9586 50.2421 90.2531C49.7697 89.9056 49.2757 89.5884 48.7632 89.3033C48.6683 90.0496 48.6683 90.0496 50.12 91.2571C49.9436 91.732 49.5909 91.9355 49.1567 91.7048C48.2612 91.1893 47.42 90.6059 46.4431 89.9817C47.6507 89.0184 48.7361 88.1365 49.8487 87.2681C51.2055 86.1963 52.5623 85.2058 53.9191 84.0932C54.4769 83.5282 54.9727 82.905 55.398 82.2344C55.4394 82.138 55.4608 82.0341 55.4608 81.9291C55.4608 81.8242 55.4394 81.7203 55.398 81.6239C52.1742 84.654 48.6768 87.3792 44.9506 89.7646C41.2928 92.2405 37.4967 94.5055 33.5807 96.5486L32.6852 95.9381C33.4314 95.531 34.042 95.1783 34.734 94.8119C35.4259 94.4456 35.8058 94.1607 36.3214 93.7943C36.837 93.428 37.6104 92.8853 38.2345 92.4375C38.522 92.1727 38.7895 91.887 39.035 91.5827L38.8722 91.3657C38.6608 91.4001 38.4553 91.4641 38.2616 91.5556C36.5928 92.6003 35.0053 93.8079 33.2551 94.6762C31.057 95.7888 28.7369 96.6436 26.4711 97.5798C26.145 97.6488 25.8137 97.6896 25.4806 97.7019C24.6394 97.8918 23.8118 98.1089 22.767 98.3531C23.5404 99.4657 24.4359 98.8416 25.2364 98.923V99.7642L22.1836 100.429C21.7047 101.018 21.1832 101.572 20.6233 102.084C19.7278 102.776 18.7509 103.346 17.8012 103.97C17.6655 104.065 17.462 104.12 17.3941 104.242C16.4172 105.816 14.6805 105.68 13.2423 105.829C11.8225 105.862 10.4022 105.781 8.99555 105.585L16.078 104.92C15.9288 104.12 15.4946 104.201 15.0062 104.255C13.0524 104.459 11.085 104.622 9.13123 104.825C8.75863 104.888 8.39126 104.979 8.03223 105.096C8.24932 105.327 8.31716 105.449 8.4257 105.49C8.6225 105.531 8.82201 105.558 9.02269 105.571C8.50119 105.537 7.97744 105.564 7.46237 105.653C6.84904 105.865 6.25823 106.138 5.69854 106.467C5.02294 107.004 4.21831 107.355 3.36485 107.484C3.58764 107.254 3.82319 107.037 4.07039 106.833C5.33221 105.938 6.60759 105.042 7.89655 104.12C8.16538 103.93 8.47847 103.813 8.8056 103.78C9.96898 103.58 11.163 103.655 12.2926 103.997C13.0795 104.337 13.7443 103.807 14.477 103.767C14.5138 103.761 14.5488 103.747 14.5793 103.726C14.6099 103.705 14.6352 103.677 14.6534 103.645C15.0062 102.369 16.1459 101.745 16.9871 100.931C17.8394 100.027 18.7455 99.175 19.7007 98.3803C20.2788 97.9895 20.8867 97.6448 21.5188 97.3491L22.5499 97.919C23.2291 97.7202 23.8843 97.4472 24.5037 97.1049C25.6881 96.5058 26.9546 96.0852 28.262 95.8567C29.5284 95.4297 30.7696 94.9314 31.9797 94.3642C32.7363 93.9385 33.4577 93.4531 34.137 92.9124C34.9167 92.4287 35.6604 91.8891 36.3621 91.2978C37.7189 89.941 39.0757 88.4621 40.4325 87.0646C40.1204 86.5083 39.7948 86.7119 39.5506 86.9289C38.628 87.7159 37.7053 88.5028 36.837 89.3305C35.9686 90.1581 35.2902 90.8501 34.5304 91.6235L34.2998 91.4471C34.4468 91.1927 34.6099 90.9479 34.7882 90.7144C35.5073 89.9546 36.2536 89.2084 36.9727 88.4621C38.4487 86.7747 39.7026 84.9052 40.7039 82.8992C41.5695 81.41 42.3531 79.8745 43.0511 78.2997C44.218 75.6675 45.2491 72.9675 46.4295 70.3353C47.4743 68.0152 48.6411 65.7494 49.7537 63.4564C50.4185 62.0996 51.0291 60.7428 51.7346 59.386C52.7658 57.3779 53.7427 55.3156 54.9638 53.4296C57.0261 50.2819 59.3462 47.2969 61.4086 44.1492C63.3081 41.2321 65.4789 38.5592 67.5141 35.6828C69.5493 32.8064 71.2725 30.2556 73.0634 27.542C74.0132 26.0631 74.8137 24.4892 75.6413 22.9425C76.3469 21.5857 76.9981 20.3374 77.663 19.0213C77.8936 18.5464 78.0836 18.0444 78.3007 17.5288C78.8027 17.6103 78.9248 17.8816 78.7348 18.2479L76.1705 23.051L75.872 23.6073L73.9454 27.4335C73.267 28.7902 72.5886 30.147 71.8966 31.5038C71.3455 32.5746 70.7245 33.608 70.0378 34.5973C68.9388 36.1576 68.0026 37.8401 66.985 39.5089C67.0819 39.5878 67.1964 39.642 67.3188 39.667C67.4412 39.6919 67.5679 39.6868 67.6879 39.6522C67.8079 39.6175 67.9177 39.5543 68.008 39.4679C68.0982 39.3815 68.1662 39.2745 68.2061 39.1562C69.1559 37.4466 70.6483 36.0355 71.1504 34.0682C71.1879 33.9018 71.2673 33.7477 71.381 33.6204C72.4875 32.4755 73.4036 31.1609 74.0946 29.7264C74.7916 28.5231 75.4212 27.282 75.9805 26.0088C77.0931 23.7023 78.1514 21.3957 79.2504 19.0892C79.2504 18.9535 79.4675 18.8721 79.8067 18.56C79.1826 21.6264 77.3916 23.8515 76.3876 26.4159C75.3836 28.9802 74.2438 31.4631 73.1177 34.0817C73.3348 34.0817 73.5655 34.0817 73.6876 33.9868C74.1995 33.6137 74.6145 33.1233 74.8978 32.5567C75.1811 31.9901 75.3244 31.3639 75.3157 30.7305C75.2878 30.5063 75.3111 30.2786 75.384 30.0647C75.4569 29.8509 75.5773 29.6563 75.7363 29.4958C76.9465 28.0939 77.8274 26.4388 78.3142 24.652C78.572 23.8786 79.1283 23.1731 78.9519 22.2776C78.9416 22.2376 78.9416 22.1956 78.9519 22.1555L80.6615 19.7811C80.7565 19.9439 80.9871 20.1475 80.9464 20.2831C80.834 21.0296 80.5808 21.7479 80.2002 22.3997C79.9619 22.7607 79.7875 23.16 79.6846 23.5802C79.2097 24.9369 78.6941 26.2937 78.0971 27.5284C76.5956 30.8752 75.0308 34.1993 73.4026 37.5009C72.6293 39.0341 71.7202 40.4858 70.8654 41.9783L67.9619 47.1206C68.7668 46.8026 69.4343 46.2119 69.8478 45.4517C71.3619 43.1425 72.7216 40.7357 73.9182 38.2471C74.9901 35.7913 76.3333 33.4441 77.5409 31.0425C77.7851 30.5541 77.9343 30.0249 78.165 29.5365C78.3956 29.048 78.5856 28.7495 78.8027 28.3425C80.0781 28.9259 80.4173 30.1742 81.2992 31.0561C81.1771 31.5038 81.0414 31.9652 80.865 32.5621L78.5042 30.4455L78.3007 30.5677C78.3427 30.8061 78.4253 31.0355 78.5449 31.246C78.8977 31.6531 79.3454 31.9923 79.6982 32.3993C80.6072 33.4441 80.6208 33.7561 79.8745 35.0451C78.9655 34.3938 78.9655 34.3938 79.0469 33.2541L77.3373 33.3084C78.2193 34.0817 77.7715 34.7737 77.3373 35.52C77.0253 36.0627 76.8082 36.6461 76.469 37.3788C77.663 36.9446 78.1378 37.8265 78.7077 38.4371C79.6303 39.414 80.4851 40.4587 81.3263 41.5034C81.6024 41.9142 81.8473 42.345 82.059 42.7924C82.2896 43.1858 82.059 43.3894 81.7605 43.7286L77.2017 39.0612L77.0117 39.1562C77.0117 39.2783 77.0117 39.4682 77.0796 39.5361C78.0836 40.3773 77.9615 41.327 77.2695 42.4125L76.3062 41.5984C76.0755 42.3175 76.7675 42.4939 76.9439 43.0773L76.4961 44.1085C76.3333 44.4477 76.1841 44.7869 76.0212 45.1396L75.1393 44.9225C76.0755 46.415 75.1393 47.419 74.5288 48.5995L73.3891 47.5954C73.5277 48.3488 73.8811 49.0462 74.4067 49.6035C75.3101 50.9161 76.2887 52.1755 77.3373 53.3754C77.5969 53.6098 77.756 53.9354 77.7813 54.2843C77.8066 54.6332 77.6961 54.9784 77.473 55.2478L77.0796 55.8583C75.528 54.4098 74.0943 52.84 72.7921 51.1638L71.9102 53.1583L72.9142 52.4528C73.0009 52.4755 73.0834 52.5121 73.1584 52.5613L76.1569 56.7267C76.5233 57.2287 76.3062 57.5814 75.7499 57.9885L72.1137 53.8096L71.8966 53.9724C72.9262 55.8004 74.054 57.5713 75.275 59.2774L74.6645 59.9423L70.8247 55.8719C70.9197 57.0116 71.8288 57.6086 72.3579 58.4362C72.8871 59.2639 73.6197 60.1051 74.2439 60.9056C68.3147 70.7966 61.6528 80.0364 52.7793 87.5531C53.1065 87.4492 53.4206 87.3081 53.7155 87.1325C54.6571 86.4613 55.5629 85.7412 56.4291 84.9751C57.9759 83.6183 59.5226 82.1259 60.9337 80.5791C62.5618 78.7882 64.0679 76.8886 65.5875 74.9891C67.1071 73.0896 68.4368 71.475 69.7393 69.5619C71.0418 67.6489 72.4529 65.3559 73.8097 63.2528C74.5695 62.086 75.3836 60.9599 76.0755 59.7659C76.7675 58.5719 77.1745 57.6086 77.7172 56.5367C78.4906 54.9493 79.3454 53.4161 80.0238 51.7879C80.7022 50.1598 81.0821 48.6944 81.6112 47.1477C82.4118 44.8411 83.2937 42.5753 83.9992 40.2416C84.854 37.433 85.6274 34.5838 86.3058 31.7209C86.6934 29.9301 86.9743 28.1179 87.147 26.2937C87.3098 24.842 87.2826 23.3631 87.3641 21.6399L88.1374 22.359C88.0696 21.8163 88.0153 21.4364 87.9475 21.0022L89.1279 20.6359C89.2636 21.9927 89.4128 23.146 89.4807 24.3535C89.4201 26.4089 89.1887 28.4557 88.7887 30.4727C88.5173 32.6842 88.0425 34.8551 87.6761 37.0667C87.6761 37.4466 87.3912 37.8672 87.8389 38.2607C88.3578 37.4862 88.6792 36.5965 88.7751 35.6692C89.1415 33.2134 89.345 30.744 89.8063 28.3154C90.1176 26.1639 90.2266 23.9881 90.1319 21.8163C90.1565 21.4095 90.2155 21.0056 90.3083 20.6088C90.9324 20.6088 90.8782 20.9615 90.8782 21.2736C90.8782 22.1962 90.8782 23.1188 90.8782 23.9872C90.8845 24.4425 90.9299 24.8964 91.0138 25.344C91.2525 26.3437 91.215 27.3896 90.9053 28.3696C90.7193 29.1054 90.6371 29.8634 90.6611 30.6219C90.5797 32.2094 90.539 33.8104 90.4576 35.4114C90.4576 35.8999 90.4576 36.4968 89.6028 36.3747C89.8143 36.698 89.9788 37.0498 90.0912 37.4195C90.0712 37.7516 89.9931 38.0776 89.8606 38.3828C88.9922 41.2321 88.2188 44.122 87.147 46.9306C86.5364 48.6402 86.1294 50.3904 85.6002 52.1C84.9625 54.1352 83.9992 56.0754 83.1851 58.0563C83.0223 58.4634 82.8324 58.8704 82.5881 59.4131C82.853 59.3265 83.0934 59.1779 83.2893 58.9797C83.4852 58.7815 83.6309 58.5393 83.7143 58.2734C85.0303 55.7824 86.0765 53.158 86.8349 50.4447C87.2308 49.0332 87.7111 47.6468 88.2731 46.2929C88.5309 45.5874 88.8158 44.9361 89.1008 44.1356C89.3446 44.2297 89.5805 44.3431 89.8063 44.4748C91.1631 45.3432 92.642 46.2522 94.0666 47.1884C94.7722 47.6226 94.7857 47.609 94.433 48.6809C92.6975 47.8963 91.0199 46.9895 89.4128 45.9673C89.657 46.7407 89.6435 46.7407 91.5566 48.0839C92.3435 48.6266 93.1711 49.1422 94.0259 49.6985L93.8495 50.9196C91.8958 50.404 90.6068 48.708 88.558 48.5588C90.0641 49.5899 91.5294 50.6482 93.0626 51.6387C93.2039 51.6964 93.3295 51.7869 93.429 51.9027C93.5285 52.0185 93.599 52.1563 93.6348 52.3047C93.6706 52.4531 93.6706 52.6079 93.6348 52.7563C93.599 52.9047 93.5284 53.0425 93.4289 53.1583L90.2405 51.5437C90.5941 52.3199 91.1826 52.9653 91.9229 53.3889C92.1264 53.5382 92.3842 53.606 92.6013 53.7417C93.2797 54.1895 93.2797 54.2166 92.8455 55.2613C91.7872 54.6236 90.7289 54.0131 89.6435 53.3754C89.6435 54.0945 90.1183 54.5287 92.5334 56.3196C92.5512 56.4683 92.5512 56.6186 92.5334 56.7674C92.4523 56.9047 92.3616 57.0362 92.2621 57.1608C91.2174 56.8488 90.6746 55.804 89.3857 55.5734C89.9302 56.3585 90.5887 57.0582 91.3395 57.6493C91.9907 58.1513 91.9772 58.1649 91.543 59.2096L88.4088 57.1744C88.5445 57.5814 88.558 57.8392 88.6937 57.9613C89.3857 58.5583 90.0505 59.1282 90.8239 59.698C91.2445 60.0372 91.4616 60.3764 90.9053 60.8785L89.3993 59.8066L89.155 60.0644L90.5932 61.8418C90.5932 62.1538 90.5118 62.4659 90.444 62.8865L91.9907 62.4659C91.7928 61.8111 91.7752 61.1151 91.94 60.4512C92.1048 59.7873 92.4457 59.1802 92.9269 58.694C92.9269 58.5855 93.1304 58.4769 93.1169 58.382C92.8319 56.7674 93.8495 55.4241 94.0666 53.9181C94.2837 52.4121 94.5822 51.2859 94.8671 49.9698C94.9189 49.6358 95.0194 49.3112 95.1656 49.0065C95.8268 47.4814 96.2831 45.8755 96.5224 44.2306C96.849 42.8519 97.1026 41.457 97.2822 40.0517C97.4665 38.2487 97.548 36.4367 97.5265 34.6245C97.5265 31.9109 97.3636 29.1023 97.2415 26.3344C97.2415 25.4254 97.0651 24.5299 96.9566 23.6209C97.635 23.6209 97.7028 24.0686 97.7571 24.4078C98.1008 27.0671 98.431 29.7264 98.7476 32.3858C98.7408 32.5123 98.7408 32.6391 98.7476 32.7657C99.0019 34.6675 99.1017 36.5869 99.0461 38.5049C99.0272 38.7613 99.0704 39.0184 99.172 39.2546C99.2735 39.4908 99.4305 39.699 99.6295 39.8617C99.9805 38.9453 100.07 37.9495 99.8873 36.9853C99.7516 34.5431 99.5888 32.1144 99.426 29.6857C99.426 29.4822 99.426 29.2787 99.426 28.9666H100.932C101.085 30.77 101.477 32.545 102.099 34.2446H102.357C102.357 33.4169 102.424 32.5757 102.465 31.531C103.261 33.3429 103.699 35.2919 103.754 37.2702C102.967 38.1521 102.153 36.8089 101.231 37.2702C101.99 38.1386 103.062 37.8129 103.944 38.2471C104.31 40.73 104.69 43.2537 105.07 45.8587L103.713 45.9808L103.632 46.2115L104.772 46.6592C104.772 47.3105 104.772 48.016 104.772 48.7758H103.266C103.374 49.807 104.297 49.3186 104.622 49.7934C104.514 50.1869 104.419 50.6211 104.283 51.0824C105.301 51.2316 104.989 50.2412 105.464 49.9427L108.611 50.1326C108.503 50.8517 108.408 51.4894 108.286 52.3307L104.975 51.8422C105.382 52.602 105.979 52.5342 106.454 52.6291C106.929 52.7241 107.526 52.792 108.204 52.9005C108.055 53.5518 107.933 54.1081 107.77 54.7729L105.884 54.4879C106.224 55.3427 106.997 55.0307 107.377 55.4241C107.635 56.3468 107.065 56.998 106.536 57.7578L105.613 57.6221C105.58 57.6782 105.553 57.7373 105.532 57.7985L106.549 58.5583L105.477 62.1674L103.334 61.679C103.822 62.3031 104.69 62.7101 106.78 63.3343C106.545 65.3819 105.923 67.3663 104.948 69.182C103.858 71.5001 102.491 73.6777 100.878 75.6675C100.239 76.6186 99.689 77.627 99.236 78.6796C100.593 79.453 102.506 79.2495 103.795 80.5249C103.496 80.8776 103.211 81.1761 102.954 81.5017L102.926 81.461ZM82.371 41.1642L77.7579 36.7139C78.0022 36.1848 78.2464 35.6421 78.5178 35.0858C79.6982 35.6149 79.5625 36.4426 79.2369 37.5823L80.2273 36.9989L83.063 40.3366C83.063 40.5265 82.8866 40.8793 82.751 41.2456C82.6204 41.2422 82.4916 41.2146 82.371 41.1642ZM80.5258 36.1169C80.7836 35.5064 80.9871 35.0044 81.2042 34.5024C81.8603 34.9796 82.3378 35.6626 82.561 36.4426C82.6273 36.5923 82.7244 36.7263 82.8459 36.836C83.0902 37.0938 83.5243 37.3109 83.565 37.5823C83.5571 38.1167 83.4702 38.6471 83.3072 39.1562L80.5258 36.1169ZM83.5108 33.8104C84.5691 34.5838 84.5826 34.6245 84.162 35.8863C83.0223 35.3707 82.9816 35.2622 83.5108 33.8104ZM82.4932 34.1903C81.557 33.4712 81.557 33.4712 82.0726 32.0873C83.2123 32.6707 82.5339 33.4441 82.4932 34.1903ZM84.1213 30.6355C84.344 30.7692 84.5379 30.9458 84.692 31.1549C84.8461 31.364 84.9572 31.6015 85.0191 31.8538C85.0809 32.1061 85.0921 32.3681 85.0521 32.6247C85.0122 32.8814 84.9218 33.1276 84.7861 33.3491C84.5334 33.2466 84.3085 33.0856 84.1301 32.8792C83.9518 32.6729 83.8249 32.4272 83.76 32.1623C83.6951 31.8973 83.694 31.6208 83.7568 31.3554C83.8196 31.0899 83.9445 30.8432 84.1213 30.6355ZM83.1851 31.3546C82.1811 31.2732 82.4253 30.3234 81.8283 29.9978C81.3583 29.6732 80.9055 29.3245 80.4715 28.9531L81.3942 27.5963C82.1947 28.1119 81.7469 28.9531 82.0319 29.5501L82.6831 29.1294C83.8092 29.74 83.0494 30.5812 83.2258 31.3546H83.1851ZM80.3359 27.4742C80.2094 27.7636 80.0644 28.0446 79.9017 28.3154C79.6575 27.9083 79.3183 27.5827 79.3861 27.3927C79.6825 26.1995 80.2078 25.0752 80.9328 24.0822C81.0143 24.4892 81.1635 24.747 81.0821 24.8962C80.7654 25.7311 80.5292 26.5944 80.3766 27.4742H80.3359ZM82.0183 25.5475C82.5203 26.1445 82.2218 26.443 81.8419 26.7415C81.9369 26.4023 81.9776 26.0631 82.059 25.5475H82.0183ZM84.4062 28.4782C85.6274 29.3194 85.6274 29.3194 85.356 30.3234C84.6098 29.835 84.0263 29.3872 84.4062 28.4782ZM83.4429 28.4782C82.9816 27.8541 83.3072 27.4742 83.4429 26.8365C83.9042 27.5556 83.6057 27.8948 83.4429 28.4782ZM85.2339 25.2219C86.4821 25.846 85.9258 26.7958 85.858 27.6641C84.6098 27.1214 84.5826 26.9721 85.2339 25.2354V25.2219ZM83.8771 26.1716C83.1851 25.3033 83.8771 24.652 83.8771 23.8244C84.4334 24.6792 84.4334 24.7334 83.85 26.1852L83.8771 26.1716ZM82.5203 24.8148C82.0861 23.8108 82.751 23.3495 82.7781 22.7118L83.1987 22.8339C82.9545 23.4716 82.7645 24.0686 82.4796 24.8691L82.5203 24.8148ZM81.367 23.5937C81.2313 23.3224 81.1635 23.241 81.1771 23.1867C81.3535 22.7118 81.5434 22.2369 81.8148 21.545C82.0861 22.549 81.5705 22.9696 81.3263 23.648L81.367 23.5937ZM86.048 22.4947C86.048 22.956 86.048 23.4173 86.048 24.0008C85.4781 23.4445 85.4781 23.4445 86.0073 22.549L86.048 22.4947ZM84.2434 22.8611C84.3384 22.2234 84.4198 21.6806 84.5012 21.0294C85.0575 22.1148 85.0304 22.2912 84.2027 22.9153L84.2434 22.8611ZM83.4701 21.6399H83.1444C83.1444 21.2058 83.2665 20.7716 83.3479 20.2831C83.8907 20.8123 83.3615 21.2465 83.4294 21.6942L83.4701 21.6399ZM77.0388 46.6999C76.8784 46.5602 76.7688 46.3712 76.7271 46.1626C76.6854 45.954 76.7139 45.7374 76.8082 45.5467C77.0117 45.0854 77.161 44.6105 77.4594 43.7964C78.1921 44.7326 78.8162 45.4381 79.3047 46.1437C79.5961 46.5276 79.8678 46.9261 80.1188 47.3376C80.5801 48.0839 80.1188 48.6944 79.7117 49.4271L77.0388 46.6999ZM79.3047 51.001C79.1012 51.6251 78.8977 52.2357 78.6263 53.0905L74.678 49.0201C75.0851 48.5995 75.3836 48.3145 75.6549 48.0025C75.9263 47.6904 76.1298 47.419 76.4012 47.0798C77.5697 48.2257 78.5496 49.549 79.3047 51.001ZM80.1323 45.6688C79.8067 45.3974 79.5353 45.0854 79.2097 44.8276C78.0971 43.9456 77.473 42.9823 78.6941 41.5441L81.0143 44.2577C81.5027 44.8411 81.2178 45.4246 80.9464 46.1572C80.6479 45.9944 80.363 45.8452 80.1323 45.6688ZM107.675 32.3315C109.276 32.3315 109.439 32.5079 109.914 34.638L104.473 34.3124C104.365 33.5526 104.243 32.8606 104.148 32.1958C104.404 32.0499 104.689 31.9601 104.982 31.9321C105.276 31.9042 105.573 31.9388 105.852 32.0336C106.131 32.1285 106.388 32.2814 106.604 32.4825C106.82 32.6835 106.991 32.928 107.105 33.1998L107.675 32.3315ZM110.131 32.63L110.972 32.4672L112.112 34.7873H110.755C110.511 33.9054 110.335 33.3355 110.131 32.63ZM112.845 33.8104C112.275 33.2405 112.356 32.8335 112.845 32.4536C113.021 32.9827 113.021 32.9827 112.79 33.8104H112.845ZM115.097 33.3355C115.395 34.6923 115.395 34.6923 114.473 34.6923C114.296 34.1496 113.971 33.539 115.043 33.3355H115.097ZM109.9 38.0572L104.88 37.718C104.799 36.7546 104.704 35.8999 104.609 34.8551L110.348 35.2079C110.538 35.6789 110.597 36.1926 110.518 36.6944C110.439 37.1961 110.226 37.6671 109.9 38.0572ZM112.831 36.8768C112.831 37.2567 112.831 37.623 112.831 38.0572C112.578 38.0708 112.324 38.0708 112.071 38.0572C110.972 37.9622 110.945 37.8943 111.04 36.7004C111.068 36.2485 111.068 35.7954 111.04 35.3436C112.614 35.4114 112.709 35.5064 112.777 36.8768H112.831ZM109.9 41.1914C109.602 41.1914 109.303 40.7436 108.937 40.4316C108.679 40.9878 108.109 41.015 107.472 40.8929C106.834 40.7708 105.993 40.6622 105.192 40.5401C105.07 39.8617 104.948 39.1833 104.812 38.5456C105.732 38.2992 106.701 38.2992 107.621 38.5456C108.489 38.5456 109.358 38.7898 110.24 38.9119L110.715 40.1059H110.972C111.067 39.7125 111.162 39.3326 111.244 38.9798C111.328 38.9294 111.419 38.8928 111.515 38.8712C113.292 39.0341 113.36 39.1562 112.872 41.3542C111.854 41.3542 111.854 41.3542 111.312 40.7436C110.868 40.9663 110.391 41.1175 109.9 41.1914ZM110.918 43.9728L109.1 44.0542C109.208 43.3215 109.303 42.616 109.426 41.7883L110.918 42.0054V43.9728ZM112.003 42.1954L112.994 42.521C112.994 43.0909 112.994 43.62 112.994 44.2713L111.786 44.1899C111.759 43.4979 111.854 42.8602 111.949 42.1954H112.003ZM106.495 43.6607C105.898 43.5522 105.491 43.308 105.545 42.5889C105.505 42.1311 105.428 41.6773 105.314 41.2321L108.381 41.6798C108.426 41.8166 108.458 41.9575 108.476 42.1004C108.34 43.8642 108.177 43.9999 106.441 43.6607H106.495ZM109.629 44.719C110.647 44.9361 111.691 45.0311 112.79 45.1939C112.79 46.008 112.695 46.5507 112.655 47.2562L109.426 46.4829C108.195 46.7196 106.922 46.5922 105.762 46.1165C105.762 45.4517 105.762 44.7597 105.762 44.217C107.417 44.122 107.865 44.3256 108.218 45.3703C108.36 45.1474 108.564 44.9709 108.805 44.8624C109.046 44.754 109.314 44.7183 109.575 44.7597L109.629 44.719ZM110.565 49.3321C110.494 49.3616 110.418 49.3768 110.341 49.3768C110.265 49.3768 110.188 49.3616 110.118 49.3321C110.053 49.2922 109.998 49.2388 109.955 49.1756C109.913 49.1124 109.885 49.0408 109.873 48.9658C109.873 48.4773 109.873 47.9889 109.968 47.5005L110.267 47.2969C110.497 47.4869 110.918 47.6768 110.918 47.8668C110.86 48.3735 110.723 48.868 110.511 49.3321H110.565ZM112.085 48.111C112.614 48.9115 112.614 48.9929 111.881 49.5492C111.895 49.1015 111.963 48.6402 112.031 48.111H112.085ZM108.856 49.4678L105.64 49.1693C105.64 48.3959 105.708 47.7311 105.749 46.9442L109.154 47.4462C109.005 48.0296 108.91 48.6673 108.801 49.4542L108.856 49.4678ZM110.335 51.91C110.335 52.3171 110.077 52.6291 109.453 52.3035C109.602 51.6523 109.765 50.9467 109.941 50.214C110.782 50.7296 110.321 51.3673 110.28 51.8965L110.335 51.91ZM111.691 50.9603C112.533 51.3266 111.963 52.0186 112.18 52.6563C111.176 52.3578 111.176 52.3578 111.596 50.9467L111.691 50.9603ZM111.976 53.6739C111.786 54.2437 111.569 54.8814 111.325 55.5734L108.774 55.0171C108.87 54.5817 108.988 54.1515 109.127 53.7281C109.208 53.5111 109.439 53.199 109.561 53.2261C109.808 53.3121 110.025 53.4676 110.185 53.6739C110.294 53.7824 110.307 53.9588 110.389 54.1623C110.864 54.0673 110.999 53.0226 111.881 53.6603L111.976 53.6739ZM109.778 56.1568C109.48 56.8759 109.195 57.595 108.883 58.3684L107.797 58.2056C107.553 55.8854 107.92 55.492 109.683 56.1432L109.778 56.1568ZM108.869 61.584L109.9 62.0182C109.643 62.6559 109.521 63.2936 108.476 62.9951C108.544 62.5337 108.625 62.1267 108.774 61.5704L108.869 61.584ZM106.821 62.5745C106.752 62.5135 106.698 62.438 106.663 62.3534C106.628 62.2689 106.612 62.1775 106.617 62.086C106.617 61.3669 106.97 61.2177 107.974 61.5026C107.804 61.8554 107.609 62.1954 107.39 62.5202C107.298 62.5958 107.184 62.6405 107.065 62.6478C106.945 62.6551 106.827 62.6247 106.726 62.5609L106.821 62.5745ZM105.179 78.856C104.812 79.5615 104.582 79.7922 103.985 79.4666C103.107 78.9913 102.2 78.5699 101.271 78.2047C100.851 78.0284 100.918 77.8384 101.068 77.5942L105.179 78.856ZM106.318 77.3228C105.654 78.2726 105.219 78.2997 103.944 77.4856C104.609 76.468 104.989 76.4409 106.318 77.3228ZM106.834 74.9349L107.675 75.2062C107.675 75.2062 107.675 75.2062 107.892 75.369L107.214 76.3595L105.247 75.8439C105.911 74.6092 105.911 74.6092 106.834 74.9213V74.9349ZM109.697 73.2524L108.544 74.6092L106.631 73.8359C107.309 72.3569 107.662 72.2891 109.697 73.2524ZM110.959 71.3258L110.077 72.4384L108.014 71.7057L108.72 70.471C109.536 70.5087 110.32 70.8031 110.959 71.3122V71.3258ZM112.316 68.8021L111.474 70.3896L110.28 70.0504C109.968 69.9418 109.656 69.7926 109.358 69.6705C110.158 67.9067 110.43 67.8252 112.383 68.7886L112.316 68.8021ZM113.55 66.6584L112.967 67.9067L111.827 67.5946L110.904 67.2961C111.339 66.0479 112.003 65.885 113.618 66.6448L113.55 66.6584ZM114.785 63.9448C114.486 64.5554 114.269 65.0167 113.984 65.573L111.99 65.1117L112.818 63.4428L114.785 63.9448ZM115.545 62.1267L114.907 63.3071C114.676 62.5066 115.138 62.3031 115.287 61.9503L115.545 62.1267ZM117.078 58.3277L115.029 58.0156C114.581 57.9312 114.128 57.8723 113.672 57.8392C113.321 57.8655 112.976 57.9527 112.655 58.097C112.655 58.097 112.655 58.4905 112.655 58.5312C113.035 58.7619 113.577 59.1825 113.822 59.0604C114.812 58.5583 115.667 59.0604 116.535 59.196C116.386 60.3357 116.386 60.3357 115.748 60.987C115.178 60.5393 115.748 59.8609 115.395 59.3588C114.527 59.2503 114.744 60.1865 114.256 60.5664H112.899C112.546 60.5664 112.126 60.5664 112.221 61.082C112.281 61.2225 112.372 61.3477 112.487 61.4486C112.602 61.5495 112.738 61.6236 112.885 61.6654C113.296 61.7132 113.71 61.7132 114.12 61.6654C114.039 62.7237 114.012 62.7373 113.265 62.6287L111.04 62.3981C111.04 63.185 111.04 63.185 111.691 63.7549C111.583 64.0262 111.529 64.4333 111.312 64.6096C111.019 64.8034 110.783 65.0713 110.628 65.3859C110.473 65.7006 110.405 66.0507 110.43 66.4006C110.43 66.6448 109.928 66.984 109.602 67.174C109.313 67.2668 109.01 67.3082 108.706 67.2961C108.259 68.0695 109.005 68.083 109.263 68.4222L108.706 69.3313L107.187 69.0871C107.025 69.1047 106.866 69.1412 106.712 69.1956C106.712 69.5348 106.712 69.874 106.793 70.2675L108.001 70.1318C107.977 70.3988 107.897 70.6577 107.766 70.8915C107.635 71.1254 107.456 71.3288 107.241 71.4886C106.766 71.3665 106.156 70.8102 105.749 71.4886C105.342 72.167 106.115 72.2891 106.549 72.6554C106.156 73.2796 105.762 73.6459 105.057 73.4695C104.896 73.4287 104.728 73.4287 104.568 73.4695C104.464 73.4845 104.366 73.5281 104.285 73.5954C104.204 73.6628 104.143 73.7513 104.109 73.8511C104.076 73.9509 104.07 74.0581 104.094 74.1608C104.117 74.2635 104.169 74.3577 104.243 74.4328C104.296 74.5172 104.378 74.5797 104.473 74.6092C104.663 74.6906 104.867 74.7449 105.084 74.8263C104.907 75.5318 104.541 75.7489 103.822 75.4911C103.103 75.2334 102.981 75.2605 102.832 76.1967L103.903 76.5223C103.239 77.9741 102.302 76.7665 101.285 76.9429C101.431 76.5651 101.603 76.1978 101.8 75.8439C102.642 74.6499 103.605 73.5238 104.324 72.262C105.328 70.5117 106.169 68.6936 107.038 66.8348C107.149 66.4343 107.231 66.0262 107.282 65.6137C107.438 65.0958 107.638 64.592 107.879 64.1076C108.082 63.7006 108.422 63.7956 108.788 64.1076C108.788 65.0574 108.069 65.7358 107.716 66.6448L108.544 66.767C109.185 66.0196 109.69 65.1654 110.036 64.2433C110.229 63.3505 110.342 62.4425 110.375 61.5297L108.435 60.4579L107.078 60.7835C107.228 60.0372 107.336 59.5352 107.485 58.8433L111.556 60.2001C111.556 59.3181 111.556 59.3181 109.765 58.5312L110.307 56.3468C110.932 56.2247 111.135 56.5096 111.04 57.093C110.945 57.6764 110.606 58.192 111.04 58.789C111.99 58.5176 111.678 57.595 111.936 57.093C113.801 56.7498 115.706 56.6721 117.593 56.8623C117.404 57.3101 117.254 57.7985 117.078 58.3277ZM118.041 54.4608C117.946 55.0442 117.878 55.5462 117.783 56.1432L116.684 55.8176C116.766 55.3292 116.82 54.8814 116.915 54.3116L118.041 54.4608ZM118.245 53.5925L117.146 53.4975C117.349 52.3578 117.349 52.3578 118.503 52.3307L118.245 53.5925ZM115.694 53.2804C115.518 53.2804 115.205 52.9819 115.233 52.8462C115.233 52.2628 115.748 52.3442 116.318 52.4392C116.318 52.9683 116.291 53.3754 115.667 53.2804H115.694ZM114.337 53.0497L112.98 53.6332L114.161 55.1799C114.988 55.3427 114.758 53.8231 115.87 54.2573C115.802 54.6779 115.735 55.1392 115.667 55.6141L112.316 55.8176C112.316 55.6548 112.207 55.5056 112.316 55.4241C113.161 53.2348 113.518 50.8869 113.36 48.5452C113.34 48.1701 113.34 47.7941 113.36 47.419C113.604 45.5467 113.862 43.6743 114.134 41.8155C114.17 41.4955 114.282 41.1888 114.459 40.92C114.459 42.3853 115.151 43.7557 114.581 45.2889C114.411 46.0892 114.443 46.9195 114.676 47.704C114.768 47.9537 114.806 48.22 114.787 48.4853C114.768 48.7507 114.694 49.0091 114.568 49.2436C114.443 49.4781 114.269 49.6833 114.058 49.8459C113.848 50.0085 113.605 50.1247 113.347 50.1869C113.727 50.4176 114.012 50.499 114.134 50.6889C114.256 50.8789 114.364 51.3402 114.256 51.4352C113.632 51.9643 113.754 52.507 114.256 53.0497H114.337ZM116.929 45.0175C117.227 46.7814 117.173 46.8628 115.83 46.7949C115.613 45.4381 115.613 45.4381 116.847 45.0175H116.929ZM118.747 51.3809L115.328 51.5437C115.328 51.0417 115.409 50.7296 115.45 50.1869L118.801 49.5899C118.747 50.2683 118.706 50.7703 118.665 51.3809H118.747ZM115.775 49.305C115.3 47.9482 115.409 47.8397 116.983 47.7311V48.9658L115.775 49.305ZM119.1 48.9115H117.743C118.054 47.6798 118.137 46.4013 117.987 45.1396C117.987 44.4612 117.987 44.4612 119.045 44.3527C118.991 45.8723 119.005 47.3512 119.018 48.9115H119.1ZM115.775 44.4748C115.68 43.8778 115.599 43.3622 115.504 42.7924L116.861 42.1818C116.861 42.5889 116.996 42.8738 117.024 43.1587C117.051 43.4436 117.024 43.6472 117.024 43.9457L115.775 44.4748ZM119.018 42.7517C119.018 43.4843 118.53 43.5115 117.919 43.5793C117.817 43.1979 117.799 42.7987 117.867 42.4097C117.935 42.0207 118.087 41.6512 118.313 41.327L117.159 40.6893L115.518 41.7069C115.518 41.0421 115.436 40.6215 115.395 40.0245L118.652 38.8305C118.747 40.2823 118.855 41.517 118.937 42.7517H119.018ZM118.625 38.1386L115.246 39.1969C115.246 38.6949 115.246 38.2607 115.124 37.8401L116.196 37.4602L116.63 38.3964C116.807 37.8265 116.915 37.5009 117.037 37.1345L118.231 36.8903C118.285 37.2702 118.408 37.6908 118.543 38.1386H118.625ZM114.839 36.4697C114.568 35.9134 114.961 35.6556 115.531 35.4792L116.033 36.429C115.436 36.6868 115.043 37.0396 114.758 36.4697H114.839ZM117.987 34.3667C117.987 34.8958 117.987 35.425 117.987 36.0762L116.63 36.2933C116.551 36.1663 116.502 36.0226 116.487 35.8736C116.472 35.7245 116.491 35.574 116.544 35.4336C116.596 35.2933 116.68 35.1669 116.789 35.0642C116.898 34.9616 117.03 34.8854 117.173 34.8416C117.423 34.6991 117.663 34.5405 117.892 34.3667L116.223 34.2717C116.142 33.7968 116.047 33.3626 115.965 32.9149L116.956 32.5486L117.906 34.3938L117.987 34.3667ZM116.684 30.0792C116.522 31.9516 116.277 32.1687 113.971 32.4943C113.822 32.0873 113.672 31.6667 113.482 31.1375C114.053 30.9828 114.614 30.797 115.165 30.5812C115.599 30.3777 116.033 29.9435 116.684 30.0792ZM112.003 30.9204C112.003 30.4998 112.098 30.2692 112.139 30.0249H112.79C112.953 29.4415 112.79 28.6003 113.822 28.5053C113.957 28.8174 114.12 29.1702 114.324 29.6586L112.003 30.9204ZM116.332 29.1294L115.165 29.6315C115.004 29.2458 114.899 28.8392 114.853 28.4239C114.853 28.1254 115.219 27.8812 115.572 27.4063C115.843 28.0711 116.06 28.4782 116.318 29.1294H116.332ZM115.328 26.8636L114.351 27.3249C114.079 26.8093 113.808 26.3209 113.564 25.846C114.717 24.8827 114.853 24.9641 115.328 26.8636ZM114.473 24.3264L113.279 24.9777L112.614 23.5259L113.876 22.7389C114.12 23.3224 114.283 23.7701 114.5 24.3264H114.473ZM113.632 21.2465C113.537 21.9249 113.211 22.3726 112.655 22.4269C112.356 22.4269 112.017 22.0877 111.705 21.8842C112.193 20.9344 112.858 21.0701 113.659 21.2465H113.632ZM112.275 20.0796L111.23 20.9751L110.972 20.8394C110.972 20.6088 110.972 20.3103 111.081 20.161C111.189 20.0118 111.732 19.564 112.302 20.0796H112.275ZM111.501 18.9806L110.647 19.5233C110.158 19.1299 110.158 18.7771 110.647 18.4786C111.135 18.1801 111.257 18.5329 111.501 18.9806ZM103.116 9.94436C105.489 11.8152 107.654 13.9348 109.575 16.267C109.575 16.267 109.724 16.4027 109.724 16.4705C109.724 16.5384 109.724 16.9726 109.724 17.2304C109.466 17.2304 109.1 17.2304 108.978 17.0811C108.449 16.4298 108.014 15.7243 107.526 15.0188C107.268 14.6524 106.997 14.2454 106.251 14.4761C107.082 15.9615 108.025 17.3812 109.073 18.7228L107.512 19.4826C106.78 18.2072 106.156 16.9726 105.355 15.765C105.022 15.3337 104.654 14.9299 104.256 14.5575C103.537 13.8112 102.899 13.0243 102.112 12.3052C101.923 12.14 101.798 11.9128 101.761 11.6642C101.724 11.4156 101.776 11.1619 101.909 10.9484L105.83 14.0147C105.915 13.7209 105.899 13.4068 105.783 13.1235C105.667 12.8403 105.459 12.6045 105.192 12.4544C104.161 11.5589 103.144 10.6499 102.126 9.74084L102.33 9.48305C102.604 9.61575 102.867 9.77 103.116 9.94436ZM99.0461 9.07601C99.1159 9.18078 99.1617 9.29968 99.1802 9.42421C99.1987 9.54873 99.1895 9.67581 99.1532 9.79636C99.1169 9.91691 99.0544 10.028 98.9702 10.1216C98.886 10.2152 98.7822 10.289 98.6662 10.3378C98.5576 11.1519 99.6295 11.6946 99.236 12.5358L98.232 12.9971C98.6255 13.5399 97.8928 13.5127 97.8792 13.662C97.9002 14.0393 97.9971 14.4085 98.1641 14.7474C97.4586 15.5344 97.1873 13.8926 96.4139 14.5032L96.8752 15.6293L96.2511 16.3349L94.1887 14.9781H94.1209C93.8088 15.4258 94.1209 15.6836 94.4194 15.9821C94.7179 16.2806 94.5686 16.5791 94.0395 16.7555C93.7546 16.3349 93.4425 15.8736 93.0219 15.2223L94.1209 14.9781C94.1492 14.7908 94.2419 14.6192 94.383 14.4929C94.5242 14.3666 94.705 14.2935 94.8943 14.2861C95.939 14.164 96.5089 13.2821 97.2958 12.7665C97.5193 12.5672 97.6597 12.2911 97.6893 11.9931C97.7969 11.2927 97.8513 10.5852 97.8521 9.87652C97.8049 9.55732 97.6631 9.25959 97.445 9.02174C96.8616 8.2348 96.2511 7.46142 95.5998 6.60664C96.3603 6.60615 97.1019 6.84413 97.7201 7.28709C98.3383 7.73006 98.802 8.35571 99.0461 9.07601ZM92.4113 5.95538C93.3475 6.06392 93.7681 6.878 94.3516 7.44786C94.8734 8.00624 95.367 8.59039 95.8305 9.19812C95.7747 9.28091 95.7111 9.35815 95.6405 9.42878C94.7121 9.14192 93.8932 8.57865 93.2933 7.81419C92.8066 6.97951 92.1096 6.28711 91.2716 5.80613C90.9102 5.54332 90.5658 5.25782 90.2405 4.95135C91.4887 4.59859 91.638 5.8604 92.4113 5.95538ZM88.341 3.0247C88.4444 3.12433 88.5191 3.24996 88.5573 3.38842C88.5955 3.52688 88.5958 3.67306 88.558 3.81164C88.4495 4.01516 88.0289 4.11014 87.744 4.083C87.459 4.05587 87.3641 3.79808 87.1877 3.62169L85.6409 2.12922C86.8349 2.46842 87.6083 2.69907 88.3952 3.0247H88.341ZM46.416 75.4233C45.953 76.3909 45.3793 77.3015 44.7064 78.1369L44.4758 78.0284C44.4765 77.8068 44.5131 77.5869 44.5843 77.3771C45.7376 74.8128 46.918 72.2755 48.0441 69.7112C48.5868 68.4901 49.0075 67.2283 49.4823 65.98C49.6419 65.4615 49.8556 64.9612 50.12 64.4875C51.314 62.7101 51.8296 60.5664 53.2678 58.9247C53.681 57.5613 54.3898 56.3059 55.3437 55.2478C56.7005 53.3754 57.4739 51.1774 58.8985 49.3864C60.8387 46.9306 62.6568 44.3798 64.5156 41.8562C64.8277 41.4492 65.1262 41.0828 65.6553 41.0692C66.0895 41.4356 65.8181 41.7069 65.6553 41.9647C64 44.0678 62.3176 46.1437 60.7166 48.2874C59.9704 49.2779 59.3598 50.404 58.7492 51.4487C58.4507 51.91 58.1115 52.3171 57.7995 52.8055C56.2527 55.0714 55.0859 57.5272 53.607 59.8744C52.1983 62.2486 50.9692 64.7249 49.9301 67.2825C48.7361 69.9418 47.5692 72.6826 46.416 75.4233ZM98.1099 70.8645C96.8452 73.6937 95.075 76.2686 92.8862 78.4625C92.6149 78.7203 92.3299 78.9374 92.045 79.1816L91.7601 78.9781C91.9907 78.6118 92.2078 78.2319 92.452 77.8791C93.5375 76.2374 94.7179 74.6499 95.7084 72.9675C96.9973 70.7695 98.1235 68.4765 99.3581 66.1835C100.104 64.8739 100.692 63.4802 101.108 62.0317C101.458 60.9627 101.912 59.931 102.465 58.9518C103.1 58.1072 103.409 57.0616 103.334 56.0076C104.107 56.1161 104.053 56.6453 103.917 57.0523C103.621 57.8789 103.263 58.6817 102.845 59.4538C102.207 60.5606 101.835 61.801 101.76 63.0765C101.698 63.612 101.527 64.1293 101.258 64.5961C100.24 66.6855 99.1139 68.7479 98.1099 70.8645ZM65.4789 44.3663C65.791 45.3974 65.1397 45.913 64.8005 46.5236C64.0679 47.799 63.2674 49.0201 62.4669 50.2412C61.6664 51.4623 60.6895 52.6563 59.9025 53.9317C58.5457 56.1025 56.7548 58.0021 55.9407 60.4579C55.9244 60.5426 55.8871 60.6219 55.8321 60.6885C54.1361 62.181 53.9191 64.4468 52.9015 66.2921C52.8496 66.405 52.7758 66.5065 52.6844 66.5906C52.6844 66.5906 52.5351 66.5906 52.2773 66.5906C52.3095 65.5239 52.6231 64.4848 53.1864 63.5785C54.1633 61.6247 55.1266 59.6709 56.2527 57.8257C57.3789 55.9804 58.5457 54.5829 59.699 52.9005C60.5945 51.5437 61.4221 50.1869 62.3176 48.8301C63.2131 47.4733 64.1222 46.2115 65.0312 44.8954C65.1262 44.7597 65.2483 44.4612 65.4789 44.3663ZM65.5468 77.3228C65.6186 77.0382 65.7281 76.7644 65.8724 76.5087C67.2292 74.6771 68.6946 72.8725 70.0242 71.0816C71.3539 69.2906 72.4393 67.4589 73.674 65.6544C74.6373 64.2976 75.6413 62.8594 76.6182 61.4483C76.8218 61.1498 77.0117 60.8106 77.2017 60.4986L78.1378 58.9111L78.5313 59.0739C78.3927 59.664 78.202 60.2406 77.9615 60.7971C77.5409 61.5704 76.9846 62.2624 76.5097 63.0086C76.0348 63.7549 75.7363 64.3654 75.3021 65.0438C74.868 65.7222 74.2031 66.7262 73.6197 67.5403C73.0363 68.3544 72.2629 69.4534 71.5031 70.3353C71.4116 70.41 71.3359 70.5022 71.2807 70.6067C71.2255 70.7111 71.1919 70.8256 71.1817 70.9433C71.1716 71.0609 71.1852 71.1795 71.2218 71.2918C71.2584 71.4041 71.3171 71.508 71.3946 71.5971C70.1192 71.8414 69.685 72.8861 69.0745 73.7409C68.4639 74.5957 68.0569 75.2741 67.5141 76.0339C67.2924 76.3724 67.0033 76.6616 66.6648 76.8833C66.3263 77.1051 65.9457 77.2547 65.5468 77.3228ZM63.5523 73.7137C66.4694 69.5077 68.7081 64.8539 71.8288 60.7971L72.0458 60.892C72.0531 60.9278 72.0531 60.9648 72.0458 61.0006C72.0654 61.0808 72.0654 61.1646 72.0458 61.2448C71.6147 62.2405 71.1254 63.21 70.5805 64.1483C68.3961 67.5132 66.5101 71.0951 63.7965 74.0665C63.7287 74.1479 63.5794 74.1615 63.3895 74.2429C63.4069 74.0443 63.4621 73.8508 63.5523 73.673V73.7137ZM81.1906 63.4021C80.5665 64.284 79.8338 65.1388 79.3047 66.0343C78.9926 66.5092 78.8434 67.1061 78.5178 67.5675C77.622 69.0719 76.5814 70.4852 75.4107 71.7871C74.2031 72.9675 73.2805 74.365 72.1408 75.5725C71.882 75.8176 71.6103 76.0486 71.3267 76.2645L71.0554 75.9932C72.3443 74.3786 73.6604 72.7775 74.8951 71.1087C76.1298 69.4398 77.3916 67.581 78.5992 65.7901C79.2504 64.8132 79.8203 63.7956 80.4308 62.8051C80.5364 62.6233 80.6744 62.4624 80.8379 62.3302C80.9464 62.2488 81.2042 62.1945 81.2856 62.2624C81.367 62.3302 81.5841 62.6152 81.557 62.7644C81.498 62.9812 81.3965 63.1841 81.2585 63.3614L81.1906 63.4021ZM78.3142 81.1761C76.1976 83.4148 73.9318 85.5314 71.7202 87.6887C71.5049 87.8452 71.2728 87.9772 71.0282 88.0822C70.5398 87.6345 70.3634 87.2817 70.879 86.8747C71.6388 86.2912 72.3579 85.64 73.1448 85.1108C75.6588 83.3678 77.8413 81.1899 79.5896 78.6796C80.7836 77.0379 81.7741 75.2469 83.0359 73.2524C82.8324 73.8766 82.7374 74.2429 82.6017 74.6092C81.6152 77.0572 80.1586 79.2882 78.3142 81.1761ZM95.7762 68.3815C96.5285 66.8804 97.1901 65.3354 97.7571 63.7549C97.804 63.4995 97.9376 63.2682 98.1354 63.1001C98.3332 62.932 98.583 62.8374 98.8425 62.8322C98.7408 63.534 98.5727 64.2246 98.3405 64.8946C97.8114 66.0343 97.1194 67.0926 96.5631 68.2052C96.1425 69.0192 95.8847 69.9147 95.437 70.7017C94.65 72.0584 93.7681 73.4152 92.8998 74.772C92.7104 75.0932 92.4876 75.3933 92.235 75.6675C91.9093 76.0067 91.543 76.3188 91.2038 76.6444L90.9867 76.4816C91.041 76.2746 91.1184 76.0744 91.2174 75.8846C92.737 73.3745 94.3515 70.9323 95.7762 68.3815ZM73.6604 79.1002C74.6916 77.8927 75.5599 76.7394 76.5775 75.7218C78.3866 73.7691 80.004 71.6473 81.4077 69.3856C81.6248 69.0599 81.869 68.7479 82.1133 68.4358L82.371 68.5715C82.1575 69.2322 81.8756 69.8688 81.5298 70.471C80.211 72.6954 78.6254 74.7503 76.8082 76.5901C76.6162 76.8084 76.392 76.996 76.1434 77.1464C75.8716 77.2515 75.6256 77.4137 75.422 77.622C75.2184 77.8303 75.0618 78.0799 74.9629 78.354C74.8838 78.6222 74.7041 78.8495 74.4615 78.9886C74.2188 79.1276 73.9319 79.1676 73.6604 79.1002ZM89.5485 86.142C89.3859 86.3044 89.2446 86.4867 89.1279 86.6847C87.5856 87.4144 86.2478 88.5144 85.2339 89.8867C84.5826 89.6697 84.5555 89.2084 84.8811 88.8285C85.3363 88.2383 85.8921 87.733 86.5228 87.336C89.2613 85.8769 91.7117 83.9322 93.7546 81.5967C93.9038 82.4379 93.9038 82.5058 93.1983 83.1028C92.045 84.1068 90.8103 85.1244 89.5485 86.142ZM58.7628 62.2488C60.9201 58.9382 63.0639 55.6141 65.3433 52.0864C65.3739 52.4368 65.3464 52.7898 65.2619 53.1312C64.5021 54.6236 63.7151 56.1025 62.901 57.5679C62.5754 58.1513 62.1277 58.6533 61.7885 59.2232C61.0558 60.5664 59.7668 61.2584 58.8171 62.3167L58.7628 62.2488ZM83.1716 87.4445L89.155 81.8002C89.3857 82.153 89.25 82.4922 88.9922 82.845C88.558 83.4555 88.1374 84.0932 87.7168 84.7038C87.5947 84.8666 87.459 85.0837 87.2962 85.1515C86.088 85.7377 85.0087 86.5587 84.1213 87.5666C83.8364 87.9058 83.4701 88.0958 83.1716 87.4445ZM101.827 50.3226H101.543C101.477 49.8734 101.445 49.4198 101.448 48.9658C101.671 46.6329 101.671 44.284 101.448 41.9512C101.448 41.9512 101.543 41.8291 101.665 41.6934C102.479 41.9105 102.547 42.7517 102.533 43.2673C102.57 45.6384 102.334 48.0058 101.827 50.3226ZM95.9254 63.09L96.6988 60.8649L98.7747 54.895C99.0055 55.1097 99.1645 55.3903 99.2301 55.6987C99.2956 56.007 99.2645 56.3281 99.141 56.6181C98.4837 58.6878 97.6531 60.6985 96.6581 62.6287C96.5789 62.7561 96.4718 62.8638 96.3448 62.9437C96.2179 63.0236 96.0745 63.0736 95.9254 63.09ZM72.3308 77.8655C73.1177 76.9972 73.9454 76.156 74.7459 75.3012C74.8629 75.1229 75.0153 74.9705 75.1936 74.8535C75.4107 74.7449 75.8042 74.5685 75.9127 74.6635C76.2519 74.962 76.0077 75.2605 75.7499 75.5047L74.8408 76.3731L70.2549 80.8234C69.9971 81.0676 69.7936 81.3661 69.5493 81.6374L69.2644 81.3932C70.282 80.2264 71.2996 79.0324 72.3308 77.8655ZM83.4294 78.8424C82.7238 79.4801 82.3711 80.5384 81.1228 80.8369L88.6666 71.6921C88.4391 72.5978 87.997 73.4355 87.3776 74.1344C86.7399 74.9077 86.1429 75.7218 85.5052 76.4952C84.8642 77.3212 84.1709 78.1053 83.4294 78.8424ZM67.989 87.051C67.989 86.8475 67.989 86.6576 68.084 86.5897C70.1738 85.1179 72.1265 83.4604 73.9182 81.6374C73.9182 81.6374 74.081 81.6374 74.271 81.5424C73.7825 83.157 70.9468 85.6264 67.989 87.051ZM90.4168 73.863C89.7766 75.998 88.4207 77.8474 86.5771 79.1002C87.5768 77.1654 88.8723 75.3984 90.4168 73.863ZM99.141 61.4754C99.5405 59.5098 100.089 57.5776 100.783 55.6955C101.448 55.8447 101.556 56.1432 101.434 56.5096C101.244 57.1473 101.013 57.7714 100.769 58.382C100.525 58.9925 100.186 59.9423 99.8601 60.7021C99.7081 61.0293 99.4564 61.3 99.141 61.4754ZM92.3571 71.068C92.9152 69.2042 93.7134 67.4209 94.7315 65.7629C95.3827 66.6855 94.8536 67.3504 94.6094 67.9067C94.1639 69.1441 93.39 70.2369 92.3706 71.068H92.3571ZM102.899 68.8971L104.65 65.885H104.935C104.99 66.2038 104.99 66.5296 104.935 66.8484C104.473 67.8252 104.161 68.6936 102.913 68.8971H102.899ZM66.483 86.3591C67.2396 85.1603 68.3625 84.2373 69.685 83.7269C68.8121 84.8172 67.7216 85.7136 66.483 86.3591ZM66.6187 81.3932C67.0598 80.4098 67.8469 79.6228 68.8302 79.1816C68.307 80.1055 67.5425 80.8699 66.6187 81.3932ZM89.2636 78.6796L89.4807 78.8424L87.8525 80.8912C87.961 79.9414 87.9611 79.9414 89.2636 78.6796ZM79.4811 13.8112L79.2776 13.8791C79.2776 13.7162 79.1826 13.5534 79.1283 13.3906L79.3318 13.3228C79.3861 13.5534 79.4404 13.6484 79.4811 13.8112ZM32.5631 97.322C32.6306 97.3303 32.6955 97.3535 32.753 97.3898C32.753 97.4712 32.753 97.5662 32.753 97.6069L32.0882 98.1632C32.0068 98.0275 31.8576 97.8783 31.8847 97.7697C31.8955 97.6937 31.9223 97.6207 31.9634 97.5558C32.0045 97.4909 32.0589 97.4354 32.1231 97.3931C32.1872 97.3508 32.2596 97.3225 32.3354 97.3103C32.4113 97.298 32.4889 97.302 32.5631 97.322Z" fill="#101A24"/>
</svg>
