<svg width="22" height="20" viewBox="0 0 22 20" fill="none" xmlns="http://www.w3.org/2000/svg">
<path d="M11.9291 2.40079L11.9291 2.40077L11.5407 2.80231L11.0016 3.35959L10.4625 2.80231L10.0741 2.40077L10.0694 2.39583L10.0694 2.39581C8.08958 0.311207 4.74904 0.189977 2.61607 2.12871L11.9291 2.40079ZM11.9291 2.40079L11.9332 2.39653M11.9291 2.40079L11.9332 2.39653M11.9332 2.39653C12.9294 1.35035 14.3284 0.752059 15.7977 0.750126C17.2653 0.75261 18.6624 1.35091 19.6569 2.39641C21.7802 4.63735 21.781 8.09389 19.6593 10.3357L11.0338 19.2379L11.0334 19.2383L11.0328 19.2389L11.0326 19.2391C11.026 19.2452 11.0158 19.2504 11.0002 19.25C10.9847 19.2496 10.9753 19.2439 10.9696 19.2381L10.9693 19.2378M11.9332 2.39653L10.9693 19.2378M10.9693 19.2378L2.34077 10.3357C0.218866 8.09347 0.219743 4.63662 2.3434 2.39543M10.9693 19.2378L2.3434 2.39543M2.3434 2.39543C2.43077 2.30346 2.52168 2.21455 2.61596 2.12882L2.3434 2.39543Z" stroke="#0B1928" strokeWidth="1.5"/>
</svg>
