<svg width="160" height="168" viewBox="0 0 160 168" fill="none" xmlns="http://www.w3.org/2000/svg">
<path fill-rule="evenodd" clip-rule="evenodd" d="M158.246 61.3814C158.246 61.49 158.246 61.5442 158.246 61.5714C157.965 62.9327 158.172 64.3494 158.829 65.5739C158.92 65.7102 158.962 65.8722 158.952 66.0352C158.667 67.8533 159.264 69.6036 159.318 71.381C159.318 72.0051 159.318 72.6293 159.318 73.3619L159.82 73.7011C159.838 73.7998 159.838 73.901 159.82 73.9996C159.373 74.7446 158.978 75.5198 158.639 76.3197C158.457 76.8935 158.457 77.5099 158.639 78.0836C158.998 79.304 158.892 80.614 158.341 81.7605C157.73 83.3208 157.161 84.8811 156.631 86.4686C155.821 89.5286 154.243 92.3309 152.045 94.6094C150.946 95.6541 149.902 96.7531 148.762 97.7436C148.397 98.0432 148.148 98.4606 148.056 98.924L146.998 104.202C146.981 104.358 146.949 104.513 146.903 104.663C145.736 106.739 145.94 109.236 144.895 111.352C144.583 111.99 144.312 112.709 143.986 113.292C142.076 117.11 139.38 120.481 136.076 123.183C134.308 124.751 132.32 126.049 130.174 127.037C129.332 127.407 128.608 128.004 128.084 128.76C127.922 128.963 127.732 129.153 127.379 129.56C127.379 129.031 127.487 128.787 127.569 128.285C126.307 129.194 125.181 129.927 124.177 130.795C123.838 131.08 123.797 131.704 123.58 132.26C123.232 132.244 122.883 132.285 122.549 132.383C122.264 132.532 122.087 132.912 121.83 133.224L120.866 132.966C118.777 134.676 116.62 136.426 114.489 138.217C113.567 138.99 112.712 139.831 111.871 140.673C111.582 141.001 111.323 141.356 111.097 141.731C110.772 142.206 110.46 142.694 110.161 143.088C110.758 143.318 110.853 143.495 110.392 143.942C109.056 145.419 107.628 146.81 106.118 148.108C104.69 149.253 103.092 150.168 101.383 150.821C99.2386 151.528 97.0367 152.046 94.8022 152.368C93.1605 152.667 91.4781 152.653 89.8364 152.897C88.1946 153.142 86.6343 153.521 85.0604 153.928C83.795 154.267 82.5531 154.689 81.3428 155.19C80.9776 155.296 80.6447 155.492 80.3745 155.76C80.1043 156.028 79.9055 156.359 79.7961 156.723C79.6875 157.239 79.484 157.388 78.9006 157.538C77.944 157.885 77.0639 158.415 76.3091 159.098C75.0717 160.109 73.776 161.047 72.4287 161.906C70.8336 162.817 69.1631 163.589 67.4357 164.213C64.8985 165.136 62.2934 165.909 59.7019 166.682C59.0455 166.812 58.3748 166.853 57.7075 166.804L52.8094 166.872C52.143 166.757 51.4575 166.827 50.8285 167.076C50.6385 167.184 50.2994 167.076 50.028 166.981C49.2546 166.818 48.4812 166.587 47.7079 166.479C46.0898 166.213 44.5152 165.729 43.0269 165.041C42.3078 164.729 41.5209 164.525 40.7882 164.227C39.7105 163.843 38.659 163.39 37.6404 162.87C36.9177 162.484 36.0884 162.346 35.2796 162.476C32.4325 162.872 29.5423 162.84 26.7047 162.381C23.862 161.975 21.0815 161.214 18.4282 160.115C17.8177 159.817 17.1935 159.559 16.5965 159.234C13.7221 157.851 11.1492 155.915 9.02563 153.535C7.85879 152.056 6.84119 150.482 5.74219 148.963C4.19401 146.629 2.99207 144.083 2.17381 141.405C1.72963 139.98 1.41181 138.518 1.22406 137.036C0.462504 133.084 0.0898681 129.067 0.111485 125.042C0.111485 123.183 0.47782 121.325 0.654203 119.466C1.30338 114.822 2.41235 110.254 3.96478 105.83C5.03247 102.362 6.31486 98.9632 7.80451 95.6541C8.78141 93.4289 9.67689 91.1631 10.6266 88.8701C10.8639 88.2779 11.1404 87.7023 11.4543 87.147C12.4286 85.1859 13.2409 83.1485 13.883 81.055C14.6021 79.1148 15.4568 77.2288 16.2981 75.3429C16.7153 74.4056 17.0512 73.4341 17.3021 72.4393C17.7363 70.8654 18.4418 69.373 18.9709 67.8262C19.7036 65.6825 20.4363 63.5252 21.0468 61.3543C21.3725 60.201 21.4403 58.9935 21.6574 57.8131C22.2833 53.9248 22.4427 49.9757 22.1323 46.0496C22.0373 44.0959 22.1323 42.1285 21.8745 40.2019C21.6417 38.5807 21.2087 36.9948 20.5855 35.4802C19.5001 32.7666 18.8081 30.053 17.8719 27.3394C17.4106 25.9826 16.678 24.748 16.1217 23.4319C15.7689 22.5906 15.5111 21.7087 15.2126 20.8539C15.0769 20.474 14.9684 20.1077 14.8599 19.7549C13.2588 19.7549 12.499 18.9409 12.3498 17.1092L13.7066 18.7373C13.7872 18.3911 13.7838 18.0305 13.6964 17.6858C13.6091 17.3412 13.4404 17.0225 13.2046 16.7564C12.7868 16.0732 12.5424 15.2981 12.4928 14.4988C12.4431 13.6995 12.5896 12.9002 12.9196 12.1705C13.2875 10.9223 13.7974 9.72046 14.4392 8.58852C14.8734 7.81514 15.796 7.3267 16.2709 6.59403C17.3178 5.34595 18.6681 4.38812 20.1921 3.8126C21.5489 3.1749 22.7835 2.27942 24.0861 1.53318C24.4945 1.28027 24.9261 1.06675 25.375 0.895485C26.6782 0.50678 28.0064 0.207588 29.3504 0C29.5947 0.624126 29.771 1.08544 29.961 1.54675C30.0288 1.69599 30.1781 1.94022 30.3002 1.94022C30.9921 1.94022 31.0464 2.44223 31.2228 2.97138C31.7051 4.53393 32.2712 6.06934 32.9188 7.57092C34.0042 9.87747 35.2118 12.1433 36.4465 14.3549C36.923 15.187 37.512 15.9495 38.1967 16.6207C40.5847 19.1444 43.0134 21.6138 45.442 24.0831C45.7852 24.5231 46.2129 24.8902 46.6998 25.1628C47.1867 25.4354 47.7232 25.608 48.2777 25.6706C48.4134 25.6706 48.5491 25.8198 48.7119 25.9284C48.8747 26.0369 48.7119 26.5525 48.7119 27.0138C50.3301 27.516 51.8866 28.1987 53.3521 29.049C54.7889 29.8689 56.3764 30.3904 58.0195 30.5822C59.5861 31.0705 61.223 31.2952 62.8633 31.247C65.2657 31.2796 67.6633 31.4699 70.0407 31.8169C72.3066 31.9254 74.5724 32.1968 76.8247 32.3053C77.5479 32.2428 78.2622 32.1018 78.9549 31.8847C79.2042 32.1681 79.5228 32.3821 79.8795 32.5058C80.2361 32.6294 80.6188 32.6585 80.9901 32.5902C82.3469 32.5902 83.7037 32.7123 85.0604 32.7802C85.3402 32.8074 85.6219 32.8074 85.9017 32.7802C88.1121 32.5564 90.3395 32.5564 92.55 32.7802C96.5254 32.9566 100.501 33.2551 104.476 33.54C105.616 33.6214 106.756 33.7842 107.909 33.9335C108.424 33.9335 108.899 34.0827 109.266 33.5264C109.632 32.9701 109.971 33.1465 110.12 33.5943C110.27 34.042 110.785 34.1777 111.26 34.2184C113.512 34.3948 115.778 34.449 118.044 34.7611C120.568 35.1003 123.064 35.6566 125.561 36.1179C126.063 36.2129 126.578 36.1179 127.067 36.24C127.497 36.3747 127.915 36.5472 128.315 36.7556L128.79 36.24C128.939 36.335 129.088 36.3621 129.116 36.4571C129.211 36.6976 129.361 36.9125 129.554 37.0845C129.747 37.2565 129.978 37.3809 130.228 37.4476C131.029 37.7189 131.802 38.0445 132.603 38.3023C133.312 38.4721 133.981 38.7811 134.57 39.2114C135.361 39.7434 136.225 40.1592 137.134 40.4461C139.516 41.4604 141.712 42.8635 143.633 44.5979C143.986 44.8964 144.393 45.1542 144.99 45.5883L144.705 44.9099C144.637 44.7707 144.605 44.617 144.61 44.4622C145.845 45.4234 146.981 46.5051 148.002 47.6914C149.336 49.4797 150.87 51.1094 152.575 52.5487C152.737 52.6607 152.875 52.8036 152.982 52.9693C153.986 54.4618 154.976 55.9678 155.967 57.4603C156.143 57.7181 156.374 57.9352 156.536 58.2065C156.727 58.5342 156.887 58.8795 157.011 59.2377C157.147 59.6555 157.256 60.0815 157.337 60.5131C157.5 61.0558 157.73 61.3543 158.246 61.3814Z" fill="white"/>
</svg>
