<svg width="177" height="167" viewBox="0 0 177 167" fill="none" xmlns="http://www.w3.org/2000/svg">
<path d="M163.967 164.419C163.696 164.976 163.3 165.462 162.81 165.839C162.319 166.217 161.748 166.475 161.14 166.594C160.357 166.714 159.574 166.834 158.78 166.877C155.956 167.076 153.118 166.842 150.365 166.181C150.092 166.118 149.816 166.071 149.538 166.04C146.776 165.594 144.025 165.159 141.274 164.702C141.001 164.638 140.736 164.547 140.481 164.431C138.78 163.66 136.99 163.105 135.152 162.778C133.992 162.564 132.885 162.128 131.89 161.494C130.313 160.495 128.572 159.781 126.746 159.385C126.114 159.217 125.509 158.957 124.953 158.613C122.886 157.526 120.777 156.536 118.798 155.351C117.2 154.34 115.764 153.057 114.264 151.882C112.043 150.101 110.152 147.944 108.675 145.51C107.054 142.912 104.716 141.313 102.281 139.682C100.081 138.264 98.2473 136.345 96.931 134.082C95.463 131.44 93.9732 128.797 92.5816 126.101C92.0125 124.784 91.5153 123.437 91.0918 122.067C90.2654 119.892 89.4826 117.608 88.5692 115.423C87.9604 113.977 87.1447 112.617 86.3942 111.215C85.7748 110.018 85.2308 108.79 84.5462 107.637C83.861 106.485 82.9799 105.223 82.1647 104.049C81.8277 103.559 81.4036 103.135 80.8814 102.516C80.5008 102.744 79.9462 102.875 79.6962 103.233C78.2952 105.268 76.4321 106.941 74.2593 108.116C72.389 109.094 71.465 110.779 70.4098 112.465C69.1823 114.436 67.702 116.239 66.0063 117.826C63.0111 120.479 59.6214 122.651 55.9589 124.263C55.2568 124.519 54.5268 124.69 53.7842 124.774C52.3162 125.057 50.8592 125.339 49.4347 125.579C47.8081 125.746 46.1645 125.576 44.6068 125.079C43.6257 124.8 42.5867 124.8 41.6056 125.079C39.2555 125.676 36.8286 125.914 34.4072 125.785C33.0165 125.672 31.64 125.425 30.297 125.046C29.0248 124.774 27.7634 124.448 26.5129 124.078C25.5562 123.867 24.6338 123.523 23.7728 123.056C22.6281 122.333 21.3342 121.879 19.9887 121.729C17.8596 121.327 15.7935 120.644 13.8451 119.696C11.1593 118.608 8.40821 117.63 5.71153 116.532C4.57247 116.257 3.53991 115.651 2.74301 114.792C2.61598 114.653 2.46493 114.54 2.29718 114.455C1.63935 114.157 1.12475 113.613 0.864371 112.94C0.603995 112.267 0.618713 111.518 0.905351 110.856C1.89741 107.249 3.52898 103.849 5.72241 100.82C6.37467 100.102 7.1714 99.5317 8.06026 99.1445C8.44738 98.986 8.7805 98.7188 9.01964 98.3756C9.25879 98.0324 9.39382 97.6273 9.40861 97.2094C9.3941 96.9723 9.44287 96.7357 9.54995 96.5242C11.0179 94.0669 12.0618 91.3155 14.3453 89.3911C15.4004 88.5669 16.3826 87.6541 17.2812 86.6614C17.814 85.9048 18.1842 85.0461 18.3685 84.1388C19.0972 81.5699 20.5104 79.247 22.4571 77.4191C24.8296 75.2358 27.6662 73.6182 30.7537 72.6891C31.9157 72.3499 33.112 72.1423 34.3203 72.0692C35.1576 71.9861 35.9482 71.6441 36.582 71.0905C37.2822 70.5236 38.0117 69.9936 38.7676 69.5031C39.0394 69.3179 39.3983 69.2096 39.5831 68.9702C40.6705 67.524 42.4538 67.1323 43.9326 66.3388C45.763 65.5102 47.7519 65.0912 49.7609 65.1102C52.425 64.9467 55.1108 65.0449 57.9703 65.0337C57.2421 64.6861 56.6005 64.4032 55.9698 64.0879C55.5797 63.939 55.2557 63.6555 55.0564 63.2884C54.857 62.9218 54.7953 62.4955 54.8824 62.087C54.8778 61.8309 54.9635 61.5821 55.1247 61.3829C55.2858 61.1842 55.5119 61.0481 55.7632 60.9995C56.1672 60.8935 56.5631 60.7591 56.9487 60.5972C58.1338 60.0209 59.3078 59.4015 60.5152 58.7816C60.4968 58.4451 60.3852 58.1209 60.1933 57.8442C60.0013 57.568 59.7363 57.3504 59.4277 57.2159C58.1042 56.2389 57.0893 54.903 56.5026 53.3664C55.5962 51.4855 54.4643 49.7218 53.1318 48.1144C52.284 47.0597 51.7557 45.7844 51.6094 44.4391C51.4029 42.9168 50.9788 41.4271 50.8157 39.9156C50.6576 38.4967 50.6285 37.0664 50.7287 35.6422C50.8646 33.6988 50.81 31.7467 50.5656 29.814C50.2655 28.2196 50.1777 26.5925 50.3046 24.9751C50.2909 23.9559 50.1817 22.9402 49.9784 21.9414C49.8104 20.2761 49.7559 18.6013 49.8153 16.9286C50.0179 15.4128 50.323 13.9124 50.7287 12.4378L51.6094 8.08831C52.1531 5.34811 53.1535 2.87978 55.6871 1.37921C56.4937 0.819129 57.3917 0.403378 58.3402 0.150482C59.1008 0.0512016 59.8741 0.118415 60.6067 0.34747C61.3388 0.576525 62.0123 0.961949 62.5809 1.47707C63.2337 1.99901 63.7772 2.65143 64.3859 3.22774C66.5609 5.29374 68.8224 7.34888 71.008 9.4366C72.7076 11.0227 74.574 12.4192 76.5755 13.6013C81.5816 16.4866 86.1448 20.0793 90.1243 24.2683C91.6531 25.9523 93.0598 27.7438 94.332 29.6291C97.3975 34.0872 99.2355 39.2738 99.6601 44.6675C99.7689 46.2006 100.117 47.7012 100.313 49.2235C100.422 50.039 100.443 50.8655 100.519 51.9528C101.542 50.4631 102.466 49.2017 103.292 47.8752C104.209 46.3664 105.325 44.9877 106.609 43.7758C107.112 43.2322 107.577 42.6545 108.001 42.0469C108.49 41.7207 109.088 41.3944 109.61 40.9595C110.132 40.5245 110.936 39.9374 111.578 39.3937C111.958 39.0784 112.285 38.6869 112.665 38.3063C113.046 37.9258 113.165 37.73 113.405 37.7409C114.22 37.7409 114.612 37.1211 115.21 36.8275C116.971 35.9793 118.711 35.0877 120.516 34.3592C123.668 33.2363 126.925 32.4313 130.237 31.9561C133.619 31.3145 136.946 30.4446 140.328 29.7813C141.872 29.4769 143.46 29.4008 145.036 29.2485C149.299 28.8462 153.539 28.3569 157.53 26.6171C160.57 25.4334 163.816 24.8643 167.078 24.9425C167.636 24.9747 168.19 25.0658 168.73 25.2144C169.527 25.4729 170.346 25.655 171.176 25.7581C173.145 25.8233 174.439 26.9977 175.7 28.259C176.962 29.5204 176.787 30.064 175.809 31.3254C174.515 33.0326 173.33 34.8267 171.949 36.4578C170.785 37.8069 169.52 39.0647 168.165 40.2201C166 42.1892 164.043 44.3754 162.325 46.7443C160.285 49.526 158.571 52.5323 157.215 55.7042C156.28 57.7917 155.399 59.9232 154.279 61.9024C152.67 64.7185 151.201 67.6434 148.842 69.9707C147.515 71.2752 146.319 72.7109 144.982 73.9831C144.004 74.9071 142.873 75.6682 141.829 76.5163C139.948 78.0496 138.044 79.5394 136.251 81.1486C135.296 82.0442 134.161 82.726 132.923 83.1495C132.533 83.3476 132.167 83.592 131.836 83.8783C132.499 84.0529 133.175 84.1762 133.858 84.2476C135.955 84.3486 137.992 84.9847 139.774 86.0962C140.902 86.7418 141.925 87.5559 142.807 88.51C143.946 89.5534 145.324 90.3 146.82 90.685C148.357 91.2748 149.818 92.0487 151.169 92.99C153.79 94.5886 155.681 96.9701 157.694 99.1774C158.063 99.6528 158.354 100.185 158.552 100.754C158.707 101.311 158.982 101.827 159.359 102.267C159.734 102.706 160.201 103.058 160.727 103.299C161.065 103.467 161.342 103.737 161.519 104.07C161.696 104.403 161.766 104.783 161.717 105.158C161.699 105.551 161.768 105.943 161.921 106.307C162.073 106.669 162.304 106.994 162.598 107.256C162.884 107.565 163.093 107.938 163.206 108.344C163.58 109.494 164.351 110.473 165.381 111.106C165.935 111.448 166.407 111.908 166.762 112.454C168.027 114.124 169.069 115.951 169.861 117.891C170.424 119.566 170.635 121.339 170.481 123.1C170.394 124.861 170.415 126.655 169.393 128.232C169.215 128.658 169.137 129.119 169.165 129.58C169.301 130.408 169.18 131.259 168.817 132.016C168.746 132.138 168.716 132.278 168.73 132.418C169.078 134.593 168.806 136.768 169.72 138.866C169.977 139.464 170.156 140.093 170.252 140.737C170.348 141.186 170.298 141.654 170.111 142.074C169.024 143.803 168.697 145.804 168.067 147.707L167.936 148.131L167.806 150.088V150.262C168.032 151.764 167.92 153.297 167.48 154.751C167.04 156.205 166.282 157.543 165.261 158.667C164.993 158.921 164.8 159.245 164.704 159.602C164.608 159.959 164.612 160.336 164.718 160.69C164.857 161.33 164.862 161.992 164.733 162.633C164.604 163.275 164.343 163.883 163.967 164.419Z" fill="white"/>
</svg>
