<svg width="259" height="216" viewBox="0 0 259 216" fill="none" xmlns="http://www.w3.org/2000/svg">
<path d="M77.7618 203.566C77.1486 201.764 76.6447 199.926 76.2528 198.062C74.8403 190.662 73.5283 183.287 72.2033 175.813C71.8864 173.794 71.8226 171.742 72.0121 169.707C72.2103 166.328 71.9796 162.936 71.3245 159.615C70.4901 154.759 69.5737 149.922 68.7623 145.058C68.3781 142.109 68.5928 139.113 69.3933 136.249C70.2395 131.962 70.7642 127.618 70.9633 123.253C71.1508 120.732 71.467 118.211 71.692 115.688C72.1568 111.3 71.7588 106.865 70.5194 102.63C68.9662 97.7714 66.1771 93.7897 63.7521 89.5263C63.6533 89.3722 63.396 89.3689 62.8767 88.9555C63.1739 90.0837 63.3633 90.8693 63.5443 91.6327C65.0075 95.8975 65.9475 100.324 66.342 104.816C66.4965 107.987 66.4312 111.153 66.5321 114.319C66.6021 116.843 66.8008 119.369 66.8999 121.87C67.3055 125.795 66.9614 129.761 65.8865 133.558C65.2594 136.161 64.834 138.808 64.6149 141.476C63.6349 147.01 62.6863 152.558 61.5324 158.071C61.0964 159.715 60.4066 161.28 59.4872 162.711C59.1878 163.392 58.2343 163.711 57.4537 164.308C57.0144 163.671 56.5411 163.279 56.4258 162.784C55.0394 158.221 54.1957 153.508 53.9114 148.747C53.8344 145.444 53.2279 142.166 52.9309 138.858C52.7457 136.763 52.7183 134.646 52.5491 132.557C52.3475 129.828 52.0562 127.095 51.8171 124.366C51.9069 122.918 51.7541 121.465 51.3662 120.067C50.8357 118.778 50.5529 117.401 50.5326 116.006C50.3904 114.491 49.9441 113.02 49.2199 111.682C48.4956 110.344 47.5077 109.167 46.3165 108.22C45.6264 107.628 45.0027 106.963 44.4568 106.237C42.2887 103.369 40.4376 100.274 38.937 97.0074C37.8707 94.69 36.4516 92.5877 35.2979 90.343C34.4762 88.7861 33.7607 87.1743 33.1561 85.5205C31.7739 81.5315 30.5412 77.4967 29.1987 73.5439C28.2056 70.7667 27.1257 68.0194 25.9594 65.3011C24.4758 62.1071 23.3217 58.7702 22.5161 55.3426C21.6305 51.1479 20.5496 46.9775 19.8136 42.7369C19.3981 40.385 19.2867 37.9898 19.4822 35.6094C19.6671 33.0581 18.8699 30.5331 17.2542 28.5506C14.853 25.2393 12.5614 21.8468 10.0437 18.6318C7.63137 15.722 5.14469 12.9823 2.73931 10.0571C1.85609 8.8787 1.06511 7.63457 0.371429 6.3354C0.13794 5.97439 0.030982 5.5455 0.0691066 5.11712C0.107261 4.68874 0.288002 4.28551 0.581775 3.97152C1.02435 3.4277 1.45853 2.86169 1.91723 2.32487C3.89999 0.00327767 6.37316 0.594338 8.19599 2.74579C11.8071 7.12598 15.0348 11.7066 18.5118 16.1386C19.7307 17.592 21.0229 18.9814 22.3851 20.3018C22.5697 20.5123 22.863 20.6417 22.9878 20.8627C24.7226 23.7146 27.4355 25.4822 29.8997 27.6024C31.6392 28.8962 33.6485 29.7815 35.7774 30.1926C38.9047 31.0165 42.0329 31.8406 45.1012 32.8416C49.0667 34.0028 52.9608 35.3978 56.7625 37.019C64.3593 40.4387 71.3641 45.0464 77.512 50.6683C80.2571 53.2821 82.6286 56.2849 85.2303 59.0564C87.2026 61.1631 89.2615 63.197 91.3205 65.2309C93.3794 67.2647 95.4674 69.2749 97.475 71.3417C97.89 71.7827 98.0228 72.4878 98.409 73.4154C97.7239 73.4276 97.0402 73.3621 96.3708 73.219C94.3499 72.4396 92.3345 71.6065 90.3542 70.7344C86.1166 68.8673 81.8221 67.086 77.708 64.9776C72.2059 62.1655 66.8621 59.0346 61.4137 56.0982C59.9989 55.3278 58.4599 54.797 56.9745 54.1429C55.8357 53.5963 54.7644 52.9192 53.7816 52.1257C51.3669 50.0658 48.7671 48.2342 46.0156 46.6542C43.5799 45.1265 41.2257 43.4727 38.9627 41.6996C38.6541 41.563 38.3852 41.3344 37.8469 41.0044C37.9815 42.0925 38.5283 43.0868 39.3749 43.7836C42.3146 46.115 44.6746 49.0952 46.2692 52.4913C47.0967 53.9549 48.2686 55.1943 49.6839 56.1018C51.5327 57.5249 53.2824 59.0727 54.9193 60.7361C57.6482 63.4717 60.2689 66.3259 62.9043 69.1489C63.9577 70.2785 64.8955 71.5038 65.9429 72.6488C67.7236 74.7568 69.9577 76.4361 72.4785 77.5607C74.8004 78.6201 76.892 80.1256 78.6344 81.9911C83.786 87.0682 88.871 92.0425 93.7686 97.3593C96.2112 99.9491 98.2217 103.015 100.518 105.726C102.814 108.437 105.285 111.299 107.508 114.218C110.055 117.575 112.456 121.053 114.836 124.539C116.738 127.225 118.465 130.054 120.243 132.851C120.409 133.203 120.531 133.572 120.607 133.954C120.421 134.102 120.207 134.213 119.978 134.279C119.748 134.345 119.508 134.365 119.272 134.338C119.035 134.31 118.805 134.237 118.597 134.121C118.389 134.004 118.205 133.848 118.058 133.661C116.524 132.32 114.962 131.004 113.39 129.666C108.999 125.883 104.53 122.233 100.147 118.474C94.0018 113.18 87.921 107.822 81.8049 102.505C79.9393 100.859 77.9874 99.3141 75.9564 97.8774C76.5041 99.0234 77.0073 100.188 77.6371 101.315C79.8777 105.202 82.2425 109.015 84.431 112.934C86.2865 116.226 87.9367 119.65 89.734 122.991C90.3847 124.033 91.1581 124.994 92.0374 125.854C95.0916 128.985 98.4404 131.815 102.037 134.304C104.614 136.04 107.479 137.302 110.498 138.032C113.37 138.892 116.363 139.435 119.169 140.486C122.585 141.616 125.829 143.207 128.813 145.216C129.185 145.38 129.51 145.689 129.876 145.906C132.167 147.248 134.557 148.448 136.756 149.953C139.389 151.752 142.404 152.916 145.564 153.354C148.896 153.98 152.027 155.398 154.695 157.488C154.878 157.599 155.041 157.74 155.177 157.904C157.404 160.732 160.217 163.024 162.13 166.102C162.525 166.756 163.052 167.322 163.499 167.943C163.945 168.564 163.92 169.292 163.018 169.578C162.371 169.768 161.691 169.808 161.026 169.698C158.963 169.306 156.892 168.892 154.867 168.332C152.843 167.772 150.751 166.944 148.705 166.264C147.808 165.868 146.796 165.773 145.886 165.409C144.264 164.912 142.707 164.225 141.246 163.365C139.072 161.915 136.694 160.799 134.19 160.053C131.776 159.284 129.324 158.518 126.919 157.901C125.63 157.555 124.275 157.53 122.959 157.247C121.116 156.86 119.283 156.366 117.431 155.919C117.198 155.817 116.925 155.807 116.359 155.668C117.223 157.267 118.301 158.743 119.561 160.053C121.798 162.774 124.07 165.457 126.241 168.242C128.187 170.743 130.016 173.341 131.887 175.883C132.218 176.251 132.505 176.656 132.741 177.09C134.085 179.56 135.668 181.891 137.469 184.05C139.829 187.454 142.138 190.891 144.47 194.319C146.801 197.748 148.939 200.944 151.174 204.255C150.124 206.638 149.227 206.871 147.282 205.293C146.013 204.272 144.859 203.117 143.578 202.128C141.338 200.42 139.134 198.674 136.766 197.132C133.36 194.986 130.345 192.277 127.847 189.119C125.278 185.771 122.35 182.69 119.642 179.446C117.616 177.001 115.707 174.461 113.694 171.986C112.672 170.741 111.577 169.538 110.497 168.342C108.728 166.285 106.81 164.359 104.76 162.582C104.853 163.222 104.987 163.855 105.163 164.477C106.571 168.533 108.031 172.557 109.446 176.597C109.963 178.063 110.332 179.573 110.929 180.945C112.308 184.563 113.738 188.149 115.191 191.725C117.759 198.139 120.377 204.521 122.9 210.951C123.091 211.836 123.146 212.745 123.062 213.646C122.158 213.77 121.238 213.689 120.371 213.409C119.503 213.129 118.709 212.657 118.049 212.028C114.049 209.001 110.839 205.052 108.694 200.518C106.691 196.68 104.383 192.948 102.18 189.188C99.1415 183.97 95.5438 179.097 93.3514 173.384C93.0445 172.696 92.8164 171.977 92.6719 171.238C91.7474 166.615 90.3663 162.097 88.5494 157.748C88.2221 156.749 88.059 155.704 88.0653 154.653C88.0442 151.436 87.5904 148.235 86.7175 145.138C86.0738 142.55 85.5698 139.93 85.2074 137.287C84.824 133.353 83.5718 129.552 81.5405 126.159C81.3038 125.816 81.22 125.335 80.6824 125.005C80.8498 126.428 80.9727 127.868 81.2314 129.292C82.1644 134.469 83.1226 139.644 84.1054 144.818C84.4336 147.327 85.002 149.799 85.8044 152.198C86.4018 153.796 86.5769 155.521 86.313 157.206C86.0096 159.991 86.4334 162.8 86.192 165.612C85.9389 169.895 85.4232 174.159 84.6491 178.378C83.8195 182.086 83.5105 185.892 83.731 189.684C83.8178 192.358 83.559 195.031 82.9598 197.638C82.6343 199.341 82.37 201.072 81.905 202.715C81.6428 203.5 81.1523 204.191 80.4958 204.697C80.26 204.886 79.9772 205.007 79.678 205.05C79.3789 205.093 79.0743 205.054 78.7953 204.938C78.5162 204.823 78.2729 204.635 78.0908 204.393C77.9095 204.153 77.7957 203.867 77.7618 203.566ZM105.067 83.7927C106.164 87.0621 107.6 90.2085 109.353 93.1803C110.181 94.4868 111.068 95.7833 111.792 97.118C113.701 100.711 115.892 104.148 118.346 107.394C122.249 112.94 126.883 117.933 132.123 122.238C132.716 122.72 133.4 123.078 134.134 123.29C134.723 123.355 135.319 123.311 135.891 123.16C135.817 122.573 135.928 121.901 135.656 121.43C133.84 118.173 132.083 114.869 130.009 111.776C128.942 110.288 128.066 108.673 127.399 106.968C126.406 103.982 124.624 101.405 124.202 98.171C124.177 97.9756 124.017 97.7946 123.932 97.6091C122.649 95.0302 121.276 92.4865 120.133 89.8403C118.588 86.2221 117.249 82.5105 115.746 78.838C115.047 77.0712 114.377 75.2798 113.53 73.5954C112.332 71.4438 111.379 69.1649 110.687 66.8014C110.233 65.1002 109.673 63.4296 109.013 61.7968C107.972 59.0473 106.87 56.3084 105.753 53.5626C105.095 51.8612 104.35 50.1945 103.519 48.5706C102.103 45.915 100.555 43.3489 99.0884 40.7262C99.0884 40.7262 99.1906 40.4941 99.3065 40.2313C99.6747 40.4139 100.025 40.6298 100.352 40.8766C103.489 43.6072 106.613 46.3692 109.667 49.0814C113.477 52.2514 116.268 56.475 117.689 61.2239C118.626 64.4622 119.855 67.6265 120.809 70.9102C121.763 74.1937 122.343 77.8663 123.372 81.2749C124.401 84.6827 125.869 88.4334 127.162 91.9954C127.802 93.773 128.583 95.5208 129.095 97.3351C130.316 101.623 131.907 105.798 133.849 109.811C134.482 111.006 135.216 112.145 136.043 113.216C137.01 114.583 138.139 115.838 139.121 117.213C141.629 120.701 144.108 124.212 146.572 127.718C147.296 128.758 147.962 129.845 148.744 130.836C150.59 133.145 152.486 135.422 154.368 137.692C156.249 139.961 158.051 142.159 159.951 144.344C160.616 145.099 161.34 145.973 162.546 145.709C163.556 143.919 163.578 143.911 162.8 142.405C162.357 141.526 161.817 140.697 161.333 139.91C160.096 137.518 158.781 135.221 157.597 132.834C156.586 130.903 155.707 128.906 154.969 126.855C153.435 122.245 152.178 117.554 150.659 112.951C148.867 107.544 146.926 102.181 145.023 96.8178C144.11 94.2361 143.22 91.6453 142.114 89.1264C140.388 85.1892 138.564 81.3071 136.643 77.4802C135.185 74.5847 133.59 71.8324 131.924 68.9919C131.178 67.6664 130.35 66.3592 129.56 65.0504L129.907 64.7235C130.654 65.2927 131.365 65.9009 132.147 66.4303C136.828 69.6013 141.016 73.4441 144.577 77.8361C145.12 78.4846 145.699 79.1029 146.308 79.6896C149.204 82.5909 152.128 85.4302 155.001 88.3406C157.661 91.0638 160.264 93.8362 162.859 96.6231C163.786 97.6223 165.065 98.408 165.032 100.075C165.039 100.354 165.408 100.647 165.618 100.923C166.776 102.154 167.848 103.495 168.894 104.935C169.749 105.972 170.491 107.098 171.108 108.293C173.234 112.904 174.293 117.936 174.208 123.013C174.209 125.526 174.499 128.054 174.576 130.563C174.778 131.884 174.718 133.232 174.398 134.53C173.703 136.735 173.2 139.008 172.698 141.28C172.348 144.012 171.524 146.662 170.263 149.11C170.099 149.335 169.985 149.594 169.929 149.868C169.446 153.145 168.887 156.427 168.554 159.697C168.13 164.516 167.874 169.372 167.588 174.214C167.366 178.069 167.23 181.944 167.047 185.797C167.001 186.571 166.902 187.34 166.91 188.12C166.915 191.502 167.11 194.876 166.902 198.238C166.784 200.144 167.232 202.225 165.848 203.942C165.732 204.206 165.745 204.636 165.74 204.984C165.727 206.734 165.706 208.498 165.761 210.259C165.699 210.876 165.808 211.5 166.077 212.059C166.547 212.758 166.751 213.601 166.654 214.438C166.669 214.906 167.039 215.365 167.237 215.84C167.741 215.661 168.219 215.41 168.653 215.097C168.892 214.751 169.062 214.363 169.158 213.953C170.296 211.37 171.427 208.802 172.566 206.219C173.362 204.979 174.087 203.696 174.74 202.375C175.684 199.731 176.278 196.975 176.505 194.176C177.061 187.998 178.491 181.931 180.752 176.154C180.895 175.83 181.038 175.505 181.274 175.221C182.623 172.453 184.17 169.737 185.303 166.874C187.963 159.665 189.239 152.018 189.065 144.335L189.087 143.698C189.191 138.977 188.794 134.257 187.902 129.62C187.827 129.161 187.782 128.717 187.691 127.919C188.064 128.167 188.418 128.44 188.752 128.738C190.918 131.244 193.105 133.74 195.219 136.279C197.333 138.818 199.533 141.874 201.979 144.411C204.914 147.338 208.298 149.776 212.003 151.635C212.759 152.005 213.468 152.466 214.113 153.008C216.858 155.455 219.632 157.878 222.247 160.453C225.193 163.275 228.551 165.633 232.206 167.445C232.983 167.78 233.723 168.193 234.416 168.678C238.195 171.622 241.692 174.913 244.861 178.507C246.943 180.865 249.368 182.949 251.649 185.192C251.787 185.342 251.955 185.461 252.141 185.544C252.327 185.626 252.528 185.67 252.732 185.671C252.936 185.673 253.138 185.632 253.325 185.552C253.513 185.473 253.682 185.355 253.822 185.207C254.474 184.608 254.017 183.927 253.715 183.313C253.115 182.033 252.509 180.768 252.014 179.461C250.826 176.37 249.913 173.16 248.505 170.194C246.845 166.71 244.785 163.42 242.851 160.056C241.289 157.139 239.478 154.363 237.437 151.759C235.273 149.254 232.849 146.985 230.206 144.99C225.01 140.853 219.928 136.583 214.84 132.327C213.096 130.876 211.49 129.282 209.693 127.659C210.816 127.877 211.833 128.084 212.834 128.285C216.744 128.821 220.563 129.883 224.188 131.441C226.055 132.291 227.999 132.961 229.992 133.444C230.316 133.519 230.652 133.523 230.978 133.456C231.304 133.39 231.612 133.253 231.88 133.057C232.465 132.484 231.96 131.744 231.502 131.192C231.157 130.738 230.763 130.323 230.329 129.954C227.088 127.584 223.89 125.159 220.517 122.879C218.655 121.615 216.524 120.75 214.59 119.564C211.68 117.784 208.924 115.905 206.13 113.99C205.897 113.888 205.729 113.684 205.257 113.329L206.518 113.109C208.908 112.96 211.275 112.56 213.581 111.917C214.12 111.774 214.682 111.739 215.234 111.814C216.212 111.858 217.2 112.089 218.159 112.05C221.971 112.066 225.772 112.471 229.502 113.261C232.254 113.723 235.023 114.13 237.81 114.484C242.841 115.205 247.738 116.66 252.347 118.802C253.893 119.484 255.661 120.041 256.405 121.791C258.268 121.503 258.749 121.125 258.227 120.211C256.891 117.721 255.099 115.503 252.945 113.672C250.066 111.513 246.84 109.861 243.406 108.786C241.273 108.026 239.332 106.811 237.716 105.226C235.182 102.658 231.991 100.836 228.491 99.9607C224.438 99.0984 220.386 98.2361 216.265 97.6948C212.903 97.1924 209.498 97.0402 205.901 96.6932C208.614 95.0632 210.991 93.5249 213.465 92.1023C218.274 89.3637 221.439 85.0321 224.532 80.6513C226.931 76.909 229.706 73.4223 232.812 70.2432C234.894 68.2426 236.801 66.0532 238.725 63.9092C239.113 63.4888 239.56 62.5588 239.406 62.3618C238.9 61.839 238.255 61.4713 237.546 61.302C236.992 61.1962 236.422 61.2162 235.876 61.3612C234.283 61.677 232.79 62.3758 231.526 63.3968C229.034 65.2354 226.525 67.1591 223.908 68.9057C219.301 71.8925 215.014 75.3448 211.112 79.2074C207.527 82.838 203.325 85.8022 198.703 87.9623C194.253 89.9085 189.604 91.3654 184.838 92.3075C182.54 92.9888 180.158 93.3443 177.76 93.363C176.72 93.2925 175.666 93.5484 174.607 93.562C173.986 93.5804 173.369 93.4653 172.797 93.2265C166.879 90.4338 162.57 85.7091 157.811 80.7496C158.793 80.8677 159.325 80.9179 159.836 81.0141C162.938 81.6044 166.041 82.233 169.156 82.7933C172.577 83.4138 176.025 83.9721 179.344 84.5296C180.114 84.6667 180.86 84.9025 181.628 84.9637C183.049 85.0913 183.446 84.5269 182.943 83.2344C182.779 82.8113 182.764 82.3431 182.584 81.9123C182.404 81.4823 182.205 80.8032 181.814 80.5576C180.377 79.6285 178.791 78.7827 177.231 77.9653C175.67 77.1479 174.416 76.7247 173.112 75.9106C167.45 72.4553 161.846 68.9511 156.219 65.456C155.678 65.218 155.296 64.6989 154.462 64.0354L155.715 64.126C160.177 64.5221 164.308 66.2127 168.63 67.1756C171.43 67.9132 174.279 68.453 177.155 68.7888C179.536 68.9577 181.901 69.3084 184.229 69.8375C186.61 70.517 189.102 70.7169 191.561 70.4266C193.849 70.0123 196.139 69.6364 198.403 69.193C202.152 68.4811 205.886 67.7623 209.609 66.9829C213.023 66.3741 216.206 64.8453 218.816 62.5619C219.309 62.0678 219.915 61.7005 220.58 61.492C221.328 61.2685 222.003 60.8504 222.537 60.2806C223.069 59.7107 223.442 59.0102 223.617 58.2493C224.196 56.934 223.272 55.8443 221.792 56.0599C220.689 56.2519 219.61 56.563 218.575 56.9884C216.935 57.7902 215.152 58.2601 213.33 58.3711C211.779 58.3707 210.227 58.3709 208.705 58.1797C207.137 58.1009 205.579 57.9137 204.037 57.6203C199.912 56.6706 195.833 55.5745 191.716 54.6478C187.6 53.7203 183.874 53.0391 179.887 52.1508C173.626 50.7047 167.162 50.3562 160.781 51.1199C158.605 51.3617 156.425 51.4911 154.258 51.7552C153.009 51.9067 151.787 52.2919 150.557 52.5254C148.183 53.195 145.695 53.3574 143.254 53.0022C141.673 52.6273 140.061 52.399 138.439 52.321C136.395 52.3136 134.366 51.9806 132.427 51.3344C130.604 50.8755 128.828 50.2469 127.121 49.458C123.665 47.547 120.097 45.8458 116.437 44.3626C115.458 43.838 114.541 43.2049 113.704 42.4753C113.147 42.0634 112.695 41.4951 112.158 41.0365C109.466 38.7608 106.762 36.5162 104.064 34.256C103.89 34.0556 103.73 33.8433 103.586 33.6208C104.097 33.5396 104.615 33.5018 105.132 33.5077C108.133 33.7401 111.161 33.9107 114.153 34.2872C119.194 34.9199 124.204 35.7053 129.218 36.3997C130.263 36.5478 131.319 36.6054 132.375 36.5716C136.599 36.4569 140.818 36.0624 145.033 36.2206C148.005 36.4308 150.99 36.1962 153.892 35.5247C159.667 33.9873 165.387 32.241 171.126 30.5768C172.268 30.2487 173.468 30.0389 174.567 29.5995C177.759 28.3091 180.958 26.8744 184.081 25.5721C186.022 24.7284 187.931 23.8333 189.825 22.9314C190.69 22.5185 190.947 21.7265 190.306 21.2961C188.755 20.2438 187.621 18.5434 185.516 18.3733C184.55 18.1747 183.597 17.9151 182.663 17.5964C179.634 16.7796 176.552 16.1685 173.44 15.7672C169.865 15.6421 166.285 15.7555 162.725 16.1069C159.429 16.3354 156.18 16.9173 152.86 17.1166C147.225 17.3304 141.637 17.4357 135.965 17.356C132.361 17.1395 128.747 17.1259 125.141 17.3151C122.761 17.5595 120.351 17.4951 117.986 17.7086C115.45 17.7861 112.93 18.1371 110.469 18.7555C106.006 20.084 101.428 20.9859 96.796 21.449C91.5104 22.1535 86.1478 20.9256 81.6957 17.991C80.9927 17.5209 80.262 17.094 79.5074 16.7126C74.5567 14.3651 69.5707 12.0574 64.6277 9.69456C61.2504 8.09562 57.936 6.39517 54.5725 4.76523C53.7746 4.38666 52.8687 4.3029 52.0151 4.52865C51.1622 4.75451 50.4162 5.27522 49.9101 5.99863C48.4238 9.37046 49.3957 13.7883 53.2164 14.8436C54.8651 15.2931 56.588 15.8676 58.2581 16.4373C59.8872 16.9058 61.4738 17.5122 63.0008 18.2499C65.7139 19.7223 68.2949 21.4508 70.9381 23.0401C72.0916 23.7332 73.2505 24.3731 74.4109 25.0507C78.3998 27.3994 82.7157 29.3009 85.2985 33.542C86.8433 35.4486 88.2118 37.492 89.3871 39.6471C91.1574 44.0791 92.6425 48.62 93.8321 53.2426C95.0896 57.9341 96.5219 62.5791 98.1275 67.1774C99.4383 71.5646 101.124 75.8298 103.168 79.9267C103.902 81.1631 104.537 82.4553 105.067 83.7927Z" fill="white"/>
</svg>
