<svg width="266" height="159" viewBox="0 0 266 159" fill="none" xmlns="http://www.w3.org/2000/svg">
<path d="M209.34 128.455C210.068 127.764 209.9 126.886 209.882 125.99C209.907 124.819 210.026 123.651 210.236 122.499C211.645 122.75 213.066 122.925 214.493 123.021C216.062 123.021 217.182 122.256 217.182 121.154C217.21 120.034 216.98 118.923 216.51 117.906C214.842 114.95 212.27 112.607 209.172 111.222C204.544 108.828 199.666 106.95 194.628 105.62C195.07 105.453 195.526 105.321 195.991 105.228C197.596 105.228 199.221 105.228 200.808 105.06C202.168 104.891 203.499 104.539 204.766 104.015C207.137 103.025 207.604 101.718 206.633 99.403C206.241 98.5255 205.718 97.6853 204.99 96.3037C207.884 97.2932 210.236 98.0587 212.552 98.9176C214.288 99.5524 215.931 100.411 217.686 100.971C220.362 101.801 222.885 103.062 225.154 104.705C226.943 106.063 228.814 107.311 230.756 108.44C231.256 108.823 231.843 109.078 232.465 109.181C233.087 109.285 233.724 109.234 234.322 109.033C234.92 108.832 235.459 108.487 235.891 108.029C236.324 107.57 236.638 107.013 236.805 106.405C237.048 105.9 237.216 105.378 237.458 104.743C238.411 105.06 239.325 105.434 240.222 105.639C243.34 106.349 244.908 104.612 243.956 101.587C243.597 100.387 242.942 99.2963 242.052 98.4154C241.161 97.5344 240.063 96.8917 238.859 96.5464L235.685 95.2208L235.853 94.7353C238.933 95.4635 242.014 96.1356 245.188 96.9011C249.538 98.0214 253.87 99.2723 258.258 100.299C259.285 100.559 260.37 100.455 261.33 100.006C262.289 99.5568 263.064 98.7897 263.523 97.8347C264.456 96.2663 264.12 94.754 262.514 92.8122C261.973 92.1588 261.506 91.4493 260.909 90.6278C262.178 89.993 263.205 89.5449 264.157 88.9661C264.609 88.7769 264.994 88.4574 265.264 88.0483C265.533 87.6393 265.674 87.1593 265.67 86.6696C265.576 85.624 264.755 85.2693 263.803 84.9519C258.736 83.2491 253.301 82.9587 248.082 84.1117C244.394 85.0464 240.583 85.3992 236.786 85.1572C238.896 83.8316 241.024 82.5247 243.134 81.1804C243.73 80.9244 244.214 80.4633 244.498 79.8809C244.782 79.2984 244.848 78.6333 244.684 78.0063C244.348 76.3073 243.788 75.6352 241.977 75.4671C240.628 75.4305 239.28 75.5054 237.944 75.6912C237.427 75.7786 236.915 75.8971 236.413 76.0459C236.21 75.49 235.891 74.9833 235.479 74.5591C235.066 74.1348 234.569 73.8024 234.019 73.5838C233.469 73.3653 232.879 73.2654 232.287 73.2907C231.696 73.316 231.117 73.466 230.587 73.7307C225.938 75.2431 222.372 78.4171 218.657 81.3297C215.39 84.2487 211.779 86.7568 207.903 88.798C206.67 87.9765 205.382 86.931 203.982 86.2588C202.837 85.5526 201.57 85.0651 200.248 84.8212C197.783 84.5784 195.281 84.8212 192.779 84.6345C192.179 84.7264 191.566 84.6872 190.983 84.5196C190.4 84.352 189.86 84.0599 189.4 83.6636C190.814 83.153 192.35 83.0814 193.806 83.4582C197.428 83.9623 199.295 82.1326 198.399 79.0706C198.367 78.8915 198.367 78.7082 198.399 78.5291C198.773 78.3051 199.183 78.081 199.575 77.801C201.442 76.5874 200.602 74.8697 199.165 74.2348C198.658 73.9933 198.101 73.878 197.54 73.8988C195.393 74.0295 193.246 74.2349 191.099 74.4589C190.109 74.5523 189.101 75.019 188.205 74.1228C188.951 73.3668 189.868 72.8023 190.879 72.4772C191.89 72.1521 192.965 72.0761 194.012 72.2558C197.934 72.5718 201.817 73.2658 205.606 74.3282C207.943 74.9424 210.311 75.4285 212.701 75.7845C216.286 76.1953 218.302 73.6001 217.275 70.1833L216.92 68.9884C217.491 68.8183 218.051 68.6189 218.601 68.3909C220.319 67.5321 220.356 66.8973 219.273 65.2169C218.735 64.3564 217.934 63.6921 216.989 63.3222C216.045 62.9523 215.006 62.8965 214.027 63.1631C213.537 63.2797 213.027 63.2725 212.541 63.1421C212.055 63.0117 211.61 62.7622 211.245 62.4163C212.304 61.8377 213.425 61.3804 214.587 61.0533C217.478 60.363 220.446 60.0431 223.418 60.1011C225.42 60.0289 227.413 59.7853 229.374 59.3729C230.541 59.1519 231.594 58.5317 232.354 57.6187C233.114 56.7057 233.532 55.5569 233.537 54.3692C233.558 53.3136 233.238 52.2795 232.627 51.419C232.015 50.5585 231.143 49.9172 230.139 49.5895C229.485 49.3085 228.86 48.9646 228.272 48.5626C227.843 44.6044 227.264 44.0629 223.511 43.9696C223.287 43.9696 223.044 43.9696 222.802 43.9696C219.907 44.0335 217.095 44.9491 214.717 46.6022C212.852 47.9734 210.742 48.9748 208.5 49.5521C209.471 47.6851 209.62 46.2474 208.407 45.0151C206.54 43.1481 204.785 44.2683 203.104 45.3886L202.525 44.7164C201.218 43.1667 200.378 43.0734 198.997 44.511C198.108 45.3233 197.386 46.2996 196.868 47.3863C194.665 52.9876 191.79 58.5888 190.632 64.6007C190.583 65.1319 190.38 65.6373 190.049 66.0551C189.717 66.4729 189.271 66.785 188.765 66.9533L183.556 68.8203C182.492 66.7666 180.83 66.3185 178.328 66.7479C179 65.833 179.262 65.0675 179.691 64.8808C181.203 64.4887 181.353 63.2378 181.558 62.0989C181.708 61.2799 181.776 60.4481 181.763 59.6157L179.112 57.4312C179.911 55.9302 181.14 54.7016 182.641 53.9024C185.653 52.2462 188.216 49.8816 190.109 47.0129C190.71 45.7284 191.658 44.6372 192.845 43.862C194.033 43.0868 195.413 42.6585 196.831 42.6253C197.708 42.6253 198.586 42.3826 199.463 42.3266L213.634 41.4677C216.056 41.31 218.423 40.6755 220.599 39.6006C221.251 39.2959 221.81 38.822 222.217 38.2283C222.625 37.6345 222.866 36.9426 222.915 36.2242C222.965 35.5059 222.821 34.7874 222.499 34.1433C222.177 33.4993 221.688 32.9532 221.084 32.5618C220.767 32.3564 220.505 32.0763 220.02 31.6842C222.186 30.3399 222.018 28.5102 221.663 26.4938C221.439 25.1495 220.748 24.6267 219.609 24.6267C218.26 24.7807 216.924 25.0366 215.614 25.3922C214.792 25.5602 213.989 25.803 212.645 26.1577C212.959 25.5016 213.334 24.8765 213.765 24.2906C216.435 21.6207 219.142 18.9881 221.85 16.3556C222.891 15.5393 223.737 14.5003 224.325 13.3146C224.913 12.129 225.228 10.8267 225.248 9.50341C225.237 8.87177 225.082 8.25099 224.793 7.68891C224.505 7.12683 224.091 6.63847 223.585 6.26145C223.078 5.88444 222.491 5.62885 221.87 5.51438C221.248 5.39992 220.609 5.42962 220.001 5.60122C219.273 5.82527 218.526 5.99331 217.649 6.23603C217.649 5.43318 217.649 4.96642 217.499 4.49965C217.411 3.32592 216.902 2.22367 216.064 1.39656C215.227 0.56945 214.118 0.0733767 212.944 0C210.33 0.112024 208.332 1.04556 207.921 3.86484C207.697 5.70057 207.31 7.51262 206.764 9.27936C205.811 12.08 204.654 14.8806 203.515 17.5505C203.2 18.13 202.824 18.6745 202.395 19.1748L201.872 19.0255C201.683 18.2979 201.564 17.5539 201.517 16.8037C201.517 14.5632 201.685 12.304 201.704 10.0635C201.815 8.52417 201.752 6.97718 201.517 5.45186C201.415 4.91413 201.181 4.41039 200.835 3.98634C200.489 3.5623 200.042 3.23139 199.536 3.02367C199.029 2.81594 198.479 2.73796 197.935 2.79683C197.391 2.85569 196.87 3.04952 196.42 3.36073C195.371 3.79222 194.434 4.45697 193.68 5.30455C192.927 6.15213 192.376 7.16027 192.07 8.25247C192.046 8.53788 191.951 8.81282 191.794 9.05229C191.637 9.29176 191.423 9.48816 191.17 9.6236C190.918 9.75905 190.636 9.82925 190.349 9.82783C190.063 9.8264 189.781 9.75339 189.531 9.61543C189.061 9.47795 188.56 9.49645 188.102 9.66815C187.644 9.83986 187.254 10.1555 186.991 10.5676C186.403 11.295 186.11 12.2165 186.168 13.15C186.227 14.0835 186.634 14.9609 187.309 15.6087C187.719 16.0568 188.336 16.5423 188.392 17.0837C189.003 20.5655 189.142 24.1139 188.802 27.6327C188.485 29.6118 188.205 31.6096 188.056 33.6073C187.899 35.7671 186.9 37.7788 185.274 39.2085C184.43 38.5656 183.62 37.8801 182.846 37.1548C182.51 36.7814 182.193 36.0159 182.361 35.6798C183.537 33.3086 183.014 30.2466 185.348 28.3608C185.555 28.1125 185.679 27.8057 185.703 27.4833C185.871 25.0748 186.151 22.6663 186.132 20.2764C186.114 17.8866 185.554 17.4571 183.052 17.4571C182.793 17.4017 182.547 17.3005 182.324 17.1584C182.308 16.688 182.352 16.2175 182.454 15.7581C182.632 15.2231 182.699 14.6573 182.651 14.0955C182.603 13.5337 182.441 12.9877 182.174 12.4907C182.04 11.9972 181.761 11.5555 181.372 11.2236C180.983 10.8917 180.503 10.685 179.994 10.6305C179.486 10.576 178.973 10.6763 178.522 10.9183C178.072 11.1603 177.705 11.5326 177.469 11.9866C176.922 13.1738 176.538 14.43 176.33 15.7208C175.599 14.1446 175.048 12.4912 174.687 10.7917C174.327 8.39633 173.37 6.12996 171.905 4.20092C171.561 3.55877 171.054 3.01873 170.434 2.63521C169.815 2.2517 169.105 2.03827 168.377 2.01644C167.608 1.96444 166.844 2.17677 166.213 2.61823C165.581 3.05968 165.119 3.70374 164.904 4.44364C164.721 4.75983 164.495 5.04891 164.232 5.30249C164.026 5.30249 163.933 5.30249 163.858 5.30249C162.943 4.83572 161.991 4.33161 161.114 3.86484C160.731 3.59049 160.285 3.41642 159.818 3.35854C159.35 3.30065 158.876 3.3608 158.438 3.53348C158 3.70616 157.612 3.98587 157.309 4.34707C157.007 4.70827 156.8 5.13945 156.707 5.60122C156.418 6.36054 156.328 7.18123 156.446 7.98519C156.563 8.78915 156.885 9.54962 157.38 10.1942C158.892 12.1733 160.516 14.0591 162.066 16.0195C162.415 16.5415 162.721 17.091 162.981 17.6625L162.57 17.9613C161.767 17.4945 160.572 17.1957 160.236 16.4863C159.247 14.3765 157.23 13.8724 155.475 13.0135C154.983 12.7675 154.442 12.6334 153.892 12.6207C153.342 12.608 152.796 12.717 152.293 12.94C151.79 13.163 151.342 13.4945 150.982 13.9106C150.622 14.3268 150.358 14.8174 150.21 15.3473C149.796 16.0476 149.63 16.8666 149.738 17.6727C149.847 18.4788 150.223 19.2249 150.807 19.791C151.013 19.959 151.031 20.3511 151.181 20.7619C150.807 21.0046 150.471 21.21 150.173 21.434C147.391 23.5811 147.092 25.6536 149.612 28.0995C151.019 29.3949 152.652 30.4202 154.43 31.1241C157.249 32.263 160.255 32.9912 163.111 33.9807C165.77 34.838 168.158 36.3764 170.038 38.4431C169.977 38.6436 169.895 38.8375 169.796 39.0218C168.265 41.449 166.061 43.4655 165.128 46.2848C164.411 47.9385 163.163 49.3054 161.58 50.1683C161.786 48.9547 161.954 48.1705 162.047 47.405C162.284 46.3068 162.403 45.1864 162.402 44.0629C162.408 43.379 162.239 42.7048 161.913 42.1038C161.586 41.5029 161.112 40.9948 160.535 40.6275C159.676 40.1981 157.977 41.337 157.043 42.756C156.483 43.6148 155.867 44.4177 155.288 45.2579C154.555 44.7997 153.709 44.555 152.844 44.5514C151.98 44.5477 151.131 44.7851 150.394 45.237C149.657 45.6889 149.061 46.3374 148.672 47.1095C148.283 47.8817 148.118 48.747 148.194 49.6082C148.298 51.5378 147.919 53.463 147.092 55.2094C146.225 54.9629 145.321 54.8681 144.422 54.9293C143.551 55.1145 142.736 55.4993 142.039 56.0533C141.343 56.6073 140.784 57.3155 140.408 58.122C139.885 59.3667 139.381 60.6114 138.895 61.8562C138.793 62.3552 138.589 62.828 138.297 63.2455C138.005 63.6629 137.63 64.0161 137.196 64.2833C137.276 63.5993 137.42 62.9242 137.626 62.2669C139.064 58.9622 140.651 55.6948 141.995 52.3341C142.804 50.3288 143.429 48.254 143.862 46.1354C143.967 45.486 143.854 44.8202 143.539 44.2423C143.225 43.6644 142.728 43.2073 142.126 42.9427C141.586 42.5788 140.938 42.4101 140.29 42.4645C139.641 42.5188 139.031 42.7929 138.559 43.2414C138.335 43.4468 138.037 43.5962 137.794 43.8202C136.879 44.6417 136.17 44.2496 135.572 43.4281C135.335 43.012 135.123 42.5818 134.937 42.1399C133.873 40.2728 131.913 40.1421 130.102 40.0301C128.29 39.918 127.562 41.169 126.89 42.5319C126.372 43.4339 126.038 44.4295 125.906 45.4614C125.775 46.4932 125.849 47.5409 126.125 48.5439C126.897 50.953 127.139 53.5008 126.834 56.0122C126.559 55.153 126.088 54.3691 125.46 53.7214C124.832 53.0737 124.062 52.5798 123.212 52.2781C121.55 51.5872 120.411 51.6806 120.169 53.2676C119.665 56.4977 117.742 57.3192 114.96 57.3378C114.829 57.3378 114.68 57.2071 114.624 57.1885C113.317 52.7448 112.066 48.3572 110.721 43.9883C109.377 39.6193 108.313 39.2085 104.429 40.8889C103.29 40.0487 102.039 39.3019 100.564 40.3848C99.4558 41.1669 98.6687 42.3248 98.3493 43.6434C98.03 44.962 98.2001 46.3517 98.8281 47.5544C97.4091 46.3408 96.5129 45.5566 95.598 44.8098C94.6923 44.0171 93.7382 43.2813 92.7414 42.6066C92.0018 42.0471 91.1127 41.7196 90.1869 41.6657C89.261 41.6117 88.3399 41.8336 87.5403 42.3034C86.7406 42.7732 86.0984 43.4697 85.6948 44.3048C85.2912 45.1398 85.1445 46.0758 85.2731 46.9942C85.3271 47.5923 85.427 48.1852 85.5719 48.768C84.8997 49.3281 84.2089 49.8695 83.5554 50.4483C80.7548 52.8195 80.9228 56.0122 83.8915 57.8793C85.3836 59.005 87.2135 59.5909 89.082 59.541C89.8091 59.5171 90.5318 59.6641 91.1918 59.9704C94.6645 61.3894 98.1186 62.8644 101.573 64.358C101.703 64.358 101.703 64.7501 101.741 64.8808C99.3135 64.6194 96.9237 64.2833 94.5338 64.1153C93.7661 64.0081 92.985 64.1711 92.3242 64.5765C91.6634 64.9818 91.1641 65.6042 90.9117 66.3371C90.5766 67.1239 90.5217 68.0019 90.7562 68.8243C90.9906 69.6467 91.5003 70.3637 92.2 70.8555C92.8908 71.4156 93.6563 71.8637 94.3471 72.4238C94.6458 72.6665 95.1126 73.0586 95.0753 73.32C94.7952 74.963 95.318 76.7927 94.0484 78.2117C95.1198 80.1728 96.884 81.664 98.9961 82.394C99.959 82.784 100.835 83.3616 101.573 84.093C102.731 85.0565 103.478 86.4253 103.662 87.9205C103.846 89.4157 103.452 90.9247 102.562 92.1401C101.722 93.5217 100.452 93.8951 98.4547 94.2125C99.0148 93.2603 99.3135 92.7749 99.5936 92.3455C99.8367 92.0212 99.9918 91.6395 100.044 91.2376C100.096 90.8357 100.044 90.4271 99.8916 90.0514C99.7395 89.6758 99.4929 89.3458 99.1757 89.0935C98.8585 88.8412 98.4815 88.6751 98.0813 88.6113C97.3163 88.3502 96.4953 88.2991 95.7039 88.4633C94.9124 88.6275 94.1796 89.001 93.5816 89.5449C92.4151 90.4846 91.1652 91.3158 89.8475 92.0281C92.393 87.8935 93.8688 83.1901 94.1417 78.3424C93.7123 74.6083 90.613 74.6083 87.8497 74.3469C87.8497 73.9548 87.8497 73.6374 87.7563 73.3387C87.6357 72.3904 87.2035 71.5092 86.5276 70.8333C85.8517 70.1574 84.9704 69.7251 84.0222 69.6045C83.192 69.3977 82.3183 69.4516 81.5199 69.7589C80.7214 70.0663 80.0371 70.6121 79.5599 71.3222C79.1145 71.9538 78.8408 72.6902 78.7655 73.4593C78.6902 74.2284 78.816 75.0039 79.1305 75.7098C79.6719 77.5769 80.3254 79.444 80.9975 81.2177C81.4235 82.4054 81.6083 83.6661 81.5409 84.926C81.4736 86.186 81.1556 87.4198 80.6054 88.5553C80.232 86.6882 80.0266 85.0452 79.5412 83.4582C79.3933 83.0206 79.1501 82.6213 78.829 82.2892C78.5079 81.957 78.1171 81.7004 77.6847 81.5378C77.2523 81.3753 76.7893 81.3108 76.3289 81.349C75.8686 81.3873 75.4225 81.5274 75.0229 81.7592C74.4914 82.096 73.9802 82.4639 73.4919 82.8607C72.4553 82.2831 71.2621 82.0496 70.0843 82.1939C68.9065 82.3382 67.8049 82.8528 66.9385 83.6636C66.3326 84.1406 65.8428 84.7488 65.5061 85.4426C65.1693 86.1363 64.9944 86.8973 64.9944 87.6684C64.9944 88.4396 65.1693 89.2006 65.5061 89.8943C65.8428 90.5881 66.3326 91.1963 66.9385 91.6733C67.7198 92.3103 68.2948 93.1648 68.5906 94.1285C68.8864 95.0923 68.8897 96.1222 68.6002 97.0878C68.2778 98.2501 68.1021 99.4481 68.0774 100.654C68.0945 101.544 67.8798 102.424 67.4543 103.206C67.0287 103.989 66.407 104.647 65.6502 105.116C64.5412 105.924 63.3128 106.554 62.0094 106.983C58.9847 107.842 55.9041 108.477 52.8607 109.261C47.1413 110.962 41.5299 113.007 36.0571 115.385C31.3334 117.252 26.7217 119.325 22.0167 121.248C17.2123 122.885 12.5481 124.908 8.06963 127.297C5.04497 129.164 1.92696 130.826 -0.948334 132.898C-5.59735 136.166 -9.87295 139.956 -15.1754 142.626C-15.0228 143.148 -14.783 143.64 -14.4659 144.082C-13.3192 145.143 -11.856 145.797 -10.301 145.946C-8.74608 146.094 -7.18542 145.728 -5.85874 144.904C-3.80496 143.634 -1.8632 142.178 0.19058 140.945C3.71935 138.854 7.28546 136.8 10.8889 134.84C14.4924 132.88 17.8718 131.106 21.3632 129.37C22.3218 128.87 23.2507 128.315 24.1451 127.708C29.6094 124.133 35.4513 121.171 41.5649 118.877C46.625 116.991 51.8091 115.456 57.0803 114.284C61.3606 113.287 65.7665 112.941 70.1498 113.257C72.2321 113.321 74.3114 113.056 76.3112 112.473C80.2694 111.446 84.1342 110.027 88.1111 109.093C90.9039 108.608 93.7723 108.8 96.4756 109.653C96.6436 109.653 96.737 109.989 97.0544 110.4C96.0088 110.568 95.1873 110.717 94.3098 110.811C92.088 111.091 89.8288 111.203 87.6256 111.595C82.3978 112.529 77.1514 113.462 71.9982 114.62C64.1005 116.487 56.0908 117.906 48.3798 120.538C42.3796 122.556 36.5223 124.976 30.8479 127.783C26.9084 129.762 23.0809 131.946 19.2907 134.205C17.5485 135.356 15.8718 136.602 14.2683 137.939C13.7755 138.344 13.2365 138.689 12.6626 138.966C10.0114 140.124 7.34147 141.281 4.63422 142.308C2.22569 143.223 -0.220175 144.026 -2.68471 144.81C-5.14925 145.594 -7.31506 146.099 -9.61156 146.808C-14.6713 148.376 -19.6564 150.206 -25.0523 150.355C-25.4962 150.352 -25.9323 150.473 -26.3115 150.704C-26.6908 150.935 -26.9982 151.267 -27.1994 151.662C-27.9649 153.324 -28.9171 154.967 -30 156.834C-29.2722 157.346 -28.5181 157.82 -27.7408 158.253C-25.7952 159.061 -23.6405 159.218 -21.5982 158.701C-14.9386 157.332 -8.46018 155.196 -2.29263 152.335C-2.15519 152.599 -1.99262 152.849 -1.80719 153.081C0.93741 155.733 3.1779 157.226 6.44528 155.602C6.80745 155.458 7.13748 155.243 7.41629 154.971C7.6951 154.699 7.91715 154.374 8.06963 154.015C8.54511 153.194 9.17992 152.477 9.9367 151.905C10.4595 151.401 11.0943 151.046 11.6357 150.561C14.3243 148.283 16.9569 145.893 19.7015 143.69C21.0934 142.606 22.5807 141.649 24.1451 140.833C25.2167 140.306 26.3357 139.881 27.4872 139.564C28.5514 139.19 29.6717 138.966 30.7172 138.556C36.1118 136.414 41.6524 134.661 47.2969 133.309C53.5429 132.05 60.009 132.436 66.0609 134.429C68.9128 135.269 71.6815 136.369 74.3321 137.715C76.9235 138.992 79.1372 140.923 80.7548 143.317C82.1033 145.407 83.6008 147.398 85.2358 149.273C87.4016 151.644 89.8848 151.326 91.8452 148.675L93.2082 146.808L95.3553 147.779C97.9879 148.899 99.3509 148.134 99.5749 145.296C99.5984 144.496 99.4117 143.704 99.0335 142.999C97.9198 141.022 96.216 139.442 94.1604 138.481C93.1522 137.939 92.1813 137.286 91.1918 136.614C92.1438 136.364 93.1506 136.423 94.067 136.782C97.9879 138.649 101.927 140.516 105.755 142.383C108.742 143.989 111.674 143.41 112.775 140.516C113.104 139.37 113.18 138.166 112.999 136.987C112.844 136.18 112.587 135.396 112.234 134.653C112.486 134.563 112.75 134.512 113.018 134.504C115.09 134.933 115.818 133.384 115.538 131.535C115.452 130.684 115.135 129.873 114.622 129.189C114.108 128.505 113.418 127.973 112.626 127.652C109.876 126.261 106.785 125.691 103.72 126.009C103.099 126.071 102.474 126.071 101.853 126.009C99.855 126.009 97.8385 126.009 95.8408 125.841C94.6368 125.775 93.439 125.626 92.256 125.393C91.8826 125.393 91.5652 124.795 91.005 124.272C92.0135 123.855 93.0489 123.505 94.1044 123.227C94.7221 123.174 95.319 122.978 95.8474 122.654C96.3758 122.33 96.8211 121.887 97.1477 121.36C97.6649 120.644 98.419 120.135 99.2762 119.922C101.479 119.231 103.738 118.578 105.792 120.501C106.371 120.848 107.001 121.1 107.659 121.248C110.515 122.405 113.198 123.95 115.632 125.841C116.109 126.12 116.478 126.552 116.678 127.067C116.878 127.583 116.897 128.151 116.733 128.679C116.565 129.37 116.733 130.546 117.107 130.863C117.68 131.274 118.098 131.866 118.291 132.544C118.484 133.223 118.442 133.946 118.171 134.597C118.056 135.15 118.006 135.714 118.022 136.278C118.007 136.583 118.061 136.888 118.178 137.17C118.296 137.453 118.474 137.705 118.701 137.911C118.927 138.116 119.197 138.268 119.489 138.357C119.782 138.446 120.09 138.469 120.393 138.425C121.245 138.25 122.056 137.914 122.783 137.435C123.66 136.931 124.463 136.278 125.583 135.475C125.535 135.852 125.441 136.222 125.303 136.576C123.996 138.593 122.521 140.535 121.42 142.644C120.897 143.816 120.685 145.102 120.804 146.379C120.747 146.913 120.822 147.453 121.022 147.952C121.222 148.451 121.542 148.893 121.953 149.24C122.364 149.586 122.854 149.826 123.379 149.94C123.905 150.053 124.45 150.035 124.967 149.889C125.754 149.747 126.524 149.522 127.264 149.217C127.721 149.06 128.17 148.88 128.608 148.675C128.739 149.179 128.795 149.478 128.888 149.777C129.031 150.315 129.284 150.818 129.632 151.253C129.979 151.688 130.414 152.046 130.907 152.304C131.401 152.562 131.942 152.715 132.498 152.752C133.054 152.789 133.611 152.711 134.134 152.521C135.297 151.961 136.275 151.08 136.954 149.982C138.354 147.499 139.997 144.904 139.904 141.898C139.904 141.636 140.146 141.393 140.445 140.815C140.875 142.047 141.229 142.943 141.509 143.858C141.725 144.465 142.078 145.013 142.541 145.46C143.005 145.907 143.565 146.241 144.179 146.435C145.356 146.939 145.916 146.117 146.719 145.594C147.37 145.335 148.037 145.117 148.716 144.941C149.482 144.586 150.583 144.287 150.882 143.653C151.353 143 151.655 142.24 151.759 141.441C151.863 140.642 151.767 139.831 151.48 139.078C151.201 138.236 150.982 137.375 150.826 136.502C150.33 133.639 149.243 130.911 147.633 128.492C145.99 126.457 144.478 124.328 142.611 121.864C144.478 121.864 145.748 121.864 147.073 122.069C149.09 122.236 151.116 121.902 152.973 121.098C153.515 120.874 154.374 120.258 154.318 119.941C154.037 118.242 154.859 116.412 153.795 114.806C153.44 114.302 153.16 113.761 152.656 112.939C154.285 113.092 155.926 112.813 157.414 112.132C158.901 111.45 160.184 110.389 161.132 109.056C160.49 113.054 159.296 116.943 157.585 120.613C157.062 121.522 156.72 122.524 156.577 123.563C156.334 126.55 157.566 128.343 160.311 128.137C160.734 128.111 161.158 128.111 161.58 128.137C161.823 128.679 162.085 129.164 162.309 129.687C162.502 130.381 162.924 130.99 163.507 131.414C164.091 131.837 164.8 132.051 165.52 132.021C166.163 131.982 166.781 131.761 167.304 131.385C167.826 131.008 168.23 130.49 168.47 129.892C169.366 127.502 170.468 125.187 171.495 122.816C173.754 123.358 173.754 123.358 175.565 121.584C175.808 122.013 176.013 122.424 176.274 122.816C178.814 126.55 180.961 127.334 185.292 125.915C187.159 125.281 187.159 125.318 188.578 126.886C189.092 127.497 189.728 127.993 190.445 128.343C191.79 128.959 192.742 128.604 193.059 127.185C193.582 124.833 194.068 122.368 192.406 120.24C191.23 118.727 189.904 117.327 188.672 115.871C188 115.105 186.973 114.582 187.029 113.182C187.362 113.24 187.665 113.412 187.887 113.667C190.203 116.001 192.574 118.279 194.833 120.65C195.935 121.827 196.7 123.208 197.82 124.384C199.09 125.934 200.322 127.521 201.723 128.94C202.277 129.695 203.055 130.257 203.946 130.545C204.838 130.833 205.797 130.833 206.689 130.546C207.69 130.012 208.588 129.304 209.34 128.455ZM128.589 90.1983C128.589 87.267 128.589 87.267 126.722 84.7278C128.35 83.7375 130.264 83.3232 132.155 83.5516C133.71 83.6544 135.269 83.6544 136.823 83.5516H137.794C136.636 86.1655 132.435 89.2088 128.589 90.1983ZM70.0565 121.36C65.1461 122.592 60.2543 123.955 55.2879 124.963C48.3537 126.393 41.5475 128.385 34.9368 130.919C33.9473 131.293 32.939 131.554 31.9308 131.853C31.7139 131.881 31.4942 131.881 31.2774 131.853C46.3446 123.152 62.7562 118.783 79.5786 115.852L79.8026 116.3C79.4223 116.655 79.0098 116.974 78.5703 117.252C76.4232 118.466 74.4068 119.493 72.3156 120.576C71.5914 120.914 70.8344 121.176 70.0565 121.36ZM100.116 113.892C97.6705 114.918 95.1499 115.759 92.7601 116.505L89.4927 114.041L107.659 111.334C107.659 111.539 107.659 111.726 107.79 111.931C105.4 113.163 102.562 112.865 100.116 113.892Z" fill="white"/>
</svg>
