<svg width="26" height="26" viewBox="0 0 26 26" fill="none" xmlns="http://www.w3.org/2000/svg">
<path d="M5.86349 16.9536C8.23964 19.7833 11.1 22.0112 14.3647 23.5877C15.6077 24.1745 17.27 24.8707 19.122 24.9901C19.2368 24.995 19.3467 25 19.4615 25C20.7045 25 21.7028 24.5723 22.5165 23.6921C22.5215 23.6871 22.5315 23.6772 22.5365 23.6672C22.826 23.3191 23.1555 23.0058 23.4999 22.6726C23.7345 22.4488 23.9742 22.2151 24.2038 21.9764C25.2671 20.8724 25.2671 19.47 24.1938 18.4007L21.1937 15.4119C20.6845 14.8848 20.0755 14.6063 19.4365 14.6063C18.7975 14.6063 18.1835 14.8848 17.6594 15.407L15.8723 17.1873C15.7075 17.0928 15.5378 17.0083 15.3781 16.9287C15.1784 16.8293 14.9937 16.7348 14.829 16.6303C13.2016 15.6009 11.724 14.2582 10.3113 12.5325C9.59744 11.6324 9.11822 10.8765 8.78376 10.1057C9.253 9.68297 9.69229 9.24037 10.1166 8.80771C10.2664 8.65354 10.4211 8.49938 10.5759 8.34521C11.115 7.80812 11.4045 7.18649 11.4045 6.55491C11.4045 5.92333 11.12 5.3017 10.5759 4.76461L9.08827 3.28264C8.91355 3.10858 8.74882 2.93949 8.57909 2.76544C8.24963 2.42727 7.90518 2.07915 7.56573 1.76585C7.05157 1.26357 6.44755 1 5.80858 1C5.17461 1 4.56559 1.26357 4.03146 1.77082L2.16448 3.63075C1.48558 4.30709 1.10121 5.12764 1.02134 6.0775C0.926489 7.26606 1.14613 8.52922 1.71521 10.0559C2.5888 12.4182 3.90666 14.6113 5.86349 16.9536ZM2.23936 6.18193C2.29927 5.52051 2.55385 4.9685 3.03308 4.49109L4.89007 2.64111C5.1796 2.36262 5.49908 2.2184 5.80858 2.2184C6.11309 2.2184 6.42259 2.36262 6.70713 2.65106C7.04158 2.95939 7.35607 3.28264 7.69552 3.62578C7.86525 3.79983 8.03997 3.97389 8.21468 4.15292L9.70227 5.63489C10.0118 5.94322 10.1715 6.25653 10.1715 6.56486C10.1715 6.87319 10.0118 7.18649 9.70227 7.49482C9.54752 7.64898 9.39278 7.80812 9.23803 7.96229C8.77378 8.42976 8.33948 8.87236 7.86026 9.29507L7.8353 9.31993C7.42097 9.7327 7.48586 10.1256 7.5857 10.424C7.59069 10.4389 7.59569 10.4488 7.60068 10.4637C7.98506 11.3838 8.51919 12.259 9.35284 13.3034C10.8504 15.1434 12.4279 16.5707 14.165 17.6697C14.3797 17.809 14.6093 17.9184 14.824 18.0278C15.0237 18.1272 15.2084 18.2217 15.3731 18.3261C15.3931 18.3361 15.408 18.346 15.428 18.356C15.5927 18.4405 15.7525 18.4803 15.9122 18.4803C16.3116 18.4803 16.5711 18.2267 16.656 18.1421L18.523 16.2822C18.8125 15.9938 19.127 15.8396 19.4365 15.8396C19.8159 15.8396 20.1254 16.0734 20.3201 16.2822L23.3302 19.276C23.9292 19.8728 23.9242 20.5193 23.3152 21.1509C23.1056 21.3746 22.8859 21.5885 22.6513 21.8123C22.3019 22.1504 21.9375 22.4986 21.608 22.8914C21.0339 23.5081 20.35 23.7965 19.4665 23.7965C19.3816 23.7965 19.2917 23.7915 19.2069 23.7866C17.5695 23.6821 16.047 23.0456 14.9038 22.5035C11.7989 21.0066 9.07329 18.8831 6.81196 16.1877C4.94997 13.9548 3.697 11.8761 2.86834 9.64816C2.35418 8.28056 2.15949 7.18152 2.23936 6.18193Z" fill="#DDBC7A" stroke="#DDBC7A" stroke-width="0.3"/>
</svg>
