<svg width="22" height="20" viewBox="0 0 22 20" fill="none" xmlns="http://www.w3.org/2000/svg">
<path d="M20.2009 1.88009C19.063 0.683495 17.4684 0.00264928 15.7978 0.000125296C14.1259 0.00201829 12.5297 0.682504 11.39 1.87933L11.0016 2.28086L10.6132 1.87933C8.35176 -0.501833 4.54541 -0.638579 2.11148 1.57383C2.00363 1.67191 1.89947 1.77377 1.79922 1.87933C-0.59974 4.4108 -0.59974 8.32307 1.79922 10.8545L10.4308 19.7598C10.7294 20.0682 11.2271 20.0814 11.5423 19.7892C11.5527 19.7797 11.5627 19.7699 11.5725 19.7598L20.2009 10.8545C22.5997 8.32334 22.5997 4.41129 20.2009 1.88009Z" fill="#DDBC7A"/>
</svg>
