<svg width="210" height="277" viewBox="0 0 210 277" fill="none" xmlns="http://www.w3.org/2000/svg">
<path d="M1.92623 214.452C2.17747 212.565 2.54254 210.694 3.01897 208.85C5.04057 201.592 7.14086 194.402 9.27314 187.118C9.88621 185.168 10.7403 183.301 11.814 181.562C13.4928 178.622 14.7923 175.481 15.6804 172.215C17.0897 167.494 18.4171 162.753 19.8507 158.034C20.8166 155.221 22.3395 152.633 24.329 150.422C26.991 146.957 29.3906 143.298 31.5077 139.476C32.7958 137.3 34.1984 135.183 35.5208 133.022C37.8862 129.297 39.4998 125.146 40.2701 120.802C41.0367 115.759 40.3064 110.952 40.0273 106.056C40.0073 105.874 39.7782 105.756 39.4966 105.155C39.2617 106.298 39.0825 107.086 38.9055 107.851C38.3222 112.321 37.1983 116.705 35.5565 120.905C34.2865 123.815 32.8215 126.622 31.5059 129.503C30.4474 131.796 29.5035 134.147 28.4816 136.432C27.1016 140.129 25.0317 143.529 22.3821 146.454C20.6641 148.507 19.1074 150.69 17.7259 152.983C14.3898 157.506 11.0756 162.055 7.59324 166.482C6.4724 167.761 5.15925 168.857 3.70008 169.73C3.12928 170.208 2.1334 170.07 1.16851 170.259C1.05791 169.493 0.808271 168.931 0.924616 168.436C1.70947 163.732 3.04651 159.135 4.90658 154.743C6.30494 151.749 7.21751 148.543 8.42056 145.448C9.18524 143.488 10.1011 141.579 10.8771 139.633C11.9089 137.098 12.8618 134.52 13.8593 131.969C14.5831 130.712 15.0915 129.342 15.365 127.917C15.4622 126.527 15.8207 125.167 16.4221 123.908C16.9675 122.488 17.2208 120.972 17.1663 119.451C17.1118 117.931 16.7497 116.437 16.103 115.06C15.7475 114.223 15.4839 113.35 15.3177 112.457C14.6491 108.924 14.365 105.33 14.4715 101.736C14.5455 99.1863 14.2079 96.6724 14.1712 94.1489C14.1266 92.389 14.2014 90.6271 14.3944 88.8769C14.9277 84.689 15.6154 80.5266 16.1684 76.3888C16.5121 73.4594 16.7649 70.5184 16.9272 67.5649C17.0167 64.0443 17.4648 60.542 18.2655 57.1132C19.3352 52.9616 20.2191 48.7451 21.4433 44.6189C22.1157 42.3271 23.0797 40.1317 24.3122 38.0858C25.6111 35.8821 26.0184 33.2658 25.4513 30.772C24.7707 26.7386 24.2244 22.6814 23.3967 18.6826C22.5278 15.0041 21.5168 11.445 20.661 7.75574C20.3931 6.3077 20.237 4.8417 20.1926 3.3696C20.1437 2.94245 20.2384 2.51068 20.4628 2.14381C20.6873 1.77696 21.0283 1.49596 21.431 1.34513C22.0691 1.05447 22.7095 0.740207 23.3589 0.462988C26.1665 -0.736348 28.1198 0.891711 28.7973 3.62893C30.0871 9.15726 30.9445 14.6949 32.091 20.2101C32.5376 22.0536 33.0782 23.8725 33.7122 25.6605C33.784 25.931 33.9894 26.1773 34.003 26.4307C34.2906 29.7564 35.936 32.5451 37.2021 35.5392C38.186 37.4709 39.5929 39.1566 41.3177 40.4705C43.7537 42.5978 46.1903 44.7255 48.4947 46.9852C51.5318 49.787 54.4011 52.7664 57.0871 55.9074C62.3745 62.3456 66.6038 69.5852 69.6149 77.3528C70.9134 80.9138 71.7044 84.6576 72.8044 88.2962C73.6357 91.0597 74.577 93.7965 75.5183 96.5332C76.4596 99.27 77.4375 101.998 78.3181 104.742C78.4941 105.321 78.2999 106.012 78.2339 107.015C77.6147 106.721 77.0312 106.359 76.495 105.933C75.0306 104.337 73.5949 102.696 72.2081 101.035C69.2407 97.4799 66.1843 93.9765 63.4348 90.2601C59.7543 85.2968 56.3571 80.1181 52.78 75.0673C51.8546 73.7486 50.7114 72.5895 49.6712 71.3437C48.8936 70.3481 48.2346 69.2657 47.7064 68.1182C46.458 65.2001 44.9423 62.4044 43.1789 59.7666C41.6751 57.3161 40.3005 54.7887 39.0606 52.1949C38.8447 51.9355 38.7054 51.6113 38.3696 51.0765C38.007 52.1111 38.0552 53.2449 38.5042 54.2451C40.1024 57.6397 40.8931 61.358 40.8134 65.109C40.9047 66.7879 41.4042 68.4188 42.2691 69.8605C43.2935 71.9567 44.1736 74.1206 44.9014 76.3379C46.1312 80.001 47.2115 83.7223 48.3188 87.422C48.7609 88.902 49.0568 90.4163 49.4866 91.9074C50.1457 94.587 51.4014 97.0839 53.1604 99.2111C54.7702 101.192 55.9755 103.469 56.708 105.915C59.0684 112.752 61.4148 119.467 63.4413 126.406C64.4794 129.811 64.9188 133.451 65.7725 136.9C66.6252 140.349 67.5679 144.01 68.263 147.613C69.054 151.752 69.6604 155.935 70.2439 160.115C70.7554 163.366 71.0453 166.668 71.397 169.963C71.3892 170.352 71.3343 170.738 71.233 171.113C71.0002 171.164 70.7595 171.168 70.5247 171.125C70.2899 171.082 70.0658 170.994 69.8661 170.864C69.6658 170.734 69.4928 170.567 69.3576 170.37C69.2229 170.173 69.1275 169.952 69.0789 169.719C68.3003 167.836 67.4852 165.963 66.6718 164.066C64.4171 158.727 62.0351 153.471 59.7776 148.156C56.6233 140.684 53.5549 133.183 50.4371 125.702C49.4967 123.399 48.434 121.148 47.2524 118.958C47.2341 120.229 47.1677 121.495 47.2314 122.785C47.5124 127.263 47.9376 131.729 48.1576 136.212C48.3576 139.987 48.3153 143.787 48.4417 147.579C48.5618 148.801 48.8278 150.006 49.234 151.166C50.5795 155.328 52.3228 159.351 54.4396 163.179C55.9772 165.879 57.9836 168.282 60.3641 170.277C62.5555 172.323 64.9965 174.139 67.043 176.327C69.6017 178.856 71.802 181.723 73.5828 184.849C73.843 185.161 73.9974 185.582 74.2289 185.939C75.685 188.158 77.293 190.295 78.5951 192.621C80.1555 195.402 82.3396 197.784 84.9765 199.58C87.6827 201.621 89.8584 204.282 91.3207 207.34C91.4348 207.52 91.5183 207.719 91.5676 207.926C92.3067 211.449 93.8088 214.752 94.1557 218.36C94.219 219.121 94.4405 219.862 94.5645 220.616C94.6881 221.372 94.3423 222.013 93.4077 221.868C92.7437 221.751 92.1159 221.485 91.5695 221.09C89.8956 219.823 88.224 218.533 86.6583 217.132C85.093 215.731 83.5872 214.059 82.0559 212.541C81.4278 211.789 80.5639 211.254 79.9095 210.524C78.6781 209.357 77.5877 208.051 76.6605 206.631C75.357 204.367 73.7219 202.31 71.8102 200.53C69.9887 198.769 68.1324 196.994 66.2513 195.372C65.2504 194.49 64.0469 193.866 62.9943 193.027C61.5152 191.862 60.0918 190.605 58.6308 189.382C58.4682 189.187 58.2273 189.057 57.7819 188.681C57.8464 190.498 58.1561 192.298 58.7036 194.032C59.4983 197.464 60.3426 200.876 61.0507 204.336C61.6831 207.441 62.1683 210.581 62.7158 213.69C62.8489 214.166 62.9259 214.657 62.9444 215.151C63.051 217.96 63.4344 220.752 64.089 223.486C64.6918 227.584 65.2339 231.69 65.8001 235.796C66.3659 239.904 66.8617 243.717 67.3933 247.676C65.3948 249.344 64.4878 249.155 63.4453 246.877C62.7626 245.399 62.2414 243.852 61.533 242.397C60.2846 239.872 59.0857 237.328 57.649 234.894C55.5504 231.459 54.0519 227.692 53.2164 223.754C52.402 219.613 51.1475 215.552 50.1622 211.443C49.4325 208.353 48.8504 205.229 48.1466 202.117C47.7838 200.548 47.3373 198.984 46.9008 197.432C46.2297 194.804 45.3667 192.227 44.3194 189.724C44.1184 190.339 43.9574 190.965 43.8384 191.6C43.2983 195.86 42.8189 200.113 42.2922 204.362C42.105 205.905 41.7646 207.422 41.6899 208.916C41.3182 212.77 41.0073 216.618 40.7206 220.468C40.1719 227.354 39.6835 234.235 39.0876 241.117C38.8656 241.995 38.511 242.833 38.0357 243.603C37.1711 243.313 36.383 242.832 35.7297 242.196C35.0769 241.559 34.5753 240.784 34.2627 239.927C32.0234 235.439 30.9021 230.475 30.9942 225.46C30.9042 221.132 30.4939 216.763 30.1904 212.415C29.7855 206.39 28.7266 200.427 29.2999 194.334C29.3303 193.582 29.4454 192.836 29.6443 192.11C30.869 187.558 31.6386 182.896 31.9424 178.193C32.093 177.152 32.4109 176.143 32.8833 175.205C34.2935 172.313 35.3087 169.243 35.9021 166.081C36.475 163.476 37.1871 160.905 38.0361 158.377C39.4402 154.681 40.0067 150.719 39.6935 146.778C39.6341 146.365 39.7724 145.897 39.4373 145.363C38.9555 146.711 38.426 148.056 38.025 149.448C36.5617 154.5 35.1214 159.562 33.7037 164.635C32.8834 167.028 32.295 169.495 31.9483 172.001C31.7738 173.698 31.1645 175.321 30.1795 176.714C28.6708 179.074 27.8026 181.779 26.3373 184.191C24.2081 187.916 21.8524 191.507 19.2846 194.944C16.8944 197.897 14.9274 201.17 13.4403 204.666C12.3306 207.099 10.9113 209.38 9.21659 211.449C8.16844 212.83 7.16289 214.264 6.01669 215.529C5.43273 216.116 4.68658 216.517 3.87338 216.679C3.57843 216.744 3.2711 216.727 2.98391 216.632C2.69718 216.537 2.44149 216.367 2.24288 216.14C2.04385 215.913 1.90965 215.636 1.85378 215.339C1.79813 215.043 1.82321 214.736 1.92623 214.452ZM79.5895 119.269C79.1205 122.686 79.0099 126.143 79.2598 129.584C79.4214 131.122 79.641 132.678 79.696 134.195C79.8103 138.262 80.2476 142.314 81.0039 146.313C82.0379 153.015 83.972 159.547 86.7541 165.731C87.0716 166.427 87.5252 167.052 88.0889 167.567C88.5876 167.887 89.1413 168.112 89.7211 168.231C89.9157 167.672 90.3132 167.12 90.2786 166.577C90.0983 162.852 89.9912 159.111 89.5073 155.419C89.2125 153.612 89.1444 151.777 89.3044 149.953C89.7411 146.836 89.2886 143.736 90.3471 140.651C90.4114 140.464 90.3484 140.231 90.3548 140.027C90.3507 137.147 90.2507 134.258 90.4022 131.38C90.6244 127.451 91.0736 123.531 91.3583 119.574C91.5168 117.68 91.7124 115.778 91.7017 113.892C91.5843 111.433 91.7427 108.968 92.1724 106.543C92.5206 104.816 92.7615 103.071 92.8954 101.315C93.1836 98.3892 93.4127 95.4458 93.6313 92.4894C93.7979 90.6731 93.871 88.849 93.8474 87.0248C93.7587 84.0168 93.5115 81.03 93.3621 78.0287C93.3621 78.0287 93.5567 77.8661 93.7773 77.6822C94.0261 78.0093 94.2438 78.3582 94.4273 78.7247C96.0254 82.5647 97.5971 86.4266 99.1284 90.213C101.134 94.7456 101.759 99.7694 100.923 104.655C100.324 107.973 100.019 111.354 99.416 114.72C98.812 118.085 97.7005 121.633 97.1082 125.144C96.5162 128.654 96.1664 132.667 95.7427 136.433C95.5258 138.309 95.4492 140.222 95.1027 142.075C94.2922 146.459 93.8628 150.906 93.8208 155.364C93.8568 156.716 94.0081 158.063 94.2743 159.389C94.5329 161.044 94.9867 162.67 95.256 164.337C95.9541 168.576 96.6156 172.824 97.266 177.059C97.4529 178.312 97.5666 179.582 97.8271 180.818C98.4553 183.706 99.143 186.588 99.8207 189.458C100.498 192.327 101.136 195.096 101.868 197.898C102.128 198.869 102.389 199.974 103.586 200.273C105.286 199.118 105.31 199.12 105.282 197.426C105.275 196.441 105.16 195.459 105.075 194.539C105.029 191.846 104.871 189.205 104.871 186.54C104.823 184.361 104.922 182.181 105.172 180.015C105.846 175.204 106.803 170.442 107.487 165.644C108.283 160.004 108.926 154.337 109.603 148.686C109.932 145.968 110.285 143.251 110.413 140.503C110.615 136.209 110.706 131.921 110.684 127.639C110.664 124.397 110.458 121.223 110.226 117.938C110.147 116.419 109.986 114.88 109.859 113.356L110.315 113.218C110.731 114.059 111.098 114.92 111.564 115.742C114.349 120.662 116.394 125.965 117.634 131.482C117.833 132.304 118.077 133.115 118.362 133.911C119.668 137.797 121.026 141.639 122.308 145.523C123.482 149.145 124.582 152.784 125.67 156.434C126.056 157.741 126.853 159.013 126.083 160.492C125.965 160.745 126.166 161.171 126.231 161.512C126.722 163.129 127.087 164.806 127.385 166.561C127.69 167.871 127.855 169.209 127.877 170.553C127.733 175.629 126.447 180.608 124.116 185.119C123.001 187.37 122.138 189.764 121.092 192.047C120.686 193.32 120.033 194.501 119.171 195.522C117.568 197.189 116.109 199.002 114.65 200.814C113.123 203.106 111.208 205.115 108.99 206.748C108.743 206.877 108.526 207.059 108.355 207.279C106.465 210 104.507 212.692 102.756 215.474C100.236 219.604 97.8501 223.841 95.4426 228.052C93.5319 231.407 91.6887 234.818 89.8129 238.189C89.4281 238.862 88.9979 239.507 88.6587 240.209C87.1614 243.242 85.8371 246.351 84.1579 249.271C83.205 250.926 82.6826 252.99 80.6796 253.914C80.4586 254.098 80.2793 254.49 80.1198 254.799C79.3311 256.361 78.5292 257.932 77.7965 259.534C77.4662 260.06 77.2868 260.667 77.2792 261.287C77.39 262.122 77.1984 262.969 76.7397 263.675C76.5452 264.101 76.6735 264.677 76.6391 265.19C77.1709 265.254 77.71 265.241 78.2384 265.154C78.6055 264.949 78.931 264.677 79.1987 264.353C81.366 262.544 83.5197 260.746 85.687 258.937C86.9507 258.18 88.1709 257.352 89.3424 256.459C91.3623 254.509 93.1188 252.303 94.5657 249.897C97.8074 244.608 101.784 239.808 106.375 235.637C106.647 235.41 106.92 235.182 107.258 235.032C109.695 233.152 112.288 231.406 114.574 229.344C120.16 224.066 124.7 217.782 127.956 210.821L128.259 210.26C130.45 206.076 132.19 201.672 133.45 197.12C133.587 196.677 133.744 196.258 134.017 195.503C134.24 195.891 134.437 196.293 134.604 196.709C135.431 199.915 136.282 203.123 137.049 206.337C137.815 209.55 138.428 213.266 139.493 216.625C140.822 220.551 142.771 224.239 145.265 227.55C145.779 228.217 146.209 228.945 146.546 229.717C147.918 233.129 149.327 236.532 150.527 240C151.913 243.837 153.874 247.441 156.344 250.688C156.891 251.333 157.371 252.032 157.776 252.774C159.854 257.091 161.525 261.592 162.768 266.22C163.587 269.258 164.833 272.202 165.881 275.225C165.938 275.42 166.035 275.602 166.165 275.758C166.296 275.915 166.456 276.043 166.639 276.135C166.82 276.227 167.019 276.28 167.222 276.292C167.426 276.304 167.63 276.273 167.821 276.203C168.671 275.956 168.564 275.143 168.566 274.458C168.598 273.045 168.616 271.643 168.753 270.251C169.062 266.955 169.67 263.674 169.726 260.391C169.786 256.532 169.402 252.669 169.162 248.796C169.06 245.489 168.669 242.198 167.997 238.958C167.171 235.752 166.007 232.642 164.525 229.681C161.707 223.667 159.051 217.584 156.382 211.511C155.465 209.437 154.734 207.295 153.845 205.043C154.755 205.737 155.573 206.374 156.381 206.999C159.646 209.215 162.596 211.863 165.152 214.869C166.447 216.46 167.891 217.924 169.462 219.242C169.719 219.453 170.018 219.606 170.34 219.691C170.662 219.776 170.998 219.79 171.326 219.734C172.105 219.48 171.98 218.593 171.815 217.894C171.707 217.335 171.539 216.789 171.314 216.265C169.463 212.702 167.675 209.109 165.666 205.568C164.559 203.608 163.033 201.886 161.827 199.965C160.011 197.078 158.377 194.171 156.723 191.214C156.561 191.019 156.5 190.762 156.236 190.234L157.463 190.596C159.67 191.524 161.969 192.218 164.32 192.666C164.867 192.777 165.385 192.995 165.847 193.308C166.704 193.781 167.486 194.427 168.363 194.818C171.772 196.525 174.997 198.577 177.987 200.942C180.248 202.577 182.548 204.173 184.888 205.728C189.075 208.608 192.816 212.087 195.994 216.053C197.077 217.35 198.413 218.635 198.302 220.533C200.099 221.103 200.698 220.977 200.637 219.927C200.545 217.103 199.925 214.319 198.808 211.722C197.188 208.509 195.031 205.597 192.432 203.108C190.86 201.48 189.66 199.529 188.916 197.391C187.786 193.965 185.736 190.915 182.99 188.576C179.742 186.003 176.493 183.431 173.042 181.115C170.253 179.172 167.27 177.523 164.201 175.615C167.356 175.359 170.169 175.037 173.017 174.861C178.542 174.544 183.302 172.068 188.019 169.518C191.831 167.23 195.865 165.339 200.061 163.87C202.815 163.003 205.495 161.888 208.171 160.821C208.706 160.617 209.519 159.982 209.469 159.738C209.248 159.044 208.833 158.428 208.273 157.962C207.824 157.621 207.304 157.386 206.751 157.273C205.183 156.848 203.535 156.811 201.949 157.165C198.9 157.705 195.797 158.314 192.677 158.717C187.223 159.347 181.848 160.535 176.637 162.263C171.812 163.924 166.731 164.713 161.63 164.595C156.779 164.362 151.966 163.603 147.278 162.33C144.917 161.919 142.624 161.18 140.468 160.132C139.568 159.607 138.509 159.368 137.554 158.909C136.99 158.65 136.489 158.273 136.082 157.805C132.02 152.674 130.258 146.527 128.197 139.97C129.024 140.512 129.479 140.793 129.894 141.107C132.411 143.013 134.912 144.955 137.453 146.84C140.243 148.915 143.084 150.947 145.81 152.921C146.44 153.386 147.003 153.928 147.664 154.324C148.881 155.07 149.487 154.74 149.611 153.359C149.651 152.907 149.846 152.481 149.876 152.015C149.906 151.55 150.029 150.853 149.788 150.46C148.913 148.989 147.868 147.527 146.833 146.101C145.797 144.676 144.862 143.739 144.055 142.431C140.517 136.82 137.052 131.191 133.564 125.561C133.184 125.107 133.073 124.473 132.621 123.508L133.703 124.145C137.525 126.482 140.475 129.832 143.92 132.614C146.101 134.519 148.413 136.268 150.841 137.846C152.899 139.055 154.862 140.42 156.713 141.928C158.544 143.594 160.688 144.88 163.02 145.712C165.254 146.357 167.473 147.037 169.698 147.646C173.373 148.673 177.038 149.688 180.72 150.643C184.049 151.614 187.58 151.658 190.933 150.772C191.594 150.548 192.299 150.488 192.988 150.597C193.758 150.728 194.548 150.654 195.279 150.38C196.01 150.106 196.655 149.644 197.149 149.04C198.252 148.119 197.909 146.732 196.486 146.268C195.414 145.95 194.309 145.75 193.193 145.671C191.367 145.661 189.561 145.29 187.879 144.58C186.489 143.891 185.099 143.202 183.82 142.354C182.451 141.587 181.137 140.727 179.887 139.78C176.613 137.097 173.444 134.303 170.168 131.644C166.892 128.984 163.856 126.719 160.679 124.153C155.711 120.076 150.075 116.893 144.019 114.743C141.962 113.993 139.951 113.141 137.892 112.415C136.706 111.996 135.44 111.798 134.234 111.461C131.81 111.006 129.509 110.047 127.48 108.644C126.23 107.606 124.887 106.686 123.468 105.895C121.64 104.981 119.97 103.781 118.52 102.341C117.09 101.12 115.778 99.768 114.599 98.3031C112.352 95.056 109.911 91.947 107.29 88.9923C106.646 88.0876 106.106 87.1133 105.68 86.0877C105.364 85.471 105.211 84.7612 104.934 84.1119C103.533 80.8775 102.107 77.665 100.694 74.4418C100.627 74.1851 100.578 73.9238 100.548 73.6605C101.042 73.8147 101.522 74.0107 101.983 74.2457C104.568 75.7867 107.206 77.2846 109.719 78.951C113.955 81.7569 118.095 84.6859 122.278 87.5349C123.149 88.132 124.07 88.6527 125.03 89.0911C128.866 90.8648 132.821 92.3853 136.527 94.3992C139.096 95.9073 141.875 97.0232 144.774 97.7107C150.63 98.8981 156.531 99.8743 162.412 100.932C163.581 101.146 164.749 101.491 165.929 101.585C169.362 101.847 172.866 101.982 176.241 102.202C178.356 102.309 180.463 102.355 182.56 102.388C183.519 102.402 184.101 101.807 183.718 101.136C182.796 99.5049 182.535 97.4776 180.725 96.3903C179.948 95.7833 179.209 95.1274 178.514 94.427C176.163 92.3497 173.673 90.4333 171.063 88.6915C167.915 86.9914 164.658 85.503 161.312 84.2367C158.258 82.9774 155.088 82.0557 152.025 80.7594C146.882 78.4481 141.828 76.0605 136.782 73.4697C133.649 71.6749 130.417 70.0577 127.102 68.6254C124.862 67.7875 122.731 66.6593 120.517 65.7998C118.21 64.743 115.797 63.9381 113.317 63.3991C108.729 62.6072 104.227 61.3819 99.8706 59.7392C94.8221 58.0228 90.5629 54.5407 87.8775 49.934C87.4564 49.2006 86.9914 48.4935 86.4848 47.8167C83.0918 43.5145 79.6497 39.2323 76.2706 34.9198C73.9549 31.9871 71.7406 28.9915 69.4511 26.0372C68.9044 25.3436 68.13 24.8662 67.2649 24.6893C66.4004 24.5128 65.5008 24.648 64.726 25.0714C61.8967 27.4321 60.8052 31.822 63.7596 34.4645C65.0371 35.5995 66.3256 36.8795 67.5688 38.1317C68.8204 39.2751 69.9725 40.5231 71.0129 41.8623C72.7897 44.3865 74.3344 47.0815 75.9966 49.6795C76.7222 50.8128 77.4763 51.9009 78.215 53.0234C80.7457 56.8995 83.7678 60.5201 84.1981 65.4671C84.7353 67.8614 85.0538 70.3 85.1496 72.7529C84.7672 77.51 84.0808 82.238 83.0934 86.908C82.1362 91.6699 81.3563 96.4678 80.7524 101.301C79.9781 105.814 79.5944 110.384 79.6054 114.962C79.7142 116.396 79.7089 117.836 79.5895 119.269Z" fill="white"/>
</svg>
