<svg width="22" height="10" viewBox="0 0 22 10" fill="none" xmlns="http://www.w3.org/2000/svg">
<path fill-rule="evenodd" clip-rule="evenodd" d="M2.25748 3.89655C3.96436 2.12347 6.74033 0.788818 11 0.788818C15.2597 0.788818 18.0357 2.12347 19.7426 3.89655C21.428 5.6473 22.0001 7.75306 22.0001 9.2005C22.0001 9.64194 21.632 9.9998 21.178 9.9998H0.822066C0.368052 9.9998 0 9.64194 0 9.2005C0 7.75306 0.57211 5.6473 2.25748 3.89655ZM1.71404 8.4012H20.286C20.115 7.3752 19.609 6.09715 18.5422 4.98897C17.1957 3.59022 14.8827 2.38742 11 2.38742C7.11736 2.38742 4.80435 3.59022 3.45784 4.98897C2.39104 6.09715 1.88511 7.3752 1.71404 8.4012Z" fill="#7A622F"/>
</svg>
