<svg width="36" height="24" viewBox="0 0 36 24" fill="none" xmlns="http://www.w3.org/2000/svg">
<path d="M1.8587 8.68293H3.22826L2.54348 7.02439L1.8587 8.68293ZM11.5435 16.878L12.7174 15.6098L11.6413 14.439H9.09783V15.122H11.25V16H9.09783V16.878H11.5435ZM13.9891 15.6098L15.5543 17.3659V13.9512L13.9891 15.6098ZM18.4891 14.9268C18.4891 14.6016 18.2935 14.439 17.9022 14.439H16.6304V15.5122H17.9022C18.2935 15.5122 18.4891 15.3171 18.4891 14.9268ZM23.087 14.8293C23.087 14.5691 22.8587 14.439 22.4022 14.439H21.1304V15.3171H22.4022C22.8587 15.3171 23.087 15.1545 23.087 14.8293ZM18.6848 7.60976C18.6848 7.28455 18.4565 7.12195 18 7.12195H16.7283V8.09756H18C18.4565 8.09756 18.6848 7.93496 18.6848 7.60976ZM25.9239 8.68293H27.2935L26.6087 6.92683L25.9239 8.68293ZM10.9565 6.2439V10.439H9.88043V7.12195L8.41304 10.439H7.53261L6.06522 7.12195V10.439H4.01087L3.61957 9.56098H1.46739L1.07609 10.439H0L1.8587 6.2439H3.32609L4.98913 10.2439V6.2439H6.65217L8.02174 9.07317L9.19565 6.2439H10.9565ZM19.5652 14.9268C19.5652 15.122 19.5326 15.2846 19.4674 15.4146C19.4674 15.6098 19.4185 15.7561 19.3207 15.8537C19.2228 15.9512 19.1087 16.0325 18.9783 16.0976C18.8478 16.1626 18.6848 16.2276 18.4891 16.2927C18.3587 16.2927 18.1957 16.2927 18 16.2927H17.5109H17.0217H16.5326V17.7561H14.5761L13.4022 16.3902L12.0326 17.7561H8.02174V13.561H12.1304L13.4022 14.9268L14.6739 13.561H17.9022C19.0109 13.561 19.5652 14.0163 19.5652 14.9268ZM15.0652 9.56098V10.439H11.6413V6.2439H15.0652V7.12195H12.7174V7.90244H14.9674V8.78049H12.7174V9.56098H15.0652ZM36 18.3415V21.8537V21.9512C36 22.4715 35.8043 22.9268 35.413 23.3171C35.0217 23.7724 34.5326 24 33.9457 24H2.05435C1.46739 24 0.978261 23.8049 0.586957 23.4146C0.195652 22.9593 0 22.4715 0 21.9512V21.8537V11.3171H1.76087L2.15217 10.3415H2.93478L3.32609 11.3171H6.75V10.6341L7.04348 11.3171H8.80435L9.19565 10.5366V11.3171H17.6087V9.7561H17.8043C17.8696 9.7561 17.9022 9.82114 17.9022 9.95122V11.3171H22.3043V11.0244C22.5652 11.1545 22.8587 11.2195 23.1848 11.2195C23.4457 11.2846 23.7065 11.3171 23.9674 11.3171H24.9457H25.7283L26.1196 10.439H27L27.3913 11.3171H30.913V10.439L31.5 11.3171H34.337V5.46342H31.5V6.14634L31.1087 5.46342H28.2717V6.14634L27.8804 5.46342H23.9674C23.9674 5.46342 23.9348 5.46342 23.8696 5.46342C23.2826 5.46342 22.7609 5.56098 22.3043 5.7561V5.46342H19.5652V5.7561C19.3043 5.56098 18.9783 5.46342 18.587 5.46342C18.5217 5.46342 18.4891 5.46342 18.4891 5.46342H8.6087L7.92391 6.92683L7.33696 5.46342H4.20652V6.14634L3.81522 5.46342H1.17391L0 8.19512V2.14634V2.04878C0 1.52846 0.195652 1.07317 0.586957 0.682928C0.978261 0.227644 1.46739 0 2.05435 0H33.9457C34.5326 0 35.0217 0.195124 35.413 0.585367C35.8043 1.04065 36 1.52846 36 2.04878V2.14634V12.6829H34.1413C34.0761 12.6829 34.0435 12.6829 34.0435 12.6829C33.587 12.6829 33.1957 12.813 32.8696 13.0732V12.6829H30.1304C30.0652 12.6829 30 12.6829 29.9348 12.6829C29.5435 12.6829 29.1848 12.813 28.8587 13.0732V12.6829H23.9674V13.0732C23.5761 12.813 23.1522 12.6829 22.6957 12.6829C22.6304 12.6829 22.5978 12.6829 22.5978 12.6829H19.2717V13.0732C18.9457 12.813 18.5543 12.6829 18.0978 12.6829C18.0326 12.6829 17.9674 12.6829 17.9022 12.6829H14.1848L13.4022 13.561L12.6196 12.6829H7.1413V18.5366H12.5217L13.3043 17.6585L14.1848 18.5366H17.5109V17.1707H17.8043C17.8696 17.1707 17.9348 17.1707 18 17.1707C18.3913 17.1707 18.7826 17.1057 19.1739 16.9756V18.5366H21.913V17.0732H22.1087C22.1087 17.0081 22.1087 16.9756 22.1087 16.9756C22.1739 16.9756 22.2065 17.0081 22.2065 17.0732C22.2717 17.1382 22.3043 17.1707 22.3043 17.1707C22.3043 17.1707 22.2717 17.2033 22.2065 17.2683V18.5366H30.5217C30.587 18.5366 30.6196 18.5366 30.6196 18.5366C31.0761 18.5366 31.5 18.439 31.8913 18.2439V18.5366H34.5326C34.5978 18.5366 34.663 18.5366 34.7283 18.5366C35.1848 18.5366 35.6087 18.4715 36 18.3415ZM24.163 14.6341C24.163 14.8943 24.0978 15.122 23.9674 15.3171C23.837 15.5122 23.6739 15.6748 23.4783 15.8049C23.6739 15.8699 23.837 16 23.9674 16.1951C24.0978 16.3902 24.163 16.6179 24.163 16.878V17.7561H23.087V17.0732C23.087 17.0081 23.087 16.9756 23.087 16.9756C23.087 16.7154 23.0217 16.5203 22.8913 16.3902C22.7609 16.2602 22.5652 16.1951 22.3043 16.1951C22.3043 16.1951 22.2717 16.1951 22.2065 16.1951H21.1304V17.7561H20.1522V13.561H22.5C22.5652 13.561 22.5978 13.561 22.5978 13.561C22.9891 13.561 23.3478 13.626 23.6739 13.7561C24 13.9512 24.163 14.2114 24.163 14.5366C24.163 14.6016 24.163 14.6341 24.163 14.6341ZM19.8587 7.41463C19.8587 7.6748 19.7935 7.90244 19.663 8.09756C19.5326 8.29268 19.3696 8.42276 19.1739 8.48781C19.3696 8.55285 19.5326 8.68293 19.663 8.87805C19.7283 9.13821 19.7609 9.36585 19.7609 9.56098C19.7609 9.62602 19.7609 9.65854 19.7609 9.65854V10.439H18.7826V10.0488V9.65854C18.7826 9.5935 18.7663 9.5122 18.7337 9.41463C18.7011 9.31707 18.6522 9.23577 18.587 9.17073C18.5217 9.10569 18.4565 9.04065 18.3913 8.97561C18.1957 8.97561 18.0326 8.97561 17.9022 8.97561H16.7283V10.439H15.75V6.2439H18.1957C18.1957 6.2439 18.2283 6.2439 18.2935 6.2439C18.6848 6.2439 19.0435 6.30894 19.3696 6.43903C19.6957 6.63415 19.8587 6.89431 19.8587 7.21951C19.8587 7.28455 19.8587 7.34959 19.8587 7.41463ZM28.0761 16.878V17.7561H24.75V13.561H28.0761V14.439H25.7283V15.122H28.0761V16H25.7283V16.878H28.0761ZM21.4239 6.2439V10.439H20.4457V6.2439H21.4239ZM32.2826 16.3902C32.2826 17.3008 31.7609 17.7561 30.7174 17.7561H28.7609V16.878H30.7174C31.0435 16.878 31.2065 16.748 31.2065 16.4878C31.2065 16.2927 31.1087 16.1626 30.913 16.0976C30.7174 16.0976 30.5217 16.0976 30.3261 16.0976C30.0652 16.0976 29.8043 16.065 29.5435 16C29.2826 15.935 29.0543 15.8049 28.8587 15.6098C28.663 15.4146 28.5652 15.187 28.5652 14.9268C28.5652 14.8618 28.5652 14.8293 28.5652 14.8293V14.7317C28.5652 14.4065 28.712 14.1301 29.0054 13.9024C29.2989 13.6748 29.6413 13.561 30.0326 13.561H32.087V14.439H30.2283C29.837 14.439 29.6413 14.5691 29.6413 14.8293C29.6413 15.0244 29.7391 15.122 29.9348 15.122C30.1304 15.187 30.2935 15.2195 30.4239 15.2195C30.4891 15.2195 30.538 15.2195 30.5707 15.2195C30.6033 15.2195 30.6522 15.2195 30.7174 15.2195C30.913 15.2195 31.1087 15.2195 31.3043 15.2195C31.5652 15.2846 31.7935 15.4146 31.9891 15.6098C32.1848 15.8049 32.2826 16.0325 32.2826 16.2927C32.2826 16.3577 32.2826 16.3902 32.2826 16.3902ZM36 15.6098V17.1707C35.7391 17.561 35.3478 17.7561 34.8261 17.7561C34.7609 17.7561 34.6957 17.7561 34.6304 17.7561H32.6739V16.878H34.6304C34.9565 16.878 35.1196 16.748 35.1196 16.4878C35.1196 16.2927 35.0543 16.1789 34.9239 16.1463C34.7935 16.1138 34.663 16.0976 34.5326 16.0976C34.5326 16.0976 34.5163 16.0976 34.4837 16.0976C34.4511 16.0976 34.4022 16.0976 34.337 16.0976C34.1413 16.0976 33.9783 16.065 33.8478 16C33.6522 16 33.4402 15.9675 33.212 15.9024C32.9837 15.8374 32.8043 15.7073 32.6739 15.5122C32.5435 15.3171 32.4783 15.122 32.4783 14.9268C32.4783 14.8618 32.4783 14.813 32.4783 14.7805C32.4783 14.748 32.4783 14.7317 32.4783 14.7317C32.4783 14.3415 32.625 14.0488 32.9185 13.8537C33.212 13.6585 33.5543 13.561 33.9457 13.561H36V14.439H34.1413C33.75 14.439 33.5543 14.5691 33.5543 14.8293C33.5543 15.0244 33.7174 15.122 34.0435 15.122L35.1196 15.2195C35.5109 15.2195 35.8043 15.3496 36 15.6098ZM33.4565 6.2439V10.439H31.9891L30.1304 7.31707V10.439H27.9783L27.587 9.56098H25.5326L25.1413 10.439H23.9674C22.5978 10.439 21.913 9.7561 21.913 8.39024C21.913 6.95935 22.6304 6.2439 24.0652 6.2439H25.0435V7.12195H24.5543H24.163L23.7717 7.21951C23.6413 7.21951 23.5435 7.25203 23.4783 7.31707L23.1848 7.5122C23.1196 7.57724 23.087 7.70732 23.087 7.90244C23.0217 8.03252 22.9891 8.19512 22.9891 8.39024C22.9891 8.39024 22.9891 8.42276 22.9891 8.48781C22.9891 8.74797 23.0543 9.00813 23.1848 9.26829C23.3804 9.46342 23.6087 9.56098 23.8696 9.56098C23.9348 9.56098 23.9674 9.56098 23.9674 9.56098H24.4565L25.9239 6.2439H27.3913L29.0543 10.2439V6.2439H30.6196L32.3804 9.17073V6.2439H33.4565Z" fill="white"/>
</svg>
