<svg width="296" height="207" viewBox="0 0 296 207" fill="none" xmlns="http://www.w3.org/2000/svg">
<path d="M82.2285 60.2058C82.8283 60.3783 83.4492 60.4877 83.7486 61.1562C82.8989 61.5505 82.0963 61.0979 81.3807 60.8666C78.3761 60.0327 75.4539 58.9268 72.6729 57.5704C71.8656 57.1986 71.0018 56.9441 70.1227 56.8187C68.5736 56.4767 67.0816 55.898 65.7288 55.1131C65.02 54.7527 64.1523 54.3109 64.4289 53.3746C65.6727 54.0077 66.8009 54.5814 67.9435 55.163C68.6285 55.4815 69.3538 55.7212 70.0965 55.8754C72.8695 56.4898 75.2713 57.9192 77.8729 58.8596C79.318 59.3588 80.7843 59.7657 82.2285 60.2058ZM27.2878 69.4176C23.4448 68.3179 19.6303 67.1144 15.7873 65.9846C13.6491 65.3686 11.4969 64.8342 9.37319 64.1955C8.29687 63.8989 7.22765 63.5614 6.15852 63.2234C5.66462 63.9904 6.20722 64.3407 6.88648 64.5679C7.84747 64.8947 8.80117 65.2328 9.78352 65.4967C12.2972 66.1855 14.8105 66.8154 17.324 67.5048C20.8704 68.4688 24.4099 69.473 27.9636 70.4557C29.1193 70.7784 30.3109 71.0449 31.4594 71.3789C34.0022 72.1419 36.5452 72.9344 39.1023 73.6753C39.616 73.7665 40.1338 73.7963 40.6392 73.7637L40.6951 73.4084C39.385 72.8512 38.0486 72.3487 36.6916 71.902C33.5713 71.0516 30.4082 70.2975 27.2878 69.4176ZM80.6901 1.17117C81.7472 1.92124 82.7077 2.76193 83.5517 3.67552C85.4001 5.8305 86.8109 8.19229 87.719 10.6522C88.5008 12.6884 89.5638 14.6757 90.3747 16.6971C91.7987 20.2407 93.2374 23.7918 94.4812 27.3766C95.5781 30.4439 96.466 33.5376 97.3831 36.6166C98.0358 38.8231 98.5298 41.0375 99.1973 43.2515C99.6229 44.6783 100.431 46.1078 100.683 47.5349C101.038 49.3463 101.572 51.1488 102.282 52.9239C103.448 55.9816 105.262 58.9057 107.633 61.551C108.752 62.738 110.063 63.7987 111.522 64.6964C110.969 63.6178 110.422 62.5575 109.775 61.4458C106.963 56.6939 104.842 51.7422 103.463 46.7068C103.056 44.799 102.51 42.8992 101.827 41.0183C100.767 38.2208 99.4619 35.4758 98.2941 32.697C97.9915 31.9354 97.7699 31.1607 97.6338 30.3833C97.1148 27.5807 99.0181 25.8191 100.979 24.1163C101.104 23.9919 101.268 23.8979 101.455 23.8418C101.643 23.7856 101.85 23.769 102.059 23.7934C102.268 23.8178 102.474 23.8825 102.659 23.982C102.843 24.0815 103.002 24.2132 103.122 24.366C104.344 25.5129 105.253 26.8506 105.774 28.2692C106.546 31.2448 107.499 34.2091 108.408 37.1806C108.973 39.5998 109.334 42.0277 109.489 44.4462C109.815 48.6442 110.695 52.8581 112.112 57.0124C112.288 57.5308 112.59 58.0264 113 58.4676C113.109 57.2836 113.189 56.0848 113.364 54.9193C114.159 49.7765 115.639 44.7899 117.777 40.0458C118.32 38.846 118.689 37.558 119.158 36.3211C119.598 35.0954 120.436 34.0275 121.591 33.2243C122.745 32.4211 124.174 31.9105 125.736 31.7439C125.99 31.6655 126.271 31.6399 126.556 31.6685C126.84 31.6974 127.121 31.7799 127.377 31.9099C127.632 32.0398 127.854 32.2133 128.026 32.417C128.198 32.6207 128.315 32.849 128.368 33.0837C128.556 33.9067 128.666 34.7326 128.698 35.5538C128.767 36.4302 128.815 37.3104 128.79 38.1833C128.785 38.7442 128.695 39.2934 128.524 39.8191C127.422 43.0509 125.279 45.8416 123.685 48.8528C122.706 50.7011 121.828 52.6008 120.914 54.4673C120.771 54.8477 120.581 55.2109 120.35 55.5527C119.331 56.9652 118.718 58.5792 118.548 60.2881C118.33 61.4907 117.975 62.6679 117.887 63.8777C117.785 66.3259 118.12 68.8183 118.883 71.2767C119.205 72.4657 119.878 73.6053 120.84 74.5899C121.179 74.9917 121.611 75.3376 122.107 75.6036C125.137 77.0422 127.11 79.3751 129.299 81.4927C131.887 83.9759 134.237 86.6478 136.702 89.2309C137.084 89.6408 137.571 89.9802 138.121 90.2186C138.061 89.9667 137.985 89.7163 137.894 89.4686C137.397 88.36 136.916 87.2589 136.405 86.1725C135.654 84.8768 134.993 83.5544 134.424 82.2124C133.682 79.9502 133.079 77.6727 132.616 75.3884C132.413 74.4466 132.519 73.5081 132.921 72.6735C133.323 71.8388 134.007 71.1392 134.901 70.6483C135.157 70.449 135.501 70.339 135.873 70.3374C136.246 70.3358 136.624 70.4426 136.942 70.6395C137.541 70.9235 138.068 71.3144 138.476 71.7791C138.885 72.2439 139.165 72.7692 139.292 73.3114C139.911 75.8993 140.761 78.4863 141.394 81.052C142.145 83.6833 143.239 86.2749 144.656 88.778C146.032 91.2937 147.559 93.8716 148.949 96.4238C150.634 99.8148 152.955 103.021 155.82 105.913C158.008 107.971 160.391 109.907 162.759 111.836C166.692 115.033 170.962 117.944 174.291 121.631C174.548 121.822 174.821 121.995 175.109 122.151C174.835 121.632 174.519 121.126 174.164 120.636C171.088 117.019 168.275 113.27 165.741 109.413C163.959 106.514 162.041 103.648 160.058 100.824C157.428 97.0646 154.654 93.3502 151.924 89.5991C149.468 86.4161 147.446 83.0487 145.902 79.5681C145.417 78.1892 145.127 76.7883 145.037 75.3945C145.026 74.8221 145.206 74.2781 145.561 73.8229C145.915 73.3675 146.428 73.0187 147.044 72.8148C147.703 72.7017 148.414 72.7662 149.079 72.999C149.744 73.2318 150.331 73.6218 150.758 74.1148C151.716 75.2222 152.472 76.463 153.343 77.5851C155.909 81.4974 158.112 85.5357 159.931 89.6607C160.98 91.7592 162 93.8423 162.962 95.9555C164.165 98.5605 165.232 101.199 166.442 103.793C167.441 105.939 168.555 108.056 169.604 110.184C169.741 110.15 169.885 110.135 170.015 110.112C168.788 105.255 166.838 100.469 164.21 95.8675C162.67 92.7833 161.546 89.6061 160.86 86.3993C160.683 85.7195 160.579 85.0463 160.475 84.3734C160.258 83.4202 160.497 82.482 161.14 81.7603C161.394 81.4987 161.534 81.1677 161.539 80.8121C161.499 80.0392 162.017 79.8604 162.79 79.9731C163.704 79.9719 164.632 80.1956 165.458 80.616C166.284 81.0364 166.971 81.6351 167.432 82.3363C167.949 83.204 168.53 84.0608 168.974 84.9512C169.623 86.2403 170.048 87.6078 170.797 88.8304C172.186 91.5678 173.004 94.4272 173.211 97.2765C173.569 99.4945 174.207 101.694 174.687 103.931C174.78 104.179 174.856 104.429 174.914 104.681C175.473 108.316 175.996 111.947 176.584 115.567C176.825 116.595 177.133 117.619 177.508 118.634C177.67 119.503 177.915 120.368 178.242 121.222C178.796 122.251 179.432 123.255 180.146 124.228C180.554 124.723 180.907 125.243 181.2 125.782C182.151 127.707 183.681 129.449 185.632 130.828C188.791 133.498 191.884 136.238 195.042 138.908C195.875 139.612 196.902 140.165 197.8 140.829C199.052 141.823 200.385 142.743 201.788 143.582C200.749 142.212 199.552 140.79 198.492 139.366C195.174 134.858 191.581 130.446 188.709 125.782C185.966 121.433 183.992 116.846 182.857 112.177C182.596 110.829 182.433 109.479 182.369 108.136C182.332 107.719 182.398 107.311 182.564 106.936C182.629 106.688 182.773 106.465 182.985 106.291C183.196 106.117 183.465 105.998 183.767 105.946C184.069 105.893 184.392 105.91 184.705 105.993C185.017 106.075 185.308 106.222 185.548 106.419C186.294 106.954 186.904 107.607 187.332 108.33C189.006 111.337 190.55 114.395 192.138 117.388C194.176 121.378 196.201 125.36 198.298 129.261C198.594 129.784 199.023 130.261 199.553 130.652C198.766 128.893 197.812 127.094 197.095 125.283C196.53 123.866 196.108 122.428 195.834 120.981C195.848 120.086 196.208 119.254 196.862 118.604C197.515 117.953 198.429 117.517 199.473 117.358C199.938 117.326 200.422 117.41 200.863 117.601C201.304 117.791 201.684 118.079 201.952 118.428C203.517 120.065 204.606 121.949 205.125 123.91C205.72 126.176 206.741 128.407 207.567 130.643C208.152 132.18 208.823 133.702 209.285 135.251C210.214 137.803 211.474 140.296 213.043 142.684C213.843 144.035 214.608 145.414 215.357 146.695C218.904 147.527 222.156 149.292 224.593 151.706C225.653 152.687 226.96 153.464 228.398 153.967C228.08 153.282 227.72 152.606 227.321 151.943C226.1 150.141 224.894 148.347 223.615 146.575C223.23 145.999 223.024 145.368 223.017 144.745C223.01 144.123 223.203 143.53 223.576 143.027C223.712 142.781 223.916 142.569 224.174 142.407C224.431 142.245 224.736 142.137 225.067 142.09C225.397 142.043 225.746 142.058 226.087 142.135C226.429 142.212 226.755 142.348 227.044 142.534C227.859 143.01 228.583 143.593 229.18 144.256C230.849 146.286 232.453 148.357 234.015 150.436C236.331 153.489 238.567 156.575 240.891 159.617C241.292 160.04 241.824 160.367 242.417 160.557C244.296 161.307 246.218 161.99 248.423 162.802C248.002 162.263 247.711 161.82 247.377 161.443C245.346 159.199 243.33 156.933 241.234 154.73C237.743 150.92 234.858 146.789 232.662 142.457C230.59 138.833 229.149 135.04 228.387 131.204C228.238 130.326 228.234 129.45 228.374 128.6C228.384 128.304 228.496 128.025 228.697 127.797C228.899 127.57 229.181 127.402 229.513 127.314C229.845 127.225 230.212 127.22 230.572 127.297C230.933 127.375 231.272 127.533 231.551 127.753C232.314 128.28 232.939 128.932 233.378 129.657C235.589 133.291 237.698 136.963 239.787 140.578C241.009 142.676 242.245 144.782 243.425 146.857C244.603 148.933 245.812 151.171 247.07 153.303C247.698 154.315 248.387 155.306 249.133 156.272C249.46 156.651 249.83 157.007 250.235 157.334L250.631 157.196C250.287 156.269 249.901 155.349 249.629 154.399C248.581 151.105 246.33 148.159 244.649 145.046C243.441 142.837 242.52 140.538 241.305 138.311C240.375 136.678 239.93 134.929 240.01 133.224C240.085 132.184 240.494 131.907 241.772 132.04C242.584 132.099 243.391 132.312 244.132 132.661C244.873 133.01 245.527 133.486 246.045 134.053C248.03 136.185 249.515 138.578 250.407 141.084C251.35 143.527 252.502 145.943 253.394 148.375C254.285 150.806 255.265 153.489 256.085 155.973C257.111 160.432 258.966 164.817 261.581 168.968C262.069 169.868 262.824 170.674 263.77 171.303C264.715 171.932 265.815 172.361 266.958 172.546C267.27 172.603 267.57 172.72 267.833 172.888C271.023 174.544 274.364 175.958 277.808 177.109C279.333 177.723 280.82 178.097 282.287 178.681C284.13 179.428 284.495 180.144 283.846 181.57C283.386 182.859 282.344 183.904 280.917 184.507C280.614 184.656 280.251 184.72 279.876 184.69C279.501 184.66 279.132 184.538 278.817 184.338C275.901 182.633 272.641 182.478 269.457 182.054C267.53 181.796 265.575 181.73 263.634 181.584L259.34 181.273C259.883 181.711 260.138 181.974 260.456 182.195C262.931 183.838 265.334 185.592 267.924 187.088C271.613 189.231 275.482 191.156 279.235 193.199C281.832 194.625 284.385 196.116 286.968 197.563C287.375 197.833 287.833 198.039 288.315 198.171C288.797 198.302 289.294 198.356 289.777 198.329C290.711 198.423 291.636 198.672 292.494 199.062L294.632 199.708C295.046 201.779 295.742 203.948 294.035 205.824C292.678 207.303 291.639 207.128 290.343 206.188C288.402 204.687 286.374 203.266 284.27 201.931C281.803 200.424 279.235 199.073 276.647 197.756C275.618 197.317 274.539 196.986 273.439 196.773C268.113 195.208 262.716 193.91 257.277 192.885C254.527 192.474 251.77 192.251 249.014 191.97C245.217 191.514 241.356 191.246 237.531 190.804C235.376 190.518 233.295 189.701 231.569 188.463C231 188.075 230.544 187.585 230.244 187.039C229.943 186.494 229.808 185.911 229.851 185.346C229.878 184.823 230.122 184.345 230.541 183.991C230.961 183.637 231.533 183.426 232.164 183.394C234.591 182.921 237.174 182.879 239.752 183.271C243.745 184.02 247.716 184.919 251.637 185.69C255.557 186.461 259.291 187.313 263.314 188.431C262.321 187.202 261.05 186.127 259.584 185.278C257.377 183.963 255.164 182.659 252.971 181.322C252.147 180.902 251.496 180.424 250.604 180.973C250.177 181.141 249.679 181.182 249.184 181.091C244.738 180.74 240.318 180.776 235.998 181.198C233.363 181.416 230.649 181.271 227.961 180.767C227.104 180.563 226.277 180.243 225.518 179.819C224.672 179.393 223.864 178.913 223.101 178.383C222.587 178.039 222.134 177.634 221.761 177.184C221.487 176.922 221.29 176.614 221.188 176.291C221.085 175.967 221.08 175.637 221.173 175.332C221.267 175.027 221.455 174.755 221.722 174.543C221.989 174.332 222.324 174.185 222.698 174.119C223.572 173.886 224.496 173.755 225.444 173.731C229.007 173.596 232.577 173.48 236.169 173.419C236.955 173.488 237.741 173.523 238.521 173.524C235.026 171.347 231.187 170.957 227.312 170.771C227.234 171.07 227.2 171.304 227.178 171.396C223.905 171.649 220.718 171.827 217.574 172.175C215.83 172.424 214.125 172.78 212.472 173.238C207.703 174.441 203.007 175.8 198.179 176.884C195.857 177.578 193.334 177.868 190.754 177.739C190.574 177.721 190.372 177.796 190.191 177.748C188.313 177.235 186.407 176.796 184.586 176.164C182.765 175.532 182.588 174.675 183.404 173.408C184.664 171.805 186.42 170.53 188.522 169.696C189.57 169.176 190.7 168.761 191.891 168.46C193.571 168.119 195.373 168.062 197.089 167.814C200.196 167.373 203.288 166.896 206.386 166.2C206.01 166.073 205.626 165.971 205.238 165.896C199.709 165.266 194.196 164.703 188.666 164.014C184.957 163.602 181.289 162.915 177.601 162.441C176.148 162.201 174.775 161.57 173.704 160.649C173.432 160.462 173.207 160.233 173.043 159.976C172.88 159.72 172.784 159.445 172.761 159.17C172.739 158.894 172.79 158.625 172.912 158.383C173.034 158.14 173.223 157.931 173.466 157.768C174.054 157.296 174.816 156.992 175.662 156.893C182.131 156.587 188.676 156.659 195.247 157.107C197.614 157.308 200.005 157.949 202.379 158.198C208.218 158.823 213.746 160.885 219.394 162.342C220.504 162.723 221.636 163.038 222.782 163.285C222.499 163.067 222.232 162.827 221.92 162.625C218.613 160.484 215.285 158.376 212.028 156.188C210.094 154.845 207.89 153.819 205.557 153.174C199.75 151.75 193.823 151.047 187.983 151.092C183.936 151.054 179.859 150.735 175.804 150.59C173.481 150.5 171.181 150.524 168.872 150.47C166.563 150.417 164.362 150.256 162.126 150.24C158.88 150.211 155.663 150.345 152.49 150.294C150.239 150.24 147.979 149.991 145.692 149.785C144.704 149.681 143.714 149.487 143.363 148.363C143.144 147.853 143.117 147.319 143.284 146.836C143.451 146.352 143.804 145.943 144.295 145.665C144.64 145.48 145.017 145.336 145.417 145.233C147.715 144.511 150.154 144.052 152.675 143.865C155.508 143.698 158.261 143.24 161.096 143.133C163.93 143.026 166.909 143.052 169.867 143.17C173.099 143.339 176.404 143.545 179.637 143.804C181.033 143.94 182.424 143.95 183.785 143.834C182.622 143.493 181.459 143.181 180.303 142.829C176.236 141.599 172.094 140.64 167.918 139.964C164.839 139.443 161.739 139.244 158.697 139.374C155.177 139.501 151.621 139.447 148.057 139.286C145.516 139.348 142.925 139.029 140.407 138.343C138.837 137.836 137.327 137.177 135.91 136.379C135.409 136.099 134.992 135.722 134.7 135.288C134.408 134.853 134.253 134.377 134.251 133.907C134.248 133.437 134.399 132.99 134.687 132.613C134.974 132.237 135.389 131.943 135.887 131.763C136.594 131.503 137.352 131.328 138.142 131.244C139.707 131.021 141.278 130.847 142.857 130.692C144.552 130.488 146.32 130.556 148.066 130.893C150.854 131.485 153.683 131.892 156.513 132.24C161.249 132.997 165.95 134.076 170.565 135.467C172.768 136.072 174.893 136.947 177.089 137.622C178.115 137.937 179.197 138.016 180.252 138.287C182.65 138.917 185.033 139.6 187.432 140.259C187.6 140.287 187.769 140.304 187.937 140.31C187.987 140.232 187.95 140.14 187.922 140.125C184.378 138.321 181.501 135.691 177.735 134.143C176.144 133.372 174.623 132.489 173.193 131.506C172.064 130.843 170.928 130.162 169.764 129.554C166.741 128.016 163.704 126.47 160.682 124.931C157.659 123.393 154.146 121.841 150.921 120.229C148.681 118.958 146.301 117.89 143.828 117.047C143.28 116.883 142.723 116.752 142.16 116.656C140.237 116.293 138.305 116.009 136.371 115.804C132.554 115.5 128.693 115.232 124.842 115.249C121.11 115.262 117.451 115.655 113.949 116.42C110.649 117.185 107.437 118.128 104.332 119.244C101.366 120.243 98.1731 120.905 95.0616 121.713C93.5556 122.112 92.1229 122.578 90.6243 122.937C88.7865 123.374 88.3602 123.261 87.0269 121.873C86.4339 121.39 85.9576 120.819 85.6314 120.199C85.305 119.581 85.1353 118.927 85.133 118.283C85.1365 117.505 85.4877 116.791 86.1192 116.275C88.4346 114.317 91.5348 113.091 94.9814 112.772C97.8725 112.576 100.765 112.499 103.723 112.528C106.68 112.558 109.758 112.103 112.685 111.851C114.697 111.709 116.687 111.601 118.685 111.481L121.28 111.326C119.941 110.843 118.518 110.625 117.137 110.693C115.016 110.617 112.918 110.745 110.805 110.746C107.327 110.748 103.822 110.704 100.345 110.706C97.1778 110.703 94.0116 110.7 90.8671 110.781C89.8239 110.831 88.8188 111.022 87.8909 111.348C86.6597 111.769 85.507 112.068 84.1965 111.12C83.5618 110.621 83.1252 109.979 82.9566 109.298C82.7886 108.618 82.8983 107.939 83.2692 107.372C83.5635 106.832 83.9627 106.343 84.452 105.922C85.9181 104.668 87.7263 103.715 89.76 103.124C91.7945 102.533 94.0095 102.317 96.2649 102.49C98.0688 102.67 99.7858 102.658 101.533 102.839C103.287 103.014 105.039 103.28 106.78 103.636C111.575 104.6 116.327 105.72 121.106 106.766C121.665 106.903 122.237 106.964 122.796 106.947C119.811 105.797 116.798 104.691 113.841 103.467C111.261 102.404 108.752 101.201 106.179 100.098C102.752 98.6191 99.3546 97.0669 95.8494 95.7702C93.1067 94.6562 90.0956 94.3302 87.3408 94.8485C84.8834 95.354 82.2365 95.4675 79.8887 96.1617C74.5459 97.8054 69.6003 100.086 65.1924 102.938C63.3808 104.082 61.6846 105.403 60.0464 106.694C59.9892 106.783 59.8157 106.784 59.7584 106.873C58.327 109.096 55.4954 109.735 52.8665 110.537C51.2606 111.086 49.5049 111.364 47.6914 111.357C46.5306 111.327 45.3601 111.066 44.2792 110.596C43.1984 110.125 42.2389 109.459 41.4819 108.654C41.3685 108.572 41.2737 108.473 41.2027 108.365C41.1318 108.256 41.0863 108.14 41.0689 108.023C41.0516 107.905 41.0627 107.788 41.1015 107.681C41.1405 107.572 41.2063 107.475 41.2954 107.392C41.5956 106.977 42.028 106.644 42.553 106.424C43.9176 106.064 45.1997 105.556 46.3684 104.913C50.6335 102.925 54.6661 100.651 58.4315 98.1097C62.0911 95.591 66.2763 93.6087 70.8383 92.2339C71.2317 92.1129 71.5387 91.8701 71.7004 91.5511C71.2855 91.5187 70.8739 91.527 70.4741 91.5763C67.0305 92.4509 63.6013 93.3028 60.151 94.2771C57.7455 95.0302 55.4065 96.0977 52.9432 96.8214C50.3945 97.5515 47.7769 98.151 45.1041 98.6165C42.0298 99.2018 38.7845 99.3136 35.5193 98.9477C32.6783 98.6942 29.882 97.783 27.4563 96.3195C26.4794 95.6896 25.596 94.9741 25.836 93.9155C25.9374 93.4463 26.2034 93.0277 26.6029 92.7081C27.0024 92.3886 27.5189 92.1822 28.092 92.1127L39.8543 90.1594L53.2166 87.8989C54.5283 87.6809 55.8329 87.4743 57.1228 87.2308L66.5995 85.3683C66.0004 85.2139 65.3952 85.0882 64.7865 84.9922C59.762 84.2575 54.7246 84.06 49.802 84.4044C43.4571 84.9831 37.0681 85.3912 30.6867 85.8175C27.1893 86.0598 23.6261 86.076 20.187 86.3766C17.9447 86.6451 15.6136 86.5821 13.2973 86.1908C10.772 85.746 8.36634 84.7161 6.37241 83.2269C5.83462 82.8321 5.40966 82.3439 5.13703 81.8066C4.86441 81.2692 4.753 80.7001 4.81282 80.1523C4.87272 79.6046 5.10195 79.096 5.47966 78.6726C5.85714 78.2497 6.37071 77.9266 6.97301 77.7322C10.5937 76.4543 14.6003 75.8632 18.7291 75.9976C22.243 76.2069 25.5756 76.2209 28.8515 76.4417C32.7914 76.7351 36.7396 77.254 40.6945 77.6732L46.5328 78.2394L46.596 77.8728C46.1181 77.7102 45.6335 77.567 45.144 77.4438C42.046 76.7379 38.9479 76.0319 35.8359 75.3776C29.4311 74.0213 23.0124 72.7762 16.6144 71.3497C12.9677 70.5416 9.32762 69.6037 5.73744 68.5288C3.87573 67.8894 2.30157 66.7 1.35187 65.2155C0.402161 63.731 0.152492 62.0688 0.656177 60.5854C1.04046 59.933 1.63166 59.3933 2.375 59.0159C3.11859 58.6379 3.99001 58.4351 4.9085 58.4258C5.5937 58.4728 6.27994 58.5888 6.95168 58.7716C11.2966 60.0534 15.5848 61.5168 19.7983 63.156C23.4775 64.7188 27.2423 66.0594 31.0142 67.3887C34.7859 68.7185 39.0044 69.8911 42.9004 71.5348C47.2228 73.3515 51.7786 74.2093 56.1432 75.7812C57.5217 76.208 58.9207 76.5655 60.3321 76.8507C60.4004 76.7576 60.4624 76.6614 60.5183 76.5616C59.9108 76.2526 59.289 75.9358 58.6384 75.6938L47.3917 71.0317C43.2283 69.2964 39.0363 67.6054 34.9159 65.8033C30.4258 63.9932 26.1892 61.6977 22.3313 58.9846C21.4268 58.3259 20.7363 57.4906 20.34 56.5753C19.9436 55.6605 19.8573 54.7037 20.0914 53.8155C20.2351 53.1511 20.6969 52.5921 21.3786 52.2576C22.06 51.9237 22.9071 51.8411 23.7397 52.0268C25.3306 52.5062 26.8968 53.0616 28.4293 53.6909C29.6217 54.1353 30.7427 54.7504 31.9562 55.1025C36.2834 56.4047 40.0173 58.8066 44.1372 60.4903C48.2571 62.174 52.3519 64.6719 56.4449 66.7551C59.2759 68.1697 61.9883 69.7624 64.5543 71.5175C66.6675 72.9177 68.6662 74.4659 70.6859 75.9811C73.2777 77.9204 75.6542 79.9856 78.3242 81.7729C80.7521 83.5041 83.3297 85.0783 86.0295 86.4773C87.9024 87.604 89.9927 88.4215 92.1658 88.8769C92.7809 89.0368 93.3707 89.2822 93.9077 89.6014C94.6192 90 95.3948 90.2994 96.1989 90.4871C95.4598 89.8751 94.7279 89.2517 93.9683 88.6728C90.6446 86.1102 87.3717 83.5296 83.9688 81.0599C79.4838 77.5168 74.7673 74.185 69.8465 71.0824C67.4017 69.661 64.7703 68.4986 62.2394 67.2103C61.2848 66.7243 60.3662 66.1827 59.3898 65.6713C58.981 65.4862 58.6451 65.1973 58.4394 64.8532C58.2339 64.5091 58.1714 64.1309 58.2624 63.7842C58.333 63.4057 58.5271 63.062 58.8248 62.7882C59.1223 62.515 59.513 62.3209 59.9572 62.2259C60.1231 62.1753 60.3053 62.157 60.4906 62.1728C63.2051 62.6394 66.0249 62.5251 68.5568 63.9907C69.9604 64.7938 71.3626 65.4194 72.7084 66.2224C73.6735 66.8047 74.5149 67.5236 75.1852 68.3389C76.208 69.3476 77.3548 70.268 78.604 71.0822L89.833 79.5287C91.7953 81.014 93.8504 82.4147 95.7124 83.9965C97.8565 85.7961 99.7916 87.7703 101.878 89.5995C103.248 90.8133 104.732 91.908 106.158 93.0622C106.73 93.5155 107.252 94.0178 107.846 94.4377C109.489 95.6428 111.183 96.8002 112.826 98.0058C115.948 100.071 119.258 101.919 122.714 103.526C121.654 102.46 120.426 101.512 119.071 100.712C117.783 99.7315 116.422 98.8621 115.141 97.8705C112.901 96.1398 110.69 94.3846 108.507 92.6048C107.508 91.8009 106.588 90.9343 105.639 90.0823C102.936 87.6587 100.262 85.2208 97.5383 82.8306C94.978 80.5436 92.7182 78.046 90.8081 75.3906C89.5009 73.6034 90.5715 72.7759 91.7705 71.6299C92.7113 70.7364 94.075 70.8843 95.6959 71.8272C97.8326 73.14 99.764 74.6798 101.431 76.3992L109.121 83.8704C109.411 83.7187 109.683 83.5462 109.933 83.354C110.153 83.0689 110.493 82.8658 110.898 82.7777C111.304 82.6891 111.75 82.7211 112.167 82.8674C114.359 83.5117 116.519 84.261 118.634 85.1114C123.158 87.1474 127.395 89.6616 131.222 92.5812C133.305 94.0184 135.464 95.3733 137.691 96.6413C137.769 96.5188 137.761 96.3521 137.725 96.3194C133.092 93.0166 128.489 89.7877 123.841 86.3892C122.172 85.049 120.585 83.6402 119.088 82.1693C118.589 81.7234 118.146 81.2471 117.682 80.7749C117.193 80.3614 116.819 79.8686 116.588 79.3383C116.358 78.8075 116.281 78.2552 116.362 77.7265C116.424 77.4306 116.378 77.1148 116.228 76.8179C116.078 76.5215 115.83 76.2569 115.517 76.0567C113.548 74.5394 111.271 73.3351 108.827 72.5194C104.672 70.9502 100.373 69.692 96.1545 68.3416C93.9652 67.6553 91.748 67.1022 89.5379 66.4495C86.814 65.6095 84.0624 64.8139 81.4172 63.792C77.1898 62.2161 72.9834 60.5772 68.8128 58.8526C65.6613 57.5138 62.6025 56.0016 59.5439 54.4888C58.4452 53.8834 57.4079 53.197 56.4466 52.44C56.1468 52.2328 55.9032 51.9749 55.7362 51.6876C55.5689 51.4009 55.4831 51.0936 55.4859 50.7911C55.4887 50.4887 55.5799 50.2008 55.7519 49.951C55.9239 49.7012 56.1718 49.4966 56.4746 49.3554C57.0667 48.9944 57.7751 48.7698 58.5387 48.7009C59.3024 48.6319 60.0984 48.7207 60.8583 48.9595C62.9824 49.6569 65.1209 50.3322 67.123 51.1594C72.226 53.2844 77.3865 55.321 82.3321 57.7196C87.2775 60.1188 92.1123 61.9454 96.9847 64.0711C97.9863 64.489 99.0467 64.7687 100.119 64.8988C98.5727 63.7593 96.866 62.786 95.0482 62.0083C90.9988 59.9467 86.9017 57.9499 82.7563 56.0173C80.6523 55.0202 78.4696 54.1453 76.3301 53.1743C74.4498 52.306 72.5559 51.4305 70.7262 50.4549C68.4176 49.2779 66.1721 48.0068 63.9991 46.6472C61.459 44.9853 59.0768 43.1382 56.5869 41.3985C55.6532 40.6896 54.9612 39.7931 54.5978 38.8217C53.9412 37.3364 54.6662 36.5985 56.4828 36.372C57.481 36.245 58.5293 36.3085 59.5512 36.5581C60.5732 36.8076 61.5431 37.2369 62.3903 37.8145L71.2972 43.3663C74.4664 45.3631 77.6787 47.3228 80.8266 49.4417C84.1917 51.6753 87.7159 53.7257 91.3737 55.5775C96.1033 57.9847 100.983 60.1585 105.254 63.1884C105.884 63.6721 106.62 64.0466 107.409 64.285C106.506 63.3211 105.52 62.4095 104.46 61.5591C102.545 60.2921 100.813 58.8398 99.3095 57.2406C95.6976 53.2474 90.9294 50.2745 86.1903 47.2866C81.7547 44.4829 77.2763 41.7459 72.9052 38.8717C69.4244 36.5835 65.9648 34.2323 62.6994 31.7289C59.6228 29.5265 56.911 26.992 54.6556 24.2108C53.7167 22.9851 52.8089 21.7409 51.9323 20.4781C51.7164 20.137 51.5729 19.7739 51.5086 19.4065C51.1994 18.1274 51.7302 17.5417 53.2524 17.5637C54.1535 17.5465 55.0731 17.6929 55.9476 17.9928C56.822 18.2926 57.6306 18.7388 58.3174 19.3005C60.5723 21.1665 62.8009 23.0634 65.0033 24.9911C68.198 27.7832 71.2492 30.7087 74.5662 33.4006C77.0213 35.4029 79.8433 37.1344 82.4924 38.9845L82.8662 38.732C82.3246 38.0493 81.7359 37.3899 81.1038 36.7576C77.4771 33.5537 74.2382 30.0741 71.4443 26.3805C68.3224 22.2825 64.5816 18.4599 62.1001 14.0533C61.271 12.6456 60.5856 11.1955 60.0518 9.71961C59.7551 8.67822 59.7949 7.62478 60.1669 6.66928C60.5391 5.71385 61.2299 4.89146 62.1674 4.28799C62.3815 4.04388 62.6769 3.85883 63.0244 3.7512C63.3717 3.64355 63.7589 3.61709 64.1473 3.67448C64.5357 3.73189 64.9118 3.87106 65.2383 4.07825C65.5646 4.28543 65.8299 4.55334 66.0077 4.85532C67.5972 6.85983 69.0572 8.91647 70.6396 10.9321C72.2221 12.9477 73.7234 14.6121 75.1609 16.495C77.9632 20.135 80.6862 23.8086 83.4671 27.4525C85.0131 29.494 86.6602 31.4392 88.2068 33.5103C89.3686 35.0758 90.3796 36.7267 91.4049 38.3554C92.0881 39.4411 92.7279 40.5048 93.4556 41.8197C93.7591 40.3269 93.437 38.7301 92.5391 37.2798C90.8603 33.2966 89.1959 29.2911 87.474 25.3154C86.8905 23.9558 86.0902 22.6335 85.5279 21.2699C83.6872 16.6485 81.4791 12.0976 78.9187 7.64876C78.0993 6.06195 77.4911 4.42542 77.1058 2.77075C76.8788 2.07959 76.7735 1.19953 77.6807 0.864338C78.1232 0.660684 78.6475 0.581017 79.1846 0.635798C79.7217 0.690558 80.2465 0.877137 80.6901 1.17117ZM217.004 163.399C216.968 163.454 216.925 163.521 216.962 163.614L218.067 163.866C218.067 163.866 218.132 163.766 218.168 163.71L217.004 163.399ZM206.456 164.214C209.826 164.556 213.21 164.847 216.58 165.161C217.122 165.215 217.663 165.239 218.196 165.275C218.123 165.14 218.017 165.017 217.884 164.913C217.751 164.81 217.596 164.729 217.429 164.677C215.327 164.124 213.226 163.571 211.117 163.088C209.204 162.621 207.277 162.231 205.341 161.919C202.092 161.447 198.838 161.104 195.597 160.708C191.439 160.215 187.31 159.442 183.186 159.882C182.606 159.852 182.025 159.75 181.46 159.579C182.125 159.079 182.988 158.781 183.931 158.725C187.462 158.698 191.031 158.958 194.588 159.501C197.353 159.802 200.117 160.309 202.832 160.745C204.766 161.022 206.715 161.246 208.642 161.504C208.758 161.563 208.923 161.426 209.06 161.362L211.062 162.219L213.935 162.648L214.109 162.737L214.239 162.803L215.757 163.428C215.775 163.316 215.801 163.206 215.834 163.098L214.297 162.833L214.138 162.751L213.993 162.678C213.198 162.392 212.432 162.12 211.616 161.866C211.515 161.815 211.285 162.111 211.12 162.249C210.726 161.399 209.947 161.327 209.118 161.392C208.769 161.162 208.389 160.969 207.99 160.817C206.134 160.419 204.271 160.032 202.409 159.704C199.6 159.233 196.784 158.775 193.976 158.364C188.463 157.724 182.957 157.568 177.55 157.898C176.803 157.952 176.078 158.078 175.387 158.274C174.811 158.393 174.055 158.554 174.296 159.194C174.396 159.407 174.55 159.606 174.746 159.775C174.943 159.944 175.178 160.079 175.433 160.171C178.732 161.32 182.174 162.024 185.614 162.254C186.978 162.313 188.349 162.361 189.727 162.488C193.614 162.852 197.499 163.241 201.382 163.653C203.084 163.723 204.795 164.048 206.456 164.214ZM225.739 167.668C222.476 167.396 219.242 167.509 216.133 168.003C214.778 168.271 213.397 168.474 211.995 168.612C207.819 169.069 203.764 169.889 199.896 171.058C198.722 171.361 197.642 171.904 196.469 172.265C194.726 172.854 193.011 173.251 191.268 173.721L190.919 173.189C193.142 171.945 195.982 171.649 198.322 170.64C200.83 169.725 203.463 169.01 206.188 168.505C208.811 167.951 211.565 167.64 214.253 167.223C214.191 167.146 214.108 167.08 214.012 167.032C213.916 166.983 213.81 166.953 213.704 166.943C209.609 167.338 205.557 167.667 201.447 168.084C197.778 168.563 194.167 169.19 190.636 169.961C188.397 170.572 186.457 171.666 184.997 173.141C184.729 173.498 184.517 173.886 184.368 174.297C184.873 174.656 185.441 174.945 186.046 175.151C188.594 175.695 191.259 176.329 193.636 175.65C196.013 174.97 198.763 173.832 201.312 172.856C203.126 172.156 204.897 171.375 206.733 170.7C209.855 169.69 213.209 169.108 216.678 168.974C217.14 168.943 217.774 168.853 217.918 168.601C218.375 167.89 219.147 167.884 219.941 167.875C221.174 167.868 222.422 167.928 223.735 167.947C224.447 168.028 225.147 167.931 225.739 167.668ZM226.46 166.19L220.898 164.51L220.799 164.873C222.648 165.43 224.32 166.532 226.46 166.19ZM238.927 175.487C238.342 175.433 237.755 175.346 237.173 175.229C232.873 174.609 228.57 174.618 224.464 175.253C223.72 175.42 223.003 175.643 222.324 175.921C224.7 177.839 226.828 179.306 229.663 179.258C233.543 179.196 237.488 179.034 241.295 178.847L246.921 178.67C245.851 177.745 244.594 176.983 243.223 176.429C241.851 175.875 240.393 175.541 238.934 175.447L238.927 175.487ZM268.949 193.041L265.843 192.197C263.07 191.465 260.317 190.669 257.545 190.025C255.306 189.505 253.039 189.208 250.808 188.707C250.247 188.669 249.689 188.523 249.178 188.28C248.667 188.038 248.217 187.707 247.865 187.312L255.568 188.621C255.345 188.326 255.008 188.095 254.62 187.976C251.104 187.098 247.556 186.376 243.991 185.813C240.941 185.17 237.841 185.033 234.879 185.41C233.726 185.496 232.553 185.492 231.373 185.397C230.978 185.742 231.161 186.323 231.699 186.891C232.11 187.356 232.645 187.741 233.255 188.009C233.864 188.278 234.528 188.422 235.182 188.428C237.318 188.511 239.446 188.665 241.589 188.738C246.905 189.005 252.241 189.709 257.519 190.839C260.913 191.533 264.423 192.494 267.883 193.295C268.048 193.365 268.314 193.19 268.956 193L268.949 193.041ZM265.548 190.896L264.472 190.57C264.422 190.648 264.372 190.725 264.329 190.792L265.405 191.119C265.446 191.027 265.496 190.939 265.555 190.856L265.548 190.896ZM173.48 109.323L173.221 109.338L173.377 110.23L173.78 110.199L173.48 109.323ZM167.344 109.905C166.984 108.934 166.541 107.979 166.018 107.045C164.691 104.185 163.465 101.318 162.16 98.4549C161.613 97.2762 160.936 96.1203 160.303 94.9564C159.982 94.1141 159.689 93.2565 159.324 92.4217C157.784 88.8486 155.459 85.3924 154.244 81.7037C154.174 81.5579 154.084 81.4178 153.975 81.2862C153.008 79.8053 151.918 78.2473 150.865 76.7517C150.155 75.7567 149.037 74.9812 147.745 74.5885C147.606 74.7629 147.486 74.9488 147.388 75.1444C146.753 76.7081 146.903 78.491 147.809 80.1259C148.93 82.1722 149.784 84.2152 150.998 86.1766C151.943 87.691 153.147 89.0118 154.171 90.4627C156.016 93.0253 157.823 95.6076 159.591 98.2098C161.407 100.905 163.166 103.63 164.975 106.337C165.71 107.523 166.524 108.675 167.322 109.849L167.344 109.905ZM174.332 115.247C174.17 114.02 173.739 112.799 173.059 111.647C172.501 110.879 172.187 110.027 172.152 109.178C172.131 108.718 172.056 108.255 171.929 107.796C171.203 105.434 170.549 103.05 169.658 100.737C168.021 96.3608 166.254 92.0078 164.631 87.6695C164.484 87.178 164.374 86.6827 164.299 86.1877C164.631 86.2089 164.84 86.1821 164.855 86.2195C167.913 92.9308 170.478 99.7429 172.536 106.614L173.034 106.558L170.83 98.381C170.764 98.1261 170.582 97.8118 170.667 97.6197C171.431 96.0156 170.644 94.4053 170.059 92.779C169.693 91.7074 169.291 90.6317 168.946 89.5564C168.461 87.7552 167.655 85.991 166.555 84.3246C166.099 83.6728 165.509 83.0823 164.815 82.583C163.693 81.7611 163.08 81.8183 162.429 82.7707C162.167 83.152 162.04 83.5959 162.06 84.0588C162.118 84.9192 162.255 85.7831 162.469 86.6433C163.074 89.5903 164.033 92.5163 165.333 95.3765C167.153 98.8421 168.659 102.387 169.835 105.978C170.465 107.98 171.002 109.98 171.632 111.984C172.062 113.257 173.021 114.417 174.332 115.247ZM177.748 123.42C177.805 123.331 177.985 123.32 178.094 123.271L176.592 121.607L176.326 121.752L177.748 123.42ZM106.936 69.3721L107.101 69.1166L104.238 67.8664C102.947 67.2045 101.602 66.629 100.219 66.1453C95.0116 64.7491 90.2677 62.3643 85.3314 60.3679C80.395 58.3721 75.8967 56.1123 71.1265 54.0972C67.9748 52.7589 64.7447 51.572 61.5221 50.4633C60.6713 50.0884 59.7261 49.9513 58.8439 50.0737C57.9614 50.1966 57.1949 50.5715 56.6709 51.1378C58.035 52.089 59.453 52.9834 60.9184 53.8158C63.8832 55.3253 66.877 56.8489 69.9778 58.1469C73.5055 59.677 77.1188 61.1026 80.7468 62.4474C83.6587 63.5313 86.6427 64.4448 89.5615 65.4585C90.2895 65.6169 91.0217 65.7434 91.7564 65.8376C89.9601 64.2735 87.34 63.9587 85.852 62.124C89.3779 63.2988 92.7179 64.851 96.215 66.0111C99.7121 67.1712 103.346 68.2977 106.922 69.4243L106.936 69.3721ZM66.9969 78.1915C68.0371 78.6325 68.9921 79.2074 69.9902 79.715C71.3209 80.3922 72.6368 81.062 74.3724 81.857C73.6374 80.6421 73.1645 79.7665 71.8787 79.4365C71.1657 79.2378 70.4739 78.9701 69.8194 78.6393C68.6909 78.0649 67.6631 77.3353 66.5421 76.7797C61.813 74.3724 57.4704 71.3948 52.3332 69.6506L52.1162 69.5403L45.6306 66.4311C44.517 65.8642 43.3745 65.2826 42.2609 64.7157C39.1814 63.3847 36.0663 62.1088 32.9869 60.7773C31.8902 60.2859 30.8228 59.7425 29.7906 59.1507C29.212 58.8565 28.6616 58.3991 28.8748 57.74C32.5833 59.3764 36.2336 60.9545 39.87 62.5836C41.8797 63.4887 43.8538 64.4788 45.8492 65.4059C47.5844 66.2002 49.2979 67.0284 51.0615 67.7489C54.7109 69.3702 58.2569 71.1753 61.6772 73.1521C64.1214 74.3962 66.4223 75.8331 68.8018 77.1769C67.7555 75.741 66.3748 74.4692 64.7515 73.4478C62.1192 72.108 59.4938 70.698 56.9979 69.1763C53.7321 67.1033 50.2997 65.2327 46.7347 63.5837C45.0328 62.8771 43.3758 62.0828 41.7748 61.2065C36.7471 58.2787 31.2049 56.3286 25.8701 53.997C24.9149 53.6567 23.9055 53.4913 22.9174 53.5125C22.6938 53.4958 22.4743 53.5177 22.2728 53.5767C22.0712 53.6358 21.8922 53.7303 21.7469 53.8551C21.6018 53.9793 21.4935 54.131 21.4292 54.3C21.3648 54.469 21.3457 54.652 21.3732 54.8367C21.355 55.2724 21.4452 55.7176 21.6383 56.1456C21.8312 56.5735 22.1231 56.9757 22.4962 57.3272C23.7254 58.6305 25.2421 59.7397 26.9485 60.5818C31.2847 62.8155 35.7485 64.8464 40.3156 66.6628C43.8062 67.9815 47.1758 69.6374 50.602 71.116C56.0165 73.503 61.5317 75.8231 66.9969 78.1915ZM76.018 83.5657L77.0678 84.3508C77.4216 84.5893 77.7554 84.8483 78.0669 85.1252C78.5703 85.5992 79.2092 85.9622 79.9095 86.1724C80.6099 86.3827 81.3434 86.4318 82.0257 86.3132L76.018 83.5657ZM73.0933 84.3792C73.9673 84.5729 74.8124 84.9003 75.6793 85.1642L75.8945 84.8311C74.4911 83.6825 72.9709 82.6365 71.3562 81.709C68.9493 80.58 66.4507 79.6194 63.8909 78.8391C60.0763 77.6356 56.2194 76.6169 52.3693 75.4984C49.8771 74.7762 47.3775 74.0058 44.8924 73.2427C42.4072 72.4796 40.2761 71.8228 37.9857 71.0556C34.3733 69.8362 30.7464 68.6694 27.2053 67.3094C22.7535 65.6044 18.4589 63.5956 13.8716 62.2205C11.3722 61.4795 8.88004 60.7272 6.36636 60.0384C4.42348 59.5067 1.95439 60.5374 1.88164 61.873C1.77591 63.8561 3.6001 66.6294 5.85344 67.1858C10.0999 68.2258 14.3113 69.4692 18.5794 70.5051C21.9015 71.3107 25.1934 71.8346 28.4719 72.5886C34.3501 73.9276 40.1707 75.2962 46.0854 76.7275C47.9341 77.167 49.7479 77.8393 51.5964 78.2192C53.1127 78.5184 54.6241 79.3026 56.4045 79.0429C53.2169 77.7308 49.7389 77.4653 47.1184 75.5709C47.7518 75.4672 48.4284 75.5062 49.0809 75.6844C50.4895 76.0914 51.8555 76.6241 53.2567 77.0129C55.2792 77.57 57.3299 78.0235 59.3239 78.6249C59.9149 78.8443 60.4751 79.1294 60.9869 79.4718C61.6675 79.982 62.4231 80.4163 63.2295 80.7603C65.8005 81.3902 68.3855 81.909 71.1575 82.4048C71.3441 83.6066 71.2291 83.6956 70.1244 83.4432C67.965 82.9496 65.791 82.4479 63.6253 82.0541C62.1343 81.8047 60.6382 81.6194 59.1433 81.4994C56.1339 81.2223 53.1168 80.8381 50.0649 80.6868C46.1908 80.5593 42.4186 80.6318 38.5238 80.7157C34.6291 80.7997 31.3835 80.8593 27.8496 80.9792C24.705 81.0614 21.5165 81.0026 18.3868 81.1806C15.7475 81.3128 12.8526 80.8283 10.6235 82.2617C9.76932 81.6498 10.0484 81.1867 10.6678 81.0004C11.7586 80.6177 12.9273 80.3682 14.141 80.259C17.3502 80.1365 20.6037 80.2134 23.8276 80.1277C29.8356 79.9828 35.8215 79.7829 41.822 79.5903C42.2331 79.5781 42.6223 79.5104 43.3648 79.4311C43.0572 79.2749 42.7319 79.1489 42.3965 79.0561C34.8544 77.9893 27.2971 77.3578 19.7808 77.1674C16.2905 77.1882 12.8713 77.5694 9.60127 78.3031C8.64154 78.5581 7.7513 78.9355 6.95959 79.4229C6.75274 79.5258 6.58122 79.6679 6.45686 79.8393C6.33267 80.0102 6.25837 80.2068 6.23959 80.4145C6.22082 80.6221 6.25752 80.837 6.34756 81.0433C6.43768 81.2495 6.57874 81.4427 6.76114 81.6096C8.39015 82.8073 10.0343 84.1903 12.2281 84.3921C14.8535 84.69 17.4771 84.8055 20.0705 84.7387C24.2103 84.6024 28.3203 84.2736 32.423 83.9567C35.9129 83.6963 39.3735 83.3322 42.8706 83.0611C45.5601 82.8506 48.2714 82.6661 50.9903 82.5893C53.7094 82.5119 56.2568 82.761 58.8386 82.6282C63.5773 82.5778 68.3914 83.1692 73.0933 84.3792ZM71.8386 96.167C73.1761 95.3722 74.4985 94.3921 75.9594 93.6749C77.4204 92.9572 79.0049 92.4647 80.5671 91.8578C80.466 91.8064 80.3502 91.7475 80.2919 91.718C76.936 92.0372 73.7119 92.7563 70.7165 93.8545C67.3551 95.0078 64.2074 96.4842 61.3322 98.2577C58.5158 100.153 55.5423 101.892 52.4278 103.466C49.5703 105.057 46.576 106.49 43.4612 107.757C43.2199 107.899 43.0028 108.066 42.8144 108.254C43.0805 108.377 43.3594 108.474 43.6454 108.544C47.8032 108.896 51.8173 108.126 55.082 106.352C57.5999 105.117 59.982 103.72 62.2099 102.173C63.2881 101.452 64.3234 100.71 65.3728 99.9749C64.0635 100.041 62.8765 100.477 62.0029 101.211C58.9424 103.168 55.5859 104.81 51.9935 106.108C51.7703 106.186 51.4671 106.12 51.2145 106.125L51.04 105.829L54.1059 104.438C54.7321 104.152 55.3946 103.928 55.9845 103.609C57.9986 102.508 59.955 101.349 61.9769 100.268C62.9465 99.7188 63.9688 99.2281 65.0351 98.7995C67.116 97.9844 69.2614 97.276 71.3787 96.4938C71.547 96.3992 71.7012 96.2899 71.8386 96.167ZM85.3249 92.7003C81.4285 92.5197 77.7137 93.3475 74.6969 95.0686L74.8428 95.379L85.3249 92.7003ZM135.52 114.353L132.033 113.804C129.245 113.246 126.439 112.833 123.631 112.567C120.321 112.478 117.031 112.548 113.779 112.777C111.788 112.885 109.734 113.094 107.708 113.258C106.489 113.361 105.257 113.486 104.038 113.53C101.412 113.67 98.8592 113.699 96.2405 113.709C92.7028 113.841 89.4967 115.024 87.1973 117.046C86.8512 117.355 86.6067 117.735 86.4815 118.157C86.1546 119.142 86.8875 119.972 87.5402 120.777C88.5132 122.01 89.0048 122.231 90.5683 121.861C92.1312 121.491 93.2404 121.021 94.5941 120.619C98.3831 119.507 102.157 118.417 105.939 117.287C107.415 116.843 108.855 116.307 110.303 115.819L110.251 115.482C109.758 115.332 109.255 115.225 108.748 115.16C108.402 115.132 108.064 115.329 107.689 115.344C102.911 115.48 98.3979 116.606 94.5557 118.622C93.9368 118.926 93.2904 119.453 91.9889 118.909C92.5852 118.644 93.1593 118.35 93.7086 118.028C96.4804 116.289 99.7808 115.152 103.358 114.704C106.261 114.369 109.216 114.205 112.199 114.216C113.67 114.168 115.157 114.246 116.635 114.157C118.402 114.067 120.131 113.767 121.921 113.763C123.709 113.758 125.283 113.998 126.943 114.134C128.256 114.242 129.576 114.339 130.89 114.417C132.203 114.495 133.977 114.512 135.493 114.605L135.52 114.353ZM147.908 116.32L150.034 117.401C146.994 115.323 143.846 113.382 140.728 111.425C137.413 109.51 134.307 107.336 131.463 104.939C130.514 104.087 129.558 103.246 128.558 102.441C124.857 99.4213 121.15 96.4127 117.413 93.4482C116.429 92.5539 115.279 91.7937 114.019 91.2041C113.098 90.8211 112.299 90.235 111.724 89.5197C109.991 87.6484 108.373 85.7769 106.532 83.925C104.378 81.7519 102.139 79.6526 99.8785 77.5867C98.248 76.0632 96.6035 74.5325 94.8792 73.0945C93.9088 72.2754 93.3465 72.3138 92.4042 72.9116C92.2251 73.0086 92.0755 73.1364 91.9645 73.2872C91.8526 73.4385 91.7816 73.6104 91.7551 73.7931C91.7286 73.9758 91.747 74.1657 91.809 74.3513C91.8716 74.5378 91.9767 74.716 92.1184 74.8769C92.6197 75.5893 93.128 76.2909 93.6866 76.9738C96.8806 80.9604 101.094 84.168 104.783 87.7723C107.531 90.4548 110.702 92.8361 113.736 95.281C115.25 96.5089 116.792 97.7219 118.42 98.8606C120.969 100.63 123.581 102.329 126.178 104.049C126.917 104.543 127.698 105 128.827 105.692C126.623 103.42 123.926 102.15 121.904 100.221C118.955 97.5538 115.726 95.1131 112.604 92.506C110.786 90.9753 108.904 89.4861 107.186 87.8883C104.309 85.2286 101.504 82.5172 98.7567 79.7757C97.4074 78.6341 96.3526 77.2844 95.6717 75.8295C96.9341 75.867 97.3421 76.6057 97.8423 77.1113C99.3139 78.5833 100.656 80.1671 102.157 81.6245C104.331 83.7639 106.585 85.8707 108.838 87.9767C110.715 89.6848 112.62 91.378 114.561 93.0151C115.931 94.1988 117.314 95.3605 118.734 96.5262C120.153 97.6911 121.413 98.6573 122.774 99.7045C125.721 101.986 128.74 104.217 131.687 106.529C132.506 107.166 133.345 107.801 134.107 108.498C134.324 108.608 134.268 109.082 134.161 109.308C134.054 109.533 133.642 109.398 133.353 109.369C133.065 109.34 133.021 109.199 132.862 109.118C131.415 108.382 129.774 107.65 128.227 106.952C125.458 105.705 122.675 104.48 119.914 103.251C118.615 102.747 117.361 102.148 116.168 101.463C112.985 99.3996 109.815 97.2846 106.839 95.0764C104.465 93.3071 102.32 91.3002 100.081 89.4375C98.3427 87.9329 96.6977 86.3726 94.9807 84.8344C93.9882 83.9603 92.9668 83.0716 91.9019 82.2489C90.3021 81.0066 88.6303 79.8458 87.0008 78.6179C83.9671 76.3215 81.0267 73.9394 77.9 71.7281C74.7728 69.516 72.3088 67.1405 68.6525 65.84C66.7112 64.2029 64.1937 64.1759 61.8897 63.5787C61.0375 63.3515 60.1284 63.3318 59.8309 64.4199C60.5515 64.8659 61.2978 65.2803 62.0659 65.6608C67.3873 68.0833 72.3725 71.0574 76.8825 74.5007C80.9663 77.6718 85.2154 80.6755 89.3637 83.8057C92.4475 86.0839 95.4739 88.3916 98.5798 90.6366C99.8754 91.6061 101.208 92.5197 102.597 93.4931C102.218 93.0198 101.783 92.5757 101.299 92.1683C99.9234 91.0548 98.504 89.9781 97.1358 88.8535C93.83 85.9059 90.2855 83.1449 86.5345 80.5945C84.4605 79.3481 82.5067 77.9591 80.7004 76.444C78.7803 74.9179 76.7645 73.478 74.6632 72.1316L67.1275 66.7171C66.6788 66.4002 66.3885 66.0457 67.1581 65.5964L69.9162 67.5758C71.3135 68.5969 72.6457 69.6588 74.0785 70.6537C76.352 72.2534 78.84 73.6674 80.9261 75.4082C83.0121 77.1489 85.7828 78.8098 88.15 80.561C89.4607 81.5081 90.9357 82.2 92.1883 83.2364C94.4846 85.1278 96.6081 87.1682 98.8395 89.1304C99.7958 89.9711 100.888 90.7192 101.766 91.5941C103.689 93.6285 105.926 95.4575 108.407 97.0256C109.202 97.4306 109.183 97.9371 108.55 98.2346C107.769 97.8373 107.189 97.3652 106.568 97.019C104.665 95.9178 102.741 94.8501 100.831 93.7602C100.383 93.5316 99.9981 93.0854 99.5506 93.0047C96.7928 92.4867 94.2453 90.7174 91.3113 91.2169C91.3113 91.2169 91.0516 91.0847 90.8696 90.8592L91.6916 90.7165L92.6358 90.6216L86.0664 88.0304C85.4863 88.9311 84.5983 88.7589 83.37 88.37C81.1337 87.4449 78.6787 87.1245 76.3905 87.4596C71.4321 88.1917 66.5771 89.1959 61.8564 90.4666C57.4195 91.7793 52.7058 92.5681 48.1087 93.5636C46.9918 93.8069 45.9036 94.0055 44.7213 94.1418C41.8381 94.5632 38.9548 94.9852 36.0642 95.3584C35.6892 95.404 35.2121 95.1608 34.7715 95.0398L34.7698 94.7146C35.3053 94.5328 35.8614 94.3872 36.4339 94.2777C37.818 94.0965 39.2459 94.0263 40.5863 93.7935C42.3089 93.5044 43.9365 92.9451 45.7029 92.7965C49.5747 92.4503 53.0599 91.2431 56.764 90.531C58.5836 90.2002 60.3661 89.7818 62.1027 89.2782C63.5638 88.7626 65.1008 88.3731 66.6918 88.1161C68.5098 87.8155 70.2924 87.4265 72.0317 86.9525C69.0332 86.4954 66.0364 86.63 63.2904 87.3446C59.507 88.0013 55.8328 88.9356 52.071 89.6477C49.7078 90.186 47.213 90.3924 44.7482 90.8203C39.494 91.673 34.2617 92.5812 29.0146 93.4231C28.6325 93.4322 28.2781 93.5397 28.0001 93.7311C27.7221 93.9225 27.534 94.1884 27.4618 94.4923C29.1673 95.6606 31.1833 96.4413 33.2723 96.7413C39.3098 97.4628 45.2834 96.9548 50.6633 95.2626C54.2361 94.2475 57.7215 93.0698 61.2576 91.9916C65.3409 90.6072 69.6841 89.6741 74.1849 89.2143C77.7201 88.9557 81.3178 88.9693 84.9329 89.254C85.5029 89.2932 86.1379 89.3211 86.3787 89.9899C86.6201 90.6589 86.0368 90.7604 85.5183 91.028C85.26 91.1897 85.0333 91.3823 84.8434 91.5992L85.0687 91.9356C87.7307 92.0361 90.4005 92.1549 93.048 92.2187C93.791 92.2277 94.4322 92.1858 94.7113 93.2133L92.4553 93.4373C93.0804 93.7661 93.7501 94.0224 94.4423 94.1978C100.33 95.9992 105.74 98.7818 111.413 101.064C114.174 102.174 116.842 103.459 119.589 104.621C122.335 105.783 125.161 106.793 127.85 108.014C131.09 109.723 134.588 111.004 138.198 111.805C138.821 111.963 139.427 112.186 139.997 112.47C140.324 112.57 140.611 112.761 140.805 113.006C141 113.251 141.089 113.535 141.057 113.807C138.674 113.184 136.406 112.65 134.174 111.971C130.829 110.962 127.513 109.849 124.19 108.778C118.691 107.027 112.997 106.357 107.386 105.051C104.723 104.446 102.018 104.141 99.3458 104.146C97.2036 104.163 94.9944 103.806 92.817 103.997C89.6801 104.435 86.8584 105.597 84.6611 107.357C84.3541 107.712 84.1906 108.146 84.1902 108.607C84.1898 109.068 84.3531 109.536 84.6595 109.954C85.2978 110.633 86.106 110.69 87.3662 110.343C88.0936 110.112 88.8698 109.97 89.6727 109.923C93.553 109.862 97.499 109.877 101.423 109.868C104.091 109.868 106.804 110.009 109.444 109.817C112.396 109.644 115.38 109.62 118.381 109.747C119.1 109.798 119.821 109.885 120.539 110.004C120.382 109.816 120.184 109.652 119.956 109.524C119.728 109.395 119.475 109.304 119.215 109.257C115.671 108.796 112.023 107.78 108.359 107.805C106.611 107.707 104.859 107.52 103.112 107.244C102.68 107.194 102.247 107.176 101.821 107.192C100.27 107.244 98.7412 107.322 97.2055 107.411L90.5712 107.783C90.095 107.806 89.6187 107.77 89.0852 107.764C88.9084 107.113 88.979 106.795 89.7366 106.753C91.6692 106.733 93.5439 106.506 95.4844 106.564C98.832 106.704 101.981 106.167 105.375 106.713C106.253 106.8 107.13 106.843 108.001 106.84C109.624 106.943 111.233 107.009 112.878 107.197C115.066 107.529 117.268 107.955 119.406 108.483C120.836 108.798 122.237 109.245 123.645 109.652C123.942 109.729 124.455 109.828 124.491 109.95C124.779 111.203 126.017 110.889 126.877 111.164C128.116 111.409 129.335 111.767 130.511 112.231C131.485 112.665 132.532 112.936 133.588 113.03C135.89 113.351 138.187 113.766 140.468 114.274C141.566 114.538 142.468 114.776 143.243 113.724L143.66 114.954C144.925 115.465 146.697 115.157 147.11 116.843C147.39 116.617 147.627 116.486 147.886 116.353L147.908 116.32ZM122.428 95.381L123.812 96.4538C124.528 97.0402 125.295 97.5784 125.955 98.1944C128.943 100.999 132.168 103.628 135.602 106.056C138.412 108.083 141.333 109.998 144.351 111.793C148.402 114.18 152.561 116.43 156.72 118.65C159.192 119.908 161.723 121.078 164.203 122.326C166.683 123.574 169.366 124.954 171.912 126.338C172.519 126.648 173.112 126.949 173.778 127.288C173.741 127.078 173.762 126.955 173.704 126.896L164.138 119.237C163.794 118.914 163.474 118.573 163.18 118.219C162.164 116.944 161.01 115.739 159.736 114.621C156.078 112.051 152.179 109.741 148.089 107.719C144.878 105.996 141.566 104.399 138.298 102.735C135.593 101.359 132.932 99.9158 130.199 98.613C127.697 97.4282 125.102 96.4176 122.536 95.3329L122.428 95.381ZM167.958 127.528C170.041 128.589 172.124 129.648 174.191 130.701C175.478 131.356 176.665 132.167 177.932 132.885C179.761 133.949 181.621 134.999 183.559 136.074C184.89 136.751 186.206 137.421 187.667 138.283C186.48 136.689 184.828 135.338 182.887 134.374C180.139 132.976 177.441 131.499 174.765 130.019C170.867 127.843 167.018 125.589 163.105 123.435C161.246 122.415 159.273 121.573 157.371 120.649L156.481 121.436C158.52 122.473 160.472 123.467 162.425 124.461C164.377 125.455 166.042 126.568 167.937 127.562L167.958 127.528ZM179.9 140.085C179.257 139.921 178.593 139.819 177.943 139.695L198.001 146.48C197.023 145.672 196.328 145.082 195.611 144.526C195.401 144.322 195.119 144.178 194.815 144.121C193.125 143.983 191.447 143.528 189.911 142.79C188.483 142.134 186.975 141.636 185.431 141.307C183.568 141.031 181.717 140.622 179.9 140.085ZM175.561 137.877C174.37 137.521 173.177 137.136 171.971 136.832C169.198 136.129 166.41 135.478 163.666 134.819C160.921 134.16 158.379 133.456 155.715 133.001C152.481 132.446 149.226 132.103 145.986 131.767C144.923 131.71 143.872 131.76 142.856 131.915C141.342 132.06 139.835 132.253 138.329 132.415C137.901 132.439 137.48 132.486 137.067 132.555C136.61 132.621 136.214 132.816 135.941 133.109C135.669 133.402 135.537 133.775 135.568 134.168C135.575 134.536 135.74 134.907 136.03 135.216C136.321 135.526 136.721 135.755 137.163 135.865C138.854 136.423 140.589 136.836 142.34 137.099C145.097 137.366 147.848 137.469 150.573 137.407C155.722 137.305 160.92 137.515 166.127 138.034C167.354 138.157 168.595 138.228 169.8 138.295L169.827 137.955C165.059 136.731 160.233 135.784 155.387 135.12C150.486 134.53 145.822 135.064 140.777 134.607C141.199 133.685 142.057 133.782 142.844 133.814C145.13 133.811 147.417 133.75 149.703 133.718C150.508 133.72 151.316 133.758 152.127 133.83C152.943 133.906 153.759 134.1 154.567 134.128C159.876 134.444 165.196 135.421 170.349 137.025C172.045 137.645 173.849 137.92 175.597 137.822L175.561 137.877ZM201.441 149.278C198.116 148.087 194.721 147.079 191.284 146.264C187.549 145.509 183.781 145.014 180.024 144.783C176.279 144.633 172.39 144.233 168.573 144.076C166.144 143.997 163.729 144.034 161.339 144.187C158.281 144.372 155.275 144.657 152.204 144.983C150.156 145.235 148.147 145.603 146.194 146.085C145.416 146.28 144.349 146.534 144.578 147.58C144.732 148.205 145.701 148.609 147.187 148.627C151.162 148.688 155.137 148.718 159.104 148.79C162.742 148.905 166.346 148.765 169.879 148.371C170.612 148.306 171.361 148.301 172.114 148.357L186.356 148.966C186.856 148.992 187.357 149.041 187.858 149.109C193.096 149.543 198.338 150.192 203.563 151.053C203.861 151.074 204.156 151.066 204.443 151.028C203.542 150.32 202.538 149.71 201.463 149.216L201.441 149.278ZM291.586 200.829C291.76 200.917 292.04 200.809 292.329 200.779C292.27 200.572 292.226 200.342 292.175 200.332C291.909 200.305 291.643 200.298 291.382 200.312C291.476 200.433 291.485 200.718 291.608 200.766L291.586 200.829ZM292.26 202.765C292.393 203.453 292.461 204.152 292.551 204.847C292.915 203.925 293.689 203.08 293.164 201.957C292.262 201.837 292.112 202.1 292.223 202.673L292.26 202.765ZM285.442 198.174C283.518 197.195 281.652 196.157 279.736 195.107C277.819 194.058 275.916 192.957 273.985 191.9C272.054 190.843 270.253 189.823 268.344 188.881C266.435 187.938 264.848 186.496 262.513 185.47C262.656 185.905 262.912 186.319 263.264 186.682C263.616 187.045 264.053 187.348 264.543 187.566C265.834 188.086 267.019 188.799 268.03 189.666C269.003 190.66 270.242 191.459 271.627 191.984C272.234 192.292 272.842 192.602 273.594 192.984C273.4 193.285 273.142 193.448 272.97 193.656L272.898 193.619L269.036 191.86L268.851 192.149C269.33 192.665 269.961 193.074 270.67 193.33C271.378 193.587 272.135 193.679 272.854 193.597L272.97 193.656C273.533 193.942 274.112 194.237 274.748 194.443C275.383 194.648 275.968 194.635 276.128 194.894C276.928 196.217 278.603 196.449 279.811 197.226C281.02 198.004 282.082 198.53 283.189 199.226C285.143 200.457 287.039 201.747 289 202.966C289.615 203.288 290.256 203.57 290.915 203.808L291.105 201.248C289.224 200.202 287.322 199.131 285.406 198.081L285.442 198.174ZM255.895 181.851L255.084 181.173L254.825 181.395L255.751 181.985L255.895 181.851ZM241.819 169.418C240.742 168.769 239.714 168.064 238.743 167.306C236.563 165.621 234.434 163.887 232.269 162.18C230.915 161.122 229.524 160.09 228.2 159.017C227.728 158.645 227.488 157.976 226.967 157.74C225.637 157.152 224.629 156.182 223.385 155.519C221.44 154.367 219.699 152.982 218.23 151.419C218.063 151.26 218.09 150.979 217.95 150.361C219.351 151.234 220.646 152.225 221.809 153.314C222.89 154.292 224.079 155.184 225.357 155.977C226.716 156.668 227.129 158.354 229.207 158.526C228.685 158.025 228.337 157.641 227.931 157.287C225.838 155.438 223.701 153.658 221.643 151.754C220.417 150.474 218.856 149.432 217.105 148.721L215.342 149.639C215.84 150.691 216.474 151.706 217.233 152.668C220.003 155.479 223.118 158.055 226.518 160.345C229.572 162.461 232.757 164.465 235.825 166.559C238.271 168.246 240.603 170.053 243.006 171.778C243.672 172.265 244.367 172.648 245.126 173.108C244.483 171.672 243.312 170.392 241.79 169.462L241.819 169.418ZM262.005 178.895C261.547 178.693 261.052 178.575 260.557 178.552C260.064 178.528 259.583 178.599 259.155 178.758L255.588 178.034L255.561 178.375C256.127 178.647 256.743 178.82 257.367 178.883C257.99 178.945 258.605 178.895 259.169 178.735C260.092 179.047 261.076 179.119 261.976 178.94L262.005 178.895ZM265.799 177.387C261.54 176.695 257.349 175.27 253.023 175.607C253.117 175.939 253.355 176.245 253.69 176.465C254.025 176.684 254.433 176.801 254.832 176.794L264.98 177.944C265.277 177.953 265.571 177.929 265.852 177.872L265.799 177.387ZM264.471 175.752L249.375 167.405C248.719 167.034 248.043 166.689 247.35 166.374C246.758 166.072 246.093 165.911 245.255 165.602C245.284 165.939 245.378 166.276 245.534 166.601C247.139 168.79 248.795 170.961 250.407 173.139C250.613 173.415 250.9 173.651 251.234 173.821C251.57 173.992 251.942 174.091 252.315 174.111C256.098 174.56 259.815 175.168 263.583 175.699C263.88 175.741 264.177 175.759 264.471 175.752ZM279.141 179.81C279 180.446 278.851 181.005 278.71 181.583L279.166 181.947C279.547 181.773 280.095 181.668 280.281 181.379C280.447 180.944 280.513 180.478 280.476 180.002L279.141 179.81ZM256.336 162.978L256.689 162.907C256.031 160.948 255.364 159 254.553 156.89C253.581 157.089 253.289 156.498 253.026 155.862C252.224 154.126 251.524 152.47 250.844 150.752C249.384 147.057 247.332 143.474 245.561 139.843C245.299 139.296 244.826 138.686 245.17 138.064C246.639 138.974 246.929 139.329 250.129 146.049C251.455 148.849 252.537 151.702 253.712 154.558C253.792 154.451 253.842 154.328 253.86 154.198C253.878 154.068 253.863 153.932 253.817 153.8C252.434 149.07 250.747 144.373 248.763 139.731C248.102 137.78 246.834 135.947 245.094 134.425C244.637 133.986 244.073 133.631 243.449 133.387C242.825 133.144 242.158 133.02 241.502 133.025C241.292 134.247 241.439 135.53 241.932 136.77C243.171 139.201 244.416 141.621 245.726 144.029C247.978 148.245 250.268 152.422 252.597 156.559C253.848 158.671 255.143 160.806 256.379 163L256.336 162.978ZM249.353 161.357C249.293 161.023 249.124 160.697 248.866 160.415C248.608 160.133 248.27 159.904 247.888 159.756C247.878 160.606 248.76 160.937 249.397 161.379L249.353 161.357ZM256.994 167.652C255.447 165.492 253.836 163.402 252.116 161.361C250.585 159.534 248.773 157.815 247.329 155.973C243.756 151.203 241.379 145.978 238.425 140.963C237.574 139.511 236.86 138.026 236.059 136.556C235.128 134.842 234.225 133.113 233.2 131.425C232.616 130.515 231.948 129.637 231.202 128.8C231.092 128.674 230.951 128.567 230.791 128.485C230.631 128.404 230.455 128.35 230.278 128.329C230.12 128.371 229.98 128.443 229.868 128.539C229.756 128.635 229.676 128.754 229.631 128.886C229.515 129.221 229.492 129.581 229.563 129.944C229.644 130.929 229.838 131.916 230.141 132.894C231.288 135.883 232.364 138.895 233.835 141.799C235.208 144.367 236.807 146.869 238.618 149.281C240.303 151.615 242.254 153.832 244.191 156.044C245.294 157.313 246.598 158.479 247.837 159.685C247.696 159.274 247.487 158.876 247.219 158.499C244.159 154.622 241.367 150.623 238.857 146.525C237.89 145.044 236.794 143.497 235.718 141.976C234.332 140.134 233.501 138.085 233.309 136.027C233.678 136.3 234 136.613 234.265 136.956C235.284 138.714 236.137 140.521 237.256 142.242C239.306 145.38 241.477 148.479 243.643 151.588C245.022 153.56 246.425 155.528 247.905 157.462C249.387 159.396 251.099 161.449 252.725 163.457C252.889 163.712 253.028 163.974 253.14 164.244L252.845 164.404L249.614 161.607C250.3 162.537 251.047 163.439 251.849 164.31C253.304 165.682 255.057 166.821 256.994 167.652ZM244.222 162.317C243.64 162.051 243.044 161.811 242.436 161.6C242.522 162.212 242.826 162.81 243.31 163.32C243.793 163.829 244.434 164.225 245.148 164.456C246.934 165.131 248.668 165.92 250.332 166.814C255.013 169.266 259.667 171.762 264.29 174.303C267.769 176.206 271.177 178.191 274.634 180.128C275.444 180.541 276.204 181.178 277.271 180.924C277.4 180.769 277.507 180.601 277.593 180.424C277.721 180.046 277.806 179.647 277.933 179.21C277.499 178.989 277.109 178.79 276.69 178.665C273.281 177.601 269.992 176.209 266.896 174.522C266.618 174.393 266.323 174.297 266.021 174.239C264.943 173.971 263.891 173.603 262.885 173.144C260.752 171.955 258.747 170.625 256.67 169.317C255.31 168.448 254.158 167.492 252.792 166.752C249.971 165.169 247.1 163.752 244.302 162.342L244.222 162.317ZM238.192 163.867C240.984 166.986 243.877 169.949 246.85 173.026C247.285 173.484 247.749 173.897 248.191 174.343C248.227 174.287 248.263 174.232 248.392 174.239L247.563 172.873L248.24 172.656L240.189 160.677C239.804 160.112 239.397 159.551 238.983 159.001C236.174 155.313 233.378 151.603 230.518 147.933C229.432 146.567 228.268 145.241 227.029 143.958C226.838 143.77 226.605 143.614 226.345 143.502C226.085 143.391 225.804 143.325 225.525 143.311C225.193 143.369 224.913 143.527 224.736 143.758C224.56 143.988 224.499 144.274 224.565 144.564C224.552 144.973 224.643 145.391 224.831 145.791C226.293 148.554 227.94 151.265 229.761 153.909C232.375 157.335 235.284 160.601 238.199 163.856L238.192 163.867ZM203.404 136.39C203.94 137.789 204.845 139.108 206.049 140.245C205.158 138.11 204.081 136.026 203.212 133.916C202.343 131.806 201.618 129.652 200.886 127.508C200.155 125.364 198.94 123.344 198.966 121.217L199.592 121.108C199.861 121.437 200.089 121.785 200.268 122.146C200.908 124.036 201.533 125.928 202.143 127.823C203.08 131.12 204.449 134.365 206.223 137.5C207.459 139.606 208.883 141.6 210.228 143.656L210.867 144.483C210.961 144.069 210.914 143.627 210.73 143.204C209.408 139.801 208.064 136.401 206.756 133.005C205.449 129.609 204.431 126.685 203.233 123.567C202.693 122.365 202.052 121.186 201.319 120.039C201.161 119.767 200.907 119.534 200.594 119.375C200.281 119.216 199.926 119.139 199.583 119.156C199.194 119.136 198.815 119.185 198.472 119.3C198.129 119.415 197.828 119.593 197.592 119.823C197.354 120.051 197.187 120.326 197.1 120.628C197.012 120.93 197.007 121.253 197.084 121.574C197.114 121.885 197.183 122.197 197.291 122.505C198.226 124.782 199.175 127.065 200.174 129.33C201.174 131.595 202.195 134.004 203.404 136.39ZM208.391 148.566C208.531 148.749 208.66 148.938 208.776 149.131L211.829 152.441L212.109 152.274L210.897 150.698C209.619 149.043 208.327 147.412 207.05 145.787C205.773 144.163 204.704 142.631 203.521 141.04C202.592 139.858 201.483 138.748 200.576 137.562C198.397 134.712 196.176 131.87 194.192 128.927C192.528 126.407 191.02 123.832 189.675 121.211C189.099 119.874 188.631 118.517 188.277 117.15C188.666 117.215 189.032 117.387 189.315 117.636C189.599 117.885 189.782 118.196 189.835 118.518C190.451 120.081 191.177 121.623 192.007 123.136C194.079 126.449 196.31 129.754 198.519 132.974C198.729 133.175 198.97 133.353 199.235 133.501C197.897 131.344 196.704 129.261 195.597 127.222C194.033 124.374 192.547 121.493 191.047 118.633C189.314 115.361 187.603 112.054 185.855 108.804C185.544 108.355 185.171 107.932 184.746 107.545L184.263 107.668C184.335 109.456 184.531 111.251 184.852 113.045C185.405 114.883 186.084 116.707 186.885 118.507C188.115 121.605 189.746 124.624 191.747 127.506C194.189 131.11 196.932 134.572 199.568 138.113C201.996 141.818 204.934 145.317 208.319 148.529L208.391 148.566ZM165.137 115.688C165.021 115.629 164.877 115.555 164.523 115.508L164.818 116.928L163.89 117.385C164.135 117.694 164.407 117.991 164.703 118.271C166.542 119.768 168.396 121.272 170.265 122.755C171.901 124.06 173.523 125.358 175.181 126.63C177.165 128.171 179.25 129.645 181.22 131.179C182.651 132.486 184.303 133.616 186.112 134.525C186.649 134.823 187.109 135.213 187.452 135.665C187.776 136.174 188.138 136.668 188.534 137.145C189.737 138.259 191.171 139.314 192.388 140.465C194.439 142.409 197.445 143.496 199.086 145.778C199.211 145.907 199.361 146.018 199.528 146.106C202.337 148.096 205.124 150.12 207.947 152.089C211.57 154.592 215.213 157.076 218.876 159.54C221.615 161.451 224.531 163.172 227.585 164.682C227.887 164.792 228.154 164.968 228.353 165.19C229.073 166.517 230.648 166.905 231.935 167.619C233.699 168.517 235.938 168.859 237.035 170.643C237.108 170.68 237.252 170.753 237.353 170.805C238.512 171.427 239.622 172.115 240.675 172.864C243.575 175.042 246.737 176.959 250.094 178.573C250.502 178.737 250.927 178.859 251.358 178.937C251.415 178.848 251.48 178.747 251.537 178.658C251.306 178.429 251.052 178.215 250.777 178.02C248.374 176.444 245.929 174.933 243.562 173.33C241.565 171.959 239.674 170.422 237.706 169.095C233.009 165.952 228.298 162.83 223.514 159.761C222.834 159.342 222.182 158.892 221.56 158.412C220.022 157.197 218.556 155.918 217.17 154.584C215.597 153.107 214.352 151.425 213.503 149.633C213.161 148.85 212.75 148.084 212.273 147.339C212.011 146.911 211.598 146.627 211.088 147.001C211.031 147.09 211.039 147.228 211.082 147.309C212.819 150.684 215.122 153.89 217.917 156.824C218.257 157.254 218.544 157.707 218.775 158.175C217.463 158.304 217.015 158.283 216.529 157.696C215.588 156.715 214.526 155.813 213.363 155.008C211.35 153.334 209.48 151.555 207.302 149.989C202.994 146.896 198.838 143.63 194.617 140.433C194.465 140.326 194.321 140.208 194.19 140.083C191.745 137.66 189.058 135.402 186.164 133.342C185.382 132.737 184.665 132.091 183.912 131.472L177.35 126.155C176.8 125.697 176.206 125.247 175.648 124.772L165.137 115.688ZM156.127 111.102L161.162 114.226L161.327 113.97C159.663 112.916 159.104 110.654 156.09 111.01L156.127 111.102ZM116.797 85.697C114.977 84.9766 113.134 84.3483 111.262 83.676C110.246 85.2549 112.185 86.5072 112.113 87.8723C113.16 88.9292 114.37 89.8727 115.704 90.6749C116.946 91.2399 118.157 91.8566 119.334 92.522C120.62 93.1932 121.938 93.8146 123.282 94.3838C124.952 95.1304 126.636 95.855 128.328 96.5684C129.065 96.944 129.932 97.0601 130.661 97.4464C134.553 99.5157 138.401 101.651 142.306 103.698C144.114 104.618 145.993 105.427 147.829 106.273C147.821 105.959 147.697 105.822 147.546 105.73C145.093 104.32 142.598 102.947 140.189 101.499C136.477 99.3 132.845 97.0086 129.077 94.8986C125.64 92.9353 122.09 91.1286 118.446 89.4874C117.567 89.0144 116.721 88.4951 115.914 87.9329C116.589 87.2434 117.125 87.7228 117.675 87.973C119.699 89.0038 121.81 89.9008 123.835 90.9316C126.916 92.4995 130.011 94.0747 133.019 95.754C137.265 98.1068 140.93 101.035 145.497 102.858C144.426 102.106 143.318 101.409 142.211 100.713C137.863 97.9834 133.5 95.2755 129.188 92.5199C125.364 89.8427 121.209 87.5297 116.819 85.6336L116.797 85.697ZM149.959 103.771C151.348 105.927 153.503 107.734 156.094 108.916C154.279 107.014 152.227 105.267 149.981 103.708L149.959 103.771ZM142.156 89.4687C142.54 91.0867 143.219 92.6772 144.17 94.1836C144.782 95.3508 145.199 96.5813 145.897 97.7042C146.169 98.2518 146.57 98.7611 147.076 99.1991C147.581 99.6364 148.179 99.9926 148.831 100.245L142.156 89.4687ZM142.781 94.7603C143.144 95.2994 143.609 95.8011 144.022 96.3214L144.245 96.2136C143.371 94.5887 142.469 93.0074 141.632 91.3271C140.686 88.7175 139.558 86.1373 138.254 83.6011C137.936 83.0637 137.716 82.4987 137.603 81.9267C137.538 81.7013 137.768 81.4644 137.875 81.2382L138.228 81.2559L141.357 88.3237C141.446 88.2526 141.509 88.1617 141.542 88.0598C141.574 87.9578 141.574 87.8476 141.542 87.7387C140.369 84.5265 139.478 81.2757 138.875 78.0139C138.458 76.3634 137.917 74.7226 137.257 73.1022C137.183 72.9149 137.063 72.7375 136.904 72.5825C136.744 72.4281 136.552 72.2994 136.337 72.2056C135.651 72.0188 135.458 72.4962 135.28 72.9519C134.362 75.0581 134.42 77.4598 135.443 79.735C135.998 80.9914 136.394 82.2852 136.84 83.5301C137.457 85.3155 138.183 87.084 139.015 88.8291C140.143 90.8646 141.509 92.7992 142.781 94.7603ZM120.285 77.5983C120.763 78.3827 121.296 79.1476 121.883 79.8879C122.509 80.5337 123.187 81.1452 123.912 81.7171C121.484 80.9539 120.322 79.2408 119.03 77.6683C117.547 78.1234 117.375 78.597 118.334 79.7041C120.846 82.4683 123.727 85.0056 126.911 87.2579C130.64 89.9969 134.396 92.6917 138.125 95.4301C139.427 96.3888 140.681 97.4249 142.049 98.4607C141.713 97.826 141.251 97.2314 140.685 96.7036C139.278 95.398 137.851 94.0959 136.403 92.8268C134.084 90.791 131.751 88.7479 129.397 86.7376C127.97 85.5243 126.45 84.3668 125.001 83.1571C124.776 82.9691 124.731 82.6507 124.542 82.2888C126.515 82.8648 132.64 87.6061 136.011 91.0785L138.692 93.4166C138.088 92.3863 137.498 91.3334 136.011 91.0785C135.966 90.76 136.03 90.394 135.819 90.1833C134.138 88.4124 132.477 86.6373 130.65 84.9699C128.231 82.7644 125.739 80.6698 123.247 78.5746C122.892 78.1971 122.419 77.9019 121.892 77.7276C121.364 77.5538 120.804 77.5084 120.285 77.5983ZM99.669 62.8843C99.624 62.9395 99.5855 62.9992 99.5545 63.0623L108.317 68.5106C108.353 68.455 108.396 68.3886 108.431 68.3331L99.669 62.8843ZM96.1881 59.1349C91.1835 56.499 85.9714 54.1264 81.3895 50.8941C77.7991 48.3582 73.965 46.082 70.2025 43.7241C67.2073 41.9045 64.126 40.1885 61.0662 38.4392C60.4853 38.0722 59.8321 37.8014 59.1491 37.6444C58.466 37.4874 57.7684 37.4478 57.1016 37.5282C55.732 37.7166 55.3665 38.1947 56.2946 39.1689C57.4452 40.5156 58.7821 41.7565 60.2728 42.8614C63.8263 45.2457 67.5521 47.4816 71.2274 49.7064C72.4346 50.3872 73.6917 50.9973 74.987 51.5315C79.1297 53.4187 83.3294 55.2464 87.4435 57.1781C90.1908 58.4583 92.8237 59.9165 95.5713 61.2267C94.6527 60.4383 93.6402 59.7299 92.5531 59.1146C90.7737 58.0908 88.958 57.0929 87.1714 56.0802C86.5496 55.7637 86.0064 55.3249 85.3915 55.0267C82.1525 53.4666 78.8487 51.9769 75.6598 50.3389C72.7669 48.8666 69.9817 47.2276 67.1169 45.5333C64.2409 44.0621 61.7034 42.1366 59.6739 39.8853C60.8685 39.3127 61.4495 40.1102 62.036 40.5711C63.4306 41.7562 64.9007 42.879 66.4382 43.9334C69.9546 46.1069 73.5282 48.1914 77.181 50.213C79.3002 51.395 81.5625 52.3547 83.804 53.4365C84.9753 54.0327 86.2472 54.503 87.3971 55.1326C91.7227 57.5408 95.8909 60.1937 100.46 62.2832C101.934 63.0691 103.338 63.9513 104.656 64.921L109.223 67.8504C109.396 67.9386 109.67 67.9305 110.262 68.0251C109.002 67 108.089 66.1513 107.054 65.4326C103.595 63.1299 99.9626 61.0248 96.1881 59.1349ZM116.276 64.7399L116.15 61.0598C116.129 59.78 116.043 58.4819 116.153 57.2093C116.225 53.6482 117.312 50.2548 119.328 47.2992C119.775 46.608 120.05 45.837 120.139 45.0259C120.441 43.394 121.807 42.4363 122.947 41.0241C123.102 41.3674 123.151 41.7269 123.089 42.0681C123.028 42.409 122.857 42.7199 122.596 42.9707C121.696 44.0519 121.089 45.2982 120.811 46.6371C120.629 47.3211 120.344 47.9741 119.962 48.5813C118.897 50.222 118.192 52.0323 117.875 53.9388C117.785 54.7935 117.457 55.6006 117.281 56.4408C117.182 56.9218 117.178 57.436 117.115 58.0094C117.346 57.8905 117.483 57.8569 117.526 57.7902C119.177 54.69 120.863 51.5934 122.428 48.4787C123.078 47.017 123.937 45.6422 124.99 44.3812C125.483 43.7163 125.903 43.0125 126.249 42.2771C127.384 39.9227 127.755 37.2978 127.33 34.6361C127.224 34.0936 127.05 33.5546 126.81 33.0284C125.82 32.9781 124.861 33.1328 124.022 33.4787C123.182 33.8244 122.488 34.3503 122.001 35.0084C121.392 35.8421 120.889 36.7327 120.5 37.668C118.426 42.2513 116.677 46.9579 115.26 51.7666C113.929 55.8987 114.285 60.4411 116.276 64.7399ZM111.603 62.0959L112.158 62.0094C111.954 61.5513 111.743 61.1042 111.56 60.6423C110.888 58.9721 110.217 57.302 109.573 55.6168C109.237 54.7668 109.031 53.8648 108.681 53.0373C108.191 51.8288 107.507 50.6543 107.155 49.4419C106.627 47.6088 105.449 45.7991 105.786 43.9044C104.755 42.5237 105.116 41.0394 104.719 39.5978C104.447 38.5297 104.074 37.469 103.701 36.4083C103.327 35.3476 102.854 34.2651 102.545 33.1931C102.344 32.7374 102.263 32.2626 102.309 31.8035C102.356 31.3446 102.528 30.9129 102.814 30.5404C103.061 31.0797 103.236 31.4048 103.339 31.7227C103.563 32.5984 103.842 33.4693 104.174 34.3321C105.668 37.5869 105.995 40.9263 106.935 44.2087C107.605 46.5668 108.29 48.9225 108.989 51.2757C109.102 51.506 109.251 51.7259 109.432 51.9293C108.978 47.5066 108.393 43.1358 107.514 38.7772C106.841 35.409 105.85 32.027 104.889 28.7188C104.479 27.2856 103.519 25.9459 102.158 24.9085C100.096 26.5893 98.5251 28.3428 99.4694 31.0519C100.201 33.1362 100.925 35.2612 101.895 37.3043C103.109 39.8529 104 42.4688 104.552 45.106C104.781 46.5413 105.142 47.9738 105.633 49.3904C106.984 52.7197 108.479 56.0338 109.981 59.3369C110.469 60.3086 111.072 61.1909 111.603 62.0959ZM92.6112 46.0239C92.8549 46.2204 93.1243 46.3924 93.4138 46.5359C92.9304 45.6466 92.3442 44.7893 91.663 43.977C89.5146 41.2314 87.0477 38.6451 84.3035 36.2611C82.0344 34.182 80.0027 31.9412 78.2405 29.574C77.6013 28.6878 76.8759 27.8464 76.1506 27.0344C74.6054 25.2591 72.9523 23.5322 71.4935 21.7123C69.8241 19.6229 68.2554 17.4667 66.7661 15.3066C66.3302 14.6714 65.5408 14.0483 65.7523 13.0639C66.1181 13.2884 66.4559 13.5446 66.7588 13.827C67.9632 15.2666 69.1174 16.7248 70.293 18.1791C71.6502 19.8587 72.9857 21.5421 74.3861 23.2142C75.5977 24.6426 76.9389 25.9893 78.1362 27.44C79.3335 28.8906 80.2117 29.9722 81.2352 31.2458C82.786 33.1365 84.5367 34.9221 86.4623 36.5776C88.0993 38.0012 89.6789 39.4546 91.3308 40.9448C90.9484 39.8989 90.468 38.8697 89.8948 37.8672C88.812 36.2092 87.5488 34.6217 86.3218 33.0084C83.766 29.6414 81.1819 26.2894 78.6189 22.9334C77.6751 21.6856 76.7528 20.434 75.773 19.2121C73.2689 16.0632 70.7288 12.9108 68.2175 9.77305L64.3782 4.99999C63.44 5.30896 62.6597 5.84209 62.1262 6.53858C61.5928 7.23507 61.3276 8.06704 61.3608 8.93956C61.9337 11.378 63.0676 13.7599 64.6991 15.9517C65.9856 17.9496 67.6899 19.8058 69.1493 21.7441C71.0365 24.2414 73.1752 26.6194 75.5392 28.8484C75.8675 29.1925 76.1682 29.5527 76.4389 29.9262C77.9917 31.7792 79.5087 33.6582 81.0969 35.485C81.8072 36.2044 82.5618 36.894 83.3577 37.5507L92.6112 46.0239ZM101.327 56.8508C100.773 56.2508 100.298 55.6076 99.9112 54.9346C99.5751 54.0551 98.5799 54.0208 97.9564 53.4969C97.8413 53.4382 97.8477 53.2791 97.7602 53.2052C96.9889 52.5408 96.1793 51.907 95.3351 51.3066C93.9887 50.4147 92.4841 49.5603 91.0592 48.7022C89.6771 47.8659 88.3534 47.1184 87.0582 46.2673C84.0621 44.27 81.0875 42.2394 78.1127 40.2383C77.2297 39.6413 76.311 39.0999 75.4277 38.4437C72.9658 36.5412 70.6188 34.5202 68.0491 32.6957C65.9435 31.2014 63.9183 29.6288 61.9812 27.9838C60.0938 26.4358 58.4249 24.7184 57.015 22.8733C58.0744 22.6894 58.4955 23.2283 59.0317 23.7374C61.1029 25.808 63.2968 27.7967 65.6034 29.6946C67.877 31.4422 70.2943 33.0858 72.5538 34.8852C75.8415 37.5031 79.3805 39.9096 82.8905 42.3013C85.7855 44.247 88.81 46.0521 91.7834 47.905C92.0691 48.0326 92.371 48.1266 92.6791 48.1838C92.7363 48.0949 92.8007 47.9948 92.8586 47.9061C91.7985 47.1817 90.7783 46.4162 89.8032 45.613C87.3408 43.5204 84.6532 41.6183 81.783 39.9369C78.9716 38.2652 76.3078 36.4157 73.8209 34.4085C71.4885 32.4244 69.3504 30.3473 67.0971 28.3297C64.1704 25.7774 61.1503 23.3104 58.2379 20.7359C57.5561 20.1066 56.717 19.6073 55.7945 19.2819C54.872 18.9565 53.8947 18.8151 52.9486 18.8702C52.9835 19.3909 53.1125 19.9143 53.3314 20.4228C54.099 21.5675 54.9378 22.6842 55.8436 23.7677C58.3434 26.7363 61.3283 29.4299 64.6976 31.7572C69.5985 35.3291 74.6142 38.7528 79.6799 42.1281C83.0817 44.3909 86.6551 46.4754 90.178 48.6081C90.3661 48.7038 90.7053 48.6254 90.9793 48.6468C91.4893 49.2442 92.0573 49.8097 92.6752 50.3366C95.3609 52.2791 98.3409 53.9435 100.503 56.372C100.655 56.553 100.915 56.6263 101.284 56.8287L101.327 56.8508ZM103.257 57.6708L102.797 57.7904L103.466 59.0167L103.891 58.8935L103.257 57.6708ZM78.891 2.02643C78.261 3.00456 78.8644 3.94625 79.2292 4.78132C80.1621 6.73199 81.2541 8.76362 82.2159 10.729C83.9581 14.4347 85.4986 18.1852 87.3345 21.8647C89.1704 25.5442 90.4782 28.9106 91.8225 32.4581C92.1417 33.4776 92.5371 34.4873 93.0065 35.481C94.2187 37.5781 95.0497 39.7785 95.469 42.0033C95.6374 43.6012 96.1275 45.1977 96.9204 46.7268C98.8336 49.9586 100.379 53.2838 102.098 56.5788C102.259 56.5311 102.425 56.4925 102.595 56.4629C101.939 55.0073 101.188 53.5775 100.655 52.1106C99.521 48.9507 99.2456 45.7112 97.9175 42.5558C97.1439 40.7748 96.5945 39.0044 95.8206 37.2529C94.683 34.6371 93.4075 32.0547 92.2121 29.439C91.016 26.8231 89.9429 24.3141 88.7693 21.7833L83.7953 10.6622C83.3796 9.75698 83.0219 8.88123 82.5917 7.93909C82.4092 7.50678 82.4071 7.09248 83.4381 6.98266C87.2562 14.8294 90.8584 22.7139 94.2445 30.6359C93.9477 28.375 93.2591 26.1205 92.1989 23.9422C90.3746 19.6783 88.5509 15.5031 86.7047 11.2429C85.7366 8.91548 84.3693 6.6775 82.6474 4.60251C81.715 3.46468 80.3977 2.56125 78.891 2.02643ZM243.692 167.434C243.683 167.267 243.726 167.082 243.646 166.968C239.266 161.285 234.872 155.604 230.463 149.927C230.323 149.745 230.149 149.582 229.948 149.444C229.948 149.444 229.71 149.426 229.32 149.404C229.498 149.895 229.727 150.377 230.005 150.845C231.347 152.738 232.761 154.639 234.246 156.546C236.961 160.083 239.727 163.601 242.464 167.134C242.841 167.591 243.181 167.72 243.692 167.434ZM226.424 176.355C226.186 176.337 225.979 176.748 225.505 177.215C230.71 178.079 235.266 177.534 239.92 177.822C240.36 177.855 240.792 177.632 241.49 177.471C240.97 177.205 240.897 177.05 240.789 177.04C235.964 176.778 231.159 176.546 226.373 176.344L226.424 176.355ZM191.635 147.269C189.953 146.984 188.264 146.77 186.576 146.627C184.895 146.424 183.214 146.297 181.539 146.248C176.987 146.189 172.388 145.368 167.859 145.631C166.518 145.716 165.133 145.601 163.791 145.686C161.196 145.84 158.658 146.025 156.105 146.201C155.067 146.292 154.043 146.421 152.997 146.523L153.021 146.845C153.313 147.018 153.637 147.143 153.975 147.212C155.943 147.354 157.897 147.319 159.802 147.109C163.897 146.572 168.113 146.44 172.366 146.715C177.452 146.779 182.576 147.292 187.685 147.649C188.861 147.75 190.038 147.915 191.207 148.143C194.131 148.672 197.055 149.231 199.972 149.771L200.179 149.448C199.703 149.139 199.188 148.876 198.647 148.668C196.3 148.226 193.953 147.696 191.585 147.258L191.635 147.269ZM156.626 89.5135C154.422 86.7353 152.693 83.7514 151.497 80.6602C151.152 79.7833 150.716 78.9242 150.193 78.0928L149.689 78.0718C149.589 78.4049 149.23 78.7831 149.412 79.0674C150.818 81.8343 152.246 84.5977 153.715 87.294C154.37 88.4539 155.335 89.5202 156.091 90.6431C157.181 92.2606 158.199 93.9002 159.224 95.5288C159.348 95.7973 159.538 96.0473 159.78 96.2625C160.023 96.4773 160.312 96.6526 160.63 96.7755L160.224 94.931C159.741 94.3704 159.293 93.7927 158.881 93.1993C158.153 92.0026 157.483 90.7169 156.626 89.5135ZM238.048 185.917C238.048 185.917 238.049 186.094 238.058 186.349C240.471 186.881 242.925 187.098 245.325 186.993C243.156 186.007 240.834 186.272 238.638 185.686C238.458 185.638 238.214 185.809 238.048 185.917Z" fill="#101A24"/>
</svg>
