<svg width="94" height="144" viewBox="0 0 94 144" fill="none" xmlns="http://www.w3.org/2000/svg">
<path d="M93.4537 70.6689C93.0371 69.0835 92.0883 68.748 90.8269 69.7431C90.64 69.8686 90.4724 70.0206 90.3293 70.1944C88.5589 72.6824 86.0825 74.5339 84.3583 77.1375C82.6341 79.7412 80.8868 81.9166 79.2783 84.393C78.6766 85.284 78.1211 86.2214 77.5078 87.0892C76.1076 89.0217 74.719 90.9542 73.2494 92.8751C72.0922 94.391 70.7036 95.7796 69.477 97.2608C68.2504 98.742 67.1626 100.281 66.0055 101.693C64.1308 103.81 62.1636 105.859 60.2196 107.93C59.6641 108.52 59.155 109.157 58.5532 109.689C55.4983 112.339 52.4086 114.954 49.2958 117.592C48.3932 118.356 47.5253 119.155 46.6343 119.907C46.6778 119.394 46.8576 118.903 47.155 118.483C48.0461 117.13 48.9718 115.787 49.8628 114.445C51.2052 112.431 52.5706 110.441 53.8667 108.404C55.1627 106.368 56.3546 104.539 57.4192 102.503C58.9351 99.633 60.2543 96.7169 61.7008 93.7662C62.9043 91.6533 63.9002 89.4289 64.6747 87.1239C65.028 86.0549 65.4532 85.0111 65.9476 83.9996C67.0237 81.8777 67.9554 79.6856 68.7364 77.4384C69.4307 74.8347 70.368 72.2889 71.1665 69.7084C72.0459 66.8733 72.9832 64.0498 73.7123 61.18C74.6496 57.5118 75.3786 53.7972 76.2349 50.1174C76.4892 48.6938 76.4892 47.2363 76.2349 45.8127C76.2383 45.4734 76.1436 45.1404 75.962 44.8537C75.7804 44.5671 75.5198 44.3391 75.2116 44.1972C74.9034 44.0553 74.5607 44.0056 74.2248 44.0541C73.889 44.1025 73.5744 44.2471 73.3188 44.4704C72.3269 45.1599 71.4518 46.0037 70.7267 46.9699C69.9446 48.2428 69.2375 49.5604 68.6091 50.9158C67.3309 53.24 66.2881 55.6861 65.4963 58.2176C64.9987 59.8955 64.4896 61.585 63.911 63.2398C63.3324 64.8946 62.7538 66.179 62.2446 67.6602C61.7355 69.1414 61.3073 70.854 60.775 72.4278C59.7143 75.0523 58.8781 77.7621 58.2755 80.528C58.168 80.9922 58.0289 81.4484 57.8589 81.8935C57.3903 83.3401 57.004 84.8121 56.7018 86.3024C56.2198 89.0169 55.4438 91.6709 54.3874 94.2174C53.4501 96.6012 52.3739 98.9272 51.3672 101.276C50.3604 103.625 49.5735 105.697 48.5899 107.872C47.7683 109.712 46.7732 111.483 45.94 113.334C45.2576 114.949 44.4287 116.499 43.4636 117.963C42.7925 118.969 42.3065 120.069 41.6584 121.122C41.3018 121.931 40.8173 122.677 40.2235 123.332C40.0354 123.181 39.9034 122.971 39.8488 122.736C39.7943 122.501 39.8203 122.254 39.9227 122.036C40.1078 121.284 40.3161 120.543 40.4665 119.803C40.8021 118.067 41.0104 116.331 41.4501 114.618C42.1792 111.83 43.0471 109.087 43.8455 106.31C45.2802 101.987 46.1931 97.5076 46.5649 92.9677C46.6537 90.4905 47.3533 88.0737 48.6015 85.9321C49.7587 83.8607 51.0084 81.8241 52.1888 79.7527C52.3855 79.4287 52.6516 78.908 52.5243 78.6765C52.2119 78.098 52.5243 77.7277 52.7442 77.2995C53.6584 75.4133 54.6535 73.5618 55.4983 71.6409C56.343 69.72 57.0142 67.7991 57.8126 65.855C58.3449 64.5243 58.9698 63.2167 59.4443 61.8743C60.3353 59.4211 61.2032 56.9679 62.0132 54.4915C62.9505 51.6796 63.8763 48.8561 64.6979 46.0094C65.4616 43.4173 66.0633 40.779 66.7808 38.1753C67.3246 36.2313 67.938 34.3103 68.5165 32.3894C69.0951 30.4685 69.5811 28.5707 70.044 26.6035C70.7602 24.2373 71.3131 21.8247 71.6988 19.3827C72.0112 16.3857 72.7171 13.4349 73.1337 10.4378C73.4577 8.1234 73.6544 5.69333 73.7817 3.30954C73.8211 2.64384 73.6329 1.98454 73.2481 1.43991C72.8633 0.895279 72.3047 0.497695 71.6641 0.312452C71.0593 0.00141079 70.3668 -0.0947124 69.7001 0.0398705C69.0335 0.174453 68.4325 0.53174 67.9958 1.05305C67.8454 1.22662 67.6949 1.38863 67.5561 1.5622C66.2251 3.16131 65.187 4.98291 64.4896 6.94308C63.749 9.25744 63.2051 11.5718 62.6381 13.9903C62.0711 16.4088 61.6776 18.619 61.1685 20.8639C60.7056 22.9237 60.1964 24.9719 59.7336 27.0317C59.5021 28.0732 59.3517 29.1262 59.1318 30.1792C58.6342 32.563 58.1019 34.9352 57.6391 37.319C57.2456 39.3556 56.9563 41.4038 56.5745 43.452C56.0074 46.5417 55.2668 49.6198 54.8387 52.7095C54.4784 56.2888 53.8675 59.8385 53.0104 63.3324C52.3276 65.7509 51.9573 68.2735 51.3672 70.5879C50.9871 72.1557 50.5197 73.701 49.967 75.2166C49.2611 77.1144 48.4048 78.9427 47.6526 80.8405C47.2949 81.669 47.2217 82.5927 47.4443 83.4673C47.7953 82.9566 48.0901 82.4095 48.3238 81.8356C48.8561 80.6785 48.9139 79.4287 50.1521 78.6418C50.7957 78.1364 51.288 77.4639 51.5755 76.6978C52.6056 74.2613 53.464 71.7556 54.1444 69.1993C54.804 66.9659 55.3941 64.6978 56.019 62.4529C56.109 62.1038 56.229 61.7631 56.3777 61.4346C57.1068 59.803 57.153 57.9631 58.0441 56.3777C58.2755 55.9843 58.0441 55.3594 58.2292 54.9197C58.8151 53.2685 59.2527 51.5685 59.5368 49.8397C60.3006 45.8937 61.1685 41.9593 61.9669 38.0133C62.3256 36.2544 62.6381 34.4723 62.9274 32.6903C62.9639 31.5057 63.1865 30.3342 63.587 29.2188C63.8562 28.6175 64.073 27.9942 64.235 27.3557C64.2816 27.1861 64.3049 27.0109 64.3044 26.835C64.3895 25.452 64.5634 24.076 64.8251 22.7154C65.3209 21.0412 65.7075 19.3366 65.9823 17.6123C66.1869 16.4344 66.4809 15.2739 66.8618 14.1407C66.9363 14.8255 66.9324 15.5166 66.8502 16.2005C66.3642 19.186 65.8666 22.1484 65.3459 25.1223C65.0219 27.0317 64.7326 28.941 64.3391 30.8388C64.0151 32.32 63.4828 33.7665 63.1819 35.2592C62.4066 39.3325 61.5619 43.3595 61.0527 47.5022C60.6072 50.1024 60.0005 52.6725 59.236 55.1974C58.7037 57.3729 58.0209 59.5137 57.4655 61.6776C56.7552 64.8399 55.7798 67.9366 54.5494 70.935C53.7625 72.6939 52.9872 74.4066 52.235 76.2118C51.0779 78.7691 49.8628 81.3381 48.5899 83.8491C48.2428 84.5203 48.0923 85.527 46.8426 85.689C46.9583 84.2542 46.9815 82.9118 47.1782 81.5811C47.5253 79.3709 48.0576 77.1838 48.3354 74.962C48.6131 72.7402 48.8214 70.3333 48.9602 68.0189C49.0644 66.26 48.9602 64.5474 49.0528 62.7422C49.1917 58.7731 49.3884 54.804 49.5272 50.8464C49.5967 48.8214 49.6661 46.7847 49.5272 44.7597C49.3884 40.8484 49.0528 36.9371 48.9718 33.0259C48.9139 30.4107 49.1685 27.807 49.2842 25.1918C49.3884 22.808 49.481 20.4126 49.5851 18.0288C49.5851 17.9016 49.5851 17.7627 49.5851 17.6238C49.5851 16.7791 49.5851 15.9344 49.5851 15.0896C49.6139 14.7315 49.6139 14.3716 49.5851 14.0134C49.3074 11.8727 49.0412 9.73188 48.6594 7.61424C48.4878 6.91576 48.1855 6.25611 47.7683 5.67019C47.3855 5.17577 46.8451 4.82705 46.2369 4.68183C45.6286 4.53661 44.989 4.60361 44.4241 4.87173C43.6904 5.22121 42.996 5.64792 42.3527 6.14463C41.7433 6.60404 41.2482 7.19808 40.9063 7.8804C40.1193 9.89685 39.6886 12.0347 39.6334 14.1986C39.6334 15.3558 39.6334 16.5129 39.6334 17.6701C39.6334 19.5448 39.4829 21.431 39.4945 23.3056C39.4945 26.8581 39.6334 30.4107 39.726 33.9632C39.726 35.942 39.7259 37.9323 39.9342 39.8995C40.1888 42.4106 40.5938 44.8985 41.0104 47.3865C41.8089 52.2582 42.6652 57.1299 43.4521 62.0016C43.8159 63.3841 43.8752 64.8292 43.6256 66.2369C43.5003 65.7219 43.4037 65.2004 43.3363 64.6747C43.0702 63.1704 42.8966 61.6429 42.5148 60.1733C41.9709 58.0788 41.2534 56.0306 40.6401 53.9592C40.0268 51.8879 39.5639 49.967 38.9275 47.9998C37.886 44.8291 36.7289 41.7047 35.6874 38.5456C34.8311 35.942 34.0326 33.3036 33.2805 30.6652C32.4164 27.6489 31.5948 24.617 30.8157 21.5698C30.4351 19.489 29.674 17.4962 28.5708 15.6913C28.4187 15.4688 28.3161 15.2163 28.2699 14.9508C28.1243 14.2864 27.8437 13.6591 27.4456 13.1077C27.0475 12.5563 26.5403 12.0926 25.9555 11.7454C25.4364 11.2182 24.7338 10.9118 23.9942 10.8902C23.2547 10.8687 22.5353 11.1336 21.9864 11.6297C20.8476 12.4292 20.0278 13.6055 19.6721 14.9508C19.0807 16.6608 18.9451 18.4954 19.2786 20.2738C19.7531 22.5881 20.2159 24.9025 20.6904 27.2747C20.7544 27.4468 20.8399 27.6101 20.945 27.7607C21.8476 29.5775 22.7617 31.3827 23.6412 33.211C25.0066 36.0461 26.3374 38.9043 27.6797 41.751C29.2419 45.13 30.8967 48.3816 32.401 51.749C33.5582 54.4684 34.5418 57.2803 35.5948 60.0576C36.266 61.8628 36.8214 63.7142 37.6315 65.45C38.5312 67.2537 39.2633 69.1362 39.8185 71.0739C40.3855 73.2841 41.1377 75.4712 41.5427 77.7045C42.0287 80.447 42.2486 83.2358 42.5495 86.0131C42.6776 86.7792 42.6776 87.5613 42.5495 88.3274C41.9581 90.9918 41.5942 93.7016 41.4617 96.4277C41.4617 97.1451 41.2766 97.851 41.184 98.5684C41.0451 99.6446 40.8716 100.709 40.8021 101.785C40.6473 104.616 40.2053 107.423 39.4829 110.163C39.1126 111.564 38.6498 112.929 38.3258 114.329C38.2115 115.398 38.0415 116.46 37.8166 117.511C37.3446 118.792 37.079 120.14 37.0297 121.504C37.0297 121.504 36.9256 121.504 36.833 121.596C36.914 120.578 37.0066 119.594 37.0529 118.611C37.2033 115.672 37.3537 112.744 37.4695 109.816C37.5852 107.07 37.6662 104.323 37.7125 101.577C37.7489 100.418 37.7063 99.2585 37.5852 98.1056C37.3734 95.1499 36.987 92.2094 36.428 89.2994C35.9767 87.3322 35.6643 85.3188 35.1435 83.3747C34.2525 80.0189 33.2458 76.6978 32.2853 73.3535C31.7183 71.3748 31.1281 69.3844 30.5727 67.4056C29.5775 64.0382 28.6055 60.6709 27.564 57.3266C27.2471 56.2517 26.8286 55.2094 26.3143 54.2138C26.1875 53.9257 26.0004 53.6682 25.7656 53.4587C25.5308 53.2491 25.2537 53.0924 24.9532 52.9992C24.6526 52.9059 24.3355 52.8783 24.0233 52.9182C23.7111 52.958 23.4111 53.0644 23.1436 53.2302C22.5622 53.5788 22.0722 54.0607 21.714 54.6362C21.3558 55.2117 21.1398 55.8642 21.0838 56.5397C20.5517 59.4841 20.4659 62.4917 20.8292 65.4616C21.026 68.0537 21.512 70.6342 21.917 73.2031C22.4145 76.1283 23.1895 78.9995 24.2313 81.7778C25.0877 84.0921 25.9324 86.5106 26.6498 88.906C27.483 91.6601 28.2583 94.4373 28.9642 97.2261C29.9478 101.323 30.8273 105.454 31.7414 109.562L31.5447 109.666C31.4417 109.518 31.3562 109.359 31.2901 109.191C31.2031 108.937 31.1297 108.678 31.0703 108.416C29.6246 102.696 27.2602 97.2479 24.0693 92.285C22.1561 89.5077 20.2275 86.7382 18.2834 83.9764C17.566 82.9465 16.7675 81.9745 15.9691 80.9793C14.349 78.8848 12.7406 76.7672 11.0858 74.7074C9.67404 72.9485 8.22757 71.2359 6.76952 69.5233C5.54291 68.0884 4.30473 66.6535 3.00869 65.288C2.58217 64.8882 2.07237 64.5878 1.51593 64.4085C0.879485 64.1771 0.555475 64.4085 0.289324 65.0797C0.0545337 65.6181 -0.0666504 66.1992 -0.0666504 66.7865C-0.0666504 67.3739 0.0545337 67.955 0.289324 68.4934C1.58536 71.5599 2.83512 74.6496 4.3163 77.6235C5.54605 80.0177 6.91782 82.3362 8.42429 84.5666C9.78976 86.6264 11.3982 88.5241 12.8563 90.5145C14.4532 92.7015 16.0385 94.8886 17.5544 97.122C18.7116 98.8693 19.8688 100.593 20.9218 102.491C22.079 104.609 23.1204 106.831 24.3933 108.937C25.9239 111.685 27.2393 114.548 28.3277 117.5C29.8104 121.454 30.9222 125.537 31.6488 129.697C32.0731 131.372 31.9181 133.142 31.2091 134.719C30.8157 135.529 30.5148 136.385 30.2024 137.218C29.7629 138.264 29.7115 139.432 30.0574 140.512C30.4032 141.592 31.1236 142.513 32.0886 143.108C32.321 143.301 32.598 143.432 32.8942 143.49C33.1904 143.548 33.4964 143.53 33.7841 143.439C34.0719 143.348 34.3323 143.187 34.5415 142.969C34.7506 142.752 34.9019 142.485 34.9815 142.194C35.4095 141.406 35.568 140.5 35.4328 139.614C35.3982 139.258 35.4539 138.9 35.5948 138.572C35.8957 137.484 36.2081 136.408 36.509 135.32C37.1121 132.54 38.5113 129.995 40.536 127.995C41.0104 127.567 41.4733 127.151 41.9709 126.757C43.2669 125.727 44.5514 124.663 45.9169 123.725C47.5138 122.649 49.2032 121.724 50.8233 120.682C53.2071 119.143 55.5561 117.558 57.9284 115.996C61.6681 113.789 65.1397 111.156 68.2735 108.15C70.2176 106.102 72.2542 104.123 74.1983 102.075C75.9341 100.246 77.6698 98.3833 79.313 96.5087C80.9562 94.634 82.5647 93.0371 83.9417 91.1046C85.3188 89.1722 86.6495 87.0892 87.9224 85.0295C89.9336 81.6205 91.6784 78.0612 93.1413 74.3834C93.6524 73.2136 93.7622 71.9076 93.4537 70.6689Z" fill="white"/>
</svg>
