<svg width="34" height="24" viewBox="0 0 34 24" fill="none" xmlns="http://www.w3.org/2000/svg">
<path d="M30.6739 0C31.5978 0 32.3832 0.302158 33.0299 0.906475C33.6766 1.51079 34 2.2446 34 3.10791V20.8921C34 21.295 33.923 21.6835 33.769 22.0576C33.615 22.4317 33.3841 22.7626 33.0761 23.0504C32.7681 23.3381 32.4139 23.5683 32.0136 23.741C31.6132 23.9137 31.1667 24 30.6739 24H3.32609C2.40217 24 1.61685 23.6978 0.970109 23.0935C0.32337 22.4892 0 21.7554 0 20.8921V3.10791C0 2.30216 0.32337 1.59712 0.970109 0.992805C1.61685 0.388489 2.40217 0.0575542 3.32609 0H30.6739ZM4.80435 6.73381V9.06475C4.80435 9.7554 5.06612 10.3597 5.58967 10.8777C6.11322 11.3957 6.77536 11.6547 7.57609 11.6547H9.97826C10.779 11.6547 11.4411 11.3957 11.9647 10.8777C12.4882 10.3597 12.75 9.7554 12.75 9.06475V6.73381C12.75 6.04317 12.4882 5.45324 11.9647 4.96403C11.4411 4.47482 10.779 4.23022 9.97826 4.23022H7.57609C6.77536 4.23022 6.11322 4.47482 5.58967 4.96403C5.06612 5.45324 4.80435 6.04317 4.80435 6.73381ZM12.9348 19.8561C13.6123 19.7986 13.9511 19.4532 13.9511 18.8201C13.9511 18.1871 13.6123 17.8417 12.9348 17.7842H5.91304C5.91304 17.7842 5.88225 17.7842 5.82065 17.7842C5.51268 17.7842 5.25091 17.8849 5.03533 18.0863C4.81975 18.2878 4.71196 18.5324 4.71196 18.8201C4.71196 18.9928 4.74275 19.1367 4.80435 19.2518C4.86594 19.3669 4.94293 19.4676 5.03533 19.554C5.12772 19.6403 5.25091 19.7122 5.40489 19.7698C5.55888 19.8273 5.69746 19.8561 5.82065 19.8561C5.88225 19.8561 5.91304 19.8561 5.91304 19.8561H12.9348ZM16.3533 16.0576C17.0308 16 17.3696 15.6547 17.3696 15.0216C17.3696 14.3885 17.0308 14.0432 16.3533 13.9856H5.91304C5.91304 13.9856 5.88225 13.9856 5.82065 13.9856C5.51268 13.9856 5.25091 14.0863 5.03533 14.2878C4.81975 14.4892 4.71196 14.7338 4.71196 15.0216C4.71196 15.3094 4.81975 15.554 5.03533 15.7554C5.25091 15.9568 5.51268 16.0576 5.82065 16.0576C5.88225 16.0576 5.91304 16.0576 5.91304 16.0576H16.3533ZM21.0652 14.8058C21.0652 14.8058 21.0652 14.8705 21.0652 15C21.0652 15.1295 21.173 15.295 21.3886 15.4964C21.6042 15.6978 21.8659 15.7986 22.1739 15.7986C22.4819 15.7986 22.7283 15.7122 22.913 15.5396C24.0833 14.446 24.6685 13.1511 24.6685 11.6547C24.6685 10.1583 24.0833 8.86331 22.913 7.76978C22.7283 7.59712 22.4819 7.51079 22.1739 7.51079C21.9891 7.51079 21.8197 7.55396 21.6658 7.64029C21.5118 7.72662 21.3732 7.85612 21.25 8.02878C21.1268 8.20144 21.0652 8.3741 21.0652 8.54676C21.0652 8.77698 21.1576 9.00719 21.3424 9.23741C22.0815 9.92806 22.4511 10.7338 22.4511 11.6547C22.4511 12.5755 22.0815 13.3813 21.3424 14.0719C21.1576 14.3022 21.0652 14.5468 21.0652 14.8058ZM25.8696 18.2158C26.7935 17.5252 27.5788 16.5324 28.2255 15.2374C28.8723 13.9424 29.1957 12.7482 29.1957 11.6547C29.1957 10.5612 28.8723 9.36691 28.2255 8.07194C27.5788 6.77698 26.7627 5.7554 25.7772 5.00719C25.5924 4.89209 25.3768 4.83453 25.1304 4.83453C24.8225 4.83453 24.5607 4.93525 24.3451 5.13669C24.1295 5.33813 24.0217 5.58273 24.0217 5.8705C24.0217 6.15827 24.1449 6.41727 24.3913 6.64748C25.1304 7.16547 25.7464 7.91367 26.2391 8.89209C26.7319 9.8705 26.9783 10.7914 26.9783 11.6547C26.9783 12.518 26.7319 13.4245 26.2391 14.3741C25.7464 15.3237 25.1612 16.0863 24.4837 16.6619C24.1757 16.8345 24.0217 17.0935 24.0217 17.4388C24.0217 17.7266 24.1295 17.9712 24.3451 18.1727C24.5607 18.3741 24.8225 18.4748 25.1304 18.4748C25.4384 18.4748 25.6848 18.3885 25.8696 18.2158Z" fill="white"/>
</svg>
