<svg width="295" height="207" viewBox="0 0 295 207" fill="none" xmlns="http://www.w3.org/2000/svg">
<path d="M77.6444 0.831352C76.7372 1.16654 76.857 2.05398 77.0695 2.73776C77.4638 4.40467 78.0842 6.05247 78.9187 7.64895C81.4793 12.0842 83.6898 16.6216 85.5353 21.2295C86.0976 22.5931 86.8972 23.9152 87.4814 25.275C89.2032 29.2507 90.867 33.256 92.5457 37.2392C93.4436 38.6896 93.7664 40.2865 93.463 41.7793C92.7066 40.5088 92.0948 39.4005 91.4115 38.3149C90.3862 36.6861 89.376 35.0354 88.2141 33.47C86.7104 31.4207 85.0345 29.4608 83.4737 27.4119C80.6788 23.7608 77.9557 20.0872 75.1679 16.4544C73.7304 14.5716 72.1129 12.7596 70.6467 10.8916C69.1804 9.02366 67.6042 6.81935 66.0147 4.81483C65.8369 4.51285 65.5716 4.24495 65.2453 4.03777C64.9188 3.83057 64.5427 3.69141 64.1543 3.63399C63.7658 3.57658 63.3787 3.60307 63.0313 3.7107C62.6839 3.81834 62.3885 4.0034 62.1744 4.24751C61.2369 4.85097 60.5461 5.67337 60.174 6.62879C59.8018 7.58427 59.762 8.63771 60.0588 9.67912C60.5926 11.155 61.278 12.6051 62.1071 14.0128C64.5596 18.4047 68.3294 22.242 71.4513 26.34C74.2452 30.0336 77.4841 33.5133 81.1104 36.717C81.7426 37.3493 82.3312 38.0088 82.8729 38.6915L82.4991 38.9439C79.85 37.0938 77.1006 35.3992 74.5732 33.3601C71.2562 30.6682 68.205 27.7427 65.0102 24.9506C62.8272 23.0327 60.5962 21.1494 58.3174 19.3007C57.6316 18.7352 56.8226 18.2853 55.9467 17.9822C55.0708 17.679 54.1489 17.5301 53.245 17.5454C51.7229 17.5234 51.1921 18.1091 51.5012 19.3882C51.5655 19.7557 51.7091 20.1187 51.9249 20.4599C52.8063 21.7152 53.7141 22.9595 54.6483 24.1926C56.9037 26.9737 59.6155 29.5083 62.692 31.7107C65.9576 34.214 69.3956 36.5986 72.8979 38.8535C77.2686 41.7276 81.7471 44.4646 86.1826 47.2683C90.9225 50.2563 95.7629 53.2661 99.3026 57.2224C100.807 58.8217 102.538 60.2739 104.452 61.5408C105.513 62.3914 106.499 63.3029 107.401 64.2669C106.613 64.0288 105.877 63.6541 105.247 63.17C100.975 60.1402 96.0821 57.9889 91.3668 55.5594C87.7231 53.6806 84.2151 51.6041 80.8697 49.3458C77.7793 47.2563 74.567 45.2965 71.3399 43.2702L62.4331 37.7184C61.593 37.158 60.6364 36.7423 59.6307 36.5007C58.6249 36.2591 57.5946 36.1974 56.6124 36.3201C54.7957 36.5466 54.0708 37.2845 54.7273 38.7699C55.0908 39.7412 55.7828 40.6377 56.7164 41.3467C59.1849 43.1196 61.5672 44.9668 64.1286 46.5953C66.3016 47.955 68.5472 49.226 70.8557 50.403C72.7069 51.3453 74.5585 52.2876 76.4595 53.1224C78.599 54.0934 80.7817 54.9682 82.8857 55.9654C87.0171 57.9402 91.1142 59.937 95.1777 61.9563C96.9955 62.734 98.7021 63.7072 100.248 64.8473C99.176 64.7172 98.1158 64.437 97.1142 64.0191C92.2418 61.8934 87.2411 59.9973 82.4614 57.6681C77.6819 55.3384 72.3556 53.2326 67.2525 51.1075C65.207 50.2582 63.0686 49.583 60.9878 48.9076C60.2024 48.6562 59.3773 48.5654 58.5886 48.6437C57.7999 48.722 57.0728 48.967 56.4745 49.3556C56.1598 49.4957 55.9017 49.7022 55.723 49.9573C55.5443 50.2125 55.4505 50.5082 55.4499 50.8186C55.4493 51.1291 55.5418 51.4445 55.7195 51.7368C55.897 52.0296 56.1544 52.2898 56.4684 52.4957C57.4297 53.2527 58.467 53.9391 59.5659 54.5445C62.6029 56.0907 65.6831 57.5695 68.8346 58.9084C72.9841 60.6658 77.1896 62.3051 81.4392 63.8477C84.1051 64.836 86.8575 65.6318 89.5599 66.5053C91.7555 67.1806 93.9729 67.7331 96.1765 68.3973C100.417 69.7444 104.708 71.0131 108.849 72.5744C111.293 73.3909 113.57 74.5951 115.539 76.1125C115.852 76.3127 116.1 76.5772 116.25 76.8736C116.4 77.1705 116.446 77.4864 116.384 77.7822C116.333 78.2915 116.426 78.8186 116.658 79.3229C116.889 79.8271 117.252 80.2944 117.718 80.69C118.182 81.1623 118.624 81.6384 119.124 82.0846C120.62 83.5553 122.207 84.9643 123.877 86.3045C128.452 89.666 133.071 92.902 137.761 96.234C137.761 96.234 137.747 96.4045 137.726 96.5558C135.5 95.2886 133.34 93.9335 131.258 92.496C127.43 89.5766 123.194 87.0625 118.67 85.0267C116.555 84.1763 114.396 83.4265 112.203 82.7826C111.787 82.6358 111.34 82.6044 110.935 82.6925C110.529 82.7809 110.189 82.984 109.969 83.2693C109.719 83.461 109.446 83.6338 109.156 83.7855L101.466 76.3143C99.7903 74.5678 97.8407 73.0035 95.6803 71.672C94.0601 70.7293 92.6957 70.5812 91.7556 71.475C90.5566 72.621 89.486 73.4485 90.7925 75.2355C92.7033 77.8911 94.9624 80.3884 97.5234 82.6757C100.247 85.0653 102.921 87.5035 105.623 89.9271C106.573 90.7793 107.493 91.646 108.493 92.4499C110.675 94.2296 112.886 95.9848 115.125 97.7153C116.407 98.7072 117.767 99.5763 119.056 100.557C120.411 101.357 121.639 102.305 122.699 103.37C119.242 101.764 115.933 99.9162 112.811 97.8509C111.168 96.6453 109.474 95.4878 107.831 94.2828C107.237 93.8621 106.715 93.3606 106.143 92.907C104.716 91.7528 103.232 90.6582 101.863 89.4445C99.7767 87.6153 97.8409 85.641 95.6968 83.8413C93.8285 82.2705 91.8307 80.8997 89.8176 79.373L78.6822 70.9899C77.4337 70.1759 76.2871 69.2548 75.2642 68.2467C74.594 67.4309 73.7526 66.712 72.7868 66.1295C71.384 65.3266 69.9816 64.7016 68.6356 63.8985C66.0893 62.4256 63.284 62.5472 60.5695 62.0806C60.3841 62.0648 60.2018 62.0831 60.036 62.1337C59.592 62.2281 59.2013 62.4222 58.9036 62.696C58.6059 62.9697 58.412 63.3129 58.3414 63.6914C58.2502 64.0387 58.3128 64.4163 58.5184 64.7604C58.724 65.1045 59.0597 65.394 59.4686 65.5791C60.4233 66.0645 61.3777 66.5505 62.3183 67.1175C64.8493 68.4058 67.4519 69.613 69.9257 70.9897C74.8223 74.1243 79.513 77.4883 83.9687 81.0601C87.3716 83.5298 90.6445 86.1104 93.9682 88.673C94.7279 89.2519 95.4597 89.8753 96.1988 90.4873C95.3947 90.2995 94.6191 90.0002 93.9076 89.6016C93.3706 89.2824 92.7809 89.0369 92.1657 88.8771C89.9927 88.4217 87.9024 87.6042 86.0294 86.4775C83.3297 85.0785 80.752 83.5043 78.3242 81.7731C75.6679 79.9342 73.2489 77.9059 70.6858 75.9813C68.6662 74.4661 66.6675 72.918 64.5544 71.5178C61.9883 69.7626 59.2758 68.1699 56.4449 66.7553C52.3091 64.7385 48.4163 62.3146 44.1372 60.4905C39.8578 58.6669 36.2833 56.4049 31.9562 55.1027C30.7427 54.7506 29.6216 54.1355 28.4292 53.6911C26.8967 53.0618 25.3306 52.5064 23.7397 52.0271C22.8972 51.8267 22.0342 51.9021 21.3395 52.2376C20.645 52.5726 20.1754 53.1403 20.0337 53.8157C19.7996 54.7039 19.8859 55.6608 20.2822 56.5761C20.6786 57.4909 21.3691 58.3262 22.2736 58.9848C26.1315 61.698 30.3681 63.9934 34.8582 65.8035C38.9786 67.6057 43.1706 69.2967 47.334 71.0319L58.5807 75.694C59.1882 76.0029 59.8101 76.3198 60.4604 76.5624C60.4047 76.6617 60.3427 76.7578 60.2744 76.8509C58.8916 76.5576 57.5215 76.1953 56.1719 75.7666C51.8075 74.1942 47.2515 73.3369 42.9292 71.5202C39.091 69.906 35.0463 68.8511 31.0429 67.3742C27.0395 65.8972 23.535 64.6595 19.8271 63.1415C15.6175 61.5151 11.3341 60.0641 6.99508 58.7939C6.32334 58.6111 5.6371 58.4951 4.9519 58.4481C4.02779 58.4496 3.14894 58.6465 2.39757 59.0204C1.64627 59.3942 1.04708 59.9327 0.656154 60.5856C0.16 62.0645 0.410962 63.7185 1.35563 65.1966C2.30037 66.6747 3.86427 67.8611 5.71552 68.5035C9.30594 69.5779 12.946 70.5158 16.5927 71.3239C22.9906 72.7503 29.4093 73.9955 35.8141 75.3517C38.9263 76.0061 42.0242 76.712 45.1222 77.418C45.6117 77.5411 46.0962 77.6849 46.5741 77.8475L46.511 78.2136L40.709 77.6808C36.7541 77.2616 32.8059 76.7427 28.866 76.4493C25.5323 76.2285 22.2356 76.159 18.9463 76.1677C14.8176 76.0327 10.811 76.6238 7.19014 77.9022C6.58801 78.0961 6.07434 78.4198 5.69679 78.8426C5.31925 79.2655 5.08985 79.7746 5.03002 80.3223C4.97013 80.8701 5.08178 81.4387 5.35433 81.976C5.62679 82.5139 6.05182 83.0021 6.58954 83.397C8.58347 84.8861 10.9893 85.9155 13.5145 86.3608C15.8352 86.7559 18.1713 86.821 20.4185 86.554C23.8864 86.2086 27.4496 86.1924 30.9183 85.9949C37.2999 85.568 43.7103 85.1265 50.0336 84.5818C54.9562 84.2373 59.9938 84.4343 65.0184 85.169C65.6269 85.2656 66.2321 85.3913 66.8304 85.5455L57.3542 87.3487C56.0643 87.5922 54.7597 87.7988 53.448 88.0168L40.0858 90.2772L28.2944 92.2158C27.7214 92.2854 27.205 92.4918 26.8054 92.8113C26.4058 93.1308 26.1398 93.5494 26.0383 94.0193C25.7984 95.0773 26.6676 95.8149 27.6589 96.4227C30.0845 97.8862 32.8809 98.7974 35.7217 99.0508C38.9868 99.4173 42.2323 99.305 45.3065 98.7196C47.9794 98.2542 50.597 97.6547 53.1456 96.9245C55.5511 96.1714 57.8902 95.1039 60.3535 94.3802C63.7458 93.3765 67.2768 92.5762 70.6769 91.6796C71.0767 91.6303 71.4883 91.6219 71.9032 91.6543C71.7408 91.9732 71.4338 92.216 71.0404 92.337C66.4791 93.712 62.2939 95.6942 58.634 98.2129C54.8685 100.755 50.8358 103.029 46.571 105.016C45.402 105.66 44.1201 106.167 42.7553 106.528C42.2035 106.76 41.7549 107.117 41.4549 107.563C41.3658 107.645 41.3 107.742 41.261 107.851C41.2221 107.959 41.2111 108.075 41.2284 108.193C41.2458 108.31 41.2913 108.426 41.3624 108.534C41.4332 108.643 41.5282 108.741 41.6413 108.824C42.3985 109.629 43.3579 110.295 44.4388 110.765C45.5196 111.236 46.69 111.497 47.8508 111.527C49.6645 111.533 51.4202 111.255 53.026 110.707C55.6549 109.905 58.5009 109.273 59.9183 107.043C59.9755 106.954 60.1195 106.938 60.2055 106.864C61.9167 105.61 63.5399 104.252 65.3524 103.108C69.7456 100.251 74.6764 97.9626 80.0044 96.3096C82.3676 95.623 84.9992 95.5013 87.4566 94.9958C90.2119 94.4783 93.223 94.8043 95.9659 95.9177C99.4702 97.2147 102.869 98.7671 106.294 100.246C108.868 101.348 111.377 102.552 113.957 103.615C116.913 104.838 119.927 105.945 122.912 107.095C122.352 107.112 121.782 107.051 121.223 106.914C116.442 105.868 111.669 104.782 106.896 103.784C105.155 103.428 103.402 103.162 101.648 102.987C99.8586 102.784 98.1416 102.796 96.3812 102.638C94.1258 102.465 91.91 102.681 89.8763 103.272C87.8428 103.863 86.0344 104.816 84.5683 106.07C84.079 106.491 83.6798 106.98 83.3849 107.519C83.0148 108.087 82.9042 108.766 83.0729 109.446C83.2409 110.127 83.6783 110.769 84.3128 111.268C85.5503 112.179 86.7465 111.902 88.0066 111.495C88.9344 111.17 89.9395 110.979 90.9835 110.929C94.1279 110.848 97.2941 110.851 100.461 110.854C103.938 110.852 107.444 110.896 110.92 110.894C113.034 110.893 115.132 110.765 117.253 110.841C118.634 110.773 120.057 110.991 121.397 111.475L118.801 111.629C116.803 111.748 114.813 111.857 112.801 111.999C109.801 112.213 106.854 112.706 103.838 112.676C100.823 112.647 98.068 112.691 95.097 112.92C91.6511 113.239 88.5509 114.465 86.2348 116.423C85.6033 116.939 85.2528 117.653 85.2493 118.431C85.2509 119.075 85.4205 119.728 85.7477 120.348C86.0739 120.967 86.5495 121.538 87.1425 122.021C88.491 123.386 88.9028 123.522 90.7399 123.085C92.2385 122.726 93.6719 122.26 95.1772 121.86C98.2459 121.031 101.438 120.368 104.449 119.392C107.553 118.276 110.765 117.333 114.064 116.567C117.524 115.76 121.143 115.317 124.841 115.249C128.693 115.232 132.597 115.523 136.487 115.805C138.407 115.999 140.328 116.272 142.239 116.622C142.802 116.718 143.359 116.849 143.908 117.014C146.38 117.857 148.76 118.925 151 120.196C154.211 121.83 157.522 123.308 160.761 124.898C164 126.488 166.82 127.983 169.843 129.521C171.015 130.117 172.143 130.81 173.272 131.473C174.702 132.456 176.223 133.338 177.815 134.11C181.58 135.658 184.443 138.31 188.001 140.092C188.001 140.092 188.001 140.092 188.016 140.276C187.848 140.271 187.679 140.255 187.511 140.226C185.113 139.566 182.729 138.884 180.331 138.254C179.277 137.983 178.194 137.904 177.169 137.588C174.972 136.914 172.847 136.039 170.644 135.434C166.002 134.05 161.274 132.982 156.512 132.24C153.697 131.87 150.868 131.463 148.066 130.893C146.319 130.556 144.552 130.488 142.857 130.692C141.279 130.847 139.707 131.021 138.142 131.244C137.352 131.328 136.594 131.503 135.887 131.763C135.389 131.943 134.974 132.237 134.687 132.613C134.399 132.99 134.248 133.437 134.251 133.907C134.253 134.377 134.408 134.854 134.7 135.288C134.991 135.723 135.409 136.1 135.91 136.379C137.327 137.177 138.837 137.837 140.407 138.343C142.925 139.029 145.516 139.348 148.057 139.286C151.621 139.447 155.177 139.501 158.697 139.374C161.739 139.245 164.839 139.443 167.918 139.964C172.093 140.641 176.236 141.599 180.303 142.829C181.459 143.182 182.622 143.493 183.785 143.834C182.424 143.95 181.033 143.94 179.637 143.804C176.361 143.613 173.121 143.306 169.868 143.17C166.938 143.067 164.002 143.003 161.096 143.133C158.189 143.262 155.508 143.698 152.674 143.865C150.154 144.052 147.715 144.511 145.417 145.233C145.017 145.336 144.64 145.48 144.294 145.665C143.804 145.943 143.451 146.353 143.284 146.836C143.117 147.32 143.144 147.853 143.363 148.364C143.714 149.487 144.704 149.681 145.692 149.786C147.958 150.024 150.218 150.274 152.49 150.294C155.722 150.374 158.938 150.24 162.126 150.24C164.362 150.256 166.628 150.406 168.872 150.471C171.115 150.535 173.481 150.5 175.804 150.59C179.859 150.736 183.936 151.054 187.983 151.092C193.823 151.047 199.75 151.75 205.557 153.174C207.89 153.819 210.093 154.846 212.028 156.188C215.285 158.376 218.613 160.484 221.92 162.625C222.253 162.794 222.499 163.067 222.781 163.285C221.636 163.038 220.504 162.723 219.394 162.342C213.718 160.929 208.218 158.824 202.379 158.198C200.005 157.949 197.643 157.263 195.247 157.107C188.676 156.659 182.131 156.587 175.662 156.894C174.816 156.992 174.054 157.296 173.466 157.768C173.217 157.93 173.022 158.139 172.896 158.383C172.769 158.627 172.715 158.898 172.737 159.177C172.758 159.455 172.855 159.734 173.02 159.993C173.185 160.251 173.414 160.483 173.69 160.671C174.76 161.592 176.134 162.224 177.587 162.463C181.275 162.938 184.971 163.58 188.652 164.037C194.188 164.714 199.723 165.244 205.223 165.919C205.612 165.993 205.996 166.095 206.371 166.222C203.273 166.918 200.181 167.396 197.074 167.836C195.359 168.084 193.556 168.141 191.877 168.482C190.685 168.783 189.555 169.198 188.507 169.719C186.415 170.549 184.663 171.814 183.404 173.408C182.516 174.638 182.809 175.585 184.521 176.176C186.233 176.767 188.248 177.247 190.127 177.76C190.285 177.841 190.509 177.733 190.689 177.751C193.269 177.879 195.792 177.589 198.114 176.896C202.942 175.811 207.638 174.453 212.407 173.25C214.06 172.791 215.765 172.436 217.509 172.187C220.653 171.838 223.84 171.66 227.113 171.408C227.164 171.33 227.17 171.082 227.247 170.782C231.136 170.947 234.975 171.336 238.456 173.536C237.676 173.535 236.89 173.5 236.104 173.431C232.512 173.491 228.942 173.608 225.379 173.742C224.444 173.77 223.532 173.902 222.669 174.134C222.295 174.2 221.96 174.346 221.693 174.558C221.427 174.771 221.238 175.042 221.145 175.347C221.051 175.652 221.056 175.982 221.159 176.306C221.261 176.629 221.458 176.937 221.732 177.199C222.105 177.649 222.558 178.054 223.073 178.398C223.835 178.928 224.643 179.408 225.489 179.834C226.248 180.258 227.074 180.578 227.932 180.782C230.63 181.284 233.355 181.424 235.998 181.198C240.328 180.78 244.758 180.748 249.212 181.106C249.708 181.197 250.206 181.156 250.633 180.988C251.524 180.438 252.212 180.862 253.001 181.337C255.192 182.674 257.406 183.978 259.613 185.293C261.079 186.142 262.35 187.217 263.343 188.446C259.305 187.321 255.492 186.472 251.666 185.705C247.839 184.938 243.716 184.005 239.781 183.286C237.203 182.894 234.62 182.936 232.193 183.409C231.563 183.441 230.99 183.651 230.571 184.006C230.15 184.36 229.907 184.838 229.88 185.36C229.837 185.926 229.972 186.509 230.273 187.054C230.573 187.6 231.029 188.09 231.597 188.478C233.312 189.697 235.37 190.503 237.502 190.79C241.313 191.254 245.152 191.555 248.984 191.956C251.741 192.237 254.44 192.43 257.248 192.87C262.615 193.882 267.943 195.159 273.201 196.696C274.3 196.91 275.379 197.24 276.409 197.679C278.997 198.997 281.586 200.314 284.032 201.854C286.136 203.189 288.163 204.61 290.105 206.111C291.415 207.059 292.404 207.282 293.796 205.747C295.533 203.886 294.808 201.701 294.394 199.631L292.255 198.985C291.397 198.595 290.473 198.346 289.539 198.252C288.628 198.316 287.677 198.09 286.875 197.619C284.292 196.172 281.738 194.68 279.142 193.256C275.388 191.212 271.52 189.287 267.83 187.144C265.241 185.649 262.837 183.894 260.362 182.25C260.015 182.074 259.79 181.768 259.247 181.328L263.54 181.64C265.481 181.786 267.437 181.852 269.364 182.11C272.547 182.534 275.808 182.689 278.723 184.394C279.038 184.593 279.407 184.716 279.783 184.746C280.157 184.777 280.52 184.712 280.823 184.562C282.25 183.96 283.292 182.915 283.752 181.626C284.401 180.2 284.037 179.483 282.194 178.737C280.669 178.123 279.181 177.75 277.714 177.165C274.27 176.014 270.929 174.6 267.739 172.944C267.477 172.777 267.176 172.659 266.864 172.602C265.721 172.417 264.621 171.988 263.676 171.359C262.731 170.73 261.975 169.924 261.487 169.024C258.897 164.85 257.074 160.446 256.085 155.973C255.359 153.463 254.538 150.95 253.61 148.456C252.682 145.961 251.552 143.6 250.624 141.165C249.711 138.645 248.199 136.243 246.182 134.108C245.664 133.541 245.01 133.065 244.269 132.716C243.528 132.367 242.72 132.155 241.909 132.095C240.631 131.961 240.222 132.24 240.148 133.28C240.068 134.985 240.513 136.734 241.442 138.366C242.643 140.586 243.563 142.884 244.786 145.101C246.468 148.215 248.719 151.161 249.766 154.454C250.059 155.4 250.497 156.302 250.768 157.251L250.372 157.389C249.967 157.062 249.598 156.706 249.271 156.327C248.524 155.361 247.836 154.371 247.207 153.358C245.941 151.238 244.792 149.058 243.562 146.912C242.332 144.767 241.118 142.717 239.924 140.634C237.779 136.988 235.668 133.317 233.515 129.712C233.076 128.987 232.451 128.335 231.689 127.808C231.409 127.588 231.07 127.43 230.709 127.353C230.349 127.275 229.981 127.281 229.65 127.37C229.319 127.458 229.036 127.626 228.835 127.853C228.633 128.081 228.521 128.359 228.511 128.656C228.372 129.505 228.376 130.381 228.524 131.26C229.287 135.096 230.727 138.888 232.799 142.512C234.995 146.844 237.881 150.975 241.372 154.786C243.467 156.989 245.484 159.255 247.514 161.499C247.877 161.89 248.167 162.333 248.56 162.857C246.356 162.045 244.434 161.362 242.555 160.612C241.961 160.422 241.429 160.095 241.027 159.673C238.704 156.631 236.468 153.544 234.151 150.491C232.591 148.413 231.044 146.371 229.317 144.311C228.72 143.649 227.996 143.065 227.181 142.589C226.893 142.403 226.567 142.267 226.225 142.19C225.883 142.114 225.535 142.098 225.204 142.145C224.873 142.192 224.568 142.301 224.311 142.463C224.053 142.625 223.849 142.836 223.714 143.083C223.357 143.577 223.172 144.156 223.177 144.764C223.183 145.371 223.378 145.987 223.745 146.552C225.023 148.324 226.229 150.119 227.45 151.921C227.85 152.584 228.21 153.26 228.528 153.945C227.09 153.442 225.783 152.665 224.723 151.684C222.286 149.27 219.033 147.505 215.487 146.673C214.738 145.391 213.973 144.014 213.173 142.662C211.604 140.274 210.343 137.78 209.414 135.229C208.952 133.68 208.281 132.158 207.697 130.621C206.87 128.385 205.85 126.153 205.254 123.887C204.736 121.927 203.646 120.043 202.082 118.406C201.814 118.057 201.434 117.769 200.993 117.579C200.552 117.388 200.068 117.303 199.603 117.336C198.559 117.495 197.644 117.931 196.991 118.581C196.337 119.232 195.977 120.064 195.963 120.959C196.238 122.405 196.66 123.844 197.225 125.261C197.956 127.109 198.78 128.812 199.683 130.63C199.152 130.238 198.724 129.762 198.428 129.239C196.389 125.248 194.328 121.322 192.267 117.366C190.701 114.34 189.121 111.337 187.462 108.308C187.034 107.585 186.424 106.931 185.678 106.396C185.438 106.2 185.147 106.053 184.834 105.97C184.522 105.887 184.198 105.871 183.896 105.923C183.595 105.976 183.325 106.095 183.114 106.269C182.903 106.443 182.758 106.665 182.694 106.914C182.528 107.289 182.461 107.696 182.498 108.113C182.563 109.457 182.726 110.807 182.987 112.155C184.122 116.824 186.096 121.411 188.839 125.759C191.711 130.424 195.303 134.835 198.622 139.343C199.639 140.746 200.822 142.16 201.917 143.559C200.515 142.721 199.182 141.801 197.93 140.806C197.032 140.143 196.005 139.59 195.172 138.886C192.014 136.216 188.92 133.475 185.762 130.806C183.811 129.427 182.28 127.685 181.33 125.76C181.056 125.223 180.722 124.702 180.334 124.205C179.62 123.233 178.983 122.228 178.429 121.199C178.103 120.346 177.857 119.481 177.695 118.611C177.32 117.597 177.012 116.573 176.771 115.544C176.169 111.917 175.676 108.301 175.102 104.659C175.043 104.407 174.967 104.156 174.875 103.908C174.374 101.705 173.663 99.4687 173.399 97.254C173.19 94.405 172.373 91.5451 170.984 88.8078C170.25 87.563 169.825 86.1956 169.162 84.9287C168.718 84.0382 168.136 83.1821 167.62 82.3138C167.158 81.6126 166.472 81.014 165.646 80.5936C164.82 80.1732 163.891 79.9496 162.977 79.9507C162.191 79.8603 161.672 80.0393 161.726 80.7899C161.722 81.1452 161.582 81.4762 161.327 81.7376C160.684 82.4593 160.446 83.3977 160.662 84.3507C160.766 85.0238 160.87 85.6968 161.047 86.3771C161.669 89.5853 162.73 92.7701 164.21 95.8677C166.838 100.469 168.788 105.255 170.015 110.113C169.885 110.135 169.741 110.15 169.604 110.184C168.555 108.056 167.441 105.939 166.442 103.793C165.232 101.199 164.165 98.5607 162.962 95.9557C162 93.8425 160.98 91.7594 159.931 89.6609C158.112 85.5358 155.909 81.4976 153.343 77.5853C152.5 76.4187 151.687 75.2669 150.758 74.115C150.331 73.6219 149.744 73.232 149.079 72.9992C148.414 72.7664 147.703 72.7019 147.044 72.8151C146.428 73.0189 145.915 73.3678 145.561 73.8231C145.206 74.2782 145.026 74.8223 145.037 75.3947C145.127 76.7884 145.417 78.1893 145.902 79.5683C147.442 83.046 149.459 86.4106 151.909 89.5921C154.597 93.3211 157.371 97.0354 160.043 100.816C162.055 103.656 163.945 106.507 165.727 109.406C168.26 113.263 171.074 117.012 174.149 120.629C174.504 121.119 174.82 121.625 175.094 122.143C174.807 121.988 174.533 121.815 174.277 121.624C170.904 117.915 166.677 115.026 162.745 111.829C160.377 109.9 158.008 107.942 155.805 105.905C152.946 103.016 150.629 99.8118 148.949 96.424C147.559 93.8718 146.089 91.3232 144.757 88.7412C143.34 86.2377 142.246 83.6467 141.494 81.0146C140.876 78.427 140.026 75.84 139.393 73.2742C139.266 72.7323 138.986 72.2068 138.577 71.7421C138.168 71.2773 137.642 70.8866 137.043 70.6023C136.724 70.4055 136.347 70.2988 135.974 70.3004C135.601 70.3019 135.257 70.4118 135.002 70.6112C134.108 71.102 133.424 71.8021 133.021 72.6367C132.619 73.4713 132.514 74.4094 132.717 75.3518C133.179 77.6359 133.783 79.9136 134.525 82.1752C135.093 83.517 135.755 84.8396 136.507 86.1353C137.016 87.2216 137.498 88.3227 137.994 89.4312C138.086 89.6797 138.162 89.9301 138.221 90.1818C137.672 89.9428 137.185 89.6042 136.803 89.1935C134.338 86.6107 131.987 83.9385 129.4 81.456C127.211 79.3379 125.238 77.0056 122.208 75.567C121.712 75.3003 121.28 74.9546 120.941 74.5525C119.978 73.5685 119.306 72.4285 118.984 71.2401C118.221 68.7817 117.886 66.289 117.989 63.8408C118.076 62.631 118.431 61.4538 118.648 60.251C118.833 58.5787 119.444 57 120.444 55.6155C120.675 55.2737 120.865 54.9105 121.008 54.5304C121.922 52.6636 122.8 50.7639 123.779 48.9156C125.373 45.9044 127.516 43.1138 128.618 39.8818C128.79 39.3564 128.879 38.807 128.884 38.2463C128.908 37.3732 128.861 36.4929 128.792 35.6166C128.761 34.7956 128.65 33.9694 128.462 33.1465C128.409 32.9118 128.292 32.6835 128.12 32.4798C127.948 32.2763 127.726 32.1026 127.471 31.9728C127.216 31.8429 126.934 31.7602 126.65 31.7316C126.365 31.7027 126.085 31.7285 125.83 31.8066C124.269 31.9735 122.839 32.4839 121.685 33.2871C120.531 34.0905 119.692 35.1583 119.253 36.3842C118.783 37.6208 118.413 38.9088 117.871 40.1086C115.743 44.843 114.271 49.8183 113.48 54.9488C113.305 56.1143 113.224 57.313 113.115 58.497C112.706 58.0561 112.404 57.5602 112.228 57.0418C110.827 52.9073 109.96 48.7149 109.641 44.5386C109.486 42.1201 109.125 39.6922 108.56 37.2729C107.65 34.3012 106.64 31.3076 105.926 28.3615C105.422 26.9301 104.522 25.5765 103.303 24.4138C103.183 24.261 103.024 24.1294 102.839 24.0299C102.654 23.9302 102.449 23.8657 102.24 23.8413C102.03 23.8169 101.824 23.8335 101.636 23.8897C101.448 23.9456 101.285 24.0399 101.159 24.1641C99.1981 25.8668 97.2955 27.6286 97.8145 30.4312C97.9506 31.2086 98.1715 31.9831 98.4747 32.745C99.6426 35.5236 100.948 38.2687 102.007 41.0659C102.628 42.9343 103.115 44.8182 103.463 46.707C104.855 51.7643 106.995 56.7361 109.833 61.5051C110.408 62.58 110.955 63.6403 111.58 64.7556C110.082 63.8312 108.74 62.7349 107.604 61.5069C105.232 58.8616 103.419 55.9375 102.253 52.8798C101.543 51.1047 101.008 49.3022 100.654 47.4908C100.401 46.0636 99.5937 44.6342 99.168 43.2074C98.5012 40.9936 98.0065 38.779 97.3538 36.5724C96.4368 33.4935 95.5635 30.4072 94.4519 27.3325C93.2081 23.7476 91.7622 20.2077 90.3383 16.664C89.5637 14.6759 88.5008 12.6886 87.7189 10.6524C86.7994 8.20255 85.3817 5.85232 83.5302 3.7091C82.6955 2.785 81.7421 1.93311 80.6901 1.17138C80.2465 0.866551 79.7167 0.670474 79.1721 0.60968C78.6275 0.548887 78.0943 0.626265 77.6444 0.831352ZM250.443 173.173C248.83 170.994 247.175 168.824 245.57 166.634C245.414 166.309 245.32 165.972 245.291 165.636C246.13 165.945 246.765 166.15 247.387 166.407C248.079 166.723 248.755 167.067 249.412 167.438L264.507 175.785C264.206 175.808 263.899 175.805 263.591 175.777C259.823 175.246 256.077 174.682 252.323 174.189C251.949 174.161 251.579 174.052 251.248 173.873C250.918 173.695 250.64 173.453 250.443 173.173Z" fill="white"/>
</svg>
