<svg width="36" height="24" viewBox="0 0 36 24" fill="none" xmlns="http://www.w3.org/2000/svg">
<path d="M30.8571 13.4516H28.6253C28.8194 13.0645 29.1752 12.129 29.6927 10.6452V10.5484C29.7574 10.4839 29.8221 10.3548 29.8868 10.1613C29.9515 9.96774 30.0162 9.83871 30.0809 9.77419L30.1779 10.6452L30.8571 13.4516ZM8.24798 12.4839L7.37466 7.83871C7.24528 7.25806 6.88949 6.96774 6.30728 6.96774C6.24259 6.96774 6.21024 6.96774 6.21024 6.96774H1.9407V7.25806C5.1752 8.03226 7.27763 9.77419 8.24798 12.4839ZM11.062 6.96774L8.53908 13.8387L8.24798 12.4839C7.92453 11.7097 7.4717 11.0323 6.88949 10.4516C6.30728 9.87097 5.62803 9.41936 4.85175 9.09678L6.98652 17.0323H9.7035L13.779 6.96774H11.062ZM13.1968 17.0323H15.8167L17.4663 6.96774H14.8464L13.1968 17.0323ZM25.2291 7.25806C24.5175 7 23.7412 6.87097 22.9003 6.87097C22.8356 6.80645 22.7709 6.77419 22.7062 6.77419C21.6065 6.77419 20.6361 7.09678 19.7951 7.74194C18.9542 8.32258 18.5337 9.12903 18.5337 10.1613C18.5337 11.1935 19.2776 12.0968 20.7655 12.871C21.1536 13 21.5094 13.1935 21.8329 13.4516C22.027 13.6452 22.124 13.871 22.124 14.129C22.124 14.4516 21.9623 14.6774 21.6388 14.8065C21.3154 15 20.9919 15.0968 20.6685 15.0968H20.5714C20.5067 15.0968 20.4744 15.0968 20.4744 15.0968C19.6334 15.0968 18.8571 14.9355 18.1456 14.6129L17.7574 14.4194L17.4663 16.6452C18.3073 16.9677 19.1806 17.129 20.0863 17.129C20.2156 17.129 20.3127 17.129 20.3774 17.129C20.442 17.129 20.5391 17.129 20.6685 17.129C21.7682 17.129 22.7385 16.8387 23.5795 16.2581C24.4205 15.6129 24.841 14.7742 24.841 13.7419C24.841 12.6452 24.1294 11.7419 22.7062 11.0323C22.3181 10.8387 21.9299 10.6129 21.5418 10.3548C21.3477 10.2258 21.2507 10.0323 21.2507 9.77419C21.2507 9.51613 21.3801 9.32258 21.6388 9.19355C21.8976 9 22.221 8.90323 22.6092 8.90323C22.6092 8.90323 22.6415 8.90323 22.7062 8.90323C22.7709 8.90323 22.8356 8.90323 22.9003 8.90323C23.4825 8.90323 24.0647 9.03226 24.6469 9.29032L24.841 9.48387L25.2291 7.25806ZM31.8275 6.96774H29.8868C29.8221 6.96774 29.7898 6.96774 29.7898 6.96774C29.1429 6.96774 28.7224 7.25806 28.5283 7.83871L24.6469 17.0323H27.3639L27.9461 15.5806H31.2453C31.2453 15.6452 31.3423 16.129 31.5364 17.0323H33.9623L31.8275 6.96774ZM36 2.03226V21.9677C35.9353 22.3548 35.8221 22.6935 35.6604 22.9839C35.4987 23.2742 35.2722 23.5 34.9811 23.6613C34.69 23.8226 34.3504 23.9355 33.9623 24H1.9407C1.42318 23.9355 0.97035 23.7097 0.58221 23.3226C0.19407 22.9355 0 22.4839 0 21.9677V2.03226C0 1.51613 0.19407 1.06452 0.58221 0.67742C0.97035 0.290323 1.42318 0.0645161 1.9407 0H33.9623C34.4798 0.0645161 34.9326 0.290323 35.3208 0.67742C35.7089 1.06452 35.903 1.51613 35.903 2.03226H36Z" fill="white"/>
</svg>
