<svg width="24" height="24" viewBox="0 0 24 24" fill="none" xmlns="http://www.w3.org/2000/svg">
<path d="M12.9291 4.40079L12.9291 4.40077L12.5407 4.80231L12.0016 5.35959L11.4625 4.80231L11.0741 4.40077L11.0694 4.39583L11.0694 4.39581C9.08958 2.31121 5.74904 2.18998 3.61607 4.12871L12.9291 4.40079ZM12.9291 4.40079L12.9332 4.39653M12.9291 4.40079L12.9332 4.39653M12.9332 4.39653C13.9294 3.35035 15.3284 2.75206 16.7977 2.75013C18.2653 2.75261 19.6624 3.35091 20.6569 4.39641C22.7802 6.63735 22.781 10.0939 20.6593 12.3357L12.0338 21.2379L12.0334 21.2383L12.0328 21.2389L12.0326 21.2391C12.026 21.2452 12.0158 21.2504 12.0002 21.25C11.9847 21.2496 11.9753 21.2439 11.9696 21.2381L11.9693 21.2378M12.9332 4.39653L11.9693 21.2378M11.9693 21.2378L3.34077 12.3357C1.21887 10.0935 1.21974 6.63662 3.3434 4.39543M11.9693 21.2378L3.3434 4.39543M3.3434 4.39543C3.43077 4.30346 3.52168 4.21455 3.61596 4.12882L3.3434 4.39543Z" stroke="#7A622F" strokeWidth="1.5"/>
</svg>
