<svg width="19" height="24" viewBox="0 0 19 24" fill="none" xmlns="http://www.w3.org/2000/svg">
<path d="M10.0469 0.297363C14.4531 0.297363 18.4844 3.34424 18.4844 7.98486C18.4844 12.3442 16.2344 17.2192 11.2656 17.2192C10.0469 17.2192 8.59375 16.6099 7.98438 15.5317C6.95312 19.7505 7 20.4067 4.65625 23.6411C4.42188 23.7349 4.46875 23.7349 4.32812 23.5474C4.23438 22.6567 4.14062 21.813 4.14062 20.9224C4.14062 18.063 5.45312 13.8911 6.10938 11.1255C5.73438 10.3755 5.64062 9.53174 5.64062 8.73486C5.64062 4.98486 10.0469 4.42236 10.0469 7.51611C10.0469 9.34424 8.78125 11.0786 8.78125 12.8599C8.78125 14.0317 9.8125 14.8755 10.9844 14.8755C14.2188 14.8755 15.2031 10.2349 15.2031 7.75049C15.2031 4.42236 12.8594 2.59424 9.625 2.59424C5.92188 2.59424 3.0625 5.26611 3.0625 9.01611C3.0625 10.8442 4.1875 11.7817 4.1875 12.2036C4.1875 12.5786 3.90625 13.8442 3.4375 13.8442C2.3125 13.8442 0.484375 11.9692 0.484375 8.68799C0.484375 3.48486 5.21875 0.297363 10.0469 0.297363Z" fill="white"/>
</svg>
