<svg width="25" height="20" viewBox="0 0 25 20" fill="none" xmlns="http://www.w3.org/2000/svg">
<path d="M22.4062 5.10156C22.4062 5.33594 22.4062 5.52344 22.4062 5.75781C22.4062 12.2734 17.4844 19.7266 8.4375 19.7266C5.625 19.7266 3.04688 18.9297 0.890625 17.5234C1.26562 17.5703 1.64062 17.6172 2.0625 17.6172C4.35938 17.6172 6.46875 16.8203 8.15625 15.5078C6 15.4609 4.17188 14.0547 3.5625 12.0859C3.89062 12.1328 4.17188 12.1797 4.5 12.1797C4.92188 12.1797 5.39062 12.0859 5.76562 11.9922C3.51562 11.5234 1.82812 9.55469 1.82812 7.16406V7.11719C2.48438 7.49219 3.28125 7.67969 4.07812 7.72656C2.71875 6.83594 1.875 5.33594 1.875 3.64844C1.875 2.71094 2.10938 1.86719 2.53125 1.16406C4.96875 4.11719 8.625 6.08594 12.7031 6.32031C12.6094 5.94531 12.5625 5.57031 12.5625 5.19531C12.5625 2.47656 14.7656 0.273438 17.4844 0.273438C18.8906 0.273438 20.1562 0.835938 21.0938 1.82031C22.1719 1.58594 23.25 1.16406 24.1875 0.601562C23.8125 1.77344 23.0625 2.71094 22.0312 3.32031C23.0156 3.22656 24 2.94531 24.8438 2.57031C24.1875 3.55469 23.3438 4.39844 22.4062 5.10156Z" fill="white"/>
</svg>
