<svg width="27" height="18" viewBox="0 0 27 18" fill="none" xmlns="http://www.w3.org/2000/svg">
<path d="M25.9219 2.85938C26.4844 4.82812 26.4844 9.04688 26.4844 9.04688C26.4844 9.04688 26.4844 13.2188 25.9219 15.2344C25.6406 16.3594 24.75 17.2031 23.6719 17.4844C21.6562 18 13.6875 18 13.6875 18C13.6875 18 5.67188 18 3.65625 17.4844C2.57812 17.2031 1.6875 16.3594 1.40625 15.2344C0.84375 13.2188 0.84375 9.04688 0.84375 9.04688C0.84375 9.04688 0.84375 4.82812 1.40625 2.85938C1.6875 1.73438 2.57812 0.84375 3.65625 0.5625C5.67188 0 13.6875 0 13.6875 0C13.6875 0 21.6562 0 23.6719 0.5625C24.75 0.84375 25.6406 1.73438 25.9219 2.85938ZM11.0625 12.8438L17.7188 9.04688L11.0625 5.25V12.8438Z" fill="white"/>
</svg>
