<svg width="34" height="24" viewBox="0 0 34 24" fill="none" xmlns="http://www.w3.org/2000/svg">
<path d="M0 9.85366C0 9.26829 0.246377 8.97561 0.73913 8.97561H33.2609C33.7536 8.97561 34 9.26829 34 9.85366V19.122C34 20.4878 33.5534 21.6423 32.6603 22.5854C31.7672 23.5285 30.7047 24 29.4728 24H29.3804H4.61957H4.52717C3.29529 24 2.23279 23.5285 1.33967 22.5854C0.446558 21.6423 0 20.4878 0 19.122V9.85366ZM8.5 15.7073C8.56159 15.7073 8.62319 15.7073 8.68478 15.7073C9.11594 15.7073 9.47011 15.561 9.74728 15.2683C10.0245 14.9756 10.163 14.6341 10.163 14.2439C10.163 13.8537 10.0245 13.5122 9.74728 13.2195C9.47011 12.9268 9.11594 12.7805 8.68478 12.7805C8.62319 12.7805 8.56159 12.7805 8.5 12.7805H6.375C6.25181 12.7805 6.15942 12.7805 6.09783 12.7805C5.72826 12.7805 5.40489 12.9268 5.12772 13.2195C4.85054 13.5122 4.71196 13.8537 4.71196 14.2439C4.71196 14.6341 4.85054 14.9756 5.12772 15.2683C5.40489 15.561 5.72826 15.7073 6.09783 15.7073C6.15942 15.7073 6.25181 15.7073 6.375 15.7073H8.5ZM34 5.17073C34 5.7561 33.7536 6.04878 33.2609 6.04878H0.73913C0.246377 6.04878 0 5.7561 0 5.17073V4.87805C0 3.5122 0.446558 2.35773 1.33967 1.41463C2.23279 0.471546 3.29529 0 4.52717 0H4.61957H29.3804H29.4728C30.7047 0 31.7672 0.471546 32.6603 1.41463C33.5534 2.35773 34 3.5122 34 4.87805V5.17073Z" fill="white"/>
</svg>
