<svg width="38" height="24" viewBox="0 0 38 24" fill="none" xmlns="http://www.w3.org/2000/svg">
<path d="M11.0749 12.576H10.8717C10.3298 12.576 10.0588 12.736 10.0588 13.056C10.0588 13.312 10.1604 13.44 10.3636 13.44C10.5668 13.44 10.7362 13.344 10.8717 13.152C11.0071 12.96 11.0749 12.768 11.0749 12.576ZM17.5775 12H18.5936V11.904V11.808C18.5936 11.808 18.5936 11.776 18.5936 11.712C18.5936 11.712 18.5936 11.68 18.5936 11.616C18.5936 11.552 18.5766 11.504 18.5428 11.472C18.5089 11.44 18.4581 11.424 18.3904 11.424C18.3226 11.424 18.2549 11.424 18.1872 11.424C17.8485 11.424 17.6453 11.616 17.5775 12ZM26.5187 12.576H26.3155C25.7736 12.576 25.5027 12.736 25.5027 13.056C25.5027 13.312 25.6043 13.44 25.8075 13.44C26.0107 13.44 26.18 13.344 26.3155 13.152C26.451 12.96 26.5187 12.768 26.5187 12.576ZM31.8021 12.192C31.8021 11.744 31.5989 11.52 31.1925 11.52C30.9893 11.52 30.82 11.616 30.6845 11.808C30.549 12.064 30.4813 12.32 30.4813 12.576C30.4813 12.576 30.4813 12.608 30.4813 12.672C30.4813 13.056 30.6506 13.248 30.9893 13.248C31.1925 13.248 31.3619 13.152 31.4973 12.96C31.6328 12.768 31.7005 12.512 31.7005 12.192H31.8021ZM7.92513 9.984H9.34759L8.63636 14.016H7.72192L8.22995 10.944L7.01069 14.016H6.40107L6.29947 10.944L5.79144 14.016H4.87701L5.58824 9.984H7.01069V12.48L7.92513 9.984ZM12.0909 11.616C12.0909 11.808 12.057 12.032 11.9893 12.288C11.8538 13.376 11.7522 13.952 11.6845 14.016H10.9733V13.728C10.7023 13.984 10.3975 14.112 10.0588 14.112C10.0588 14.112 10.025 14.112 9.95722 14.112C9.75401 14.112 9.56774 14.032 9.3984 13.872C9.22906 13.712 9.14438 13.504 9.14438 13.248C9.14438 13.184 9.14438 13.152 9.14438 13.152C9.14438 12.768 9.27986 12.48 9.5508 12.288C9.88948 12.032 10.262 11.904 10.6684 11.904C10.7362 11.904 10.7701 11.904 10.7701 11.904C10.8378 11.904 10.9055 11.904 10.9733 11.904C11.041 11.904 11.1087 11.904 11.1765 11.904V11.808V11.712C11.1765 11.52 10.9733 11.424 10.5668 11.424C10.2282 11.424 9.88948 11.488 9.5508 11.616C9.5508 11.552 9.61854 11.296 9.75401 10.848C10.0927 10.72 10.4314 10.656 10.7701 10.656C11.5829 10.656 11.9893 10.976 11.9893 11.616H12.0909ZM14.631 10.752L14.5294 11.52C14.3262 11.456 14.0891 11.424 13.8182 11.424C13.5472 11.424 13.4118 11.52 13.4118 11.712C13.4118 11.776 13.4456 11.84 13.5134 11.904C13.5811 11.968 13.6827 12.032 13.8182 12.096C14.2923 12.224 14.5294 12.512 14.5294 12.96V13.056C14.5294 13.76 14.0214 14.112 13.0053 14.112C12.6667 14.112 12.3619 14.08 12.0909 14.016C12.0909 14.016 12.1248 13.76 12.1925 13.248C12.4635 13.312 12.7344 13.376 13.0053 13.44C13.4118 13.44 13.615 13.312 13.615 13.056C13.615 12.992 13.5811 12.96 13.5134 12.96C13.3779 12.832 13.2424 12.768 13.107 12.768C12.7005 12.576 12.4635 12.256 12.3957 11.808C12.3957 11.04 12.8699 10.656 13.8182 10.656C13.8859 10.656 13.9198 10.656 13.9198 10.656C14.1907 10.656 14.4278 10.688 14.631 10.752ZM16.0535 10.752H16.5615L16.4599 11.52H15.9519C15.9519 11.712 15.918 11.936 15.8503 12.192C15.8503 12.256 15.8503 12.32 15.8503 12.384C15.7825 12.576 15.7487 12.704 15.7487 12.768C15.7487 12.896 15.7148 12.992 15.6471 13.056C15.6471 13.248 15.7825 13.344 16.0535 13.344C16.1212 13.344 16.1889 13.312 16.2567 13.248L16.1551 14.016C15.9519 14.08 15.7148 14.112 15.4438 14.112C14.9697 14.112 14.7326 13.856 14.7326 13.344C14.7326 13.088 14.7665 12.8 14.8342 12.48C14.902 12.16 15.0374 11.424 15.2406 10.272H16.1551L16.0535 10.752ZM19.4064 11.904C19.4064 12.16 19.3725 12.416 19.3048 12.672H17.4759C17.4759 12.736 17.4759 12.768 17.4759 12.768C17.4759 12.96 17.5437 13.12 17.6791 13.248C17.8824 13.312 18.0856 13.344 18.2888 13.344C18.6275 13.344 18.9661 13.28 19.3048 13.152L19.1016 14.016C18.8307 14.08 18.5258 14.112 18.1872 14.112C18.1194 14.112 18.0517 14.112 17.984 14.112C17.1711 14.112 16.697 13.728 16.5615 12.96C16.5615 12.896 16.5615 12.848 16.5615 12.816C16.5615 12.784 16.5615 12.736 16.5615 12.672C16.5615 12.608 16.5615 12.576 16.5615 12.576C16.5615 12.064 16.7308 11.616 17.0695 11.232C17.3405 10.848 17.713 10.656 18.1872 10.656C18.2549 10.656 18.2888 10.656 18.2888 10.656C18.6275 10.656 18.9153 10.768 19.1524 10.992C19.3895 11.216 19.508 11.488 19.508 11.808C19.508 11.808 19.508 11.84 19.508 11.904H19.4064ZM21.7433 10.752C21.6078 11.072 21.5062 11.392 21.4385 11.712C21.1676 11.712 20.9643 11.84 20.8289 12.096C20.6934 12.736 20.5579 13.408 20.4225 14.112H19.508L19.6096 13.824C19.8128 12.544 19.9822 11.52 20.1176 10.752H20.9305L20.8289 11.232C20.9643 11.04 21.1337 10.88 21.3369 10.752C21.4046 10.688 21.5062 10.656 21.6417 10.656C21.6417 10.656 21.6756 10.688 21.7433 10.752ZM24.7914 10.08L24.6898 10.944C24.4866 10.816 24.2157 10.752 23.877 10.752C23.5383 10.752 23.2674 10.912 23.0642 11.232C22.861 11.488 22.7594 11.808 22.7594 12.192C22.7594 12.256 22.7594 12.288 22.7594 12.288C22.7594 12.288 22.7594 12.32 22.7594 12.384C22.7594 12.576 22.8271 12.8 22.9626 13.056C23.098 13.184 23.3012 13.248 23.5722 13.248C23.8431 13.248 24.1141 13.184 24.385 13.056L24.1818 14.016C23.9109 14.08 23.6399 14.112 23.369 14.112C22.8948 14.112 22.4884 13.952 22.1497 13.632C21.8788 13.312 21.7433 12.928 21.7433 12.48C21.7433 12.416 21.7433 12.368 21.7433 12.336C21.7433 12.304 21.7433 12.256 21.7433 12.192C21.7433 11.616 21.9465 11.072 22.3529 10.56C22.6916 10.112 23.1658 9.888 23.7754 9.888H23.877C24.2157 9.888 24.5544 9.952 24.893 10.08H24.7914ZM27.5348 11.616C27.5348 11.872 27.5009 12.096 27.4332 12.288C27.2977 13.12 27.1961 13.696 27.1283 14.016H26.4171V13.728C26.2139 13.984 25.9091 14.112 25.5027 14.112C25.5027 14.112 25.4688 14.112 25.4011 14.112C25.1979 14.112 25.0116 14.032 24.8422 13.872C24.6729 13.712 24.5882 13.504 24.5882 13.248C24.5882 13.184 24.5882 13.152 24.5882 13.152C24.5882 12.832 24.7237 12.544 24.9947 12.288C25.3333 12.032 25.7059 11.904 26.1123 11.904C26.1123 11.904 26.1462 11.904 26.2139 11.904C26.2816 11.904 26.3494 11.904 26.4171 11.904C26.4848 11.904 26.5526 11.904 26.6203 11.904C26.6203 11.84 26.6203 11.776 26.6203 11.712C26.6203 11.52 26.4171 11.424 26.0107 11.424C25.672 11.424 25.3672 11.488 25.0963 11.616C25.0963 11.552 25.1301 11.296 25.1979 10.848C25.5365 10.72 25.9091 10.656 26.3155 10.656C27.1283 10.656 27.5348 10.976 27.5348 11.616ZM29.8717 10.752C29.6684 11.072 29.533 11.392 29.4652 11.712C29.1943 11.712 29.025 11.84 28.9572 12.096C28.8217 12.736 28.6863 13.408 28.5508 14.112H27.6364V13.824C27.8396 12.8 28.0089 11.776 28.1444 10.752H29.0588C29.0588 10.944 29.025 11.104 28.9572 11.232C29.0927 11.04 29.2282 10.88 29.3636 10.752C29.4991 10.688 29.6007 10.656 29.6684 10.656C29.7362 10.656 29.8039 10.688 29.8717 10.752ZM32.2086 9.984H33.123L32.4118 14.016H31.4973L31.5989 13.728C31.328 13.984 31.0232 14.112 30.6845 14.112C30.3458 14.112 30.0749 13.984 29.8717 13.728C29.6684 13.472 29.5668 13.184 29.5668 12.864C29.5668 12.8 29.5668 12.768 29.5668 12.768C29.5668 12.768 29.5668 12.736 29.5668 12.672C29.5668 12.16 29.7362 11.712 30.0749 11.328C30.2781 10.944 30.6168 10.752 31.0909 10.752C31.4296 10.752 31.7344 10.88 32.0053 11.136L32.2086 9.984ZM34.0374 12C34.0374 9.632 33.1569 7.632 31.3957 6C29.6346 4.368 27.5009 3.552 24.9947 3.552C23.0303 3.552 21.2353 4.096 19.6096 5.184C21.0321 6.4 21.9804 7.904 22.4545 9.696H21.6417C21.1676 8.096 20.287 6.784 19 5.76C17.713 6.784 16.8324 8.096 16.3583 9.696H15.5455C16.0196 7.904 16.9679 6.4 18.3904 5.184C16.7647 4.096 14.9697 3.552 13.0053 3.552C10.4991 3.552 8.36542 4.368 6.60428 6C4.84314 7.632 3.96257 9.632 3.96257 12C3.96257 14.368 4.84314 16.368 6.60428 18C8.36542 19.632 10.4991 20.448 13.0053 20.448C14.9697 20.448 16.7647 19.904 18.3904 18.816C17.1034 17.664 16.1889 16.288 15.6471 14.688H16.4599C17.0018 16.096 17.8485 17.28 19 18.24C20.1515 17.28 20.9982 16.096 21.5401 14.688H22.3529C21.8111 16.288 20.8966 17.664 19.6096 18.816C21.2353 19.968 23.0303 20.544 24.9947 20.544C27.5009 20.544 29.6346 19.712 31.3957 18.048C33.1569 16.384 34.0374 14.368 34.0374 12ZM38 2.016V21.984C38 22.368 37.8984 22.704 37.6952 22.992C37.492 23.28 37.238 23.52 36.9332 23.712C36.6283 23.904 36.2727 24 35.8663 24H2.13369H2.03209C1.4902 24 1.01604 23.808 0.609626 23.424C0.203209 23.04 0 22.56 0 21.984V2.016C0 1.44 0.203209 0.959999 0.609626 0.576C1.01604 0.191999 1.4902 0 2.03209 0H2.13369H35.8663C36.4759 0 36.984 0.208 37.3904 0.624001C37.7968 1.04 38 1.504 38 2.016Z" fill="white"/>
</svg>
